G04 #@! TF.GenerationSoftware,KiCad,Pcbnew,5.1.5+dfsg1-2build2*
G04 #@! TF.CreationDate,2021-04-12T21:16:20-04:00*
G04 #@! TF.ProjectId,ore_tile,6f72655f-7469-46c6-952e-6b696361645f,rev?*
G04 #@! TF.SameCoordinates,Original*
G04 #@! TF.FileFunction,Copper,L1,Top*
G04 #@! TF.FilePolarity,Positive*
%FSLAX46Y46*%
G04 Gerber Fmt 4.6, Leading zero omitted, Abs format (unit mm)*
G04 Created by KiCad (PCBNEW 5.1.5+dfsg1-2build2) date 2021-04-12 21:16:20*
%MOMM*%
%LPD*%
G04 APERTURE LIST*
%ADD10C,0.010000*%
G04 APERTURE END LIST*
D10*
G36*
X10553103Y804935D02*
G01*
X10584247Y755315D01*
X10602341Y715394D01*
X10651537Y596574D01*
X10713779Y445258D01*
X10788339Y263244D01*
X10874494Y52328D01*
X10971518Y-185692D01*
X11078687Y-449017D01*
X11195274Y-735850D01*
X11320556Y-1044395D01*
X11453806Y-1372852D01*
X11594300Y-1719424D01*
X11741312Y-2082315D01*
X11894118Y-2459725D01*
X12051992Y-2849858D01*
X12214210Y-3250916D01*
X12380046Y-3661101D01*
X12548774Y-4078616D01*
X12719671Y-4501663D01*
X12892010Y-4928444D01*
X13065068Y-5357162D01*
X13238117Y-5786019D01*
X13410435Y-6213218D01*
X13581294Y-6636960D01*
X13749971Y-7055449D01*
X13915740Y-7466886D01*
X14077876Y-7869475D01*
X14235654Y-8261417D01*
X14388348Y-8640915D01*
X14535235Y-9006170D01*
X14675588Y-9355387D01*
X14808682Y-9686766D01*
X14933793Y-9998511D01*
X15050195Y-10288823D01*
X15157163Y-10555905D01*
X15253972Y-10797960D01*
X15339897Y-11013189D01*
X15414213Y-11199796D01*
X15476194Y-11355982D01*
X15525116Y-11479950D01*
X15560253Y-11569903D01*
X15580881Y-11624042D01*
X15586437Y-11640666D01*
X15564034Y-11646289D01*
X15502129Y-11659349D01*
X15402818Y-11679441D01*
X15268198Y-11706159D01*
X15100368Y-11739101D01*
X14901425Y-11777861D01*
X14673466Y-11822036D01*
X14418590Y-11871220D01*
X14138893Y-11925009D01*
X13836474Y-11982999D01*
X13513429Y-12044786D01*
X13171857Y-12109965D01*
X12813855Y-12178132D01*
X12441521Y-12248882D01*
X12056952Y-12321811D01*
X11853334Y-12360368D01*
X11462202Y-12434404D01*
X11081594Y-12506472D01*
X10713655Y-12576164D01*
X10360530Y-12643073D01*
X10024361Y-12706793D01*
X9707294Y-12766915D01*
X9411472Y-12823033D01*
X9139040Y-12874740D01*
X8892142Y-12921630D01*
X8672923Y-12963294D01*
X8483526Y-12999326D01*
X8326097Y-13029319D01*
X8202778Y-13052865D01*
X8115714Y-13069559D01*
X8067051Y-13078992D01*
X8057867Y-13080842D01*
X8003635Y-13089317D01*
X7974859Y-13080889D01*
X7957147Y-13052593D01*
X7947692Y-13027821D01*
X7924478Y-12965501D01*
X7888314Y-12867832D01*
X7840008Y-12737015D01*
X7780371Y-12575248D01*
X7710210Y-12384731D01*
X7630335Y-12167664D01*
X7541556Y-11926247D01*
X7444680Y-11662678D01*
X7340518Y-11379158D01*
X7229877Y-11077887D01*
X7113568Y-10761063D01*
X6992399Y-10430886D01*
X6867179Y-10089556D01*
X6827027Y-9980084D01*
X5716911Y-6953250D01*
X5837664Y-6848585D01*
X5932840Y-6763005D01*
X6049454Y-6653304D01*
X6180376Y-6526605D01*
X6318478Y-6390028D01*
X6456631Y-6250697D01*
X6587707Y-6115733D01*
X6704576Y-5992258D01*
X6800111Y-5887394D01*
X6802817Y-5884334D01*
X7174484Y-5431716D01*
X7514384Y-4952068D01*
X7821570Y-4447380D01*
X8095099Y-3919641D01*
X8334022Y-3370842D01*
X8537394Y-2802973D01*
X8704269Y-2218024D01*
X8833702Y-1617984D01*
X8835392Y-1608667D01*
X8868541Y-1406960D01*
X8901059Y-1174108D01*
X8931524Y-921288D01*
X8958517Y-659681D01*
X8965010Y-589156D01*
X8977655Y-448062D01*
X9739473Y179303D01*
X9894781Y306951D01*
X10040606Y426325D01*
X10173599Y534717D01*
X10290411Y629419D01*
X10387693Y707725D01*
X10462095Y766927D01*
X10510269Y804317D01*
X10528483Y817103D01*
X10553103Y804935D01*
G37*
X10553103Y804935D02*
X10584247Y755315D01*
X10602341Y715394D01*
X10651537Y596574D01*
X10713779Y445258D01*
X10788339Y263244D01*
X10874494Y52328D01*
X10971518Y-185692D01*
X11078687Y-449017D01*
X11195274Y-735850D01*
X11320556Y-1044395D01*
X11453806Y-1372852D01*
X11594300Y-1719424D01*
X11741312Y-2082315D01*
X11894118Y-2459725D01*
X12051992Y-2849858D01*
X12214210Y-3250916D01*
X12380046Y-3661101D01*
X12548774Y-4078616D01*
X12719671Y-4501663D01*
X12892010Y-4928444D01*
X13065068Y-5357162D01*
X13238117Y-5786019D01*
X13410435Y-6213218D01*
X13581294Y-6636960D01*
X13749971Y-7055449D01*
X13915740Y-7466886D01*
X14077876Y-7869475D01*
X14235654Y-8261417D01*
X14388348Y-8640915D01*
X14535235Y-9006170D01*
X14675588Y-9355387D01*
X14808682Y-9686766D01*
X14933793Y-9998511D01*
X15050195Y-10288823D01*
X15157163Y-10555905D01*
X15253972Y-10797960D01*
X15339897Y-11013189D01*
X15414213Y-11199796D01*
X15476194Y-11355982D01*
X15525116Y-11479950D01*
X15560253Y-11569903D01*
X15580881Y-11624042D01*
X15586437Y-11640666D01*
X15564034Y-11646289D01*
X15502129Y-11659349D01*
X15402818Y-11679441D01*
X15268198Y-11706159D01*
X15100368Y-11739101D01*
X14901425Y-11777861D01*
X14673466Y-11822036D01*
X14418590Y-11871220D01*
X14138893Y-11925009D01*
X13836474Y-11982999D01*
X13513429Y-12044786D01*
X13171857Y-12109965D01*
X12813855Y-12178132D01*
X12441521Y-12248882D01*
X12056952Y-12321811D01*
X11853334Y-12360368D01*
X11462202Y-12434404D01*
X11081594Y-12506472D01*
X10713655Y-12576164D01*
X10360530Y-12643073D01*
X10024361Y-12706793D01*
X9707294Y-12766915D01*
X9411472Y-12823033D01*
X9139040Y-12874740D01*
X8892142Y-12921630D01*
X8672923Y-12963294D01*
X8483526Y-12999326D01*
X8326097Y-13029319D01*
X8202778Y-13052865D01*
X8115714Y-13069559D01*
X8067051Y-13078992D01*
X8057867Y-13080842D01*
X8003635Y-13089317D01*
X7974859Y-13080889D01*
X7957147Y-13052593D01*
X7947692Y-13027821D01*
X7924478Y-12965501D01*
X7888314Y-12867832D01*
X7840008Y-12737015D01*
X7780371Y-12575248D01*
X7710210Y-12384731D01*
X7630335Y-12167664D01*
X7541556Y-11926247D01*
X7444680Y-11662678D01*
X7340518Y-11379158D01*
X7229877Y-11077887D01*
X7113568Y-10761063D01*
X6992399Y-10430886D01*
X6867179Y-10089556D01*
X6827027Y-9980084D01*
X5716911Y-6953250D01*
X5837664Y-6848585D01*
X5932840Y-6763005D01*
X6049454Y-6653304D01*
X6180376Y-6526605D01*
X6318478Y-6390028D01*
X6456631Y-6250697D01*
X6587707Y-6115733D01*
X6704576Y-5992258D01*
X6800111Y-5887394D01*
X6802817Y-5884334D01*
X7174484Y-5431716D01*
X7514384Y-4952068D01*
X7821570Y-4447380D01*
X8095099Y-3919641D01*
X8334022Y-3370842D01*
X8537394Y-2802973D01*
X8704269Y-2218024D01*
X8833702Y-1617984D01*
X8835392Y-1608667D01*
X8868541Y-1406960D01*
X8901059Y-1174108D01*
X8931524Y-921288D01*
X8958517Y-659681D01*
X8965010Y-589156D01*
X8977655Y-448062D01*
X9739473Y179303D01*
X9894781Y306951D01*
X10040606Y426325D01*
X10173599Y534717D01*
X10290411Y629419D01*
X10387693Y707725D01*
X10462095Y766927D01*
X10510269Y804317D01*
X10528483Y817103D01*
X10553103Y804935D01*
G36*
X-5964478Y-6744365D02*
G01*
X-5921087Y-6775825D01*
X-5880100Y-6810909D01*
X-5593688Y-7053480D01*
X-5271646Y-7294436D01*
X-4920621Y-7530025D01*
X-4547264Y-7756498D01*
X-4158221Y-7970103D01*
X-3760142Y-8167092D01*
X-3359676Y-8343713D01*
X-2963471Y-8496217D01*
X-2783416Y-8557584D01*
X-2211779Y-8721856D01*
X-1627561Y-8846423D01*
X-1033203Y-8931160D01*
X-431144Y-8975940D01*
X176174Y-8980639D01*
X786312Y-8945130D01*
X1396830Y-8869288D01*
X1811906Y-8794419D01*
X2352253Y-8668546D01*
X2871810Y-8514009D01*
X3381638Y-8327101D01*
X3892795Y-8104118D01*
X3942482Y-8080611D01*
X4040223Y-8035381D01*
X4124139Y-7999041D01*
X4187038Y-7974513D01*
X4221729Y-7964724D01*
X4225915Y-7965360D01*
X4234710Y-7986467D01*
X4256964Y-8044439D01*
X4291615Y-8136376D01*
X4337598Y-8259379D01*
X4393846Y-8410550D01*
X4459296Y-8586989D01*
X4532884Y-8785797D01*
X4613543Y-9004076D01*
X4700210Y-9238926D01*
X4791820Y-9487448D01*
X4887307Y-9746743D01*
X4985608Y-10013913D01*
X5085657Y-10286058D01*
X5186390Y-10560279D01*
X5286741Y-10833678D01*
X5385647Y-11103354D01*
X5482042Y-11366411D01*
X5574862Y-11619947D01*
X5663042Y-11861065D01*
X5745517Y-12086864D01*
X5821222Y-12294448D01*
X5889093Y-12480915D01*
X5948065Y-12643368D01*
X5997073Y-12778907D01*
X6035052Y-12884633D01*
X6060938Y-12957647D01*
X6073665Y-12995051D01*
X6074834Y-12999396D01*
X6056624Y-13011701D01*
X6016625Y-13014885D01*
X5991597Y-13011778D01*
X5926127Y-13002981D01*
X5821691Y-12988702D01*
X5679769Y-12969146D01*
X5501838Y-12944521D01*
X5289377Y-12915032D01*
X5043863Y-12880887D01*
X4766774Y-12842293D01*
X4459589Y-12799455D01*
X4123785Y-12752580D01*
X3760840Y-12701875D01*
X3372233Y-12647547D01*
X2959441Y-12589801D01*
X2523943Y-12528845D01*
X2067216Y-12464886D01*
X1590739Y-12398129D01*
X1095989Y-12328781D01*
X584445Y-12257050D01*
X57584Y-12183141D01*
X-483116Y-12107260D01*
X-1036176Y-12029616D01*
X-1600118Y-11950414D01*
X-1750596Y-11929275D01*
X-2316693Y-11849718D01*
X-2872074Y-11771608D01*
X-3415272Y-11695153D01*
X-3944820Y-11620562D01*
X-4459251Y-11548044D01*
X-4957100Y-11477805D01*
X-5436899Y-11410054D01*
X-5897181Y-11345000D01*
X-6336480Y-11282850D01*
X-6753330Y-11223813D01*
X-7146263Y-11168097D01*
X-7513814Y-11115909D01*
X-7854514Y-11067458D01*
X-8166899Y-11022953D01*
X-8449501Y-10982601D01*
X-8700853Y-10946610D01*
X-8919488Y-10915189D01*
X-9103941Y-10888545D01*
X-9252745Y-10866888D01*
X-9364432Y-10850424D01*
X-9437536Y-10839363D01*
X-9470591Y-10833911D01*
X-9472468Y-10833421D01*
X-9460381Y-10816384D01*
X-9422756Y-10769521D01*
X-9361579Y-10695169D01*
X-9278837Y-10595664D01*
X-9176516Y-10473345D01*
X-9056605Y-10330547D01*
X-8921088Y-10169607D01*
X-8771955Y-9992863D01*
X-8611190Y-9802651D01*
X-8440781Y-9601309D01*
X-8262715Y-9391173D01*
X-8078979Y-9174580D01*
X-7891559Y-8953867D01*
X-7702442Y-8731371D01*
X-7513616Y-8509429D01*
X-7327066Y-8290378D01*
X-7144781Y-8076555D01*
X-6968745Y-7870296D01*
X-6800948Y-7673939D01*
X-6643374Y-7489821D01*
X-6498012Y-7320278D01*
X-6366848Y-7167647D01*
X-6251868Y-7034266D01*
X-6155060Y-6922471D01*
X-6078410Y-6834599D01*
X-6023906Y-6772987D01*
X-5993533Y-6739973D01*
X-5987932Y-6734881D01*
X-5964478Y-6744365D01*
G37*
X-5964478Y-6744365D02*
X-5921087Y-6775825D01*
X-5880100Y-6810909D01*
X-5593688Y-7053480D01*
X-5271646Y-7294436D01*
X-4920621Y-7530025D01*
X-4547264Y-7756498D01*
X-4158221Y-7970103D01*
X-3760142Y-8167092D01*
X-3359676Y-8343713D01*
X-2963471Y-8496217D01*
X-2783416Y-8557584D01*
X-2211779Y-8721856D01*
X-1627561Y-8846423D01*
X-1033203Y-8931160D01*
X-431144Y-8975940D01*
X176174Y-8980639D01*
X786312Y-8945130D01*
X1396830Y-8869288D01*
X1811906Y-8794419D01*
X2352253Y-8668546D01*
X2871810Y-8514009D01*
X3381638Y-8327101D01*
X3892795Y-8104118D01*
X3942482Y-8080611D01*
X4040223Y-8035381D01*
X4124139Y-7999041D01*
X4187038Y-7974513D01*
X4221729Y-7964724D01*
X4225915Y-7965360D01*
X4234710Y-7986467D01*
X4256964Y-8044439D01*
X4291615Y-8136376D01*
X4337598Y-8259379D01*
X4393846Y-8410550D01*
X4459296Y-8586989D01*
X4532884Y-8785797D01*
X4613543Y-9004076D01*
X4700210Y-9238926D01*
X4791820Y-9487448D01*
X4887307Y-9746743D01*
X4985608Y-10013913D01*
X5085657Y-10286058D01*
X5186390Y-10560279D01*
X5286741Y-10833678D01*
X5385647Y-11103354D01*
X5482042Y-11366411D01*
X5574862Y-11619947D01*
X5663042Y-11861065D01*
X5745517Y-12086864D01*
X5821222Y-12294448D01*
X5889093Y-12480915D01*
X5948065Y-12643368D01*
X5997073Y-12778907D01*
X6035052Y-12884633D01*
X6060938Y-12957647D01*
X6073665Y-12995051D01*
X6074834Y-12999396D01*
X6056624Y-13011701D01*
X6016625Y-13014885D01*
X5991597Y-13011778D01*
X5926127Y-13002981D01*
X5821691Y-12988702D01*
X5679769Y-12969146D01*
X5501838Y-12944521D01*
X5289377Y-12915032D01*
X5043863Y-12880887D01*
X4766774Y-12842293D01*
X4459589Y-12799455D01*
X4123785Y-12752580D01*
X3760840Y-12701875D01*
X3372233Y-12647547D01*
X2959441Y-12589801D01*
X2523943Y-12528845D01*
X2067216Y-12464886D01*
X1590739Y-12398129D01*
X1095989Y-12328781D01*
X584445Y-12257050D01*
X57584Y-12183141D01*
X-483116Y-12107260D01*
X-1036176Y-12029616D01*
X-1600118Y-11950414D01*
X-1750596Y-11929275D01*
X-2316693Y-11849718D01*
X-2872074Y-11771608D01*
X-3415272Y-11695153D01*
X-3944820Y-11620562D01*
X-4459251Y-11548044D01*
X-4957100Y-11477805D01*
X-5436899Y-11410054D01*
X-5897181Y-11345000D01*
X-6336480Y-11282850D01*
X-6753330Y-11223813D01*
X-7146263Y-11168097D01*
X-7513814Y-11115909D01*
X-7854514Y-11067458D01*
X-8166899Y-11022953D01*
X-8449501Y-10982601D01*
X-8700853Y-10946610D01*
X-8919488Y-10915189D01*
X-9103941Y-10888545D01*
X-9252745Y-10866888D01*
X-9364432Y-10850424D01*
X-9437536Y-10839363D01*
X-9470591Y-10833911D01*
X-9472468Y-10833421D01*
X-9460381Y-10816384D01*
X-9422756Y-10769521D01*
X-9361579Y-10695169D01*
X-9278837Y-10595664D01*
X-9176516Y-10473345D01*
X-9056605Y-10330547D01*
X-8921088Y-10169607D01*
X-8771955Y-9992863D01*
X-8611190Y-9802651D01*
X-8440781Y-9601309D01*
X-8262715Y-9391173D01*
X-8078979Y-9174580D01*
X-7891559Y-8953867D01*
X-7702442Y-8731371D01*
X-7513616Y-8509429D01*
X-7327066Y-8290378D01*
X-7144781Y-8076555D01*
X-6968745Y-7870296D01*
X-6800948Y-7673939D01*
X-6643374Y-7489821D01*
X-6498012Y-7320278D01*
X-6366848Y-7167647D01*
X-6251868Y-7034266D01*
X-6155060Y-6922471D01*
X-6078410Y-6834599D01*
X-6023906Y-6772987D01*
X-5993533Y-6739973D01*
X-5987932Y-6734881D01*
X-5964478Y-6744365D01*
G36*
X14451629Y8739440D02*
G01*
X14475604Y8679973D01*
X14513551Y8584551D01*
X14564799Y8454890D01*
X14628680Y8292708D01*
X14704525Y8099720D01*
X14791666Y7877644D01*
X14889434Y7628196D01*
X14997159Y7353092D01*
X15114174Y7054049D01*
X15239809Y6732784D01*
X15373395Y6391013D01*
X15514264Y6030453D01*
X15661747Y5652821D01*
X15815176Y5259832D01*
X15973880Y4853204D01*
X16137193Y4434653D01*
X16304444Y4005896D01*
X16474965Y3568649D01*
X16648087Y3124629D01*
X16823142Y2675552D01*
X16999460Y2223135D01*
X17176374Y1769095D01*
X17353213Y1315148D01*
X17529310Y863011D01*
X17703995Y414400D01*
X17876600Y-28968D01*
X18046456Y-465376D01*
X18212894Y-893109D01*
X18375245Y-1310448D01*
X18532842Y-1715679D01*
X18685013Y-2107084D01*
X18831092Y-2482946D01*
X18970409Y-2841550D01*
X19102296Y-3181178D01*
X19226083Y-3500113D01*
X19341102Y-3796641D01*
X19446684Y-4069043D01*
X19542161Y-4315603D01*
X19626863Y-4534604D01*
X19700121Y-4724331D01*
X19761268Y-4883066D01*
X19809634Y-5009093D01*
X19844550Y-5100695D01*
X19865348Y-5156156D01*
X19871438Y-5173781D01*
X19860102Y-5196209D01*
X19829295Y-5252581D01*
X19780472Y-5340346D01*
X19715088Y-5456955D01*
X19634598Y-5599855D01*
X19540457Y-5766498D01*
X19434121Y-5954332D01*
X19317044Y-6160807D01*
X19190683Y-6383372D01*
X19056491Y-6619477D01*
X18915924Y-6866570D01*
X18770438Y-7122103D01*
X18621488Y-7383523D01*
X18470528Y-7648281D01*
X18319013Y-7913826D01*
X18168400Y-8177607D01*
X18020143Y-8437075D01*
X17875697Y-8689677D01*
X17736517Y-8932864D01*
X17604060Y-9164085D01*
X17479778Y-9380790D01*
X17365129Y-9580428D01*
X17261567Y-9760449D01*
X17170547Y-9918301D01*
X17093525Y-10051435D01*
X17031955Y-10157300D01*
X16987292Y-10233345D01*
X16960993Y-10277020D01*
X16954205Y-10287000D01*
X16945300Y-10267627D01*
X16921102Y-10210486D01*
X16882211Y-10117050D01*
X16829226Y-9988787D01*
X16762747Y-9827169D01*
X16683372Y-9633665D01*
X16591702Y-9409747D01*
X16488335Y-9156884D01*
X16373872Y-8876547D01*
X16248910Y-8570206D01*
X16114050Y-8239332D01*
X15969891Y-7885395D01*
X15817033Y-7509866D01*
X15656074Y-7114214D01*
X15487615Y-6699911D01*
X15312254Y-6268426D01*
X15130591Y-5821230D01*
X14943225Y-5359794D01*
X14750756Y-4885587D01*
X14553782Y-4400081D01*
X14402459Y-4026959D01*
X14202393Y-3533387D01*
X14006484Y-3049700D01*
X13815328Y-2577386D01*
X13629523Y-2117928D01*
X13449664Y-1672814D01*
X13276350Y-1243530D01*
X13110176Y-831560D01*
X12951739Y-438392D01*
X12801636Y-65511D01*
X12660464Y285596D01*
X12528820Y613445D01*
X12407300Y916548D01*
X12296502Y1193421D01*
X12197022Y1442576D01*
X12109456Y1662528D01*
X12034402Y1851792D01*
X11972456Y2008880D01*
X11924216Y2132308D01*
X11890277Y2220589D01*
X11871237Y2272237D01*
X11867090Y2286000D01*
X11874995Y2309752D01*
X11897519Y2370254D01*
X11933666Y2464981D01*
X11982436Y2591407D01*
X12042832Y2747006D01*
X12113856Y2929253D01*
X12194510Y3135622D01*
X12283796Y3363588D01*
X12380717Y3610625D01*
X12484273Y3874207D01*
X12593467Y4151809D01*
X12707301Y4440905D01*
X12824778Y4738970D01*
X12944898Y5043477D01*
X13066665Y5351902D01*
X13189080Y5661719D01*
X13311145Y5970402D01*
X13431862Y6275425D01*
X13550234Y6574263D01*
X13665261Y6864391D01*
X13775947Y7143282D01*
X13881293Y7408411D01*
X13980302Y7657253D01*
X14071975Y7887282D01*
X14155314Y8095972D01*
X14229322Y8280798D01*
X14293000Y8439233D01*
X14345350Y8568754D01*
X14385375Y8666833D01*
X14412076Y8730945D01*
X14424456Y8758565D01*
X14425024Y8759413D01*
X14442292Y8761236D01*
X14451629Y8739440D01*
G37*
X14451629Y8739440D02*
X14475604Y8679973D01*
X14513551Y8584551D01*
X14564799Y8454890D01*
X14628680Y8292708D01*
X14704525Y8099720D01*
X14791666Y7877644D01*
X14889434Y7628196D01*
X14997159Y7353092D01*
X15114174Y7054049D01*
X15239809Y6732784D01*
X15373395Y6391013D01*
X15514264Y6030453D01*
X15661747Y5652821D01*
X15815176Y5259832D01*
X15973880Y4853204D01*
X16137193Y4434653D01*
X16304444Y4005896D01*
X16474965Y3568649D01*
X16648087Y3124629D01*
X16823142Y2675552D01*
X16999460Y2223135D01*
X17176374Y1769095D01*
X17353213Y1315148D01*
X17529310Y863011D01*
X17703995Y414400D01*
X17876600Y-28968D01*
X18046456Y-465376D01*
X18212894Y-893109D01*
X18375245Y-1310448D01*
X18532842Y-1715679D01*
X18685013Y-2107084D01*
X18831092Y-2482946D01*
X18970409Y-2841550D01*
X19102296Y-3181178D01*
X19226083Y-3500113D01*
X19341102Y-3796641D01*
X19446684Y-4069043D01*
X19542161Y-4315603D01*
X19626863Y-4534604D01*
X19700121Y-4724331D01*
X19761268Y-4883066D01*
X19809634Y-5009093D01*
X19844550Y-5100695D01*
X19865348Y-5156156D01*
X19871438Y-5173781D01*
X19860102Y-5196209D01*
X19829295Y-5252581D01*
X19780472Y-5340346D01*
X19715088Y-5456955D01*
X19634598Y-5599855D01*
X19540457Y-5766498D01*
X19434121Y-5954332D01*
X19317044Y-6160807D01*
X19190683Y-6383372D01*
X19056491Y-6619477D01*
X18915924Y-6866570D01*
X18770438Y-7122103D01*
X18621488Y-7383523D01*
X18470528Y-7648281D01*
X18319013Y-7913826D01*
X18168400Y-8177607D01*
X18020143Y-8437075D01*
X17875697Y-8689677D01*
X17736517Y-8932864D01*
X17604060Y-9164085D01*
X17479778Y-9380790D01*
X17365129Y-9580428D01*
X17261567Y-9760449D01*
X17170547Y-9918301D01*
X17093525Y-10051435D01*
X17031955Y-10157300D01*
X16987292Y-10233345D01*
X16960993Y-10277020D01*
X16954205Y-10287000D01*
X16945300Y-10267627D01*
X16921102Y-10210486D01*
X16882211Y-10117050D01*
X16829226Y-9988787D01*
X16762747Y-9827169D01*
X16683372Y-9633665D01*
X16591702Y-9409747D01*
X16488335Y-9156884D01*
X16373872Y-8876547D01*
X16248910Y-8570206D01*
X16114050Y-8239332D01*
X15969891Y-7885395D01*
X15817033Y-7509866D01*
X15656074Y-7114214D01*
X15487615Y-6699911D01*
X15312254Y-6268426D01*
X15130591Y-5821230D01*
X14943225Y-5359794D01*
X14750756Y-4885587D01*
X14553782Y-4400081D01*
X14402459Y-4026959D01*
X14202393Y-3533387D01*
X14006484Y-3049700D01*
X13815328Y-2577386D01*
X13629523Y-2117928D01*
X13449664Y-1672814D01*
X13276350Y-1243530D01*
X13110176Y-831560D01*
X12951739Y-438392D01*
X12801636Y-65511D01*
X12660464Y285596D01*
X12528820Y613445D01*
X12407300Y916548D01*
X12296502Y1193421D01*
X12197022Y1442576D01*
X12109456Y1662528D01*
X12034402Y1851792D01*
X11972456Y2008880D01*
X11924216Y2132308D01*
X11890277Y2220589D01*
X11871237Y2272237D01*
X11867090Y2286000D01*
X11874995Y2309752D01*
X11897519Y2370254D01*
X11933666Y2464981D01*
X11982436Y2591407D01*
X12042832Y2747006D01*
X12113856Y2929253D01*
X12194510Y3135622D01*
X12283796Y3363588D01*
X12380717Y3610625D01*
X12484273Y3874207D01*
X12593467Y4151809D01*
X12707301Y4440905D01*
X12824778Y4738970D01*
X12944898Y5043477D01*
X13066665Y5351902D01*
X13189080Y5661719D01*
X13311145Y5970402D01*
X13431862Y6275425D01*
X13550234Y6574263D01*
X13665261Y6864391D01*
X13775947Y7143282D01*
X13881293Y7408411D01*
X13980302Y7657253D01*
X14071975Y7887282D01*
X14155314Y8095972D01*
X14229322Y8280798D01*
X14293000Y8439233D01*
X14345350Y8568754D01*
X14385375Y8666833D01*
X14412076Y8730945D01*
X14424456Y8758565D01*
X14425024Y8759413D01*
X14442292Y8761236D01*
X14451629Y8739440D01*
G36*
X-17039254Y12128612D02*
G01*
X-16988499Y12100097D01*
X-16911027Y12054255D01*
X-16811333Y11993793D01*
X-16693911Y11921417D01*
X-16563257Y11839834D01*
X-16520441Y11812891D01*
X-16443733Y11764558D01*
X-16333501Y11695145D01*
X-16192057Y11606108D01*
X-16021714Y11498900D01*
X-15824784Y11374977D01*
X-15603580Y11235793D01*
X-15360415Y11082804D01*
X-15097602Y10917465D01*
X-14817452Y10741230D01*
X-14522278Y10555554D01*
X-14214394Y10361892D01*
X-13896112Y10161700D01*
X-13569744Y9956431D01*
X-13237603Y9747541D01*
X-12985750Y9589153D01*
X-12659919Y9384193D01*
X-12343601Y9185117D01*
X-12038671Y8993110D01*
X-11747008Y8809358D01*
X-11470488Y8635047D01*
X-11210988Y8471362D01*
X-10970385Y8319490D01*
X-10750556Y8180616D01*
X-10553378Y8055925D01*
X-10380729Y7946605D01*
X-10234484Y7853839D01*
X-10116521Y7778815D01*
X-10028717Y7722718D01*
X-9972948Y7686734D01*
X-9951093Y7672048D01*
X-9950981Y7671948D01*
X-9949664Y7664052D01*
X-9952667Y7645582D01*
X-9960496Y7615169D01*
X-9973659Y7571442D01*
X-9992665Y7513029D01*
X-10018022Y7438561D01*
X-10050236Y7346665D01*
X-10089818Y7235972D01*
X-10137273Y7105111D01*
X-10193111Y6952710D01*
X-10257839Y6777399D01*
X-10331965Y6577806D01*
X-10415997Y6352562D01*
X-10510443Y6100296D01*
X-10615810Y5819635D01*
X-10732608Y5509211D01*
X-10861343Y5167651D01*
X-11002524Y4793585D01*
X-11156659Y4385642D01*
X-11324256Y3942451D01*
X-11505821Y3462642D01*
X-11701865Y2944843D01*
X-11732222Y2864683D01*
X-11896285Y2431371D01*
X-12056539Y2007931D01*
X-12212324Y1596109D01*
X-12362984Y1197652D01*
X-12507860Y814304D01*
X-12646294Y447810D01*
X-12777629Y99917D01*
X-12901207Y-227630D01*
X-13016369Y-533086D01*
X-13122459Y-814706D01*
X-13218818Y-1070742D01*
X-13304789Y-1299452D01*
X-13379713Y-1499087D01*
X-13442933Y-1667904D01*
X-13493791Y-1804157D01*
X-13531629Y-1906100D01*
X-13555790Y-1971987D01*
X-13565615Y-2000074D01*
X-13565664Y-2000250D01*
X-13589879Y-2166138D01*
X-13576680Y-2336011D01*
X-13529497Y-2502732D01*
X-13451764Y-2659167D01*
X-13346912Y-2798178D01*
X-13218372Y-2912632D01*
X-13091583Y-2985943D01*
X-13060392Y-2996867D01*
X-12991258Y-3018908D01*
X-12886860Y-3051262D01*
X-12749873Y-3093126D01*
X-12582977Y-3143696D01*
X-12388848Y-3202167D01*
X-12170164Y-3267736D01*
X-11929603Y-3339598D01*
X-11669841Y-3416951D01*
X-11393557Y-3498989D01*
X-11103428Y-3584909D01*
X-10802132Y-3673907D01*
X-10699750Y-3704098D01*
X-10389495Y-3795550D01*
X-10085575Y-3885138D01*
X-9791055Y-3971960D01*
X-9508997Y-4055111D01*
X-9242466Y-4133689D01*
X-8994526Y-4206789D01*
X-8768240Y-4273510D01*
X-8566673Y-4332947D01*
X-8392887Y-4384196D01*
X-8249948Y-4426356D01*
X-8140918Y-4458522D01*
X-8068862Y-4479790D01*
X-8059798Y-4482468D01*
X-7727013Y-4580783D01*
X-7617427Y-4761600D01*
X-7561050Y-4851616D01*
X-7489296Y-4961826D01*
X-7411517Y-5078065D01*
X-7339327Y-5182938D01*
X-7170812Y-5423459D01*
X-7210198Y-5474748D01*
X-7232011Y-5501387D01*
X-7278911Y-5557326D01*
X-7349052Y-5640401D01*
X-7440586Y-5748449D01*
X-7551666Y-5879308D01*
X-7680445Y-6030814D01*
X-7825075Y-6200805D01*
X-7983710Y-6387117D01*
X-8154502Y-6587587D01*
X-8335604Y-6800053D01*
X-8525168Y-7022351D01*
X-8721349Y-7252319D01*
X-8922298Y-7487793D01*
X-9126169Y-7726612D01*
X-9331113Y-7966610D01*
X-9535285Y-8205627D01*
X-9736836Y-8441498D01*
X-9933920Y-8672061D01*
X-10124690Y-8895152D01*
X-10307297Y-9108610D01*
X-10479896Y-9310270D01*
X-10640639Y-9497970D01*
X-10787678Y-9669547D01*
X-10919167Y-9822838D01*
X-11033259Y-9955679D01*
X-11128105Y-10065909D01*
X-11201860Y-10151364D01*
X-11252675Y-10209881D01*
X-11278704Y-10239297D01*
X-11281833Y-10242464D01*
X-11299450Y-10229046D01*
X-11345488Y-10190481D01*
X-11416630Y-10129638D01*
X-11509560Y-10049386D01*
X-11620964Y-9952595D01*
X-11747525Y-9842133D01*
X-11885926Y-9720869D01*
X-11971288Y-9645866D01*
X-12063531Y-9564779D01*
X-12185354Y-9457765D01*
X-12334501Y-9326803D01*
X-12508719Y-9173872D01*
X-12705751Y-9000948D01*
X-12923344Y-8810011D01*
X-13159242Y-8603039D01*
X-13411190Y-8382010D01*
X-13676933Y-8148902D01*
X-13954217Y-7905694D01*
X-14240786Y-7654363D01*
X-14534386Y-7396888D01*
X-14832762Y-7135247D01*
X-15133659Y-6871419D01*
X-15315621Y-6711884D01*
X-15604763Y-6458382D01*
X-15885453Y-6212280D01*
X-16156023Y-5975040D01*
X-16414806Y-5748126D01*
X-16660134Y-5533000D01*
X-16890339Y-5331124D01*
X-17103753Y-5143961D01*
X-17298709Y-4972974D01*
X-17473539Y-4819626D01*
X-17626576Y-4685380D01*
X-17756150Y-4571697D01*
X-17860596Y-4480040D01*
X-17938245Y-4411873D01*
X-17987430Y-4368658D01*
X-18006482Y-4351857D01*
X-18006544Y-4351801D01*
X-18008304Y-4341020D01*
X-18008876Y-4312270D01*
X-18008207Y-4264556D01*
X-18006240Y-4196883D01*
X-18002920Y-4108257D01*
X-17998194Y-3997680D01*
X-17992005Y-3864160D01*
X-17984298Y-3706699D01*
X-17975019Y-3524303D01*
X-17964113Y-3315976D01*
X-17951524Y-3080724D01*
X-17937197Y-2817551D01*
X-17921077Y-2525462D01*
X-17903110Y-2203461D01*
X-17883239Y-1850554D01*
X-17861411Y-1465745D01*
X-17837570Y-1048039D01*
X-17811660Y-596440D01*
X-17783628Y-109954D01*
X-17753417Y412415D01*
X-17720974Y971663D01*
X-17686242Y1568783D01*
X-17649166Y2204773D01*
X-17609692Y2880626D01*
X-17567765Y3597338D01*
X-17550066Y3899589D01*
X-17515644Y4486894D01*
X-17481810Y5063417D01*
X-17448650Y5627723D01*
X-17416249Y6178375D01*
X-17384692Y6713938D01*
X-17354066Y7232976D01*
X-17324456Y7734054D01*
X-17295948Y8215735D01*
X-17268627Y8676584D01*
X-17242579Y9115165D01*
X-17217890Y9530041D01*
X-17194644Y9919778D01*
X-17172929Y10282940D01*
X-17152829Y10618090D01*
X-17134430Y10923793D01*
X-17117818Y11198613D01*
X-17103078Y11441114D01*
X-17090296Y11649861D01*
X-17079558Y11823417D01*
X-17070949Y11960347D01*
X-17064554Y12059216D01*
X-17060461Y12118586D01*
X-17058797Y12137092D01*
X-17039254Y12128612D01*
G37*
X-17039254Y12128612D02*
X-16988499Y12100097D01*
X-16911027Y12054255D01*
X-16811333Y11993793D01*
X-16693911Y11921417D01*
X-16563257Y11839834D01*
X-16520441Y11812891D01*
X-16443733Y11764558D01*
X-16333501Y11695145D01*
X-16192057Y11606108D01*
X-16021714Y11498900D01*
X-15824784Y11374977D01*
X-15603580Y11235793D01*
X-15360415Y11082804D01*
X-15097602Y10917465D01*
X-14817452Y10741230D01*
X-14522278Y10555554D01*
X-14214394Y10361892D01*
X-13896112Y10161700D01*
X-13569744Y9956431D01*
X-13237603Y9747541D01*
X-12985750Y9589153D01*
X-12659919Y9384193D01*
X-12343601Y9185117D01*
X-12038671Y8993110D01*
X-11747008Y8809358D01*
X-11470488Y8635047D01*
X-11210988Y8471362D01*
X-10970385Y8319490D01*
X-10750556Y8180616D01*
X-10553378Y8055925D01*
X-10380729Y7946605D01*
X-10234484Y7853839D01*
X-10116521Y7778815D01*
X-10028717Y7722718D01*
X-9972948Y7686734D01*
X-9951093Y7672048D01*
X-9950981Y7671948D01*
X-9949664Y7664052D01*
X-9952667Y7645582D01*
X-9960496Y7615169D01*
X-9973659Y7571442D01*
X-9992665Y7513029D01*
X-10018022Y7438561D01*
X-10050236Y7346665D01*
X-10089818Y7235972D01*
X-10137273Y7105111D01*
X-10193111Y6952710D01*
X-10257839Y6777399D01*
X-10331965Y6577806D01*
X-10415997Y6352562D01*
X-10510443Y6100296D01*
X-10615810Y5819635D01*
X-10732608Y5509211D01*
X-10861343Y5167651D01*
X-11002524Y4793585D01*
X-11156659Y4385642D01*
X-11324256Y3942451D01*
X-11505821Y3462642D01*
X-11701865Y2944843D01*
X-11732222Y2864683D01*
X-11896285Y2431371D01*
X-12056539Y2007931D01*
X-12212324Y1596109D01*
X-12362984Y1197652D01*
X-12507860Y814304D01*
X-12646294Y447810D01*
X-12777629Y99917D01*
X-12901207Y-227630D01*
X-13016369Y-533086D01*
X-13122459Y-814706D01*
X-13218818Y-1070742D01*
X-13304789Y-1299452D01*
X-13379713Y-1499087D01*
X-13442933Y-1667904D01*
X-13493791Y-1804157D01*
X-13531629Y-1906100D01*
X-13555790Y-1971987D01*
X-13565615Y-2000074D01*
X-13565664Y-2000250D01*
X-13589879Y-2166138D01*
X-13576680Y-2336011D01*
X-13529497Y-2502732D01*
X-13451764Y-2659167D01*
X-13346912Y-2798178D01*
X-13218372Y-2912632D01*
X-13091583Y-2985943D01*
X-13060392Y-2996867D01*
X-12991258Y-3018908D01*
X-12886860Y-3051262D01*
X-12749873Y-3093126D01*
X-12582977Y-3143696D01*
X-12388848Y-3202167D01*
X-12170164Y-3267736D01*
X-11929603Y-3339598D01*
X-11669841Y-3416951D01*
X-11393557Y-3498989D01*
X-11103428Y-3584909D01*
X-10802132Y-3673907D01*
X-10699750Y-3704098D01*
X-10389495Y-3795550D01*
X-10085575Y-3885138D01*
X-9791055Y-3971960D01*
X-9508997Y-4055111D01*
X-9242466Y-4133689D01*
X-8994526Y-4206789D01*
X-8768240Y-4273510D01*
X-8566673Y-4332947D01*
X-8392887Y-4384196D01*
X-8249948Y-4426356D01*
X-8140918Y-4458522D01*
X-8068862Y-4479790D01*
X-8059798Y-4482468D01*
X-7727013Y-4580783D01*
X-7617427Y-4761600D01*
X-7561050Y-4851616D01*
X-7489296Y-4961826D01*
X-7411517Y-5078065D01*
X-7339327Y-5182938D01*
X-7170812Y-5423459D01*
X-7210198Y-5474748D01*
X-7232011Y-5501387D01*
X-7278911Y-5557326D01*
X-7349052Y-5640401D01*
X-7440586Y-5748449D01*
X-7551666Y-5879308D01*
X-7680445Y-6030814D01*
X-7825075Y-6200805D01*
X-7983710Y-6387117D01*
X-8154502Y-6587587D01*
X-8335604Y-6800053D01*
X-8525168Y-7022351D01*
X-8721349Y-7252319D01*
X-8922298Y-7487793D01*
X-9126169Y-7726612D01*
X-9331113Y-7966610D01*
X-9535285Y-8205627D01*
X-9736836Y-8441498D01*
X-9933920Y-8672061D01*
X-10124690Y-8895152D01*
X-10307297Y-9108610D01*
X-10479896Y-9310270D01*
X-10640639Y-9497970D01*
X-10787678Y-9669547D01*
X-10919167Y-9822838D01*
X-11033259Y-9955679D01*
X-11128105Y-10065909D01*
X-11201860Y-10151364D01*
X-11252675Y-10209881D01*
X-11278704Y-10239297D01*
X-11281833Y-10242464D01*
X-11299450Y-10229046D01*
X-11345488Y-10190481D01*
X-11416630Y-10129638D01*
X-11509560Y-10049386D01*
X-11620964Y-9952595D01*
X-11747525Y-9842133D01*
X-11885926Y-9720869D01*
X-11971288Y-9645866D01*
X-12063531Y-9564779D01*
X-12185354Y-9457765D01*
X-12334501Y-9326803D01*
X-12508719Y-9173872D01*
X-12705751Y-9000948D01*
X-12923344Y-8810011D01*
X-13159242Y-8603039D01*
X-13411190Y-8382010D01*
X-13676933Y-8148902D01*
X-13954217Y-7905694D01*
X-14240786Y-7654363D01*
X-14534386Y-7396888D01*
X-14832762Y-7135247D01*
X-15133659Y-6871419D01*
X-15315621Y-6711884D01*
X-15604763Y-6458382D01*
X-15885453Y-6212280D01*
X-16156023Y-5975040D01*
X-16414806Y-5748126D01*
X-16660134Y-5533000D01*
X-16890339Y-5331124D01*
X-17103753Y-5143961D01*
X-17298709Y-4972974D01*
X-17473539Y-4819626D01*
X-17626576Y-4685380D01*
X-17756150Y-4571697D01*
X-17860596Y-4480040D01*
X-17938245Y-4411873D01*
X-17987430Y-4368658D01*
X-18006482Y-4351857D01*
X-18006544Y-4351801D01*
X-18008304Y-4341020D01*
X-18008876Y-4312270D01*
X-18008207Y-4264556D01*
X-18006240Y-4196883D01*
X-18002920Y-4108257D01*
X-17998194Y-3997680D01*
X-17992005Y-3864160D01*
X-17984298Y-3706699D01*
X-17975019Y-3524303D01*
X-17964113Y-3315976D01*
X-17951524Y-3080724D01*
X-17937197Y-2817551D01*
X-17921077Y-2525462D01*
X-17903110Y-2203461D01*
X-17883239Y-1850554D01*
X-17861411Y-1465745D01*
X-17837570Y-1048039D01*
X-17811660Y-596440D01*
X-17783628Y-109954D01*
X-17753417Y412415D01*
X-17720974Y971663D01*
X-17686242Y1568783D01*
X-17649166Y2204773D01*
X-17609692Y2880626D01*
X-17567765Y3597338D01*
X-17550066Y3899589D01*
X-17515644Y4486894D01*
X-17481810Y5063417D01*
X-17448650Y5627723D01*
X-17416249Y6178375D01*
X-17384692Y6713938D01*
X-17354066Y7232976D01*
X-17324456Y7734054D01*
X-17295948Y8215735D01*
X-17268627Y8676584D01*
X-17242579Y9115165D01*
X-17217890Y9530041D01*
X-17194644Y9919778D01*
X-17172929Y10282940D01*
X-17152829Y10618090D01*
X-17134430Y10923793D01*
X-17117818Y11198613D01*
X-17103078Y11441114D01*
X-17090296Y11649861D01*
X-17079558Y11823417D01*
X-17070949Y11960347D01*
X-17064554Y12059216D01*
X-17060461Y12118586D01*
X-17058797Y12137092D01*
X-17039254Y12128612D01*
G36*
X-8335647Y6757886D02*
G01*
X-8278263Y6730168D01*
X-8193086Y6687836D01*
X-8084979Y6633396D01*
X-7958799Y6569350D01*
X-7819408Y6498203D01*
X-7671666Y6422458D01*
X-7520433Y6344618D01*
X-7370569Y6267188D01*
X-7226934Y6192672D01*
X-7094388Y6123572D01*
X-6977792Y6062392D01*
X-6882005Y6011637D01*
X-6811888Y5973810D01*
X-6772301Y5951415D01*
X-6765666Y5946970D01*
X-6771551Y5925540D01*
X-6800887Y5879156D01*
X-6848992Y5814496D01*
X-6911182Y5738241D01*
X-6915864Y5732733D01*
X-7271097Y5285156D01*
X-7598597Y4809839D01*
X-7895643Y4311838D01*
X-8159515Y3796210D01*
X-8387494Y3268011D01*
X-8576858Y2732297D01*
X-8635909Y2535579D01*
X-8725055Y2196132D01*
X-8805572Y1835143D01*
X-8874888Y1466580D01*
X-8930430Y1104411D01*
X-8969629Y762604D01*
X-8976111Y687736D01*
X-8985439Y527751D01*
X-8990792Y336449D01*
X-8992364Y123753D01*
X-8990350Y-100416D01*
X-8984945Y-326134D01*
X-8976342Y-543482D01*
X-8964736Y-742535D01*
X-8950322Y-913373D01*
X-8943558Y-973667D01*
X-8902684Y-1262258D01*
X-8849787Y-1567537D01*
X-8787818Y-1874928D01*
X-8719724Y-2169857D01*
X-8648454Y-2437748D01*
X-8644898Y-2450042D01*
X-8640844Y-2485384D01*
X-8649406Y-2495143D01*
X-8672242Y-2488852D01*
X-8732386Y-2471473D01*
X-8826564Y-2443968D01*
X-8951504Y-2407304D01*
X-9103932Y-2362443D01*
X-9280575Y-2310350D01*
X-9478160Y-2251990D01*
X-9693412Y-2188326D01*
X-9923060Y-2120322D01*
X-10113156Y-2063973D01*
X-10351560Y-1993189D01*
X-10577876Y-1925832D01*
X-10788867Y-1862875D01*
X-10981291Y-1805294D01*
X-11151910Y-1754063D01*
X-11297482Y-1710156D01*
X-11414768Y-1674548D01*
X-11500529Y-1648213D01*
X-11551524Y-1632125D01*
X-11565111Y-1627288D01*
X-11558358Y-1607017D01*
X-11537280Y-1548988D01*
X-11502564Y-1455025D01*
X-11454895Y-1326953D01*
X-11394962Y-1166595D01*
X-11323450Y-975776D01*
X-11241047Y-756321D01*
X-11148439Y-510052D01*
X-11046313Y-238796D01*
X-10935356Y55625D01*
X-10816254Y371387D01*
X-10689695Y706663D01*
X-10556365Y1059632D01*
X-10416952Y1428468D01*
X-10272140Y1811347D01*
X-10122618Y2206445D01*
X-9982121Y2577488D01*
X-9790708Y3082667D01*
X-9613700Y3549408D01*
X-9450632Y3978910D01*
X-9301042Y4372371D01*
X-9164465Y4730989D01*
X-9040437Y5055963D01*
X-8928495Y5348492D01*
X-8828176Y5609774D01*
X-8739015Y5841006D01*
X-8660548Y6043389D01*
X-8592312Y6218120D01*
X-8533843Y6366398D01*
X-8484678Y6489421D01*
X-8444352Y6588388D01*
X-8412402Y6664497D01*
X-8388364Y6718946D01*
X-8371774Y6752935D01*
X-8362169Y6767661D01*
X-8360379Y6768488D01*
X-8335647Y6757886D01*
G37*
X-8335647Y6757886D02*
X-8278263Y6730168D01*
X-8193086Y6687836D01*
X-8084979Y6633396D01*
X-7958799Y6569350D01*
X-7819408Y6498203D01*
X-7671666Y6422458D01*
X-7520433Y6344618D01*
X-7370569Y6267188D01*
X-7226934Y6192672D01*
X-7094388Y6123572D01*
X-6977792Y6062392D01*
X-6882005Y6011637D01*
X-6811888Y5973810D01*
X-6772301Y5951415D01*
X-6765666Y5946970D01*
X-6771551Y5925540D01*
X-6800887Y5879156D01*
X-6848992Y5814496D01*
X-6911182Y5738241D01*
X-6915864Y5732733D01*
X-7271097Y5285156D01*
X-7598597Y4809839D01*
X-7895643Y4311838D01*
X-8159515Y3796210D01*
X-8387494Y3268011D01*
X-8576858Y2732297D01*
X-8635909Y2535579D01*
X-8725055Y2196132D01*
X-8805572Y1835143D01*
X-8874888Y1466580D01*
X-8930430Y1104411D01*
X-8969629Y762604D01*
X-8976111Y687736D01*
X-8985439Y527751D01*
X-8990792Y336449D01*
X-8992364Y123753D01*
X-8990350Y-100416D01*
X-8984945Y-326134D01*
X-8976342Y-543482D01*
X-8964736Y-742535D01*
X-8950322Y-913373D01*
X-8943558Y-973667D01*
X-8902684Y-1262258D01*
X-8849787Y-1567537D01*
X-8787818Y-1874928D01*
X-8719724Y-2169857D01*
X-8648454Y-2437748D01*
X-8644898Y-2450042D01*
X-8640844Y-2485384D01*
X-8649406Y-2495143D01*
X-8672242Y-2488852D01*
X-8732386Y-2471473D01*
X-8826564Y-2443968D01*
X-8951504Y-2407304D01*
X-9103932Y-2362443D01*
X-9280575Y-2310350D01*
X-9478160Y-2251990D01*
X-9693412Y-2188326D01*
X-9923060Y-2120322D01*
X-10113156Y-2063973D01*
X-10351560Y-1993189D01*
X-10577876Y-1925832D01*
X-10788867Y-1862875D01*
X-10981291Y-1805294D01*
X-11151910Y-1754063D01*
X-11297482Y-1710156D01*
X-11414768Y-1674548D01*
X-11500529Y-1648213D01*
X-11551524Y-1632125D01*
X-11565111Y-1627288D01*
X-11558358Y-1607017D01*
X-11537280Y-1548988D01*
X-11502564Y-1455025D01*
X-11454895Y-1326953D01*
X-11394962Y-1166595D01*
X-11323450Y-975776D01*
X-11241047Y-756321D01*
X-11148439Y-510052D01*
X-11046313Y-238796D01*
X-10935356Y55625D01*
X-10816254Y371387D01*
X-10689695Y706663D01*
X-10556365Y1059632D01*
X-10416952Y1428468D01*
X-10272140Y1811347D01*
X-10122618Y2206445D01*
X-9982121Y2577488D01*
X-9790708Y3082667D01*
X-9613700Y3549408D01*
X-9450632Y3978910D01*
X-9301042Y4372371D01*
X-9164465Y4730989D01*
X-9040437Y5055963D01*
X-8928495Y5348492D01*
X-8828176Y5609774D01*
X-8739015Y5841006D01*
X-8660548Y6043389D01*
X-8592312Y6218120D01*
X-8533843Y6366398D01*
X-8484678Y6489421D01*
X-8444352Y6588388D01*
X-8412402Y6664497D01*
X-8388364Y6718946D01*
X-8371774Y6752935D01*
X-8362169Y6767661D01*
X-8360379Y6768488D01*
X-8335647Y6757886D01*
G36*
X5471584Y10746530D02*
G01*
X5515081Y10744326D01*
X5598567Y10740122D01*
X5719752Y10734032D01*
X5876345Y10726172D01*
X6066054Y10716655D01*
X6286589Y10705597D01*
X6535658Y10693113D01*
X6810971Y10679317D01*
X7110237Y10664324D01*
X7431164Y10648249D01*
X7771462Y10631206D01*
X8128839Y10613311D01*
X8501006Y10594679D01*
X8885670Y10575423D01*
X9280541Y10555660D01*
X9424459Y10548457D01*
X9917806Y10523648D01*
X10379705Y10500178D01*
X10809321Y10478092D01*
X11205817Y10457438D01*
X11568356Y10438261D01*
X11896102Y10420610D01*
X12188218Y10404529D01*
X12443867Y10390067D01*
X12662214Y10377269D01*
X12842421Y10366182D01*
X12983653Y10356852D01*
X13085073Y10349328D01*
X13145844Y10343654D01*
X13165165Y10339990D01*
X13157431Y10318452D01*
X13134838Y10259487D01*
X13098143Y10165015D01*
X13048103Y10036957D01*
X12985475Y9877233D01*
X12911017Y9687763D01*
X12825486Y9470469D01*
X12729640Y9227269D01*
X12624235Y8960085D01*
X12510028Y8670837D01*
X12387778Y8361446D01*
X12258240Y8033831D01*
X12122174Y7689914D01*
X11980335Y7331614D01*
X11833481Y6960853D01*
X11682370Y6579550D01*
X11675280Y6561666D01*
X10185898Y2804583D01*
X9526308Y2259541D01*
X9382592Y2141094D01*
X9248910Y2031510D01*
X9128793Y1933642D01*
X9025777Y1850344D01*
X8943395Y1784466D01*
X8885181Y1738862D01*
X8854668Y1716384D01*
X8851086Y1714500D01*
X8841275Y1734010D01*
X8824599Y1787774D01*
X8803024Y1868644D01*
X8778511Y1969470D01*
X8765648Y2025658D01*
X8613832Y2605906D01*
X8421511Y3174322D01*
X8189013Y3730237D01*
X7916669Y4272981D01*
X7604807Y4801884D01*
X7253758Y5316277D01*
X6955189Y5704232D01*
X6851704Y5825943D01*
X6722380Y5968328D01*
X6573820Y6124858D01*
X6412626Y6289008D01*
X6245399Y6454252D01*
X6078742Y6614063D01*
X5919255Y6761914D01*
X5773541Y6891280D01*
X5651500Y6993012D01*
X5484779Y7121160D01*
X5294770Y7259380D01*
X5091460Y7400935D01*
X4884836Y7539087D01*
X4684887Y7667100D01*
X4501598Y7778235D01*
X4409578Y7830798D01*
X4173072Y7962127D01*
X4219078Y8083136D01*
X4234732Y8123826D01*
X4264321Y8200249D01*
X4306402Y8308696D01*
X4359532Y8445457D01*
X4422269Y8606823D01*
X4493171Y8789085D01*
X4570796Y8988534D01*
X4653702Y9201461D01*
X4740446Y9424156D01*
X4762500Y9480760D01*
X5259917Y10757375D01*
X5471584Y10746530D01*
G37*
X5471584Y10746530D02*
X5515081Y10744326D01*
X5598567Y10740122D01*
X5719752Y10734032D01*
X5876345Y10726172D01*
X6066054Y10716655D01*
X6286589Y10705597D01*
X6535658Y10693113D01*
X6810971Y10679317D01*
X7110237Y10664324D01*
X7431164Y10648249D01*
X7771462Y10631206D01*
X8128839Y10613311D01*
X8501006Y10594679D01*
X8885670Y10575423D01*
X9280541Y10555660D01*
X9424459Y10548457D01*
X9917806Y10523648D01*
X10379705Y10500178D01*
X10809321Y10478092D01*
X11205817Y10457438D01*
X11568356Y10438261D01*
X11896102Y10420610D01*
X12188218Y10404529D01*
X12443867Y10390067D01*
X12662214Y10377269D01*
X12842421Y10366182D01*
X12983653Y10356852D01*
X13085073Y10349328D01*
X13145844Y10343654D01*
X13165165Y10339990D01*
X13157431Y10318452D01*
X13134838Y10259487D01*
X13098143Y10165015D01*
X13048103Y10036957D01*
X12985475Y9877233D01*
X12911017Y9687763D01*
X12825486Y9470469D01*
X12729640Y9227269D01*
X12624235Y8960085D01*
X12510028Y8670837D01*
X12387778Y8361446D01*
X12258240Y8033831D01*
X12122174Y7689914D01*
X11980335Y7331614D01*
X11833481Y6960853D01*
X11682370Y6579550D01*
X11675280Y6561666D01*
X10185898Y2804583D01*
X9526308Y2259541D01*
X9382592Y2141094D01*
X9248910Y2031510D01*
X9128793Y1933642D01*
X9025777Y1850344D01*
X8943395Y1784466D01*
X8885181Y1738862D01*
X8854668Y1716384D01*
X8851086Y1714500D01*
X8841275Y1734010D01*
X8824599Y1787774D01*
X8803024Y1868644D01*
X8778511Y1969470D01*
X8765648Y2025658D01*
X8613832Y2605906D01*
X8421511Y3174322D01*
X8189013Y3730237D01*
X7916669Y4272981D01*
X7604807Y4801884D01*
X7253758Y5316277D01*
X6955189Y5704232D01*
X6851704Y5825943D01*
X6722380Y5968328D01*
X6573820Y6124858D01*
X6412626Y6289008D01*
X6245399Y6454252D01*
X6078742Y6614063D01*
X5919255Y6761914D01*
X5773541Y6891280D01*
X5651500Y6993012D01*
X5484779Y7121160D01*
X5294770Y7259380D01*
X5091460Y7400935D01*
X4884836Y7539087D01*
X4684887Y7667100D01*
X4501598Y7778235D01*
X4409578Y7830798D01*
X4173072Y7962127D01*
X4219078Y8083136D01*
X4234732Y8123826D01*
X4264321Y8200249D01*
X4306402Y8308696D01*
X4359532Y8445457D01*
X4422269Y8606823D01*
X4493171Y8789085D01*
X4570796Y8988534D01*
X4653702Y9201461D01*
X4740446Y9424156D01*
X4762500Y9480760D01*
X5259917Y10757375D01*
X5471584Y10746530D01*
G36*
X1136787Y13661751D02*
G01*
X1413913Y13414042D01*
X1682533Y13173795D01*
X1940941Y12942541D01*
X2187429Y12721815D01*
X2420293Y12513147D01*
X2637826Y12318070D01*
X2838323Y12138117D01*
X3020076Y11974821D01*
X3181380Y11829713D01*
X3320529Y11704327D01*
X3435817Y11600194D01*
X3525537Y11518847D01*
X3587984Y11461819D01*
X3621451Y11430642D01*
X3626847Y11425136D01*
X3622062Y11401641D01*
X3602854Y11341821D01*
X3570380Y11248713D01*
X3525796Y11125355D01*
X3470259Y10974783D01*
X3404924Y10800037D01*
X3330947Y10604152D01*
X3249486Y10390166D01*
X3161696Y10161117D01*
X3068733Y9920043D01*
X2971754Y9669979D01*
X2871915Y9413965D01*
X2770372Y9155037D01*
X2668281Y8896233D01*
X2568401Y8644613D01*
X2543127Y8638326D01*
X2478686Y8647909D01*
X2375153Y8673349D01*
X2343218Y8682172D01*
X1803683Y8813098D01*
X1246522Y8908604D01*
X677206Y8968705D01*
X101209Y8993416D01*
X-475997Y8982753D01*
X-1048940Y8936731D01*
X-1612146Y8855366D01*
X-2160143Y8738674D01*
X-2421160Y8668686D01*
X-2992524Y8483310D01*
X-3552990Y8259242D01*
X-4097754Y7998806D01*
X-4622009Y7704325D01*
X-5120952Y7378121D01*
X-5184586Y7332872D01*
X-5261417Y7278094D01*
X-5324507Y7233849D01*
X-5366643Y7205149D01*
X-5380596Y7196719D01*
X-5399908Y7206243D01*
X-5453982Y7233829D01*
X-5540008Y7278026D01*
X-5655179Y7337385D01*
X-5796689Y7410454D01*
X-5961729Y7495781D01*
X-6147493Y7591916D01*
X-6351173Y7697408D01*
X-6569961Y7810805D01*
X-6801051Y7930658D01*
X-6910916Y7987665D01*
X-8434916Y8778559D01*
X-11694583Y10830572D01*
X-12104986Y11088920D01*
X-12481055Y11325643D01*
X-12824272Y11541684D01*
X-13136119Y11737987D01*
X-13418080Y11915494D01*
X-13671637Y12075148D01*
X-13898271Y12217891D01*
X-14099467Y12344666D01*
X-14276706Y12456416D01*
X-14431470Y12554084D01*
X-14565243Y12638612D01*
X-14679506Y12710944D01*
X-14775743Y12772021D01*
X-14855436Y12822787D01*
X-14920067Y12864184D01*
X-14971119Y12897155D01*
X-15010074Y12922643D01*
X-15038415Y12941590D01*
X-15057625Y12954939D01*
X-15069185Y12963634D01*
X-15074579Y12968616D01*
X-15075289Y12970828D01*
X-15072797Y12971214D01*
X-15068586Y12970715D01*
X-15064139Y12970275D01*
X-15060937Y12970837D01*
X-15060663Y12971059D01*
X-15037692Y12973497D01*
X-14972951Y12976997D01*
X-14866986Y12981541D01*
X-14720346Y12987113D01*
X-14533580Y12993695D01*
X-14307236Y13001272D01*
X-14041862Y13009826D01*
X-13738006Y13019340D01*
X-13396217Y13029798D01*
X-13017043Y13041183D01*
X-12601033Y13053478D01*
X-12148734Y13066667D01*
X-11660695Y13080731D01*
X-11137464Y13095656D01*
X-10579590Y13111423D01*
X-9987620Y13128017D01*
X-9440333Y13143249D01*
X-9105140Y13152787D01*
X-8810249Y13161699D01*
X-8553637Y13170073D01*
X-8333278Y13177995D01*
X-8147147Y13185554D01*
X-7993220Y13192835D01*
X-7869473Y13199925D01*
X-7773880Y13206911D01*
X-7704417Y13213881D01*
X-7667246Y13219330D01*
X-7549368Y13244714D01*
X-7398856Y13283483D01*
X-7222493Y13333582D01*
X-7027063Y13392960D01*
X-6819352Y13459564D01*
X-6606142Y13531342D01*
X-6424083Y13595454D01*
X-5992957Y13755583D01*
X-5537922Y13934386D01*
X-5057420Y14132549D01*
X-4549887Y14350757D01*
X-4013765Y14589698D01*
X-3447491Y14850056D01*
X-2849505Y15132519D01*
X-2218247Y15437772D01*
X-2091129Y15500016D01*
X-1335342Y15870815D01*
X1136787Y13661751D01*
G37*
X1136787Y13661751D02*
X1413913Y13414042D01*
X1682533Y13173795D01*
X1940941Y12942541D01*
X2187429Y12721815D01*
X2420293Y12513147D01*
X2637826Y12318070D01*
X2838323Y12138117D01*
X3020076Y11974821D01*
X3181380Y11829713D01*
X3320529Y11704327D01*
X3435817Y11600194D01*
X3525537Y11518847D01*
X3587984Y11461819D01*
X3621451Y11430642D01*
X3626847Y11425136D01*
X3622062Y11401641D01*
X3602854Y11341821D01*
X3570380Y11248713D01*
X3525796Y11125355D01*
X3470259Y10974783D01*
X3404924Y10800037D01*
X3330947Y10604152D01*
X3249486Y10390166D01*
X3161696Y10161117D01*
X3068733Y9920043D01*
X2971754Y9669979D01*
X2871915Y9413965D01*
X2770372Y9155037D01*
X2668281Y8896233D01*
X2568401Y8644613D01*
X2543127Y8638326D01*
X2478686Y8647909D01*
X2375153Y8673349D01*
X2343218Y8682172D01*
X1803683Y8813098D01*
X1246522Y8908604D01*
X677206Y8968705D01*
X101209Y8993416D01*
X-475997Y8982753D01*
X-1048940Y8936731D01*
X-1612146Y8855366D01*
X-2160143Y8738674D01*
X-2421160Y8668686D01*
X-2992524Y8483310D01*
X-3552990Y8259242D01*
X-4097754Y7998806D01*
X-4622009Y7704325D01*
X-5120952Y7378121D01*
X-5184586Y7332872D01*
X-5261417Y7278094D01*
X-5324507Y7233849D01*
X-5366643Y7205149D01*
X-5380596Y7196719D01*
X-5399908Y7206243D01*
X-5453982Y7233829D01*
X-5540008Y7278026D01*
X-5655179Y7337385D01*
X-5796689Y7410454D01*
X-5961729Y7495781D01*
X-6147493Y7591916D01*
X-6351173Y7697408D01*
X-6569961Y7810805D01*
X-6801051Y7930658D01*
X-6910916Y7987665D01*
X-8434916Y8778559D01*
X-11694583Y10830572D01*
X-12104986Y11088920D01*
X-12481055Y11325643D01*
X-12824272Y11541684D01*
X-13136119Y11737987D01*
X-13418080Y11915494D01*
X-13671637Y12075148D01*
X-13898271Y12217891D01*
X-14099467Y12344666D01*
X-14276706Y12456416D01*
X-14431470Y12554084D01*
X-14565243Y12638612D01*
X-14679506Y12710944D01*
X-14775743Y12772021D01*
X-14855436Y12822787D01*
X-14920067Y12864184D01*
X-14971119Y12897155D01*
X-15010074Y12922643D01*
X-15038415Y12941590D01*
X-15057625Y12954939D01*
X-15069185Y12963634D01*
X-15074579Y12968616D01*
X-15075289Y12970828D01*
X-15072797Y12971214D01*
X-15068586Y12970715D01*
X-15064139Y12970275D01*
X-15060937Y12970837D01*
X-15060663Y12971059D01*
X-15037692Y12973497D01*
X-14972951Y12976997D01*
X-14866986Y12981541D01*
X-14720346Y12987113D01*
X-14533580Y12993695D01*
X-14307236Y13001272D01*
X-14041862Y13009826D01*
X-13738006Y13019340D01*
X-13396217Y13029798D01*
X-13017043Y13041183D01*
X-12601033Y13053478D01*
X-12148734Y13066667D01*
X-11660695Y13080731D01*
X-11137464Y13095656D01*
X-10579590Y13111423D01*
X-9987620Y13128017D01*
X-9440333Y13143249D01*
X-9105140Y13152787D01*
X-8810249Y13161699D01*
X-8553637Y13170073D01*
X-8333278Y13177995D01*
X-8147147Y13185554D01*
X-7993220Y13192835D01*
X-7869473Y13199925D01*
X-7773880Y13206911D01*
X-7704417Y13213881D01*
X-7667246Y13219330D01*
X-7549368Y13244714D01*
X-7398856Y13283483D01*
X-7222493Y13333582D01*
X-7027063Y13392960D01*
X-6819352Y13459564D01*
X-6606142Y13531342D01*
X-6424083Y13595454D01*
X-5992957Y13755583D01*
X-5537922Y13934386D01*
X-5057420Y14132549D01*
X-4549887Y14350757D01*
X-4013765Y14589698D01*
X-3447491Y14850056D01*
X-2849505Y15132519D01*
X-2218247Y15437772D01*
X-2091129Y15500016D01*
X-1335342Y15870815D01*
X1136787Y13661751D01*
M02*
