<?xml version="1.0" encoding="UTF-8" standalone="no"?>
<svg
   xmlns:dc="http://purl.org/dc/elements/1.1/"
   xmlns:cc="http://creativecommons.org/ns#"
   xmlns:rdf="http://www.w3.org/1999/02/22-rdf-syntax-ns#"
   xmlns:svg="http://www.w3.org/2000/svg"
   xmlns="http://www.w3.org/2000/svg"
   xmlns:sodipodi="http://sodipodi.sourceforge.net/DTD/sodipodi-0.dtd"
   xmlns:inkscape="http://www.inkscape.org/namespaces/inkscape"
   width="100.0mm"
   height="100.0mm"
   viewBox="0 0 100.0 100.0"
   version="1.1"
   id="svg8"
   sodipodi:docname="2.svg"
   inkscape:version="1.0.2 (394de47547, 2021-03-26)">
  <defs
     id="defs2" />
  <sodipodi:namedview
     id="base"
     pagecolor="#ffffff"
     bordercolor="#666666"
     borderopacity="1.0"
     inkscape:pageopacity="0.0"
     inkscape:pageshadow="2"
     inkscape:zoom="2.4865144"
     inkscape:cx="188.97638"
     inkscape:cy="188.97638"
     inkscape:document-units="mm"
     inkscape:current-layer="g840"
     inkscape:document-rotation="0"
     showgrid="false"
     inkscape:window-width="2056"
     inkscape:window-height="1133"
     inkscape:window-x="72"
     inkscape:window-y="27"
     inkscape:window-maximized="1" />
  <metadata
     id="metadata5">
    <rdf:RDF>
      <cc:Work
         rdf:about="">
        <dc:format>image/svg+xml</dc:format>
        <dc:type
           rdf:resource="http://purl.org/dc/dcmitype/StillImage" />
        <dc:title />
      </cc:Work>
    </rdf:RDF>
  </metadata>
  <g
     inkscape:label="[fixed] BG"
     inkscape:groupmode="layer"
     sodipodi:insensitive="true"
     id="g838"
     style="display:inline">
    <rect
       x="0"
       y="0"
       width="100"
       height="100"
       style="fill:#ffffff;fill-opacity:1;stroke:none"
       id="rect836" />
  </g>
  <g
     inkscape:label="Edge.Cuts"
     inkscape:groupmode="layer"
     id="g840"
     style="display:inline">
    <path
       id="path867"
       style="fill:none;stroke:#000600;stroke-width:0.0773483;stroke-opacity:1"
       d="M 55.9113 48.9502 L 55.9028 49.2954 L 55.8774 49.6382 L 55.8351 49.9781 L 55.7764 50.3147 L 55.7014 50.647 L 55.6105 50.9748 L 55.5037 51.2974 L 55.3814 51.6142 L 55.2439 51.9247 L 55.0913 52.2282 L 54.9239 52.5243 L 54.7418 52.8123 L 54.5454 53.0918 L 54.3349 53.362 L 54.1105 53.6225 L 53.8725 53.8726 L 53.6223 54.1107 L 53.3619 54.335 L 53.0916 54.5455 L 52.8122 54.742 L 52.5241 54.924 L 52.228 55.0915 L 51.9245 55.2441 L 51.614 55.3816 L 51.2973 55.5039 L 50.9746 55.6107 L 50.6469 55.7016 L 50.3145 55.7766 L 49.978 55.8353 L 49.638 55.8775 L 49.2953 55.903 L 48.95 55.9115 L 48.6048 55.903 L 48.262 55.8775 L 47.922 55.8353 L 47.5856 55.7766 L 47.2532 55.7016 L 46.9254 55.6107 L 46.6028 55.5039 L 46.286 55.3816 L 45.9756 55.2441 L 45.672 55.0915 L 45.3759 54.924 L 45.0878 54.742 L 44.8085 54.5455 L 44.5382 54.335 L 44.2778 54.1107 L 44.0276 53.8726 L 43.7896 53.6225 L 43.5651 53.362 L 43.3547 53.0918 L 43.1583 52.8123 L 42.9762 52.5243 L 42.8088 52.2282 L 42.6562 51.9247 L 42.5186 51.6142 L 42.3964 51.2974 L 42.2896 50.9748 L 42.1986 50.647 L 42.1237 50.3147 L 42.065 49.9781 L 42.0227 49.6382 L 41.9972 49.2954 L 41.9887 48.9502 L 41.9977 48.592 L 42.0246 48.2385 L 42.0688 47.89 L 42.1301 47.5473 L 42.2078 47.2105 L 42.3016 46.8801 L 42.411 46.5566 L 42.5357 46.2406 L 42.6751 45.9321 L 42.8289 45.632 L 42.9965 45.3405 L 43.1776 45.058 L 43.3716 44.7851 L 43.5783 44.5221 L 43.7971 44.2695 L 44.0276 44.0278 L 44.2694 43.7973 L 44.5219 43.5785 L 44.785 43.3719 L 45.0578 43.1778 L 45.3403 42.9966 L 45.6318 42.8291 L 45.932 42.6753 L 46.2403 42.5359 L 46.5564 42.4112 L 46.8799 42.3019 L 47.2103 42.208 L 47.547 42.1303 L 47.8898 42.0691 L 48.2383 42.0248 L 48.5917 41.9979 L 48.95 41.9889 L 49.3083 41.9979 L 49.6617 42.0248 L 50.0102 42.0691 L 50.353 42.1303 L 50.6898 42.208 L 51.0201 42.3019 L 51.3436 42.4112 L 51.6597 42.5359 L 51.968 42.6753 L 52.2682 42.8291 L 52.5598 42.9966 L 52.8422 43.1778 L 53.1151 43.3719 L 53.3781 43.5785 L 53.6306 43.7973 L 53.8725 44.0278 L 54.1029 44.2695 L 54.3218 44.5221 L 54.5284 44.7851 L 54.7225 45.058 L 54.9035 45.3405 L 55.0712 45.632 L 55.2249 45.9321 L 55.3643 46.2406 L 55.489 46.5566 L 55.5984 46.8801 L 55.6922 47.2105 L 55.7699 47.5473 L 55.8312 47.89 L 55.8754 48.2385 L 55.9023 48.592 L 55.9113 48.9502 L 55.9113 48.9502" />
  </g>
  <g
     inkscape:label="B.Cu"
     inkscape:groupmode="layer"
     id="g842"
     style="display:none">
    <path
       id="path863"
       style="display:inline;opacity:0.985092;fill:#000000;fill-opacity:1;stroke:none;stroke-width:0.0773483;stroke-opacity:1"
       d="m 48.619141,42.998047 c -3.014117,0.09865 -5.637332,2.801209 -5.627009,5.821006 -0.137507,3.007203 2.344312,5.818077 5.343806,6.059853 2.935383,0.370637 5.89279,-1.787249 6.444655,-4.691134 0.695775,-2.933195 -1.226071,-6.162979 -4.134626,-6.951332 -0.655012,-0.198552 -1.343933,-0.27407 -2.026826,-0.238393 z" />
  </g>
  <g
     inkscape:label="B.Mask-disabled"
     inkscape:groupmode="layer"
     id="g844"
     style="display:inline" />
  <g
     inkscape:label="B.SilkS"
     inkscape:groupmode="layer"
     id="g846"
     style="display:none">
    <text
       xml:space="preserve"
       style="font-style:normal;font-weight:normal;font-size:7.05556px;line-height:1.25;font-family:sans-serif;letter-spacing:0px;word-spacing:0px;display:inline;fill:#000000;fill-opacity:1;stroke:none;stroke-width:0.264583"
       x="-49.215099"
       y="51.451439"
       id="text953"
       transform="scale(-1,1)"><tspan
         sodipodi:role="line"
         id="tspan951"
         x="-49.215099"
         y="51.451439"
         style="font-style:normal;font-variant:normal;font-weight:normal;font-stretch:normal;font-size:7.05556px;font-family:FreeSans;-inkscape-font-specification:FreeSans;text-align:center;text-anchor:middle;stroke-width:0.264583">EX</tspan></text>
  </g>
  <g
     inkscape:label="F.Cu"
     inkscape:groupmode="layer"
     id="g848"
     style="display:none">
    <path
       id="path859"
       style="display:inline;fill:#000000;fill-opacity:1;stroke:none;stroke-width:0.0773483;stroke-opacity:1"
       d="m 48.619141,42.998047 c -3.014117,0.09865 -5.637332,2.801209 -5.627009,5.821006 -0.137507,3.007203 2.344312,5.818077 5.343806,6.059853 2.935383,0.370637 5.89279,-1.787249 6.444655,-4.691134 0.695775,-2.933195 -1.226071,-6.162979 -4.134626,-6.951332 -0.655012,-0.198552 -1.343933,-0.27407 -2.026826,-0.238393 z" />
  </g>
  <g
     inkscape:label="F.Mask-disabled"
     inkscape:groupmode="layer"
     id="g850" />
  <g
     inkscape:label="F.SilkS"
     inkscape:groupmode="layer"
     id="g852"
     style="display:inline">
    <text
       xml:space="preserve"
       style="font-style:normal;font-weight:normal;font-size:7.05556px;line-height:1.25;font-family:sans-serif;letter-spacing:0px;word-spacing:0px;fill:#000000;fill-opacity:1;stroke:none;stroke-width:0.264583"
       x="48.991089"
       y="51.423214"
       id="text868"><tspan
         sodipodi:role="line"
         id="tspan866"
         x="48.991089"
         y="51.423214"
         style="font-style:normal;font-variant:normal;font-weight:normal;font-stretch:normal;font-size:7.05556px;font-family:FreeSans;-inkscape-font-specification:FreeSans;text-align:center;text-anchor:middle;stroke-width:0.264583">2</tspan></text>
    <path
       id="path867-5"
       style="display:inline;fill:#000000;fill-opacity:1;stroke:none;stroke-width:0.0066663;stroke-opacity:1"
       d="m 49.549741,53.122978 -7.24e-4,0.02974 -0.0022,0.02955 -0.0036,0.0293 -0.005,0.029 -0.0065,0.02864 -0.0078,0.02825 -0.0092,0.0278 -0.01054,0.02731 -0.01185,0.02676 -0.01315,0.02616 -0.01442,0.02552 -0.01569,0.02482 -0.01693,0.02409 -0.01813,0.02328 -0.01934,0.02245 -0.02051,0.02156 -0.02157,0.02052 -0.02245,0.01933 -0.02329,0.01814 -0.02408,0.01693 -0.02483,0.01569 -0.02552,0.01444 -0.02616,0.01315 -0.02676,0.01186 -0.02731,0.01054 -0.0278,0.0092 -0.02824,0.0078 -0.02865,0.0065 -0.029,0.005 -0.0293,0.0036 -0.02954,0.0022 -0.02975,7.24e-4 -0.02976,-7.24e-4 -0.02954,-0.0022 -0.0293,-0.0036 -0.029,-0.005 -0.02865,-0.0065 -0.02824,-0.0078 -0.0278,-0.0092 -0.0273,-0.01054 -0.02676,-0.01186 -0.02616,-0.01315 -0.02552,-0.01444 -0.02483,-0.01569 -0.02408,-0.01693 -0.02329,-0.01814 -0.02245,-0.01933 -0.02157,-0.02052 -0.02051,-0.02156 -0.01934,-0.02245 -0.01813,-0.02328 -0.01693,-0.02409 -0.01569,-0.02482 -0.01442,-0.02552 -0.01315,-0.02616 -0.01185,-0.02676 -0.01054,-0.02731 -0.0092,-0.0278 -0.0078,-0.02825 -0.0065,-0.02864 -0.005,-0.029 -0.0036,-0.0293 -0.0022,-0.02955 -7.24e-4,-0.02974 7.85e-4,-0.03088 0.0023,-0.03047 0.0038,-0.03003 0.0053,-0.02954 0.0067,-0.02903 0.0081,-0.02847 0.0094,-0.02788 0.01074,-0.02724 0.01201,-0.02658 0.01325,-0.02586 0.01445,-0.02512 0.0156,-0.02434 0.01673,-0.02352 0.01781,-0.02267 0.01886,-0.02177 0.01986,-0.02083 0.02085,-0.01987 0.02177,-0.01886 0.02267,-0.01781 0.02352,-0.01673 0.02434,-0.01561 0.02513,-0.01445 0.02587,-0.01325 0.02657,-0.01201 0.02724,-0.01074 0.02788,-0.0094 0.02847,-0.0081 0.02903,-0.0067 0.02954,-0.0053 0.03003,-0.0038 0.03047,-0.0023 0.03088,-7.85e-4 0.03088,7.85e-4 0.03047,0.0023 0.03004,0.0038 0.02954,0.0053 0.02903,0.0067 0.02847,0.0081 0.02788,0.0094 0.02724,0.01074 0.02657,0.01201 0.02587,0.01325 0.02512,0.01445 0.02434,0.01561 0.02352,0.01673 0.02267,0.01781 0.02177,0.01886 0.02084,0.01987 0.01986,0.02083 0.01886,0.02177 0.01781,0.02267 0.01673,0.02352 0.0156,0.02434 0.01445,0.02512 0.01325,0.02586 0.01201,0.02658 0.01074,0.02724 0.0094,0.02788 0.0081,0.02847 0.0067,0.02903 0.0053,0.02954 0.0038,0.03003 0.0023,0.03047 7.84e-4,0.03088 v 0" />
  </g>
</svg>
