<?xml version="1.0" encoding="UTF-8" standalone="no"?>
<svg
   xmlns:dc="http://purl.org/dc/elements/1.1/"
   xmlns:cc="http://creativecommons.org/ns#"
   xmlns:rdf="http://www.w3.org/1999/02/22-rdf-syntax-ns#"
   xmlns:svg="http://www.w3.org/2000/svg"
   xmlns="http://www.w3.org/2000/svg"
   xmlns:sodipodi="http://sodipodi.sourceforge.net/DTD/sodipodi-0.dtd"
   xmlns:inkscape="http://www.inkscape.org/namespaces/inkscape"
   width="100.0mm"
   height="100.0mm"
   viewBox="0 0 100.0 100.0"
   version="1.1"
   id="svg8"
   sodipodi:docname="ocean_blank.svg"
   inkscape:version="1.0.2 (394de47547, 2021-03-26)">
  <defs
     id="defs2" />
  <sodipodi:namedview
     id="base"
     pagecolor="#ffffff"
     bordercolor="#666666"
     borderopacity="1.0"
     inkscape:pageopacity="0.0"
     inkscape:pageshadow="2"
     inkscape:zoom="2.492375"
     inkscape:cx="188.97638"
     inkscape:cy="188.97638"
     inkscape:document-units="mm"
     inkscape:current-layer="g840"
     inkscape:document-rotation="0"
     showgrid="false"
     inkscape:window-width="3768"
     inkscape:window-height="2096"
     inkscape:window-x="72"
     inkscape:window-y="27"
     inkscape:window-maximized="1" />
  <metadata
     id="metadata5">
    <rdf:RDF>
      <cc:Work
         rdf:about="">
        <dc:format>image/svg+xml</dc:format>
        <dc:type
           rdf:resource="http://purl.org/dc/dcmitype/StillImage" />
        <dc:title />
      </cc:Work>
    </rdf:RDF>
  </metadata>
  <g
     inkscape:label="[fixed] BG"
     inkscape:groupmode="layer"
     sodipodi:insensitive="true"
     id="g838"
     style="display:inline">
    <rect
       x="0"
       y="0"
       width="100"
       height="100"
       style="fill:#ffffff;fill-opacity:1;stroke:none"
       id="rect836" />
  </g>
  <g
     inkscape:label="Edge.Cuts"
     inkscape:groupmode="layer"
     id="g840"
     style="display:inline">
    <path
       id="path864"
       style="fill:none;stroke:#000600;stroke-width:0.104494;stroke-opacity:1"
       d="M 64.9801 75.9228 L 35.0404 75.9346 L 20.0603 50.012 L 35.0199 24.0776 L 64.9596 24.0658 L 79.9397 49.9884 L 64.9801 75.9228" />
    <g
       id="g12"
       transform="matrix(0.06155521,0,0,0.06155521,32.937862,26.940854)">
      <g
         id="g10" />
    </g>
  </g>
  <g
     inkscape:label="B.Cu"
     inkscape:groupmode="layer"
     id="g842"
     style="display:inline">
    <path
       d="m 164.53497,319.42382 c -9.717,0 -18.94,-4.233 -25.305,-11.614 -1.709,-1.982 -4.198,-3.123 -6.816,-3.123 -2.618,0 -5.106,1.14 -6.816,3.123 -6.363,7.38 -15.586,11.613 -25.304,11.613 -9.717997,0 -18.939997,-4.233 -25.304997,-11.614 -1.709,-1.982 -4.198,-3.123 -6.816,-3.123 -2.618,0 -5.106,1.14 -6.816,3.123 -6.36299,7.38 -15.58599,11.613 -25.30399,11.613 -9.718001,0 -18.940003,-4.233 -25.304003,-11.613 -1.7100002,-1.983 -4.1980002,-3.123 -6.8160002,-3.123 -2.618,0 -5.106,1.14 -6.816,3.123 -6.364,7.381 -15.5869998,11.614 -25.3049998,11.614 -9.718,0 -18.94,-4.233 -25.304,-11.613 -1.71,-1.983 -4.198,-3.123 -6.816,-3.123 -2.618,0 -5.105999,1.14 -6.815999,3.123 -6.364,7.382 -15.587,11.614 -25.304001,11.614 -4.971,0 -9,4.029 -9,9 0,4.971 4.029,9 9,9 10.469001,0 20.558001,-3.195 29.029,-9 1.055,-0.723 2.09,-1.48 3.092,-2.283 1.002,0.803 2.037,1.56 3.092,2.283 8.47,5.805 18.56,9 29.028,9 10.468,0 20.5579998,-3.195 29.02899975,-9 1.05500005,-0.723 2.09000005,-1.48 3.09200005,-2.283 1.002,0.803 2.037,1.56 3.092,2.283 8.4700002,5.805 18.5600022,9 29.0280032,9 10.468,0 20.55799,-3.195 29.02799,-9 1.055,-0.723 2.089,-1.48 3.092,-2.283 1.002,0.803 2.037,1.56 3.092,2.283 8.47,5.805 18.56,9 29.028997,9 10.469,0 20.558,-3.195 29.028,-9 1.055,-0.723 2.089,-1.48 3.092,-2.283 1.002,0.803 2.037,1.56 3.092,2.283 8.47,5.805 18.56,9 29.029,9 4.971,0 9,-4.029 9,-9 0,-4.971 -4.03,-9 -9.001,-9 z"
       id="path937"
       style="display:inline"
       transform="matrix(0.06155521,0,0,0.06155521,32.937863,26.940854)" />
    <path
       d="m 252.51396,146.09529 c -9.717,0 -18.94,-4.233 -25.305,-11.614 -1.709,-1.982 -4.198,-3.123 -6.816,-3.123 -2.618,0 -5.106,1.14 -6.816,3.123 -6.363,7.38 -15.586,11.613 -25.304,11.613 -9.718,0 -18.94,-4.233 -25.305,-11.614 -1.709,-1.982 -4.198,-3.123 -6.816,-3.123 -2.618,0 -5.106,1.14 -6.816,3.123 -6.363,7.38 -15.586,11.613 -25.30399,11.613 -9.718,0 -18.94,-4.233 -25.303998,-11.613 -1.71,-1.983 -4.198,-3.123 -6.816,-3.123 -2.618,0 -5.105996,1.14 -6.815996,3.123 -6.364,7.381 -15.587005,11.614 -25.305005,11.614 -9.718,0 -18.94,-4.233 -25.304,-11.613 -1.71,-1.983 -4.198,-3.123 -6.816,-3.123 -2.618,0 -5.106,1.14 -6.816,3.123 -6.364,7.381 -15.5869996,11.614 -25.3039994,11.614 -4.971,0 -8.9999996,4.029 -8.9999996,9.00001 0,4.971 4.0289996,9 8.9999996,9 10.4689998,0 20.5579994,-3.195 29.0289994,-9 1.055,-0.723 2.089,-1.48 3.092,-2.283 1.002,0.803 2.037,1.56 3.092,2.283 8.47,5.805 18.56,9 29.028,9 10.468,0 20.558005,-3.195 29.029001,-9 1.055,-0.723 2.089,-1.48 3.092,-2.283 1.002,0.803 2.037,1.56 3.092,2.283 8.469998,5.805 18.559998,9 29.027998,9 10.46799,0 20.55799,-3.195 29.02799,-9 1.055,-0.723 2.089,-1.48 3.092,-2.283 1.002,0.803 2.037,1.56 3.092,2.283 8.471,5.805 18.56,9 29.029,9 10.469,0 20.558,-3.195 29.028,-9 1.055,-0.723 2.089,-1.48 3.092,-2.283 1.002,0.803 2.037,1.56 3.092,2.283 8.471,5.805 18.56,9 29.029,9 4.971,0 9,-4.029 9,-9 0,-4.97001 -4.03,-9.00001 -9.001,-9.00001 z"
       id="path939"
       style="display:inline"
       transform="matrix(0.06155521,0,0,0.06155521,32.937863,26.940854)" />
    <path
       d="m 282.43673,255.35288 c 10.469,0 20.558,-3.195 29.029,-9 1.055,-0.723 2.089,-1.48 3.092,-2.283 1.002,0.803 2.037,1.56 3.092,2.283 8.47,5.805 18.56,9 29.028,9 10.468,0 20.558,-3.195 29.029,-9 1.055,-0.723 2.089,-1.48 3.092,-2.283 1.002,0.803 2.037,1.56 3.092,2.283 8.47,5.805 18.56,9 29.028,9 10.468,0 20.558,-3.195 29.028,-9 1.055,-0.723 2.089,-1.48 3.092,-2.283 1.002,0.803 2.037,1.56 3.092,2.283 8.471,5.805 18.56,9 29.029,9 10.469,0 20.558,-3.195 29.028,-9 1.055,-0.723 2.089,-1.48 3.092,-2.283 1.002,0.803 2.037,1.56 3.092,2.283 8.471,5.805 18.56,9 29.029,9 4.971,0 9,-4.029 9,-9 0,-4.971 -4.029,-9 -9,-9 -9.717,0 -18.94,-4.233 -25.305,-11.614 -1.709,-1.982 -4.198,-3.123 -6.816,-3.123 -2.618,0 -5.106,1.14 -6.816,3.123 -6.363,7.38 -15.586,11.613 -25.304,11.613 -9.718,0 -18.94,-4.233 -25.305,-11.614 -1.709,-1.982 -4.198,-3.123 -6.816,-3.123 -2.618,0 -5.106,1.14 -6.816,3.123 -6.363,7.38 -15.586,11.613 -25.304,11.613 -9.718,0 -18.94,-4.233 -25.304,-11.613 -1.71,-1.983 -4.198,-3.123 -6.816,-3.123 -2.618,0 -5.106,1.14 -6.816,3.123 -6.364,7.381 -15.587,11.614 -25.305,11.614 -9.718,0 -18.941,-4.232 -25.304,-11.612 -1.71,-1.983 -4.198,-3.123 -6.816,-3.123 -2.618,0 -5.106,1.14 -6.816,3.123 -6.365,7.381 -15.588,11.613 -25.305,11.613 -4.971,0 -9,4.029 -9,9 0,4.971 4.029,9 9,9 z"
       id="path941"
       style="display:inline"
       transform="matrix(0.06155521,0,0,0.06155521,32.937863,26.940854)" />
    <path
       d="m 665.27864,409.56181 c -9.71701,0 -18.94001,-4.233 -25.30501,-11.614 -1.709,-1.982 -4.198,-3.123 -6.81599,-3.123 -2.618,0 -5.106,1.14 -6.816,3.123 -6.36301,7.38 -15.58601,11.613 -25.30401,11.613 -9.718,0 -18.94,-4.233 -25.30499,-11.614 -1.709,-1.982 -4.198,-3.123 -6.816,-3.123 -2.61801,0 -5.106,1.14 -6.81601,3.123 -6.36299,7.38 -15.586,11.613 -25.304,11.613 -9.71799,0 -18.94,-4.233 -25.304,-11.613 -1.71,-1.983 -4.198,-3.123 -6.81599,-3.123 -2.61801,0 -5.106,1.14 -6.81601,3.123 -6.36399,7.381 -15.587,11.614 -25.305,11.614 -9.71799,0 -18.93999,-4.233 -25.30399,-11.613 -1.71,-1.983 -4.198,-3.123 -6.81601,-3.123 -2.618,0 -5.106,1.14 -6.81599,3.123 -6.364,7.382 -15.587,11.614 -25.304,11.614 -4.971,0 -9,4.029 -9,9 0,4.971 4.029,9 9,9 10.469,0 20.55799,-3.195 29.02899,-9 1.055,-0.723 2.09,-1.48 3.092,-2.283 1.002,0.803 2.03701,1.56 3.092,2.283 8.47,5.805 18.56,9 29.028,9 10.468,0 20.55801,-3.195 29.02901,-9 1.05499,-0.723 2.08999,-1.48 3.09199,-2.283 1.002,0.803 2.037,1.56 3.092,2.283 8.47,5.805 18.56001,9 29.02801,9 10.46799,0 20.558,-3.195 29.028,-9 1.05499,-0.723 2.089,-1.48 3.092,-2.283 1.002,0.803 2.037,1.56 3.09199,2.283 8.47,5.805 18.56001,9 29.02901,9 10.469,0 20.55799,-3.195 29.028,-9 1.05499,-0.723 2.089,-1.48 3.09199,-2.283 1.002,0.803 2.037,1.56 3.09201,2.283 8.46999,5.805 18.56,9 29.02899,9 4.97101,0 9,-4.029 9,-9 0,-4.971 -4.03,-9 -9.00099,-9 z"
       id="path943"
       style="display:inline;stroke-width:1"
       transform="matrix(0.06155521,0,0,0.06155521,32.937863,26.940854)" />
    <path
       d="m 247.41612,490.28892 c -9.71701,0 -18.94001,-4.233 -25.30501,-11.614 -1.709,-1.982 -4.198,-3.123 -6.81599,-3.123 -2.618,0 -5.106,1.14 -6.816,3.123 -6.36301,7.38 -15.58601,11.613 -25.30401,11.613 -9.718,0 -18.94,-4.233 -25.30499,-11.614 -1.709,-1.982 -4.198,-3.123 -6.816,-3.123 -2.61801,0 -5.106,1.14 -6.81601,3.123 -6.36299,7.38 -15.586,11.613 -25.30399,11.613 -9.71799,0 -18.940001,-4.233 -25.304003,-11.613 -1.71,-1.983 -4.198,-3.123 -6.81599,-3.123 -2.61801,0 -5.106,1.14 -6.81601,3.123 -6.36399,7.381 -15.587,11.614 -25.305,11.614 -9.71799,0 -18.93999,-4.233 -25.30399,-11.613 -1.71,-1.983 -4.198,-3.123 -6.81601,-3.123 -2.618,0 -5.106,1.14 -6.81599,3.123 -6.3639999,7.382 -15.58699986,11.614 -25.3039999,11.614 -4.9710001,0 -9.0000001,4.029 -9.0000001,9 0,4.971 4.029,9 9.0000001,9 10.46900004,0 20.5579899,-3.195 29.0289899,-9 1.055,-0.723 2.09,-1.48 3.092,-2.283 1.002,0.803 2.03701,1.56 3.092,2.283 8.47,5.805 18.56,9 29.028,9 10.468,0 20.55801,-3.195 29.02901,-9 1.05499,-0.723 2.08999,-1.48 3.09199,-2.283 1.002,0.803 2.037,1.56 3.092,2.283 8.470002,5.805 18.560013,9 29.028013,9 10.46798,0 20.55799,-3.195 29.02799,-9 1.05499,-0.723 2.089,-1.48 3.092,-2.283 1.002,0.803 2.037,1.56 3.09199,2.283 8.47,5.805 18.56001,9 29.02901,9 10.469,0 20.55799,-3.195 29.028,-9 1.05499,-0.723 2.089,-1.48 3.09199,-2.283 1.002,0.803 2.037,1.56 3.09201,2.283 8.46999,5.805 18.56,9 29.02899,9 4.97101,0 9,-4.029 9,-9 0,-4.971 -4.03,-9 -9.00099,-9 z"
       id="path945"
       style="display:inline;stroke-width:1"
       transform="matrix(0.06155521,0,0,0.06155521,32.937863,26.940854)" />
    <path
       d="m 540.5812,592.69135 c -9.71701,0 -18.94001,-4.233 -25.30501,-11.614 -1.709,-1.982 -4.198,-3.123 -6.81599,-3.123 -2.618,0 -5.106,1.14 -6.816,3.123 -6.36301,7.38 -15.58601,11.613 -25.30401,11.613 -9.718,0 -18.94,-4.233 -25.30499,-11.614 -1.709,-1.982 -4.198,-3.123 -6.816,-3.123 -2.61801,0 -5.106,1.14 -6.81601,3.123 -6.36299,7.38 -15.586,11.613 -25.304,11.613 -9.71799,0 -18.94,-4.233 -25.304,-11.613 -1.71,-1.983 -4.198,-3.123 -6.81599,-3.123 -2.61801,0 -5.106,1.14 -6.81601,3.123 -6.36399,7.381 -15.587,11.614 -25.305,11.614 -9.71799,0 -18.93999,-4.233 -25.30399,-11.613 -1.71,-1.983 -4.198,-3.123 -6.81601,-3.123 -2.618,0 -5.106,1.14 -6.81599,3.123 -6.364,7.382 -15.587,11.614 -25.304,11.614 -4.971,0 -9,4.029 -9,9 0,4.971 4.029,9 9,9 10.469,0 20.55799,-3.195 29.02899,-9 1.055,-0.723 2.09,-1.48 3.092,-2.283 1.002,0.803 2.03701,1.56 3.092,2.283 8.47,5.805 18.56,9 29.028,9 10.468,0 20.55801,-3.195 29.02901,-9 1.05499,-0.723 2.08999,-1.48 3.09199,-2.283 1.002,0.803 2.037,1.56 3.092,2.283 8.47,5.805 18.56001,9 29.02801,9 10.46799,0 20.558,-3.195 29.028,-9 1.05499,-0.723 2.089,-1.48 3.092,-2.283 1.002,0.803 2.037,1.56 3.09199,2.283 8.47,5.805 18.56001,9 29.02901,9 10.469,0 20.55799,-3.195 29.028,-9 1.05499,-0.723 2.089,-1.48 3.09199,-2.283 1.002,0.803 2.037,1.56 3.09201,2.283 8.46999,5.805 18.56,9 29.02899,9 4.97101,0 9,-4.029 9,-9 0,-4.971 -4.03,-9 -9.00099,-9 z"
       id="path947"
       style="display:inline;stroke-width:1"
       transform="matrix(0.06155521,0,0,0.06155521,32.937863,26.940854)" />
    <path
       d="m 318.88223,701.38976 c -9.71701,0 -18.94001,-4.233 -25.30501,-11.614 -1.709,-1.982 -4.198,-3.123 -6.81599,-3.123 -2.618,0 -5.106,1.14 -6.816,3.123 -6.36301,7.38 -15.58601,11.613 -25.30401,11.613 -9.718,0 -18.94,-4.233 -25.30499,-11.614 -1.709,-1.982 -4.198,-3.123 -6.816,-3.123 -2.61801,0 -5.106,1.14 -6.81601,3.123 -6.36299,7.38 -15.586,11.613 -25.304,11.613 -9.71799,0 -18.94,-4.233 -25.304,-11.613 -1.71,-1.983 -4.198,-3.123 -6.81599,-3.123 -2.61801,0 -5.106,1.14 -6.81601,3.123 -6.36399,7.381 -15.587,11.614 -25.305,11.614 -9.71799,0 -18.93999,-4.233 -25.30399,-11.613 -1.710002,-1.983 -4.198002,-3.123 -6.816012,-3.123 -2.618,0 -5.106,1.14 -6.81599,3.123 -6.364,7.382 -15.587,11.614 -25.304,11.614 -4.971,0 -9,4.029 -9,9 0,4.971 4.029,9 9,9 10.469,0 20.55799,-3.195 29.02899,-9 1.055,-0.723 2.09,-1.48 3.092,-2.283 1.002,0.803 2.03701,1.56 3.092,2.283 8.470002,5.805 18.560002,9 29.028002,9 10.468,0 20.55801,-3.195 29.02901,-9 1.05499,-0.723 2.08999,-1.48 3.09199,-2.283 1.002,0.803 2.037,1.56 3.092,2.283 8.47,5.805 18.56001,9 29.02801,9 10.46799,0 20.558,-3.195 29.028,-9 1.05499,-0.723 2.089,-1.48 3.092,-2.283 1.002,0.803 2.037,1.56 3.09199,2.283 8.47,5.805 18.56001,9 29.02901,9 10.469,0 20.55799,-3.195 29.028,-9 1.05499,-0.723 2.089,-1.48 3.09199,-2.283 1.002,0.803 2.037,1.56 3.09201,2.283 8.46999,5.805 18.56,9 29.02899,9 4.97101,0 9,-4.029 9,-9 0,-4.971 -4.03,-9 -9.00099,-9 z"
       id="path949"
       style="display:inline;stroke-width:1"
       transform="matrix(0.06155521,0,0,0.06155521,32.937863,26.940854)" />
    <path
       d="m 497.47314,45.788003 c -9.71701,0 -18.94001,-4.233 -25.30501,-11.614002 -1.709,-1.982 -4.198,-3.123 -6.81599,-3.123 -2.618,0 -5.106,1.14 -6.816,3.123 -6.36301,7.380002 -15.58601,11.613002 -25.30401,11.613002 -9.718,0 -18.94,-4.233 -25.30499,-11.614002 -1.709,-1.982 -4.198,-3.123 -6.816,-3.123 -2.61801,0 -5.106,1.14 -6.81601,3.123 -6.36299,7.380002 -15.586,11.613002 -25.304,11.613002 -9.71799,0 -18.94,-4.233 -25.304,-11.613002 -1.71,-1.983 -4.198,-3.123 -6.81599,-3.123 -2.61801,0 -5.106,1.14 -6.81601,3.123 -6.36399,7.381002 -15.587,11.614002 -25.305,11.614002 -9.71799,0 -18.93999,-4.233 -25.30399,-11.613002 -1.71,-1.983 -4.198,-3.123 -6.81601,-3.123 -2.618,0 -5.106,1.14 -6.81599,3.123 -6.364,7.382002 -15.587,11.614002 -25.304,11.614002 -4.971,0 -9,4.029 -9,9 0,4.971 4.029,9 9,9 10.469,0 20.55799,-3.195 29.02899,-9 1.055,-0.723 2.09,-1.48 3.092,-2.283 1.002,0.803 2.03701,1.56 3.092,2.283 8.47,5.805 18.56,9 29.028,9 10.468,0 20.55801,-3.195 29.02901,-9 1.05499,-0.723 2.08999,-1.48 3.09199,-2.283 1.002,0.803 2.037,1.56 3.092,2.283 8.47,5.805 18.56001,9 29.02801,9 10.46799,0 20.558,-3.195 29.028,-9 1.05499,-0.723 2.089,-1.48 3.092,-2.283 1.002,0.803 2.037,1.56 3.09199,2.283 8.47,5.805 18.56001,9 29.02901,9 10.469,0 20.55799,-3.195 29.028,-9 1.05499,-0.723 2.089,-1.48 3.09199,-2.283 1.002,0.803 2.037,1.56 3.09201,2.283 8.46999,5.805 18.56,9 29.02899,9 4.97101,0 9,-4.029 9,-9 0,-4.971 -4.03,-9 -9.00099,-9 z"
       id="path951"
       style="display:inline;stroke-width:1"
       transform="matrix(0.06155521,0,0,0.06155521,32.937863,26.940854)" />
  </g>
  <g
     inkscape:label="B.Mask-disabled"
     inkscape:groupmode="layer"
     id="g844"
     style="display:inline" />
  <g
     inkscape:label="B.SilkS-disabled"
     inkscape:groupmode="layer"
     id="g846"
     style="display:inline" />
  <g
     inkscape:label="F.Cu"
     inkscape:groupmode="layer"
     id="g848"
     style="display:inline">
    <path
       d="m 164.53497,319.42382 c -9.717,0 -18.94,-4.233 -25.305,-11.614 -1.709,-1.982 -4.198,-3.123 -6.816,-3.123 -2.618,0 -5.106,1.14 -6.816,3.123 -6.363,7.38 -15.586,11.613 -25.304,11.613 -9.717997,0 -18.939997,-4.233 -25.304997,-11.614 -1.709,-1.982 -4.198,-3.123 -6.816,-3.123 -2.618,0 -5.106,1.14 -6.816,3.123 -6.36299,7.38 -15.58599,11.613 -25.30399,11.613 -9.718001,0 -18.940003,-4.233 -25.304003,-11.613 -1.7100002,-1.983 -4.1980002,-3.123 -6.8160002,-3.123 -2.618,0 -5.106,1.14 -6.816,3.123 -6.364,7.381 -15.5869998,11.614 -25.3049998,11.614 -9.718,0 -18.94,-4.233 -25.304,-11.613 -1.71,-1.983 -4.198,-3.123 -6.816,-3.123 -2.618,0 -5.105999,1.14 -6.815999,3.123 -6.364,7.382 -15.587,11.614 -25.304001,11.614 -4.971,0 -9,4.029 -9,9 0,4.971 4.029,9 9,9 10.469001,0 20.558001,-3.195 29.029,-9 1.055,-0.723 2.09,-1.48 3.092,-2.283 1.002,0.803 2.037,1.56 3.092,2.283 8.47,5.805 18.56,9 29.028,9 10.468,0 20.5579998,-3.195 29.02899975,-9 1.05500005,-0.723 2.09000005,-1.48 3.09200005,-2.283 1.002,0.803 2.037,1.56 3.092,2.283 8.4700002,5.805 18.5600022,9 29.0280032,9 10.468,0 20.55799,-3.195 29.02799,-9 1.055,-0.723 2.089,-1.48 3.092,-2.283 1.002,0.803 2.037,1.56 3.092,2.283 8.47,5.805 18.56,9 29.028997,9 10.469,0 20.558,-3.195 29.028,-9 1.055,-0.723 2.089,-1.48 3.092,-2.283 1.002,0.803 2.037,1.56 3.092,2.283 8.47,5.805 18.56,9 29.029,9 4.971,0 9,-4.029 9,-9 0,-4.971 -4.03,-9 -9.001,-9 z"
       id="path2"
       style="display:inline"
       transform="matrix(0.06155521,0,0,0.06155521,32.937863,26.940854)" />
    <path
       d="m 252.51396,146.09529 c -9.717,0 -18.94,-4.233 -25.305,-11.614 -1.709,-1.982 -4.198,-3.123 -6.816,-3.123 -2.618,0 -5.106,1.14 -6.816,3.123 -6.363,7.38 -15.586,11.613 -25.304,11.613 -9.718,0 -18.94,-4.233 -25.305,-11.614 -1.709,-1.982 -4.198,-3.123 -6.816,-3.123 -2.618,0 -5.106,1.14 -6.816,3.123 -6.363,7.38 -15.586,11.613 -25.30399,11.613 -9.718,0 -18.94,-4.233 -25.303998,-11.613 -1.71,-1.983 -4.198,-3.123 -6.816,-3.123 -2.618,0 -5.105996,1.14 -6.815996,3.123 -6.364,7.381 -15.587005,11.614 -25.305005,11.614 -9.718,0 -18.94,-4.233 -25.304,-11.613 -1.71,-1.983 -4.198,-3.123 -6.816,-3.123 -2.618,0 -5.106,1.14 -6.816,3.123 -6.364,7.381 -15.5869996,11.614 -25.3039994,11.614 -4.971,0 -8.9999996,4.029 -8.9999996,9.00001 0,4.971 4.0289996,9 8.9999996,9 10.4689998,0 20.5579994,-3.195 29.0289994,-9 1.055,-0.723 2.089,-1.48 3.092,-2.283 1.002,0.803 2.037,1.56 3.092,2.283 8.47,5.805 18.56,9 29.028,9 10.468,0 20.558005,-3.195 29.029001,-9 1.055,-0.723 2.089,-1.48 3.092,-2.283 1.002,0.803 2.037,1.56 3.092,2.283 8.469998,5.805 18.559998,9 29.027998,9 10.46799,0 20.55799,-3.195 29.02799,-9 1.055,-0.723 2.089,-1.48 3.092,-2.283 1.002,0.803 2.037,1.56 3.092,2.283 8.471,5.805 18.56,9 29.029,9 10.469,0 20.558,-3.195 29.028,-9 1.055,-0.723 2.089,-1.48 3.092,-2.283 1.002,0.803 2.037,1.56 3.092,2.283 8.471,5.805 18.56,9 29.029,9 4.971,0 9,-4.029 9,-9 0,-4.97001 -4.03,-9.00001 -9.001,-9.00001 z"
       id="path4"
       style="display:inline"
       transform="matrix(0.06155521,0,0,0.06155521,32.937863,26.940854)" />
    <path
       d="m 282.43673,255.35288 c 10.469,0 20.558,-3.195 29.029,-9 1.055,-0.723 2.089,-1.48 3.092,-2.283 1.002,0.803 2.037,1.56 3.092,2.283 8.47,5.805 18.56,9 29.028,9 10.468,0 20.558,-3.195 29.029,-9 1.055,-0.723 2.089,-1.48 3.092,-2.283 1.002,0.803 2.037,1.56 3.092,2.283 8.47,5.805 18.56,9 29.028,9 10.468,0 20.558,-3.195 29.028,-9 1.055,-0.723 2.089,-1.48 3.092,-2.283 1.002,0.803 2.037,1.56 3.092,2.283 8.471,5.805 18.56,9 29.029,9 10.469,0 20.558,-3.195 29.028,-9 1.055,-0.723 2.089,-1.48 3.092,-2.283 1.002,0.803 2.037,1.56 3.092,2.283 8.471,5.805 18.56,9 29.029,9 4.971,0 9,-4.029 9,-9 0,-4.971 -4.029,-9 -9,-9 -9.717,0 -18.94,-4.233 -25.305,-11.614 -1.709,-1.982 -4.198,-3.123 -6.816,-3.123 -2.618,0 -5.106,1.14 -6.816,3.123 -6.363,7.38 -15.586,11.613 -25.304,11.613 -9.718,0 -18.94,-4.233 -25.305,-11.614 -1.709,-1.982 -4.198,-3.123 -6.816,-3.123 -2.618,0 -5.106,1.14 -6.816,3.123 -6.363,7.38 -15.586,11.613 -25.304,11.613 -9.718,0 -18.94,-4.233 -25.304,-11.613 -1.71,-1.983 -4.198,-3.123 -6.816,-3.123 -2.618,0 -5.106,1.14 -6.816,3.123 -6.364,7.381 -15.587,11.614 -25.305,11.614 -9.718,0 -18.941,-4.232 -25.304,-11.612 -1.71,-1.983 -4.198,-3.123 -6.816,-3.123 -2.618,0 -5.106,1.14 -6.816,3.123 -6.365,7.381 -15.588,11.613 -25.305,11.613 -4.971,0 -9,4.029 -9,9 0,4.971 4.029,9 9,9 z"
       id="path6"
       style="display:inline"
       transform="matrix(0.06155521,0,0,0.06155521,32.937863,26.940854)" />
    <path
       d="m 665.27864,409.56181 c -9.71701,0 -18.94001,-4.233 -25.30501,-11.614 -1.709,-1.982 -4.198,-3.123 -6.81599,-3.123 -2.618,0 -5.106,1.14 -6.816,3.123 -6.36301,7.38 -15.58601,11.613 -25.30401,11.613 -9.718,0 -18.94,-4.233 -25.30499,-11.614 -1.709,-1.982 -4.198,-3.123 -6.816,-3.123 -2.61801,0 -5.106,1.14 -6.81601,3.123 -6.36299,7.38 -15.586,11.613 -25.304,11.613 -9.71799,0 -18.94,-4.233 -25.304,-11.613 -1.71,-1.983 -4.198,-3.123 -6.81599,-3.123 -2.61801,0 -5.106,1.14 -6.81601,3.123 -6.36399,7.381 -15.587,11.614 -25.305,11.614 -9.71799,0 -18.93999,-4.233 -25.30399,-11.613 -1.71,-1.983 -4.198,-3.123 -6.81601,-3.123 -2.618,0 -5.106,1.14 -6.81599,3.123 -6.364,7.382 -15.587,11.614 -25.304,11.614 -4.971,0 -9,4.029 -9,9 0,4.971 4.029,9 9,9 10.469,0 20.55799,-3.195 29.02899,-9 1.055,-0.723 2.09,-1.48 3.092,-2.283 1.002,0.803 2.03701,1.56 3.092,2.283 8.47,5.805 18.56,9 29.028,9 10.468,0 20.55801,-3.195 29.02901,-9 1.05499,-0.723 2.08999,-1.48 3.09199,-2.283 1.002,0.803 2.037,1.56 3.092,2.283 8.47,5.805 18.56001,9 29.02801,9 10.46799,0 20.558,-3.195 29.028,-9 1.05499,-0.723 2.089,-1.48 3.092,-2.283 1.002,0.803 2.037,1.56 3.09199,2.283 8.47,5.805 18.56001,9 29.02901,9 10.469,0 20.55799,-3.195 29.028,-9 1.05499,-0.723 2.089,-1.48 3.09199,-2.283 1.002,0.803 2.037,1.56 3.09201,2.283 8.46999,5.805 18.56,9 29.02899,9 4.97101,0 9,-4.029 9,-9 0,-4.971 -4.03,-9 -9.00099,-9 z"
       id="path2-6"
       style="display:inline;stroke-width:1"
       transform="matrix(0.06155521,0,0,0.06155521,32.937863,26.940854)" />
    <path
       d="m 247.41612,490.28892 c -9.71701,0 -18.94001,-4.233 -25.30501,-11.614 -1.709,-1.982 -4.198,-3.123 -6.81599,-3.123 -2.618,0 -5.106,1.14 -6.816,3.123 -6.36301,7.38 -15.58601,11.613 -25.30401,11.613 -9.718,0 -18.94,-4.233 -25.30499,-11.614 -1.709,-1.982 -4.198,-3.123 -6.816,-3.123 -2.61801,0 -5.106,1.14 -6.81601,3.123 -6.36299,7.38 -15.586,11.613 -25.30399,11.613 -9.71799,0 -18.940001,-4.233 -25.304003,-11.613 -1.71,-1.983 -4.198,-3.123 -6.81599,-3.123 -2.61801,0 -5.106,1.14 -6.81601,3.123 -6.36399,7.381 -15.587,11.614 -25.305,11.614 -9.71799,0 -18.93999,-4.233 -25.30399,-11.613 -1.71,-1.983 -4.198,-3.123 -6.81601,-3.123 -2.618,0 -5.106,1.14 -6.81599,3.123 -6.3639999,7.382 -15.58699986,11.614 -25.3039999,11.614 -4.9710001,0 -9.0000001,4.029 -9.0000001,9 0,4.971 4.029,9 9.0000001,9 10.46900004,0 20.5579899,-3.195 29.0289899,-9 1.055,-0.723 2.09,-1.48 3.092,-2.283 1.002,0.803 2.03701,1.56 3.092,2.283 8.47,5.805 18.56,9 29.028,9 10.468,0 20.55801,-3.195 29.02901,-9 1.05499,-0.723 2.08999,-1.48 3.09199,-2.283 1.002,0.803 2.037,1.56 3.092,2.283 8.470002,5.805 18.560013,9 29.028013,9 10.46798,0 20.55799,-3.195 29.02799,-9 1.05499,-0.723 2.089,-1.48 3.092,-2.283 1.002,0.803 2.037,1.56 3.09199,2.283 8.47,5.805 18.56001,9 29.02901,9 10.469,0 20.55799,-3.195 29.028,-9 1.05499,-0.723 2.089,-1.48 3.09199,-2.283 1.002,0.803 2.037,1.56 3.09201,2.283 8.46999,5.805 18.56,9 29.02899,9 4.97101,0 9,-4.029 9,-9 0,-4.971 -4.03,-9 -9.00099,-9 z"
       id="path2-7"
       style="display:inline;stroke-width:1"
       transform="matrix(0.06155521,0,0,0.06155521,32.937863,26.940854)" />
    <path
       d="m 540.5812,592.69135 c -9.71701,0 -18.94001,-4.233 -25.30501,-11.614 -1.709,-1.982 -4.198,-3.123 -6.81599,-3.123 -2.618,0 -5.106,1.14 -6.816,3.123 -6.36301,7.38 -15.58601,11.613 -25.30401,11.613 -9.718,0 -18.94,-4.233 -25.30499,-11.614 -1.709,-1.982 -4.198,-3.123 -6.816,-3.123 -2.61801,0 -5.106,1.14 -6.81601,3.123 -6.36299,7.38 -15.586,11.613 -25.304,11.613 -9.71799,0 -18.94,-4.233 -25.304,-11.613 -1.71,-1.983 -4.198,-3.123 -6.81599,-3.123 -2.61801,0 -5.106,1.14 -6.81601,3.123 -6.36399,7.381 -15.587,11.614 -25.305,11.614 -9.71799,0 -18.93999,-4.233 -25.30399,-11.613 -1.71,-1.983 -4.198,-3.123 -6.81601,-3.123 -2.618,0 -5.106,1.14 -6.81599,3.123 -6.364,7.382 -15.587,11.614 -25.304,11.614 -4.971,0 -9,4.029 -9,9 0,4.971 4.029,9 9,9 10.469,0 20.55799,-3.195 29.02899,-9 1.055,-0.723 2.09,-1.48 3.092,-2.283 1.002,0.803 2.03701,1.56 3.092,2.283 8.47,5.805 18.56,9 29.028,9 10.468,0 20.55801,-3.195 29.02901,-9 1.05499,-0.723 2.08999,-1.48 3.09199,-2.283 1.002,0.803 2.037,1.56 3.092,2.283 8.47,5.805 18.56001,9 29.02801,9 10.46799,0 20.558,-3.195 29.028,-9 1.05499,-0.723 2.089,-1.48 3.092,-2.283 1.002,0.803 2.037,1.56 3.09199,2.283 8.47,5.805 18.56001,9 29.02901,9 10.469,0 20.55799,-3.195 29.028,-9 1.05499,-0.723 2.089,-1.48 3.09199,-2.283 1.002,0.803 2.037,1.56 3.09201,2.283 8.46999,5.805 18.56,9 29.02899,9 4.97101,0 9,-4.029 9,-9 0,-4.971 -4.03,-9 -9.00099,-9 z"
       id="path2-5"
       style="display:inline;stroke-width:1"
       transform="matrix(0.06155521,0,0,0.06155521,32.937863,26.940854)" />
    <path
       d="m 318.88223,701.38976 c -9.71701,0 -18.94001,-4.233 -25.30501,-11.614 -1.709,-1.982 -4.198,-3.123 -6.81599,-3.123 -2.618,0 -5.106,1.14 -6.816,3.123 -6.36301,7.38 -15.58601,11.613 -25.30401,11.613 -9.718,0 -18.94,-4.233 -25.30499,-11.614 -1.709,-1.982 -4.198,-3.123 -6.816,-3.123 -2.61801,0 -5.106,1.14 -6.81601,3.123 -6.36299,7.38 -15.586,11.613 -25.304,11.613 -9.71799,0 -18.94,-4.233 -25.304,-11.613 -1.71,-1.983 -4.198,-3.123 -6.81599,-3.123 -2.61801,0 -5.106,1.14 -6.81601,3.123 -6.36399,7.381 -15.587,11.614 -25.305,11.614 -9.71799,0 -18.93999,-4.233 -25.30399,-11.613 -1.710002,-1.983 -4.198002,-3.123 -6.816012,-3.123 -2.618,0 -5.106,1.14 -6.81599,3.123 -6.364,7.382 -15.587,11.614 -25.304,11.614 -4.971,0 -9,4.029 -9,9 0,4.971 4.029,9 9,9 10.469,0 20.55799,-3.195 29.02899,-9 1.055,-0.723 2.09,-1.48 3.092,-2.283 1.002,0.803 2.03701,1.56 3.092,2.283 8.470002,5.805 18.560002,9 29.028002,9 10.468,0 20.55801,-3.195 29.02901,-9 1.05499,-0.723 2.08999,-1.48 3.09199,-2.283 1.002,0.803 2.037,1.56 3.092,2.283 8.47,5.805 18.56001,9 29.02801,9 10.46799,0 20.558,-3.195 29.028,-9 1.05499,-0.723 2.089,-1.48 3.092,-2.283 1.002,0.803 2.037,1.56 3.09199,2.283 8.47,5.805 18.56001,9 29.02901,9 10.469,0 20.55799,-3.195 29.028,-9 1.05499,-0.723 2.089,-1.48 3.09199,-2.283 1.002,0.803 2.037,1.56 3.09201,2.283 8.46999,5.805 18.56,9 29.02899,9 4.97101,0 9,-4.029 9,-9 0,-4.971 -4.03,-9 -9.00099,-9 z"
       id="path2-3"
       style="display:inline;stroke-width:1"
       transform="matrix(0.06155521,0,0,0.06155521,32.937863,26.940854)" />
    <path
       d="m 497.47314,45.788003 c -9.71701,0 -18.94001,-4.233 -25.30501,-11.614002 -1.709,-1.982 -4.198,-3.123 -6.81599,-3.123 -2.618,0 -5.106,1.14 -6.816,3.123 -6.36301,7.380002 -15.58601,11.613002 -25.30401,11.613002 -9.718,0 -18.94,-4.233 -25.30499,-11.614002 -1.709,-1.982 -4.198,-3.123 -6.816,-3.123 -2.61801,0 -5.106,1.14 -6.81601,3.123 -6.36299,7.380002 -15.586,11.613002 -25.304,11.613002 -9.71799,0 -18.94,-4.233 -25.304,-11.613002 -1.71,-1.983 -4.198,-3.123 -6.81599,-3.123 -2.61801,0 -5.106,1.14 -6.81601,3.123 -6.36399,7.381002 -15.587,11.614002 -25.305,11.614002 -9.71799,0 -18.93999,-4.233 -25.30399,-11.613002 -1.71,-1.983 -4.198,-3.123 -6.81601,-3.123 -2.618,0 -5.106,1.14 -6.81599,3.123 -6.364,7.382002 -15.587,11.614002 -25.304,11.614002 -4.971,0 -9,4.029 -9,9 0,4.971 4.029,9 9,9 10.469,0 20.55799,-3.195 29.02899,-9 1.055,-0.723 2.09,-1.48 3.092,-2.283 1.002,0.803 2.03701,1.56 3.092,2.283 8.47,5.805 18.56,9 29.028,9 10.468,0 20.55801,-3.195 29.02901,-9 1.05499,-0.723 2.08999,-1.48 3.09199,-2.283 1.002,0.803 2.037,1.56 3.092,2.283 8.47,5.805 18.56001,9 29.02801,9 10.46799,0 20.558,-3.195 29.028,-9 1.05499,-0.723 2.089,-1.48 3.092,-2.283 1.002,0.803 2.037,1.56 3.09199,2.283 8.47,5.805 18.56001,9 29.02901,9 10.469,0 20.55799,-3.195 29.028,-9 1.05499,-0.723 2.089,-1.48 3.09199,-2.283 1.002,0.803 2.037,1.56 3.09201,2.283 8.46999,5.805 18.56,9 29.02899,9 4.97101,0 9,-4.029 9,-9 0,-4.971 -4.03,-9 -9.00099,-9 z"
       id="path2-56"
       style="display:inline;stroke-width:1"
       transform="matrix(0.06155521,0,0,0.06155521,32.937863,26.940854)" />
  </g>
  <g
     inkscape:label="F.Mask-disabled"
     inkscape:groupmode="layer"
     id="g850" />
  <g
     inkscape:label="F.SilkS-disabled"
     inkscape:groupmode="layer"
     id="g852"
     style="display:inline" />
</svg>
