G04 #@! TF.GenerationSoftware,KiCad,Pcbnew,5.1.5+dfsg1-2build2*
G04 #@! TF.CreationDate,2021-04-24T09:02:55-04:00*
G04 #@! TF.ProjectId,8,382e6b69-6361-4645-9f70-636258585858,rev?*
G04 #@! TF.SameCoordinates,Original*
G04 #@! TF.FileFunction,Legend,Top*
G04 #@! TF.FilePolarity,Positive*
%FSLAX46Y46*%
G04 Gerber Fmt 4.6, Leading zero omitted, Abs format (unit mm)*
G04 Created by KiCad (PCBNEW 5.1.5+dfsg1-2build2) date 2021-04-24 09:02:55*
%MOMM*%
%LPD*%
G04 APERTURE LIST*
%ADD10C,0.010000*%
G04 APERTURE END LIST*
D10*
G36*
X-4126661Y-2530912D02*
G01*
X-4059409Y-2536921D01*
X-4007541Y-2550288D01*
X-3957607Y-2573707D01*
X-3933485Y-2587476D01*
X-3801241Y-2687450D01*
X-3704359Y-2809856D01*
X-3644276Y-2951974D01*
X-3622428Y-3111088D01*
X-3624249Y-3172709D01*
X-3641555Y-3293845D01*
X-3678649Y-3394207D01*
X-3742708Y-3490261D01*
X-3783295Y-3537631D01*
X-3873901Y-3622000D01*
X-3971650Y-3677227D01*
X-4088148Y-3708351D01*
X-4201583Y-3719234D01*
X-4298754Y-3721154D01*
X-4369511Y-3714899D01*
X-4429338Y-3698330D01*
X-4466166Y-3682671D01*
X-4599179Y-3599789D01*
X-4703146Y-3492299D01*
X-4776801Y-3366574D01*
X-4818879Y-3228989D01*
X-4828116Y-3085916D01*
X-4803245Y-2943729D01*
X-4743002Y-2808802D01*
X-4660800Y-2702248D01*
X-4574841Y-2623069D01*
X-4490811Y-2571374D01*
X-4396049Y-2542170D01*
X-4277891Y-2530467D01*
X-4222750Y-2529569D01*
X-4126661Y-2530912D01*
G37*
X-4126661Y-2530912D02*
X-4059409Y-2536921D01*
X-4007541Y-2550288D01*
X-3957607Y-2573707D01*
X-3933485Y-2587476D01*
X-3801241Y-2687450D01*
X-3704359Y-2809856D01*
X-3644276Y-2951974D01*
X-3622428Y-3111088D01*
X-3624249Y-3172709D01*
X-3641555Y-3293845D01*
X-3678649Y-3394207D01*
X-3742708Y-3490261D01*
X-3783295Y-3537631D01*
X-3873901Y-3622000D01*
X-3971650Y-3677227D01*
X-4088148Y-3708351D01*
X-4201583Y-3719234D01*
X-4298754Y-3721154D01*
X-4369511Y-3714899D01*
X-4429338Y-3698330D01*
X-4466166Y-3682671D01*
X-4599179Y-3599789D01*
X-4703146Y-3492299D01*
X-4776801Y-3366574D01*
X-4818879Y-3228989D01*
X-4828116Y-3085916D01*
X-4803245Y-2943729D01*
X-4743002Y-2808802D01*
X-4660800Y-2702248D01*
X-4574841Y-2623069D01*
X-4490811Y-2571374D01*
X-4396049Y-2542170D01*
X-4277891Y-2530467D01*
X-4222750Y-2529569D01*
X-4126661Y-2530912D01*
G36*
X-2539161Y-2530912D02*
G01*
X-2471909Y-2536921D01*
X-2420041Y-2550288D01*
X-2370107Y-2573707D01*
X-2345985Y-2587476D01*
X-2218597Y-2684397D01*
X-2123189Y-2802844D01*
X-2060841Y-2936568D01*
X-2032630Y-3079317D01*
X-2039637Y-3224842D01*
X-2082940Y-3366890D01*
X-2163618Y-3499213D01*
X-2184334Y-3523961D01*
X-2276163Y-3613306D01*
X-2372270Y-3672039D01*
X-2484791Y-3705675D01*
X-2614083Y-3719234D01*
X-2711254Y-3721154D01*
X-2782011Y-3714899D01*
X-2841838Y-3698330D01*
X-2878666Y-3682671D01*
X-3011679Y-3599789D01*
X-3115646Y-3492299D01*
X-3189301Y-3366574D01*
X-3231379Y-3228989D01*
X-3240616Y-3085916D01*
X-3215745Y-2943729D01*
X-3155502Y-2808802D01*
X-3073300Y-2702248D01*
X-2987341Y-2623069D01*
X-2903311Y-2571374D01*
X-2808549Y-2542170D01*
X-2690391Y-2530467D01*
X-2635250Y-2529569D01*
X-2539161Y-2530912D01*
G37*
X-2539161Y-2530912D02*
X-2471909Y-2536921D01*
X-2420041Y-2550288D01*
X-2370107Y-2573707D01*
X-2345985Y-2587476D01*
X-2218597Y-2684397D01*
X-2123189Y-2802844D01*
X-2060841Y-2936568D01*
X-2032630Y-3079317D01*
X-2039637Y-3224842D01*
X-2082940Y-3366890D01*
X-2163618Y-3499213D01*
X-2184334Y-3523961D01*
X-2276163Y-3613306D01*
X-2372270Y-3672039D01*
X-2484791Y-3705675D01*
X-2614083Y-3719234D01*
X-2711254Y-3721154D01*
X-2782011Y-3714899D01*
X-2841838Y-3698330D01*
X-2878666Y-3682671D01*
X-3011679Y-3599789D01*
X-3115646Y-3492299D01*
X-3189301Y-3366574D01*
X-3231379Y-3228989D01*
X-3240616Y-3085916D01*
X-3215745Y-2943729D01*
X-3155502Y-2808802D01*
X-3073300Y-2702248D01*
X-2987341Y-2623069D01*
X-2903311Y-2571374D01*
X-2808549Y-2542170D01*
X-2690391Y-2530467D01*
X-2635250Y-2529569D01*
X-2539161Y-2530912D01*
G36*
X-951661Y-2530912D02*
G01*
X-884409Y-2536921D01*
X-832541Y-2550288D01*
X-782607Y-2573707D01*
X-758485Y-2587476D01*
X-631097Y-2684397D01*
X-535689Y-2802844D01*
X-473341Y-2936568D01*
X-445130Y-3079317D01*
X-452137Y-3224842D01*
X-495440Y-3366890D01*
X-576118Y-3499213D01*
X-596834Y-3523961D01*
X-688681Y-3613292D01*
X-784910Y-3672072D01*
X-897642Y-3705815D01*
X-1026583Y-3719500D01*
X-1120200Y-3721825D01*
X-1187881Y-3716528D01*
X-1245708Y-3701113D01*
X-1302193Y-3676732D01*
X-1440396Y-3589464D01*
X-1545066Y-3476921D01*
X-1614674Y-3341539D01*
X-1647693Y-3185754D01*
X-1650328Y-3122084D01*
X-1635158Y-2969944D01*
X-1587822Y-2839844D01*
X-1504708Y-2722571D01*
X-1485800Y-2702248D01*
X-1399841Y-2623069D01*
X-1315811Y-2571374D01*
X-1221049Y-2542170D01*
X-1102891Y-2530467D01*
X-1047750Y-2529569D01*
X-951661Y-2530912D01*
G37*
X-951661Y-2530912D02*
X-884409Y-2536921D01*
X-832541Y-2550288D01*
X-782607Y-2573707D01*
X-758485Y-2587476D01*
X-631097Y-2684397D01*
X-535689Y-2802844D01*
X-473341Y-2936568D01*
X-445130Y-3079317D01*
X-452137Y-3224842D01*
X-495440Y-3366890D01*
X-576118Y-3499213D01*
X-596834Y-3523961D01*
X-688681Y-3613292D01*
X-784910Y-3672072D01*
X-897642Y-3705815D01*
X-1026583Y-3719500D01*
X-1120200Y-3721825D01*
X-1187881Y-3716528D01*
X-1245708Y-3701113D01*
X-1302193Y-3676732D01*
X-1440396Y-3589464D01*
X-1545066Y-3476921D01*
X-1614674Y-3341539D01*
X-1647693Y-3185754D01*
X-1650328Y-3122084D01*
X-1635158Y-2969944D01*
X-1587822Y-2839844D01*
X-1504708Y-2722571D01*
X-1485800Y-2702248D01*
X-1399841Y-2623069D01*
X-1315811Y-2571374D01*
X-1221049Y-2542170D01*
X-1102891Y-2530467D01*
X-1047750Y-2529569D01*
X-951661Y-2530912D01*
G36*
X635839Y-2530912D02*
G01*
X703091Y-2536921D01*
X754959Y-2550288D01*
X804893Y-2573707D01*
X829015Y-2587476D01*
X956403Y-2684397D01*
X1051811Y-2802844D01*
X1114159Y-2936568D01*
X1142370Y-3079317D01*
X1135363Y-3224842D01*
X1092060Y-3366890D01*
X1011382Y-3499213D01*
X990666Y-3523961D01*
X898819Y-3613292D01*
X802590Y-3672072D01*
X689858Y-3705815D01*
X560917Y-3719500D01*
X467300Y-3721825D01*
X399619Y-3716528D01*
X341792Y-3701113D01*
X285307Y-3676732D01*
X147104Y-3589464D01*
X42434Y-3476921D01*
X-27174Y-3341539D01*
X-60193Y-3185754D01*
X-62828Y-3122084D01*
X-47658Y-2969944D01*
X-322Y-2839844D01*
X82792Y-2722571D01*
X101700Y-2702248D01*
X187659Y-2623069D01*
X271689Y-2571374D01*
X366451Y-2542170D01*
X484609Y-2530467D01*
X539750Y-2529569D01*
X635839Y-2530912D01*
G37*
X635839Y-2530912D02*
X703091Y-2536921D01*
X754959Y-2550288D01*
X804893Y-2573707D01*
X829015Y-2587476D01*
X956403Y-2684397D01*
X1051811Y-2802844D01*
X1114159Y-2936568D01*
X1142370Y-3079317D01*
X1135363Y-3224842D01*
X1092060Y-3366890D01*
X1011382Y-3499213D01*
X990666Y-3523961D01*
X898819Y-3613292D01*
X802590Y-3672072D01*
X689858Y-3705815D01*
X560917Y-3719500D01*
X467300Y-3721825D01*
X399619Y-3716528D01*
X341792Y-3701113D01*
X285307Y-3676732D01*
X147104Y-3589464D01*
X42434Y-3476921D01*
X-27174Y-3341539D01*
X-60193Y-3185754D01*
X-62828Y-3122084D01*
X-47658Y-2969944D01*
X-322Y-2839844D01*
X82792Y-2722571D01*
X101700Y-2702248D01*
X187659Y-2623069D01*
X271689Y-2571374D01*
X366451Y-2542170D01*
X484609Y-2530467D01*
X539750Y-2529569D01*
X635839Y-2530912D01*
G36*
X2223339Y-2530912D02*
G01*
X2290591Y-2536921D01*
X2342459Y-2550288D01*
X2392393Y-2573707D01*
X2416515Y-2587476D01*
X2543903Y-2684397D01*
X2639311Y-2802844D01*
X2701659Y-2936568D01*
X2729870Y-3079317D01*
X2722863Y-3224842D01*
X2679560Y-3366890D01*
X2598882Y-3499213D01*
X2578166Y-3523961D01*
X2486319Y-3613292D01*
X2390090Y-3672072D01*
X2277358Y-3705815D01*
X2148417Y-3719500D01*
X2054800Y-3721825D01*
X1987119Y-3716528D01*
X1929292Y-3701113D01*
X1872807Y-3676732D01*
X1734604Y-3589464D01*
X1629934Y-3476921D01*
X1560326Y-3341539D01*
X1527307Y-3185754D01*
X1524672Y-3122084D01*
X1539842Y-2969944D01*
X1587178Y-2839844D01*
X1670292Y-2722571D01*
X1689200Y-2702248D01*
X1775159Y-2623069D01*
X1859189Y-2571374D01*
X1953951Y-2542170D01*
X2072109Y-2530467D01*
X2127250Y-2529569D01*
X2223339Y-2530912D01*
G37*
X2223339Y-2530912D02*
X2290591Y-2536921D01*
X2342459Y-2550288D01*
X2392393Y-2573707D01*
X2416515Y-2587476D01*
X2543903Y-2684397D01*
X2639311Y-2802844D01*
X2701659Y-2936568D01*
X2729870Y-3079317D01*
X2722863Y-3224842D01*
X2679560Y-3366890D01*
X2598882Y-3499213D01*
X2578166Y-3523961D01*
X2486319Y-3613292D01*
X2390090Y-3672072D01*
X2277358Y-3705815D01*
X2148417Y-3719500D01*
X2054800Y-3721825D01*
X1987119Y-3716528D01*
X1929292Y-3701113D01*
X1872807Y-3676732D01*
X1734604Y-3589464D01*
X1629934Y-3476921D01*
X1560326Y-3341539D01*
X1527307Y-3185754D01*
X1524672Y-3122084D01*
X1539842Y-2969944D01*
X1587178Y-2839844D01*
X1670292Y-2722571D01*
X1689200Y-2702248D01*
X1775159Y-2623069D01*
X1859189Y-2571374D01*
X1953951Y-2542170D01*
X2072109Y-2530467D01*
X2127250Y-2529569D01*
X2223339Y-2530912D01*
G36*
X-860303Y3681329D02*
G01*
X-649320Y3654993D01*
X-548450Y3633120D01*
X-299464Y3550063D01*
X-74506Y3434741D01*
X123396Y3288921D01*
X243037Y3170951D01*
X376216Y2999042D01*
X471212Y2819443D01*
X530520Y2625484D01*
X556638Y2410495D01*
X558399Y2328333D01*
X544712Y2111199D01*
X502410Y1922149D01*
X428680Y1755705D01*
X320711Y1606391D01*
X175688Y1468728D01*
X79888Y1396540D01*
X-62473Y1296550D01*
X64597Y1218118D01*
X267290Y1070365D01*
X434538Y899928D01*
X565617Y708339D01*
X659806Y497128D01*
X716380Y267829D01*
X734619Y21973D01*
X722280Y-176002D01*
X672176Y-435922D01*
X586425Y-673543D01*
X466102Y-887620D01*
X312285Y-1076911D01*
X126050Y-1240170D01*
X-91524Y-1376155D01*
X-339361Y-1483622D01*
X-437992Y-1515751D01*
X-514148Y-1537165D01*
X-583830Y-1552686D01*
X-656941Y-1563448D01*
X-743388Y-1570584D01*
X-853074Y-1575229D01*
X-984250Y-1578301D01*
X-1112058Y-1579499D01*
X-1232958Y-1578436D01*
X-1337217Y-1575357D01*
X-1415103Y-1570508D01*
X-1446535Y-1566605D01*
X-1652445Y-1516444D01*
X-1863482Y-1441728D01*
X-2021416Y-1369211D01*
X-2180826Y-1269788D01*
X-2336527Y-1141210D01*
X-2478483Y-993625D01*
X-2596654Y-837181D01*
X-2663867Y-719667D01*
X-2707891Y-622161D01*
X-2748165Y-520989D01*
X-2777744Y-433956D01*
X-2783625Y-412750D01*
X-2820421Y-204475D01*
X-2831270Y19028D01*
X-2825939Y101004D01*
X-1817812Y101004D01*
X-1816712Y20098D01*
X-1811168Y-82001D01*
X-1801928Y-156591D01*
X-1785530Y-218496D01*
X-1758509Y-282541D01*
X-1734992Y-329652D01*
X-1637487Y-477516D01*
X-1514527Y-592229D01*
X-1367543Y-672483D01*
X-1353184Y-677971D01*
X-1239426Y-705548D01*
X-1102347Y-716946D01*
X-957536Y-712658D01*
X-820585Y-693174D01*
X-707085Y-658988D01*
X-703570Y-657462D01*
X-596071Y-592650D01*
X-486181Y-493749D01*
X-476390Y-483315D01*
X-379325Y-357362D01*
X-315877Y-222077D01*
X-283511Y-69605D01*
X-279696Y107911D01*
X-280590Y124132D01*
X-309413Y321697D01*
X-370045Y493090D01*
X-461754Y637083D01*
X-583809Y752447D01*
X-694211Y819142D01*
X-752183Y845776D01*
X-803746Y863010D01*
X-860893Y872854D01*
X-935615Y877318D01*
X-1039905Y878414D01*
X-1047750Y878416D01*
X-1155222Y877377D01*
X-1232325Y872978D01*
X-1290999Y863301D01*
X-1343181Y846428D01*
X-1397000Y822281D01*
X-1547003Y729548D01*
X-1663738Y611719D01*
X-1747552Y468128D01*
X-1798795Y298112D01*
X-1817812Y101004D01*
X-2825939Y101004D01*
X-2816680Y243372D01*
X-2777157Y454170D01*
X-2749886Y545133D01*
X-2669405Y718166D01*
X-2550029Y885839D01*
X-2395173Y1044171D01*
X-2208255Y1189179D01*
X-2182624Y1206289D01*
X-2035827Y1302640D01*
X-2152609Y1376278D01*
X-2253431Y1450819D01*
X-2356136Y1545412D01*
X-2450201Y1648829D01*
X-2525105Y1749838D01*
X-2559173Y1810237D01*
X-2624033Y1994449D01*
X-2652017Y2164788D01*
X-1771220Y2164788D01*
X-1744368Y2032267D01*
X-1690260Y1916190D01*
X-1603391Y1806869D01*
X-1493259Y1713529D01*
X-1369364Y1645397D01*
X-1331759Y1631521D01*
X-1189538Y1600240D01*
X-1033614Y1591152D01*
X-879059Y1603698D01*
X-740950Y1637316D01*
X-696655Y1655158D01*
X-584047Y1722446D01*
X-479899Y1812507D01*
X-397424Y1912937D01*
X-368349Y1963357D01*
X-342072Y2044725D01*
X-325656Y2150507D01*
X-320157Y2263711D01*
X-326632Y2367345D01*
X-339502Y2427109D01*
X-404327Y2561339D01*
X-502398Y2680192D01*
X-625256Y2775551D01*
X-764442Y2839301D01*
X-771331Y2841409D01*
X-831549Y2852952D01*
X-918850Y2861788D01*
X-1018004Y2866558D01*
X-1058333Y2867023D01*
X-1160374Y2865364D01*
X-1235187Y2858657D01*
X-1297815Y2844156D01*
X-1363301Y2819111D01*
X-1392777Y2805932D01*
X-1538033Y2718515D01*
X-1650440Y2606435D01*
X-1728063Y2473949D01*
X-1768968Y2325314D01*
X-1771220Y2164788D01*
X-2652017Y2164788D01*
X-2657214Y2196418D01*
X-2659365Y2406570D01*
X-2631138Y2615333D01*
X-2573183Y2813133D01*
X-2486150Y2990399D01*
X-2478118Y3003144D01*
X-2420671Y3080400D01*
X-2341989Y3170343D01*
X-2253872Y3260785D01*
X-2168117Y3339539D01*
X-2104311Y3389270D01*
X-2026569Y3436717D01*
X-1926600Y3490532D01*
X-1821714Y3541955D01*
X-1729223Y3582224D01*
X-1705035Y3591336D01*
X-1519282Y3642212D01*
X-1308059Y3674477D01*
X-1084140Y3687670D01*
X-860303Y3681329D01*
G37*
X-860303Y3681329D02*
X-649320Y3654993D01*
X-548450Y3633120D01*
X-299464Y3550063D01*
X-74506Y3434741D01*
X123396Y3288921D01*
X243037Y3170951D01*
X376216Y2999042D01*
X471212Y2819443D01*
X530520Y2625484D01*
X556638Y2410495D01*
X558399Y2328333D01*
X544712Y2111199D01*
X502410Y1922149D01*
X428680Y1755705D01*
X320711Y1606391D01*
X175688Y1468728D01*
X79888Y1396540D01*
X-62473Y1296550D01*
X64597Y1218118D01*
X267290Y1070365D01*
X434538Y899928D01*
X565617Y708339D01*
X659806Y497128D01*
X716380Y267829D01*
X734619Y21973D01*
X722280Y-176002D01*
X672176Y-435922D01*
X586425Y-673543D01*
X466102Y-887620D01*
X312285Y-1076911D01*
X126050Y-1240170D01*
X-91524Y-1376155D01*
X-339361Y-1483622D01*
X-437992Y-1515751D01*
X-514148Y-1537165D01*
X-583830Y-1552686D01*
X-656941Y-1563448D01*
X-743388Y-1570584D01*
X-853074Y-1575229D01*
X-984250Y-1578301D01*
X-1112058Y-1579499D01*
X-1232958Y-1578436D01*
X-1337217Y-1575357D01*
X-1415103Y-1570508D01*
X-1446535Y-1566605D01*
X-1652445Y-1516444D01*
X-1863482Y-1441728D01*
X-2021416Y-1369211D01*
X-2180826Y-1269788D01*
X-2336527Y-1141210D01*
X-2478483Y-993625D01*
X-2596654Y-837181D01*
X-2663867Y-719667D01*
X-2707891Y-622161D01*
X-2748165Y-520989D01*
X-2777744Y-433956D01*
X-2783625Y-412750D01*
X-2820421Y-204475D01*
X-2831270Y19028D01*
X-2825939Y101004D01*
X-1817812Y101004D01*
X-1816712Y20098D01*
X-1811168Y-82001D01*
X-1801928Y-156591D01*
X-1785530Y-218496D01*
X-1758509Y-282541D01*
X-1734992Y-329652D01*
X-1637487Y-477516D01*
X-1514527Y-592229D01*
X-1367543Y-672483D01*
X-1353184Y-677971D01*
X-1239426Y-705548D01*
X-1102347Y-716946D01*
X-957536Y-712658D01*
X-820585Y-693174D01*
X-707085Y-658988D01*
X-703570Y-657462D01*
X-596071Y-592650D01*
X-486181Y-493749D01*
X-476390Y-483315D01*
X-379325Y-357362D01*
X-315877Y-222077D01*
X-283511Y-69605D01*
X-279696Y107911D01*
X-280590Y124132D01*
X-309413Y321697D01*
X-370045Y493090D01*
X-461754Y637083D01*
X-583809Y752447D01*
X-694211Y819142D01*
X-752183Y845776D01*
X-803746Y863010D01*
X-860893Y872854D01*
X-935615Y877318D01*
X-1039905Y878414D01*
X-1047750Y878416D01*
X-1155222Y877377D01*
X-1232325Y872978D01*
X-1290999Y863301D01*
X-1343181Y846428D01*
X-1397000Y822281D01*
X-1547003Y729548D01*
X-1663738Y611719D01*
X-1747552Y468128D01*
X-1798795Y298112D01*
X-1817812Y101004D01*
X-2825939Y101004D01*
X-2816680Y243372D01*
X-2777157Y454170D01*
X-2749886Y545133D01*
X-2669405Y718166D01*
X-2550029Y885839D01*
X-2395173Y1044171D01*
X-2208255Y1189179D01*
X-2182624Y1206289D01*
X-2035827Y1302640D01*
X-2152609Y1376278D01*
X-2253431Y1450819D01*
X-2356136Y1545412D01*
X-2450201Y1648829D01*
X-2525105Y1749838D01*
X-2559173Y1810237D01*
X-2624033Y1994449D01*
X-2652017Y2164788D01*
X-1771220Y2164788D01*
X-1744368Y2032267D01*
X-1690260Y1916190D01*
X-1603391Y1806869D01*
X-1493259Y1713529D01*
X-1369364Y1645397D01*
X-1331759Y1631521D01*
X-1189538Y1600240D01*
X-1033614Y1591152D01*
X-879059Y1603698D01*
X-740950Y1637316D01*
X-696655Y1655158D01*
X-584047Y1722446D01*
X-479899Y1812507D01*
X-397424Y1912937D01*
X-368349Y1963357D01*
X-342072Y2044725D01*
X-325656Y2150507D01*
X-320157Y2263711D01*
X-326632Y2367345D01*
X-339502Y2427109D01*
X-404327Y2561339D01*
X-502398Y2680192D01*
X-625256Y2775551D01*
X-764442Y2839301D01*
X-771331Y2841409D01*
X-831549Y2852952D01*
X-918850Y2861788D01*
X-1018004Y2866558D01*
X-1058333Y2867023D01*
X-1160374Y2865364D01*
X-1235187Y2858657D01*
X-1297815Y2844156D01*
X-1363301Y2819111D01*
X-1392777Y2805932D01*
X-1538033Y2718515D01*
X-1650440Y2606435D01*
X-1728063Y2473949D01*
X-1768968Y2325314D01*
X-1771220Y2164788D01*
X-2652017Y2164788D01*
X-2657214Y2196418D01*
X-2659365Y2406570D01*
X-2631138Y2615333D01*
X-2573183Y2813133D01*
X-2486150Y2990399D01*
X-2478118Y3003144D01*
X-2420671Y3080400D01*
X-2341989Y3170343D01*
X-2253872Y3260785D01*
X-2168117Y3339539D01*
X-2104311Y3389270D01*
X-2026569Y3436717D01*
X-1926600Y3490532D01*
X-1821714Y3541955D01*
X-1729223Y3582224D01*
X-1705035Y3591336D01*
X-1519282Y3642212D01*
X-1308059Y3674477D01*
X-1084140Y3687670D01*
X-860303Y3681329D01*
M02*
