<?xml version="1.0" encoding="UTF-8" standalone="no"?>
<svg
   xmlns:dc="http://purl.org/dc/elements/1.1/"
   xmlns:cc="http://creativecommons.org/ns#"
   xmlns:rdf="http://www.w3.org/1999/02/22-rdf-syntax-ns#"
   xmlns:svg="http://www.w3.org/2000/svg"
   xmlns="http://www.w3.org/2000/svg"
   xmlns:sodipodi="http://sodipodi.sourceforge.net/DTD/sodipodi-0.dtd"
   xmlns:inkscape="http://www.inkscape.org/namespaces/inkscape"
   width="70.0mm"
   height="70.0mm"
   viewBox="0 0 70.0 70.0"
   version="1.1"
   id="svg8"
   sodipodi:docname="largest_army_card.svg"
   inkscape:version="1.0.2 (394de47547, 2021-03-26)">
  <defs
     id="defs2">
    <filter
       inkscape:collect="always"
       style="color-interpolation-filters:sRGB"
       id="filter918"
       x="-0.00040087182"
       width="1.0008017"
       y="-0.00040081281"
       height="1.0008016">
      <feGaussianBlur
         inkscape:collect="always"
         stdDeviation="0.0081436193"
         id="feGaussianBlur920" />
    </filter>
  </defs>
  <sodipodi:namedview
     id="base"
     pagecolor="#ffffff"
     bordercolor="#666666"
     borderopacity="1.0"
     inkscape:pageopacity="0.0"
     inkscape:pageshadow="2"
     inkscape:zoom="3.5605357"
     inkscape:cx="132.28346"
     inkscape:cy="132.28346"
     inkscape:document-units="mm"
     inkscape:current-layer="g844"
     inkscape:document-rotation="0"
     showgrid="false"
     inkscape:window-width="2056"
     inkscape:window-height="1133"
     inkscape:window-x="72"
     inkscape:window-y="27"
     inkscape:window-maximized="1" />
  <metadata
     id="metadata5">
    <rdf:RDF>
      <cc:Work
         rdf:about="">
        <dc:format>image/svg+xml</dc:format>
        <dc:type
           rdf:resource="http://purl.org/dc/dcmitype/StillImage" />
        <dc:title />
      </cc:Work>
    </rdf:RDF>
  </metadata>
  <g
     inkscape:label="[fixed] BG"
     inkscape:groupmode="layer"
     sodipodi:insensitive="true"
     id="g840"
     style="display:none">
    <rect
       x="0"
       y="0"
       width="70"
       height="70"
       style="fill:#ffffff;fill-opacity:1;stroke:none"
       id="rect838" />
  </g>
  <g
     inkscape:label="Edge.Cuts"
     inkscape:groupmode="layer"
     id="g842"
     style="display:inline">
    <path
       id="rect866"
       style="fill:none;stroke:#000000;stroke-width:0.0798742;stroke-miterlimit:4;stroke-dasharray:none;stroke-opacity:1"
       d="M 11.6374 10.0399 L 59.1626 10.0399 L 59.3264 10.0481 L 59.4854 10.0723 L 59.6386 10.1115 L 59.7855 10.1651 L 59.9252 10.2322 L 60.0569 10.312 L 60.1799 10.4038 L 60.2932 10.5068 L 60.3962 10.6201 L 60.4879 10.743 L 60.5678 10.8747 L 60.6349 11.0144 L 60.6885 11.1613 L 60.7277 11.3147 L 60.7518 11.4736 L 60.76 11.6374 L 60.76 59.1626 L 60.7518 59.3264 L 60.7277 59.4854 L 60.6885 59.6386 L 60.6349 59.7855 L 60.5678 59.9252 L 60.4879 60.0569 L 60.3962 60.1799 L 60.2932 60.2932 L 60.1799 60.3962 L 60.0569 60.4879 L 59.9252 60.5678 L 59.7855 60.6349 L 59.6386 60.6885 L 59.4854 60.7277 L 59.3264 60.7518 L 59.1626 60.76 L 11.6374 60.76 L 11.4736 60.7518 L 11.3147 60.7277 L 11.1614 60.6885 L 11.0145 60.6349 L 10.8748 60.5678 L 10.743 60.4879 L 10.6201 60.3962 L 10.5068 60.2932 L 10.4038 60.1799 L 10.312 60.0569 L 10.2322 59.9252 L 10.1651 59.7855 L 10.1115 59.6386 L 10.0723 59.4854 L 10.0482 59.3264 L 10.04 59.1626 L 10.04 11.6374 L 10.0482 11.4736 L 10.0723 11.3147 L 10.1115 11.1614 L 10.1651 11.0145 L 10.2322 10.8748 L 10.312 10.743 L 10.4038 10.6201 L 10.5068 10.5068 L 10.6201 10.4038 L 10.743 10.312 L 10.8748 10.2322 L 11.0145 10.1651 L 11.1614 10.1115 L 11.3147 10.0723 L 11.4736 10.0482 L 11.6374 10.04 L 11.6374 10.04" />
  </g>
  <g
     inkscape:label="B.Cu"
     inkscape:groupmode="layer"
     id="g844"
     style="display:none">
    <path
       id="path922"
       style="display:inline;fill:#000000;fill-opacity:1;stroke:none;stroke-width:0.0798742;stroke-miterlimit:4;stroke-dasharray:none;stroke-opacity:1;filter:url(#filter918)"
       d="m 11.587891,11.042969 c -0.853191,0.149692 -0.463267,1.225989 -0.548829,1.821093 0.01172,15.476543 -0.02344,30.95637 0.01758,46.43086 0.263859,0.786509 1.280104,0.354317 1.88789,0.464844 15.44974,-0.01043 30.9026,0.02085 46.350391,-0.01563 0.759678,-0.232917 0.370488,-1.213407 0.464844,-1.787891 -0.0065,-15.478096 0.01303,-30.957463 -0.0098,-46.434766 -0.251917,-0.806954 -1.297756,-0.37302 -1.913281,-0.482422 -15.416243,0.0026 -30.832753,-0.0052 -46.248828,0.0039 z" />
  </g>
  <g
     inkscape:label="B.Mask-disabled"
     inkscape:groupmode="layer"
     id="g846" />
  <g
     inkscape:label="B.SilkS"
     inkscape:groupmode="layer"
     id="g848"
     style="display:inline">
    <g
       id="g861"
       transform="matrix(-0.79999999,0,0,0.79999999,63.400005,6.6252042)"
       style="display:inline">
      <path
         style="display:inline;fill:#000000;fill-opacity:1;stroke:none;stroke-width:0.282222"
         d="m 18.667373,63.080932 c 0,-0.01496 0.469364,-1.297263 1.039989,-2.849401 0.977308,-2.658336 1.113508,-2.898733 2.347835,-4.144123 1.17904,-1.189623 1.337056,-1.286199 1.577002,-0.963958 0.230942,0.31019 0.113622,0.513616 -0.876216,1.519287 -0.93963,0.954645 -1.24079,1.452344 -1.693531,2.798911 -0.302852,0.900797 -0.508931,1.679504 -0.457962,1.730502 0.051,0.05097 0.794428,-0.145966 1.652073,-0.437671 1.276717,-0.434255 1.778734,-0.747437 2.76939,-1.727764 1.146867,-1.1349 1.228965,-1.178391 1.573728,-0.833628 0.344762,0.344763 0.298167,0.428357 -0.893459,1.601978 -1.17523,1.157506 -1.445712,1.30652 -4.14926,2.285718 -1.590633,0.576128 -2.890943,1.035191 -2.889589,1.020149 z m 29.54926,-1.105775 c -2.305586,-0.859649 -2.636887,-1.052548 -3.828655,-2.229076 -1.174044,-1.159059 -1.268786,-1.314676 -0.946488,-1.554621 0.31019,-0.230943 0.513221,-0.114018 1.516041,0.872998 0.931616,0.916968 1.462814,1.243358 2.718562,1.670473 0.858379,0.291959 1.632289,0.530832 1.71975,0.530832 0.08746,0 -0.08263,-0.733552 -0.378009,-1.630088 -0.440521,-1.337168 -0.740269,-1.839044 -1.668187,-2.793012 -1.187535,-1.220865 -1.306717,-1.479352 -0.854936,-1.854313 0.212203,-0.176106 0.556373,0.05382 1.484291,0.991503 1.11348,1.125249 1.289191,1.441535 2.245248,4.042072 0.570484,1.551742 1.038352,2.844997 1.039706,2.873925 0.0076,0.162165 -0.787118,-0.07795 -3.047323,-0.920693 z m -16.432728,-2.3876 c -5.473982,-1.435129 -9.30814,-5.982829 -9.845717,-11.677933 -0.478395,-5.068429 2.554986,-10.387161 7.243346,-12.700452 3.132215,-1.545477 6.401647,-1.821688 9.675284,-0.817372 1.763494,0.54102 2.555042,0.951823 4.162891,2.160468 3.381982,2.542286 5.302645,6.792948 5.028692,11.129151 -0.220642,3.492303 -1.382917,6.026545 -3.916737,8.540158 -3.297005,3.27073 -7.912326,4.528848 -12.347759,3.36598 z m 7.224946,-1.050008 c 3.476272,-1.225833 6.420048,-4.170934 7.632954,-7.636398 0.628283,-1.795046 0.780966,-4.837091 0.337482,-6.723521 -1.430049,-6.08282 -7.294119,-10.238458 -13.366074,-9.472027 -10.459437,1.320208 -14.614144,14.051167 -6.915009,21.189132 1.481582,1.373604 3.326526,2.412182 5.232711,2.945666 1.661724,0.465046 5.347519,0.30734 7.077936,-0.302852 z m -4.21846,-0.356673 c -0.242006,-0.242005 -0.153162,-0.490784 0.175288,-0.490784 0.17351,0 0.315496,0.141986 0.315496,0.315496 0,0.32845 -0.248751,0.417294 -0.490784,0.175288 z m -2.874547,-0.59594 c 0,-0.192814 0.10177,-0.316654 0.226117,-0.275195 0.124347,0.04146 0.226116,0.165298 0.226116,0.275195 0,0.109897 -0.101769,0.233736 -0.226116,0.275167 -0.124347,0.04146 -0.226117,-0.08235 -0.226117,-0.275167 z m 5.678989,0.0175 c 0,-0.183163 0.14986,-0.333023 0.333022,-0.333023 0.183162,0 0.295572,0.112381 0.249767,0.249767 -0.129992,0.390003 -0.582789,0.454688 -0.582789,0.08326 z m -8.278792,-0.89964 c -0.236869,-0.236869 -0.144272,-0.485056 0.180989,-0.485056 0.173511,0 0.315497,0.08907 0.315497,0.197923 0,0.265232 -0.328451,0.455196 -0.496486,0.287133 z m 10.948727,0.01157 c -0.168035,-0.168035 0.02201,-0.496485 0.287133,-0.496485 0.108853,0 0.197922,0.141957 0.197922,0.315496 0,0.325261 -0.248186,0.417858 -0.485055,0.180989 z m -13.35659,-1.984587 c 0.04146,-0.124375 0.165297,-0.226116 0.275195,-0.226116 0.109897,0 0.233736,0.101741 0.275166,0.226116 0.04146,0.124347 -0.08235,0.226117 -0.275166,0.226117 -0.192815,0 -0.316654,-0.10177 -0.275195,-0.226117 z m 15.572514,-0.02371 c 0.129992,-0.390003 0.582789,-0.454689 0.582789,-0.08326 0,0.183162 -0.14986,0.333022 -0.333022,0.333022 -0.183162,0 -0.295571,-0.112409 -0.249767,-0.249766 z M 25.290367,52.64218 c -0.08396,-0.135833 -0.058,-0.34163 0.05769,-0.457313 0.140236,-0.140236 0.261225,-0.128016 0.362994,0.03666 0.08396,0.135834 0.058,0.34163 -0.05769,0.457313 -0.140236,0.140209 -0.261224,0.127989 -0.362994,-0.03666 z m 19.140255,0 c -0.08393,-0.135833 -0.058,-0.34163 0.05771,-0.457313 0.140208,-0.140236 0.261196,-0.128016 0.362966,0.03666 0.08396,0.135834 0.058,0.34163 -0.05769,0.457313 -0.140236,0.140208 -0.261224,0.127988 -0.362994,-0.03666 z M 24.037357,49.922377 c -0.155561,-0.251658 0.240115,-0.501058 0.520277,-0.327886 0.235232,0.145372 0.0808,0.523691 -0.213756,0.523691 -0.102023,0 -0.239973,-0.08811 -0.306521,-0.195805 z m 21.339782,-0.102165 c 0,-0.183162 0.14986,-0.333022 0.333022,-0.333022 0.183163,0 0.295572,0.112409 0.249767,0.249767 -0.129992,0.390002 -0.582789,0.454688 -0.582789,0.08326 z M 33.428104,49.271459 c -1.492419,-0.909913 -1.692797,-3.067219 -0.404509,-4.355507 1.877737,-1.877709 4.778699,-0.588518 4.780788,2.124569 0,0.909348 -0.09054,1.115144 -0.815792,1.840427 -0.725283,0.725255 -0.931079,0.816497 -1.840427,0.815792 -0.655518,0 -1.274262,-0.153501 -1.72006,-0.425281 z M 23.712886,46.84051 c 0,-0.183162 0.112381,-0.295572 0.249767,-0.249767 0.390003,0.129992 0.454688,0.582789 0.08326,0.582789 -0.183162,0 -0.333022,-0.14986 -0.333022,-0.333022 z m 22.084905,0 c 0,-0.183162 0.112409,-0.295572 0.249767,-0.249767 0.390003,0.129992 0.454688,0.582789 0.08326,0.582789 -0.183163,0 -0.333023,-0.14986 -0.333023,-0.333022 z M 24.037357,44.243416 c -0.155561,-0.251686 0.240115,-0.501057 0.520277,-0.327914 0.235232,0.145373 0.0808,0.52372 -0.213756,0.52372 -0.102023,0 -0.239973,-0.08811 -0.306521,-0.195806 z m 21.474289,0.04987 c -0.236897,-0.236898 -0.144272,-0.485084 0.180989,-0.485084 0.173511,0 0.315497,0.08907 0.315497,0.197923 0,0.265232 -0.328451,0.455196 -0.496486,0.287161 z M 25.185211,41.406913 c 0,-0.183162 0.14986,-0.333022 0.333022,-0.333022 0.183163,0 0.295572,0.112381 0.249767,0.249767 -0.129991,0.390003 -0.582789,0.454688 -0.582789,0.08325 z m 19.140255,-0.0175 c 0,-0.192815 0.101741,-0.316626 0.226117,-0.275195 0.124347,0.04146 0.226088,0.165297 0.226088,0.275195 0,0.109897 -0.101741,0.233736 -0.226088,0.275195 -0.124376,0.04146 -0.226117,-0.08238 -0.226117,-0.275195 z m -17.45759,-2.313658 c 0,-0.17351 0.141958,-0.315496 0.315497,-0.315496 0.17351,0 0.315496,0.141986 0.315496,0.315496 0,0.173538 -0.141986,0.315496 -0.315496,0.315496 -0.173539,0 -0.315497,-0.141958 -0.315497,-0.315496 z m 15.71055,0.180989 c -0.168035,-0.168035 0.02201,-0.496485 0.287133,-0.496485 0.108853,0 0.197922,0.141986 0.197922,0.315496 0,0.325261 -0.248186,0.417858 -0.485055,0.180989 z M 29.316041,37.562652 c -0.236869,-0.236869 -0.144272,-0.485055 0.180989,-0.485055 0.173511,0 0.315497,0.08907 0.315497,0.197922 0,0.265232 -0.328451,0.455168 -0.496486,0.287133 z m 10.916921,-0.04987 c -0.155533,-0.251686 0.240114,-0.501057 0.520276,-0.327914 0.235233,0.145373 0.08083,0.52372 -0.213755,0.52372 -0.102023,0 -0.239945,-0.08811 -0.306521,-0.195806 z m -8.211933,-1.066178 c -0.08396,-0.135862 -0.058,-0.341658 0.05769,-0.457341 0.140208,-0.140208 0.261196,-0.127988 0.362966,0.03666 0.08396,0.135834 0.058,0.34163 -0.05769,0.457313 -0.140208,0.140236 -0.261225,0.128016 -0.362966,-0.03663 z m 5.67896,0 c -0.08393,-0.135862 -0.058,-0.341658 0.05769,-0.457341 0.140236,-0.140208 0.261225,-0.127988 0.362994,0.03666 0.08396,0.135834 0.058,0.34163 -0.05769,0.457313 -0.140236,0.140236 -0.261225,0.128016 -0.362994,-0.03663 z m -2.909598,-0.350576 c -0.242006,-0.242006 -0.153162,-0.490757 0.175288,-0.490757 0.17351,0 0.315496,0.141958 0.315496,0.315497 0,0.32845 -0.248751,0.417293 -0.490784,0.17526 z M 23.818042,57.900517 c 0.569722,-0.578415 1.083169,-1.051673 1.141025,-1.051673 0.05783,0 -0.360963,0.473258 -0.930685,1.051673 -0.569722,0.578414 -1.083169,1.051673 -1.141024,1.051673 -0.05783,0 0.360962,-0.473259 0.930684,-1.051673 z m 22.287343,-0.05258 -1.043742,-1.104251 1.104251,1.043742 c 1.026075,0.969885 1.200686,1.16476 1.043742,1.16476 -0.03327,0 -0.530182,-0.496937 -1.104251,-1.104251 z M 18.755653,38.94729 c -0.07942,-0.128496 0.09189,-0.436118 0.380689,-0.683598 0.853751,-0.731577 2.290826,-2.971828 2.146949,-3.346817 -0.129907,-0.338554 0.298789,-0.663843 3.270928,-2.481947 0.636242,-0.389185 1.456887,-1.028474 1.823607,-1.420594 0.649647,-0.694605 1.121043,-0.746703 1.121043,-0.123924 0,0.169559 -0.212965,0.391414 -0.473259,0.493043 -0.260265,0.1016 -0.800184,0.525977 -1.199783,0.943017 l -0.726524,0.758303 1.042021,1.063018 c 1.002396,1.022576 1.026385,1.074618 0.630794,1.367593 -0.378375,0.280218 -0.49149,0.225495 -1.41557,-0.6847 l -1.004344,-0.989245 -0.534444,0.502101 -0.534444,0.502074 0.995623,1.010835 c 0.547596,0.55595 0.908107,1.010807 0.801144,1.010807 -0.106934,0 -0.598621,-0.396663 -1.092623,-0.881493 l -0.898144,-0.881464 -0.533993,0.50165 -0.533992,0.50165 0.958709,0.973356 c 0.663758,0.67389 0.917052,1.081955 0.82327,1.326331 -0.07448,0.194141 -0.19304,0.352976 -0.263454,0.352976 -0.07041,0 -0.58008,-0.445262 -1.132586,-0.989472 l -1.004542,-0.989442 -0.758303,0.726524 c -0.417068,0.399599 -0.841418,0.939518 -0.943046,1.199783 -0.195721,0.501396 -0.704285,0.630259 -0.945726,0.239635 z m 31.564298,0.02342 c -0.07149,-0.115683 -0.05738,-0.210341 0.03138,-0.210341 0.08876,0 -0.256991,-0.426268 -0.768322,-0.947278 l -0.929665,-0.947274 -1.007307,0.992152 c -0.95092,0.936611 -1.027459,0.971973 -1.36748,0.63198 -0.339993,-0.340021 -0.304433,-0.416786 0.635649,-1.371204 l 0.995821,-1.011005 -0.533992,-0.50165 -0.533993,-0.501678 -0.898172,0.881492 c -0.493974,0.484802 -0.985662,0.881465 -1.092624,0.881465 -0.106962,0 0.253577,-0.454857 0.801144,-1.010807 l 0.995624,-1.010835 -0.534444,-0.502074 -0.534444,-0.502073 -0.994918,0.974429 c -0.859339,0.841643 -1.043856,0.93805 -1.354074,0.707474 -0.325036,-0.241554 -0.260096,-0.364574 0.68309,-1.293565 l 1.042275,-1.026612 -0.788247,-0.81692 C 43.733703,31.937088 43.166013,31.486069 42.905719,31.38413 42.35739,31.169415 42.30721,30.923205 42.738756,30.565036 c 0.342082,-0.283887 0.745378,-0.127282 0.745378,0.289419 0,0.237998 2.736059,2.226931 3.063465,2.226931 0.06813,0 0.632545,0.364293 1.254309,0.809498 0.688679,0.493155 1.054749,0.885162 0.93678,1.003131 -0.243812,0.243812 1.838537,3.445707 2.240929,3.445707 0.157763,0 0.286823,0.189287 0.286823,0.420652 0,0.446137 -0.70406,0.602601 -0.946489,0.210341 z M 20.170884,33.872258 c -0.384387,-0.384415 -0.310698,-0.493889 0.821775,-1.220583 0.957072,-0.614144 1.098606,-0.651059 1.387856,-0.361781 0.289278,0.289249 0.228854,0.38529 -0.592497,0.941663 -1.326445,0.898539 -1.349954,0.907852 -1.617134,0.640701 z m 28.179241,-0.495385 c -0.906809,-0.610701 -1.061918,-0.799987 -0.857448,-1.046367 0.352721,-0.424999 0.50515,-0.388479 1.679335,0.402251 0.991249,0.667569 1.024806,0.720372 0.664577,1.046339 -0.354245,0.320604 -0.4526,0.293991 -1.486464,-0.402223 z M 18.998053,32.469895 c -0.331188,-0.365957 -0.293652,-0.421668 0.724521,-1.075041 0.990826,-0.63579 1.100244,-0.662686 1.415316,-0.347613 0.187791,0.187819 0.299777,0.375694 0.248808,0.417548 -0.05094,0.04185 -0.530663,0.371969 -1.06601,0.73358 -0.938361,0.633871 -0.985887,0.643608 -1.322635,0.271526 z m 30.743484,-0.257217 c -1.081928,-0.707588 -1.157563,-0.841248 -0.6939,-1.226058 0.245985,-0.20416 0.491095,-0.125391 1.263452,0.406005 0.825275,0.567803 0.927862,0.716139 0.739084,1.06886 -0.120565,0.22527 -0.239522,0.40846 -0.264386,0.407106 -0.02483,0 -0.494764,-0.296531 -1.04425,-0.655913 z M 17.631844,31.105661 c -0.196145,-0.236333 -0.04343,-0.415995 0.788895,-0.928116 0.94711,-0.582789 1.059858,-0.607286 1.369427,-0.297716 0.30957,0.30957 0.26416,0.385911 -0.551716,0.927213 -1.006348,0.667709 -1.260997,0.715038 -1.606606,0.298619 z M 50.79321,30.831793 c -0.85646,-0.588151 -0.928709,-0.737729 -0.520108,-1.076847 0.197217,-0.163689 0.537323,-0.05577 1.278777,0.405722 0.833741,0.518951 0.965962,0.681906 0.757231,0.933394 -0.343606,0.414048 -0.594191,0.370699 -1.5159,-0.262269 z M 16.603623,29.884316 c -0.378883,-0.378883 -0.331018,-0.44958 0.677814,-1.000675 0.79104,-0.432139 0.980948,-0.466005 1.26952,-0.226512 0.302288,0.250868 0.240905,0.346964 -0.562102,0.879715 -1.030422,0.683655 -1.045323,0.687381 -1.385232,0.347472 z m 35.450189,-0.315439 c -0.6223,-0.427313 -0.739677,-0.603335 -0.552648,-0.82869 0.3267,-0.393643 0.488724,-0.365816 1.467584,0.25211 0.698951,0.441226 0.807268,0.592864 0.601077,0.841332 -0.342364,0.412524 -0.593627,0.368639 -1.516013,-0.264752 z M 14.90013,28.601475 c -0.393418,-0.393418 -0.256822,-1.192925 0.29876,-1.748508 0.64135,-0.64135 1.3578,-0.597436 1.706485,0.104592 0.137019,0.275929 0.360737,0.570653 0.497135,0.654925 0.160895,0.09943 -0.02512,0.3221 -0.529985,0.63404 -0.895943,0.553749 -1.639768,0.687607 -1.972395,0.354951 z m 38.574812,-0.16716 c -0.347049,-0.219202 -0.711511,-0.42593 -0.809922,-0.459373 -0.316766,-0.107668 0.618603,-1.51686 1.049415,-1.580981 0.979989,-0.145852 2.087768,1.525129 1.393219,2.10154 -0.47244,0.392091 -0.943018,0.374452 -1.632712,-0.06119 z"
         id="path853"
         inkscape:connector-curvature="0"
         sodipodi:nodetypes="cssssscssssscssssssssssscssssssssssssssssssssscscsssssscssccsssscscscsssssssssssssssssssssssscscsssssssssssssssssssssscscsssssssssssssssssssssssssssssssssssssscssscssssssscssscccssscccsssscsscssscssscccssscccssscssssssssssssssssssssssscsssssscsssssssssssssssssssssssssssscsss" />
      <text
         xml:space="preserve"
         style="font-style:normal;font-variant:normal;font-weight:bold;font-stretch:normal;font-size:7.76111px;line-height:1.25;font-family:FreeSans;-inkscape-font-specification:'FreeSans Bold';letter-spacing:0px;word-spacing:0px;fill:#000000;fill-opacity:1;stroke:none;stroke-width:0.264583"
         x="9.5874596"
         y="14.513526"
         id="text857"><tspan
           sodipodi:role="line"
           id="tspan855"
           x="9.5874596"
           y="14.513526"
           style="font-style:normal;font-variant:normal;font-weight:bold;font-stretch:normal;font-size:7.76111px;font-family:FreeSans;-inkscape-font-specification:'FreeSans Bold';stroke-width:0.264583">Largest Army</tspan></text>
      <path
         style="fill:none;stroke:#000000;stroke-width:1;stroke-linecap:round;stroke-linejoin:miter;stroke-miterlimit:4;stroke-dasharray:none;stroke-opacity:1"
         d="m 7.0312164,21.891469 55.9375676,-0.0037"
         id="path859" />
    </g>
  </g>
  <g
     inkscape:label="F.Cu"
     inkscape:groupmode="layer"
     id="g850"
     style="display:none">
    <path
       id="path850"
       style="display:inline;fill:#000000;fill-opacity:1;stroke:none;stroke-width:0.0798742;stroke-miterlimit:4;stroke-dasharray:none;stroke-opacity:1;filter:url(#filter918)"
       d="m 11.587891,11.042969 c -0.853191,0.149692 -0.463267,1.225989 -0.548829,1.821093 0.01172,15.476543 -0.02344,30.95637 0.01758,46.43086 0.263859,0.786509 1.280104,0.354317 1.88789,0.464844 15.44974,-0.01043 30.9026,0.02085 46.350391,-0.01563 0.759678,-0.232917 0.370488,-1.213407 0.464844,-1.787891 -0.0065,-15.478096 0.01303,-30.957463 -0.0098,-46.434766 -0.251917,-0.806954 -1.297756,-0.37302 -1.913281,-0.482422 -15.416243,0.0026 -30.832753,-0.0052 -46.248828,0.0039 z" />
  </g>
  <g
     inkscape:label="F.Mask-disabled"
     inkscape:groupmode="layer"
     id="g852" />
  <g
     inkscape:label="F.SilkS"
     inkscape:groupmode="layer"
     id="g854"
     style="display:inline">
    <g
       id="g851"
       transform="matrix(0.8,0,0,0.8,7.4000053,6.6252042)">
      <path
         style="display:inline;fill:#000000;fill-opacity:1;stroke:none;stroke-width:0.282222"
         d="m 18.667373,63.080932 c 0,-0.01496 0.469364,-1.297263 1.039989,-2.849401 0.977308,-2.658336 1.113508,-2.898733 2.347835,-4.144123 1.17904,-1.189623 1.337056,-1.286199 1.577002,-0.963958 0.230942,0.31019 0.113622,0.513616 -0.876216,1.519287 -0.93963,0.954645 -1.24079,1.452344 -1.693531,2.798911 -0.302852,0.900797 -0.508931,1.679504 -0.457962,1.730502 0.051,0.05097 0.794428,-0.145966 1.652073,-0.437671 1.276717,-0.434255 1.778734,-0.747437 2.76939,-1.727764 1.146867,-1.1349 1.228965,-1.178391 1.573728,-0.833628 0.344762,0.344763 0.298167,0.428357 -0.893459,1.601978 -1.17523,1.157506 -1.445712,1.30652 -4.14926,2.285718 -1.590633,0.576128 -2.890943,1.035191 -2.889589,1.020149 z m 29.54926,-1.105775 c -2.305586,-0.859649 -2.636887,-1.052548 -3.828655,-2.229076 -1.174044,-1.159059 -1.268786,-1.314676 -0.946488,-1.554621 0.31019,-0.230943 0.513221,-0.114018 1.516041,0.872998 0.931616,0.916968 1.462814,1.243358 2.718562,1.670473 0.858379,0.291959 1.632289,0.530832 1.71975,0.530832 0.08746,0 -0.08263,-0.733552 -0.378009,-1.630088 -0.440521,-1.337168 -0.740269,-1.839044 -1.668187,-2.793012 -1.187535,-1.220865 -1.306717,-1.479352 -0.854936,-1.854313 0.212203,-0.176106 0.556373,0.05382 1.484291,0.991503 1.11348,1.125249 1.289191,1.441535 2.245248,4.042072 0.570484,1.551742 1.038352,2.844997 1.039706,2.873925 0.0076,0.162165 -0.787118,-0.07795 -3.047323,-0.920693 z m -16.432728,-2.3876 c -5.473982,-1.435129 -9.30814,-5.982829 -9.845717,-11.677933 -0.478395,-5.068429 2.554986,-10.387161 7.243346,-12.700452 3.132215,-1.545477 6.401647,-1.821688 9.675284,-0.817372 1.763494,0.54102 2.555042,0.951823 4.162891,2.160468 3.381982,2.542286 5.302645,6.792948 5.028692,11.129151 -0.220642,3.492303 -1.382917,6.026545 -3.916737,8.540158 -3.297005,3.27073 -7.912326,4.528848 -12.347759,3.36598 z m 7.224946,-1.050008 c 3.476272,-1.225833 6.420048,-4.170934 7.632954,-7.636398 0.628283,-1.795046 0.780966,-4.837091 0.337482,-6.723521 -1.430049,-6.08282 -7.294119,-10.238458 -13.366074,-9.472027 -10.459437,1.320208 -14.614144,14.051167 -6.915009,21.189132 1.481582,1.373604 3.326526,2.412182 5.232711,2.945666 1.661724,0.465046 5.347519,0.30734 7.077936,-0.302852 z m -4.21846,-0.356673 c -0.242006,-0.242005 -0.153162,-0.490784 0.175288,-0.490784 0.17351,0 0.315496,0.141986 0.315496,0.315496 0,0.32845 -0.248751,0.417294 -0.490784,0.175288 z m -2.874547,-0.59594 c 0,-0.192814 0.10177,-0.316654 0.226117,-0.275195 0.124347,0.04146 0.226116,0.165298 0.226116,0.275195 0,0.109897 -0.101769,0.233736 -0.226116,0.275167 -0.124347,0.04146 -0.226117,-0.08235 -0.226117,-0.275167 z m 5.678989,0.0175 c 0,-0.183163 0.14986,-0.333023 0.333022,-0.333023 0.183162,0 0.295572,0.112381 0.249767,0.249767 -0.129992,0.390003 -0.582789,0.454688 -0.582789,0.08326 z m -8.278792,-0.89964 c -0.236869,-0.236869 -0.144272,-0.485056 0.180989,-0.485056 0.173511,0 0.315497,0.08907 0.315497,0.197923 0,0.265232 -0.328451,0.455196 -0.496486,0.287133 z m 10.948727,0.01157 c -0.168035,-0.168035 0.02201,-0.496485 0.287133,-0.496485 0.108853,0 0.197922,0.141957 0.197922,0.315496 0,0.325261 -0.248186,0.417858 -0.485055,0.180989 z m -13.35659,-1.984587 c 0.04146,-0.124375 0.165297,-0.226116 0.275195,-0.226116 0.109897,0 0.233736,0.101741 0.275166,0.226116 0.04146,0.124347 -0.08235,0.226117 -0.275166,0.226117 -0.192815,0 -0.316654,-0.10177 -0.275195,-0.226117 z m 15.572514,-0.02371 c 0.129992,-0.390003 0.582789,-0.454689 0.582789,-0.08326 0,0.183162 -0.14986,0.333022 -0.333022,0.333022 -0.183162,0 -0.295571,-0.112409 -0.249767,-0.249766 z M 25.290367,52.64218 c -0.08396,-0.135833 -0.058,-0.34163 0.05769,-0.457313 0.140236,-0.140236 0.261225,-0.128016 0.362994,0.03666 0.08396,0.135834 0.058,0.34163 -0.05769,0.457313 -0.140236,0.140209 -0.261224,0.127989 -0.362994,-0.03666 z m 19.140255,0 c -0.08393,-0.135833 -0.058,-0.34163 0.05771,-0.457313 0.140208,-0.140236 0.261196,-0.128016 0.362966,0.03666 0.08396,0.135834 0.058,0.34163 -0.05769,0.457313 -0.140236,0.140208 -0.261224,0.127988 -0.362994,-0.03666 z M 24.037357,49.922377 c -0.155561,-0.251658 0.240115,-0.501058 0.520277,-0.327886 0.235232,0.145372 0.0808,0.523691 -0.213756,0.523691 -0.102023,0 -0.239973,-0.08811 -0.306521,-0.195805 z m 21.339782,-0.102165 c 0,-0.183162 0.14986,-0.333022 0.333022,-0.333022 0.183163,0 0.295572,0.112409 0.249767,0.249767 -0.129992,0.390002 -0.582789,0.454688 -0.582789,0.08326 z M 33.428104,49.271459 c -1.492419,-0.909913 -1.692797,-3.067219 -0.404509,-4.355507 1.877737,-1.877709 4.778699,-0.588518 4.780788,2.124569 0,0.909348 -0.09054,1.115144 -0.815792,1.840427 -0.725283,0.725255 -0.931079,0.816497 -1.840427,0.815792 -0.655518,0 -1.274262,-0.153501 -1.72006,-0.425281 z M 23.712886,46.84051 c 0,-0.183162 0.112381,-0.295572 0.249767,-0.249767 0.390003,0.129992 0.454688,0.582789 0.08326,0.582789 -0.183162,0 -0.333022,-0.14986 -0.333022,-0.333022 z m 22.084905,0 c 0,-0.183162 0.112409,-0.295572 0.249767,-0.249767 0.390003,0.129992 0.454688,0.582789 0.08326,0.582789 -0.183163,0 -0.333023,-0.14986 -0.333023,-0.333022 z M 24.037357,44.243416 c -0.155561,-0.251686 0.240115,-0.501057 0.520277,-0.327914 0.235232,0.145373 0.0808,0.52372 -0.213756,0.52372 -0.102023,0 -0.239973,-0.08811 -0.306521,-0.195806 z m 21.474289,0.04987 c -0.236897,-0.236898 -0.144272,-0.485084 0.180989,-0.485084 0.173511,0 0.315497,0.08907 0.315497,0.197923 0,0.265232 -0.328451,0.455196 -0.496486,0.287161 z M 25.185211,41.406913 c 0,-0.183162 0.14986,-0.333022 0.333022,-0.333022 0.183163,0 0.295572,0.112381 0.249767,0.249767 -0.129991,0.390003 -0.582789,0.454688 -0.582789,0.08325 z m 19.140255,-0.0175 c 0,-0.192815 0.101741,-0.316626 0.226117,-0.275195 0.124347,0.04146 0.226088,0.165297 0.226088,0.275195 0,0.109897 -0.101741,0.233736 -0.226088,0.275195 -0.124376,0.04146 -0.226117,-0.08238 -0.226117,-0.275195 z m -17.45759,-2.313658 c 0,-0.17351 0.141958,-0.315496 0.315497,-0.315496 0.17351,0 0.315496,0.141986 0.315496,0.315496 0,0.173538 -0.141986,0.315496 -0.315496,0.315496 -0.173539,0 -0.315497,-0.141958 -0.315497,-0.315496 z m 15.71055,0.180989 c -0.168035,-0.168035 0.02201,-0.496485 0.287133,-0.496485 0.108853,0 0.197922,0.141986 0.197922,0.315496 0,0.325261 -0.248186,0.417858 -0.485055,0.180989 z M 29.316041,37.562652 c -0.236869,-0.236869 -0.144272,-0.485055 0.180989,-0.485055 0.173511,0 0.315497,0.08907 0.315497,0.197922 0,0.265232 -0.328451,0.455168 -0.496486,0.287133 z m 10.916921,-0.04987 c -0.155533,-0.251686 0.240114,-0.501057 0.520276,-0.327914 0.235233,0.145373 0.08083,0.52372 -0.213755,0.52372 -0.102023,0 -0.239945,-0.08811 -0.306521,-0.195806 z m -8.211933,-1.066178 c -0.08396,-0.135862 -0.058,-0.341658 0.05769,-0.457341 0.140208,-0.140208 0.261196,-0.127988 0.362966,0.03666 0.08396,0.135834 0.058,0.34163 -0.05769,0.457313 -0.140208,0.140236 -0.261225,0.128016 -0.362966,-0.03663 z m 5.67896,0 c -0.08393,-0.135862 -0.058,-0.341658 0.05769,-0.457341 0.140236,-0.140208 0.261225,-0.127988 0.362994,0.03666 0.08396,0.135834 0.058,0.34163 -0.05769,0.457313 -0.140236,0.140236 -0.261225,0.128016 -0.362994,-0.03663 z m -2.909598,-0.350576 c -0.242006,-0.242006 -0.153162,-0.490757 0.175288,-0.490757 0.17351,0 0.315496,0.141958 0.315496,0.315497 0,0.32845 -0.248751,0.417293 -0.490784,0.17526 z M 23.818042,57.900517 c 0.569722,-0.578415 1.083169,-1.051673 1.141025,-1.051673 0.05783,0 -0.360963,0.473258 -0.930685,1.051673 -0.569722,0.578414 -1.083169,1.051673 -1.141024,1.051673 -0.05783,0 0.360962,-0.473259 0.930684,-1.051673 z m 22.287343,-0.05258 -1.043742,-1.104251 1.104251,1.043742 c 1.026075,0.969885 1.200686,1.16476 1.043742,1.16476 -0.03327,0 -0.530182,-0.496937 -1.104251,-1.104251 z M 18.755653,38.94729 c -0.07942,-0.128496 0.09189,-0.436118 0.380689,-0.683598 0.853751,-0.731577 2.290826,-2.971828 2.146949,-3.346817 -0.129907,-0.338554 0.298789,-0.663843 3.270928,-2.481947 0.636242,-0.389185 1.456887,-1.028474 1.823607,-1.420594 0.649647,-0.694605 1.121043,-0.746703 1.121043,-0.123924 0,0.169559 -0.212965,0.391414 -0.473259,0.493043 -0.260265,0.1016 -0.800184,0.525977 -1.199783,0.943017 l -0.726524,0.758303 1.042021,1.063018 c 1.002396,1.022576 1.026385,1.074618 0.630794,1.367593 -0.378375,0.280218 -0.49149,0.225495 -1.41557,-0.6847 l -1.004344,-0.989245 -0.534444,0.502101 -0.534444,0.502074 0.995623,1.010835 c 0.547596,0.55595 0.908107,1.010807 0.801144,1.010807 -0.106934,0 -0.598621,-0.396663 -1.092623,-0.881493 l -0.898144,-0.881464 -0.533993,0.50165 -0.533992,0.50165 0.958709,0.973356 c 0.663758,0.67389 0.917052,1.081955 0.82327,1.326331 -0.07448,0.194141 -0.19304,0.352976 -0.263454,0.352976 -0.07041,0 -0.58008,-0.445262 -1.132586,-0.989472 l -1.004542,-0.989442 -0.758303,0.726524 c -0.417068,0.399599 -0.841418,0.939518 -0.943046,1.199783 -0.195721,0.501396 -0.704285,0.630259 -0.945726,0.239635 z m 31.564298,0.02342 c -0.07149,-0.115683 -0.05738,-0.210341 0.03138,-0.210341 0.08876,0 -0.256991,-0.426268 -0.768322,-0.947278 l -0.929665,-0.947274 -1.007307,0.992152 c -0.95092,0.936611 -1.027459,0.971973 -1.36748,0.63198 -0.339993,-0.340021 -0.304433,-0.416786 0.635649,-1.371204 l 0.995821,-1.011005 -0.533992,-0.50165 -0.533993,-0.501678 -0.898172,0.881492 c -0.493974,0.484802 -0.985662,0.881465 -1.092624,0.881465 -0.106962,0 0.253577,-0.454857 0.801144,-1.010807 l 0.995624,-1.010835 -0.534444,-0.502074 -0.534444,-0.502073 -0.994918,0.974429 c -0.859339,0.841643 -1.043856,0.93805 -1.354074,0.707474 -0.325036,-0.241554 -0.260096,-0.364574 0.68309,-1.293565 l 1.042275,-1.026612 -0.788247,-0.81692 C 43.733703,31.937088 43.166013,31.486069 42.905719,31.38413 42.35739,31.169415 42.30721,30.923205 42.738756,30.565036 c 0.342082,-0.283887 0.745378,-0.127282 0.745378,0.289419 0,0.237998 2.736059,2.226931 3.063465,2.226931 0.06813,0 0.632545,0.364293 1.254309,0.809498 0.688679,0.493155 1.054749,0.885162 0.93678,1.003131 -0.243812,0.243812 1.838537,3.445707 2.240929,3.445707 0.157763,0 0.286823,0.189287 0.286823,0.420652 0,0.446137 -0.70406,0.602601 -0.946489,0.210341 z M 20.170884,33.872258 c -0.384387,-0.384415 -0.310698,-0.493889 0.821775,-1.220583 0.957072,-0.614144 1.098606,-0.651059 1.387856,-0.361781 0.289278,0.289249 0.228854,0.38529 -0.592497,0.941663 -1.326445,0.898539 -1.349954,0.907852 -1.617134,0.640701 z m 28.179241,-0.495385 c -0.906809,-0.610701 -1.061918,-0.799987 -0.857448,-1.046367 0.352721,-0.424999 0.50515,-0.388479 1.679335,0.402251 0.991249,0.667569 1.024806,0.720372 0.664577,1.046339 -0.354245,0.320604 -0.4526,0.293991 -1.486464,-0.402223 z M 18.998053,32.469895 c -0.331188,-0.365957 -0.293652,-0.421668 0.724521,-1.075041 0.990826,-0.63579 1.100244,-0.662686 1.415316,-0.347613 0.187791,0.187819 0.299777,0.375694 0.248808,0.417548 -0.05094,0.04185 -0.530663,0.371969 -1.06601,0.73358 -0.938361,0.633871 -0.985887,0.643608 -1.322635,0.271526 z m 30.743484,-0.257217 c -1.081928,-0.707588 -1.157563,-0.841248 -0.6939,-1.226058 0.245985,-0.20416 0.491095,-0.125391 1.263452,0.406005 0.825275,0.567803 0.927862,0.716139 0.739084,1.06886 -0.120565,0.22527 -0.239522,0.40846 -0.264386,0.407106 -0.02483,0 -0.494764,-0.296531 -1.04425,-0.655913 z M 17.631844,31.105661 c -0.196145,-0.236333 -0.04343,-0.415995 0.788895,-0.928116 0.94711,-0.582789 1.059858,-0.607286 1.369427,-0.297716 0.30957,0.30957 0.26416,0.385911 -0.551716,0.927213 -1.006348,0.667709 -1.260997,0.715038 -1.606606,0.298619 z M 50.79321,30.831793 c -0.85646,-0.588151 -0.928709,-0.737729 -0.520108,-1.076847 0.197217,-0.163689 0.537323,-0.05577 1.278777,0.405722 0.833741,0.518951 0.965962,0.681906 0.757231,0.933394 -0.343606,0.414048 -0.594191,0.370699 -1.5159,-0.262269 z M 16.603623,29.884316 c -0.378883,-0.378883 -0.331018,-0.44958 0.677814,-1.000675 0.79104,-0.432139 0.980948,-0.466005 1.26952,-0.226512 0.302288,0.250868 0.240905,0.346964 -0.562102,0.879715 -1.030422,0.683655 -1.045323,0.687381 -1.385232,0.347472 z m 35.450189,-0.315439 c -0.6223,-0.427313 -0.739677,-0.603335 -0.552648,-0.82869 0.3267,-0.393643 0.488724,-0.365816 1.467584,0.25211 0.698951,0.441226 0.807268,0.592864 0.601077,0.841332 -0.342364,0.412524 -0.593627,0.368639 -1.516013,-0.264752 z M 14.90013,28.601475 c -0.393418,-0.393418 -0.256822,-1.192925 0.29876,-1.748508 0.64135,-0.64135 1.3578,-0.597436 1.706485,0.104592 0.137019,0.275929 0.360737,0.570653 0.497135,0.654925 0.160895,0.09943 -0.02512,0.3221 -0.529985,0.63404 -0.895943,0.553749 -1.639768,0.687607 -1.972395,0.354951 z m 38.574812,-0.16716 c -0.347049,-0.219202 -0.711511,-0.42593 -0.809922,-0.459373 -0.316766,-0.107668 0.618603,-1.51686 1.049415,-1.580981 0.979989,-0.145852 2.087768,1.525129 1.393219,2.10154 -0.47244,0.392091 -0.943018,0.374452 -1.632712,-0.06119 z"
         id="path4248-3"
         inkscape:connector-curvature="0"
         sodipodi:nodetypes="cssssscssssscssssssssssscssssssssssssssssssssscscsssssscssccsssscscscsssssssssssssssssssssssscscsssssssssssssssssssssscscsssssssssssssssssssssssssssssssssssssscssscssssssscssscccssscccsssscsscssscssscccssscccssscssssssssssssssssssssssscsssssscsssssssssssssssssssssssssssscsss" />
      <text
         xml:space="preserve"
         style="font-style:normal;font-variant:normal;font-weight:bold;font-stretch:normal;font-size:7.76111px;line-height:1.25;font-family:FreeSans;-inkscape-font-specification:'FreeSans Bold';letter-spacing:0px;word-spacing:0px;fill:#000000;fill-opacity:1;stroke:none;stroke-width:0.264583"
         x="9.5874596"
         y="14.513526"
         id="text915"><tspan
           sodipodi:role="line"
           id="tspan913"
           x="9.5874596"
           y="14.513526"
           style="font-style:normal;font-variant:normal;font-weight:bold;font-stretch:normal;font-size:7.76111px;font-family:FreeSans;-inkscape-font-specification:'FreeSans Bold';stroke-width:0.264583">Largest Army</tspan></text>
      <path
         style="fill:none;stroke:#000000;stroke-width:1;stroke-linecap:round;stroke-linejoin:miter;stroke-miterlimit:4;stroke-dasharray:none;stroke-opacity:1"
         d="m 7.0312164,21.891469 55.9375676,-0.0037"
         id="path917" />
    </g>
  </g>
</svg>
