G04 #@! TF.GenerationSoftware,KiCad,Pcbnew,5.1.5+dfsg1-2build2*
G04 #@! TF.CreationDate,2021-04-24T08:56:15-04:00*
G04 #@! TF.ProjectId,4,342e6b69-6361-4645-9f70-636258585858,rev?*
G04 #@! TF.SameCoordinates,Original*
G04 #@! TF.FileFunction,Legend,Top*
G04 #@! TF.FilePolarity,Positive*
%FSLAX46Y46*%
G04 Gerber Fmt 4.6, Leading zero omitted, Abs format (unit mm)*
G04 Created by KiCad (PCBNEW 5.1.5+dfsg1-2build2) date 2021-04-24 08:56:15*
%MOMM*%
%LPD*%
G04 APERTURE LIST*
%ADD10C,0.010000*%
G04 APERTURE END LIST*
D10*
G36*
X-2539161Y-2530912D02*
G01*
X-2471909Y-2536921D01*
X-2420041Y-2550288D01*
X-2370107Y-2573707D01*
X-2345985Y-2587476D01*
X-2218597Y-2684397D01*
X-2123189Y-2802844D01*
X-2060841Y-2936568D01*
X-2032630Y-3079317D01*
X-2039637Y-3224842D01*
X-2082940Y-3366890D01*
X-2163618Y-3499213D01*
X-2184334Y-3523961D01*
X-2276163Y-3613306D01*
X-2372270Y-3672039D01*
X-2484791Y-3705675D01*
X-2614083Y-3719234D01*
X-2711254Y-3721154D01*
X-2782011Y-3714899D01*
X-2841838Y-3698330D01*
X-2878666Y-3682671D01*
X-3011679Y-3599789D01*
X-3115646Y-3492299D01*
X-3189301Y-3366574D01*
X-3231379Y-3228989D01*
X-3240616Y-3085916D01*
X-3215745Y-2943729D01*
X-3155502Y-2808802D01*
X-3073300Y-2702248D01*
X-2987341Y-2623069D01*
X-2903311Y-2571374D01*
X-2808549Y-2542170D01*
X-2690391Y-2530467D01*
X-2635250Y-2529569D01*
X-2539161Y-2530912D01*
G37*
X-2539161Y-2530912D02*
X-2471909Y-2536921D01*
X-2420041Y-2550288D01*
X-2370107Y-2573707D01*
X-2345985Y-2587476D01*
X-2218597Y-2684397D01*
X-2123189Y-2802844D01*
X-2060841Y-2936568D01*
X-2032630Y-3079317D01*
X-2039637Y-3224842D01*
X-2082940Y-3366890D01*
X-2163618Y-3499213D01*
X-2184334Y-3523961D01*
X-2276163Y-3613306D01*
X-2372270Y-3672039D01*
X-2484791Y-3705675D01*
X-2614083Y-3719234D01*
X-2711254Y-3721154D01*
X-2782011Y-3714899D01*
X-2841838Y-3698330D01*
X-2878666Y-3682671D01*
X-3011679Y-3599789D01*
X-3115646Y-3492299D01*
X-3189301Y-3366574D01*
X-3231379Y-3228989D01*
X-3240616Y-3085916D01*
X-3215745Y-2943729D01*
X-3155502Y-2808802D01*
X-3073300Y-2702248D01*
X-2987341Y-2623069D01*
X-2903311Y-2571374D01*
X-2808549Y-2542170D01*
X-2690391Y-2530467D01*
X-2635250Y-2529569D01*
X-2539161Y-2530912D01*
G36*
X-951661Y-2530912D02*
G01*
X-884409Y-2536921D01*
X-832541Y-2550288D01*
X-782607Y-2573707D01*
X-758485Y-2587476D01*
X-631097Y-2684397D01*
X-535689Y-2802844D01*
X-473341Y-2936568D01*
X-445130Y-3079317D01*
X-452137Y-3224842D01*
X-495440Y-3366890D01*
X-576118Y-3499213D01*
X-596834Y-3523961D01*
X-688681Y-3613292D01*
X-784910Y-3672072D01*
X-897642Y-3705815D01*
X-1026583Y-3719500D01*
X-1120200Y-3721825D01*
X-1187881Y-3716528D01*
X-1245708Y-3701113D01*
X-1302193Y-3676732D01*
X-1440396Y-3589464D01*
X-1545066Y-3476921D01*
X-1614674Y-3341539D01*
X-1647693Y-3185754D01*
X-1650328Y-3122084D01*
X-1635158Y-2969944D01*
X-1587822Y-2839844D01*
X-1504708Y-2722571D01*
X-1485800Y-2702248D01*
X-1399841Y-2623069D01*
X-1315811Y-2571374D01*
X-1221049Y-2542170D01*
X-1102891Y-2530467D01*
X-1047750Y-2529569D01*
X-951661Y-2530912D01*
G37*
X-951661Y-2530912D02*
X-884409Y-2536921D01*
X-832541Y-2550288D01*
X-782607Y-2573707D01*
X-758485Y-2587476D01*
X-631097Y-2684397D01*
X-535689Y-2802844D01*
X-473341Y-2936568D01*
X-445130Y-3079317D01*
X-452137Y-3224842D01*
X-495440Y-3366890D01*
X-576118Y-3499213D01*
X-596834Y-3523961D01*
X-688681Y-3613292D01*
X-784910Y-3672072D01*
X-897642Y-3705815D01*
X-1026583Y-3719500D01*
X-1120200Y-3721825D01*
X-1187881Y-3716528D01*
X-1245708Y-3701113D01*
X-1302193Y-3676732D01*
X-1440396Y-3589464D01*
X-1545066Y-3476921D01*
X-1614674Y-3341539D01*
X-1647693Y-3185754D01*
X-1650328Y-3122084D01*
X-1635158Y-2969944D01*
X-1587822Y-2839844D01*
X-1504708Y-2722571D01*
X-1485800Y-2702248D01*
X-1399841Y-2623069D01*
X-1315811Y-2571374D01*
X-1221049Y-2542170D01*
X-1102891Y-2530467D01*
X-1047750Y-2529569D01*
X-951661Y-2530912D01*
G36*
X635839Y-2530912D02*
G01*
X703091Y-2536921D01*
X754959Y-2550288D01*
X804893Y-2573707D01*
X829015Y-2587476D01*
X956403Y-2684397D01*
X1051811Y-2802844D01*
X1114159Y-2936568D01*
X1142370Y-3079317D01*
X1135363Y-3224842D01*
X1092060Y-3366890D01*
X1011382Y-3499213D01*
X990666Y-3523961D01*
X898819Y-3613292D01*
X802590Y-3672072D01*
X689858Y-3705815D01*
X560917Y-3719500D01*
X467300Y-3721825D01*
X399619Y-3716528D01*
X341792Y-3701113D01*
X285307Y-3676732D01*
X147104Y-3589464D01*
X42434Y-3476921D01*
X-27174Y-3341539D01*
X-60193Y-3185754D01*
X-62828Y-3122084D01*
X-47658Y-2969944D01*
X-322Y-2839844D01*
X82792Y-2722571D01*
X101700Y-2702248D01*
X187659Y-2623069D01*
X271689Y-2571374D01*
X366451Y-2542170D01*
X484609Y-2530467D01*
X539750Y-2529569D01*
X635839Y-2530912D01*
G37*
X635839Y-2530912D02*
X703091Y-2536921D01*
X754959Y-2550288D01*
X804893Y-2573707D01*
X829015Y-2587476D01*
X956403Y-2684397D01*
X1051811Y-2802844D01*
X1114159Y-2936568D01*
X1142370Y-3079317D01*
X1135363Y-3224842D01*
X1092060Y-3366890D01*
X1011382Y-3499213D01*
X990666Y-3523961D01*
X898819Y-3613292D01*
X802590Y-3672072D01*
X689858Y-3705815D01*
X560917Y-3719500D01*
X467300Y-3721825D01*
X399619Y-3716528D01*
X341792Y-3701113D01*
X285307Y-3676732D01*
X147104Y-3589464D01*
X42434Y-3476921D01*
X-27174Y-3341539D01*
X-60193Y-3185754D01*
X-62828Y-3122084D01*
X-47658Y-2969944D01*
X-322Y-2839844D01*
X82792Y-2722571D01*
X101700Y-2702248D01*
X187659Y-2623069D01*
X271689Y-2571374D01*
X366451Y-2542170D01*
X484609Y-2530467D01*
X539750Y-2529569D01*
X635839Y-2530912D01*
G36*
X-42333Y338666D02*
G01*
X698500Y338666D01*
X698500Y-232834D01*
X-42333Y-232834D01*
X-42333Y-1439334D01*
X-677333Y-1439334D01*
X-677333Y-232834D01*
X-2794000Y-232834D01*
X-2794000Y338666D01*
X-2227524Y338666D01*
X-677333Y338666D01*
X-677333Y1412119D01*
X-677478Y1656502D01*
X-677970Y1861612D01*
X-678892Y2030511D01*
X-680329Y2166257D01*
X-682363Y2271913D01*
X-685079Y2350537D01*
X-688560Y2405190D01*
X-692891Y2438933D01*
X-698155Y2454825D01*
X-704436Y2455927D01*
X-705882Y2454577D01*
X-723188Y2431990D01*
X-762739Y2378120D01*
X-822230Y2296171D01*
X-899354Y2189347D01*
X-991805Y2060852D01*
X-1097276Y1913890D01*
X-1213462Y1751664D01*
X-1338057Y1577380D01*
X-1429045Y1449916D01*
X-1559088Y1267700D01*
X-1683036Y1094158D01*
X-1798479Y932657D01*
X-1903005Y786563D01*
X-1994204Y659243D01*
X-2069665Y554062D01*
X-2126977Y474388D01*
X-2163730Y423586D01*
X-2175592Y407458D01*
X-2227524Y338666D01*
X-2794000Y338666D01*
X-2794000Y441331D01*
X-1656291Y2019024D01*
X-518583Y3596716D01*
X-280458Y3597525D01*
X-42333Y3598333D01*
X-42333Y338666D01*
G37*
X-42333Y338666D02*
X698500Y338666D01*
X698500Y-232834D01*
X-42333Y-232834D01*
X-42333Y-1439334D01*
X-677333Y-1439334D01*
X-677333Y-232834D01*
X-2794000Y-232834D01*
X-2794000Y338666D01*
X-2227524Y338666D01*
X-677333Y338666D01*
X-677333Y1412119D01*
X-677478Y1656502D01*
X-677970Y1861612D01*
X-678892Y2030511D01*
X-680329Y2166257D01*
X-682363Y2271913D01*
X-685079Y2350537D01*
X-688560Y2405190D01*
X-692891Y2438933D01*
X-698155Y2454825D01*
X-704436Y2455927D01*
X-705882Y2454577D01*
X-723188Y2431990D01*
X-762739Y2378120D01*
X-822230Y2296171D01*
X-899354Y2189347D01*
X-991805Y2060852D01*
X-1097276Y1913890D01*
X-1213462Y1751664D01*
X-1338057Y1577380D01*
X-1429045Y1449916D01*
X-1559088Y1267700D01*
X-1683036Y1094158D01*
X-1798479Y932657D01*
X-1903005Y786563D01*
X-1994204Y659243D01*
X-2069665Y554062D01*
X-2126977Y474388D01*
X-2163730Y423586D01*
X-2175592Y407458D01*
X-2227524Y338666D01*
X-2794000Y338666D01*
X-2794000Y441331D01*
X-1656291Y2019024D01*
X-518583Y3596716D01*
X-280458Y3597525D01*
X-42333Y3598333D01*
X-42333Y338666D01*
M02*
