<?xml version="1.0" encoding="UTF-8" standalone="no"?>
<svg
   xmlns:dc="http://purl.org/dc/elements/1.1/"
   xmlns:cc="http://creativecommons.org/ns#"
   xmlns:rdf="http://www.w3.org/1999/02/22-rdf-syntax-ns#"
   xmlns:svg="http://www.w3.org/2000/svg"
   xmlns="http://www.w3.org/2000/svg"
   xmlns:sodipodi="http://sodipodi.sourceforge.net/DTD/sodipodi-0.dtd"
   xmlns:inkscape="http://www.inkscape.org/namespaces/inkscape"
   width="100.0mm"
   height="100.0mm"
   viewBox="0 0 100.0 100.0"
   version="1.1"
   id="svg8"
   sodipodi:docname="brick_tile.svg"
   inkscape:version="1.0.2 (394de47547, 2021-03-26)">
  <defs
     id="defs2" />
  <sodipodi:namedview
     id="base"
     pagecolor="#ffffff"
     bordercolor="#666666"
     borderopacity="1.0"
     inkscape:pageopacity="0.0"
     inkscape:pageshadow="2"
     inkscape:zoom="5.0403125"
     inkscape:cx="150.7843"
     inkscape:cy="181.04036"
     inkscape:document-units="mm"
     inkscape:current-layer="g842"
     inkscape:document-rotation="0"
     showgrid="false"
     inkscape:window-width="3768"
     inkscape:window-height="2096"
     inkscape:window-x="72"
     inkscape:window-y="27"
     inkscape:window-maximized="1" />
  <metadata
     id="metadata5">
    <rdf:RDF>
      <cc:Work
         rdf:about="">
        <dc:format>image/svg+xml</dc:format>
        <dc:type
           rdf:resource="http://purl.org/dc/dcmitype/StillImage" />
        <dc:title />
      </cc:Work>
    </rdf:RDF>
  </metadata>
  <g
     inkscape:label="[fixed] BG"
     inkscape:groupmode="layer"
     sodipodi:insensitive="true"
     id="g838"
     style="display:inline">
    <rect
       x="0"
       y="0"
       width="100"
       height="100"
       style="fill:#ffffff;fill-opacity:1;stroke:none"
       id="rect836" />
  </g>
  <g
     inkscape:label="Edge.Cuts"
     inkscape:groupmode="layer"
     id="g840"
     style="display:inline">
    <path
       id="path864"
       style="fill:none;stroke:#000600;stroke-width:0.104494;stroke-opacity:1"
       d="M 64.9801 75.9228 L 35.0404 75.9346 L 20.0603 50.012 L 35.0199 24.0776 L 64.9596 24.0658 L 79.9397 49.9884 L 64.9801 75.9228" />
    <path
       id="path867"
       style="fill:none;stroke:#000600;stroke-width:0.0889503;stroke-opacity:1"
       d="M 58.0055 50.0002 L 57.9957 50.3971 L 57.9664 50.7914 L 57.9178 51.1823 L 57.8503 51.5693 L 57.7641 51.9515 L 57.6595 52.3285 L 57.5367 52.6994 L 57.3961 53.0638 L 57.2379 53.4208 L 57.0624 53.7699 L 56.8699 54.1104 L 56.6605 54.4416 L 56.4346 54.763 L 56.1926 55.0737 L 55.9345 55.3733 L 55.6608 55.6609 L 55.3731 55.9347 L 55.0736 56.1927 L 54.7628 56.4348 L 54.4415 56.6607 L 54.1102 56.87 L 53.7697 57.0626 L 53.4206 57.2381 L 53.0636 57.3963 L 52.6993 57.5369 L 52.3283 57.6597 L 51.9514 57.7643 L 51.5691 57.8505 L 51.1822 57.918 L 50.7912 57.9665 L 50.397 57.9959 L 50 58.0057 L 49.603 57.9959 L 49.2088 57.9665 L 48.8178 57.918 L 48.4309 57.8505 L 48.0486 57.7643 L 47.6717 57.6597 L 47.3007 57.5369 L 46.9364 57.3963 L 46.5794 57.2381 L 46.2303 57.0626 L 45.8898 56.87 L 45.5585 56.6607 L 45.2372 56.4348 L 44.9264 56.1927 L 44.6269 55.9347 L 44.3392 55.6609 L 44.0655 55.3733 L 43.8074 55.0737 L 43.5654 54.763 L 43.3395 54.4416 L 43.1301 54.1104 L 42.9376 53.7699 L 42.7621 53.4208 L 42.6039 53.0638 L 42.4633 52.6994 L 42.3405 52.3285 L 42.2359 51.9515 L 42.1497 51.5693 L 42.0822 51.1823 L 42.0336 50.7914 L 42.0043 50.3971 L 41.9945 50.0002 L 42.0049 49.5882 L 42.0358 49.1817 L 42.0867 48.781 L 42.1571 48.3868 L 42.2465 47.9995 L 42.3544 47.6196 L 42.4802 47.2476 L 42.6236 46.8841 L 42.7839 46.5294 L 42.9607 46.1843 L 43.1535 45.849 L 43.3617 45.5242 L 43.5849 45.2103 L 43.8225 44.9079 L 44.0742 44.6174 L 44.3392 44.3394 L 44.6173 44.0743 L 44.9077 43.8227 L 45.2102 43.5851 L 45.524 43.3619 L 45.8488 43.1536 L 46.1841 42.9609 L 46.5293 42.7841 L 46.8839 42.6238 L 47.2474 42.4804 L 47.6194 42.3546 L 47.9993 42.2467 L 48.3866 42.1573 L 48.7808 42.0869 L 49.1815 42.036 L 49.588 42.0051 L 50 41.9947 L 50.412 42.0051 L 50.8185 42.036 L 51.2192 42.0869 L 51.6134 42.1573 L 52.0007 42.2467 L 52.3806 42.3546 L 52.7526 42.4804 L 53.1161 42.6238 L 53.4707 42.7841 L 53.8159 42.9609 L 54.1512 43.1536 L 54.476 43.3619 L 54.7898 43.5851 L 55.0923 43.8227 L 55.3827 44.0743 L 55.6608 44.3394 L 55.9258 44.6174 L 56.1775 44.9079 L 56.4151 45.2103 L 56.6383 45.5242 L 56.8465 45.849 L 57.0393 46.1843 L 57.2161 46.5294 L 57.3764 46.8841 L 57.5198 47.2476 L 57.6456 47.6196 L 57.7535 47.9995 L 57.8429 48.3868 L 57.9133 48.781 L 57.9642 49.1817 L 57.9951 49.5882 L 58.0055 50.0002 L 58.0055 50.0002" />
  </g>
  <g
     inkscape:label="B.Cu"
     inkscape:groupmode="layer"
     id="g842"
     style="display:inline">
    <path
       id="path842"
       style="display:inline;fill:#d10000;fill-opacity:1;stroke:none;stroke-width:0.394938;stroke-opacity:1"
       d="m 243.33594,94.738281 c -36.26477,0.01474 -72.52821,0.03011 -108.79297,0.04492 -18.12008,31.414869 -36.24125,62.829279 -54.361329,94.244139 18.144684,31.39764 36.288909,62.79572 54.433589,94.19336 36.26477,-0.0174 72.53016,-0.0335 108.79493,-0.0508 18.12008,-31.41486 36.24125,-62.83123 54.36132,-94.24609 -18.14468,-31.39518 -36.29085,-62.79037 -54.43554,-94.185551 z m -53.85742,60.193359 c 13.86245,0.0823 26.9529,9.36428 31.51562,22.50195 5.07239,13.43174 0.36559,29.73086 -11.0957,38.37891 -11.18702,9.00884 -28.1462,9.5952 -39.9375,1.39258 -12.10062,-7.89342 -17.92315,-23.97291 -13.65235,-37.7793 3.8442,-13.91986 17.38544,-24.33527 31.82618,-24.47266 0.44852,-0.0167 0.89657,-0.0241 1.34375,-0.0215 z"
       transform="scale(0.26458333)" />
  </g>
  <g
     inkscape:label="B.Mask-disabled"
     inkscape:groupmode="layer"
     id="g844"
     style="display:inline" />
  <g
     inkscape:label="B.SilkS"
     inkscape:groupmode="layer"
     id="g846"
     style="display:inline">
    <text
       xml:space="preserve"
       style="font-style:normal;font-weight:normal;font-size:7.05556px;line-height:1.25;font-family:sans-serif;letter-spacing:0px;word-spacing:0px;fill:#000000;fill-opacity:1;stroke:none;stroke-width:0.264583"
       x="-54.994514"
       y="35.143505"
       id="text847"
       transform="scale(-1,1)"><tspan
         sodipodi:role="line"
         id="tspan845"
         x="-54.994514"
         y="35.143505"
         style="font-style:normal;font-variant:normal;font-weight:normal;font-stretch:normal;font-size:7.05556px;font-family:FreeSans;-inkscape-font-specification:FreeSans;stroke-width:0.264583">EX</tspan></text>
  </g>
  <g
     inkscape:label="F.Cu"
     inkscape:groupmode="layer"
     id="g848"
     style="display:none">
    <path
       id="path875"
       style="display:inline;fill:#d10000;fill-opacity:1;stroke:none;stroke-width:0.394938;stroke-opacity:1"
       d="m 243.33594,94.738281 c -36.26477,0.01474 -72.52821,0.03011 -108.79297,0.04492 -18.12008,31.414869 -36.24125,62.829279 -54.361329,94.244139 18.144684,31.39764 36.288909,62.79572 54.433589,94.19336 36.26477,-0.0174 72.53016,-0.0335 108.79493,-0.0508 18.12008,-31.41486 36.24125,-62.83123 54.36132,-94.24609 -18.14468,-31.39518 -36.29085,-62.79037 -54.43554,-94.185551 z m -53.85742,60.193359 c 13.86245,0.0823 26.9529,9.36428 31.51562,22.50195 5.07239,13.43174 0.36559,29.73086 -11.0957,38.37891 -11.18702,9.00884 -28.1462,9.5952 -39.9375,1.39258 -12.10062,-7.89342 -17.92315,-23.97291 -13.65235,-37.7793 3.8442,-13.91986 17.38544,-24.33527 31.82618,-24.47266 0.44852,-0.0167 0.89657,-0.0241 1.34375,-0.0215 z"
       transform="scale(0.26458333)" />
  </g>
  <g
     inkscape:label="F.Mask-disabled"
     inkscape:groupmode="layer"
     id="g850"
     style="display:none" />
  <g
     inkscape:label="F.SilkS"
     inkscape:groupmode="layer"
     id="g852"
     style="display:none">
    <path
       id="path2"
       style="fill:#000000;fill-opacity:1;stroke:none;stroke-width:0.442915;stroke-opacity:1"
       d="M 241.32422,94.738281 V 113.66211 H 191.71875 V 94.759766 c -2.36196,9.81e-4 -4.72397,9.71e-4 -7.08594,0.002 V 113.66211 H 135.02539 V 94.783203 c -0.16081,6.6e-5 -0.32161,-6.6e-5 -0.48242,0 -2.20127,3.816345 -4.40222,7.632887 -6.60352,11.449217 v 7.42969 h -4.28515 c -1.36292,2.36284 -2.72692,4.72505 -4.08985,7.08789 h 36.72071 v 21.25977 h -48.98243 c -1.36248,2.36206 -2.7254,4.72387 -4.08789,7.08593 h 24.72461 v 21.25977 H 90.951172 c -1.362311,2.36179 -2.723636,4.72415 -4.085938,7.08594 h 12.726563 v 21.25976 H 85.771484 c 1.365323,2.36258 2.730385,4.72531 4.095704,7.08789 h 38.072262 v 21.25977 H 102.1543 c 1.50862,2.61058 3.01676,5.22144 4.52539,7.83203 v -0.74609 h 49.60547 v 21.25976 h -37.75 c 1.36487,2.36182 2.72887,4.72413 4.09375,7.08594 h 5.31054 v 9.1875 c 2.22538,3.85084 4.45039,7.7019 6.67578,11.55273 0.13672,-6e-5 0.27344,7e-5 0.41016,0 v -20.74023 h 49.60742 v 20.7168 c 2.36199,-10e-4 4.72395,-0.003 7.08594,-0.004 v -20.71289 h 49.60547 v 20.68945 c 0.69531,-3.3e-4 1.39063,3.3e-4 2.08594,0 1.66728,-2.89058 3.33465,-5.78127 5.00195,-8.67187 v -12.01758 h 6.93164 c 1.36245,-2.36208 2.72543,-4.72385 4.08789,-7.08594 h -39.36719 v -21.25976 h 49.60743 v 3.50585 c 2.03647,-3.53062 4.0729,-7.06117 6.10937,-10.59179 h -27.36914 v -21.25977 h 39.63086 c 1.36289,-2.36284 2.72696,-4.72505 4.08984,-7.08789 h -15.375 v -21.25976 h 14.37696 c -1.36515,-2.36203 -2.73055,-4.72392 -4.09571,-7.08594 H 248.41211 V 149.0957 h 26.33984 c -1.69357,-2.93022 -3.3865,-5.86079 -5.08007,-8.79101 v 1.70508 H 220.06445 V 120.75 h 38.30469 c -1.36545,-2.36251 -2.73026,-4.72538 -4.0957,-7.08789 h -5.86133 v -10.14063 c -1.69208,-2.9277 -3.38412,-5.85549 -5.07617,-8.783199 -0.67058,2.73e-4 -1.34114,-2.73e-4 -2.01172,0 z M 163.37305,120.75 h 49.60547 v 21.25977 h -49.60547 z m -28.34766,28.3457 h 49.60742 v 6.09961 c 1.15841,-0.14364 2.32689,-0.23101 3.50196,-0.24219 0.44852,-0.0167 0.89657,-0.0241 1.34375,-0.0215 0.74974,0.004 1.49623,0.0402 2.24023,0.0977 v -5.9336 h 49.60547 v 21.25977 h -23.83594 c 1.44357,2.19442 2.63263,4.56379 3.50586,7.07812 9.5e-4,0.003 0.001,0.005 0.002,0.008 h 48.67579 v 21.25976 h -48.11329 c -0.73438,2.46283 -1.73372,4.8479 -2.98828,7.08789 h 22.75391 v 21.25977 H 191.7188 v -4.17969 c -2.35987,0.1872 -4.7375,0.1376 -7.08594,-0.15234 v 4.33203 h -49.60742 v -21.25977 h 24.38086 c -1.32215,-2.35461 -2.37095,-4.86368 -3.12109,-7.45898 v 0.37109 h -49.60547 v -21.25976 h 49.60547 v 2.0664 c 0.008,-0.0272 0.015,-0.0548 0.0234,-0.082 0.8957,-3.24332 2.32287,-6.29318 4.16016,-9.07031 h -25.44336 z m 28.34766,85.03907 h 49.60547 v 21.25976 h -49.60547 z"
       transform="scale(0.26458333)" />
  </g>
</svg>
