G04 #@! TF.GenerationSoftware,KiCad,Pcbnew,5.1.5+dfsg1-2build2*
G04 #@! TF.CreationDate,2021-04-24T08:27:42-04:00*
G04 #@! TF.ProjectId,largest_army_card,6c617267-6573-4745-9f61-726d795f6361,rev?*
G04 #@! TF.SameCoordinates,Original*
G04 #@! TF.FileFunction,Copper,L1,Top*
G04 #@! TF.FilePolarity,Positive*
%FSLAX46Y46*%
G04 Gerber Fmt 4.6, Leading zero omitted, Abs format (unit mm)*
G04 Created by KiCad (PCBNEW 5.1.5+dfsg1-2build2) date 2021-04-24 08:27:42*
%MOMM*%
%LPD*%
G04 APERTURE LIST*
%ADD10C,0.010000*%
G04 APERTURE END LIST*
D10*
G36*
X24367383Y23918773D02*
G01*
X24513002Y23842881D01*
X24631629Y23734413D01*
X24721294Y23596892D01*
X24786316Y23466773D01*
X24786090Y19306D01*
X24786093Y-977989D01*
X24786120Y-1965534D01*
X24786172Y-2942461D01*
X24786247Y-3907904D01*
X24786345Y-4860998D01*
X24786465Y-5800876D01*
X24786608Y-6726672D01*
X24786773Y-7637519D01*
X24786958Y-8532552D01*
X24787164Y-9410904D01*
X24787390Y-10271710D01*
X24787636Y-11114102D01*
X24787901Y-11937215D01*
X24788185Y-12740183D01*
X24788486Y-13522139D01*
X24788806Y-14282218D01*
X24789142Y-15019552D01*
X24789495Y-15733276D01*
X24789865Y-16422524D01*
X24790250Y-17086429D01*
X24790650Y-17724126D01*
X24791065Y-18334748D01*
X24791494Y-18917428D01*
X24791936Y-19471302D01*
X24792392Y-19995501D01*
X24792861Y-20489162D01*
X24793342Y-20951416D01*
X24793834Y-21381398D01*
X24794338Y-21778242D01*
X24794852Y-22141082D01*
X24795377Y-22469051D01*
X24795911Y-22761283D01*
X24796455Y-23016913D01*
X24797007Y-23235073D01*
X24797567Y-23414898D01*
X24798136Y-23555521D01*
X24798711Y-23656077D01*
X24799294Y-23715699D01*
X24799655Y-23731671D01*
X24802856Y-23963282D01*
X24788802Y-24159284D01*
X24756173Y-24323290D01*
X24703650Y-24458909D01*
X24629912Y-24569754D01*
X24533638Y-24659436D01*
X24438822Y-24718734D01*
X24331083Y-24775583D01*
X920750Y-24780928D01*
X-76370Y-24781165D01*
X-1063921Y-24781418D01*
X-2041034Y-24781687D01*
X-3006834Y-24781970D01*
X-3960450Y-24782268D01*
X-4901010Y-24782579D01*
X-5827642Y-24782904D01*
X-6739472Y-24783241D01*
X-7635630Y-24783590D01*
X-8515242Y-24783951D01*
X-9377436Y-24784323D01*
X-10221341Y-24784705D01*
X-11046083Y-24785096D01*
X-11850791Y-24785497D01*
X-12634593Y-24785907D01*
X-13396616Y-24786324D01*
X-14135987Y-24786749D01*
X-14851835Y-24787181D01*
X-15543288Y-24787619D01*
X-16209473Y-24788063D01*
X-16849518Y-24788512D01*
X-17462550Y-24788965D01*
X-18047698Y-24789422D01*
X-18604088Y-24789883D01*
X-19130850Y-24790347D01*
X-19627111Y-24790813D01*
X-20091997Y-24791281D01*
X-20524638Y-24791750D01*
X-20924161Y-24792219D01*
X-21289694Y-24792688D01*
X-21620364Y-24793157D01*
X-21915299Y-24793624D01*
X-22173626Y-24794090D01*
X-22394475Y-24794554D01*
X-22576972Y-24795014D01*
X-22720245Y-24795471D01*
X-22823422Y-24795924D01*
X-22885630Y-24796372D01*
X-22902334Y-24796623D01*
X-23066573Y-24799739D01*
X-23194523Y-24799698D01*
X-23292129Y-24796292D01*
X-23365332Y-24789310D01*
X-23420075Y-24778544D01*
X-23420917Y-24778317D01*
X-23576692Y-24726140D01*
X-23698642Y-24660552D01*
X-23794618Y-24575565D01*
X-23872473Y-24465192D01*
X-23900159Y-24412880D01*
X-23968759Y-24273535D01*
X-23964121Y23420917D01*
X-23917365Y23547917D01*
X-23856442Y23666486D01*
X-23768760Y23775684D01*
X-23664756Y23864824D01*
X-23554867Y23923215D01*
X-23548890Y23925311D01*
X-23541708Y23927080D01*
X-23530243Y23928789D01*
X-23513772Y23930438D01*
X-23491571Y23932029D01*
X-23462917Y23933562D01*
X-23427085Y23935040D01*
X-23383353Y23936462D01*
X-23330997Y23937830D01*
X-23269294Y23939146D01*
X-23197519Y23940409D01*
X-23114949Y23941622D01*
X-23020861Y23942784D01*
X-22914531Y23943899D01*
X-22795236Y23944965D01*
X-22662252Y23945985D01*
X-22514855Y23946960D01*
X-22352322Y23947891D01*
X-22173929Y23948778D01*
X-21978953Y23949623D01*
X-21766671Y23950427D01*
X-21536358Y23951190D01*
X-21287291Y23951915D01*
X-21018746Y23952602D01*
X-20730001Y23953253D01*
X-20420331Y23953867D01*
X-20089013Y23954447D01*
X-19735324Y23954993D01*
X-19358539Y23955507D01*
X-18957935Y23955990D01*
X-18532789Y23956442D01*
X-18082377Y23956865D01*
X-17605976Y23957259D01*
X-17102862Y23957627D01*
X-16572311Y23957968D01*
X-16013600Y23958285D01*
X-15426005Y23958578D01*
X-14808804Y23958848D01*
X-14161271Y23959096D01*
X-13482684Y23959324D01*
X-12772319Y23959532D01*
X-12029453Y23959721D01*
X-11253362Y23959894D01*
X-10443322Y23960049D01*
X-9598610Y23960190D01*
X-8718502Y23960317D01*
X-7802275Y23960430D01*
X-6849206Y23960531D01*
X-5858570Y23960622D01*
X-4829644Y23960702D01*
X-3761705Y23960774D01*
X-2654028Y23960838D01*
X-1505892Y23960896D01*
X-316571Y23960947D01*
X402636Y23960976D01*
X24252158Y23961885D01*
X24367383Y23918773D01*
G37*
X24367383Y23918773D02*
X24513002Y23842881D01*
X24631629Y23734413D01*
X24721294Y23596892D01*
X24786316Y23466773D01*
X24786090Y19306D01*
X24786093Y-977989D01*
X24786120Y-1965534D01*
X24786172Y-2942461D01*
X24786247Y-3907904D01*
X24786345Y-4860998D01*
X24786465Y-5800876D01*
X24786608Y-6726672D01*
X24786773Y-7637519D01*
X24786958Y-8532552D01*
X24787164Y-9410904D01*
X24787390Y-10271710D01*
X24787636Y-11114102D01*
X24787901Y-11937215D01*
X24788185Y-12740183D01*
X24788486Y-13522139D01*
X24788806Y-14282218D01*
X24789142Y-15019552D01*
X24789495Y-15733276D01*
X24789865Y-16422524D01*
X24790250Y-17086429D01*
X24790650Y-17724126D01*
X24791065Y-18334748D01*
X24791494Y-18917428D01*
X24791936Y-19471302D01*
X24792392Y-19995501D01*
X24792861Y-20489162D01*
X24793342Y-20951416D01*
X24793834Y-21381398D01*
X24794338Y-21778242D01*
X24794852Y-22141082D01*
X24795377Y-22469051D01*
X24795911Y-22761283D01*
X24796455Y-23016913D01*
X24797007Y-23235073D01*
X24797567Y-23414898D01*
X24798136Y-23555521D01*
X24798711Y-23656077D01*
X24799294Y-23715699D01*
X24799655Y-23731671D01*
X24802856Y-23963282D01*
X24788802Y-24159284D01*
X24756173Y-24323290D01*
X24703650Y-24458909D01*
X24629912Y-24569754D01*
X24533638Y-24659436D01*
X24438822Y-24718734D01*
X24331083Y-24775583D01*
X920750Y-24780928D01*
X-76370Y-24781165D01*
X-1063921Y-24781418D01*
X-2041034Y-24781687D01*
X-3006834Y-24781970D01*
X-3960450Y-24782268D01*
X-4901010Y-24782579D01*
X-5827642Y-24782904D01*
X-6739472Y-24783241D01*
X-7635630Y-24783590D01*
X-8515242Y-24783951D01*
X-9377436Y-24784323D01*
X-10221341Y-24784705D01*
X-11046083Y-24785096D01*
X-11850791Y-24785497D01*
X-12634593Y-24785907D01*
X-13396616Y-24786324D01*
X-14135987Y-24786749D01*
X-14851835Y-24787181D01*
X-15543288Y-24787619D01*
X-16209473Y-24788063D01*
X-16849518Y-24788512D01*
X-17462550Y-24788965D01*
X-18047698Y-24789422D01*
X-18604088Y-24789883D01*
X-19130850Y-24790347D01*
X-19627111Y-24790813D01*
X-20091997Y-24791281D01*
X-20524638Y-24791750D01*
X-20924161Y-24792219D01*
X-21289694Y-24792688D01*
X-21620364Y-24793157D01*
X-21915299Y-24793624D01*
X-22173626Y-24794090D01*
X-22394475Y-24794554D01*
X-22576972Y-24795014D01*
X-22720245Y-24795471D01*
X-22823422Y-24795924D01*
X-22885630Y-24796372D01*
X-22902334Y-24796623D01*
X-23066573Y-24799739D01*
X-23194523Y-24799698D01*
X-23292129Y-24796292D01*
X-23365332Y-24789310D01*
X-23420075Y-24778544D01*
X-23420917Y-24778317D01*
X-23576692Y-24726140D01*
X-23698642Y-24660552D01*
X-23794618Y-24575565D01*
X-23872473Y-24465192D01*
X-23900159Y-24412880D01*
X-23968759Y-24273535D01*
X-23964121Y23420917D01*
X-23917365Y23547917D01*
X-23856442Y23666486D01*
X-23768760Y23775684D01*
X-23664756Y23864824D01*
X-23554867Y23923215D01*
X-23548890Y23925311D01*
X-23541708Y23927080D01*
X-23530243Y23928789D01*
X-23513772Y23930438D01*
X-23491571Y23932029D01*
X-23462917Y23933562D01*
X-23427085Y23935040D01*
X-23383353Y23936462D01*
X-23330997Y23937830D01*
X-23269294Y23939146D01*
X-23197519Y23940409D01*
X-23114949Y23941622D01*
X-23020861Y23942784D01*
X-22914531Y23943899D01*
X-22795236Y23944965D01*
X-22662252Y23945985D01*
X-22514855Y23946960D01*
X-22352322Y23947891D01*
X-22173929Y23948778D01*
X-21978953Y23949623D01*
X-21766671Y23950427D01*
X-21536358Y23951190D01*
X-21287291Y23951915D01*
X-21018746Y23952602D01*
X-20730001Y23953253D01*
X-20420331Y23953867D01*
X-20089013Y23954447D01*
X-19735324Y23954993D01*
X-19358539Y23955507D01*
X-18957935Y23955990D01*
X-18532789Y23956442D01*
X-18082377Y23956865D01*
X-17605976Y23957259D01*
X-17102862Y23957627D01*
X-16572311Y23957968D01*
X-16013600Y23958285D01*
X-15426005Y23958578D01*
X-14808804Y23958848D01*
X-14161271Y23959096D01*
X-13482684Y23959324D01*
X-12772319Y23959532D01*
X-12029453Y23959721D01*
X-11253362Y23959894D01*
X-10443322Y23960049D01*
X-9598610Y23960190D01*
X-8718502Y23960317D01*
X-7802275Y23960430D01*
X-6849206Y23960531D01*
X-5858570Y23960622D01*
X-4829644Y23960702D01*
X-3761705Y23960774D01*
X-2654028Y23960838D01*
X-1505892Y23960896D01*
X-316571Y23960947D01*
X402636Y23960976D01*
X24252158Y23961885D01*
X24367383Y23918773D01*
M02*
