G04 #@! TF.GenerationSoftware,KiCad,Pcbnew,5.1.5+dfsg1-2build2*
G04 #@! TF.CreationDate,2021-04-12T21:05:11-04:00*
G04 #@! TF.ProjectId,brick_tile,62726963-6b5f-4746-996c-652e6b696361,rev?*
G04 #@! TF.SameCoordinates,Original*
G04 #@! TF.FileFunction,Copper,L2,Bot*
G04 #@! TF.FilePolarity,Positive*
%FSLAX46Y46*%
G04 Gerber Fmt 4.6, Leading zero omitted, Abs format (unit mm)*
G04 Created by KiCad (PCBNEW 5.1.5+dfsg1-2build2) date 2021-04-12 21:05:11*
%MOMM*%
%LPD*%
G04 APERTURE LIST*
%ADD10C,0.010000*%
G04 APERTURE END LIST*
D10*
G36*
X-2915Y24929057D02*
G01*
X14399884Y24923750D01*
X17831401Y18986500D01*
X18131778Y18466783D01*
X18451310Y17913925D01*
X18787966Y17331436D01*
X19139718Y16722828D01*
X19504537Y16091612D01*
X19880393Y15441298D01*
X20265257Y14775397D01*
X20657101Y14097421D01*
X21053894Y13410880D01*
X21453607Y12719285D01*
X21854213Y12026147D01*
X22253680Y11334978D01*
X22649981Y10649287D01*
X23041086Y9972586D01*
X23424966Y9308385D01*
X23799591Y8660197D01*
X24162933Y8031531D01*
X24512962Y7425899D01*
X24847649Y6846811D01*
X25013618Y6559646D01*
X25294366Y6073853D01*
X25569718Y5597336D01*
X25838915Y5131407D01*
X26101202Y4677380D01*
X26355820Y4236566D01*
X26602011Y3810278D01*
X26839020Y3399830D01*
X27066087Y3006533D01*
X27282457Y2631700D01*
X27487371Y2276645D01*
X27680073Y1942679D01*
X27859804Y1631116D01*
X28025809Y1343268D01*
X28177328Y1080447D01*
X28313605Y843966D01*
X28433883Y635139D01*
X28537405Y455277D01*
X28623412Y305693D01*
X28691148Y187700D01*
X28739855Y102610D01*
X28768776Y51737D01*
X28777239Y36370D01*
X28767588Y15674D01*
X28736872Y-41406D01*
X28685239Y-134614D01*
X28612834Y-263697D01*
X28519803Y-428400D01*
X28406292Y-628470D01*
X28272447Y-863652D01*
X28118414Y-1133692D01*
X27944338Y-1438337D01*
X27750365Y-1777332D01*
X27536642Y-2150423D01*
X27303315Y-2557356D01*
X27050529Y-2997876D01*
X26778429Y-3471731D01*
X26487163Y-3978665D01*
X26176876Y-4518424D01*
X25847714Y-5090756D01*
X25499822Y-5695404D01*
X25133347Y-6332116D01*
X24748435Y-7000637D01*
X24345231Y-7700713D01*
X23923881Y-8432091D01*
X23484532Y-9194515D01*
X23027328Y-9987732D01*
X22552417Y-10811488D01*
X22059944Y-11665528D01*
X21598380Y-12465818D01*
X14406598Y-24934334D01*
X-14392357Y-24934334D01*
X-14422234Y-24886709D01*
X-14434514Y-24865697D01*
X-14467302Y-24809184D01*
X-14519930Y-24718326D01*
X-14591730Y-24594278D01*
X-14682035Y-24438195D01*
X-14790176Y-24251234D01*
X-14915487Y-24034550D01*
X-15057299Y-23789299D01*
X-15214944Y-23516635D01*
X-15387756Y-23217716D01*
X-15575066Y-22893696D01*
X-15776206Y-22545731D01*
X-15990509Y-22174976D01*
X-16217307Y-21782588D01*
X-16455933Y-21369722D01*
X-16705719Y-20937534D01*
X-16965997Y-20487179D01*
X-17236099Y-20019812D01*
X-17515357Y-19536590D01*
X-17803105Y-19038668D01*
X-18098674Y-18527201D01*
X-18401396Y-18003346D01*
X-18710604Y-17468258D01*
X-19025631Y-16923092D01*
X-19345807Y-16369005D01*
X-19670467Y-15807151D01*
X-19998941Y-15238686D01*
X-20330563Y-14664767D01*
X-20664665Y-14086548D01*
X-21000578Y-13505186D01*
X-21337636Y-12921835D01*
X-21675170Y-12337652D01*
X-22012513Y-11753792D01*
X-22348997Y-11171410D01*
X-22683954Y-10591663D01*
X-23016718Y-10015706D01*
X-23346619Y-9444695D01*
X-23672990Y-8879784D01*
X-23995164Y-8322131D01*
X-24312473Y-7772890D01*
X-24624250Y-7233217D01*
X-24929825Y-6704268D01*
X-25228533Y-6187198D01*
X-25519704Y-5683163D01*
X-25802672Y-5193319D01*
X-26076769Y-4718821D01*
X-26341326Y-4260824D01*
X-26595677Y-3820485D01*
X-26839154Y-3398959D01*
X-27071088Y-2997402D01*
X-27290813Y-2616969D01*
X-27497660Y-2258816D01*
X-27690961Y-1924098D01*
X-27870050Y-1613972D01*
X-28034258Y-1329592D01*
X-28182918Y-1072115D01*
X-28315362Y-842695D01*
X-28430922Y-642490D01*
X-28528930Y-472653D01*
X-28608720Y-334342D01*
X-28669622Y-228711D01*
X-28710970Y-156916D01*
X-28732096Y-120112D01*
X-28734533Y-115812D01*
X-28793790Y-9374D01*
X-28751762Y63500D01*
X-8984467Y63500D01*
X-8984152Y-158719D01*
X-8982274Y-346996D01*
X-8978261Y-509710D01*
X-8971541Y-655240D01*
X-8961542Y-791967D01*
X-8947692Y-928270D01*
X-8929419Y-1072528D01*
X-8906150Y-1233120D01*
X-8887833Y-1351775D01*
X-8775992Y-1935999D01*
X-8625700Y-2512459D01*
X-8438501Y-3078297D01*
X-8215939Y-3630654D01*
X-7959559Y-4166671D01*
X-7670904Y-4683489D01*
X-7351520Y-5178249D01*
X-7002950Y-5648092D01*
X-6626740Y-6090160D01*
X-6224432Y-6501594D01*
X-5990352Y-6715762D01*
X-5528550Y-7096271D01*
X-5044781Y-7446656D01*
X-4543760Y-7763950D01*
X-4030202Y-8045184D01*
X-3508821Y-8287391D01*
X-3464600Y-8305957D01*
X-3034603Y-8472578D01*
X-2603376Y-8614057D01*
X-2164973Y-8731597D01*
X-1713444Y-8826403D01*
X-1242843Y-8899679D01*
X-747222Y-8952628D01*
X-220634Y-8986455D01*
X-74083Y-8992405D01*
X-26127Y-8992271D01*
X55659Y-8990048D01*
X162838Y-8986049D01*
X286974Y-8980586D01*
X412750Y-8974336D01*
X903078Y-8938367D01*
X1366062Y-8882407D01*
X1812694Y-8804426D01*
X2253966Y-8702391D01*
X2700869Y-8574270D01*
X2868084Y-8520432D01*
X3398670Y-8326758D01*
X3908523Y-8104217D01*
X4393160Y-7855041D01*
X4848096Y-7581460D01*
X5101888Y-7408701D01*
X5552037Y-7072085D01*
X5964065Y-6730764D01*
X6342180Y-6380615D01*
X6690592Y-6017513D01*
X7013509Y-5637335D01*
X7305658Y-5249334D01*
X7642815Y-4738287D01*
X7944316Y-4205920D01*
X8209387Y-3654778D01*
X8437254Y-3087404D01*
X8627143Y-2506341D01*
X8778282Y-1914133D01*
X8889896Y-1313324D01*
X8961211Y-706457D01*
X8991454Y-96077D01*
X8989165Y285750D01*
X8967996Y724109D01*
X8928181Y1142902D01*
X8868005Y1550630D01*
X8785757Y1955795D01*
X8679722Y2366899D01*
X8548188Y2792442D01*
X8398526Y3216546D01*
X8173678Y3761071D01*
X7910459Y4289360D01*
X7610273Y4799667D01*
X7274527Y5290249D01*
X6904624Y5759358D01*
X6501971Y6205250D01*
X6067973Y6626180D01*
X5604034Y7020401D01*
X5111559Y7386169D01*
X4957987Y7490406D01*
X4428777Y7816908D01*
X3881866Y8105052D01*
X3318125Y8354519D01*
X2738431Y8564992D01*
X2143655Y8736151D01*
X1534674Y8867679D01*
X931334Y8957080D01*
X807142Y8967846D01*
X648483Y8976019D01*
X463140Y8981645D01*
X258897Y8984769D01*
X43538Y8985437D01*
X-175153Y8983695D01*
X-389394Y8979588D01*
X-591400Y8973163D01*
X-773387Y8964464D01*
X-927573Y8953539D01*
X-1005416Y8945710D01*
X-1617631Y8853594D01*
X-2214557Y8722108D01*
X-2796813Y8551025D01*
X-3365022Y8340117D01*
X-3919805Y8089158D01*
X-4461782Y7797922D01*
X-4910666Y7519975D01*
X-5414078Y7164733D01*
X-5891052Y6779194D01*
X-6339598Y6365462D01*
X-6757726Y5925646D01*
X-7143446Y5461852D01*
X-7494766Y4976185D01*
X-7809697Y4470753D01*
X-7836490Y4423833D01*
X-8113057Y3893353D01*
X-8354622Y3340237D01*
X-8560450Y2766712D01*
X-8729802Y2175003D01*
X-8861944Y1567334D01*
X-8936429Y1100666D01*
X-8950221Y993333D01*
X-8961123Y893402D01*
X-8969469Y793695D01*
X-8975591Y687034D01*
X-8979821Y566241D01*
X-8982491Y424136D01*
X-8983935Y253541D01*
X-8984467Y63500D01*
X-28751762Y63500D01*
X-27823644Y1672771D01*
X-27714140Y1862637D01*
X-27584398Y2087588D01*
X-27435331Y2346041D01*
X-27267852Y2636411D01*
X-27082876Y2957114D01*
X-26881316Y3306565D01*
X-26664087Y3683181D01*
X-26432101Y4085377D01*
X-26186274Y4511569D01*
X-25927518Y4960173D01*
X-25656748Y5429604D01*
X-25374877Y5918279D01*
X-25082819Y6424612D01*
X-24781488Y6947021D01*
X-24471798Y7483920D01*
X-24154662Y8033725D01*
X-23830995Y8594853D01*
X-23501710Y9165718D01*
X-23167721Y9744737D01*
X-22829942Y10330325D01*
X-22489286Y10920899D01*
X-22146668Y11514874D01*
X-21803001Y12110665D01*
X-21459200Y12706689D01*
X-21116177Y13301361D01*
X-20774847Y13893097D01*
X-20436124Y14480313D01*
X-20100921Y15061424D01*
X-19770152Y15634847D01*
X-19444731Y16198997D01*
X-19125572Y16752290D01*
X-18813589Y17293142D01*
X-18509695Y17819968D01*
X-18214805Y18331184D01*
X-17929831Y18825206D01*
X-17655689Y19300450D01*
X-17393291Y19755331D01*
X-17143552Y20188266D01*
X-16907385Y20597669D01*
X-16747035Y20875640D01*
X-14405715Y24934364D01*
X-2915Y24929057D01*
G37*
X-2915Y24929057D02*
X14399884Y24923750D01*
X17831401Y18986500D01*
X18131778Y18466783D01*
X18451310Y17913925D01*
X18787966Y17331436D01*
X19139718Y16722828D01*
X19504537Y16091612D01*
X19880393Y15441298D01*
X20265257Y14775397D01*
X20657101Y14097421D01*
X21053894Y13410880D01*
X21453607Y12719285D01*
X21854213Y12026147D01*
X22253680Y11334978D01*
X22649981Y10649287D01*
X23041086Y9972586D01*
X23424966Y9308385D01*
X23799591Y8660197D01*
X24162933Y8031531D01*
X24512962Y7425899D01*
X24847649Y6846811D01*
X25013618Y6559646D01*
X25294366Y6073853D01*
X25569718Y5597336D01*
X25838915Y5131407D01*
X26101202Y4677380D01*
X26355820Y4236566D01*
X26602011Y3810278D01*
X26839020Y3399830D01*
X27066087Y3006533D01*
X27282457Y2631700D01*
X27487371Y2276645D01*
X27680073Y1942679D01*
X27859804Y1631116D01*
X28025809Y1343268D01*
X28177328Y1080447D01*
X28313605Y843966D01*
X28433883Y635139D01*
X28537405Y455277D01*
X28623412Y305693D01*
X28691148Y187700D01*
X28739855Y102610D01*
X28768776Y51737D01*
X28777239Y36370D01*
X28767588Y15674D01*
X28736872Y-41406D01*
X28685239Y-134614D01*
X28612834Y-263697D01*
X28519803Y-428400D01*
X28406292Y-628470D01*
X28272447Y-863652D01*
X28118414Y-1133692D01*
X27944338Y-1438337D01*
X27750365Y-1777332D01*
X27536642Y-2150423D01*
X27303315Y-2557356D01*
X27050529Y-2997876D01*
X26778429Y-3471731D01*
X26487163Y-3978665D01*
X26176876Y-4518424D01*
X25847714Y-5090756D01*
X25499822Y-5695404D01*
X25133347Y-6332116D01*
X24748435Y-7000637D01*
X24345231Y-7700713D01*
X23923881Y-8432091D01*
X23484532Y-9194515D01*
X23027328Y-9987732D01*
X22552417Y-10811488D01*
X22059944Y-11665528D01*
X21598380Y-12465818D01*
X14406598Y-24934334D01*
X-14392357Y-24934334D01*
X-14422234Y-24886709D01*
X-14434514Y-24865697D01*
X-14467302Y-24809184D01*
X-14519930Y-24718326D01*
X-14591730Y-24594278D01*
X-14682035Y-24438195D01*
X-14790176Y-24251234D01*
X-14915487Y-24034550D01*
X-15057299Y-23789299D01*
X-15214944Y-23516635D01*
X-15387756Y-23217716D01*
X-15575066Y-22893696D01*
X-15776206Y-22545731D01*
X-15990509Y-22174976D01*
X-16217307Y-21782588D01*
X-16455933Y-21369722D01*
X-16705719Y-20937534D01*
X-16965997Y-20487179D01*
X-17236099Y-20019812D01*
X-17515357Y-19536590D01*
X-17803105Y-19038668D01*
X-18098674Y-18527201D01*
X-18401396Y-18003346D01*
X-18710604Y-17468258D01*
X-19025631Y-16923092D01*
X-19345807Y-16369005D01*
X-19670467Y-15807151D01*
X-19998941Y-15238686D01*
X-20330563Y-14664767D01*
X-20664665Y-14086548D01*
X-21000578Y-13505186D01*
X-21337636Y-12921835D01*
X-21675170Y-12337652D01*
X-22012513Y-11753792D01*
X-22348997Y-11171410D01*
X-22683954Y-10591663D01*
X-23016718Y-10015706D01*
X-23346619Y-9444695D01*
X-23672990Y-8879784D01*
X-23995164Y-8322131D01*
X-24312473Y-7772890D01*
X-24624250Y-7233217D01*
X-24929825Y-6704268D01*
X-25228533Y-6187198D01*
X-25519704Y-5683163D01*
X-25802672Y-5193319D01*
X-26076769Y-4718821D01*
X-26341326Y-4260824D01*
X-26595677Y-3820485D01*
X-26839154Y-3398959D01*
X-27071088Y-2997402D01*
X-27290813Y-2616969D01*
X-27497660Y-2258816D01*
X-27690961Y-1924098D01*
X-27870050Y-1613972D01*
X-28034258Y-1329592D01*
X-28182918Y-1072115D01*
X-28315362Y-842695D01*
X-28430922Y-642490D01*
X-28528930Y-472653D01*
X-28608720Y-334342D01*
X-28669622Y-228711D01*
X-28710970Y-156916D01*
X-28732096Y-120112D01*
X-28734533Y-115812D01*
X-28793790Y-9374D01*
X-28751762Y63500D01*
X-8984467Y63500D01*
X-8984152Y-158719D01*
X-8982274Y-346996D01*
X-8978261Y-509710D01*
X-8971541Y-655240D01*
X-8961542Y-791967D01*
X-8947692Y-928270D01*
X-8929419Y-1072528D01*
X-8906150Y-1233120D01*
X-8887833Y-1351775D01*
X-8775992Y-1935999D01*
X-8625700Y-2512459D01*
X-8438501Y-3078297D01*
X-8215939Y-3630654D01*
X-7959559Y-4166671D01*
X-7670904Y-4683489D01*
X-7351520Y-5178249D01*
X-7002950Y-5648092D01*
X-6626740Y-6090160D01*
X-6224432Y-6501594D01*
X-5990352Y-6715762D01*
X-5528550Y-7096271D01*
X-5044781Y-7446656D01*
X-4543760Y-7763950D01*
X-4030202Y-8045184D01*
X-3508821Y-8287391D01*
X-3464600Y-8305957D01*
X-3034603Y-8472578D01*
X-2603376Y-8614057D01*
X-2164973Y-8731597D01*
X-1713444Y-8826403D01*
X-1242843Y-8899679D01*
X-747222Y-8952628D01*
X-220634Y-8986455D01*
X-74083Y-8992405D01*
X-26127Y-8992271D01*
X55659Y-8990048D01*
X162838Y-8986049D01*
X286974Y-8980586D01*
X412750Y-8974336D01*
X903078Y-8938367D01*
X1366062Y-8882407D01*
X1812694Y-8804426D01*
X2253966Y-8702391D01*
X2700869Y-8574270D01*
X2868084Y-8520432D01*
X3398670Y-8326758D01*
X3908523Y-8104217D01*
X4393160Y-7855041D01*
X4848096Y-7581460D01*
X5101888Y-7408701D01*
X5552037Y-7072085D01*
X5964065Y-6730764D01*
X6342180Y-6380615D01*
X6690592Y-6017513D01*
X7013509Y-5637335D01*
X7305658Y-5249334D01*
X7642815Y-4738287D01*
X7944316Y-4205920D01*
X8209387Y-3654778D01*
X8437254Y-3087404D01*
X8627143Y-2506341D01*
X8778282Y-1914133D01*
X8889896Y-1313324D01*
X8961211Y-706457D01*
X8991454Y-96077D01*
X8989165Y285750D01*
X8967996Y724109D01*
X8928181Y1142902D01*
X8868005Y1550630D01*
X8785757Y1955795D01*
X8679722Y2366899D01*
X8548188Y2792442D01*
X8398526Y3216546D01*
X8173678Y3761071D01*
X7910459Y4289360D01*
X7610273Y4799667D01*
X7274527Y5290249D01*
X6904624Y5759358D01*
X6501971Y6205250D01*
X6067973Y6626180D01*
X5604034Y7020401D01*
X5111559Y7386169D01*
X4957987Y7490406D01*
X4428777Y7816908D01*
X3881866Y8105052D01*
X3318125Y8354519D01*
X2738431Y8564992D01*
X2143655Y8736151D01*
X1534674Y8867679D01*
X931334Y8957080D01*
X807142Y8967846D01*
X648483Y8976019D01*
X463140Y8981645D01*
X258897Y8984769D01*
X43538Y8985437D01*
X-175153Y8983695D01*
X-389394Y8979588D01*
X-591400Y8973163D01*
X-773387Y8964464D01*
X-927573Y8953539D01*
X-1005416Y8945710D01*
X-1617631Y8853594D01*
X-2214557Y8722108D01*
X-2796813Y8551025D01*
X-3365022Y8340117D01*
X-3919805Y8089158D01*
X-4461782Y7797922D01*
X-4910666Y7519975D01*
X-5414078Y7164733D01*
X-5891052Y6779194D01*
X-6339598Y6365462D01*
X-6757726Y5925646D01*
X-7143446Y5461852D01*
X-7494766Y4976185D01*
X-7809697Y4470753D01*
X-7836490Y4423833D01*
X-8113057Y3893353D01*
X-8354622Y3340237D01*
X-8560450Y2766712D01*
X-8729802Y2175003D01*
X-8861944Y1567334D01*
X-8936429Y1100666D01*
X-8950221Y993333D01*
X-8961123Y893402D01*
X-8969469Y793695D01*
X-8975591Y687034D01*
X-8979821Y566241D01*
X-8982491Y424136D01*
X-8983935Y253541D01*
X-8984467Y63500D01*
X-28751762Y63500D01*
X-27823644Y1672771D01*
X-27714140Y1862637D01*
X-27584398Y2087588D01*
X-27435331Y2346041D01*
X-27267852Y2636411D01*
X-27082876Y2957114D01*
X-26881316Y3306565D01*
X-26664087Y3683181D01*
X-26432101Y4085377D01*
X-26186274Y4511569D01*
X-25927518Y4960173D01*
X-25656748Y5429604D01*
X-25374877Y5918279D01*
X-25082819Y6424612D01*
X-24781488Y6947021D01*
X-24471798Y7483920D01*
X-24154662Y8033725D01*
X-23830995Y8594853D01*
X-23501710Y9165718D01*
X-23167721Y9744737D01*
X-22829942Y10330325D01*
X-22489286Y10920899D01*
X-22146668Y11514874D01*
X-21803001Y12110665D01*
X-21459200Y12706689D01*
X-21116177Y13301361D01*
X-20774847Y13893097D01*
X-20436124Y14480313D01*
X-20100921Y15061424D01*
X-19770152Y15634847D01*
X-19444731Y16198997D01*
X-19125572Y16752290D01*
X-18813589Y17293142D01*
X-18509695Y17819968D01*
X-18214805Y18331184D01*
X-17929831Y18825206D01*
X-17655689Y19300450D01*
X-17393291Y19755331D01*
X-17143552Y20188266D01*
X-16907385Y20597669D01*
X-16747035Y20875640D01*
X-14405715Y24934364D01*
X-2915Y24929057D01*
M02*
