<?xml version="1.0" encoding="UTF-8" standalone="no"?>
<svg
   xmlns:dc="http://purl.org/dc/elements/1.1/"
   xmlns:cc="http://creativecommons.org/ns#"
   xmlns:rdf="http://www.w3.org/1999/02/22-rdf-syntax-ns#"
   xmlns:svg="http://www.w3.org/2000/svg"
   xmlns="http://www.w3.org/2000/svg"
   xmlns:sodipodi="http://sodipodi.sourceforge.net/DTD/sodipodi-0.dtd"
   xmlns:inkscape="http://www.inkscape.org/namespaces/inkscape"
   width="70.0mm"
   height="70.0mm"
   viewBox="0 0 70.0 70.0"
   version="1.1"
   id="svg8"
   sodipodi:docname="special_card_template.svg"
   inkscape:version="1.0.2 (394de47547, 2021-03-26)">
  <defs
     id="defs2" />
  <sodipodi:namedview
     id="base"
     pagecolor="#ffffff"
     bordercolor="#666666"
     borderopacity="1.0"
     inkscape:pageopacity="0.0"
     inkscape:pageshadow="2"
     inkscape:zoom="3.6002232"
     inkscape:cx="164.74535"
     inkscape:cy="139.6069"
     inkscape:document-units="mm"
     inkscape:current-layer="g842"
     inkscape:document-rotation="0"
     showgrid="false"
     inkscape:window-width="2056"
     inkscape:window-height="1133"
     inkscape:window-x="72"
     inkscape:window-y="27"
     inkscape:window-maximized="1" />
  <metadata
     id="metadata5">
    <rdf:RDF>
      <cc:Work
         rdf:about="">
        <dc:format>image/svg+xml</dc:format>
        <dc:type
           rdf:resource="http://purl.org/dc/dcmitype/StillImage" />
        <dc:title />
      </cc:Work>
    </rdf:RDF>
  </metadata>
  <g
     inkscape:label="[fixed] BG"
     inkscape:groupmode="layer"
     sodipodi:insensitive="true"
     id="g840"
     style="display:none">
    <rect
       x="0"
       y="0"
       width="70"
       height="70"
       style="fill:#ffffff;fill-opacity:1;stroke:none"
       id="rect838" />
  </g>
  <g
     inkscape:label="Edge.Cuts"
     inkscape:groupmode="layer"
     id="g842"
     style="display:inline">
    <path
       id="rect866"
       style="fill:none;stroke:#000000;stroke-width:0.0798742;stroke-miterlimit:4;stroke-dasharray:none;stroke-opacity:1"
       d="m 11.637393,10.039937 h 47.525174 l 0.163821,0.0082 0.15895,0.02412 0.153279,0.03924 0.146889,0.05357 0.1397,0.0671 0.131715,0.07984 0.12292,0.0918 0.11335,0.102966 0.10295,0.113333 0.0918,0.122911 0.0799,0.131705 0.0671,0.1397 0.0536,0.146912 0.0392,0.153327 0.0241,0.158949 0.008,0.163782 v 47.525158 l -0.008,0.163822 -0.0241,0.158949 -0.0392,0.153279 -0.0536,0.146889 -0.0671,0.1397 -0.0799,0.131712 -0.0918,0.122927 -0.10295,0.113341 -0.11335,0.102958 -0.12292,0.09177 -0.131715,0.07988 -0.1397,0.06709 -0.146889,0.0536 -0.153279,0.03922 -0.15895,0.02413 -0.163821,0.0082 H 11.637393 l -0.163782,-0.0082 -0.15895,-0.02412 -0.153327,-0.03922 -0.146912,-0.0536 -0.1397,-0.06709 -0.131705,-0.07988 -0.12291,-0.09177 -0.113334,-0.102958 -0.102966,-0.113341 -0.0918,-0.122927 -0.07984,-0.131712 -0.0671,-0.1397 -0.05357,-0.146889 -0.03924,-0.153279 -0.02412,-0.158949 -0.0082,-0.163822 V 11.637421 l 0.0082,-0.163782 0.02412,-0.158949 0.03924,-0.153327 0.05357,-0.146912 0.0671,-0.139701 0.07984,-0.131704 0.0918,-0.122911 0.102966,-0.113333 0.113334,-0.102966 0.12291,-0.0918 0.131705,-0.07984 0.1397,-0.0671 0.146912,-0.05357 0.153327,-0.03924 0.15895,-0.02412 0.163782,-0.0082 v 0" />
  </g>
  <g
     inkscape:label="B.Cu-disabled"
     inkscape:groupmode="layer"
     id="g844" />
  <g
     inkscape:label="B.Mask-disabled"
     inkscape:groupmode="layer"
     id="g846" />
  <g
     inkscape:label="B.SilkS"
     inkscape:groupmode="layer"
     id="g848"
     style="display:inline" />
  <g
     inkscape:label="F.Cu-disabled"
     inkscape:groupmode="layer"
     id="g850" />
  <g
     inkscape:label="F.Mask-disabled"
     inkscape:groupmode="layer"
     id="g852" />
  <g
     inkscape:label="F.SilkS"
     inkscape:groupmode="layer"
     id="g854"
     style="display:inline" />
</svg>
