G04 #@! TF.GenerationSoftware,KiCad,Pcbnew,5.1.5+dfsg1-2build2*
G04 #@! TF.CreationDate,2021-06-03T20:46:49-04:00*
G04 #@! TF.ProjectId,case_emblem,63617365-5f65-46d6-926c-656d2e6b6963,rev?*
G04 #@! TF.SameCoordinates,Original*
G04 #@! TF.FileFunction,Copper,L2,Bot*
G04 #@! TF.FilePolarity,Positive*
%FSLAX46Y46*%
G04 Gerber Fmt 4.6, Leading zero omitted, Abs format (unit mm)*
G04 Created by KiCad (PCBNEW 5.1.5+dfsg1-2build2) date 2021-06-03 20:46:49*
%MOMM*%
%LPD*%
G04 APERTURE LIST*
%ADD10C,0.010000*%
G04 APERTURE END LIST*
D10*
G36*
X14399910Y24923750D02*
G01*
X21593190Y12477750D01*
X21982771Y11803661D01*
X22367100Y11138610D01*
X22745631Y10483541D01*
X23117822Y9839396D01*
X23483127Y9207118D01*
X23841001Y8587651D01*
X24190902Y7981938D01*
X24532284Y7390922D01*
X24864603Y6815545D01*
X25187315Y6256752D01*
X25499876Y5715485D01*
X25801740Y5192688D01*
X26092364Y4689303D01*
X26371204Y4206274D01*
X26637715Y3744544D01*
X26891352Y3305056D01*
X27131572Y2888753D01*
X27357830Y2496578D01*
X27569582Y2129474D01*
X27766284Y1788386D01*
X27947390Y1474255D01*
X28112357Y1188024D01*
X28260641Y930638D01*
X28391697Y703039D01*
X28504980Y506170D01*
X28599947Y340974D01*
X28676053Y208395D01*
X28732754Y109375D01*
X28769506Y44859D01*
X28785763Y15788D01*
X28786569Y14132D01*
X28776086Y-5004D01*
X28744990Y-59865D01*
X28693824Y-149506D01*
X28623131Y-272987D01*
X28533454Y-429362D01*
X28425337Y-617689D01*
X28299322Y-837025D01*
X28155953Y-1086427D01*
X27995773Y-1364952D01*
X27819326Y-1671656D01*
X27627153Y-2005597D01*
X27419800Y-2365831D01*
X27197808Y-2751415D01*
X26961722Y-3161407D01*
X26712084Y-3594862D01*
X26449437Y-4050839D01*
X26174325Y-4528393D01*
X25887291Y-5026582D01*
X25588878Y-5544463D01*
X25279630Y-6081092D01*
X24960089Y-6635526D01*
X24630799Y-7206823D01*
X24292303Y-7794039D01*
X23945144Y-8396231D01*
X23589866Y-9012456D01*
X23227011Y-9641771D01*
X22857123Y-10283233D01*
X22480745Y-10935898D01*
X22098421Y-11598824D01*
X21710693Y-12271068D01*
X21596579Y-12468909D01*
X14406490Y-24934334D01*
X-14390268Y-24934334D01*
X-14463431Y-24812625D01*
X-14477978Y-24787719D01*
X-14513030Y-24727321D01*
X-14567914Y-24632592D01*
X-14641958Y-24504697D01*
X-14734491Y-24344799D01*
X-14844839Y-24154061D01*
X-14972332Y-23933645D01*
X-15116296Y-23684716D01*
X-15276060Y-23408436D01*
X-15450951Y-23105968D01*
X-15640298Y-22778476D01*
X-15843429Y-22427122D01*
X-16059670Y-22053071D01*
X-16288350Y-21657484D01*
X-16528798Y-21241525D01*
X-16780340Y-20806358D01*
X-17042305Y-20353145D01*
X-17314020Y-19883050D01*
X-17594814Y-19397235D01*
X-17884013Y-18896865D01*
X-18180948Y-18383101D01*
X-18484944Y-17857108D01*
X-18795330Y-17320048D01*
X-19111433Y-16773084D01*
X-19432583Y-16217380D01*
X-19758106Y-15654099D01*
X-20087330Y-15084404D01*
X-20419583Y-14509457D01*
X-20754194Y-13930423D01*
X-21090490Y-13348465D01*
X-21427798Y-12764745D01*
X-21765447Y-12180426D01*
X-22102765Y-11596673D01*
X-22439079Y-11014647D01*
X-22773718Y-10435513D01*
X-23106009Y-9860432D01*
X-23435280Y-9290570D01*
X-23760859Y-8727087D01*
X-24082074Y-8171149D01*
X-24398252Y-7623917D01*
X-24708722Y-7086556D01*
X-25012812Y-6560227D01*
X-25309849Y-6046095D01*
X-25599161Y-5545322D01*
X-25880076Y-5059072D01*
X-26151922Y-4588508D01*
X-26414027Y-4134793D01*
X-26665719Y-3699089D01*
X-26906325Y-3282561D01*
X-27135174Y-2886372D01*
X-27351593Y-2511683D01*
X-27554910Y-2159660D01*
X-27744454Y-1831464D01*
X-27919551Y-1528259D01*
X-28079530Y-1251209D01*
X-28223719Y-1001475D01*
X-28351445Y-780222D01*
X-28462037Y-588613D01*
X-28554822Y-427810D01*
X-28629128Y-298977D01*
X-28684283Y-203277D01*
X-28719615Y-141873D01*
X-28734452Y-115929D01*
X-28734489Y-115863D01*
X-28793732Y-9477D01*
X-21599948Y12462444D01*
X-14406164Y24934364D01*
X14399910Y24923750D01*
G37*
X14399910Y24923750D02*
X21593190Y12477750D01*
X21982771Y11803661D01*
X22367100Y11138610D01*
X22745631Y10483541D01*
X23117822Y9839396D01*
X23483127Y9207118D01*
X23841001Y8587651D01*
X24190902Y7981938D01*
X24532284Y7390922D01*
X24864603Y6815545D01*
X25187315Y6256752D01*
X25499876Y5715485D01*
X25801740Y5192688D01*
X26092364Y4689303D01*
X26371204Y4206274D01*
X26637715Y3744544D01*
X26891352Y3305056D01*
X27131572Y2888753D01*
X27357830Y2496578D01*
X27569582Y2129474D01*
X27766284Y1788386D01*
X27947390Y1474255D01*
X28112357Y1188024D01*
X28260641Y930638D01*
X28391697Y703039D01*
X28504980Y506170D01*
X28599947Y340974D01*
X28676053Y208395D01*
X28732754Y109375D01*
X28769506Y44859D01*
X28785763Y15788D01*
X28786569Y14132D01*
X28776086Y-5004D01*
X28744990Y-59865D01*
X28693824Y-149506D01*
X28623131Y-272987D01*
X28533454Y-429362D01*
X28425337Y-617689D01*
X28299322Y-837025D01*
X28155953Y-1086427D01*
X27995773Y-1364952D01*
X27819326Y-1671656D01*
X27627153Y-2005597D01*
X27419800Y-2365831D01*
X27197808Y-2751415D01*
X26961722Y-3161407D01*
X26712084Y-3594862D01*
X26449437Y-4050839D01*
X26174325Y-4528393D01*
X25887291Y-5026582D01*
X25588878Y-5544463D01*
X25279630Y-6081092D01*
X24960089Y-6635526D01*
X24630799Y-7206823D01*
X24292303Y-7794039D01*
X23945144Y-8396231D01*
X23589866Y-9012456D01*
X23227011Y-9641771D01*
X22857123Y-10283233D01*
X22480745Y-10935898D01*
X22098421Y-11598824D01*
X21710693Y-12271068D01*
X21596579Y-12468909D01*
X14406490Y-24934334D01*
X-14390268Y-24934334D01*
X-14463431Y-24812625D01*
X-14477978Y-24787719D01*
X-14513030Y-24727321D01*
X-14567914Y-24632592D01*
X-14641958Y-24504697D01*
X-14734491Y-24344799D01*
X-14844839Y-24154061D01*
X-14972332Y-23933645D01*
X-15116296Y-23684716D01*
X-15276060Y-23408436D01*
X-15450951Y-23105968D01*
X-15640298Y-22778476D01*
X-15843429Y-22427122D01*
X-16059670Y-22053071D01*
X-16288350Y-21657484D01*
X-16528798Y-21241525D01*
X-16780340Y-20806358D01*
X-17042305Y-20353145D01*
X-17314020Y-19883050D01*
X-17594814Y-19397235D01*
X-17884013Y-18896865D01*
X-18180948Y-18383101D01*
X-18484944Y-17857108D01*
X-18795330Y-17320048D01*
X-19111433Y-16773084D01*
X-19432583Y-16217380D01*
X-19758106Y-15654099D01*
X-20087330Y-15084404D01*
X-20419583Y-14509457D01*
X-20754194Y-13930423D01*
X-21090490Y-13348465D01*
X-21427798Y-12764745D01*
X-21765447Y-12180426D01*
X-22102765Y-11596673D01*
X-22439079Y-11014647D01*
X-22773718Y-10435513D01*
X-23106009Y-9860432D01*
X-23435280Y-9290570D01*
X-23760859Y-8727087D01*
X-24082074Y-8171149D01*
X-24398252Y-7623917D01*
X-24708722Y-7086556D01*
X-25012812Y-6560227D01*
X-25309849Y-6046095D01*
X-25599161Y-5545322D01*
X-25880076Y-5059072D01*
X-26151922Y-4588508D01*
X-26414027Y-4134793D01*
X-26665719Y-3699089D01*
X-26906325Y-3282561D01*
X-27135174Y-2886372D01*
X-27351593Y-2511683D01*
X-27554910Y-2159660D01*
X-27744454Y-1831464D01*
X-27919551Y-1528259D01*
X-28079530Y-1251209D01*
X-28223719Y-1001475D01*
X-28351445Y-780222D01*
X-28462037Y-588613D01*
X-28554822Y-427810D01*
X-28629128Y-298977D01*
X-28684283Y-203277D01*
X-28719615Y-141873D01*
X-28734452Y-115929D01*
X-28734489Y-115863D01*
X-28793732Y-9477D01*
X-21599948Y12462444D01*
X-14406164Y24934364D01*
X14399910Y24923750D01*
M02*
