G04 #@! TF.GenerationSoftware,KiCad,Pcbnew,5.1.5+dfsg1-2build2*
G04 #@! TF.CreationDate,2021-06-03T20:46:49-04:00*
G04 #@! TF.ProjectId,case_emblem,63617365-5f65-46d6-926c-656d2e6b6963,rev?*
G04 #@! TF.SameCoordinates,Original*
G04 #@! TF.FileFunction,Legend,Top*
G04 #@! TF.FilePolarity,Positive*
%FSLAX46Y46*%
G04 Gerber Fmt 4.6, Leading zero omitted, Abs format (unit mm)*
G04 Created by KiCad (PCBNEW 5.1.5+dfsg1-2build2) date 2021-06-03 20:46:49*
%MOMM*%
%LPD*%
G04 APERTURE LIST*
%ADD10C,0.010000*%
G04 APERTURE END LIST*
D10*
G36*
X-11387135Y-18356835D02*
G01*
X-11180708Y-18398794D01*
X-10994494Y-18471807D01*
X-10821773Y-18578561D01*
X-10655823Y-18721747D01*
X-10643376Y-18734116D01*
X-10488103Y-18919064D01*
X-10368834Y-19126162D01*
X-10286084Y-19354479D01*
X-10274753Y-19399250D01*
X-10254211Y-19522140D01*
X-10242271Y-19671543D01*
X-10238943Y-19833160D01*
X-10244232Y-19992695D01*
X-10258147Y-20135849D01*
X-10274320Y-20224165D01*
X-10348298Y-20447211D01*
X-10457136Y-20652619D01*
X-10596998Y-20835630D01*
X-10764044Y-20991481D01*
X-10954437Y-21115414D01*
X-11018219Y-21146891D01*
X-11194086Y-21209695D01*
X-11393790Y-21251158D01*
X-11603867Y-21269961D01*
X-11810853Y-21264785D01*
X-11974133Y-21240582D01*
X-12183672Y-21173911D01*
X-12378556Y-21070189D01*
X-12554856Y-20933318D01*
X-12708639Y-20767201D01*
X-12835975Y-20575739D01*
X-12932932Y-20362834D01*
X-12967382Y-20254696D01*
X-12987736Y-20149623D01*
X-13001055Y-20015441D01*
X-13007319Y-19864591D01*
X-13006943Y-19792919D01*
X-12497375Y-19792919D01*
X-12497298Y-19812000D01*
X-12496191Y-19950552D01*
X-12493593Y-20056140D01*
X-12488522Y-20138132D01*
X-12479994Y-20205895D01*
X-12467025Y-20268795D01*
X-12448633Y-20336201D01*
X-12438830Y-20368842D01*
X-12382150Y-20535216D01*
X-12322081Y-20669120D01*
X-12253522Y-20780380D01*
X-12177570Y-20872256D01*
X-12060803Y-20976651D01*
X-11934587Y-21046702D01*
X-11791183Y-21085321D01*
X-11622854Y-21095422D01*
X-11587652Y-21094368D01*
X-11474605Y-21084999D01*
X-11384107Y-21065047D01*
X-11297313Y-21030483D01*
X-11157742Y-20945023D01*
X-11038254Y-20829081D01*
X-10937107Y-20680155D01*
X-10852559Y-20495744D01*
X-10790752Y-20303034D01*
X-10764166Y-20167958D01*
X-10747825Y-20004524D01*
X-10741726Y-19825451D01*
X-10745870Y-19643456D01*
X-10760253Y-19471258D01*
X-10784875Y-19321574D01*
X-10790873Y-19296079D01*
X-10859712Y-19084554D01*
X-10951873Y-18903461D01*
X-11065294Y-18754498D01*
X-11197915Y-18639361D01*
X-11347674Y-18559747D01*
X-11512509Y-18517352D01*
X-11690360Y-18513872D01*
X-11734915Y-18519040D01*
X-11904193Y-18560745D01*
X-12052197Y-18635641D01*
X-12180140Y-18745003D01*
X-12289232Y-18890108D01*
X-12380686Y-19072233D01*
X-12449982Y-19272533D01*
X-12468282Y-19340333D01*
X-12481349Y-19403474D01*
X-12489988Y-19471129D01*
X-12495001Y-19552472D01*
X-12497196Y-19656678D01*
X-12497375Y-19792919D01*
X-13006943Y-19792919D01*
X-13006505Y-19709511D01*
X-12998592Y-19562640D01*
X-12983558Y-19436418D01*
X-12968921Y-19367500D01*
X-12900665Y-19169001D01*
X-12808886Y-18993790D01*
X-12686624Y-18830038D01*
X-12594713Y-18731335D01*
X-12436942Y-18589968D01*
X-12277260Y-18483770D01*
X-12107742Y-18409584D01*
X-11920465Y-18364253D01*
X-11707505Y-18344621D01*
X-11620500Y-18343239D01*
X-11387135Y-18356835D01*
G37*
X-11387135Y-18356835D02*
X-11180708Y-18398794D01*
X-10994494Y-18471807D01*
X-10821773Y-18578561D01*
X-10655823Y-18721747D01*
X-10643376Y-18734116D01*
X-10488103Y-18919064D01*
X-10368834Y-19126162D01*
X-10286084Y-19354479D01*
X-10274753Y-19399250D01*
X-10254211Y-19522140D01*
X-10242271Y-19671543D01*
X-10238943Y-19833160D01*
X-10244232Y-19992695D01*
X-10258147Y-20135849D01*
X-10274320Y-20224165D01*
X-10348298Y-20447211D01*
X-10457136Y-20652619D01*
X-10596998Y-20835630D01*
X-10764044Y-20991481D01*
X-10954437Y-21115414D01*
X-11018219Y-21146891D01*
X-11194086Y-21209695D01*
X-11393790Y-21251158D01*
X-11603867Y-21269961D01*
X-11810853Y-21264785D01*
X-11974133Y-21240582D01*
X-12183672Y-21173911D01*
X-12378556Y-21070189D01*
X-12554856Y-20933318D01*
X-12708639Y-20767201D01*
X-12835975Y-20575739D01*
X-12932932Y-20362834D01*
X-12967382Y-20254696D01*
X-12987736Y-20149623D01*
X-13001055Y-20015441D01*
X-13007319Y-19864591D01*
X-13006943Y-19792919D01*
X-12497375Y-19792919D01*
X-12497298Y-19812000D01*
X-12496191Y-19950552D01*
X-12493593Y-20056140D01*
X-12488522Y-20138132D01*
X-12479994Y-20205895D01*
X-12467025Y-20268795D01*
X-12448633Y-20336201D01*
X-12438830Y-20368842D01*
X-12382150Y-20535216D01*
X-12322081Y-20669120D01*
X-12253522Y-20780380D01*
X-12177570Y-20872256D01*
X-12060803Y-20976651D01*
X-11934587Y-21046702D01*
X-11791183Y-21085321D01*
X-11622854Y-21095422D01*
X-11587652Y-21094368D01*
X-11474605Y-21084999D01*
X-11384107Y-21065047D01*
X-11297313Y-21030483D01*
X-11157742Y-20945023D01*
X-11038254Y-20829081D01*
X-10937107Y-20680155D01*
X-10852559Y-20495744D01*
X-10790752Y-20303034D01*
X-10764166Y-20167958D01*
X-10747825Y-20004524D01*
X-10741726Y-19825451D01*
X-10745870Y-19643456D01*
X-10760253Y-19471258D01*
X-10784875Y-19321574D01*
X-10790873Y-19296079D01*
X-10859712Y-19084554D01*
X-10951873Y-18903461D01*
X-11065294Y-18754498D01*
X-11197915Y-18639361D01*
X-11347674Y-18559747D01*
X-11512509Y-18517352D01*
X-11690360Y-18513872D01*
X-11734915Y-18519040D01*
X-11904193Y-18560745D01*
X-12052197Y-18635641D01*
X-12180140Y-18745003D01*
X-12289232Y-18890108D01*
X-12380686Y-19072233D01*
X-12449982Y-19272533D01*
X-12468282Y-19340333D01*
X-12481349Y-19403474D01*
X-12489988Y-19471129D01*
X-12495001Y-19552472D01*
X-12497196Y-19656678D01*
X-12497375Y-19792919D01*
X-13006943Y-19792919D01*
X-13006505Y-19709511D01*
X-12998592Y-19562640D01*
X-12983558Y-19436418D01*
X-12968921Y-19367500D01*
X-12900665Y-19169001D01*
X-12808886Y-18993790D01*
X-12686624Y-18830038D01*
X-12594713Y-18731335D01*
X-12436942Y-18589968D01*
X-12277260Y-18483770D01*
X-12107742Y-18409584D01*
X-11920465Y-18364253D01*
X-11707505Y-18344621D01*
X-11620500Y-18343239D01*
X-11387135Y-18356835D01*
G36*
X-7768166Y-19031645D02*
G01*
X-7823610Y-19024948D01*
X-7857007Y-19015204D01*
X-7881275Y-18989096D01*
X-7903597Y-18936679D01*
X-7916698Y-18896126D01*
X-7943791Y-18812347D01*
X-7971038Y-18745740D01*
X-8003414Y-18694336D01*
X-8045892Y-18656170D01*
X-8103447Y-18629272D01*
X-8181053Y-18611674D01*
X-8283683Y-18601410D01*
X-8416313Y-18596511D01*
X-8583915Y-18595009D01*
X-8678077Y-18594917D01*
X-9196403Y-18594917D01*
X-9210031Y-18658417D01*
X-9214173Y-18697971D01*
X-9218045Y-18772636D01*
X-9221424Y-18875190D01*
X-9224090Y-18998413D01*
X-9225820Y-19135081D01*
X-9226162Y-19184500D01*
X-9228666Y-19647084D01*
X-8810625Y-19638227D01*
X-8643519Y-19633578D01*
X-8515155Y-19627393D01*
X-8421963Y-19619387D01*
X-8360368Y-19609275D01*
X-8332677Y-19600097D01*
X-8273566Y-19550823D01*
X-8223053Y-19470283D01*
X-8187340Y-19369479D01*
X-8178772Y-19327109D01*
X-8166716Y-19271746D01*
X-8147608Y-19246823D01*
X-8111296Y-19240559D01*
X-8104128Y-19240500D01*
X-8043333Y-19240500D01*
X-8043333Y-20235334D01*
X-8104046Y-20235334D01*
X-8144339Y-20230565D01*
X-8164572Y-20208165D01*
X-8175398Y-20155995D01*
X-8175713Y-20153666D01*
X-8203526Y-20042845D01*
X-8251795Y-19950438D01*
X-8314635Y-19887127D01*
X-8326646Y-19879859D01*
X-8356980Y-19866866D01*
X-8398359Y-19856949D01*
X-8456943Y-19849560D01*
X-8538894Y-19844152D01*
X-8650376Y-19840177D01*
X-8797551Y-19837088D01*
X-8810625Y-19836870D01*
X-9228666Y-19829989D01*
X-9227525Y-20239036D01*
X-9226205Y-20380327D01*
X-9223247Y-20519934D01*
X-9218992Y-20647352D01*
X-9213781Y-20752071D01*
X-9208746Y-20816456D01*
X-9197577Y-20905402D01*
X-9184154Y-20963509D01*
X-9164601Y-21002238D01*
X-9135721Y-21032471D01*
X-9075695Y-21068784D01*
X-9005363Y-21092110D01*
X-9001041Y-21092860D01*
X-8915461Y-21107494D01*
X-8863534Y-21119936D01*
X-8836964Y-21133711D01*
X-8827461Y-21152346D01*
X-8826500Y-21167070D01*
X-8827854Y-21179248D01*
X-8834963Y-21188807D01*
X-8852392Y-21196064D01*
X-8884711Y-21201335D01*
X-8936485Y-21204939D01*
X-9012283Y-21207190D01*
X-9116671Y-21208406D01*
X-9254218Y-21208904D01*
X-9429490Y-21209000D01*
X-10035944Y-21209000D01*
X-10029180Y-21161565D01*
X-10017448Y-21131052D01*
X-9985905Y-21112650D01*
X-9923491Y-21100052D01*
X-9920548Y-21099630D01*
X-9817393Y-21074898D01*
X-9747822Y-21032221D01*
X-9705150Y-20966709D01*
X-9694439Y-20934225D01*
X-9688487Y-20889146D01*
X-9683729Y-20802477D01*
X-9680165Y-20674096D01*
X-9677793Y-20503881D01*
X-9676609Y-20291711D01*
X-9676614Y-20037463D01*
X-9677732Y-19754127D01*
X-9679126Y-19503356D01*
X-9680551Y-19291476D01*
X-9682344Y-19115047D01*
X-9684842Y-18970628D01*
X-9688384Y-18854776D01*
X-9693305Y-18764052D01*
X-9699943Y-18695015D01*
X-9708635Y-18644223D01*
X-9719719Y-18608236D01*
X-9733531Y-18583613D01*
X-9750408Y-18566912D01*
X-9770689Y-18554693D01*
X-9794709Y-18543515D01*
X-9796430Y-18542732D01*
X-9850502Y-18524885D01*
X-9921193Y-18509560D01*
X-9940445Y-18506599D01*
X-9998814Y-18495380D01*
X-10025960Y-18478006D01*
X-10032976Y-18446962D01*
X-10033000Y-18443873D01*
X-10033000Y-18393834D01*
X-7768166Y-18393834D01*
X-7768166Y-19031645D01*
G37*
X-7768166Y-19031645D02*
X-7823610Y-19024948D01*
X-7857007Y-19015204D01*
X-7881275Y-18989096D01*
X-7903597Y-18936679D01*
X-7916698Y-18896126D01*
X-7943791Y-18812347D01*
X-7971038Y-18745740D01*
X-8003414Y-18694336D01*
X-8045892Y-18656170D01*
X-8103447Y-18629272D01*
X-8181053Y-18611674D01*
X-8283683Y-18601410D01*
X-8416313Y-18596511D01*
X-8583915Y-18595009D01*
X-8678077Y-18594917D01*
X-9196403Y-18594917D01*
X-9210031Y-18658417D01*
X-9214173Y-18697971D01*
X-9218045Y-18772636D01*
X-9221424Y-18875190D01*
X-9224090Y-18998413D01*
X-9225820Y-19135081D01*
X-9226162Y-19184500D01*
X-9228666Y-19647084D01*
X-8810625Y-19638227D01*
X-8643519Y-19633578D01*
X-8515155Y-19627393D01*
X-8421963Y-19619387D01*
X-8360368Y-19609275D01*
X-8332677Y-19600097D01*
X-8273566Y-19550823D01*
X-8223053Y-19470283D01*
X-8187340Y-19369479D01*
X-8178772Y-19327109D01*
X-8166716Y-19271746D01*
X-8147608Y-19246823D01*
X-8111296Y-19240559D01*
X-8104128Y-19240500D01*
X-8043333Y-19240500D01*
X-8043333Y-20235334D01*
X-8104046Y-20235334D01*
X-8144339Y-20230565D01*
X-8164572Y-20208165D01*
X-8175398Y-20155995D01*
X-8175713Y-20153666D01*
X-8203526Y-20042845D01*
X-8251795Y-19950438D01*
X-8314635Y-19887127D01*
X-8326646Y-19879859D01*
X-8356980Y-19866866D01*
X-8398359Y-19856949D01*
X-8456943Y-19849560D01*
X-8538894Y-19844152D01*
X-8650376Y-19840177D01*
X-8797551Y-19837088D01*
X-8810625Y-19836870D01*
X-9228666Y-19829989D01*
X-9227525Y-20239036D01*
X-9226205Y-20380327D01*
X-9223247Y-20519934D01*
X-9218992Y-20647352D01*
X-9213781Y-20752071D01*
X-9208746Y-20816456D01*
X-9197577Y-20905402D01*
X-9184154Y-20963509D01*
X-9164601Y-21002238D01*
X-9135721Y-21032471D01*
X-9075695Y-21068784D01*
X-9005363Y-21092110D01*
X-9001041Y-21092860D01*
X-8915461Y-21107494D01*
X-8863534Y-21119936D01*
X-8836964Y-21133711D01*
X-8827461Y-21152346D01*
X-8826500Y-21167070D01*
X-8827854Y-21179248D01*
X-8834963Y-21188807D01*
X-8852392Y-21196064D01*
X-8884711Y-21201335D01*
X-8936485Y-21204939D01*
X-9012283Y-21207190D01*
X-9116671Y-21208406D01*
X-9254218Y-21208904D01*
X-9429490Y-21209000D01*
X-10035944Y-21209000D01*
X-10029180Y-21161565D01*
X-10017448Y-21131052D01*
X-9985905Y-21112650D01*
X-9923491Y-21100052D01*
X-9920548Y-21099630D01*
X-9817393Y-21074898D01*
X-9747822Y-21032221D01*
X-9705150Y-20966709D01*
X-9694439Y-20934225D01*
X-9688487Y-20889146D01*
X-9683729Y-20802477D01*
X-9680165Y-20674096D01*
X-9677793Y-20503881D01*
X-9676609Y-20291711D01*
X-9676614Y-20037463D01*
X-9677732Y-19754127D01*
X-9679126Y-19503356D01*
X-9680551Y-19291476D01*
X-9682344Y-19115047D01*
X-9684842Y-18970628D01*
X-9688384Y-18854776D01*
X-9693305Y-18764052D01*
X-9699943Y-18695015D01*
X-9708635Y-18644223D01*
X-9719719Y-18608236D01*
X-9733531Y-18583613D01*
X-9750408Y-18566912D01*
X-9770689Y-18554693D01*
X-9794709Y-18543515D01*
X-9796430Y-18542732D01*
X-9850502Y-18524885D01*
X-9921193Y-18509560D01*
X-9940445Y-18506599D01*
X-9998814Y-18495380D01*
X-10025960Y-18478006D01*
X-10032976Y-18446962D01*
X-10033000Y-18443873D01*
X-10033000Y-18393834D01*
X-7768166Y-18393834D01*
X-7768166Y-19031645D01*
G36*
X9915512Y-6214731D02*
G01*
X10013160Y-6216336D01*
X10094727Y-6219090D01*
X10161965Y-6222997D01*
X10216621Y-6228060D01*
X10260446Y-6234283D01*
X10295187Y-6241671D01*
X10322596Y-6250227D01*
X10344420Y-6259955D01*
X10362410Y-6270860D01*
X10378314Y-6282945D01*
X10393882Y-6296214D01*
X10410863Y-6310671D01*
X10423738Y-6320898D01*
X10510570Y-6409752D01*
X10581009Y-6525576D01*
X10627076Y-6653851D01*
X10637484Y-6709834D01*
X10637535Y-6732464D01*
X10633741Y-6772459D01*
X10625787Y-6831507D01*
X10613357Y-6911299D01*
X10596135Y-7013523D01*
X10573805Y-7139870D01*
X10546051Y-7292029D01*
X10512558Y-7471689D01*
X10473009Y-7680541D01*
X10427089Y-7920274D01*
X10374483Y-8192576D01*
X10314874Y-8499139D01*
X10247947Y-8841652D01*
X10173385Y-9221804D01*
X10090874Y-9641284D01*
X10065830Y-9768417D01*
X9996666Y-10119063D01*
X9929236Y-10460233D01*
X9864041Y-10789420D01*
X9801583Y-11104117D01*
X9742365Y-11401818D01*
X9686887Y-11680015D01*
X9635653Y-11936202D01*
X9589164Y-12167872D01*
X9547922Y-12372518D01*
X9512429Y-12547632D01*
X9483187Y-12690710D01*
X9460698Y-12799242D01*
X9445464Y-12870723D01*
X9438885Y-12899363D01*
X9327693Y-13248850D01*
X9178969Y-13582202D01*
X8995314Y-13896750D01*
X8779330Y-14189829D01*
X8533618Y-14458771D01*
X8260779Y-14700910D01*
X7963416Y-14913577D01*
X7644128Y-15094105D01*
X7305519Y-15239829D01*
X7085759Y-15311893D01*
X7004632Y-15334733D01*
X6928368Y-15354323D01*
X6850522Y-15371782D01*
X6764650Y-15388230D01*
X6664306Y-15404785D01*
X6543046Y-15422566D01*
X6394425Y-15442694D01*
X6211997Y-15466285D01*
X6154203Y-15473636D01*
X5973936Y-15496155D01*
X5829301Y-15513014D01*
X5713997Y-15524363D01*
X5621724Y-15530351D01*
X5546181Y-15531128D01*
X5481067Y-15526842D01*
X5420081Y-15517642D01*
X5356922Y-15503679D01*
X5316868Y-15493471D01*
X5221263Y-15464038D01*
X5124349Y-15427198D01*
X5053387Y-15394095D01*
X4946362Y-15324349D01*
X4834322Y-15231699D01*
X4730999Y-15128822D01*
X4650129Y-15028391D01*
X4639222Y-15011874D01*
X4624530Y-14982698D01*
X4593811Y-14916598D01*
X4547901Y-14815478D01*
X4487642Y-14681244D01*
X4413870Y-14515798D01*
X4327427Y-14321046D01*
X4229149Y-14098892D01*
X4119878Y-13851240D01*
X4000450Y-13579993D01*
X3871706Y-13287058D01*
X3734485Y-12974337D01*
X3589624Y-12643735D01*
X3437964Y-12297157D01*
X3280343Y-11936506D01*
X3117600Y-11563686D01*
X2950575Y-11180603D01*
X2889199Y-11039722D01*
X2678520Y-10555829D01*
X2484357Y-10109444D01*
X2306180Y-9699322D01*
X2143459Y-9324223D01*
X1995664Y-8982902D01*
X1862266Y-8674118D01*
X1742734Y-8396628D01*
X1636539Y-8149190D01*
X1543149Y-7930559D01*
X1462037Y-7739495D01*
X1392670Y-7574754D01*
X1334520Y-7435094D01*
X1287057Y-7319272D01*
X1249750Y-7226045D01*
X1222070Y-7154171D01*
X1203486Y-7102407D01*
X1193469Y-7069510D01*
X1191397Y-7058802D01*
X1196056Y-6907945D01*
X1239334Y-6766695D01*
X1317642Y-6641399D01*
X1427394Y-6538405D01*
X1515375Y-6485698D01*
X1632659Y-6428317D01*
X5880455Y-6310652D01*
X6386896Y-6296591D01*
X6852768Y-6283624D01*
X7279819Y-6271753D01*
X7669798Y-6260984D01*
X8024456Y-6251320D01*
X8345540Y-6242765D01*
X8634801Y-6235324D01*
X8893988Y-6228999D01*
X9124850Y-6223796D01*
X9329137Y-6219717D01*
X9508597Y-6216767D01*
X9664980Y-6214950D01*
X9800035Y-6214270D01*
X9915512Y-6214731D01*
G37*
X9915512Y-6214731D02*
X10013160Y-6216336D01*
X10094727Y-6219090D01*
X10161965Y-6222997D01*
X10216621Y-6228060D01*
X10260446Y-6234283D01*
X10295187Y-6241671D01*
X10322596Y-6250227D01*
X10344420Y-6259955D01*
X10362410Y-6270860D01*
X10378314Y-6282945D01*
X10393882Y-6296214D01*
X10410863Y-6310671D01*
X10423738Y-6320898D01*
X10510570Y-6409752D01*
X10581009Y-6525576D01*
X10627076Y-6653851D01*
X10637484Y-6709834D01*
X10637535Y-6732464D01*
X10633741Y-6772459D01*
X10625787Y-6831507D01*
X10613357Y-6911299D01*
X10596135Y-7013523D01*
X10573805Y-7139870D01*
X10546051Y-7292029D01*
X10512558Y-7471689D01*
X10473009Y-7680541D01*
X10427089Y-7920274D01*
X10374483Y-8192576D01*
X10314874Y-8499139D01*
X10247947Y-8841652D01*
X10173385Y-9221804D01*
X10090874Y-9641284D01*
X10065830Y-9768417D01*
X9996666Y-10119063D01*
X9929236Y-10460233D01*
X9864041Y-10789420D01*
X9801583Y-11104117D01*
X9742365Y-11401818D01*
X9686887Y-11680015D01*
X9635653Y-11936202D01*
X9589164Y-12167872D01*
X9547922Y-12372518D01*
X9512429Y-12547632D01*
X9483187Y-12690710D01*
X9460698Y-12799242D01*
X9445464Y-12870723D01*
X9438885Y-12899363D01*
X9327693Y-13248850D01*
X9178969Y-13582202D01*
X8995314Y-13896750D01*
X8779330Y-14189829D01*
X8533618Y-14458771D01*
X8260779Y-14700910D01*
X7963416Y-14913577D01*
X7644128Y-15094105D01*
X7305519Y-15239829D01*
X7085759Y-15311893D01*
X7004632Y-15334733D01*
X6928368Y-15354323D01*
X6850522Y-15371782D01*
X6764650Y-15388230D01*
X6664306Y-15404785D01*
X6543046Y-15422566D01*
X6394425Y-15442694D01*
X6211997Y-15466285D01*
X6154203Y-15473636D01*
X5973936Y-15496155D01*
X5829301Y-15513014D01*
X5713997Y-15524363D01*
X5621724Y-15530351D01*
X5546181Y-15531128D01*
X5481067Y-15526842D01*
X5420081Y-15517642D01*
X5356922Y-15503679D01*
X5316868Y-15493471D01*
X5221263Y-15464038D01*
X5124349Y-15427198D01*
X5053387Y-15394095D01*
X4946362Y-15324349D01*
X4834322Y-15231699D01*
X4730999Y-15128822D01*
X4650129Y-15028391D01*
X4639222Y-15011874D01*
X4624530Y-14982698D01*
X4593811Y-14916598D01*
X4547901Y-14815478D01*
X4487642Y-14681244D01*
X4413870Y-14515798D01*
X4327427Y-14321046D01*
X4229149Y-14098892D01*
X4119878Y-13851240D01*
X4000450Y-13579993D01*
X3871706Y-13287058D01*
X3734485Y-12974337D01*
X3589624Y-12643735D01*
X3437964Y-12297157D01*
X3280343Y-11936506D01*
X3117600Y-11563686D01*
X2950575Y-11180603D01*
X2889199Y-11039722D01*
X2678520Y-10555829D01*
X2484357Y-10109444D01*
X2306180Y-9699322D01*
X2143459Y-9324223D01*
X1995664Y-8982902D01*
X1862266Y-8674118D01*
X1742734Y-8396628D01*
X1636539Y-8149190D01*
X1543149Y-7930559D01*
X1462037Y-7739495D01*
X1392670Y-7574754D01*
X1334520Y-7435094D01*
X1287057Y-7319272D01*
X1249750Y-7226045D01*
X1222070Y-7154171D01*
X1203486Y-7102407D01*
X1193469Y-7069510D01*
X1191397Y-7058802D01*
X1196056Y-6907945D01*
X1239334Y-6766695D01*
X1317642Y-6641399D01*
X1427394Y-6538405D01*
X1515375Y-6485698D01*
X1632659Y-6428317D01*
X5880455Y-6310652D01*
X6386896Y-6296591D01*
X6852768Y-6283624D01*
X7279819Y-6271753D01*
X7669798Y-6260984D01*
X8024456Y-6251320D01*
X8345540Y-6242765D01*
X8634801Y-6235324D01*
X8893988Y-6228999D01*
X9124850Y-6223796D01*
X9329137Y-6219717D01*
X9508597Y-6216767D01*
X9664980Y-6214950D01*
X9800035Y-6214270D01*
X9915512Y-6214731D01*
G36*
X-10410162Y13882215D02*
G01*
X-10278852Y13878610D01*
X-10161683Y13871220D01*
X-10049292Y13859739D01*
X-10011833Y13855023D01*
X-9542708Y13773729D01*
X-9092280Y13655421D01*
X-8661763Y13500502D01*
X-8252371Y13309372D01*
X-8091672Y13221074D01*
X-8054468Y13198541D01*
X-7983140Y13154158D01*
X-7879214Y13088896D01*
X-7744221Y13003730D01*
X-7579688Y12899631D01*
X-7387143Y12777573D01*
X-7168116Y12638530D01*
X-6924135Y12483473D01*
X-6656728Y12313377D01*
X-6367423Y12129214D01*
X-6057750Y11931957D01*
X-5729235Y11722579D01*
X-5383409Y11502053D01*
X-5021799Y11271353D01*
X-4645935Y11031451D01*
X-4257343Y10783320D01*
X-3857553Y10527934D01*
X-3448093Y10266265D01*
X-3030492Y9999286D01*
X-2952750Y9949572D01*
X-2516367Y9670512D01*
X-2078950Y9390794D01*
X-1642582Y9111750D01*
X-1209346Y8834713D01*
X-781325Y8561014D01*
X-360602Y8291985D01*
X50742Y8028957D01*
X450622Y7773263D01*
X836956Y7526234D01*
X1207661Y7289201D01*
X1560654Y7063498D01*
X1893854Y6850454D01*
X2205176Y6651403D01*
X2492537Y6467677D01*
X2753856Y6300605D01*
X2987050Y6151522D01*
X3190035Y6021758D01*
X3360728Y5912644D01*
X3449336Y5856008D01*
X4940755Y4902765D01*
X5386086Y4928375D01*
X5803028Y4952080D01*
X6183016Y4973022D01*
X6531327Y4991365D01*
X6853241Y5007275D01*
X7154034Y5020914D01*
X7438985Y5032447D01*
X7713372Y5042038D01*
X7982473Y5049852D01*
X8251565Y5056052D01*
X8525926Y5060803D01*
X8810835Y5064268D01*
X9111570Y5066613D01*
X9433408Y5068001D01*
X9781627Y5068597D01*
X9895417Y5068646D01*
X10248109Y5068462D01*
X10563425Y5067682D01*
X10846318Y5066168D01*
X11101743Y5063781D01*
X11334654Y5060384D01*
X11550006Y5055836D01*
X11752752Y5050000D01*
X11947847Y5042738D01*
X12140246Y5033911D01*
X12334901Y5023380D01*
X12536769Y5011007D01*
X12750802Y4996653D01*
X12932834Y4983744D01*
X13569851Y4930434D01*
X14171442Y4865166D01*
X14736395Y4788112D01*
X15263496Y4699448D01*
X15751531Y4599345D01*
X15959667Y4550223D01*
X16106920Y4511218D01*
X16286535Y4459249D01*
X16491526Y4396671D01*
X16714911Y4325842D01*
X16949706Y4249118D01*
X17188927Y4168856D01*
X17425589Y4087414D01*
X17652710Y4007147D01*
X17863306Y3930414D01*
X18050392Y3859570D01*
X18206985Y3796973D01*
X18266834Y3771606D01*
X18321364Y3746774D01*
X18340899Y3732481D01*
X18329674Y3723361D01*
X18309167Y3717960D01*
X18281477Y3713998D01*
X18214457Y3705624D01*
X18110846Y3693155D01*
X17973383Y3676909D01*
X17804805Y3657200D01*
X17607852Y3634347D01*
X17385262Y3608665D01*
X17139773Y3580471D01*
X16874125Y3550082D01*
X16591056Y3517814D01*
X16293305Y3483983D01*
X15983609Y3448907D01*
X15896167Y3439023D01*
X15584540Y3403701D01*
X15284703Y3369495D01*
X14999335Y3336720D01*
X14731116Y3305696D01*
X14482726Y3276740D01*
X14256847Y3250169D01*
X14056157Y3226300D01*
X13883336Y3205451D01*
X13741066Y3187939D01*
X13632027Y3174082D01*
X13558897Y3164198D01*
X13524358Y3158603D01*
X13521924Y3157811D01*
X13510546Y3135120D01*
X13486099Y3079153D01*
X13450796Y2995404D01*
X13406850Y2889363D01*
X13356474Y2766525D01*
X13301882Y2632381D01*
X13245286Y2492424D01*
X13188900Y2352147D01*
X13134938Y2217043D01*
X13085612Y2092603D01*
X13043135Y1984321D01*
X13009721Y1897689D01*
X12987583Y1838199D01*
X12978935Y1811345D01*
X12978991Y1810392D01*
X13000152Y1812382D01*
X13060749Y1819142D01*
X13158191Y1830361D01*
X13289887Y1845728D01*
X13453246Y1864932D01*
X13645676Y1887661D01*
X13864586Y1913605D01*
X14107385Y1942453D01*
X14371482Y1973893D01*
X14654286Y2007614D01*
X14953205Y2043306D01*
X15265649Y2080657D01*
X15589026Y2119356D01*
X15920745Y2159092D01*
X16258215Y2199554D01*
X16598844Y2240430D01*
X16940042Y2281411D01*
X17279217Y2322184D01*
X17613779Y2362439D01*
X17941135Y2401864D01*
X18258695Y2440148D01*
X18563868Y2476981D01*
X18854062Y2512050D01*
X19126687Y2545046D01*
X19379150Y2575657D01*
X19608862Y2603572D01*
X19813230Y2628479D01*
X19989664Y2650069D01*
X20135572Y2668028D01*
X20248364Y2682048D01*
X20325447Y2691816D01*
X20364232Y2697021D01*
X20365210Y2697170D01*
X20397133Y2699778D01*
X20429771Y2695040D01*
X20469650Y2679752D01*
X20523297Y2650713D01*
X20597238Y2604718D01*
X20697999Y2538564D01*
X20725043Y2520568D01*
X20963199Y2355871D01*
X21170697Y2198804D01*
X21356535Y2042176D01*
X21529710Y1878795D01*
X21536371Y1872148D01*
X21767470Y1616156D01*
X21957151Y1351885D01*
X22105369Y1079518D01*
X22212078Y799235D01*
X22277231Y511217D01*
X22300782Y215647D01*
X22282687Y-87296D01*
X22222898Y-397429D01*
X22162302Y-600878D01*
X22041218Y-893342D01*
X21878962Y-1176222D01*
X21675607Y-1449482D01*
X21431225Y-1713083D01*
X21145886Y-1966989D01*
X20819662Y-2211163D01*
X20452625Y-2445568D01*
X20044847Y-2670167D01*
X19596399Y-2884923D01*
X19107354Y-3089798D01*
X18577781Y-3284756D01*
X18007754Y-3469759D01*
X17397344Y-3644771D01*
X16746622Y-3809754D01*
X16055661Y-3964672D01*
X15409334Y-4093598D01*
X14836993Y-4197115D01*
X14251150Y-4294060D01*
X13649599Y-4384637D01*
X13030135Y-4469048D01*
X12390551Y-4547497D01*
X11728643Y-4620188D01*
X11042203Y-4687323D01*
X10329027Y-4749106D01*
X9586909Y-4805741D01*
X8813642Y-4857430D01*
X8007022Y-4904378D01*
X7164842Y-4946787D01*
X6284896Y-4984860D01*
X5376334Y-5018415D01*
X5249697Y-5021942D01*
X5084245Y-5025299D01*
X4883497Y-5028476D01*
X4650970Y-5031462D01*
X4390182Y-5034247D01*
X4104651Y-5036821D01*
X3797896Y-5039174D01*
X3473435Y-5041295D01*
X3134784Y-5043175D01*
X2785464Y-5044803D01*
X2428991Y-5046169D01*
X2068884Y-5047262D01*
X1708661Y-5048073D01*
X1351839Y-5048591D01*
X1001938Y-5048807D01*
X662475Y-5048709D01*
X336968Y-5048288D01*
X28935Y-5047533D01*
X-258106Y-5046435D01*
X-520636Y-5044982D01*
X-755138Y-5043165D01*
X-958094Y-5040974D01*
X-1125985Y-5038399D01*
X-1174750Y-5037427D01*
X-3372916Y-4978100D01*
X-5551356Y-4894740D01*
X-7706463Y-4787533D01*
X-9834631Y-4656667D01*
X-11932252Y-4502327D01*
X-12647083Y-4443761D01*
X-13263888Y-4390700D01*
X-13858853Y-4337144D01*
X-14430556Y-4283267D01*
X-14977577Y-4229244D01*
X-15498494Y-4175250D01*
X-15991886Y-4121461D01*
X-16456332Y-4068051D01*
X-16890410Y-4015196D01*
X-17292699Y-3963070D01*
X-17661779Y-3911849D01*
X-17996227Y-3861707D01*
X-18294623Y-3812820D01*
X-18555546Y-3765363D01*
X-18777573Y-3719511D01*
X-18959285Y-3675439D01*
X-19018250Y-3658966D01*
X-19166824Y-3611358D01*
X-19342101Y-3548368D01*
X-19533305Y-3474305D01*
X-19729664Y-3393478D01*
X-19920402Y-3310194D01*
X-20094747Y-3228762D01*
X-20097750Y-3227300D01*
X-20358753Y-3092380D01*
X-20586495Y-2957011D01*
X-20789686Y-2815231D01*
X-20977039Y-2661075D01*
X-21116042Y-2530135D01*
X-21277293Y-2358999D01*
X-21403446Y-2198466D01*
X-21497939Y-2041622D01*
X-21564210Y-1881551D01*
X-21605698Y-1711335D01*
X-21625844Y-1524061D01*
X-21626873Y-1502834D01*
X-21625612Y-1296183D01*
X-21600168Y-1117639D01*
X-21547245Y-958487D01*
X-21463545Y-810009D01*
X-21345769Y-663491D01*
X-21285517Y-600608D01*
X-21184293Y-505751D01*
X-21070303Y-412007D01*
X-20940161Y-317359D01*
X-20790479Y-219790D01*
X-20617872Y-117284D01*
X-20418950Y-7821D01*
X-20190329Y110614D01*
X-20134423Y138262D01*
X-10975557Y138262D01*
X-10975444Y131225D01*
X-10962062Y105326D01*
X-10929861Y47026D01*
X-10881241Y-39446D01*
X-10818603Y-149858D01*
X-10744349Y-279982D01*
X-10660878Y-425588D01*
X-10570593Y-582446D01*
X-10555547Y-608527D01*
X-10149416Y-1312304D01*
X-9294847Y-1307027D01*
X-8440277Y-1301750D01*
X-8020295Y-573573D01*
X-7928463Y-413748D01*
X-7843912Y-265423D01*
X-7768856Y-132575D01*
X-7705512Y-19177D01*
X-7656095Y70796D01*
X-7622820Y133368D01*
X-7607902Y164566D01*
X-7607359Y167260D01*
X-7619142Y187796D01*
X-7649766Y241010D01*
X-7696930Y322908D01*
X-7758331Y429493D01*
X-7831668Y556769D01*
X-7891657Y660865D01*
X-6742339Y660865D01*
X-6728926Y634858D01*
X-6696692Y576454D01*
X-6648041Y489885D01*
X-6585375Y379387D01*
X-6511094Y249190D01*
X-6427602Y103529D01*
X-6337301Y-53364D01*
X-6322260Y-79435D01*
X-5916083Y-783287D01*
X-5061474Y-777935D01*
X-4206864Y-772584D01*
X-3786636Y-43311D01*
X-3366409Y685961D01*
X-3404254Y750439D01*
X-3423351Y783306D01*
X-3460926Y848266D01*
X-3514328Y940725D01*
X-3580908Y1056092D01*
X-3658014Y1189774D01*
X-3658089Y1189905D01*
X-2509008Y1189905D01*
X-2495625Y1163923D01*
X-2463435Y1105535D01*
X-2414837Y1018974D01*
X-2352232Y908473D01*
X-2278019Y778266D01*
X-2194597Y632585D01*
X-2104367Y475663D01*
X-2089322Y449558D01*
X-1683437Y-254467D01*
X25861Y-243417D01*
X866923Y1215131D01*
X822632Y1290190D01*
X801915Y1325721D01*
X762802Y1393205D01*
X708027Y1487910D01*
X640322Y1605106D01*
X568426Y1729659D01*
X1718234Y1729659D01*
X1730036Y1705822D01*
X1760756Y1649500D01*
X1808060Y1564820D01*
X1869614Y1455908D01*
X1943082Y1326891D01*
X2026130Y1181896D01*
X2116424Y1025048D01*
X2137490Y988565D01*
X2549897Y274700D01*
X4259195Y285750D01*
X4679725Y1015024D01*
X5100256Y1744297D01*
X5055966Y1819357D01*
X5035248Y1854888D01*
X4996136Y1922372D01*
X4941360Y2017077D01*
X4873655Y2134273D01*
X4801710Y2258914D01*
X5951472Y2258914D01*
X5963301Y2234872D01*
X5994057Y2178359D01*
X6041403Y2093509D01*
X6103001Y1984454D01*
X6176514Y1855328D01*
X6259605Y1710266D01*
X6349937Y1553400D01*
X6370777Y1517323D01*
X6783138Y803867D01*
X7637753Y809392D01*
X8492369Y814916D01*
X8912709Y1544647D01*
X9333050Y2274378D01*
X9293780Y2340936D01*
X9274315Y2374319D01*
X9236368Y2439751D01*
X9182608Y2532617D01*
X9115707Y2648298D01*
X9038335Y2782175D01*
X8953163Y2929631D01*
X8868085Y3076997D01*
X8481661Y3746500D01*
X6783917Y3745736D01*
X6364222Y3016392D01*
X6272339Y2855737D01*
X6187748Y2705937D01*
X6112672Y2571071D01*
X6049334Y2455220D01*
X5999957Y2362463D01*
X5966764Y2296878D01*
X5951978Y2262546D01*
X5951472Y2258914D01*
X4801710Y2258914D01*
X4795755Y2269229D01*
X4710391Y2417213D01*
X4630453Y2555875D01*
X4249230Y3217333D01*
X3399907Y3216872D01*
X2550584Y3216410D01*
X2130984Y2486650D01*
X2039145Y2325969D01*
X1954587Y2176185D01*
X1879532Y2041369D01*
X1816200Y1925596D01*
X1766813Y1832939D01*
X1733591Y1767470D01*
X1718756Y1733265D01*
X1718234Y1729659D01*
X568426Y1729659D01*
X562421Y1740062D01*
X477058Y1888046D01*
X397119Y2026708D01*
X15897Y2688166D01*
X-833427Y2687705D01*
X-1682750Y2687243D01*
X-2102780Y1956735D01*
X-2224059Y1744419D01*
X-2323415Y1567415D01*
X-2401208Y1425042D01*
X-2457799Y1316618D01*
X-2493550Y1241464D01*
X-2508821Y1198897D01*
X-2509008Y1189905D01*
X-3658089Y1189905D01*
X-3742997Y1337179D01*
X-3829312Y1486958D01*
X-4216526Y2159000D01*
X-5066304Y2158283D01*
X-5916083Y2157565D01*
X-6336162Y1427440D01*
X-6456896Y1216236D01*
X-6555802Y1040210D01*
X-6633316Y898537D01*
X-6689876Y790390D01*
X-6725921Y714943D01*
X-6741887Y671369D01*
X-6742339Y660865D01*
X-7891657Y660865D01*
X-7914637Y700741D01*
X-8004938Y857411D01*
X-8032298Y904875D01*
X-8450190Y1629833D01*
X-9299803Y1629169D01*
X-10149416Y1628504D01*
X-10569313Y897852D01*
X-10691333Y684096D01*
X-10791290Y505839D01*
X-10869439Y362604D01*
X-10926032Y253913D01*
X-10961320Y179292D01*
X-10975557Y138262D01*
X-20134423Y138262D01*
X-19928620Y240040D01*
X-19652110Y372253D01*
X-19566304Y412750D01*
X-20081636Y2921000D01*
X-20162092Y3312702D01*
X-20234388Y3665230D01*
X-20298895Y3980878D01*
X-20355983Y4261938D01*
X-20406021Y4510701D01*
X-20449379Y4729461D01*
X-20486427Y4920510D01*
X-20517534Y5086139D01*
X-20543072Y5228641D01*
X-20563408Y5350309D01*
X-20578913Y5453435D01*
X-20589958Y5540311D01*
X-20596911Y5613229D01*
X-20600142Y5674482D01*
X-20600021Y5726362D01*
X-20596919Y5771161D01*
X-20591204Y5811172D01*
X-20583247Y5848687D01*
X-20573417Y5885998D01*
X-20564789Y5916083D01*
X-20484319Y6121344D01*
X-20370229Y6304874D01*
X-20226355Y6462808D01*
X-20056529Y6591280D01*
X-19864584Y6686423D01*
X-19769666Y6718004D01*
X-19684055Y6736346D01*
X-19564922Y6753404D01*
X-19421074Y6768436D01*
X-19261318Y6780701D01*
X-19094464Y6789459D01*
X-18929317Y6793967D01*
X-18861718Y6794415D01*
X-18514805Y6774089D01*
X-18179918Y6713280D01*
X-17856721Y6611870D01*
X-17544875Y6469742D01*
X-17244042Y6286779D01*
X-17107762Y6187722D01*
X-17072773Y6157081D01*
X-17010139Y6097865D01*
X-16921676Y6011902D01*
X-16809200Y5901018D01*
X-16674527Y5767037D01*
X-16519472Y5611787D01*
X-16345853Y5437092D01*
X-16155486Y5244780D01*
X-15950185Y5036676D01*
X-15731769Y4814606D01*
X-15502052Y4580396D01*
X-15262850Y4335871D01*
X-15100748Y4169808D01*
X-14794240Y3855838D01*
X-14516501Y3571954D01*
X-14267033Y3317657D01*
X-14045336Y3092449D01*
X-13850913Y2895828D01*
X-13683264Y2727296D01*
X-13541891Y2586354D01*
X-13426296Y2472502D01*
X-13335979Y2385241D01*
X-13270442Y2324070D01*
X-13229186Y2288492D01*
X-13211819Y2277976D01*
X-12899775Y2350057D01*
X-12550648Y2427652D01*
X-12169194Y2509829D01*
X-11760168Y2595652D01*
X-11328327Y2684188D01*
X-10878426Y2774503D01*
X-10415221Y2865662D01*
X-9943469Y2956732D01*
X-9467924Y3046779D01*
X-8993344Y3134868D01*
X-8524483Y3220066D01*
X-8066099Y3301439D01*
X-7622946Y3378052D01*
X-7529299Y3393951D01*
X-7350621Y3424419D01*
X-7185258Y3453078D01*
X-7037812Y3479093D01*
X-6912887Y3501634D01*
X-6815084Y3519866D01*
X-6749006Y3532959D01*
X-6719257Y3540079D01*
X-6718116Y3540662D01*
X-6730293Y3557847D01*
X-6768123Y3606414D01*
X-6830473Y3684965D01*
X-6916209Y3792102D01*
X-7024197Y3926427D01*
X-7153304Y4086542D01*
X-7302395Y4271049D01*
X-7470336Y4478549D01*
X-7655995Y4707644D01*
X-7858236Y4956937D01*
X-8075926Y5225029D01*
X-8307932Y5510522D01*
X-8553119Y5812018D01*
X-8810354Y6128119D01*
X-9078503Y6457426D01*
X-9356432Y6798543D01*
X-9643007Y7150070D01*
X-9937094Y7510609D01*
X-10026150Y7619748D01*
X-10323315Y7983970D01*
X-10613882Y8340240D01*
X-10896679Y8687120D01*
X-11170538Y9023169D01*
X-11434288Y9346949D01*
X-11686759Y9657019D01*
X-11926783Y9951941D01*
X-12153188Y10230274D01*
X-12364806Y10490580D01*
X-12560466Y10731418D01*
X-12738999Y10951350D01*
X-12899235Y11148936D01*
X-13040004Y11322736D01*
X-13160136Y11471310D01*
X-13258462Y11593220D01*
X-13333812Y11687026D01*
X-13385016Y11751288D01*
X-13410905Y11784567D01*
X-13413298Y11787898D01*
X-13500517Y11951722D01*
X-13559588Y12138166D01*
X-13587136Y12335523D01*
X-13588749Y12396815D01*
X-13570476Y12622495D01*
X-13515723Y12827456D01*
X-13423635Y13013850D01*
X-13293355Y13183828D01*
X-13263089Y13215588D01*
X-13195973Y13279680D01*
X-13127534Y13334990D01*
X-13052442Y13383813D01*
X-12965365Y13428441D01*
X-12860974Y13471169D01*
X-12733937Y13514291D01*
X-12578925Y13560099D01*
X-12390606Y13610887D01*
X-12275041Y13640718D01*
X-12046574Y13698361D01*
X-11851688Y13745558D01*
X-11683243Y13783430D01*
X-11534097Y13813096D01*
X-11397110Y13835675D01*
X-11265138Y13852286D01*
X-11131042Y13864047D01*
X-10987680Y13872080D01*
X-10827911Y13877501D01*
X-10752666Y13879303D01*
X-10564978Y13882344D01*
X-10410162Y13882215D01*
G37*
X-10410162Y13882215D02*
X-10278852Y13878610D01*
X-10161683Y13871220D01*
X-10049292Y13859739D01*
X-10011833Y13855023D01*
X-9542708Y13773729D01*
X-9092280Y13655421D01*
X-8661763Y13500502D01*
X-8252371Y13309372D01*
X-8091672Y13221074D01*
X-8054468Y13198541D01*
X-7983140Y13154158D01*
X-7879214Y13088896D01*
X-7744221Y13003730D01*
X-7579688Y12899631D01*
X-7387143Y12777573D01*
X-7168116Y12638530D01*
X-6924135Y12483473D01*
X-6656728Y12313377D01*
X-6367423Y12129214D01*
X-6057750Y11931957D01*
X-5729235Y11722579D01*
X-5383409Y11502053D01*
X-5021799Y11271353D01*
X-4645935Y11031451D01*
X-4257343Y10783320D01*
X-3857553Y10527934D01*
X-3448093Y10266265D01*
X-3030492Y9999286D01*
X-2952750Y9949572D01*
X-2516367Y9670512D01*
X-2078950Y9390794D01*
X-1642582Y9111750D01*
X-1209346Y8834713D01*
X-781325Y8561014D01*
X-360602Y8291985D01*
X50742Y8028957D01*
X450622Y7773263D01*
X836956Y7526234D01*
X1207661Y7289201D01*
X1560654Y7063498D01*
X1893854Y6850454D01*
X2205176Y6651403D01*
X2492537Y6467677D01*
X2753856Y6300605D01*
X2987050Y6151522D01*
X3190035Y6021758D01*
X3360728Y5912644D01*
X3449336Y5856008D01*
X4940755Y4902765D01*
X5386086Y4928375D01*
X5803028Y4952080D01*
X6183016Y4973022D01*
X6531327Y4991365D01*
X6853241Y5007275D01*
X7154034Y5020914D01*
X7438985Y5032447D01*
X7713372Y5042038D01*
X7982473Y5049852D01*
X8251565Y5056052D01*
X8525926Y5060803D01*
X8810835Y5064268D01*
X9111570Y5066613D01*
X9433408Y5068001D01*
X9781627Y5068597D01*
X9895417Y5068646D01*
X10248109Y5068462D01*
X10563425Y5067682D01*
X10846318Y5066168D01*
X11101743Y5063781D01*
X11334654Y5060384D01*
X11550006Y5055836D01*
X11752752Y5050000D01*
X11947847Y5042738D01*
X12140246Y5033911D01*
X12334901Y5023380D01*
X12536769Y5011007D01*
X12750802Y4996653D01*
X12932834Y4983744D01*
X13569851Y4930434D01*
X14171442Y4865166D01*
X14736395Y4788112D01*
X15263496Y4699448D01*
X15751531Y4599345D01*
X15959667Y4550223D01*
X16106920Y4511218D01*
X16286535Y4459249D01*
X16491526Y4396671D01*
X16714911Y4325842D01*
X16949706Y4249118D01*
X17188927Y4168856D01*
X17425589Y4087414D01*
X17652710Y4007147D01*
X17863306Y3930414D01*
X18050392Y3859570D01*
X18206985Y3796973D01*
X18266834Y3771606D01*
X18321364Y3746774D01*
X18340899Y3732481D01*
X18329674Y3723361D01*
X18309167Y3717960D01*
X18281477Y3713998D01*
X18214457Y3705624D01*
X18110846Y3693155D01*
X17973383Y3676909D01*
X17804805Y3657200D01*
X17607852Y3634347D01*
X17385262Y3608665D01*
X17139773Y3580471D01*
X16874125Y3550082D01*
X16591056Y3517814D01*
X16293305Y3483983D01*
X15983609Y3448907D01*
X15896167Y3439023D01*
X15584540Y3403701D01*
X15284703Y3369495D01*
X14999335Y3336720D01*
X14731116Y3305696D01*
X14482726Y3276740D01*
X14256847Y3250169D01*
X14056157Y3226300D01*
X13883336Y3205451D01*
X13741066Y3187939D01*
X13632027Y3174082D01*
X13558897Y3164198D01*
X13524358Y3158603D01*
X13521924Y3157811D01*
X13510546Y3135120D01*
X13486099Y3079153D01*
X13450796Y2995404D01*
X13406850Y2889363D01*
X13356474Y2766525D01*
X13301882Y2632381D01*
X13245286Y2492424D01*
X13188900Y2352147D01*
X13134938Y2217043D01*
X13085612Y2092603D01*
X13043135Y1984321D01*
X13009721Y1897689D01*
X12987583Y1838199D01*
X12978935Y1811345D01*
X12978991Y1810392D01*
X13000152Y1812382D01*
X13060749Y1819142D01*
X13158191Y1830361D01*
X13289887Y1845728D01*
X13453246Y1864932D01*
X13645676Y1887661D01*
X13864586Y1913605D01*
X14107385Y1942453D01*
X14371482Y1973893D01*
X14654286Y2007614D01*
X14953205Y2043306D01*
X15265649Y2080657D01*
X15589026Y2119356D01*
X15920745Y2159092D01*
X16258215Y2199554D01*
X16598844Y2240430D01*
X16940042Y2281411D01*
X17279217Y2322184D01*
X17613779Y2362439D01*
X17941135Y2401864D01*
X18258695Y2440148D01*
X18563868Y2476981D01*
X18854062Y2512050D01*
X19126687Y2545046D01*
X19379150Y2575657D01*
X19608862Y2603572D01*
X19813230Y2628479D01*
X19989664Y2650069D01*
X20135572Y2668028D01*
X20248364Y2682048D01*
X20325447Y2691816D01*
X20364232Y2697021D01*
X20365210Y2697170D01*
X20397133Y2699778D01*
X20429771Y2695040D01*
X20469650Y2679752D01*
X20523297Y2650713D01*
X20597238Y2604718D01*
X20697999Y2538564D01*
X20725043Y2520568D01*
X20963199Y2355871D01*
X21170697Y2198804D01*
X21356535Y2042176D01*
X21529710Y1878795D01*
X21536371Y1872148D01*
X21767470Y1616156D01*
X21957151Y1351885D01*
X22105369Y1079518D01*
X22212078Y799235D01*
X22277231Y511217D01*
X22300782Y215647D01*
X22282687Y-87296D01*
X22222898Y-397429D01*
X22162302Y-600878D01*
X22041218Y-893342D01*
X21878962Y-1176222D01*
X21675607Y-1449482D01*
X21431225Y-1713083D01*
X21145886Y-1966989D01*
X20819662Y-2211163D01*
X20452625Y-2445568D01*
X20044847Y-2670167D01*
X19596399Y-2884923D01*
X19107354Y-3089798D01*
X18577781Y-3284756D01*
X18007754Y-3469759D01*
X17397344Y-3644771D01*
X16746622Y-3809754D01*
X16055661Y-3964672D01*
X15409334Y-4093598D01*
X14836993Y-4197115D01*
X14251150Y-4294060D01*
X13649599Y-4384637D01*
X13030135Y-4469048D01*
X12390551Y-4547497D01*
X11728643Y-4620188D01*
X11042203Y-4687323D01*
X10329027Y-4749106D01*
X9586909Y-4805741D01*
X8813642Y-4857430D01*
X8007022Y-4904378D01*
X7164842Y-4946787D01*
X6284896Y-4984860D01*
X5376334Y-5018415D01*
X5249697Y-5021942D01*
X5084245Y-5025299D01*
X4883497Y-5028476D01*
X4650970Y-5031462D01*
X4390182Y-5034247D01*
X4104651Y-5036821D01*
X3797896Y-5039174D01*
X3473435Y-5041295D01*
X3134784Y-5043175D01*
X2785464Y-5044803D01*
X2428991Y-5046169D01*
X2068884Y-5047262D01*
X1708661Y-5048073D01*
X1351839Y-5048591D01*
X1001938Y-5048807D01*
X662475Y-5048709D01*
X336968Y-5048288D01*
X28935Y-5047533D01*
X-258106Y-5046435D01*
X-520636Y-5044982D01*
X-755138Y-5043165D01*
X-958094Y-5040974D01*
X-1125985Y-5038399D01*
X-1174750Y-5037427D01*
X-3372916Y-4978100D01*
X-5551356Y-4894740D01*
X-7706463Y-4787533D01*
X-9834631Y-4656667D01*
X-11932252Y-4502327D01*
X-12647083Y-4443761D01*
X-13263888Y-4390700D01*
X-13858853Y-4337144D01*
X-14430556Y-4283267D01*
X-14977577Y-4229244D01*
X-15498494Y-4175250D01*
X-15991886Y-4121461D01*
X-16456332Y-4068051D01*
X-16890410Y-4015196D01*
X-17292699Y-3963070D01*
X-17661779Y-3911849D01*
X-17996227Y-3861707D01*
X-18294623Y-3812820D01*
X-18555546Y-3765363D01*
X-18777573Y-3719511D01*
X-18959285Y-3675439D01*
X-19018250Y-3658966D01*
X-19166824Y-3611358D01*
X-19342101Y-3548368D01*
X-19533305Y-3474305D01*
X-19729664Y-3393478D01*
X-19920402Y-3310194D01*
X-20094747Y-3228762D01*
X-20097750Y-3227300D01*
X-20358753Y-3092380D01*
X-20586495Y-2957011D01*
X-20789686Y-2815231D01*
X-20977039Y-2661075D01*
X-21116042Y-2530135D01*
X-21277293Y-2358999D01*
X-21403446Y-2198466D01*
X-21497939Y-2041622D01*
X-21564210Y-1881551D01*
X-21605698Y-1711335D01*
X-21625844Y-1524061D01*
X-21626873Y-1502834D01*
X-21625612Y-1296183D01*
X-21600168Y-1117639D01*
X-21547245Y-958487D01*
X-21463545Y-810009D01*
X-21345769Y-663491D01*
X-21285517Y-600608D01*
X-21184293Y-505751D01*
X-21070303Y-412007D01*
X-20940161Y-317359D01*
X-20790479Y-219790D01*
X-20617872Y-117284D01*
X-20418950Y-7821D01*
X-20190329Y110614D01*
X-20134423Y138262D01*
X-10975557Y138262D01*
X-10975444Y131225D01*
X-10962062Y105326D01*
X-10929861Y47026D01*
X-10881241Y-39446D01*
X-10818603Y-149858D01*
X-10744349Y-279982D01*
X-10660878Y-425588D01*
X-10570593Y-582446D01*
X-10555547Y-608527D01*
X-10149416Y-1312304D01*
X-9294847Y-1307027D01*
X-8440277Y-1301750D01*
X-8020295Y-573573D01*
X-7928463Y-413748D01*
X-7843912Y-265423D01*
X-7768856Y-132575D01*
X-7705512Y-19177D01*
X-7656095Y70796D01*
X-7622820Y133368D01*
X-7607902Y164566D01*
X-7607359Y167260D01*
X-7619142Y187796D01*
X-7649766Y241010D01*
X-7696930Y322908D01*
X-7758331Y429493D01*
X-7831668Y556769D01*
X-7891657Y660865D01*
X-6742339Y660865D01*
X-6728926Y634858D01*
X-6696692Y576454D01*
X-6648041Y489885D01*
X-6585375Y379387D01*
X-6511094Y249190D01*
X-6427602Y103529D01*
X-6337301Y-53364D01*
X-6322260Y-79435D01*
X-5916083Y-783287D01*
X-5061474Y-777935D01*
X-4206864Y-772584D01*
X-3786636Y-43311D01*
X-3366409Y685961D01*
X-3404254Y750439D01*
X-3423351Y783306D01*
X-3460926Y848266D01*
X-3514328Y940725D01*
X-3580908Y1056092D01*
X-3658014Y1189774D01*
X-3658089Y1189905D01*
X-2509008Y1189905D01*
X-2495625Y1163923D01*
X-2463435Y1105535D01*
X-2414837Y1018974D01*
X-2352232Y908473D01*
X-2278019Y778266D01*
X-2194597Y632585D01*
X-2104367Y475663D01*
X-2089322Y449558D01*
X-1683437Y-254467D01*
X25861Y-243417D01*
X866923Y1215131D01*
X822632Y1290190D01*
X801915Y1325721D01*
X762802Y1393205D01*
X708027Y1487910D01*
X640322Y1605106D01*
X568426Y1729659D01*
X1718234Y1729659D01*
X1730036Y1705822D01*
X1760756Y1649500D01*
X1808060Y1564820D01*
X1869614Y1455908D01*
X1943082Y1326891D01*
X2026130Y1181896D01*
X2116424Y1025048D01*
X2137490Y988565D01*
X2549897Y274700D01*
X4259195Y285750D01*
X4679725Y1015024D01*
X5100256Y1744297D01*
X5055966Y1819357D01*
X5035248Y1854888D01*
X4996136Y1922372D01*
X4941360Y2017077D01*
X4873655Y2134273D01*
X4801710Y2258914D01*
X5951472Y2258914D01*
X5963301Y2234872D01*
X5994057Y2178359D01*
X6041403Y2093509D01*
X6103001Y1984454D01*
X6176514Y1855328D01*
X6259605Y1710266D01*
X6349937Y1553400D01*
X6370777Y1517323D01*
X6783138Y803867D01*
X7637753Y809392D01*
X8492369Y814916D01*
X8912709Y1544647D01*
X9333050Y2274378D01*
X9293780Y2340936D01*
X9274315Y2374319D01*
X9236368Y2439751D01*
X9182608Y2532617D01*
X9115707Y2648298D01*
X9038335Y2782175D01*
X8953163Y2929631D01*
X8868085Y3076997D01*
X8481661Y3746500D01*
X6783917Y3745736D01*
X6364222Y3016392D01*
X6272339Y2855737D01*
X6187748Y2705937D01*
X6112672Y2571071D01*
X6049334Y2455220D01*
X5999957Y2362463D01*
X5966764Y2296878D01*
X5951978Y2262546D01*
X5951472Y2258914D01*
X4801710Y2258914D01*
X4795755Y2269229D01*
X4710391Y2417213D01*
X4630453Y2555875D01*
X4249230Y3217333D01*
X3399907Y3216872D01*
X2550584Y3216410D01*
X2130984Y2486650D01*
X2039145Y2325969D01*
X1954587Y2176185D01*
X1879532Y2041369D01*
X1816200Y1925596D01*
X1766813Y1832939D01*
X1733591Y1767470D01*
X1718756Y1733265D01*
X1718234Y1729659D01*
X568426Y1729659D01*
X562421Y1740062D01*
X477058Y1888046D01*
X397119Y2026708D01*
X15897Y2688166D01*
X-833427Y2687705D01*
X-1682750Y2687243D01*
X-2102780Y1956735D01*
X-2224059Y1744419D01*
X-2323415Y1567415D01*
X-2401208Y1425042D01*
X-2457799Y1316618D01*
X-2493550Y1241464D01*
X-2508821Y1198897D01*
X-2509008Y1189905D01*
X-3658089Y1189905D01*
X-3742997Y1337179D01*
X-3829312Y1486958D01*
X-4216526Y2159000D01*
X-5066304Y2158283D01*
X-5916083Y2157565D01*
X-6336162Y1427440D01*
X-6456896Y1216236D01*
X-6555802Y1040210D01*
X-6633316Y898537D01*
X-6689876Y790390D01*
X-6725921Y714943D01*
X-6741887Y671369D01*
X-6742339Y660865D01*
X-7891657Y660865D01*
X-7914637Y700741D01*
X-8004938Y857411D01*
X-8032298Y904875D01*
X-8450190Y1629833D01*
X-9299803Y1629169D01*
X-10149416Y1628504D01*
X-10569313Y897852D01*
X-10691333Y684096D01*
X-10791290Y505839D01*
X-10869439Y362604D01*
X-10926032Y253913D01*
X-10961320Y179292D01*
X-10975557Y138262D01*
X-20134423Y138262D01*
X-19928620Y240040D01*
X-19652110Y372253D01*
X-19566304Y412750D01*
X-20081636Y2921000D01*
X-20162092Y3312702D01*
X-20234388Y3665230D01*
X-20298895Y3980878D01*
X-20355983Y4261938D01*
X-20406021Y4510701D01*
X-20449379Y4729461D01*
X-20486427Y4920510D01*
X-20517534Y5086139D01*
X-20543072Y5228641D01*
X-20563408Y5350309D01*
X-20578913Y5453435D01*
X-20589958Y5540311D01*
X-20596911Y5613229D01*
X-20600142Y5674482D01*
X-20600021Y5726362D01*
X-20596919Y5771161D01*
X-20591204Y5811172D01*
X-20583247Y5848687D01*
X-20573417Y5885998D01*
X-20564789Y5916083D01*
X-20484319Y6121344D01*
X-20370229Y6304874D01*
X-20226355Y6462808D01*
X-20056529Y6591280D01*
X-19864584Y6686423D01*
X-19769666Y6718004D01*
X-19684055Y6736346D01*
X-19564922Y6753404D01*
X-19421074Y6768436D01*
X-19261318Y6780701D01*
X-19094464Y6789459D01*
X-18929317Y6793967D01*
X-18861718Y6794415D01*
X-18514805Y6774089D01*
X-18179918Y6713280D01*
X-17856721Y6611870D01*
X-17544875Y6469742D01*
X-17244042Y6286779D01*
X-17107762Y6187722D01*
X-17072773Y6157081D01*
X-17010139Y6097865D01*
X-16921676Y6011902D01*
X-16809200Y5901018D01*
X-16674527Y5767037D01*
X-16519472Y5611787D01*
X-16345853Y5437092D01*
X-16155486Y5244780D01*
X-15950185Y5036676D01*
X-15731769Y4814606D01*
X-15502052Y4580396D01*
X-15262850Y4335871D01*
X-15100748Y4169808D01*
X-14794240Y3855838D01*
X-14516501Y3571954D01*
X-14267033Y3317657D01*
X-14045336Y3092449D01*
X-13850913Y2895828D01*
X-13683264Y2727296D01*
X-13541891Y2586354D01*
X-13426296Y2472502D01*
X-13335979Y2385241D01*
X-13270442Y2324070D01*
X-13229186Y2288492D01*
X-13211819Y2277976D01*
X-12899775Y2350057D01*
X-12550648Y2427652D01*
X-12169194Y2509829D01*
X-11760168Y2595652D01*
X-11328327Y2684188D01*
X-10878426Y2774503D01*
X-10415221Y2865662D01*
X-9943469Y2956732D01*
X-9467924Y3046779D01*
X-8993344Y3134868D01*
X-8524483Y3220066D01*
X-8066099Y3301439D01*
X-7622946Y3378052D01*
X-7529299Y3393951D01*
X-7350621Y3424419D01*
X-7185258Y3453078D01*
X-7037812Y3479093D01*
X-6912887Y3501634D01*
X-6815084Y3519866D01*
X-6749006Y3532959D01*
X-6719257Y3540079D01*
X-6718116Y3540662D01*
X-6730293Y3557847D01*
X-6768123Y3606414D01*
X-6830473Y3684965D01*
X-6916209Y3792102D01*
X-7024197Y3926427D01*
X-7153304Y4086542D01*
X-7302395Y4271049D01*
X-7470336Y4478549D01*
X-7655995Y4707644D01*
X-7858236Y4956937D01*
X-8075926Y5225029D01*
X-8307932Y5510522D01*
X-8553119Y5812018D01*
X-8810354Y6128119D01*
X-9078503Y6457426D01*
X-9356432Y6798543D01*
X-9643007Y7150070D01*
X-9937094Y7510609D01*
X-10026150Y7619748D01*
X-10323315Y7983970D01*
X-10613882Y8340240D01*
X-10896679Y8687120D01*
X-11170538Y9023169D01*
X-11434288Y9346949D01*
X-11686759Y9657019D01*
X-11926783Y9951941D01*
X-12153188Y10230274D01*
X-12364806Y10490580D01*
X-12560466Y10731418D01*
X-12738999Y10951350D01*
X-12899235Y11148936D01*
X-13040004Y11322736D01*
X-13160136Y11471310D01*
X-13258462Y11593220D01*
X-13333812Y11687026D01*
X-13385016Y11751288D01*
X-13410905Y11784567D01*
X-13413298Y11787898D01*
X-13500517Y11951722D01*
X-13559588Y12138166D01*
X-13587136Y12335523D01*
X-13588749Y12396815D01*
X-13570476Y12622495D01*
X-13515723Y12827456D01*
X-13423635Y13013850D01*
X-13293355Y13183828D01*
X-13263089Y13215588D01*
X-13195973Y13279680D01*
X-13127534Y13334990D01*
X-13052442Y13383813D01*
X-12965365Y13428441D01*
X-12860974Y13471169D01*
X-12733937Y13514291D01*
X-12578925Y13560099D01*
X-12390606Y13610887D01*
X-12275041Y13640718D01*
X-12046574Y13698361D01*
X-11851688Y13745558D01*
X-11683243Y13783430D01*
X-11534097Y13813096D01*
X-11397110Y13835675D01*
X-11265138Y13852286D01*
X-11131042Y13864047D01*
X-10987680Y13872080D01*
X-10827911Y13877501D01*
X-10752666Y13879303D01*
X-10564978Y13882344D01*
X-10410162Y13882215D01*
G36*
X15585478Y18960041D02*
G01*
X15604489Y18776334D01*
X15619424Y18630486D01*
X15630157Y18518210D01*
X15636563Y18435218D01*
X15638513Y18377220D01*
X15635883Y18339930D01*
X15628547Y18319057D01*
X15616377Y18310314D01*
X15599248Y18309412D01*
X15577034Y18312063D01*
X15566440Y18313180D01*
X15530256Y18317908D01*
X15504297Y18329809D01*
X15482579Y18356727D01*
X15459121Y18406505D01*
X15427939Y18486987D01*
X15422184Y18502303D01*
X15349570Y18672592D01*
X15268720Y18812852D01*
X15171819Y18935381D01*
X15101996Y19006192D01*
X14949205Y19126346D01*
X14784871Y19206897D01*
X14603712Y19250110D01*
X14514741Y19258004D01*
X14404365Y19260304D01*
X14321806Y19253958D01*
X14253173Y19237590D01*
X14231691Y19229937D01*
X14101358Y19160020D01*
X14000237Y19064047D01*
X13931303Y18947766D01*
X13897528Y18816924D01*
X13901886Y18677265D01*
X13915416Y18618686D01*
X13960978Y18508249D01*
X14034425Y18398676D01*
X14138255Y18287676D01*
X14274966Y18172959D01*
X14447056Y18052235D01*
X14657025Y17923213D01*
X14703102Y17896601D01*
X14924930Y17765033D01*
X15110924Y17644357D01*
X15265252Y17531612D01*
X15392082Y17423834D01*
X15454956Y17362151D01*
X15582761Y17214695D01*
X15674185Y17072457D01*
X15732773Y16926575D01*
X15762066Y16768188D01*
X15765610Y16588434D01*
X15765487Y16585579D01*
X15758862Y16482619D01*
X15746729Y16404070D01*
X15724805Y16332026D01*
X15688806Y16248582D01*
X15680832Y16231667D01*
X15573600Y16052646D01*
X15436892Y15902830D01*
X15272822Y15783242D01*
X15083503Y15694906D01*
X14871048Y15638846D01*
X14637573Y15616085D01*
X14425084Y15623600D01*
X14333677Y15636640D01*
X14218592Y15659820D01*
X14096203Y15689571D01*
X14007280Y15714711D01*
X13904946Y15744319D01*
X13811787Y15768490D01*
X13738300Y15784675D01*
X13695896Y15790333D01*
X13632871Y15773710D01*
X13579311Y15732062D01*
X13549131Y15677724D01*
X13546667Y15658064D01*
X13539424Y15632252D01*
X13510270Y15623363D01*
X13467292Y15625014D01*
X13387917Y15631583D01*
X13310142Y16181916D01*
X13284359Y16363762D01*
X13264083Y16507981D01*
X13249239Y16618911D01*
X13239752Y16700888D01*
X13235547Y16758249D01*
X13236549Y16795333D01*
X13242682Y16816474D01*
X13253872Y16826012D01*
X13270043Y16828282D01*
X13291120Y16827622D01*
X13298955Y16827500D01*
X13333021Y16825277D01*
X13359112Y16813708D01*
X13383701Y16785443D01*
X13413265Y16733130D01*
X13452413Y16653306D01*
X13576732Y16422977D01*
X13709744Y16232816D01*
X13853129Y16081241D01*
X14008568Y15966670D01*
X14177743Y15887523D01*
X14303542Y15852700D01*
X14465830Y15834855D01*
X14626454Y15846282D01*
X14777269Y15884526D01*
X14910132Y15947131D01*
X15016900Y16031643D01*
X15056892Y16079839D01*
X15118673Y16178477D01*
X15155042Y16270482D01*
X15171807Y16374125D01*
X15174890Y16450997D01*
X15164107Y16598531D01*
X15125229Y16727949D01*
X15053905Y16849490D01*
X14958289Y16960695D01*
X14891131Y17026582D01*
X14821734Y17087149D01*
X14743886Y17146676D01*
X14651371Y17209445D01*
X14537975Y17279739D01*
X14397485Y17361839D01*
X14276917Y17430187D01*
X14104214Y17530095D01*
X13963883Y17618196D01*
X13849349Y17699267D01*
X13754035Y17778089D01*
X13671365Y17859439D01*
X13642746Y17891046D01*
X13521289Y18059375D01*
X13438432Y18241845D01*
X13394780Y18433922D01*
X13390940Y18631073D01*
X13427521Y18828764D01*
X13494185Y19000716D01*
X13589205Y19153300D01*
X13714490Y19281904D01*
X13873867Y19390134D01*
X13948834Y19428918D01*
X14016419Y19460609D01*
X14070296Y19482007D01*
X14121694Y19495134D01*
X14181838Y19502009D01*
X14261956Y19504652D01*
X14372167Y19505083D01*
X14478257Y19504403D01*
X14561710Y19501060D01*
X14634609Y19493099D01*
X14709036Y19478564D01*
X14797074Y19455503D01*
X14910805Y19421958D01*
X14939339Y19413322D01*
X15056447Y19378137D01*
X15140296Y19354384D01*
X15198052Y19340923D01*
X15236878Y19336614D01*
X15263942Y19340320D01*
X15286407Y19350899D01*
X15295528Y19356681D01*
X15342473Y19403289D01*
X15370718Y19453734D01*
X15394494Y19498339D01*
X15433740Y19514452D01*
X15460295Y19515666D01*
X15528281Y19515666D01*
X15585478Y18960041D01*
G37*
X15585478Y18960041D02*
X15604489Y18776334D01*
X15619424Y18630486D01*
X15630157Y18518210D01*
X15636563Y18435218D01*
X15638513Y18377220D01*
X15635883Y18339930D01*
X15628547Y18319057D01*
X15616377Y18310314D01*
X15599248Y18309412D01*
X15577034Y18312063D01*
X15566440Y18313180D01*
X15530256Y18317908D01*
X15504297Y18329809D01*
X15482579Y18356727D01*
X15459121Y18406505D01*
X15427939Y18486987D01*
X15422184Y18502303D01*
X15349570Y18672592D01*
X15268720Y18812852D01*
X15171819Y18935381D01*
X15101996Y19006192D01*
X14949205Y19126346D01*
X14784871Y19206897D01*
X14603712Y19250110D01*
X14514741Y19258004D01*
X14404365Y19260304D01*
X14321806Y19253958D01*
X14253173Y19237590D01*
X14231691Y19229937D01*
X14101358Y19160020D01*
X14000237Y19064047D01*
X13931303Y18947766D01*
X13897528Y18816924D01*
X13901886Y18677265D01*
X13915416Y18618686D01*
X13960978Y18508249D01*
X14034425Y18398676D01*
X14138255Y18287676D01*
X14274966Y18172959D01*
X14447056Y18052235D01*
X14657025Y17923213D01*
X14703102Y17896601D01*
X14924930Y17765033D01*
X15110924Y17644357D01*
X15265252Y17531612D01*
X15392082Y17423834D01*
X15454956Y17362151D01*
X15582761Y17214695D01*
X15674185Y17072457D01*
X15732773Y16926575D01*
X15762066Y16768188D01*
X15765610Y16588434D01*
X15765487Y16585579D01*
X15758862Y16482619D01*
X15746729Y16404070D01*
X15724805Y16332026D01*
X15688806Y16248582D01*
X15680832Y16231667D01*
X15573600Y16052646D01*
X15436892Y15902830D01*
X15272822Y15783242D01*
X15083503Y15694906D01*
X14871048Y15638846D01*
X14637573Y15616085D01*
X14425084Y15623600D01*
X14333677Y15636640D01*
X14218592Y15659820D01*
X14096203Y15689571D01*
X14007280Y15714711D01*
X13904946Y15744319D01*
X13811787Y15768490D01*
X13738300Y15784675D01*
X13695896Y15790333D01*
X13632871Y15773710D01*
X13579311Y15732062D01*
X13549131Y15677724D01*
X13546667Y15658064D01*
X13539424Y15632252D01*
X13510270Y15623363D01*
X13467292Y15625014D01*
X13387917Y15631583D01*
X13310142Y16181916D01*
X13284359Y16363762D01*
X13264083Y16507981D01*
X13249239Y16618911D01*
X13239752Y16700888D01*
X13235547Y16758249D01*
X13236549Y16795333D01*
X13242682Y16816474D01*
X13253872Y16826012D01*
X13270043Y16828282D01*
X13291120Y16827622D01*
X13298955Y16827500D01*
X13333021Y16825277D01*
X13359112Y16813708D01*
X13383701Y16785443D01*
X13413265Y16733130D01*
X13452413Y16653306D01*
X13576732Y16422977D01*
X13709744Y16232816D01*
X13853129Y16081241D01*
X14008568Y15966670D01*
X14177743Y15887523D01*
X14303542Y15852700D01*
X14465830Y15834855D01*
X14626454Y15846282D01*
X14777269Y15884526D01*
X14910132Y15947131D01*
X15016900Y16031643D01*
X15056892Y16079839D01*
X15118673Y16178477D01*
X15155042Y16270482D01*
X15171807Y16374125D01*
X15174890Y16450997D01*
X15164107Y16598531D01*
X15125229Y16727949D01*
X15053905Y16849490D01*
X14958289Y16960695D01*
X14891131Y17026582D01*
X14821734Y17087149D01*
X14743886Y17146676D01*
X14651371Y17209445D01*
X14537975Y17279739D01*
X14397485Y17361839D01*
X14276917Y17430187D01*
X14104214Y17530095D01*
X13963883Y17618196D01*
X13849349Y17699267D01*
X13754035Y17778089D01*
X13671365Y17859439D01*
X13642746Y17891046D01*
X13521289Y18059375D01*
X13438432Y18241845D01*
X13394780Y18433922D01*
X13390940Y18631073D01*
X13427521Y18828764D01*
X13494185Y19000716D01*
X13589205Y19153300D01*
X13714490Y19281904D01*
X13873867Y19390134D01*
X13948834Y19428918D01*
X14016419Y19460609D01*
X14070296Y19482007D01*
X14121694Y19495134D01*
X14181838Y19502009D01*
X14261956Y19504652D01*
X14372167Y19505083D01*
X14478257Y19504403D01*
X14561710Y19501060D01*
X14634609Y19493099D01*
X14709036Y19478564D01*
X14797074Y19455503D01*
X14910805Y19421958D01*
X14939339Y19413322D01*
X15056447Y19378137D01*
X15140296Y19354384D01*
X15198052Y19340923D01*
X15236878Y19336614D01*
X15263942Y19340320D01*
X15286407Y19350899D01*
X15295528Y19356681D01*
X15342473Y19403289D01*
X15370718Y19453734D01*
X15394494Y19498339D01*
X15433740Y19514452D01*
X15460295Y19515666D01*
X15528281Y19515666D01*
X15585478Y18960041D01*
G36*
X-3429000Y19390931D02*
G01*
X-3436598Y19345139D01*
X-3464604Y19318340D01*
X-3520834Y19306153D01*
X-3584189Y19303967D01*
X-3675764Y19291757D01*
X-3757438Y19259237D01*
X-3817105Y19212466D01*
X-3838593Y19176611D01*
X-3843525Y19141670D01*
X-3836368Y19091762D01*
X-3815324Y19019377D01*
X-3778594Y18917008D01*
X-3772702Y18901445D01*
X-3748536Y18841096D01*
X-3710853Y18751141D01*
X-3661497Y18635719D01*
X-3602310Y18498970D01*
X-3535138Y18345032D01*
X-3461824Y18178044D01*
X-3384211Y18002145D01*
X-3304143Y17821473D01*
X-3223465Y17640169D01*
X-3144019Y17462371D01*
X-3067650Y17292217D01*
X-2996201Y17133847D01*
X-2931516Y16991399D01*
X-2875439Y16869012D01*
X-2829813Y16770827D01*
X-2796483Y16700980D01*
X-2777292Y16663611D01*
X-2773497Y16658389D01*
X-2762884Y16677495D01*
X-2738706Y16731859D01*
X-2702637Y16817244D01*
X-2656351Y16929412D01*
X-2601520Y17064125D01*
X-2539820Y17217146D01*
X-2472922Y17384238D01*
X-2402501Y17561162D01*
X-2330231Y17743681D01*
X-2257784Y17927558D01*
X-2186835Y18108555D01*
X-2119056Y18282435D01*
X-2056123Y18444959D01*
X-1999707Y18591891D01*
X-1951484Y18718993D01*
X-1913125Y18822027D01*
X-1886306Y18896756D01*
X-1872699Y18938942D01*
X-1872467Y18939837D01*
X-1851335Y19061822D01*
X-1858126Y19153692D01*
X-1893025Y19217317D01*
X-1900908Y19224724D01*
X-1962516Y19261217D01*
X-2044979Y19289910D01*
X-2126823Y19303662D01*
X-2139261Y19304000D01*
X-2212113Y19311248D01*
X-2251607Y19336206D01*
X-2264704Y19383695D01*
X-2264833Y19390931D01*
X-2264833Y19452166D01*
X-1079500Y19452166D01*
X-1079500Y19390931D01*
X-1092668Y19336894D01*
X-1135213Y19309418D01*
X-1186346Y19304000D01*
X-1260112Y19287119D01*
X-1338836Y19242945D01*
X-1406897Y19181177D01*
X-1427146Y19154461D01*
X-1439179Y19136316D01*
X-1450303Y19118985D01*
X-1461559Y19099941D01*
X-1473986Y19076660D01*
X-1488626Y19046615D01*
X-1506518Y19007281D01*
X-1528703Y18956132D01*
X-1556220Y18890643D01*
X-1590110Y18808288D01*
X-1631413Y18706541D01*
X-1681170Y18582877D01*
X-1740420Y18434770D01*
X-1810204Y18259695D01*
X-1891562Y18055125D01*
X-1985534Y17818535D01*
X-2093161Y17547400D01*
X-2202462Y17272000D01*
X-2319060Y16978404D01*
X-2421198Y16721736D01*
X-2509924Y16499534D01*
X-2586286Y16309337D01*
X-2651334Y16148682D01*
X-2706116Y16015107D01*
X-2751680Y15906150D01*
X-2789076Y15819350D01*
X-2819352Y15752244D01*
X-2843556Y15702371D01*
X-2862738Y15667268D01*
X-2877945Y15644474D01*
X-2890227Y15631527D01*
X-2900632Y15625964D01*
X-2903850Y15625327D01*
X-2913540Y15625896D01*
X-2924333Y15631576D01*
X-2937386Y15644776D01*
X-2953856Y15667907D01*
X-2974901Y15703379D01*
X-3001677Y15753600D01*
X-3035343Y15820981D01*
X-3077056Y15907931D01*
X-3127973Y16016860D01*
X-3189251Y16150177D01*
X-3262048Y16310292D01*
X-3347521Y16499615D01*
X-3446827Y16720555D01*
X-3561124Y16975522D01*
X-3681568Y17244577D01*
X-3794130Y17495636D01*
X-3903302Y17738200D01*
X-4007637Y17969108D01*
X-4105688Y18185199D01*
X-4196008Y18383313D01*
X-4277150Y18560289D01*
X-4347665Y18712966D01*
X-4406108Y18838182D01*
X-4451031Y18932778D01*
X-4480986Y18993592D01*
X-4490544Y19011471D01*
X-4576342Y19137262D01*
X-4667771Y19229047D01*
X-4761158Y19283506D01*
X-4804279Y19295194D01*
X-4881834Y19309685D01*
X-4926430Y19324484D01*
X-4947089Y19345349D01*
X-4952835Y19378038D01*
X-4953000Y19390093D01*
X-4953000Y19452166D01*
X-3429000Y19452166D01*
X-3429000Y19390931D01*
G37*
X-3429000Y19390931D02*
X-3436598Y19345139D01*
X-3464604Y19318340D01*
X-3520834Y19306153D01*
X-3584189Y19303967D01*
X-3675764Y19291757D01*
X-3757438Y19259237D01*
X-3817105Y19212466D01*
X-3838593Y19176611D01*
X-3843525Y19141670D01*
X-3836368Y19091762D01*
X-3815324Y19019377D01*
X-3778594Y18917008D01*
X-3772702Y18901445D01*
X-3748536Y18841096D01*
X-3710853Y18751141D01*
X-3661497Y18635719D01*
X-3602310Y18498970D01*
X-3535138Y18345032D01*
X-3461824Y18178044D01*
X-3384211Y18002145D01*
X-3304143Y17821473D01*
X-3223465Y17640169D01*
X-3144019Y17462371D01*
X-3067650Y17292217D01*
X-2996201Y17133847D01*
X-2931516Y16991399D01*
X-2875439Y16869012D01*
X-2829813Y16770827D01*
X-2796483Y16700980D01*
X-2777292Y16663611D01*
X-2773497Y16658389D01*
X-2762884Y16677495D01*
X-2738706Y16731859D01*
X-2702637Y16817244D01*
X-2656351Y16929412D01*
X-2601520Y17064125D01*
X-2539820Y17217146D01*
X-2472922Y17384238D01*
X-2402501Y17561162D01*
X-2330231Y17743681D01*
X-2257784Y17927558D01*
X-2186835Y18108555D01*
X-2119056Y18282435D01*
X-2056123Y18444959D01*
X-1999707Y18591891D01*
X-1951484Y18718993D01*
X-1913125Y18822027D01*
X-1886306Y18896756D01*
X-1872699Y18938942D01*
X-1872467Y18939837D01*
X-1851335Y19061822D01*
X-1858126Y19153692D01*
X-1893025Y19217317D01*
X-1900908Y19224724D01*
X-1962516Y19261217D01*
X-2044979Y19289910D01*
X-2126823Y19303662D01*
X-2139261Y19304000D01*
X-2212113Y19311248D01*
X-2251607Y19336206D01*
X-2264704Y19383695D01*
X-2264833Y19390931D01*
X-2264833Y19452166D01*
X-1079500Y19452166D01*
X-1079500Y19390931D01*
X-1092668Y19336894D01*
X-1135213Y19309418D01*
X-1186346Y19304000D01*
X-1260112Y19287119D01*
X-1338836Y19242945D01*
X-1406897Y19181177D01*
X-1427146Y19154461D01*
X-1439179Y19136316D01*
X-1450303Y19118985D01*
X-1461559Y19099941D01*
X-1473986Y19076660D01*
X-1488626Y19046615D01*
X-1506518Y19007281D01*
X-1528703Y18956132D01*
X-1556220Y18890643D01*
X-1590110Y18808288D01*
X-1631413Y18706541D01*
X-1681170Y18582877D01*
X-1740420Y18434770D01*
X-1810204Y18259695D01*
X-1891562Y18055125D01*
X-1985534Y17818535D01*
X-2093161Y17547400D01*
X-2202462Y17272000D01*
X-2319060Y16978404D01*
X-2421198Y16721736D01*
X-2509924Y16499534D01*
X-2586286Y16309337D01*
X-2651334Y16148682D01*
X-2706116Y16015107D01*
X-2751680Y15906150D01*
X-2789076Y15819350D01*
X-2819352Y15752244D01*
X-2843556Y15702371D01*
X-2862738Y15667268D01*
X-2877945Y15644474D01*
X-2890227Y15631527D01*
X-2900632Y15625964D01*
X-2903850Y15625327D01*
X-2913540Y15625896D01*
X-2924333Y15631576D01*
X-2937386Y15644776D01*
X-2953856Y15667907D01*
X-2974901Y15703379D01*
X-3001677Y15753600D01*
X-3035343Y15820981D01*
X-3077056Y15907931D01*
X-3127973Y16016860D01*
X-3189251Y16150177D01*
X-3262048Y16310292D01*
X-3347521Y16499615D01*
X-3446827Y16720555D01*
X-3561124Y16975522D01*
X-3681568Y17244577D01*
X-3794130Y17495636D01*
X-3903302Y17738200D01*
X-4007637Y17969108D01*
X-4105688Y18185199D01*
X-4196008Y18383313D01*
X-4277150Y18560289D01*
X-4347665Y18712966D01*
X-4406108Y18838182D01*
X-4451031Y18932778D01*
X-4480986Y18993592D01*
X-4490544Y19011471D01*
X-4576342Y19137262D01*
X-4667771Y19229047D01*
X-4761158Y19283506D01*
X-4804279Y19295194D01*
X-4881834Y19309685D01*
X-4926430Y19324484D01*
X-4947089Y19345349D01*
X-4952835Y19378038D01*
X-4953000Y19390093D01*
X-4953000Y19452166D01*
X-3429000Y19452166D01*
X-3429000Y19390931D01*
G36*
X-12530596Y19288125D02*
G01*
X-12529645Y19206926D01*
X-12527080Y19096094D01*
X-12523255Y18968283D01*
X-12518525Y18836150D01*
X-12516699Y18790708D01*
X-12502872Y18457333D01*
X-12579453Y18457333D01*
X-12628038Y18460525D01*
X-12654650Y18477724D01*
X-12671964Y18520362D01*
X-12679175Y18547291D01*
X-12725043Y18712265D01*
X-12772302Y18845125D01*
X-12826096Y18949608D01*
X-12891566Y19029454D01*
X-12973857Y19088400D01*
X-13078110Y19130184D01*
X-13209469Y19158545D01*
X-13373076Y19177220D01*
X-13562541Y19189369D01*
X-13843000Y19203599D01*
X-13843000Y17680725D01*
X-13842924Y17372447D01*
X-13842575Y17103657D01*
X-13841775Y16871511D01*
X-13840344Y16673163D01*
X-13838101Y16505769D01*
X-13834867Y16366483D01*
X-13830463Y16252461D01*
X-13824709Y16160858D01*
X-13817424Y16088828D01*
X-13808430Y16033528D01*
X-13797547Y15992111D01*
X-13784594Y15961734D01*
X-13769393Y15939550D01*
X-13751764Y15922716D01*
X-13731526Y15908386D01*
X-13731037Y15908068D01*
X-13665271Y15878670D01*
X-13565189Y15851355D01*
X-13438807Y15828168D01*
X-13393208Y15821837D01*
X-13332512Y15811948D01*
X-13302928Y15797326D01*
X-13293385Y15769699D01*
X-13292666Y15746703D01*
X-13292666Y15684500D01*
X-14964833Y15684500D01*
X-14964833Y15747041D01*
X-14964961Y15774518D01*
X-14960515Y15793223D01*
X-14944251Y15806276D01*
X-14908925Y15816794D01*
X-14847291Y15827898D01*
X-14752105Y15842706D01*
X-14737291Y15845003D01*
X-14624765Y15873811D01*
X-14545035Y15922343D01*
X-14491474Y15994904D01*
X-14484937Y16008922D01*
X-14477581Y16027798D01*
X-14471191Y16050513D01*
X-14465685Y16080082D01*
X-14460980Y16119517D01*
X-14456994Y16171831D01*
X-14453645Y16240036D01*
X-14450850Y16327146D01*
X-14448527Y16436174D01*
X-14446595Y16570131D01*
X-14444970Y16732032D01*
X-14443570Y16924889D01*
X-14442313Y17151715D01*
X-14441118Y17415523D01*
X-14440179Y17647708D01*
X-14434108Y19198166D01*
X-14535429Y19197686D01*
X-14597102Y19195821D01*
X-14688245Y19191116D01*
X-14796143Y19184301D01*
X-14898739Y19176836D01*
X-15069786Y19158502D01*
X-15205174Y19129912D01*
X-15311241Y19086142D01*
X-15394322Y19022264D01*
X-15460757Y18933352D01*
X-15516882Y18814481D01*
X-15569035Y18660723D01*
X-15570978Y18654278D01*
X-15598604Y18563849D01*
X-15618988Y18506460D01*
X-15637039Y18474600D01*
X-15657665Y18460754D01*
X-15685775Y18457412D01*
X-15699656Y18457333D01*
X-15769166Y18457333D01*
X-15769166Y18602119D01*
X-15768301Y18674203D01*
X-15765916Y18777290D01*
X-15762327Y18900094D01*
X-15757849Y19031324D01*
X-15755259Y19099536D01*
X-15741352Y19452166D01*
X-12530666Y19452166D01*
X-12530596Y19288125D01*
G37*
X-12530596Y19288125D02*
X-12529645Y19206926D01*
X-12527080Y19096094D01*
X-12523255Y18968283D01*
X-12518525Y18836150D01*
X-12516699Y18790708D01*
X-12502872Y18457333D01*
X-12579453Y18457333D01*
X-12628038Y18460525D01*
X-12654650Y18477724D01*
X-12671964Y18520362D01*
X-12679175Y18547291D01*
X-12725043Y18712265D01*
X-12772302Y18845125D01*
X-12826096Y18949608D01*
X-12891566Y19029454D01*
X-12973857Y19088400D01*
X-13078110Y19130184D01*
X-13209469Y19158545D01*
X-13373076Y19177220D01*
X-13562541Y19189369D01*
X-13843000Y19203599D01*
X-13843000Y17680725D01*
X-13842924Y17372447D01*
X-13842575Y17103657D01*
X-13841775Y16871511D01*
X-13840344Y16673163D01*
X-13838101Y16505769D01*
X-13834867Y16366483D01*
X-13830463Y16252461D01*
X-13824709Y16160858D01*
X-13817424Y16088828D01*
X-13808430Y16033528D01*
X-13797547Y15992111D01*
X-13784594Y15961734D01*
X-13769393Y15939550D01*
X-13751764Y15922716D01*
X-13731526Y15908386D01*
X-13731037Y15908068D01*
X-13665271Y15878670D01*
X-13565189Y15851355D01*
X-13438807Y15828168D01*
X-13393208Y15821837D01*
X-13332512Y15811948D01*
X-13302928Y15797326D01*
X-13293385Y15769699D01*
X-13292666Y15746703D01*
X-13292666Y15684500D01*
X-14964833Y15684500D01*
X-14964833Y15747041D01*
X-14964961Y15774518D01*
X-14960515Y15793223D01*
X-14944251Y15806276D01*
X-14908925Y15816794D01*
X-14847291Y15827898D01*
X-14752105Y15842706D01*
X-14737291Y15845003D01*
X-14624765Y15873811D01*
X-14545035Y15922343D01*
X-14491474Y15994904D01*
X-14484937Y16008922D01*
X-14477581Y16027798D01*
X-14471191Y16050513D01*
X-14465685Y16080082D01*
X-14460980Y16119517D01*
X-14456994Y16171831D01*
X-14453645Y16240036D01*
X-14450850Y16327146D01*
X-14448527Y16436174D01*
X-14446595Y16570131D01*
X-14444970Y16732032D01*
X-14443570Y16924889D01*
X-14442313Y17151715D01*
X-14441118Y17415523D01*
X-14440179Y17647708D01*
X-14434108Y19198166D01*
X-14535429Y19197686D01*
X-14597102Y19195821D01*
X-14688245Y19191116D01*
X-14796143Y19184301D01*
X-14898739Y19176836D01*
X-15069786Y19158502D01*
X-15205174Y19129912D01*
X-15311241Y19086142D01*
X-15394322Y19022264D01*
X-15460757Y18933352D01*
X-15516882Y18814481D01*
X-15569035Y18660723D01*
X-15570978Y18654278D01*
X-15598604Y18563849D01*
X-15618988Y18506460D01*
X-15637039Y18474600D01*
X-15657665Y18460754D01*
X-15685775Y18457412D01*
X-15699656Y18457333D01*
X-15769166Y18457333D01*
X-15769166Y18602119D01*
X-15768301Y18674203D01*
X-15765916Y18777290D01*
X-15762327Y18900094D01*
X-15757849Y19031324D01*
X-15755259Y19099536D01*
X-15741352Y19452166D01*
X-12530666Y19452166D01*
X-12530596Y19288125D01*
G36*
X-11542466Y19451800D02*
G01*
X-11266308Y19450942D01*
X-11028017Y19448266D01*
X-10823144Y19443222D01*
X-10647240Y19435260D01*
X-10495858Y19423830D01*
X-10364549Y19408381D01*
X-10248864Y19388364D01*
X-10144357Y19363228D01*
X-10046578Y19332424D01*
X-9951080Y19295401D01*
X-9853414Y19251609D01*
X-9828831Y19239873D01*
X-9663884Y19139723D01*
X-9532992Y19015336D01*
X-9437198Y18868151D01*
X-9377543Y18699606D01*
X-9359926Y18592749D01*
X-9354567Y18379618D01*
X-9384749Y18189006D01*
X-9450683Y18020637D01*
X-9552581Y17874236D01*
X-9690653Y17749527D01*
X-9865114Y17646235D01*
X-10076173Y17564085D01*
X-10172002Y17536795D01*
X-10353550Y17489797D01*
X-9743483Y16741406D01*
X-9615129Y16584859D01*
X-9492005Y16436419D01*
X-9377269Y16299772D01*
X-9274080Y16178603D01*
X-9185594Y16076598D01*
X-9114972Y15997443D01*
X-9065371Y15944824D01*
X-9043901Y15925017D01*
X-8946742Y15868916D01*
X-8837526Y15832758D01*
X-8770987Y15817264D01*
X-8736076Y15801397D01*
X-8722683Y15777696D01*
X-8720666Y15746499D01*
X-8720666Y15684500D01*
X-9181041Y15685484D01*
X-9641416Y15686469D01*
X-10974916Y17419655D01*
X-11128375Y17419911D01*
X-11281833Y17420166D01*
X-11281833Y16807375D01*
X-11281091Y16596095D01*
X-11278560Y16422829D01*
X-11273782Y16283278D01*
X-11266300Y16173144D01*
X-11255655Y16088126D01*
X-11241389Y16023928D01*
X-11223046Y15976249D01*
X-11200167Y15940792D01*
X-11188131Y15927540D01*
X-11140287Y15895002D01*
X-11063471Y15866372D01*
X-10952724Y15840093D01*
X-10853208Y15822400D01*
X-10800846Y15810078D01*
X-10778480Y15788422D01*
X-10773833Y15747041D01*
X-10773833Y15684500D01*
X-12361333Y15684500D01*
X-12361333Y15745531D01*
X-12348587Y15794632D01*
X-12306867Y15822483D01*
X-12230952Y15832385D01*
X-12223750Y15832496D01*
X-12137199Y15845067D01*
X-12050000Y15876345D01*
X-11981233Y15918983D01*
X-11969165Y15930548D01*
X-11930592Y15995719D01*
X-11901764Y16094128D01*
X-11897679Y16115778D01*
X-11893007Y16164157D01*
X-11888858Y16249661D01*
X-11885231Y16367821D01*
X-11882128Y16514170D01*
X-11879547Y16684238D01*
X-11877491Y16873558D01*
X-11875959Y17077662D01*
X-11874951Y17292082D01*
X-11874467Y17512349D01*
X-11874509Y17733996D01*
X-11875076Y17952553D01*
X-11876168Y18163554D01*
X-11877746Y18357534D01*
X-11281833Y18357534D01*
X-11281833Y17646658D01*
X-11054291Y17658894D01*
X-10936660Y17667894D01*
X-10812487Y17681735D01*
X-10701455Y17698067D01*
X-10658385Y17706147D01*
X-10458706Y17760614D01*
X-10296220Y17833582D01*
X-10169661Y17925860D01*
X-10077763Y18038258D01*
X-10046634Y18097262D01*
X-10018051Y18189791D01*
X-9999661Y18309192D01*
X-9992091Y18441099D01*
X-9995968Y18571148D01*
X-10011919Y18684971D01*
X-10019661Y18715569D01*
X-10081683Y18856121D01*
X-10179169Y18974086D01*
X-10311578Y19069149D01*
X-10478374Y19140996D01*
X-10679019Y19189312D01*
X-10867636Y19211098D01*
X-11021244Y19215030D01*
X-11136820Y19202766D01*
X-11215553Y19174038D01*
X-11258635Y19128574D01*
X-11261596Y19121639D01*
X-11266617Y19087569D01*
X-11271143Y19016181D01*
X-11275042Y18912490D01*
X-11278181Y18781510D01*
X-11280427Y18628254D01*
X-11281647Y18457737D01*
X-11281833Y18357534D01*
X-11877746Y18357534D01*
X-11877787Y18362530D01*
X-11879932Y18545013D01*
X-11882603Y18706534D01*
X-11885801Y18842627D01*
X-11889526Y18948821D01*
X-11893779Y19020650D01*
X-11897475Y19050000D01*
X-11921175Y19120132D01*
X-11953826Y19179982D01*
X-11964769Y19193537D01*
X-12017682Y19230389D01*
X-12099133Y19265135D01*
X-12195420Y19292900D01*
X-12287250Y19308281D01*
X-12332351Y19319077D01*
X-12352020Y19348669D01*
X-12357383Y19383375D01*
X-12364015Y19452166D01*
X-11542466Y19451800D01*
G37*
X-11542466Y19451800D02*
X-11266308Y19450942D01*
X-11028017Y19448266D01*
X-10823144Y19443222D01*
X-10647240Y19435260D01*
X-10495858Y19423830D01*
X-10364549Y19408381D01*
X-10248864Y19388364D01*
X-10144357Y19363228D01*
X-10046578Y19332424D01*
X-9951080Y19295401D01*
X-9853414Y19251609D01*
X-9828831Y19239873D01*
X-9663884Y19139723D01*
X-9532992Y19015336D01*
X-9437198Y18868151D01*
X-9377543Y18699606D01*
X-9359926Y18592749D01*
X-9354567Y18379618D01*
X-9384749Y18189006D01*
X-9450683Y18020637D01*
X-9552581Y17874236D01*
X-9690653Y17749527D01*
X-9865114Y17646235D01*
X-10076173Y17564085D01*
X-10172002Y17536795D01*
X-10353550Y17489797D01*
X-9743483Y16741406D01*
X-9615129Y16584859D01*
X-9492005Y16436419D01*
X-9377269Y16299772D01*
X-9274080Y16178603D01*
X-9185594Y16076598D01*
X-9114972Y15997443D01*
X-9065371Y15944824D01*
X-9043901Y15925017D01*
X-8946742Y15868916D01*
X-8837526Y15832758D01*
X-8770987Y15817264D01*
X-8736076Y15801397D01*
X-8722683Y15777696D01*
X-8720666Y15746499D01*
X-8720666Y15684500D01*
X-9181041Y15685484D01*
X-9641416Y15686469D01*
X-10974916Y17419655D01*
X-11128375Y17419911D01*
X-11281833Y17420166D01*
X-11281833Y16807375D01*
X-11281091Y16596095D01*
X-11278560Y16422829D01*
X-11273782Y16283278D01*
X-11266300Y16173144D01*
X-11255655Y16088126D01*
X-11241389Y16023928D01*
X-11223046Y15976249D01*
X-11200167Y15940792D01*
X-11188131Y15927540D01*
X-11140287Y15895002D01*
X-11063471Y15866372D01*
X-10952724Y15840093D01*
X-10853208Y15822400D01*
X-10800846Y15810078D01*
X-10778480Y15788422D01*
X-10773833Y15747041D01*
X-10773833Y15684500D01*
X-12361333Y15684500D01*
X-12361333Y15745531D01*
X-12348587Y15794632D01*
X-12306867Y15822483D01*
X-12230952Y15832385D01*
X-12223750Y15832496D01*
X-12137199Y15845067D01*
X-12050000Y15876345D01*
X-11981233Y15918983D01*
X-11969165Y15930548D01*
X-11930592Y15995719D01*
X-11901764Y16094128D01*
X-11897679Y16115778D01*
X-11893007Y16164157D01*
X-11888858Y16249661D01*
X-11885231Y16367821D01*
X-11882128Y16514170D01*
X-11879547Y16684238D01*
X-11877491Y16873558D01*
X-11875959Y17077662D01*
X-11874951Y17292082D01*
X-11874467Y17512349D01*
X-11874509Y17733996D01*
X-11875076Y17952553D01*
X-11876168Y18163554D01*
X-11877746Y18357534D01*
X-11281833Y18357534D01*
X-11281833Y17646658D01*
X-11054291Y17658894D01*
X-10936660Y17667894D01*
X-10812487Y17681735D01*
X-10701455Y17698067D01*
X-10658385Y17706147D01*
X-10458706Y17760614D01*
X-10296220Y17833582D01*
X-10169661Y17925860D01*
X-10077763Y18038258D01*
X-10046634Y18097262D01*
X-10018051Y18189791D01*
X-9999661Y18309192D01*
X-9992091Y18441099D01*
X-9995968Y18571148D01*
X-10011919Y18684971D01*
X-10019661Y18715569D01*
X-10081683Y18856121D01*
X-10179169Y18974086D01*
X-10311578Y19069149D01*
X-10478374Y19140996D01*
X-10679019Y19189312D01*
X-10867636Y19211098D01*
X-11021244Y19215030D01*
X-11136820Y19202766D01*
X-11215553Y19174038D01*
X-11258635Y19128574D01*
X-11261596Y19121639D01*
X-11266617Y19087569D01*
X-11271143Y19016181D01*
X-11275042Y18912490D01*
X-11278181Y18781510D01*
X-11280427Y18628254D01*
X-11281647Y18457737D01*
X-11281833Y18357534D01*
X-11877746Y18357534D01*
X-11877787Y18362530D01*
X-11879932Y18545013D01*
X-11882603Y18706534D01*
X-11885801Y18842627D01*
X-11889526Y18948821D01*
X-11893779Y19020650D01*
X-11897475Y19050000D01*
X-11921175Y19120132D01*
X-11953826Y19179982D01*
X-11964769Y19193537D01*
X-12017682Y19230389D01*
X-12099133Y19265135D01*
X-12195420Y19292900D01*
X-12287250Y19308281D01*
X-12332351Y19319077D01*
X-12352020Y19348669D01*
X-12357383Y19383375D01*
X-12364015Y19452166D01*
X-11542466Y19451800D01*
G36*
X-5840141Y17809018D02*
G01*
X-5727189Y17552209D01*
X-5617728Y17304682D01*
X-5513122Y17069443D01*
X-5414735Y16849498D01*
X-5323929Y16647854D01*
X-5242069Y16467516D01*
X-5170518Y16311491D01*
X-5110638Y16182784D01*
X-5063795Y16084401D01*
X-5031351Y16019349D01*
X-5016382Y15992891D01*
X-4969131Y15930517D01*
X-4923935Y15890963D01*
X-4864388Y15862396D01*
X-4810007Y15844050D01*
X-4738463Y15819917D01*
X-4698681Y15799741D01*
X-4681518Y15776568D01*
X-4677833Y15743508D01*
X-4677833Y15684500D01*
X-6138333Y15684500D01*
X-6138333Y15744763D01*
X-6136455Y15775208D01*
X-6125041Y15794737D01*
X-6095425Y15807755D01*
X-6038938Y15818669D01*
X-5974582Y15828005D01*
X-5886724Y15843518D01*
X-5819240Y15865057D01*
X-5771928Y15896423D01*
X-5744586Y15941416D01*
X-5737012Y16003836D01*
X-5749004Y16087483D01*
X-5780359Y16196160D01*
X-5830875Y16333665D01*
X-5900350Y16503799D01*
X-5934360Y16584083D01*
X-6069767Y16901583D01*
X-7531565Y16912711D01*
X-7672122Y16557897D01*
X-7738531Y16385113D01*
X-7786719Y16245827D01*
X-7817149Y16135551D01*
X-7830282Y16049798D01*
X-7826583Y15984078D01*
X-7806514Y15933904D01*
X-7770538Y15894788D01*
X-7742536Y15875380D01*
X-7681276Y15848671D01*
X-7601916Y15827160D01*
X-7563187Y15820681D01*
X-7498043Y15810929D01*
X-7464568Y15798118D01*
X-7452282Y15775251D01*
X-7450666Y15745561D01*
X-7450666Y15684500D01*
X-8593666Y15684500D01*
X-8593666Y15745487D01*
X-8589098Y15784180D01*
X-8568065Y15807406D01*
X-8519574Y15824942D01*
X-8498033Y15830555D01*
X-8452510Y15843551D01*
X-8410521Y15860201D01*
X-8370634Y15883083D01*
X-8331411Y15914776D01*
X-8291420Y15957857D01*
X-8249225Y16014905D01*
X-8203392Y16088499D01*
X-8152485Y16181216D01*
X-8095070Y16295635D01*
X-8029713Y16434334D01*
X-7954978Y16599891D01*
X-7869431Y16794885D01*
X-7771637Y17021894D01*
X-7710159Y17166166D01*
X-7427849Y17166166D01*
X-6161287Y17166166D01*
X-6222669Y17309041D01*
X-6246578Y17365213D01*
X-6284130Y17454089D01*
X-6332650Y17569311D01*
X-6389466Y17704519D01*
X-6451902Y17853356D01*
X-6517286Y18009463D01*
X-6533984Y18049371D01*
X-6596459Y18197777D01*
X-6654047Y18332778D01*
X-6704663Y18449631D01*
X-6746224Y18543592D01*
X-6776648Y18609919D01*
X-6793849Y18643867D01*
X-6796633Y18647330D01*
X-6807822Y18628740D01*
X-6832829Y18576102D01*
X-6869398Y18494529D01*
X-6915273Y18389134D01*
X-6968198Y18265031D01*
X-7022917Y18134541D01*
X-7086688Y17981371D01*
X-7150938Y17827225D01*
X-7212074Y17680713D01*
X-7266500Y17550446D01*
X-7310623Y17445036D01*
X-7332166Y17393708D01*
X-7427849Y17166166D01*
X-7710159Y17166166D01*
X-7660161Y17283495D01*
X-7566338Y17504833D01*
X-7429036Y17829289D01*
X-7307334Y18116995D01*
X-7200236Y18370145D01*
X-7106745Y18590934D01*
X-7025864Y18781555D01*
X-6956595Y18944202D01*
X-6897940Y19081070D01*
X-6848904Y19194353D01*
X-6808488Y19286244D01*
X-6775695Y19358938D01*
X-6749528Y19414628D01*
X-6728990Y19455508D01*
X-6713084Y19483774D01*
X-6700813Y19501617D01*
X-6691178Y19511234D01*
X-6683184Y19514817D01*
X-6675832Y19514560D01*
X-6668126Y19512659D01*
X-6659068Y19511305D01*
X-6654288Y19511460D01*
X-6589698Y19517837D01*
X-5840141Y17809018D01*
G37*
X-5840141Y17809018D02*
X-5727189Y17552209D01*
X-5617728Y17304682D01*
X-5513122Y17069443D01*
X-5414735Y16849498D01*
X-5323929Y16647854D01*
X-5242069Y16467516D01*
X-5170518Y16311491D01*
X-5110638Y16182784D01*
X-5063795Y16084401D01*
X-5031351Y16019349D01*
X-5016382Y15992891D01*
X-4969131Y15930517D01*
X-4923935Y15890963D01*
X-4864388Y15862396D01*
X-4810007Y15844050D01*
X-4738463Y15819917D01*
X-4698681Y15799741D01*
X-4681518Y15776568D01*
X-4677833Y15743508D01*
X-4677833Y15684500D01*
X-6138333Y15684500D01*
X-6138333Y15744763D01*
X-6136455Y15775208D01*
X-6125041Y15794737D01*
X-6095425Y15807755D01*
X-6038938Y15818669D01*
X-5974582Y15828005D01*
X-5886724Y15843518D01*
X-5819240Y15865057D01*
X-5771928Y15896423D01*
X-5744586Y15941416D01*
X-5737012Y16003836D01*
X-5749004Y16087483D01*
X-5780359Y16196160D01*
X-5830875Y16333665D01*
X-5900350Y16503799D01*
X-5934360Y16584083D01*
X-6069767Y16901583D01*
X-7531565Y16912711D01*
X-7672122Y16557897D01*
X-7738531Y16385113D01*
X-7786719Y16245827D01*
X-7817149Y16135551D01*
X-7830282Y16049798D01*
X-7826583Y15984078D01*
X-7806514Y15933904D01*
X-7770538Y15894788D01*
X-7742536Y15875380D01*
X-7681276Y15848671D01*
X-7601916Y15827160D01*
X-7563187Y15820681D01*
X-7498043Y15810929D01*
X-7464568Y15798118D01*
X-7452282Y15775251D01*
X-7450666Y15745561D01*
X-7450666Y15684500D01*
X-8593666Y15684500D01*
X-8593666Y15745487D01*
X-8589098Y15784180D01*
X-8568065Y15807406D01*
X-8519574Y15824942D01*
X-8498033Y15830555D01*
X-8452510Y15843551D01*
X-8410521Y15860201D01*
X-8370634Y15883083D01*
X-8331411Y15914776D01*
X-8291420Y15957857D01*
X-8249225Y16014905D01*
X-8203392Y16088499D01*
X-8152485Y16181216D01*
X-8095070Y16295635D01*
X-8029713Y16434334D01*
X-7954978Y16599891D01*
X-7869431Y16794885D01*
X-7771637Y17021894D01*
X-7710159Y17166166D01*
X-7427849Y17166166D01*
X-6161287Y17166166D01*
X-6222669Y17309041D01*
X-6246578Y17365213D01*
X-6284130Y17454089D01*
X-6332650Y17569311D01*
X-6389466Y17704519D01*
X-6451902Y17853356D01*
X-6517286Y18009463D01*
X-6533984Y18049371D01*
X-6596459Y18197777D01*
X-6654047Y18332778D01*
X-6704663Y18449631D01*
X-6746224Y18543592D01*
X-6776648Y18609919D01*
X-6793849Y18643867D01*
X-6796633Y18647330D01*
X-6807822Y18628740D01*
X-6832829Y18576102D01*
X-6869398Y18494529D01*
X-6915273Y18389134D01*
X-6968198Y18265031D01*
X-7022917Y18134541D01*
X-7086688Y17981371D01*
X-7150938Y17827225D01*
X-7212074Y17680713D01*
X-7266500Y17550446D01*
X-7310623Y17445036D01*
X-7332166Y17393708D01*
X-7427849Y17166166D01*
X-7710159Y17166166D01*
X-7660161Y17283495D01*
X-7566338Y17504833D01*
X-7429036Y17829289D01*
X-7307334Y18116995D01*
X-7200236Y18370145D01*
X-7106745Y18590934D01*
X-7025864Y18781555D01*
X-6956595Y18944202D01*
X-6897940Y19081070D01*
X-6848904Y19194353D01*
X-6808488Y19286244D01*
X-6775695Y19358938D01*
X-6749528Y19414628D01*
X-6728990Y19455508D01*
X-6713084Y19483774D01*
X-6700813Y19501617D01*
X-6691178Y19511234D01*
X-6683184Y19514817D01*
X-6675832Y19514560D01*
X-6668126Y19512659D01*
X-6659068Y19511305D01*
X-6654288Y19511460D01*
X-6589698Y19517837D01*
X-5840141Y17809018D01*
G36*
X2060469Y19163070D02*
G01*
X2065745Y19043691D01*
X2070098Y18927403D01*
X2073100Y18826895D01*
X2074325Y18754858D01*
X2074334Y18750320D01*
X2074334Y18626666D01*
X1994959Y18626865D01*
X1915584Y18627063D01*
X1868779Y18781267D01*
X1824794Y18907289D01*
X1774896Y19003980D01*
X1712698Y19075834D01*
X1631816Y19127347D01*
X1525863Y19163015D01*
X1388452Y19187333D01*
X1274482Y19199616D01*
X1165452Y19206989D01*
X1027187Y19212562D01*
X872762Y19216018D01*
X715248Y19217039D01*
X600714Y19215977D01*
X457631Y19213187D01*
X350965Y19210091D01*
X274803Y19206047D01*
X223230Y19200409D01*
X190332Y19192535D01*
X170195Y19181779D01*
X157024Y19167663D01*
X148409Y19148824D01*
X141536Y19115635D01*
X136228Y19063908D01*
X132311Y18989456D01*
X129607Y18888091D01*
X127942Y18755624D01*
X127141Y18587869D01*
X127000Y18451231D01*
X127000Y17775886D01*
X682625Y17785009D01*
X868624Y17788623D01*
X1017450Y17793144D01*
X1134264Y17799257D01*
X1224226Y17807646D01*
X1292495Y17818995D01*
X1344233Y17833990D01*
X1384599Y17853312D01*
X1418754Y17877648D01*
X1425711Y17883539D01*
X1481115Y17953405D01*
X1529236Y18057453D01*
X1566447Y18187689D01*
X1568881Y18199183D01*
X1584648Y18270416D01*
X1599298Y18309649D01*
X1619883Y18326422D01*
X1653453Y18330272D01*
X1665818Y18330333D01*
X1735667Y18330333D01*
X1735667Y16996833D01*
X1665818Y16996833D01*
X1626380Y16999050D01*
X1602780Y17012296D01*
X1587319Y17046464D01*
X1572300Y17111447D01*
X1570735Y17119011D01*
X1530090Y17260500D01*
X1473739Y17373524D01*
X1404693Y17452621D01*
X1375834Y17472599D01*
X1351235Y17485327D01*
X1323076Y17495372D01*
X1286101Y17503127D01*
X1235057Y17508988D01*
X1164687Y17513348D01*
X1069737Y17516601D01*
X944952Y17519141D01*
X785076Y17521363D01*
X714375Y17522202D01*
X127000Y17528987D01*
X127000Y16042409D01*
X176863Y15992547D01*
X216990Y15965430D01*
X278895Y15944766D01*
X366222Y15930223D01*
X482615Y15921472D01*
X631719Y15918182D01*
X817178Y15920022D01*
X940874Y15923249D01*
X1163443Y15934172D01*
X1349617Y15953397D01*
X1504852Y15982874D01*
X1634608Y16024551D01*
X1744340Y16080375D01*
X1839508Y16152296D01*
X1925570Y16242260D01*
X1961614Y16287609D01*
X2021061Y16372100D01*
X2079680Y16465204D01*
X2119267Y16536317D01*
X2154046Y16602263D01*
X2180946Y16638741D01*
X2210390Y16654456D01*
X2252799Y16658115D01*
X2265138Y16658166D01*
X2318330Y16654623D01*
X2348192Y16645778D01*
X2350468Y16642291D01*
X2345622Y16618098D01*
X2331504Y16558937D01*
X2309609Y16470782D01*
X2281430Y16359606D01*
X2248460Y16231384D01*
X2228760Y16155508D01*
X2106084Y15684599D01*
X576792Y15684549D01*
X-952500Y15684500D01*
X-952500Y15747041D01*
X-947611Y15789073D01*
X-924757Y15810331D01*
X-873125Y15822211D01*
X-732556Y15851059D01*
X-628884Y15888602D01*
X-557031Y15938049D01*
X-511918Y16002607D01*
X-492639Y16062580D01*
X-489870Y16096426D01*
X-487249Y16168935D01*
X-484814Y16276435D01*
X-482605Y16415257D01*
X-480661Y16581730D01*
X-479021Y16772184D01*
X-477726Y16982947D01*
X-476814Y17210350D01*
X-476324Y17450722D01*
X-476250Y17589500D01*
X-476283Y17872697D01*
X-476442Y18116691D01*
X-476811Y18324610D01*
X-477478Y18499585D01*
X-478528Y18644745D01*
X-480049Y18763220D01*
X-482126Y18858139D01*
X-484846Y18932633D01*
X-488294Y18989829D01*
X-492559Y19032859D01*
X-497725Y19064852D01*
X-503879Y19088937D01*
X-511107Y19108244D01*
X-518583Y19124083D01*
X-581724Y19206135D01*
X-677562Y19263779D01*
X-807502Y19297806D01*
X-832389Y19301215D01*
X-896619Y19310769D01*
X-930032Y19324415D01*
X-943961Y19350167D01*
X-948549Y19383375D01*
X-955182Y19452166D01*
X2046604Y19452166D01*
X2060469Y19163070D01*
G37*
X2060469Y19163070D02*
X2065745Y19043691D01*
X2070098Y18927403D01*
X2073100Y18826895D01*
X2074325Y18754858D01*
X2074334Y18750320D01*
X2074334Y18626666D01*
X1994959Y18626865D01*
X1915584Y18627063D01*
X1868779Y18781267D01*
X1824794Y18907289D01*
X1774896Y19003980D01*
X1712698Y19075834D01*
X1631816Y19127347D01*
X1525863Y19163015D01*
X1388452Y19187333D01*
X1274482Y19199616D01*
X1165452Y19206989D01*
X1027187Y19212562D01*
X872762Y19216018D01*
X715248Y19217039D01*
X600714Y19215977D01*
X457631Y19213187D01*
X350965Y19210091D01*
X274803Y19206047D01*
X223230Y19200409D01*
X190332Y19192535D01*
X170195Y19181779D01*
X157024Y19167663D01*
X148409Y19148824D01*
X141536Y19115635D01*
X136228Y19063908D01*
X132311Y18989456D01*
X129607Y18888091D01*
X127942Y18755624D01*
X127141Y18587869D01*
X127000Y18451231D01*
X127000Y17775886D01*
X682625Y17785009D01*
X868624Y17788623D01*
X1017450Y17793144D01*
X1134264Y17799257D01*
X1224226Y17807646D01*
X1292495Y17818995D01*
X1344233Y17833990D01*
X1384599Y17853312D01*
X1418754Y17877648D01*
X1425711Y17883539D01*
X1481115Y17953405D01*
X1529236Y18057453D01*
X1566447Y18187689D01*
X1568881Y18199183D01*
X1584648Y18270416D01*
X1599298Y18309649D01*
X1619883Y18326422D01*
X1653453Y18330272D01*
X1665818Y18330333D01*
X1735667Y18330333D01*
X1735667Y16996833D01*
X1665818Y16996833D01*
X1626380Y16999050D01*
X1602780Y17012296D01*
X1587319Y17046464D01*
X1572300Y17111447D01*
X1570735Y17119011D01*
X1530090Y17260500D01*
X1473739Y17373524D01*
X1404693Y17452621D01*
X1375834Y17472599D01*
X1351235Y17485327D01*
X1323076Y17495372D01*
X1286101Y17503127D01*
X1235057Y17508988D01*
X1164687Y17513348D01*
X1069737Y17516601D01*
X944952Y17519141D01*
X785076Y17521363D01*
X714375Y17522202D01*
X127000Y17528987D01*
X127000Y16042409D01*
X176863Y15992547D01*
X216990Y15965430D01*
X278895Y15944766D01*
X366222Y15930223D01*
X482615Y15921472D01*
X631719Y15918182D01*
X817178Y15920022D01*
X940874Y15923249D01*
X1163443Y15934172D01*
X1349617Y15953397D01*
X1504852Y15982874D01*
X1634608Y16024551D01*
X1744340Y16080375D01*
X1839508Y16152296D01*
X1925570Y16242260D01*
X1961614Y16287609D01*
X2021061Y16372100D01*
X2079680Y16465204D01*
X2119267Y16536317D01*
X2154046Y16602263D01*
X2180946Y16638741D01*
X2210390Y16654456D01*
X2252799Y16658115D01*
X2265138Y16658166D01*
X2318330Y16654623D01*
X2348192Y16645778D01*
X2350468Y16642291D01*
X2345622Y16618098D01*
X2331504Y16558937D01*
X2309609Y16470782D01*
X2281430Y16359606D01*
X2248460Y16231384D01*
X2228760Y16155508D01*
X2106084Y15684599D01*
X576792Y15684549D01*
X-952500Y15684500D01*
X-952500Y15747041D01*
X-947611Y15789073D01*
X-924757Y15810331D01*
X-873125Y15822211D01*
X-732556Y15851059D01*
X-628884Y15888602D01*
X-557031Y15938049D01*
X-511918Y16002607D01*
X-492639Y16062580D01*
X-489870Y16096426D01*
X-487249Y16168935D01*
X-484814Y16276435D01*
X-482605Y16415257D01*
X-480661Y16581730D01*
X-479021Y16772184D01*
X-477726Y16982947D01*
X-476814Y17210350D01*
X-476324Y17450722D01*
X-476250Y17589500D01*
X-476283Y17872697D01*
X-476442Y18116691D01*
X-476811Y18324610D01*
X-477478Y18499585D01*
X-478528Y18644745D01*
X-480049Y18763220D01*
X-482126Y18858139D01*
X-484846Y18932633D01*
X-488294Y18989829D01*
X-492559Y19032859D01*
X-497725Y19064852D01*
X-503879Y19088937D01*
X-511107Y19108244D01*
X-518583Y19124083D01*
X-581724Y19206135D01*
X-677562Y19263779D01*
X-807502Y19297806D01*
X-832389Y19301215D01*
X-896619Y19310769D01*
X-930032Y19324415D01*
X-943961Y19350167D01*
X-948549Y19383375D01*
X-955182Y19452166D01*
X2046604Y19452166D01*
X2060469Y19163070D01*
G36*
X4081216Y19383375D02*
G01*
X4075281Y19344782D01*
X4059910Y19322566D01*
X4024571Y19309961D01*
X3958731Y19300199D01*
X3950092Y19299122D01*
X3807926Y19267814D01*
X3698446Y19213787D01*
X3631449Y19149002D01*
X3623105Y19136797D01*
X3615882Y19122619D01*
X3609686Y19103468D01*
X3604424Y19076346D01*
X3600001Y19038252D01*
X3596324Y18986186D01*
X3593298Y18917148D01*
X3590830Y18828140D01*
X3588824Y18716160D01*
X3587187Y18578210D01*
X3585826Y18411289D01*
X3584645Y18212398D01*
X3583551Y17978536D01*
X3582450Y17706705D01*
X3581921Y17569802D01*
X3580839Y17279557D01*
X3580020Y17028663D01*
X3579533Y16814140D01*
X3579443Y16633006D01*
X3579817Y16482279D01*
X3580723Y16358979D01*
X3582226Y16260125D01*
X3584394Y16182735D01*
X3587294Y16123827D01*
X3590991Y16080421D01*
X3595553Y16049535D01*
X3601047Y16028189D01*
X3607539Y16013400D01*
X3615095Y16002187D01*
X3617059Y15999716D01*
X3631175Y15983476D01*
X3647520Y15971056D01*
X3671647Y15961846D01*
X3709106Y15955236D01*
X3765448Y15950615D01*
X3846223Y15947372D01*
X3956982Y15944896D01*
X4103277Y15942577D01*
X4141471Y15942017D01*
X4347072Y15940381D01*
X4517153Y15942575D01*
X4658416Y15949351D01*
X4777563Y15961467D01*
X4881295Y15979676D01*
X4976315Y16004734D01*
X5069323Y16037396D01*
X5101167Y16050157D01*
X5258573Y16134634D01*
X5392767Y16250289D01*
X5506890Y16400275D01*
X5576363Y16527061D01*
X5616861Y16609199D01*
X5646148Y16660251D01*
X5670738Y16687578D01*
X5697142Y16698540D01*
X5729822Y16700500D01*
X5780147Y16693280D01*
X5800100Y16674413D01*
X5800111Y16674041D01*
X5794852Y16646869D01*
X5779853Y16584938D01*
X5756674Y16494291D01*
X5726875Y16380966D01*
X5692016Y16251003D01*
X5668908Y16166041D01*
X5537260Y15684500D01*
X2476500Y15684500D01*
X2476500Y15746318D01*
X2477926Y15776928D01*
X2487344Y15797704D01*
X2512462Y15812300D01*
X2560989Y15824369D01*
X2640635Y15837565D01*
X2682382Y15843894D01*
X2787745Y15875418D01*
X2872897Y15931632D01*
X2928388Y16005823D01*
X2935680Y16023899D01*
X2941020Y16051871D01*
X2945659Y16104050D01*
X2949632Y16182501D01*
X2952973Y16289284D01*
X2955717Y16426465D01*
X2957899Y16596105D01*
X2959554Y16800267D01*
X2960716Y17041014D01*
X2961420Y17320410D01*
X2961674Y17568333D01*
X2961777Y17853984D01*
X2961726Y18100419D01*
X2961443Y18310753D01*
X2960845Y18488104D01*
X2959853Y18635589D01*
X2958385Y18756323D01*
X2956361Y18853424D01*
X2953699Y18930008D01*
X2950320Y18989193D01*
X2946143Y19034093D01*
X2941086Y19067827D01*
X2935069Y19093511D01*
X2928011Y19114261D01*
X2921213Y19130172D01*
X2878182Y19198813D01*
X2816644Y19246423D01*
X2727671Y19278483D01*
X2656417Y19292696D01*
X2569739Y19307301D01*
X2516633Y19319575D01*
X2488873Y19333922D01*
X2478237Y19354748D01*
X2476501Y19386458D01*
X2476500Y19389070D01*
X2476500Y19452166D01*
X4087849Y19452166D01*
X4081216Y19383375D01*
G37*
X4081216Y19383375D02*
X4075281Y19344782D01*
X4059910Y19322566D01*
X4024571Y19309961D01*
X3958731Y19300199D01*
X3950092Y19299122D01*
X3807926Y19267814D01*
X3698446Y19213787D01*
X3631449Y19149002D01*
X3623105Y19136797D01*
X3615882Y19122619D01*
X3609686Y19103468D01*
X3604424Y19076346D01*
X3600001Y19038252D01*
X3596324Y18986186D01*
X3593298Y18917148D01*
X3590830Y18828140D01*
X3588824Y18716160D01*
X3587187Y18578210D01*
X3585826Y18411289D01*
X3584645Y18212398D01*
X3583551Y17978536D01*
X3582450Y17706705D01*
X3581921Y17569802D01*
X3580839Y17279557D01*
X3580020Y17028663D01*
X3579533Y16814140D01*
X3579443Y16633006D01*
X3579817Y16482279D01*
X3580723Y16358979D01*
X3582226Y16260125D01*
X3584394Y16182735D01*
X3587294Y16123827D01*
X3590991Y16080421D01*
X3595553Y16049535D01*
X3601047Y16028189D01*
X3607539Y16013400D01*
X3615095Y16002187D01*
X3617059Y15999716D01*
X3631175Y15983476D01*
X3647520Y15971056D01*
X3671647Y15961846D01*
X3709106Y15955236D01*
X3765448Y15950615D01*
X3846223Y15947372D01*
X3956982Y15944896D01*
X4103277Y15942577D01*
X4141471Y15942017D01*
X4347072Y15940381D01*
X4517153Y15942575D01*
X4658416Y15949351D01*
X4777563Y15961467D01*
X4881295Y15979676D01*
X4976315Y16004734D01*
X5069323Y16037396D01*
X5101167Y16050157D01*
X5258573Y16134634D01*
X5392767Y16250289D01*
X5506890Y16400275D01*
X5576363Y16527061D01*
X5616861Y16609199D01*
X5646148Y16660251D01*
X5670738Y16687578D01*
X5697142Y16698540D01*
X5729822Y16700500D01*
X5780147Y16693280D01*
X5800100Y16674413D01*
X5800111Y16674041D01*
X5794852Y16646869D01*
X5779853Y16584938D01*
X5756674Y16494291D01*
X5726875Y16380966D01*
X5692016Y16251003D01*
X5668908Y16166041D01*
X5537260Y15684500D01*
X2476500Y15684500D01*
X2476500Y15746318D01*
X2477926Y15776928D01*
X2487344Y15797704D01*
X2512462Y15812300D01*
X2560989Y15824369D01*
X2640635Y15837565D01*
X2682382Y15843894D01*
X2787745Y15875418D01*
X2872897Y15931632D01*
X2928388Y16005823D01*
X2935680Y16023899D01*
X2941020Y16051871D01*
X2945659Y16104050D01*
X2949632Y16182501D01*
X2952973Y16289284D01*
X2955717Y16426465D01*
X2957899Y16596105D01*
X2959554Y16800267D01*
X2960716Y17041014D01*
X2961420Y17320410D01*
X2961674Y17568333D01*
X2961777Y17853984D01*
X2961726Y18100419D01*
X2961443Y18310753D01*
X2960845Y18488104D01*
X2959853Y18635589D01*
X2958385Y18756323D01*
X2956361Y18853424D01*
X2953699Y18930008D01*
X2950320Y18989193D01*
X2946143Y19034093D01*
X2941086Y19067827D01*
X2935069Y19093511D01*
X2928011Y19114261D01*
X2921213Y19130172D01*
X2878182Y19198813D01*
X2816644Y19246423D01*
X2727671Y19278483D01*
X2656417Y19292696D01*
X2569739Y19307301D01*
X2516633Y19319575D01*
X2488873Y19333922D01*
X2478237Y19354748D01*
X2476501Y19386458D01*
X2476500Y19389070D01*
X2476500Y19452166D01*
X4087849Y19452166D01*
X4081216Y19383375D01*
G36*
X8953500Y18626666D02*
G01*
X8880919Y18626666D01*
X8839920Y18629002D01*
X8814342Y18642449D01*
X8795637Y18676667D01*
X8775256Y18741318D01*
X8773216Y18748375D01*
X8733497Y18862450D01*
X8684962Y18965906D01*
X8633098Y19048671D01*
X8583394Y19100673D01*
X8580040Y19102965D01*
X8528942Y19131769D01*
X8469489Y19154935D01*
X8396772Y19173031D01*
X8305886Y19186629D01*
X8191924Y19196299D01*
X8049978Y19202612D01*
X7875142Y19206137D01*
X7681579Y19207408D01*
X7500799Y19207420D01*
X7358000Y19206403D01*
X7248841Y19204162D01*
X7168977Y19200504D01*
X7114065Y19195232D01*
X7079762Y19188153D01*
X7062454Y19179700D01*
X7052725Y19168087D01*
X7044955Y19148153D01*
X7038930Y19115501D01*
X7034434Y19065737D01*
X7031251Y18994465D01*
X7029166Y18897289D01*
X7027963Y18769813D01*
X7027427Y18607641D01*
X7027334Y18463268D01*
X7027334Y17775886D01*
X7582959Y17783747D01*
X7752531Y17786352D01*
X7885482Y17789111D01*
X7987524Y17792493D01*
X8064367Y17796968D01*
X8121722Y17803006D01*
X8165301Y17811077D01*
X8200816Y17821649D01*
X8233976Y17835195D01*
X8239656Y17837766D01*
X8304151Y17872765D01*
X8347657Y17914969D01*
X8384972Y17979678D01*
X8392687Y17996003D01*
X8427594Y18083041D01*
X8457519Y18177415D01*
X8467740Y18219208D01*
X8482630Y18283447D01*
X8498631Y18316461D01*
X8524677Y18328629D01*
X8563418Y18330333D01*
X8636000Y18330333D01*
X8636000Y16996833D01*
X8562320Y16996833D01*
X8510495Y17001974D01*
X8485330Y17024151D01*
X8475531Y17055041D01*
X8440907Y17195402D01*
X8407004Y17300242D01*
X8370451Y17376176D01*
X8327880Y17429819D01*
X8275919Y17467784D01*
X8261348Y17475462D01*
X8233369Y17487545D01*
X8200142Y17497085D01*
X8156319Y17504460D01*
X8096553Y17510049D01*
X8015496Y17514229D01*
X7907801Y17517378D01*
X7768119Y17519875D01*
X7603856Y17521954D01*
X7026796Y17528492D01*
X7032356Y16772814D01*
X7037917Y16017136D01*
X7097677Y15972526D01*
X7118832Y15958260D01*
X7142905Y15947405D01*
X7175625Y15939497D01*
X7222719Y15934072D01*
X7289916Y15930667D01*
X7382943Y15928815D01*
X7507528Y15928054D01*
X7648011Y15927916D01*
X7853731Y15929297D01*
X8023344Y15933951D01*
X8162999Y15942647D01*
X8278850Y15956155D01*
X8377047Y15975242D01*
X8463740Y16000677D01*
X8545083Y16033230D01*
X8565251Y16042546D01*
X8693400Y16123881D01*
X8815368Y16241490D01*
X8925538Y16389314D01*
X8987798Y16498029D01*
X9069917Y16657985D01*
X9159875Y16658076D01*
X9214837Y16655598D01*
X9246660Y16649261D01*
X9249834Y16646089D01*
X9244646Y16623671D01*
X9230346Y16567515D01*
X9208830Y16484759D01*
X9181993Y16382540D01*
X9151731Y16267999D01*
X9119939Y16148272D01*
X9088514Y16030499D01*
X9059349Y15921819D01*
X9034342Y15829369D01*
X9015387Y15760288D01*
X9004381Y15721714D01*
X9004328Y15721541D01*
X9000257Y15714486D01*
X8990754Y15708385D01*
X8972945Y15703169D01*
X8943952Y15698770D01*
X8900900Y15695118D01*
X8840913Y15692144D01*
X8761114Y15689780D01*
X8658627Y15687956D01*
X8530576Y15686604D01*
X8374085Y15685654D01*
X8186277Y15685038D01*
X7964277Y15684686D01*
X7705209Y15684530D01*
X7459824Y15684500D01*
X5926667Y15684500D01*
X5926667Y15746318D01*
X5928093Y15776928D01*
X5937511Y15797704D01*
X5962629Y15812300D01*
X6011156Y15824369D01*
X6090801Y15837565D01*
X6132549Y15843894D01*
X6239100Y15876111D01*
X6324238Y15934027D01*
X6378998Y16011241D01*
X6383707Y16023166D01*
X6388853Y16058592D01*
X6393540Y16132070D01*
X6397760Y16239319D01*
X6401504Y16376062D01*
X6404761Y16538017D01*
X6407523Y16720907D01*
X6409780Y16920451D01*
X6411522Y17132370D01*
X6412739Y17352385D01*
X6413423Y17576216D01*
X6413564Y17799584D01*
X6413151Y18018210D01*
X6412177Y18227813D01*
X6410631Y18424115D01*
X6408503Y18602837D01*
X6405784Y18759698D01*
X6402465Y18890420D01*
X6398536Y18990723D01*
X6393988Y19056327D01*
X6390503Y19079056D01*
X6368932Y19140936D01*
X6338908Y19188596D01*
X6293976Y19225723D01*
X6227683Y19256003D01*
X6133571Y19283125D01*
X6005187Y19310775D01*
X5974292Y19316796D01*
X5938726Y19334589D01*
X5926922Y19377160D01*
X5926667Y19389070D01*
X5926667Y19452166D01*
X8953500Y19452166D01*
X8953500Y18626666D01*
G37*
X8953500Y18626666D02*
X8880919Y18626666D01*
X8839920Y18629002D01*
X8814342Y18642449D01*
X8795637Y18676667D01*
X8775256Y18741318D01*
X8773216Y18748375D01*
X8733497Y18862450D01*
X8684962Y18965906D01*
X8633098Y19048671D01*
X8583394Y19100673D01*
X8580040Y19102965D01*
X8528942Y19131769D01*
X8469489Y19154935D01*
X8396772Y19173031D01*
X8305886Y19186629D01*
X8191924Y19196299D01*
X8049978Y19202612D01*
X7875142Y19206137D01*
X7681579Y19207408D01*
X7500799Y19207420D01*
X7358000Y19206403D01*
X7248841Y19204162D01*
X7168977Y19200504D01*
X7114065Y19195232D01*
X7079762Y19188153D01*
X7062454Y19179700D01*
X7052725Y19168087D01*
X7044955Y19148153D01*
X7038930Y19115501D01*
X7034434Y19065737D01*
X7031251Y18994465D01*
X7029166Y18897289D01*
X7027963Y18769813D01*
X7027427Y18607641D01*
X7027334Y18463268D01*
X7027334Y17775886D01*
X7582959Y17783747D01*
X7752531Y17786352D01*
X7885482Y17789111D01*
X7987524Y17792493D01*
X8064367Y17796968D01*
X8121722Y17803006D01*
X8165301Y17811077D01*
X8200816Y17821649D01*
X8233976Y17835195D01*
X8239656Y17837766D01*
X8304151Y17872765D01*
X8347657Y17914969D01*
X8384972Y17979678D01*
X8392687Y17996003D01*
X8427594Y18083041D01*
X8457519Y18177415D01*
X8467740Y18219208D01*
X8482630Y18283447D01*
X8498631Y18316461D01*
X8524677Y18328629D01*
X8563418Y18330333D01*
X8636000Y18330333D01*
X8636000Y16996833D01*
X8562320Y16996833D01*
X8510495Y17001974D01*
X8485330Y17024151D01*
X8475531Y17055041D01*
X8440907Y17195402D01*
X8407004Y17300242D01*
X8370451Y17376176D01*
X8327880Y17429819D01*
X8275919Y17467784D01*
X8261348Y17475462D01*
X8233369Y17487545D01*
X8200142Y17497085D01*
X8156319Y17504460D01*
X8096553Y17510049D01*
X8015496Y17514229D01*
X7907801Y17517378D01*
X7768119Y17519875D01*
X7603856Y17521954D01*
X7026796Y17528492D01*
X7032356Y16772814D01*
X7037917Y16017136D01*
X7097677Y15972526D01*
X7118832Y15958260D01*
X7142905Y15947405D01*
X7175625Y15939497D01*
X7222719Y15934072D01*
X7289916Y15930667D01*
X7382943Y15928815D01*
X7507528Y15928054D01*
X7648011Y15927916D01*
X7853731Y15929297D01*
X8023344Y15933951D01*
X8162999Y15942647D01*
X8278850Y15956155D01*
X8377047Y15975242D01*
X8463740Y16000677D01*
X8545083Y16033230D01*
X8565251Y16042546D01*
X8693400Y16123881D01*
X8815368Y16241490D01*
X8925538Y16389314D01*
X8987798Y16498029D01*
X9069917Y16657985D01*
X9159875Y16658076D01*
X9214837Y16655598D01*
X9246660Y16649261D01*
X9249834Y16646089D01*
X9244646Y16623671D01*
X9230346Y16567515D01*
X9208830Y16484759D01*
X9181993Y16382540D01*
X9151731Y16267999D01*
X9119939Y16148272D01*
X9088514Y16030499D01*
X9059349Y15921819D01*
X9034342Y15829369D01*
X9015387Y15760288D01*
X9004381Y15721714D01*
X9004328Y15721541D01*
X9000257Y15714486D01*
X8990754Y15708385D01*
X8972945Y15703169D01*
X8943952Y15698770D01*
X8900900Y15695118D01*
X8840913Y15692144D01*
X8761114Y15689780D01*
X8658627Y15687956D01*
X8530576Y15686604D01*
X8374085Y15685654D01*
X8186277Y15685038D01*
X7964277Y15684686D01*
X7705209Y15684530D01*
X7459824Y15684500D01*
X5926667Y15684500D01*
X5926667Y15746318D01*
X5928093Y15776928D01*
X5937511Y15797704D01*
X5962629Y15812300D01*
X6011156Y15824369D01*
X6090801Y15837565D01*
X6132549Y15843894D01*
X6239100Y15876111D01*
X6324238Y15934027D01*
X6378998Y16011241D01*
X6383707Y16023166D01*
X6388853Y16058592D01*
X6393540Y16132070D01*
X6397760Y16239319D01*
X6401504Y16376062D01*
X6404761Y16538017D01*
X6407523Y16720907D01*
X6409780Y16920451D01*
X6411522Y17132370D01*
X6412739Y17352385D01*
X6413423Y17576216D01*
X6413564Y17799584D01*
X6413151Y18018210D01*
X6412177Y18227813D01*
X6410631Y18424115D01*
X6408503Y18602837D01*
X6405784Y18759698D01*
X6402465Y18890420D01*
X6398536Y18990723D01*
X6393988Y19056327D01*
X6390503Y19079056D01*
X6368932Y19140936D01*
X6338908Y19188596D01*
X6293976Y19225723D01*
X6227683Y19256003D01*
X6133571Y19283125D01*
X6005187Y19310775D01*
X5974292Y19316796D01*
X5938726Y19334589D01*
X5926922Y19377160D01*
X5926667Y19389070D01*
X5926667Y19452166D01*
X8953500Y19452166D01*
X8953500Y18626666D01*
G36*
X10185117Y19451800D02*
G01*
X10451703Y19451090D01*
X10680633Y19448892D01*
X10876572Y19444710D01*
X11044186Y19438051D01*
X11188141Y19428421D01*
X11313102Y19415325D01*
X11423736Y19398270D01*
X11524706Y19376761D01*
X11620680Y19350304D01*
X11716323Y19318405D01*
X11816300Y19280569D01*
X11821584Y19278478D01*
X11973888Y19200446D01*
X12110370Y19096395D01*
X12222888Y18974071D01*
X12303299Y18841218D01*
X12317689Y18806583D01*
X12365211Y18626852D01*
X12379440Y18437456D01*
X12360725Y18249982D01*
X12309416Y18076019D01*
X12294649Y18042536D01*
X12217375Y17922463D01*
X12104491Y17808818D01*
X11962677Y17706138D01*
X11798614Y17618961D01*
X11618981Y17551824D01*
X11541275Y17530879D01*
X11467687Y17511980D01*
X11413479Y17495548D01*
X11388776Y17484707D01*
X11388239Y17483666D01*
X11401312Y17464279D01*
X11438133Y17416367D01*
X11495396Y17343968D01*
X11569793Y17251117D01*
X11658020Y17141851D01*
X11756769Y17020207D01*
X11862735Y16890222D01*
X11972610Y16755931D01*
X12083090Y16621371D01*
X12190868Y16490578D01*
X12292637Y16367590D01*
X12385091Y16256442D01*
X12464925Y16161172D01*
X12528831Y16085815D01*
X12573504Y16034408D01*
X12590208Y16016214D01*
X12672337Y15938221D01*
X12746234Y15886552D01*
X12827211Y15852349D01*
X12910609Y15830916D01*
X12973605Y15815305D01*
X13005360Y15798133D01*
X13016416Y15771049D01*
X13017500Y15746246D01*
X13017500Y15684500D01*
X12092790Y15684500D01*
X11426686Y16547041D01*
X10760581Y17409583D01*
X10608457Y17415802D01*
X10456334Y17422021D01*
X10456452Y16770219D01*
X10457204Y16587926D01*
X10459294Y16423430D01*
X10462577Y16281605D01*
X10466907Y16167319D01*
X10472136Y16085445D01*
X10478120Y16040853D01*
X10478347Y16040004D01*
X10509867Y15968249D01*
X10563005Y15913164D01*
X10643213Y15871674D01*
X10755941Y15840707D01*
X10863792Y15822720D01*
X10924486Y15812266D01*
X10954078Y15797295D01*
X10963622Y15769448D01*
X10964334Y15746703D01*
X10964334Y15684500D01*
X9376834Y15684500D01*
X9376834Y15747041D01*
X9381723Y15789073D01*
X9404576Y15810331D01*
X9456209Y15822211D01*
X9584134Y15846940D01*
X9677057Y15877036D01*
X9742295Y15916946D01*
X9787169Y15971116D01*
X9818401Y16042200D01*
X9823412Y16078472D01*
X9827840Y16152771D01*
X9831691Y16260819D01*
X9834971Y16398337D01*
X9837683Y16561047D01*
X9839833Y16744670D01*
X9841425Y16944929D01*
X9842466Y17157546D01*
X9842959Y17378241D01*
X9842909Y17602737D01*
X9842323Y17826756D01*
X9841204Y18046018D01*
X9839557Y18256247D01*
X9837388Y18453163D01*
X9835117Y18604773D01*
X10456312Y18604773D01*
X10456332Y18403679D01*
X10456334Y18380079D01*
X10456334Y17646658D01*
X10683875Y17659116D01*
X10798313Y17667783D01*
X10916220Y17680679D01*
X11019428Y17695662D01*
X11061284Y17703574D01*
X11259784Y17756955D01*
X11420439Y17825532D01*
X11545773Y17911766D01*
X11638314Y18018119D01*
X11700589Y18147052D01*
X11735122Y18301026D01*
X11741471Y18366228D01*
X11738434Y18561140D01*
X11701492Y18731938D01*
X11631271Y18877620D01*
X11528399Y18997186D01*
X11393501Y19089633D01*
X11253279Y19146403D01*
X11157484Y19169702D01*
X11039859Y19189561D01*
X10913872Y19204580D01*
X10792988Y19213362D01*
X10690676Y19214505D01*
X10638848Y19210246D01*
X10592167Y19203392D01*
X10554199Y19195505D01*
X10524045Y19182496D01*
X10500808Y19160279D01*
X10483589Y19124769D01*
X10471489Y19071878D01*
X10463609Y18997519D01*
X10459052Y18897607D01*
X10456919Y18768054D01*
X10456312Y18604773D01*
X9835117Y18604773D01*
X9834701Y18632489D01*
X9831501Y18789945D01*
X9827794Y18921255D01*
X9823584Y19022139D01*
X9818876Y19088320D01*
X9814847Y19113140D01*
X9768991Y19184304D01*
X9687873Y19242303D01*
X9577458Y19283603D01*
X9502005Y19298561D01*
X9435983Y19309591D01*
X9401001Y19323472D01*
X9386047Y19347926D01*
X9380784Y19383552D01*
X9374151Y19452166D01*
X10185117Y19451800D01*
G37*
X10185117Y19451800D02*
X10451703Y19451090D01*
X10680633Y19448892D01*
X10876572Y19444710D01*
X11044186Y19438051D01*
X11188141Y19428421D01*
X11313102Y19415325D01*
X11423736Y19398270D01*
X11524706Y19376761D01*
X11620680Y19350304D01*
X11716323Y19318405D01*
X11816300Y19280569D01*
X11821584Y19278478D01*
X11973888Y19200446D01*
X12110370Y19096395D01*
X12222888Y18974071D01*
X12303299Y18841218D01*
X12317689Y18806583D01*
X12365211Y18626852D01*
X12379440Y18437456D01*
X12360725Y18249982D01*
X12309416Y18076019D01*
X12294649Y18042536D01*
X12217375Y17922463D01*
X12104491Y17808818D01*
X11962677Y17706138D01*
X11798614Y17618961D01*
X11618981Y17551824D01*
X11541275Y17530879D01*
X11467687Y17511980D01*
X11413479Y17495548D01*
X11388776Y17484707D01*
X11388239Y17483666D01*
X11401312Y17464279D01*
X11438133Y17416367D01*
X11495396Y17343968D01*
X11569793Y17251117D01*
X11658020Y17141851D01*
X11756769Y17020207D01*
X11862735Y16890222D01*
X11972610Y16755931D01*
X12083090Y16621371D01*
X12190868Y16490578D01*
X12292637Y16367590D01*
X12385091Y16256442D01*
X12464925Y16161172D01*
X12528831Y16085815D01*
X12573504Y16034408D01*
X12590208Y16016214D01*
X12672337Y15938221D01*
X12746234Y15886552D01*
X12827211Y15852349D01*
X12910609Y15830916D01*
X12973605Y15815305D01*
X13005360Y15798133D01*
X13016416Y15771049D01*
X13017500Y15746246D01*
X13017500Y15684500D01*
X12092790Y15684500D01*
X11426686Y16547041D01*
X10760581Y17409583D01*
X10608457Y17415802D01*
X10456334Y17422021D01*
X10456452Y16770219D01*
X10457204Y16587926D01*
X10459294Y16423430D01*
X10462577Y16281605D01*
X10466907Y16167319D01*
X10472136Y16085445D01*
X10478120Y16040853D01*
X10478347Y16040004D01*
X10509867Y15968249D01*
X10563005Y15913164D01*
X10643213Y15871674D01*
X10755941Y15840707D01*
X10863792Y15822720D01*
X10924486Y15812266D01*
X10954078Y15797295D01*
X10963622Y15769448D01*
X10964334Y15746703D01*
X10964334Y15684500D01*
X9376834Y15684500D01*
X9376834Y15747041D01*
X9381723Y15789073D01*
X9404576Y15810331D01*
X9456209Y15822211D01*
X9584134Y15846940D01*
X9677057Y15877036D01*
X9742295Y15916946D01*
X9787169Y15971116D01*
X9818401Y16042200D01*
X9823412Y16078472D01*
X9827840Y16152771D01*
X9831691Y16260819D01*
X9834971Y16398337D01*
X9837683Y16561047D01*
X9839833Y16744670D01*
X9841425Y16944929D01*
X9842466Y17157546D01*
X9842959Y17378241D01*
X9842909Y17602737D01*
X9842323Y17826756D01*
X9841204Y18046018D01*
X9839557Y18256247D01*
X9837388Y18453163D01*
X9835117Y18604773D01*
X10456312Y18604773D01*
X10456332Y18403679D01*
X10456334Y18380079D01*
X10456334Y17646658D01*
X10683875Y17659116D01*
X10798313Y17667783D01*
X10916220Y17680679D01*
X11019428Y17695662D01*
X11061284Y17703574D01*
X11259784Y17756955D01*
X11420439Y17825532D01*
X11545773Y17911766D01*
X11638314Y18018119D01*
X11700589Y18147052D01*
X11735122Y18301026D01*
X11741471Y18366228D01*
X11738434Y18561140D01*
X11701492Y18731938D01*
X11631271Y18877620D01*
X11528399Y18997186D01*
X11393501Y19089633D01*
X11253279Y19146403D01*
X11157484Y19169702D01*
X11039859Y19189561D01*
X10913872Y19204580D01*
X10792988Y19213362D01*
X10690676Y19214505D01*
X10638848Y19210246D01*
X10592167Y19203392D01*
X10554199Y19195505D01*
X10524045Y19182496D01*
X10500808Y19160279D01*
X10483589Y19124769D01*
X10471489Y19071878D01*
X10463609Y18997519D01*
X10459052Y18897607D01*
X10456919Y18768054D01*
X10456312Y18604773D01*
X9835117Y18604773D01*
X9834701Y18632489D01*
X9831501Y18789945D01*
X9827794Y18921255D01*
X9823584Y19022139D01*
X9818876Y19088320D01*
X9814847Y19113140D01*
X9768991Y19184304D01*
X9687873Y19242303D01*
X9577458Y19283603D01*
X9502005Y19298561D01*
X9435983Y19309591D01*
X9401001Y19323472D01*
X9386047Y19347926D01*
X9380784Y19383552D01*
X9374151Y19452166D01*
X10185117Y19451800D01*
M02*
