G04 #@! TF.GenerationSoftware,KiCad,Pcbnew,5.1.5+dfsg1-2build2*
G04 #@! TF.CreationDate,2021-05-19T21:24:38-04:00*
G04 #@! TF.ProjectId,ocean_tile_ore,6f636561-6e5f-4746-996c-655f6f72652e,rev?*
G04 #@! TF.SameCoordinates,Original*
G04 #@! TF.FileFunction,Legend,Top*
G04 #@! TF.FilePolarity,Positive*
%FSLAX46Y46*%
G04 Gerber Fmt 4.6, Leading zero omitted, Abs format (unit mm)*
G04 Created by KiCad (PCBNEW 5.1.5+dfsg1-2build2) date 2021-05-19 21:24:38*
%MOMM*%
%LPD*%
G04 APERTURE LIST*
%ADD10C,0.010000*%
G04 APERTURE END LIST*
D10*
G36*
X418925Y-6232214D02*
G01*
X464499Y-6251759D01*
X479894Y-6260042D01*
X507167Y-6280484D01*
X562990Y-6326713D01*
X644456Y-6396188D01*
X748657Y-6486367D01*
X872684Y-6594710D01*
X1013631Y-6718674D01*
X1168590Y-6855719D01*
X1334652Y-7003304D01*
X1508909Y-7158887D01*
X1530226Y-7177967D01*
X2514074Y-8058850D01*
X2839246Y-8074258D01*
X2918810Y-8078102D01*
X3035901Y-8083864D01*
X3185768Y-8091305D01*
X3363659Y-8100187D01*
X3564823Y-8110272D01*
X3784508Y-8121322D01*
X4017963Y-8133098D01*
X4260437Y-8145362D01*
X4507178Y-8157876D01*
X4522129Y-8158635D01*
X4796129Y-8172613D01*
X5031046Y-8184785D01*
X5230082Y-8195405D01*
X5396437Y-8204726D01*
X5533313Y-8213002D01*
X5643910Y-8220487D01*
X5731430Y-8227433D01*
X5799072Y-8234096D01*
X5850038Y-8240728D01*
X5887529Y-8247584D01*
X5914746Y-8254916D01*
X5934889Y-8262979D01*
X5950879Y-8271850D01*
X6003378Y-8310493D01*
X6041087Y-8348612D01*
X6044967Y-8354340D01*
X6055228Y-8378180D01*
X6080013Y-8439234D01*
X6118449Y-8535283D01*
X6169660Y-8664108D01*
X6232773Y-8823490D01*
X6306914Y-9011209D01*
X6391208Y-9225046D01*
X6484781Y-9462781D01*
X6586760Y-9722196D01*
X6696270Y-10001071D01*
X6812438Y-10297187D01*
X6934388Y-10608324D01*
X7061247Y-10932264D01*
X7192140Y-11266787D01*
X7198025Y-11281834D01*
X7357377Y-11689486D01*
X7501825Y-12059503D01*
X7632025Y-12393617D01*
X7748633Y-12693564D01*
X7852304Y-12961076D01*
X7943695Y-13197888D01*
X8023462Y-13405733D01*
X8092260Y-13586347D01*
X8150746Y-13741462D01*
X8199574Y-13872813D01*
X8239401Y-13982134D01*
X8270884Y-14071159D01*
X8294677Y-14141621D01*
X8311436Y-14195255D01*
X8321818Y-14233795D01*
X8326478Y-14258974D01*
X8326884Y-14266334D01*
X8325022Y-14287995D01*
X8318961Y-14314485D01*
X8307257Y-14348529D01*
X8288466Y-14392856D01*
X8261145Y-14450191D01*
X8223851Y-14523260D01*
X8175141Y-14614791D01*
X8113569Y-14727509D01*
X8037694Y-14864142D01*
X7946071Y-15027415D01*
X7837257Y-15220056D01*
X7709809Y-15444791D01*
X7609679Y-15621000D01*
X7487917Y-15834646D01*
X7371143Y-16038553D01*
X7261206Y-16229553D01*
X7159958Y-16404476D01*
X7069250Y-16560151D01*
X6990932Y-16693409D01*
X6926856Y-16801081D01*
X6878871Y-16879997D01*
X6848830Y-16926987D01*
X6840571Y-16938136D01*
X6785314Y-16984213D01*
X6724577Y-17016329D01*
X6722217Y-17017123D01*
X6680610Y-17027745D01*
X6601996Y-17044928D01*
X6490303Y-17067946D01*
X6349458Y-17096071D01*
X6183386Y-17128576D01*
X5996016Y-17164734D01*
X5791273Y-17203818D01*
X5573084Y-17245100D01*
X5345376Y-17287853D01*
X5112077Y-17331350D01*
X4877111Y-17374865D01*
X4644408Y-17417669D01*
X4417892Y-17459035D01*
X4201491Y-17498237D01*
X3999131Y-17534548D01*
X3814740Y-17567239D01*
X3652244Y-17595584D01*
X3515569Y-17618855D01*
X3408644Y-17636326D01*
X3335393Y-17647270D01*
X3299744Y-17650958D01*
X3299574Y-17650955D01*
X3265872Y-17647804D01*
X3192633Y-17639038D01*
X3082235Y-17624981D01*
X2937054Y-17605958D01*
X2759468Y-17582294D01*
X2551854Y-17554313D01*
X2316591Y-17522339D01*
X2056055Y-17486698D01*
X1772623Y-17447714D01*
X1468674Y-17405711D01*
X1146584Y-17361014D01*
X808731Y-17313947D01*
X457492Y-17264835D01*
X95246Y-17214003D01*
X-20094Y-17197781D01*
X-424047Y-17140789D01*
X-809038Y-17086185D01*
X-1173256Y-17034237D01*
X-1514891Y-16985212D01*
X-1832132Y-16939377D01*
X-2123169Y-16896997D01*
X-2386192Y-16858342D01*
X-2619391Y-16823677D01*
X-2820955Y-16793270D01*
X-2989075Y-16767387D01*
X-3121940Y-16746296D01*
X-3217740Y-16730264D01*
X-3274665Y-16719557D01*
X-3290344Y-16715408D01*
X-3319704Y-16694918D01*
X-3377523Y-16648844D01*
X-3460954Y-16579694D01*
X-3567150Y-16489977D01*
X-3693262Y-16382204D01*
X-3836443Y-16258883D01*
X-3917525Y-16188640D01*
X-2513634Y-16188640D01*
X-2493615Y-16192739D01*
X-2434712Y-16202324D01*
X-2339956Y-16216959D01*
X-2212380Y-16236210D01*
X-2055016Y-16259642D01*
X-1870897Y-16286819D01*
X-1663054Y-16317306D01*
X-1434521Y-16350668D01*
X-1188330Y-16386471D01*
X-927512Y-16424278D01*
X-655100Y-16463655D01*
X-374127Y-16504167D01*
X-87626Y-16545379D01*
X201373Y-16586855D01*
X489836Y-16628161D01*
X774731Y-16668861D01*
X1053025Y-16708520D01*
X1321687Y-16746703D01*
X1577683Y-16782975D01*
X1817983Y-16816902D01*
X2039552Y-16848047D01*
X2239359Y-16875975D01*
X2414372Y-16900253D01*
X2561558Y-16920443D01*
X2677885Y-16936113D01*
X2760320Y-16946825D01*
X2805832Y-16952146D01*
X2809875Y-16952498D01*
X2834395Y-16942386D01*
X2836334Y-16935359D01*
X2829184Y-16912741D01*
X2808460Y-16853412D01*
X2775250Y-16760334D01*
X2730642Y-16636469D01*
X2675724Y-16484779D01*
X2611583Y-16308225D01*
X2539308Y-16109769D01*
X2459986Y-15892373D01*
X2374706Y-15658999D01*
X2284554Y-15412608D01*
X2190620Y-15156162D01*
X2093990Y-14892624D01*
X1995754Y-14624955D01*
X1896998Y-14356116D01*
X1798810Y-14089069D01*
X1707538Y-13841063D01*
X2396912Y-13841063D01*
X2403342Y-13861912D01*
X2423008Y-13918803D01*
X2454563Y-14008035D01*
X2496658Y-14125907D01*
X2547949Y-14268720D01*
X2607087Y-14432771D01*
X2672726Y-14614362D01*
X2743519Y-14809790D01*
X2818119Y-15015356D01*
X2895180Y-15227358D01*
X2973354Y-15442097D01*
X3051294Y-15655871D01*
X3127654Y-15864979D01*
X3201087Y-16065722D01*
X3270246Y-16254398D01*
X3333783Y-16427307D01*
X3390353Y-16580747D01*
X3438609Y-16711020D01*
X3477202Y-16814423D01*
X3504787Y-16887256D01*
X3516581Y-16917459D01*
X3538022Y-16958880D01*
X3556007Y-16975667D01*
X3579104Y-16971822D01*
X3640184Y-16960737D01*
X3735642Y-16943089D01*
X3861875Y-16919552D01*
X4015279Y-16890803D01*
X4192249Y-16857516D01*
X4389182Y-16820368D01*
X4602474Y-16780034D01*
X4828520Y-16737189D01*
X4854547Y-16732250D01*
X5081894Y-16689156D01*
X5296964Y-16648498D01*
X5496145Y-16610952D01*
X5675822Y-16577194D01*
X5832381Y-16547899D01*
X5962209Y-16523745D01*
X6061690Y-16505406D01*
X6127212Y-16493560D01*
X6155160Y-16488881D01*
X6155786Y-16488834D01*
X6149993Y-16469734D01*
X6129489Y-16414474D01*
X6095503Y-16326110D01*
X6049266Y-16207697D01*
X5992009Y-16062291D01*
X5924962Y-15892949D01*
X5849354Y-15702727D01*
X5766417Y-15494681D01*
X5677380Y-15271867D01*
X5583474Y-15037341D01*
X5485929Y-14794159D01*
X5385976Y-14545378D01*
X5284845Y-14294053D01*
X5183766Y-14043241D01*
X5083969Y-13795998D01*
X4986685Y-13555379D01*
X4893144Y-13324442D01*
X4804577Y-13106242D01*
X4722213Y-12903835D01*
X4647283Y-12720278D01*
X4581017Y-12558626D01*
X4524646Y-12421935D01*
X4479400Y-12313263D01*
X4446509Y-12235664D01*
X4427203Y-12192196D01*
X4422716Y-12183827D01*
X4405258Y-12195140D01*
X4358601Y-12230668D01*
X4286149Y-12287625D01*
X4191308Y-12363225D01*
X4077482Y-12454682D01*
X3948078Y-12559211D01*
X3806499Y-12674026D01*
X3656153Y-12796341D01*
X3500443Y-12923371D01*
X3342775Y-13052329D01*
X3186555Y-13180431D01*
X3035187Y-13304889D01*
X2892077Y-13422920D01*
X2760631Y-13531736D01*
X2644252Y-13628553D01*
X2546347Y-13710584D01*
X2470322Y-13775043D01*
X2419580Y-13819146D01*
X2397527Y-13840106D01*
X2396912Y-13841063D01*
X1707538Y-13841063D01*
X1702280Y-13826777D01*
X1608494Y-13572200D01*
X1518540Y-13328302D01*
X1433506Y-13098042D01*
X1354480Y-12884385D01*
X1282551Y-12690290D01*
X1218805Y-12518720D01*
X1164332Y-12372636D01*
X1120218Y-12255001D01*
X1087551Y-12168776D01*
X1067420Y-12116923D01*
X1061027Y-12102126D01*
X1044314Y-12114439D01*
X1001928Y-12156532D01*
X935868Y-12226149D01*
X848129Y-12321030D01*
X740708Y-12438917D01*
X615603Y-12577551D01*
X474809Y-12734674D01*
X320325Y-12908028D01*
X154145Y-13095354D01*
X-21732Y-13294393D01*
X-205311Y-13502887D01*
X-394594Y-13718577D01*
X-587584Y-13939206D01*
X-782285Y-14162514D01*
X-976700Y-14386243D01*
X-1168833Y-14608134D01*
X-1356686Y-14825929D01*
X-1538263Y-15037370D01*
X-1662747Y-15182947D01*
X-1812640Y-15358717D01*
X-1954216Y-15525002D01*
X-2085107Y-15679002D01*
X-2202944Y-15817915D01*
X-2305357Y-15938943D01*
X-2389977Y-16039285D01*
X-2454435Y-16116140D01*
X-2496362Y-16166709D01*
X-2513389Y-16188192D01*
X-2513634Y-16188640D01*
X-3917525Y-16188640D01*
X-3993845Y-16122524D01*
X-4162622Y-15975635D01*
X-4339925Y-15820727D01*
X-4522906Y-15660307D01*
X-4708718Y-15496886D01*
X-4894515Y-15332973D01*
X-5077447Y-15171077D01*
X-5254667Y-15013707D01*
X-5423328Y-14863372D01*
X-5580582Y-14722582D01*
X-5723582Y-14593845D01*
X-5849480Y-14479672D01*
X-5955429Y-14382571D01*
X-6038580Y-14305052D01*
X-6096086Y-14249623D01*
X-6125101Y-14218795D01*
X-6127482Y-14215381D01*
X-6169548Y-14140959D01*
X-6157306Y-13931583D01*
X-5521512Y-13931583D01*
X-5445440Y-13998417D01*
X-5132888Y-14272998D01*
X-4850571Y-14520962D01*
X-4596921Y-14743637D01*
X-4370374Y-14942348D01*
X-4169364Y-15118425D01*
X-3992326Y-15273195D01*
X-3837694Y-15407984D01*
X-3703903Y-15524121D01*
X-3589387Y-15622934D01*
X-3492581Y-15705749D01*
X-3411918Y-15773894D01*
X-3345835Y-15828697D01*
X-3292764Y-15871485D01*
X-3251141Y-15903585D01*
X-3219401Y-15926326D01*
X-3195977Y-15941035D01*
X-3179304Y-15949039D01*
X-3167816Y-15951666D01*
X-3159949Y-15950243D01*
X-3154136Y-15946097D01*
X-3151614Y-15943528D01*
X-3131633Y-15920805D01*
X-3086860Y-15868940D01*
X-3019944Y-15791028D01*
X-2933532Y-15690164D01*
X-2830272Y-15569443D01*
X-2712812Y-15431959D01*
X-2583801Y-15280807D01*
X-2445886Y-15119081D01*
X-2371274Y-15031533D01*
X-2231375Y-14866680D01*
X-2100675Y-14711384D01*
X-1981606Y-14568626D01*
X-1876604Y-14441385D01*
X-1788100Y-14332641D01*
X-1718529Y-14245374D01*
X-1670324Y-14182564D01*
X-1645920Y-14147191D01*
X-1643567Y-14140466D01*
X-1666790Y-14131648D01*
X-1726828Y-14112184D01*
X-1819846Y-14083237D01*
X-1942005Y-14045965D01*
X-2089467Y-14001529D01*
X-2258396Y-13951089D01*
X-2444953Y-13895805D01*
X-2645300Y-13836838D01*
X-2730500Y-13811877D01*
X-2936934Y-13751179D01*
X-3132366Y-13693138D01*
X-3312773Y-13638988D01*
X-3474133Y-13589965D01*
X-3612424Y-13547302D01*
X-3723622Y-13512234D01*
X-3803707Y-13485994D01*
X-3848655Y-13469819D01*
X-3855630Y-13466600D01*
X-3916167Y-13412198D01*
X-3966275Y-13333067D01*
X-3996178Y-13246808D01*
X-4000500Y-13205782D01*
X-3993041Y-13174384D01*
X-3971264Y-13105947D01*
X-3936063Y-13002937D01*
X-3931343Y-12989573D01*
X-3252316Y-12989573D01*
X-3231182Y-12996925D01*
X-3174105Y-13014845D01*
X-3085751Y-13041941D01*
X-2970788Y-13076826D01*
X-2833883Y-13118110D01*
X-2679702Y-13164405D01*
X-2512913Y-13214321D01*
X-2338183Y-13266471D01*
X-2160178Y-13319464D01*
X-1983566Y-13371913D01*
X-1813013Y-13422428D01*
X-1653187Y-13469620D01*
X-1508754Y-13512101D01*
X-1384382Y-13548482D01*
X-1284737Y-13577373D01*
X-1214486Y-13597386D01*
X-1178297Y-13607132D01*
X-1174750Y-13607849D01*
X-1157420Y-13592749D01*
X-1114548Y-13548505D01*
X-1048539Y-13477772D01*
X-961798Y-13383202D01*
X-856731Y-13267450D01*
X-735743Y-13133168D01*
X-601239Y-12983010D01*
X-455626Y-12819629D01*
X-301308Y-12645679D01*
X-254000Y-12592197D01*
X-97791Y-12415351D01*
X49955Y-12247827D01*
X186875Y-12092319D01*
X310607Y-11951524D01*
X418787Y-11828138D01*
X509052Y-11724858D01*
X579040Y-11644378D01*
X626388Y-11589397D01*
X648733Y-11562608D01*
X650205Y-11560480D01*
X632574Y-11549297D01*
X580879Y-11520551D01*
X498671Y-11476093D01*
X471822Y-11461750D01*
X1523575Y-11461750D01*
X1530504Y-11487617D01*
X1550348Y-11547457D01*
X1581283Y-11636331D01*
X1621481Y-11749301D01*
X1669116Y-11881428D01*
X1722362Y-12027774D01*
X1779393Y-12183399D01*
X1838382Y-12343366D01*
X1897504Y-12502736D01*
X1954931Y-12656571D01*
X2008838Y-12799931D01*
X2057398Y-12927878D01*
X2098785Y-13035473D01*
X2131173Y-13117779D01*
X2152735Y-13169856D01*
X2161507Y-13186834D01*
X2179947Y-13173721D01*
X2228247Y-13135881D01*
X2303640Y-13075563D01*
X2403360Y-12995016D01*
X2524642Y-12896489D01*
X2664718Y-12782231D01*
X2820824Y-12654490D01*
X2990192Y-12515515D01*
X3170057Y-12367555D01*
X3231197Y-12317180D01*
X4055288Y-11637902D01*
X4896367Y-11637902D01*
X5776642Y-13810463D01*
X5913938Y-14149225D01*
X6036283Y-14450823D01*
X6144574Y-14717350D01*
X6239710Y-14950898D01*
X6322587Y-15153556D01*
X6394103Y-15327419D01*
X6455156Y-15474576D01*
X6506642Y-15597120D01*
X6549460Y-15697143D01*
X6584507Y-15776736D01*
X6612680Y-15837990D01*
X6634877Y-15882998D01*
X6651994Y-15913851D01*
X6664931Y-15932640D01*
X6674583Y-15941458D01*
X6681849Y-15942396D01*
X6687626Y-15937546D01*
X6688667Y-15936088D01*
X6705493Y-15908343D01*
X6740937Y-15847732D01*
X6792728Y-15758210D01*
X6858592Y-15643730D01*
X6936260Y-15508247D01*
X7023459Y-15355716D01*
X7117917Y-15190090D01*
X7192107Y-15059746D01*
X7663797Y-14230342D01*
X6728314Y-11835338D01*
X6609525Y-11531474D01*
X6494903Y-11238776D01*
X6385396Y-10959638D01*
X6281954Y-10696457D01*
X6185525Y-10451630D01*
X6097056Y-10227552D01*
X6017497Y-10026619D01*
X5947796Y-9851228D01*
X5888901Y-9703775D01*
X5841762Y-9586655D01*
X5807325Y-9502266D01*
X5786541Y-9453003D01*
X5780374Y-9440493D01*
X5770484Y-9459627D01*
X5746511Y-9514616D01*
X5709894Y-9601928D01*
X5662075Y-9718033D01*
X5604494Y-9859402D01*
X5538589Y-10022503D01*
X5465803Y-10203806D01*
X5387574Y-10399781D01*
X5332142Y-10539278D01*
X4896367Y-11637902D01*
X4055288Y-11637902D01*
X4286250Y-11447526D01*
X4802162Y-10146689D01*
X4890226Y-9924247D01*
X4973314Y-9713606D01*
X5050160Y-9518025D01*
X5119497Y-9340764D01*
X5180061Y-9185082D01*
X5230583Y-9054239D01*
X5269799Y-8951495D01*
X5296442Y-8880108D01*
X5309246Y-8843339D01*
X5310162Y-8838961D01*
X5288126Y-8836573D01*
X5228203Y-8832432D01*
X5134717Y-8826753D01*
X5011988Y-8819753D01*
X4864339Y-8811647D01*
X4696091Y-8802651D01*
X4511568Y-8792981D01*
X4315089Y-8782853D01*
X4110978Y-8772483D01*
X3903557Y-8762086D01*
X3697147Y-8751878D01*
X3496070Y-8742076D01*
X3304648Y-8732894D01*
X3127204Y-8724550D01*
X2968059Y-8717258D01*
X2831535Y-8711235D01*
X2721954Y-8706696D01*
X2643638Y-8703857D01*
X2600908Y-8702935D01*
X2594145Y-8703318D01*
X2584771Y-8724998D01*
X2561698Y-8782233D01*
X2526433Y-8871135D01*
X2480488Y-8987815D01*
X2425370Y-9128386D01*
X2362589Y-9288957D01*
X2293654Y-9465640D01*
X2220075Y-9654548D01*
X2143360Y-9851790D01*
X2065019Y-10053479D01*
X1986561Y-10255725D01*
X1909496Y-10454641D01*
X1835332Y-10646336D01*
X1765579Y-10826923D01*
X1701746Y-10992514D01*
X1645342Y-11139218D01*
X1597876Y-11263148D01*
X1560859Y-11360415D01*
X1535798Y-11427130D01*
X1524203Y-11459405D01*
X1523575Y-11461750D01*
X471822Y-11461750D01*
X389506Y-11417777D01*
X256934Y-11347456D01*
X104510Y-11266981D01*
X-64213Y-11178206D01*
X-245682Y-11082984D01*
X-436345Y-10983167D01*
X-632648Y-10880609D01*
X-831038Y-10777162D01*
X-1027963Y-10674678D01*
X-1219868Y-10575011D01*
X-1403201Y-10480013D01*
X-1574409Y-10391538D01*
X-1729939Y-10311437D01*
X-1866238Y-10241564D01*
X-1979752Y-10183772D01*
X-2066929Y-10139913D01*
X-2124215Y-10111840D01*
X-2147698Y-10101484D01*
X-2157890Y-10119906D01*
X-2181482Y-10174191D01*
X-2217027Y-10260556D01*
X-2263080Y-10375221D01*
X-2318193Y-10514402D01*
X-2380921Y-10674318D01*
X-2449816Y-10851188D01*
X-2523433Y-11041228D01*
X-2600325Y-11240659D01*
X-2679044Y-11445696D01*
X-2758146Y-11652560D01*
X-2836183Y-11857467D01*
X-2911709Y-12056636D01*
X-2983278Y-12246285D01*
X-3049442Y-12422632D01*
X-3108756Y-12581895D01*
X-3159773Y-12720292D01*
X-3201046Y-12834042D01*
X-3231130Y-12919363D01*
X-3248577Y-12972472D01*
X-3252316Y-12989573D01*
X-3931343Y-12989573D01*
X-3888334Y-12867818D01*
X-3828975Y-12703055D01*
X-3758880Y-12511115D01*
X-3678946Y-12294462D01*
X-3590070Y-12055563D01*
X-3493146Y-11796881D01*
X-3389072Y-11520883D01*
X-3364125Y-11454969D01*
X-3267942Y-11200716D01*
X-3176336Y-10957991D01*
X-3090384Y-10729685D01*
X-3011165Y-10518687D01*
X-2939757Y-10327889D01*
X-2877238Y-10160181D01*
X-2824687Y-10018453D01*
X-2783182Y-9905597D01*
X-2753801Y-9824502D01*
X-2737623Y-9778059D01*
X-2734733Y-9767712D01*
X-2756481Y-9752492D01*
X-2810151Y-9717516D01*
X-2892186Y-9665004D01*
X-2999027Y-9597178D01*
X-3127118Y-9516259D01*
X-3272900Y-9424467D01*
X-3432817Y-9324024D01*
X-3603311Y-9217150D01*
X-3780825Y-9106066D01*
X-3961800Y-8992993D01*
X-4142680Y-8880153D01*
X-4319907Y-8769766D01*
X-4489923Y-8664052D01*
X-4649172Y-8565234D01*
X-4794095Y-8475531D01*
X-4921135Y-8397165D01*
X-5026734Y-8332357D01*
X-5107336Y-8283327D01*
X-5159382Y-8252297D01*
X-5179316Y-8241487D01*
X-5179401Y-8241513D01*
X-5181732Y-8263368D01*
X-5186360Y-8325035D01*
X-5193133Y-8424063D01*
X-5201901Y-8558002D01*
X-5212511Y-8724400D01*
X-5224814Y-8920807D01*
X-5238658Y-9144772D01*
X-5253892Y-9393844D01*
X-5270365Y-9665572D01*
X-5287925Y-9957507D01*
X-5306422Y-10267197D01*
X-5325705Y-10592190D01*
X-5345623Y-10930038D01*
X-5355078Y-11091170D01*
X-5521512Y-13931583D01*
X-6157306Y-13931583D01*
X-5976662Y-10842196D01*
X-5950358Y-10393307D01*
X-5926297Y-9984874D01*
X-5904356Y-9615086D01*
X-5884413Y-9282131D01*
X-5866347Y-8984199D01*
X-5850035Y-8719478D01*
X-5835354Y-8486157D01*
X-5822184Y-8282424D01*
X-5810401Y-8106469D01*
X-5799884Y-7956480D01*
X-5797314Y-7921967D01*
X-4416149Y-7921967D01*
X-4400576Y-7938862D01*
X-4363068Y-7968512D01*
X-4301853Y-8012094D01*
X-4215162Y-8070789D01*
X-4101225Y-8145778D01*
X-3958270Y-8238240D01*
X-3784528Y-8349354D01*
X-3578228Y-8480302D01*
X-3342640Y-8629086D01*
X-2211916Y-9341838D01*
X-613833Y-10173330D01*
X-372152Y-10299014D01*
X-141288Y-10418949D01*
X76008Y-10531713D01*
X276984Y-10635883D01*
X458888Y-10730037D01*
X618967Y-10812752D01*
X754469Y-10882606D01*
X862643Y-10938177D01*
X940737Y-10978042D01*
X985998Y-11000778D01*
X996696Y-11005744D01*
X1006341Y-10986724D01*
X1030000Y-10931529D01*
X1066355Y-10843444D01*
X1114091Y-10725752D01*
X1171891Y-10581738D01*
X1238438Y-10414688D01*
X1312416Y-10227886D01*
X1392508Y-10024617D01*
X1477399Y-9808166D01*
X1506714Y-9733192D01*
X2004286Y-8459718D01*
X1197935Y-7740257D01*
X1039467Y-7598837D01*
X889195Y-7464681D01*
X750353Y-7340676D01*
X626173Y-7229712D01*
X519885Y-7134678D01*
X434724Y-7058463D01*
X373920Y-7003957D01*
X340706Y-6974049D01*
X337212Y-6970864D01*
X282841Y-6920933D01*
X-91375Y-7101619D01*
X-447963Y-7270566D01*
X-775056Y-7418872D01*
X-1070768Y-7545706D01*
X-1333213Y-7650238D01*
X-1363315Y-7661593D01*
X-1463989Y-7699383D01*
X-1551560Y-7731694D01*
X-1630249Y-7759049D01*
X-1704273Y-7781968D01*
X-1777853Y-7800976D01*
X-1855207Y-7816593D01*
X-1940556Y-7829342D01*
X-2038119Y-7839746D01*
X-2152115Y-7848327D01*
X-2286763Y-7855607D01*
X-2446284Y-7862108D01*
X-2634896Y-7868352D01*
X-2856818Y-7874863D01*
X-3116271Y-7882161D01*
X-3153833Y-7883219D01*
X-3376714Y-7889471D01*
X-3588262Y-7895336D01*
X-3784446Y-7900707D01*
X-3961235Y-7905477D01*
X-4114597Y-7909539D01*
X-4240499Y-7912786D01*
X-4334911Y-7915111D01*
X-4393800Y-7916406D01*
X-4411557Y-7916644D01*
X-4416149Y-7921967D01*
X-5797314Y-7921967D01*
X-5790511Y-7830646D01*
X-5782160Y-7727156D01*
X-5774708Y-7644199D01*
X-5768034Y-7579963D01*
X-5762015Y-7532637D01*
X-5756529Y-7500410D01*
X-5751454Y-7481470D01*
X-5749901Y-7477927D01*
X-5709015Y-7423498D01*
X-5651503Y-7373045D01*
X-5639697Y-7365246D01*
X-5625043Y-7356623D01*
X-5608888Y-7349019D01*
X-5588360Y-7342276D01*
X-5560588Y-7336237D01*
X-5522698Y-7330745D01*
X-5471819Y-7325643D01*
X-5405079Y-7320773D01*
X-5319606Y-7315979D01*
X-5212527Y-7311103D01*
X-5080971Y-7305988D01*
X-4922065Y-7300476D01*
X-4732937Y-7294411D01*
X-4510715Y-7287636D01*
X-4252527Y-7279993D01*
X-3955501Y-7271325D01*
X-3887642Y-7269351D01*
X-3621700Y-7261546D01*
X-3365574Y-7253889D01*
X-3122776Y-7246492D01*
X-2896818Y-7239470D01*
X-2691213Y-7232935D01*
X-2509474Y-7227001D01*
X-2355113Y-7221783D01*
X-2231642Y-7217392D01*
X-2142576Y-7213943D01*
X-2091425Y-7211549D01*
X-2084916Y-7211124D01*
X-1985468Y-7194649D01*
X-1851859Y-7158120D01*
X-1686635Y-7102571D01*
X-1492339Y-7029041D01*
X-1271517Y-6938566D01*
X-1026713Y-6832181D01*
X-760472Y-6710924D01*
X-475338Y-6575831D01*
X-226940Y-6454330D01*
X-63674Y-6374252D01*
X67359Y-6312644D01*
X171298Y-6268094D01*
X253285Y-6239189D01*
X318458Y-6224516D01*
X371958Y-6222662D01*
X418925Y-6232214D01*
G37*
X418925Y-6232214D02*
X464499Y-6251759D01*
X479894Y-6260042D01*
X507167Y-6280484D01*
X562990Y-6326713D01*
X644456Y-6396188D01*
X748657Y-6486367D01*
X872684Y-6594710D01*
X1013631Y-6718674D01*
X1168590Y-6855719D01*
X1334652Y-7003304D01*
X1508909Y-7158887D01*
X1530226Y-7177967D01*
X2514074Y-8058850D01*
X2839246Y-8074258D01*
X2918810Y-8078102D01*
X3035901Y-8083864D01*
X3185768Y-8091305D01*
X3363659Y-8100187D01*
X3564823Y-8110272D01*
X3784508Y-8121322D01*
X4017963Y-8133098D01*
X4260437Y-8145362D01*
X4507178Y-8157876D01*
X4522129Y-8158635D01*
X4796129Y-8172613D01*
X5031046Y-8184785D01*
X5230082Y-8195405D01*
X5396437Y-8204726D01*
X5533313Y-8213002D01*
X5643910Y-8220487D01*
X5731430Y-8227433D01*
X5799072Y-8234096D01*
X5850038Y-8240728D01*
X5887529Y-8247584D01*
X5914746Y-8254916D01*
X5934889Y-8262979D01*
X5950879Y-8271850D01*
X6003378Y-8310493D01*
X6041087Y-8348612D01*
X6044967Y-8354340D01*
X6055228Y-8378180D01*
X6080013Y-8439234D01*
X6118449Y-8535283D01*
X6169660Y-8664108D01*
X6232773Y-8823490D01*
X6306914Y-9011209D01*
X6391208Y-9225046D01*
X6484781Y-9462781D01*
X6586760Y-9722196D01*
X6696270Y-10001071D01*
X6812438Y-10297187D01*
X6934388Y-10608324D01*
X7061247Y-10932264D01*
X7192140Y-11266787D01*
X7198025Y-11281834D01*
X7357377Y-11689486D01*
X7501825Y-12059503D01*
X7632025Y-12393617D01*
X7748633Y-12693564D01*
X7852304Y-12961076D01*
X7943695Y-13197888D01*
X8023462Y-13405733D01*
X8092260Y-13586347D01*
X8150746Y-13741462D01*
X8199574Y-13872813D01*
X8239401Y-13982134D01*
X8270884Y-14071159D01*
X8294677Y-14141621D01*
X8311436Y-14195255D01*
X8321818Y-14233795D01*
X8326478Y-14258974D01*
X8326884Y-14266334D01*
X8325022Y-14287995D01*
X8318961Y-14314485D01*
X8307257Y-14348529D01*
X8288466Y-14392856D01*
X8261145Y-14450191D01*
X8223851Y-14523260D01*
X8175141Y-14614791D01*
X8113569Y-14727509D01*
X8037694Y-14864142D01*
X7946071Y-15027415D01*
X7837257Y-15220056D01*
X7709809Y-15444791D01*
X7609679Y-15621000D01*
X7487917Y-15834646D01*
X7371143Y-16038553D01*
X7261206Y-16229553D01*
X7159958Y-16404476D01*
X7069250Y-16560151D01*
X6990932Y-16693409D01*
X6926856Y-16801081D01*
X6878871Y-16879997D01*
X6848830Y-16926987D01*
X6840571Y-16938136D01*
X6785314Y-16984213D01*
X6724577Y-17016329D01*
X6722217Y-17017123D01*
X6680610Y-17027745D01*
X6601996Y-17044928D01*
X6490303Y-17067946D01*
X6349458Y-17096071D01*
X6183386Y-17128576D01*
X5996016Y-17164734D01*
X5791273Y-17203818D01*
X5573084Y-17245100D01*
X5345376Y-17287853D01*
X5112077Y-17331350D01*
X4877111Y-17374865D01*
X4644408Y-17417669D01*
X4417892Y-17459035D01*
X4201491Y-17498237D01*
X3999131Y-17534548D01*
X3814740Y-17567239D01*
X3652244Y-17595584D01*
X3515569Y-17618855D01*
X3408644Y-17636326D01*
X3335393Y-17647270D01*
X3299744Y-17650958D01*
X3299574Y-17650955D01*
X3265872Y-17647804D01*
X3192633Y-17639038D01*
X3082235Y-17624981D01*
X2937054Y-17605958D01*
X2759468Y-17582294D01*
X2551854Y-17554313D01*
X2316591Y-17522339D01*
X2056055Y-17486698D01*
X1772623Y-17447714D01*
X1468674Y-17405711D01*
X1146584Y-17361014D01*
X808731Y-17313947D01*
X457492Y-17264835D01*
X95246Y-17214003D01*
X-20094Y-17197781D01*
X-424047Y-17140789D01*
X-809038Y-17086185D01*
X-1173256Y-17034237D01*
X-1514891Y-16985212D01*
X-1832132Y-16939377D01*
X-2123169Y-16896997D01*
X-2386192Y-16858342D01*
X-2619391Y-16823677D01*
X-2820955Y-16793270D01*
X-2989075Y-16767387D01*
X-3121940Y-16746296D01*
X-3217740Y-16730264D01*
X-3274665Y-16719557D01*
X-3290344Y-16715408D01*
X-3319704Y-16694918D01*
X-3377523Y-16648844D01*
X-3460954Y-16579694D01*
X-3567150Y-16489977D01*
X-3693262Y-16382204D01*
X-3836443Y-16258883D01*
X-3917525Y-16188640D01*
X-2513634Y-16188640D01*
X-2493615Y-16192739D01*
X-2434712Y-16202324D01*
X-2339956Y-16216959D01*
X-2212380Y-16236210D01*
X-2055016Y-16259642D01*
X-1870897Y-16286819D01*
X-1663054Y-16317306D01*
X-1434521Y-16350668D01*
X-1188330Y-16386471D01*
X-927512Y-16424278D01*
X-655100Y-16463655D01*
X-374127Y-16504167D01*
X-87626Y-16545379D01*
X201373Y-16586855D01*
X489836Y-16628161D01*
X774731Y-16668861D01*
X1053025Y-16708520D01*
X1321687Y-16746703D01*
X1577683Y-16782975D01*
X1817983Y-16816902D01*
X2039552Y-16848047D01*
X2239359Y-16875975D01*
X2414372Y-16900253D01*
X2561558Y-16920443D01*
X2677885Y-16936113D01*
X2760320Y-16946825D01*
X2805832Y-16952146D01*
X2809875Y-16952498D01*
X2834395Y-16942386D01*
X2836334Y-16935359D01*
X2829184Y-16912741D01*
X2808460Y-16853412D01*
X2775250Y-16760334D01*
X2730642Y-16636469D01*
X2675724Y-16484779D01*
X2611583Y-16308225D01*
X2539308Y-16109769D01*
X2459986Y-15892373D01*
X2374706Y-15658999D01*
X2284554Y-15412608D01*
X2190620Y-15156162D01*
X2093990Y-14892624D01*
X1995754Y-14624955D01*
X1896998Y-14356116D01*
X1798810Y-14089069D01*
X1707538Y-13841063D01*
X2396912Y-13841063D01*
X2403342Y-13861912D01*
X2423008Y-13918803D01*
X2454563Y-14008035D01*
X2496658Y-14125907D01*
X2547949Y-14268720D01*
X2607087Y-14432771D01*
X2672726Y-14614362D01*
X2743519Y-14809790D01*
X2818119Y-15015356D01*
X2895180Y-15227358D01*
X2973354Y-15442097D01*
X3051294Y-15655871D01*
X3127654Y-15864979D01*
X3201087Y-16065722D01*
X3270246Y-16254398D01*
X3333783Y-16427307D01*
X3390353Y-16580747D01*
X3438609Y-16711020D01*
X3477202Y-16814423D01*
X3504787Y-16887256D01*
X3516581Y-16917459D01*
X3538022Y-16958880D01*
X3556007Y-16975667D01*
X3579104Y-16971822D01*
X3640184Y-16960737D01*
X3735642Y-16943089D01*
X3861875Y-16919552D01*
X4015279Y-16890803D01*
X4192249Y-16857516D01*
X4389182Y-16820368D01*
X4602474Y-16780034D01*
X4828520Y-16737189D01*
X4854547Y-16732250D01*
X5081894Y-16689156D01*
X5296964Y-16648498D01*
X5496145Y-16610952D01*
X5675822Y-16577194D01*
X5832381Y-16547899D01*
X5962209Y-16523745D01*
X6061690Y-16505406D01*
X6127212Y-16493560D01*
X6155160Y-16488881D01*
X6155786Y-16488834D01*
X6149993Y-16469734D01*
X6129489Y-16414474D01*
X6095503Y-16326110D01*
X6049266Y-16207697D01*
X5992009Y-16062291D01*
X5924962Y-15892949D01*
X5849354Y-15702727D01*
X5766417Y-15494681D01*
X5677380Y-15271867D01*
X5583474Y-15037341D01*
X5485929Y-14794159D01*
X5385976Y-14545378D01*
X5284845Y-14294053D01*
X5183766Y-14043241D01*
X5083969Y-13795998D01*
X4986685Y-13555379D01*
X4893144Y-13324442D01*
X4804577Y-13106242D01*
X4722213Y-12903835D01*
X4647283Y-12720278D01*
X4581017Y-12558626D01*
X4524646Y-12421935D01*
X4479400Y-12313263D01*
X4446509Y-12235664D01*
X4427203Y-12192196D01*
X4422716Y-12183827D01*
X4405258Y-12195140D01*
X4358601Y-12230668D01*
X4286149Y-12287625D01*
X4191308Y-12363225D01*
X4077482Y-12454682D01*
X3948078Y-12559211D01*
X3806499Y-12674026D01*
X3656153Y-12796341D01*
X3500443Y-12923371D01*
X3342775Y-13052329D01*
X3186555Y-13180431D01*
X3035187Y-13304889D01*
X2892077Y-13422920D01*
X2760631Y-13531736D01*
X2644252Y-13628553D01*
X2546347Y-13710584D01*
X2470322Y-13775043D01*
X2419580Y-13819146D01*
X2397527Y-13840106D01*
X2396912Y-13841063D01*
X1707538Y-13841063D01*
X1702280Y-13826777D01*
X1608494Y-13572200D01*
X1518540Y-13328302D01*
X1433506Y-13098042D01*
X1354480Y-12884385D01*
X1282551Y-12690290D01*
X1218805Y-12518720D01*
X1164332Y-12372636D01*
X1120218Y-12255001D01*
X1087551Y-12168776D01*
X1067420Y-12116923D01*
X1061027Y-12102126D01*
X1044314Y-12114439D01*
X1001928Y-12156532D01*
X935868Y-12226149D01*
X848129Y-12321030D01*
X740708Y-12438917D01*
X615603Y-12577551D01*
X474809Y-12734674D01*
X320325Y-12908028D01*
X154145Y-13095354D01*
X-21732Y-13294393D01*
X-205311Y-13502887D01*
X-394594Y-13718577D01*
X-587584Y-13939206D01*
X-782285Y-14162514D01*
X-976700Y-14386243D01*
X-1168833Y-14608134D01*
X-1356686Y-14825929D01*
X-1538263Y-15037370D01*
X-1662747Y-15182947D01*
X-1812640Y-15358717D01*
X-1954216Y-15525002D01*
X-2085107Y-15679002D01*
X-2202944Y-15817915D01*
X-2305357Y-15938943D01*
X-2389977Y-16039285D01*
X-2454435Y-16116140D01*
X-2496362Y-16166709D01*
X-2513389Y-16188192D01*
X-2513634Y-16188640D01*
X-3917525Y-16188640D01*
X-3993845Y-16122524D01*
X-4162622Y-15975635D01*
X-4339925Y-15820727D01*
X-4522906Y-15660307D01*
X-4708718Y-15496886D01*
X-4894515Y-15332973D01*
X-5077447Y-15171077D01*
X-5254667Y-15013707D01*
X-5423328Y-14863372D01*
X-5580582Y-14722582D01*
X-5723582Y-14593845D01*
X-5849480Y-14479672D01*
X-5955429Y-14382571D01*
X-6038580Y-14305052D01*
X-6096086Y-14249623D01*
X-6125101Y-14218795D01*
X-6127482Y-14215381D01*
X-6169548Y-14140959D01*
X-6157306Y-13931583D01*
X-5521512Y-13931583D01*
X-5445440Y-13998417D01*
X-5132888Y-14272998D01*
X-4850571Y-14520962D01*
X-4596921Y-14743637D01*
X-4370374Y-14942348D01*
X-4169364Y-15118425D01*
X-3992326Y-15273195D01*
X-3837694Y-15407984D01*
X-3703903Y-15524121D01*
X-3589387Y-15622934D01*
X-3492581Y-15705749D01*
X-3411918Y-15773894D01*
X-3345835Y-15828697D01*
X-3292764Y-15871485D01*
X-3251141Y-15903585D01*
X-3219401Y-15926326D01*
X-3195977Y-15941035D01*
X-3179304Y-15949039D01*
X-3167816Y-15951666D01*
X-3159949Y-15950243D01*
X-3154136Y-15946097D01*
X-3151614Y-15943528D01*
X-3131633Y-15920805D01*
X-3086860Y-15868940D01*
X-3019944Y-15791028D01*
X-2933532Y-15690164D01*
X-2830272Y-15569443D01*
X-2712812Y-15431959D01*
X-2583801Y-15280807D01*
X-2445886Y-15119081D01*
X-2371274Y-15031533D01*
X-2231375Y-14866680D01*
X-2100675Y-14711384D01*
X-1981606Y-14568626D01*
X-1876604Y-14441385D01*
X-1788100Y-14332641D01*
X-1718529Y-14245374D01*
X-1670324Y-14182564D01*
X-1645920Y-14147191D01*
X-1643567Y-14140466D01*
X-1666790Y-14131648D01*
X-1726828Y-14112184D01*
X-1819846Y-14083237D01*
X-1942005Y-14045965D01*
X-2089467Y-14001529D01*
X-2258396Y-13951089D01*
X-2444953Y-13895805D01*
X-2645300Y-13836838D01*
X-2730500Y-13811877D01*
X-2936934Y-13751179D01*
X-3132366Y-13693138D01*
X-3312773Y-13638988D01*
X-3474133Y-13589965D01*
X-3612424Y-13547302D01*
X-3723622Y-13512234D01*
X-3803707Y-13485994D01*
X-3848655Y-13469819D01*
X-3855630Y-13466600D01*
X-3916167Y-13412198D01*
X-3966275Y-13333067D01*
X-3996178Y-13246808D01*
X-4000500Y-13205782D01*
X-3993041Y-13174384D01*
X-3971264Y-13105947D01*
X-3936063Y-13002937D01*
X-3931343Y-12989573D01*
X-3252316Y-12989573D01*
X-3231182Y-12996925D01*
X-3174105Y-13014845D01*
X-3085751Y-13041941D01*
X-2970788Y-13076826D01*
X-2833883Y-13118110D01*
X-2679702Y-13164405D01*
X-2512913Y-13214321D01*
X-2338183Y-13266471D01*
X-2160178Y-13319464D01*
X-1983566Y-13371913D01*
X-1813013Y-13422428D01*
X-1653187Y-13469620D01*
X-1508754Y-13512101D01*
X-1384382Y-13548482D01*
X-1284737Y-13577373D01*
X-1214486Y-13597386D01*
X-1178297Y-13607132D01*
X-1174750Y-13607849D01*
X-1157420Y-13592749D01*
X-1114548Y-13548505D01*
X-1048539Y-13477772D01*
X-961798Y-13383202D01*
X-856731Y-13267450D01*
X-735743Y-13133168D01*
X-601239Y-12983010D01*
X-455626Y-12819629D01*
X-301308Y-12645679D01*
X-254000Y-12592197D01*
X-97791Y-12415351D01*
X49955Y-12247827D01*
X186875Y-12092319D01*
X310607Y-11951524D01*
X418787Y-11828138D01*
X509052Y-11724858D01*
X579040Y-11644378D01*
X626388Y-11589397D01*
X648733Y-11562608D01*
X650205Y-11560480D01*
X632574Y-11549297D01*
X580879Y-11520551D01*
X498671Y-11476093D01*
X471822Y-11461750D01*
X1523575Y-11461750D01*
X1530504Y-11487617D01*
X1550348Y-11547457D01*
X1581283Y-11636331D01*
X1621481Y-11749301D01*
X1669116Y-11881428D01*
X1722362Y-12027774D01*
X1779393Y-12183399D01*
X1838382Y-12343366D01*
X1897504Y-12502736D01*
X1954931Y-12656571D01*
X2008838Y-12799931D01*
X2057398Y-12927878D01*
X2098785Y-13035473D01*
X2131173Y-13117779D01*
X2152735Y-13169856D01*
X2161507Y-13186834D01*
X2179947Y-13173721D01*
X2228247Y-13135881D01*
X2303640Y-13075563D01*
X2403360Y-12995016D01*
X2524642Y-12896489D01*
X2664718Y-12782231D01*
X2820824Y-12654490D01*
X2990192Y-12515515D01*
X3170057Y-12367555D01*
X3231197Y-12317180D01*
X4055288Y-11637902D01*
X4896367Y-11637902D01*
X5776642Y-13810463D01*
X5913938Y-14149225D01*
X6036283Y-14450823D01*
X6144574Y-14717350D01*
X6239710Y-14950898D01*
X6322587Y-15153556D01*
X6394103Y-15327419D01*
X6455156Y-15474576D01*
X6506642Y-15597120D01*
X6549460Y-15697143D01*
X6584507Y-15776736D01*
X6612680Y-15837990D01*
X6634877Y-15882998D01*
X6651994Y-15913851D01*
X6664931Y-15932640D01*
X6674583Y-15941458D01*
X6681849Y-15942396D01*
X6687626Y-15937546D01*
X6688667Y-15936088D01*
X6705493Y-15908343D01*
X6740937Y-15847732D01*
X6792728Y-15758210D01*
X6858592Y-15643730D01*
X6936260Y-15508247D01*
X7023459Y-15355716D01*
X7117917Y-15190090D01*
X7192107Y-15059746D01*
X7663797Y-14230342D01*
X6728314Y-11835338D01*
X6609525Y-11531474D01*
X6494903Y-11238776D01*
X6385396Y-10959638D01*
X6281954Y-10696457D01*
X6185525Y-10451630D01*
X6097056Y-10227552D01*
X6017497Y-10026619D01*
X5947796Y-9851228D01*
X5888901Y-9703775D01*
X5841762Y-9586655D01*
X5807325Y-9502266D01*
X5786541Y-9453003D01*
X5780374Y-9440493D01*
X5770484Y-9459627D01*
X5746511Y-9514616D01*
X5709894Y-9601928D01*
X5662075Y-9718033D01*
X5604494Y-9859402D01*
X5538589Y-10022503D01*
X5465803Y-10203806D01*
X5387574Y-10399781D01*
X5332142Y-10539278D01*
X4896367Y-11637902D01*
X4055288Y-11637902D01*
X4286250Y-11447526D01*
X4802162Y-10146689D01*
X4890226Y-9924247D01*
X4973314Y-9713606D01*
X5050160Y-9518025D01*
X5119497Y-9340764D01*
X5180061Y-9185082D01*
X5230583Y-9054239D01*
X5269799Y-8951495D01*
X5296442Y-8880108D01*
X5309246Y-8843339D01*
X5310162Y-8838961D01*
X5288126Y-8836573D01*
X5228203Y-8832432D01*
X5134717Y-8826753D01*
X5011988Y-8819753D01*
X4864339Y-8811647D01*
X4696091Y-8802651D01*
X4511568Y-8792981D01*
X4315089Y-8782853D01*
X4110978Y-8772483D01*
X3903557Y-8762086D01*
X3697147Y-8751878D01*
X3496070Y-8742076D01*
X3304648Y-8732894D01*
X3127204Y-8724550D01*
X2968059Y-8717258D01*
X2831535Y-8711235D01*
X2721954Y-8706696D01*
X2643638Y-8703857D01*
X2600908Y-8702935D01*
X2594145Y-8703318D01*
X2584771Y-8724998D01*
X2561698Y-8782233D01*
X2526433Y-8871135D01*
X2480488Y-8987815D01*
X2425370Y-9128386D01*
X2362589Y-9288957D01*
X2293654Y-9465640D01*
X2220075Y-9654548D01*
X2143360Y-9851790D01*
X2065019Y-10053479D01*
X1986561Y-10255725D01*
X1909496Y-10454641D01*
X1835332Y-10646336D01*
X1765579Y-10826923D01*
X1701746Y-10992514D01*
X1645342Y-11139218D01*
X1597876Y-11263148D01*
X1560859Y-11360415D01*
X1535798Y-11427130D01*
X1524203Y-11459405D01*
X1523575Y-11461750D01*
X471822Y-11461750D01*
X389506Y-11417777D01*
X256934Y-11347456D01*
X104510Y-11266981D01*
X-64213Y-11178206D01*
X-245682Y-11082984D01*
X-436345Y-10983167D01*
X-632648Y-10880609D01*
X-831038Y-10777162D01*
X-1027963Y-10674678D01*
X-1219868Y-10575011D01*
X-1403201Y-10480013D01*
X-1574409Y-10391538D01*
X-1729939Y-10311437D01*
X-1866238Y-10241564D01*
X-1979752Y-10183772D01*
X-2066929Y-10139913D01*
X-2124215Y-10111840D01*
X-2147698Y-10101484D01*
X-2157890Y-10119906D01*
X-2181482Y-10174191D01*
X-2217027Y-10260556D01*
X-2263080Y-10375221D01*
X-2318193Y-10514402D01*
X-2380921Y-10674318D01*
X-2449816Y-10851188D01*
X-2523433Y-11041228D01*
X-2600325Y-11240659D01*
X-2679044Y-11445696D01*
X-2758146Y-11652560D01*
X-2836183Y-11857467D01*
X-2911709Y-12056636D01*
X-2983278Y-12246285D01*
X-3049442Y-12422632D01*
X-3108756Y-12581895D01*
X-3159773Y-12720292D01*
X-3201046Y-12834042D01*
X-3231130Y-12919363D01*
X-3248577Y-12972472D01*
X-3252316Y-12989573D01*
X-3931343Y-12989573D01*
X-3888334Y-12867818D01*
X-3828975Y-12703055D01*
X-3758880Y-12511115D01*
X-3678946Y-12294462D01*
X-3590070Y-12055563D01*
X-3493146Y-11796881D01*
X-3389072Y-11520883D01*
X-3364125Y-11454969D01*
X-3267942Y-11200716D01*
X-3176336Y-10957991D01*
X-3090384Y-10729685D01*
X-3011165Y-10518687D01*
X-2939757Y-10327889D01*
X-2877238Y-10160181D01*
X-2824687Y-10018453D01*
X-2783182Y-9905597D01*
X-2753801Y-9824502D01*
X-2737623Y-9778059D01*
X-2734733Y-9767712D01*
X-2756481Y-9752492D01*
X-2810151Y-9717516D01*
X-2892186Y-9665004D01*
X-2999027Y-9597178D01*
X-3127118Y-9516259D01*
X-3272900Y-9424467D01*
X-3432817Y-9324024D01*
X-3603311Y-9217150D01*
X-3780825Y-9106066D01*
X-3961800Y-8992993D01*
X-4142680Y-8880153D01*
X-4319907Y-8769766D01*
X-4489923Y-8664052D01*
X-4649172Y-8565234D01*
X-4794095Y-8475531D01*
X-4921135Y-8397165D01*
X-5026734Y-8332357D01*
X-5107336Y-8283327D01*
X-5159382Y-8252297D01*
X-5179316Y-8241487D01*
X-5179401Y-8241513D01*
X-5181732Y-8263368D01*
X-5186360Y-8325035D01*
X-5193133Y-8424063D01*
X-5201901Y-8558002D01*
X-5212511Y-8724400D01*
X-5224814Y-8920807D01*
X-5238658Y-9144772D01*
X-5253892Y-9393844D01*
X-5270365Y-9665572D01*
X-5287925Y-9957507D01*
X-5306422Y-10267197D01*
X-5325705Y-10592190D01*
X-5345623Y-10930038D01*
X-5355078Y-11091170D01*
X-5521512Y-13931583D01*
X-6157306Y-13931583D01*
X-5976662Y-10842196D01*
X-5950358Y-10393307D01*
X-5926297Y-9984874D01*
X-5904356Y-9615086D01*
X-5884413Y-9282131D01*
X-5866347Y-8984199D01*
X-5850035Y-8719478D01*
X-5835354Y-8486157D01*
X-5822184Y-8282424D01*
X-5810401Y-8106469D01*
X-5799884Y-7956480D01*
X-5797314Y-7921967D01*
X-4416149Y-7921967D01*
X-4400576Y-7938862D01*
X-4363068Y-7968512D01*
X-4301853Y-8012094D01*
X-4215162Y-8070789D01*
X-4101225Y-8145778D01*
X-3958270Y-8238240D01*
X-3784528Y-8349354D01*
X-3578228Y-8480302D01*
X-3342640Y-8629086D01*
X-2211916Y-9341838D01*
X-613833Y-10173330D01*
X-372152Y-10299014D01*
X-141288Y-10418949D01*
X76008Y-10531713D01*
X276984Y-10635883D01*
X458888Y-10730037D01*
X618967Y-10812752D01*
X754469Y-10882606D01*
X862643Y-10938177D01*
X940737Y-10978042D01*
X985998Y-11000778D01*
X996696Y-11005744D01*
X1006341Y-10986724D01*
X1030000Y-10931529D01*
X1066355Y-10843444D01*
X1114091Y-10725752D01*
X1171891Y-10581738D01*
X1238438Y-10414688D01*
X1312416Y-10227886D01*
X1392508Y-10024617D01*
X1477399Y-9808166D01*
X1506714Y-9733192D01*
X2004286Y-8459718D01*
X1197935Y-7740257D01*
X1039467Y-7598837D01*
X889195Y-7464681D01*
X750353Y-7340676D01*
X626173Y-7229712D01*
X519885Y-7134678D01*
X434724Y-7058463D01*
X373920Y-7003957D01*
X340706Y-6974049D01*
X337212Y-6970864D01*
X282841Y-6920933D01*
X-91375Y-7101619D01*
X-447963Y-7270566D01*
X-775056Y-7418872D01*
X-1070768Y-7545706D01*
X-1333213Y-7650238D01*
X-1363315Y-7661593D01*
X-1463989Y-7699383D01*
X-1551560Y-7731694D01*
X-1630249Y-7759049D01*
X-1704273Y-7781968D01*
X-1777853Y-7800976D01*
X-1855207Y-7816593D01*
X-1940556Y-7829342D01*
X-2038119Y-7839746D01*
X-2152115Y-7848327D01*
X-2286763Y-7855607D01*
X-2446284Y-7862108D01*
X-2634896Y-7868352D01*
X-2856818Y-7874863D01*
X-3116271Y-7882161D01*
X-3153833Y-7883219D01*
X-3376714Y-7889471D01*
X-3588262Y-7895336D01*
X-3784446Y-7900707D01*
X-3961235Y-7905477D01*
X-4114597Y-7909539D01*
X-4240499Y-7912786D01*
X-4334911Y-7915111D01*
X-4393800Y-7916406D01*
X-4411557Y-7916644D01*
X-4416149Y-7921967D01*
X-5797314Y-7921967D01*
X-5790511Y-7830646D01*
X-5782160Y-7727156D01*
X-5774708Y-7644199D01*
X-5768034Y-7579963D01*
X-5762015Y-7532637D01*
X-5756529Y-7500410D01*
X-5751454Y-7481470D01*
X-5749901Y-7477927D01*
X-5709015Y-7423498D01*
X-5651503Y-7373045D01*
X-5639697Y-7365246D01*
X-5625043Y-7356623D01*
X-5608888Y-7349019D01*
X-5588360Y-7342276D01*
X-5560588Y-7336237D01*
X-5522698Y-7330745D01*
X-5471819Y-7325643D01*
X-5405079Y-7320773D01*
X-5319606Y-7315979D01*
X-5212527Y-7311103D01*
X-5080971Y-7305988D01*
X-4922065Y-7300476D01*
X-4732937Y-7294411D01*
X-4510715Y-7287636D01*
X-4252527Y-7279993D01*
X-3955501Y-7271325D01*
X-3887642Y-7269351D01*
X-3621700Y-7261546D01*
X-3365574Y-7253889D01*
X-3122776Y-7246492D01*
X-2896818Y-7239470D01*
X-2691213Y-7232935D01*
X-2509474Y-7227001D01*
X-2355113Y-7221783D01*
X-2231642Y-7217392D01*
X-2142576Y-7213943D01*
X-2091425Y-7211549D01*
X-2084916Y-7211124D01*
X-1985468Y-7194649D01*
X-1851859Y-7158120D01*
X-1686635Y-7102571D01*
X-1492339Y-7029041D01*
X-1271517Y-6938566D01*
X-1026713Y-6832181D01*
X-760472Y-6710924D01*
X-475338Y-6575831D01*
X-226940Y-6454330D01*
X-63674Y-6374252D01*
X67359Y-6312644D01*
X171298Y-6268094D01*
X253285Y-6239189D01*
X318458Y-6224516D01*
X371958Y-6222662D01*
X418925Y-6232214D01*
G36*
X-3773200Y4051510D02*
G01*
X-3424732Y4013282D01*
X-3103126Y3948180D01*
X-2804587Y3855065D01*
X-2525321Y3732800D01*
X-2261534Y3580249D01*
X-2061349Y3437385D01*
X-1815981Y3221196D01*
X-1604159Y2979594D01*
X-1426324Y2713553D01*
X-1282917Y2424046D01*
X-1174379Y2112046D01*
X-1101151Y1778525D01*
X-1063675Y1424458D01*
X-1058458Y1224950D01*
X-1073081Y891330D01*
X-1118177Y580912D01*
X-1196045Y285304D01*
X-1308984Y-3888D01*
X-1459293Y-295059D01*
X-1488460Y-344910D01*
X-1584401Y-497673D01*
X-1687129Y-643010D01*
X-1799921Y-783974D01*
X-1926052Y-923619D01*
X-2068797Y-1065001D01*
X-2231433Y-1211173D01*
X-2417235Y-1365189D01*
X-2629479Y-1530105D01*
X-2871439Y-1708974D01*
X-3146393Y-1904851D01*
X-3206750Y-1947117D01*
X-3517000Y-2167985D01*
X-3791162Y-2372262D01*
X-4031248Y-2561801D01*
X-4239274Y-2738460D01*
X-4417251Y-2904092D01*
X-4567194Y-3060555D01*
X-4691118Y-3209702D01*
X-4791034Y-3353390D01*
X-4855234Y-3466042D01*
X-4890587Y-3534834D01*
X-1100666Y-3534834D01*
X-1100666Y-5143500D01*
X-7234985Y-5143500D01*
X-7224884Y-5011209D01*
X-7181930Y-4597233D01*
X-7118833Y-4219144D01*
X-7035188Y-3875378D01*
X-6930589Y-3564370D01*
X-6804630Y-3284556D01*
X-6751100Y-3186116D01*
X-6628498Y-2995801D01*
X-6472697Y-2793197D01*
X-6288855Y-2583928D01*
X-6082129Y-2373621D01*
X-5857677Y-2167899D01*
X-5685006Y-2023375D01*
X-5615025Y-1968606D01*
X-5517336Y-1894314D01*
X-5398712Y-1805535D01*
X-5265925Y-1707306D01*
X-5125747Y-1604664D01*
X-4984951Y-1502647D01*
X-4982664Y-1500999D01*
X-4718578Y-1309693D01*
X-4486126Y-1138806D01*
X-4281617Y-985425D01*
X-4101363Y-846636D01*
X-3941673Y-719526D01*
X-3798857Y-601181D01*
X-3669228Y-488687D01*
X-3549094Y-379130D01*
X-3484648Y-318030D01*
X-3293356Y-116041D01*
X-3141134Y87199D01*
X-3025049Y298236D01*
X-2942171Y523611D01*
X-2889567Y769871D01*
X-2864305Y1043558D01*
X-2863303Y1068916D01*
X-2866106Y1341093D01*
X-2895744Y1583215D01*
X-2953157Y1798718D01*
X-3039285Y1991038D01*
X-3155070Y2163610D01*
X-3166935Y2178239D01*
X-3321549Y2336430D01*
X-3494838Y2457328D01*
X-3688164Y2541551D01*
X-3902894Y2589714D01*
X-4106333Y2602765D01*
X-4344334Y2584317D01*
X-4560948Y2529633D01*
X-4754946Y2439705D01*
X-4925097Y2315522D01*
X-5070171Y2158077D01*
X-5188939Y1968360D01*
X-5280170Y1747361D01*
X-5313977Y1629833D01*
X-5334230Y1535671D01*
X-5349350Y1431090D01*
X-5360314Y1306662D01*
X-5368098Y1152957D01*
X-5370429Y1084791D01*
X-5381665Y719666D01*
X-7112000Y719666D01*
X-7111826Y1042458D01*
X-7096451Y1441415D01*
X-7050568Y1811485D01*
X-6973872Y2153443D01*
X-6866056Y2468065D01*
X-6726816Y2756127D01*
X-6555847Y3018404D01*
X-6352842Y3255672D01*
X-6175277Y3421161D01*
X-5928510Y3606198D01*
X-5662461Y3758881D01*
X-5374969Y3879895D01*
X-5063873Y3969929D01*
X-4727012Y4029667D01*
X-4362224Y4059798D01*
X-4152326Y4064000D01*
X-3773200Y4051510D01*
G37*
X-3773200Y4051510D02*
X-3424732Y4013282D01*
X-3103126Y3948180D01*
X-2804587Y3855065D01*
X-2525321Y3732800D01*
X-2261534Y3580249D01*
X-2061349Y3437385D01*
X-1815981Y3221196D01*
X-1604159Y2979594D01*
X-1426324Y2713553D01*
X-1282917Y2424046D01*
X-1174379Y2112046D01*
X-1101151Y1778525D01*
X-1063675Y1424458D01*
X-1058458Y1224950D01*
X-1073081Y891330D01*
X-1118177Y580912D01*
X-1196045Y285304D01*
X-1308984Y-3888D01*
X-1459293Y-295059D01*
X-1488460Y-344910D01*
X-1584401Y-497673D01*
X-1687129Y-643010D01*
X-1799921Y-783974D01*
X-1926052Y-923619D01*
X-2068797Y-1065001D01*
X-2231433Y-1211173D01*
X-2417235Y-1365189D01*
X-2629479Y-1530105D01*
X-2871439Y-1708974D01*
X-3146393Y-1904851D01*
X-3206750Y-1947117D01*
X-3517000Y-2167985D01*
X-3791162Y-2372262D01*
X-4031248Y-2561801D01*
X-4239274Y-2738460D01*
X-4417251Y-2904092D01*
X-4567194Y-3060555D01*
X-4691118Y-3209702D01*
X-4791034Y-3353390D01*
X-4855234Y-3466042D01*
X-4890587Y-3534834D01*
X-1100666Y-3534834D01*
X-1100666Y-5143500D01*
X-7234985Y-5143500D01*
X-7224884Y-5011209D01*
X-7181930Y-4597233D01*
X-7118833Y-4219144D01*
X-7035188Y-3875378D01*
X-6930589Y-3564370D01*
X-6804630Y-3284556D01*
X-6751100Y-3186116D01*
X-6628498Y-2995801D01*
X-6472697Y-2793197D01*
X-6288855Y-2583928D01*
X-6082129Y-2373621D01*
X-5857677Y-2167899D01*
X-5685006Y-2023375D01*
X-5615025Y-1968606D01*
X-5517336Y-1894314D01*
X-5398712Y-1805535D01*
X-5265925Y-1707306D01*
X-5125747Y-1604664D01*
X-4984951Y-1502647D01*
X-4982664Y-1500999D01*
X-4718578Y-1309693D01*
X-4486126Y-1138806D01*
X-4281617Y-985425D01*
X-4101363Y-846636D01*
X-3941673Y-719526D01*
X-3798857Y-601181D01*
X-3669228Y-488687D01*
X-3549094Y-379130D01*
X-3484648Y-318030D01*
X-3293356Y-116041D01*
X-3141134Y87199D01*
X-3025049Y298236D01*
X-2942171Y523611D01*
X-2889567Y769871D01*
X-2864305Y1043558D01*
X-2863303Y1068916D01*
X-2866106Y1341093D01*
X-2895744Y1583215D01*
X-2953157Y1798718D01*
X-3039285Y1991038D01*
X-3155070Y2163610D01*
X-3166935Y2178239D01*
X-3321549Y2336430D01*
X-3494838Y2457328D01*
X-3688164Y2541551D01*
X-3902894Y2589714D01*
X-4106333Y2602765D01*
X-4344334Y2584317D01*
X-4560948Y2529633D01*
X-4754946Y2439705D01*
X-4925097Y2315522D01*
X-5070171Y2158077D01*
X-5188939Y1968360D01*
X-5280170Y1747361D01*
X-5313977Y1629833D01*
X-5334230Y1535671D01*
X-5349350Y1431090D01*
X-5360314Y1306662D01*
X-5368098Y1152957D01*
X-5370429Y1084791D01*
X-5381665Y719666D01*
X-7112000Y719666D01*
X-7111826Y1042458D01*
X-7096451Y1441415D01*
X-7050568Y1811485D01*
X-6973872Y2153443D01*
X-6866056Y2468065D01*
X-6726816Y2756127D01*
X-6555847Y3018404D01*
X-6352842Y3255672D01*
X-6175277Y3421161D01*
X-5928510Y3606198D01*
X-5662461Y3758881D01*
X-5374969Y3879895D01*
X-5063873Y3969929D01*
X-4727012Y4029667D01*
X-4362224Y4059798D01*
X-4152326Y4064000D01*
X-3773200Y4051510D01*
G36*
X2010834Y-5143500D02*
G01*
X84667Y-5143500D01*
X84667Y-3259667D01*
X2010834Y-3259667D01*
X2010834Y-5143500D01*
G37*
X2010834Y-5143500D02*
X84667Y-5143500D01*
X84667Y-3259667D01*
X2010834Y-3259667D01*
X2010834Y-5143500D01*
G36*
X7450667Y-5143500D02*
G01*
X5651500Y-5143500D01*
X5651500Y1058333D01*
X3492500Y1058333D01*
X3492500Y2257395D01*
X3857625Y2282700D01*
X4238851Y2321905D01*
X4585399Y2384537D01*
X4898150Y2471054D01*
X5177985Y2581912D01*
X5425786Y2717569D01*
X5642432Y2878480D01*
X5828807Y3065103D01*
X5985789Y3277895D01*
X6072940Y3431353D01*
X6121193Y3530464D01*
X6166048Y3630413D01*
X6201040Y3716434D01*
X6214286Y3754182D01*
X6251898Y3873500D01*
X7450667Y3873500D01*
X7450667Y-5143500D01*
G37*
X7450667Y-5143500D02*
X5651500Y-5143500D01*
X5651500Y1058333D01*
X3492500Y1058333D01*
X3492500Y2257395D01*
X3857625Y2282700D01*
X4238851Y2321905D01*
X4585399Y2384537D01*
X4898150Y2471054D01*
X5177985Y2581912D01*
X5425786Y2717569D01*
X5642432Y2878480D01*
X5828807Y3065103D01*
X5985789Y3277895D01*
X6072940Y3431353D01*
X6121193Y3530464D01*
X6166048Y3630413D01*
X6201040Y3716434D01*
X6214286Y3754182D01*
X6251898Y3873500D01*
X7450667Y3873500D01*
X7450667Y-5143500D01*
G36*
X2010834Y-381000D02*
G01*
X84667Y-381000D01*
X84667Y1481666D01*
X2010834Y1481666D01*
X2010834Y-381000D01*
G37*
X2010834Y-381000D02*
X84667Y-381000D01*
X84667Y1481666D01*
X2010834Y1481666D01*
X2010834Y-381000D01*
G36*
X-8969469Y3721601D02*
G01*
X-8878998Y3638995D01*
X-8792758Y3560788D01*
X-8718721Y3494170D01*
X-8664861Y3446337D01*
X-8651482Y3434702D01*
X-8571962Y3366321D01*
X-8895022Y2976245D01*
X-8985762Y2867148D01*
X-9067532Y2769719D01*
X-9136499Y2688456D01*
X-9188826Y2627858D01*
X-9220678Y2592421D01*
X-9228666Y2584993D01*
X-9246947Y2598097D01*
X-9291649Y2635306D01*
X-9357799Y2692326D01*
X-9440423Y2764865D01*
X-9534546Y2848629D01*
X-9546166Y2859041D01*
X-9643200Y2946210D01*
X-9730822Y3025216D01*
X-9803590Y3091126D01*
X-9856061Y3139011D01*
X-9882790Y3163939D01*
X-9883536Y3164676D01*
X-9894474Y3182671D01*
X-9889655Y3206296D01*
X-9864980Y3242278D01*
X-9816349Y3297346D01*
X-9777627Y3338501D01*
X-9710721Y3408957D01*
X-9625038Y3499318D01*
X-9530874Y3598717D01*
X-9438528Y3696291D01*
X-9424599Y3711017D01*
X-9207935Y3940118D01*
X-8969469Y3721601D01*
G37*
X-8969469Y3721601D02*
X-8878998Y3638995D01*
X-8792758Y3560788D01*
X-8718721Y3494170D01*
X-8664861Y3446337D01*
X-8651482Y3434702D01*
X-8571962Y3366321D01*
X-8895022Y2976245D01*
X-8985762Y2867148D01*
X-9067532Y2769719D01*
X-9136499Y2688456D01*
X-9188826Y2627858D01*
X-9220678Y2592421D01*
X-9228666Y2584993D01*
X-9246947Y2598097D01*
X-9291649Y2635306D01*
X-9357799Y2692326D01*
X-9440423Y2764865D01*
X-9534546Y2848629D01*
X-9546166Y2859041D01*
X-9643200Y2946210D01*
X-9730822Y3025216D01*
X-9803590Y3091126D01*
X-9856061Y3139011D01*
X-9882790Y3163939D01*
X-9883536Y3164676D01*
X-9894474Y3182671D01*
X-9889655Y3206296D01*
X-9864980Y3242278D01*
X-9816349Y3297346D01*
X-9777627Y3338501D01*
X-9710721Y3408957D01*
X-9625038Y3499318D01*
X-9530874Y3598717D01*
X-9438528Y3696291D01*
X-9424599Y3711017D01*
X-9207935Y3940118D01*
X-8969469Y3721601D01*
G36*
X9782870Y3751305D02*
G01*
X9876461Y3653903D01*
X9983127Y3542815D01*
X10086660Y3434925D01*
X10139603Y3379720D01*
X10318750Y3192857D01*
X10230343Y3115137D01*
X10183382Y3073674D01*
X10112796Y3011130D01*
X10026568Y2934589D01*
X9932681Y2851133D01*
X9886314Y2809875D01*
X9800036Y2733409D01*
X9725541Y2668019D01*
X9668217Y2618385D01*
X9633453Y2589185D01*
X9625470Y2583381D01*
X9611087Y2599245D01*
X9573471Y2643250D01*
X9516380Y2710926D01*
X9443578Y2797803D01*
X9358822Y2899413D01*
X9295030Y2976147D01*
X8969810Y3367865D01*
X9062197Y3446023D01*
X9112459Y3489634D01*
X9184949Y3553945D01*
X9270747Y3630980D01*
X9360937Y3712767D01*
X9379934Y3730104D01*
X9605284Y3936028D01*
X9782870Y3751305D01*
G37*
X9782870Y3751305D02*
X9876461Y3653903D01*
X9983127Y3542815D01*
X10086660Y3434925D01*
X10139603Y3379720D01*
X10318750Y3192857D01*
X10230343Y3115137D01*
X10183382Y3073674D01*
X10112796Y3011130D01*
X10026568Y2934589D01*
X9932681Y2851133D01*
X9886314Y2809875D01*
X9800036Y2733409D01*
X9725541Y2668019D01*
X9668217Y2618385D01*
X9633453Y2589185D01*
X9625470Y2583381D01*
X9611087Y2599245D01*
X9573471Y2643250D01*
X9516380Y2710926D01*
X9443578Y2797803D01*
X9358822Y2899413D01*
X9295030Y2976147D01*
X8969810Y3367865D01*
X9062197Y3446023D01*
X9112459Y3489634D01*
X9184949Y3553945D01*
X9270747Y3630980D01*
X9360937Y3712767D01*
X9379934Y3730104D01*
X9605284Y3936028D01*
X9782870Y3751305D01*
G36*
X-12534496Y7538728D02*
G01*
X-12494919Y7498213D01*
X-12439863Y7436328D01*
X-12374736Y7358982D01*
X-12359451Y7340302D01*
X-11963765Y6862026D01*
X-11566781Y6398309D01*
X-11160049Y5939620D01*
X-10735118Y5476430D01*
X-10283537Y4999210D01*
X-10281310Y4996890D01*
X-9905204Y4605001D01*
X-10259910Y4249834D01*
X-10360127Y4150064D01*
X-10450570Y4061125D01*
X-10526933Y3987163D01*
X-10584908Y3932323D01*
X-10620190Y3900749D01*
X-10628895Y3894666D01*
X-10646689Y3909344D01*
X-10689832Y3950789D01*
X-10754470Y4015124D01*
X-10836748Y4098469D01*
X-10932813Y4196946D01*
X-11038811Y4306674D01*
X-11054779Y4323291D01*
X-11381075Y4666270D01*
X-11683869Y4991571D01*
X-11971916Y5308937D01*
X-12253967Y5628110D01*
X-12538777Y5958832D01*
X-12761710Y6223000D01*
X-12905722Y6395287D01*
X-13024391Y6538047D01*
X-13119821Y6653981D01*
X-13194119Y6745788D01*
X-13249390Y6816170D01*
X-13287739Y6867827D01*
X-13311272Y6903460D01*
X-13322096Y6925770D01*
X-13322314Y6937458D01*
X-13320330Y6939502D01*
X-13298427Y6956360D01*
X-13248718Y6995907D01*
X-13176225Y7054104D01*
X-13085972Y7126915D01*
X-12982982Y7210302D01*
X-12934579Y7249583D01*
X-12827941Y7335869D01*
X-12732103Y7412812D01*
X-12652001Y7476498D01*
X-12592573Y7523012D01*
X-12558756Y7548441D01*
X-12553190Y7551969D01*
X-12534496Y7538728D01*
G37*
X-12534496Y7538728D02*
X-12494919Y7498213D01*
X-12439863Y7436328D01*
X-12374736Y7358982D01*
X-12359451Y7340302D01*
X-11963765Y6862026D01*
X-11566781Y6398309D01*
X-11160049Y5939620D01*
X-10735118Y5476430D01*
X-10283537Y4999210D01*
X-10281310Y4996890D01*
X-9905204Y4605001D01*
X-10259910Y4249834D01*
X-10360127Y4150064D01*
X-10450570Y4061125D01*
X-10526933Y3987163D01*
X-10584908Y3932323D01*
X-10620190Y3900749D01*
X-10628895Y3894666D01*
X-10646689Y3909344D01*
X-10689832Y3950789D01*
X-10754470Y4015124D01*
X-10836748Y4098469D01*
X-10932813Y4196946D01*
X-11038811Y4306674D01*
X-11054779Y4323291D01*
X-11381075Y4666270D01*
X-11683869Y4991571D01*
X-11971916Y5308937D01*
X-12253967Y5628110D01*
X-12538777Y5958832D01*
X-12761710Y6223000D01*
X-12905722Y6395287D01*
X-13024391Y6538047D01*
X-13119821Y6653981D01*
X-13194119Y6745788D01*
X-13249390Y6816170D01*
X-13287739Y6867827D01*
X-13311272Y6903460D01*
X-13322096Y6925770D01*
X-13322314Y6937458D01*
X-13320330Y6939502D01*
X-13298427Y6956360D01*
X-13248718Y6995907D01*
X-13176225Y7054104D01*
X-13085972Y7126915D01*
X-12982982Y7210302D01*
X-12934579Y7249583D01*
X-12827941Y7335869D01*
X-12732103Y7412812D01*
X-12652001Y7476498D01*
X-12592573Y7523012D01*
X-12558756Y7548441D01*
X-12553190Y7551969D01*
X-12534496Y7538728D01*
G36*
X12965370Y7543774D02*
G01*
X13011254Y7508633D01*
X13078545Y7455630D01*
X13161631Y7389322D01*
X13254900Y7314263D01*
X13352741Y7235007D01*
X13449543Y7156109D01*
X13539693Y7082124D01*
X13617579Y7017607D01*
X13677591Y6967111D01*
X13714117Y6935193D01*
X13722594Y6926586D01*
X13712533Y6905051D01*
X13677156Y6854907D01*
X13619124Y6779318D01*
X13541102Y6681445D01*
X13445750Y6564449D01*
X13335732Y6431494D01*
X13213709Y6285740D01*
X13082344Y6130350D01*
X12944300Y5968485D01*
X12802238Y5803308D01*
X12658821Y5637980D01*
X12516712Y5475663D01*
X12378573Y5319519D01*
X12247066Y5172710D01*
X12228469Y5152123D01*
X12131153Y5045303D01*
X12021975Y4926802D01*
X11904409Y4800271D01*
X11781927Y4669357D01*
X11658004Y4537711D01*
X11536112Y4408980D01*
X11419723Y4286814D01*
X11312313Y4174863D01*
X11217352Y4076774D01*
X11138315Y3996197D01*
X11078676Y3936781D01*
X11041906Y3902175D01*
X11031608Y3894666D01*
X11013124Y3909025D01*
X10969154Y3949350D01*
X10903986Y4011518D01*
X10821910Y4091404D01*
X10727216Y4184884D01*
X10658366Y4253550D01*
X10299948Y4612433D01*
X10669487Y4989091D01*
X11132458Y5472817D01*
X11605321Y5990407D01*
X12089777Y6543765D01*
X12587526Y7134793D01*
X12590588Y7138496D01*
X12684469Y7251558D01*
X12769452Y7353020D01*
X12841850Y7438551D01*
X12897975Y7503818D01*
X12934139Y7544491D01*
X12946505Y7556500D01*
X12965370Y7543774D01*
G37*
X12965370Y7543774D02*
X13011254Y7508633D01*
X13078545Y7455630D01*
X13161631Y7389322D01*
X13254900Y7314263D01*
X13352741Y7235007D01*
X13449543Y7156109D01*
X13539693Y7082124D01*
X13617579Y7017607D01*
X13677591Y6967111D01*
X13714117Y6935193D01*
X13722594Y6926586D01*
X13712533Y6905051D01*
X13677156Y6854907D01*
X13619124Y6779318D01*
X13541102Y6681445D01*
X13445750Y6564449D01*
X13335732Y6431494D01*
X13213709Y6285740D01*
X13082344Y6130350D01*
X12944300Y5968485D01*
X12802238Y5803308D01*
X12658821Y5637980D01*
X12516712Y5475663D01*
X12378573Y5319519D01*
X12247066Y5172710D01*
X12228469Y5152123D01*
X12131153Y5045303D01*
X12021975Y4926802D01*
X11904409Y4800271D01*
X11781927Y4669357D01*
X11658004Y4537711D01*
X11536112Y4408980D01*
X11419723Y4286814D01*
X11312313Y4174863D01*
X11217352Y4076774D01*
X11138315Y3996197D01*
X11078676Y3936781D01*
X11041906Y3902175D01*
X11031608Y3894666D01*
X11013124Y3909025D01*
X10969154Y3949350D01*
X10903986Y4011518D01*
X10821910Y4091404D01*
X10727216Y4184884D01*
X10658366Y4253550D01*
X10299948Y4612433D01*
X10669487Y4989091D01*
X11132458Y5472817D01*
X11605321Y5990407D01*
X12089777Y6543765D01*
X12587526Y7134793D01*
X12590588Y7138496D01*
X12684469Y7251558D01*
X12769452Y7353020D01*
X12841850Y7438551D01*
X12897975Y7503818D01*
X12934139Y7544491D01*
X12946505Y7556500D01*
X12965370Y7543774D01*
G36*
X-15344300Y11576115D02*
G01*
X-15314158Y11527500D01*
X-15271674Y11458017D01*
X-15230384Y11389928D01*
X-15007435Y11028739D01*
X-14761220Y10643890D01*
X-14496928Y10243060D01*
X-14219752Y9833929D01*
X-13934882Y9424178D01*
X-13647508Y9021487D01*
X-13413543Y8701812D01*
X-13140838Y8333707D01*
X-13190294Y8286940D01*
X-13221817Y8260248D01*
X-13281263Y8212732D01*
X-13362720Y8149011D01*
X-13460274Y8073702D01*
X-13568013Y7991421D01*
X-13594089Y7971634D01*
X-13948428Y7703093D01*
X-14221572Y8071011D01*
X-14513976Y8471456D01*
X-14817516Y8899681D01*
X-15124937Y9345339D01*
X-15367097Y9704916D01*
X-15459036Y9843882D01*
X-15556029Y9992191D01*
X-15655472Y10145710D01*
X-15754763Y10300302D01*
X-15851299Y10451834D01*
X-15942480Y10596170D01*
X-16025701Y10729175D01*
X-16098361Y10846713D01*
X-16157858Y10944651D01*
X-16201589Y11018853D01*
X-16226952Y11065184D01*
X-16232180Y11079518D01*
X-16208929Y11095439D01*
X-16156366Y11128264D01*
X-16080580Y11174398D01*
X-15987660Y11230244D01*
X-15883692Y11292207D01*
X-15774765Y11356693D01*
X-15666967Y11420106D01*
X-15566385Y11478850D01*
X-15479108Y11529330D01*
X-15411224Y11567951D01*
X-15368820Y11591118D01*
X-15357360Y11596158D01*
X-15344300Y11576115D01*
G37*
X-15344300Y11576115D02*
X-15314158Y11527500D01*
X-15271674Y11458017D01*
X-15230384Y11389928D01*
X-15007435Y11028739D01*
X-14761220Y10643890D01*
X-14496928Y10243060D01*
X-14219752Y9833929D01*
X-13934882Y9424178D01*
X-13647508Y9021487D01*
X-13413543Y8701812D01*
X-13140838Y8333707D01*
X-13190294Y8286940D01*
X-13221817Y8260248D01*
X-13281263Y8212732D01*
X-13362720Y8149011D01*
X-13460274Y8073702D01*
X-13568013Y7991421D01*
X-13594089Y7971634D01*
X-13948428Y7703093D01*
X-14221572Y8071011D01*
X-14513976Y8471456D01*
X-14817516Y8899681D01*
X-15124937Y9345339D01*
X-15367097Y9704916D01*
X-15459036Y9843882D01*
X-15556029Y9992191D01*
X-15655472Y10145710D01*
X-15754763Y10300302D01*
X-15851299Y10451834D01*
X-15942480Y10596170D01*
X-16025701Y10729175D01*
X-16098361Y10846713D01*
X-16157858Y10944651D01*
X-16201589Y11018853D01*
X-16226952Y11065184D01*
X-16232180Y11079518D01*
X-16208929Y11095439D01*
X-16156366Y11128264D01*
X-16080580Y11174398D01*
X-15987660Y11230244D01*
X-15883692Y11292207D01*
X-15774765Y11356693D01*
X-15666967Y11420106D01*
X-15566385Y11478850D01*
X-15479108Y11529330D01*
X-15411224Y11567951D01*
X-15368820Y11591118D01*
X-15357360Y11596158D01*
X-15344300Y11576115D01*
G36*
X15777003Y11586692D02*
G01*
X15825731Y11559667D01*
X15898582Y11518089D01*
X15989453Y11465547D01*
X16092238Y11405629D01*
X16200835Y11341924D01*
X16309140Y11278022D01*
X16411048Y11217510D01*
X16500457Y11163978D01*
X16571263Y11121014D01*
X16617360Y11092207D01*
X16632284Y11081831D01*
X16624616Y11061304D01*
X16596124Y11009328D01*
X16549277Y10929804D01*
X16486545Y10826629D01*
X16410399Y10703703D01*
X16323310Y10564924D01*
X16227748Y10414192D01*
X16126184Y10255405D01*
X16021087Y10092463D01*
X15914929Y9929263D01*
X15810180Y9769706D01*
X15709310Y9617690D01*
X15625715Y9493250D01*
X15534541Y9359457D01*
X15433015Y9212225D01*
X15323720Y9055152D01*
X15209238Y8891840D01*
X15092152Y8725891D01*
X14975043Y8560904D01*
X14860493Y8400481D01*
X14751086Y8248222D01*
X14649402Y8107728D01*
X14558025Y7982600D01*
X14479536Y7876438D01*
X14416518Y7792845D01*
X14371552Y7735419D01*
X14347221Y7707763D01*
X14343925Y7705807D01*
X14326829Y7718356D01*
X14280739Y7752963D01*
X14210366Y7806068D01*
X14120420Y7874115D01*
X14015612Y7953545D01*
X13944595Y8007432D01*
X13832787Y8093019D01*
X13733130Y8170663D01*
X13650330Y8236585D01*
X13589096Y8287004D01*
X13554135Y8318141D01*
X13547720Y8326078D01*
X13559432Y8348335D01*
X13592497Y8398272D01*
X13642696Y8469834D01*
X13705806Y8556966D01*
X13754237Y8622412D01*
X14082452Y9070162D01*
X14414283Y9537932D01*
X14742579Y10015213D01*
X15060192Y10491494D01*
X15359974Y10956268D01*
X15563133Y11281733D01*
X15625553Y11383071D01*
X15680052Y11471120D01*
X15722875Y11539849D01*
X15750265Y11583224D01*
X15758501Y11595576D01*
X15777003Y11586692D01*
G37*
X15777003Y11586692D02*
X15825731Y11559667D01*
X15898582Y11518089D01*
X15989453Y11465547D01*
X16092238Y11405629D01*
X16200835Y11341924D01*
X16309140Y11278022D01*
X16411048Y11217510D01*
X16500457Y11163978D01*
X16571263Y11121014D01*
X16617360Y11092207D01*
X16632284Y11081831D01*
X16624616Y11061304D01*
X16596124Y11009328D01*
X16549277Y10929804D01*
X16486545Y10826629D01*
X16410399Y10703703D01*
X16323310Y10564924D01*
X16227748Y10414192D01*
X16126184Y10255405D01*
X16021087Y10092463D01*
X15914929Y9929263D01*
X15810180Y9769706D01*
X15709310Y9617690D01*
X15625715Y9493250D01*
X15534541Y9359457D01*
X15433015Y9212225D01*
X15323720Y9055152D01*
X15209238Y8891840D01*
X15092152Y8725891D01*
X14975043Y8560904D01*
X14860493Y8400481D01*
X14751086Y8248222D01*
X14649402Y8107728D01*
X14558025Y7982600D01*
X14479536Y7876438D01*
X14416518Y7792845D01*
X14371552Y7735419D01*
X14347221Y7707763D01*
X14343925Y7705807D01*
X14326829Y7718356D01*
X14280739Y7752963D01*
X14210366Y7806068D01*
X14120420Y7874115D01*
X14015612Y7953545D01*
X13944595Y8007432D01*
X13832787Y8093019D01*
X13733130Y8170663D01*
X13650330Y8236585D01*
X13589096Y8287004D01*
X13554135Y8318141D01*
X13547720Y8326078D01*
X13559432Y8348335D01*
X13592497Y8398272D01*
X13642696Y8469834D01*
X13705806Y8556966D01*
X13754237Y8622412D01*
X14082452Y9070162D01*
X14414283Y9537932D01*
X14742579Y10015213D01*
X15060192Y10491494D01*
X15359974Y10956268D01*
X15563133Y11281733D01*
X15625553Y11383071D01*
X15680052Y11471120D01*
X15722875Y11539849D01*
X15750265Y11583224D01*
X15758501Y11595576D01*
X15777003Y11586692D01*
G36*
X-17596208Y15962677D02*
G01*
X-17570648Y15914290D01*
X-17538824Y15844796D01*
X-17526910Y15816791D01*
X-17421562Y15571081D01*
X-17298561Y15295731D01*
X-17161346Y14997803D01*
X-17013357Y14684361D01*
X-16858033Y14362470D01*
X-16698814Y14039193D01*
X-16539138Y13721594D01*
X-16382447Y13416735D01*
X-16232178Y13131681D01*
X-16108292Y12903381D01*
X-16038676Y12776379D01*
X-15976841Y12662106D01*
X-15925452Y12565609D01*
X-15887175Y12491935D01*
X-15864676Y12446133D01*
X-15859840Y12432938D01*
X-15879924Y12420447D01*
X-15930397Y12390949D01*
X-16005016Y12347981D01*
X-16097538Y12295079D01*
X-16201718Y12235780D01*
X-16311314Y12173621D01*
X-16420082Y12112138D01*
X-16521777Y12054868D01*
X-16610158Y12005347D01*
X-16678979Y11967113D01*
X-16721999Y11943703D01*
X-16733580Y11938000D01*
X-16747556Y11954565D01*
X-16774920Y11996819D01*
X-16793561Y12027958D01*
X-16877562Y12175471D01*
X-16976488Y12355288D01*
X-17087262Y12561395D01*
X-17206807Y12787782D01*
X-17332045Y13028437D01*
X-17459899Y13277349D01*
X-17587291Y13528506D01*
X-17711144Y13775896D01*
X-17828380Y14013508D01*
X-17935922Y14235329D01*
X-18030692Y14435350D01*
X-18074896Y14530916D01*
X-18139191Y14672269D01*
X-18205345Y14819310D01*
X-18271141Y14966948D01*
X-18334360Y15110093D01*
X-18392784Y15243655D01*
X-18444194Y15362544D01*
X-18486373Y15461669D01*
X-18517100Y15535940D01*
X-18534158Y15580267D01*
X-18536787Y15590746D01*
X-18515453Y15601182D01*
X-18461734Y15624991D01*
X-18382304Y15659360D01*
X-18283836Y15701479D01*
X-18173005Y15748534D01*
X-18056484Y15797715D01*
X-17940948Y15846210D01*
X-17833071Y15891206D01*
X-17739527Y15929894D01*
X-17666990Y15959460D01*
X-17622134Y15977093D01*
X-17610837Y15980833D01*
X-17596208Y15962677D01*
G37*
X-17596208Y15962677D02*
X-17570648Y15914290D01*
X-17538824Y15844796D01*
X-17526910Y15816791D01*
X-17421562Y15571081D01*
X-17298561Y15295731D01*
X-17161346Y14997803D01*
X-17013357Y14684361D01*
X-16858033Y14362470D01*
X-16698814Y14039193D01*
X-16539138Y13721594D01*
X-16382447Y13416735D01*
X-16232178Y13131681D01*
X-16108292Y12903381D01*
X-16038676Y12776379D01*
X-15976841Y12662106D01*
X-15925452Y12565609D01*
X-15887175Y12491935D01*
X-15864676Y12446133D01*
X-15859840Y12432938D01*
X-15879924Y12420447D01*
X-15930397Y12390949D01*
X-16005016Y12347981D01*
X-16097538Y12295079D01*
X-16201718Y12235780D01*
X-16311314Y12173621D01*
X-16420082Y12112138D01*
X-16521777Y12054868D01*
X-16610158Y12005347D01*
X-16678979Y11967113D01*
X-16721999Y11943703D01*
X-16733580Y11938000D01*
X-16747556Y11954565D01*
X-16774920Y11996819D01*
X-16793561Y12027958D01*
X-16877562Y12175471D01*
X-16976488Y12355288D01*
X-17087262Y12561395D01*
X-17206807Y12787782D01*
X-17332045Y13028437D01*
X-17459899Y13277349D01*
X-17587291Y13528506D01*
X-17711144Y13775896D01*
X-17828380Y14013508D01*
X-17935922Y14235329D01*
X-18030692Y14435350D01*
X-18074896Y14530916D01*
X-18139191Y14672269D01*
X-18205345Y14819310D01*
X-18271141Y14966948D01*
X-18334360Y15110093D01*
X-18392784Y15243655D01*
X-18444194Y15362544D01*
X-18486373Y15461669D01*
X-18517100Y15535940D01*
X-18534158Y15580267D01*
X-18536787Y15590746D01*
X-18515453Y15601182D01*
X-18461734Y15624991D01*
X-18382304Y15659360D01*
X-18283836Y15701479D01*
X-18173005Y15748534D01*
X-18056484Y15797715D01*
X-17940948Y15846210D01*
X-17833071Y15891206D01*
X-17739527Y15929894D01*
X-17666990Y15959460D01*
X-17622134Y15977093D01*
X-17610837Y15980833D01*
X-17596208Y15962677D01*
G36*
X18023548Y15972083D02*
G01*
X18077778Y15951845D01*
X18160034Y15919305D01*
X18264868Y15876641D01*
X18386835Y15826032D01*
X18475298Y15788819D01*
X18621500Y15726817D01*
X18733072Y15678730D01*
X18814429Y15642120D01*
X18869987Y15614546D01*
X18904163Y15593570D01*
X18921372Y15576753D01*
X18926031Y15561656D01*
X18922556Y15545838D01*
X18921309Y15542467D01*
X18897189Y15483264D01*
X18857698Y15391376D01*
X18805401Y15272463D01*
X18742864Y15132184D01*
X18672652Y14976201D01*
X18597332Y14810173D01*
X18519468Y14639761D01*
X18441627Y14470624D01*
X18366374Y14308422D01*
X18296275Y14158816D01*
X18246717Y14054280D01*
X18168497Y13892353D01*
X18082255Y13717330D01*
X17989956Y13532927D01*
X17893569Y13342860D01*
X17795058Y13150845D01*
X17696392Y12960598D01*
X17599536Y12775833D01*
X17506457Y12600268D01*
X17419122Y12437618D01*
X17339498Y12291598D01*
X17269551Y12165926D01*
X17211249Y12064315D01*
X17166556Y11990483D01*
X17137442Y11948144D01*
X17127285Y11939241D01*
X17105635Y11949753D01*
X17052865Y11978485D01*
X16974446Y12022366D01*
X16875847Y12078324D01*
X16762538Y12143287D01*
X16711084Y12172976D01*
X16591943Y12241872D01*
X16484159Y12304241D01*
X16393481Y12356752D01*
X16325660Y12396075D01*
X16286446Y12418878D01*
X16280066Y12422624D01*
X16273475Y12437493D01*
X16280649Y12469800D01*
X16303517Y12523980D01*
X16344010Y12604466D01*
X16404058Y12715692D01*
X16421073Y12746513D01*
X16803904Y13459431D01*
X17179860Y14202245D01*
X17542772Y14962527D01*
X17779562Y15484520D01*
X17838793Y15617576D01*
X17892407Y15737321D01*
X17938014Y15838474D01*
X17973223Y15915750D01*
X17995644Y15963868D01*
X18002788Y15977840D01*
X18023548Y15972083D01*
G37*
X18023548Y15972083D02*
X18077778Y15951845D01*
X18160034Y15919305D01*
X18264868Y15876641D01*
X18386835Y15826032D01*
X18475298Y15788819D01*
X18621500Y15726817D01*
X18733072Y15678730D01*
X18814429Y15642120D01*
X18869987Y15614546D01*
X18904163Y15593570D01*
X18921372Y15576753D01*
X18926031Y15561656D01*
X18922556Y15545838D01*
X18921309Y15542467D01*
X18897189Y15483264D01*
X18857698Y15391376D01*
X18805401Y15272463D01*
X18742864Y15132184D01*
X18672652Y14976201D01*
X18597332Y14810173D01*
X18519468Y14639761D01*
X18441627Y14470624D01*
X18366374Y14308422D01*
X18296275Y14158816D01*
X18246717Y14054280D01*
X18168497Y13892353D01*
X18082255Y13717330D01*
X17989956Y13532927D01*
X17893569Y13342860D01*
X17795058Y13150845D01*
X17696392Y12960598D01*
X17599536Y12775833D01*
X17506457Y12600268D01*
X17419122Y12437618D01*
X17339498Y12291598D01*
X17269551Y12165926D01*
X17211249Y12064315D01*
X17166556Y11990483D01*
X17137442Y11948144D01*
X17127285Y11939241D01*
X17105635Y11949753D01*
X17052865Y11978485D01*
X16974446Y12022366D01*
X16875847Y12078324D01*
X16762538Y12143287D01*
X16711084Y12172976D01*
X16591943Y12241872D01*
X16484159Y12304241D01*
X16393481Y12356752D01*
X16325660Y12396075D01*
X16286446Y12418878D01*
X16280066Y12422624D01*
X16273475Y12437493D01*
X16280649Y12469800D01*
X16303517Y12523980D01*
X16344010Y12604466D01*
X16404058Y12715692D01*
X16421073Y12746513D01*
X16803904Y13459431D01*
X17179860Y14202245D01*
X17542772Y14962527D01*
X17779562Y15484520D01*
X17838793Y15617576D01*
X17892407Y15737321D01*
X17938014Y15838474D01*
X17973223Y15915750D01*
X17995644Y15963868D01*
X18002788Y15977840D01*
X18023548Y15972083D01*
M02*
