<?xml version="1.0" encoding="UTF-8" standalone="no"?>
<svg
   xmlns:dc="http://purl.org/dc/elements/1.1/"
   xmlns:cc="http://creativecommons.org/ns#"
   xmlns:rdf="http://www.w3.org/1999/02/22-rdf-syntax-ns#"
   xmlns:svg="http://www.w3.org/2000/svg"
   xmlns="http://www.w3.org/2000/svg"
   xmlns:sodipodi="http://sodipodi.sourceforge.net/DTD/sodipodi-0.dtd"
   xmlns:inkscape="http://www.inkscape.org/namespaces/inkscape"
   width="100.0mm"
   height="100.0mm"
   viewBox="0 0 100.0 100.0"
   version="1.1"
   id="svg8"
   sodipodi:docname="ocean_tile_wood.svg"
   inkscape:version="1.0.2 (394de47547, 2021-03-26)">
  <defs
     id="defs2" />
  <sodipodi:namedview
     id="base"
     pagecolor="#ffffff"
     bordercolor="#666666"
     borderopacity="1.0"
     inkscape:pageopacity="0.0"
     inkscape:pageshadow="2"
     inkscape:zoom="2.492375"
     inkscape:cx="188.97638"
     inkscape:cy="188.97638"
     inkscape:document-units="mm"
     inkscape:current-layer="g852"
     inkscape:document-rotation="0"
     showgrid="false"
     inkscape:window-width="3768"
     inkscape:window-height="2096"
     inkscape:window-x="72"
     inkscape:window-y="27"
     inkscape:window-maximized="1" />
  <metadata
     id="metadata5">
    <rdf:RDF>
      <cc:Work
         rdf:about="">
        <dc:format>image/svg+xml</dc:format>
        <dc:type
           rdf:resource="http://purl.org/dc/dcmitype/StillImage" />
        <dc:title />
      </cc:Work>
    </rdf:RDF>
  </metadata>
  <g
     inkscape:label="[fixed] BG"
     inkscape:groupmode="layer"
     sodipodi:insensitive="true"
     id="g838"
     style="display:inline">
    <rect
       x="0"
       y="0"
       width="100"
       height="100"
       style="fill:#ffffff;fill-opacity:1;stroke:none"
       id="rect836" />
  </g>
  <g
     inkscape:label="Edge.Cuts"
     inkscape:groupmode="layer"
     id="g840"
     style="display:inline">
    <path
       id="path864"
       style="fill:none;stroke:#000600;stroke-width:0.104494;stroke-opacity:1"
       d="M 64.9801 75.9228 L 35.0404 75.9346 L 20.0603 50.012 L 35.0199 24.0776 L 64.9596 24.0658 L 79.9397 49.9884 L 64.9801 75.9228" />
    <g
       id="g12"
       transform="matrix(0.06155521,0,0,0.06155521,32.937862,26.940854)">
      <g
         id="g10" />
    </g>
  </g>
  <g
     inkscape:label="B.Cu"
     inkscape:groupmode="layer"
     id="g842"
     style="display:inline">
    <path
       d="m 164.53497,319.42382 c -9.717,0 -18.94,-4.233 -25.305,-11.614 -1.709,-1.982 -4.198,-3.123 -6.816,-3.123 -2.618,0 -5.106,1.14 -6.816,3.123 -6.363,7.38 -15.586,11.613 -25.304,11.613 -9.717997,0 -18.939997,-4.233 -25.304997,-11.614 -1.709,-1.982 -4.198,-3.123 -6.816,-3.123 -2.618,0 -5.106,1.14 -6.816,3.123 -6.36299,7.38 -15.58599,11.613 -25.30399,11.613 -9.718001,0 -18.940003,-4.233 -25.304003,-11.613 -1.7100002,-1.983 -4.1980002,-3.123 -6.8160002,-3.123 -2.618,0 -5.106,1.14 -6.816,3.123 -6.364,7.381 -15.5869998,11.614 -25.3049998,11.614 -9.718,0 -18.94,-4.233 -25.304,-11.613 -1.71,-1.983 -4.198,-3.123 -6.816,-3.123 -2.618,0 -5.105999,1.14 -6.815999,3.123 -6.364,7.382 -15.587,11.614 -25.304001,11.614 -4.971,0 -9,4.029 -9,9 0,4.971 4.029,9 9,9 10.469001,0 20.558001,-3.195 29.029,-9 1.055,-0.723 2.09,-1.48 3.092,-2.283 1.002,0.803 2.037,1.56 3.092,2.283 8.47,5.805 18.56,9 29.028,9 10.468,0 20.5579998,-3.195 29.02899975,-9 1.05500005,-0.723 2.09000005,-1.48 3.09200005,-2.283 1.002,0.803 2.037,1.56 3.092,2.283 8.4700002,5.805 18.5600022,9 29.0280032,9 10.468,0 20.55799,-3.195 29.02799,-9 1.055,-0.723 2.089,-1.48 3.092,-2.283 1.002,0.803 2.037,1.56 3.092,2.283 8.47,5.805 18.56,9 29.028997,9 10.469,0 20.558,-3.195 29.028,-9 1.055,-0.723 2.089,-1.48 3.092,-2.283 1.002,0.803 2.037,1.56 3.092,2.283 8.47,5.805 18.56,9 29.029,9 4.971,0 9,-4.029 9,-9 0,-4.971 -4.03,-9 -9.001,-9 z"
       id="path937"
       style="display:inline;fill:#0f3dd1;fill-opacity:1"
       transform="matrix(0.06155521,0,0,0.06155521,32.937863,26.940854)" />
    <path
       d="m 252.51396,146.09529 c -9.717,0 -18.94,-4.233 -25.305,-11.614 -1.709,-1.982 -4.198,-3.123 -6.816,-3.123 -2.618,0 -5.106,1.14 -6.816,3.123 -6.363,7.38 -15.586,11.613 -25.304,11.613 -9.718,0 -18.94,-4.233 -25.305,-11.614 -1.709,-1.982 -4.198,-3.123 -6.816,-3.123 -2.618,0 -5.106,1.14 -6.816,3.123 -6.363,7.38 -15.586,11.613 -25.30399,11.613 -9.718,0 -18.94,-4.233 -25.303998,-11.613 -1.71,-1.983 -4.198,-3.123 -6.816,-3.123 -2.618,0 -5.105996,1.14 -6.815996,3.123 -6.364,7.381 -15.587005,11.614 -25.305005,11.614 -9.718,0 -18.94,-4.233 -25.304,-11.613 -1.71,-1.983 -4.198,-3.123 -6.816,-3.123 -2.618,0 -5.106,1.14 -6.816,3.123 -6.364,7.381 -15.5869996,11.614 -25.3039994,11.614 -4.971,0 -8.9999996,4.029 -8.9999996,9.00001 0,4.971 4.0289996,9 8.9999996,9 10.4689998,0 20.5579994,-3.195 29.0289994,-9 1.055,-0.723 2.089,-1.48 3.092,-2.283 1.002,0.803 2.037,1.56 3.092,2.283 8.47,5.805 18.56,9 29.028,9 10.468,0 20.558005,-3.195 29.029001,-9 1.055,-0.723 2.089,-1.48 3.092,-2.283 1.002,0.803 2.037,1.56 3.092,2.283 8.469998,5.805 18.559998,9 29.027998,9 10.46799,0 20.55799,-3.195 29.02799,-9 1.055,-0.723 2.089,-1.48 3.092,-2.283 1.002,0.803 2.037,1.56 3.092,2.283 8.471,5.805 18.56,9 29.029,9 10.469,0 20.558,-3.195 29.028,-9 1.055,-0.723 2.089,-1.48 3.092,-2.283 1.002,0.803 2.037,1.56 3.092,2.283 8.471,5.805 18.56,9 29.029,9 4.971,0 9,-4.029 9,-9 0,-4.97001 -4.03,-9.00001 -9.001,-9.00001 z"
       id="path939"
       style="display:inline;fill:#0f3dd1;fill-opacity:1"
       transform="matrix(0.06155521,0,0,0.06155521,32.937863,26.940854)" />
    <path
       d="m 282.43673,255.35288 c 10.469,0 20.558,-3.195 29.029,-9 1.055,-0.723 2.089,-1.48 3.092,-2.283 1.002,0.803 2.037,1.56 3.092,2.283 8.47,5.805 18.56,9 29.028,9 10.468,0 20.558,-3.195 29.029,-9 1.055,-0.723 2.089,-1.48 3.092,-2.283 1.002,0.803 2.037,1.56 3.092,2.283 8.47,5.805 18.56,9 29.028,9 10.468,0 20.558,-3.195 29.028,-9 1.055,-0.723 2.089,-1.48 3.092,-2.283 1.002,0.803 2.037,1.56 3.092,2.283 8.471,5.805 18.56,9 29.029,9 10.469,0 20.558,-3.195 29.028,-9 1.055,-0.723 2.089,-1.48 3.092,-2.283 1.002,0.803 2.037,1.56 3.092,2.283 8.471,5.805 18.56,9 29.029,9 4.971,0 9,-4.029 9,-9 0,-4.971 -4.029,-9 -9,-9 -9.717,0 -18.94,-4.233 -25.305,-11.614 -1.709,-1.982 -4.198,-3.123 -6.816,-3.123 -2.618,0 -5.106,1.14 -6.816,3.123 -6.363,7.38 -15.586,11.613 -25.304,11.613 -9.718,0 -18.94,-4.233 -25.305,-11.614 -1.709,-1.982 -4.198,-3.123 -6.816,-3.123 -2.618,0 -5.106,1.14 -6.816,3.123 -6.363,7.38 -15.586,11.613 -25.304,11.613 -9.718,0 -18.94,-4.233 -25.304,-11.613 -1.71,-1.983 -4.198,-3.123 -6.816,-3.123 -2.618,0 -5.106,1.14 -6.816,3.123 -6.364,7.381 -15.587,11.614 -25.305,11.614 -9.718,0 -18.941,-4.232 -25.304,-11.612 -1.71,-1.983 -4.198,-3.123 -6.816,-3.123 -2.618,0 -5.106,1.14 -6.816,3.123 -6.365,7.381 -15.588,11.613 -25.305,11.613 -4.971,0 -9,4.029 -9,9 0,4.971 4.029,9 9,9 z"
       id="path941"
       style="display:inline;fill:#0f3dd1;fill-opacity:1"
       transform="matrix(0.06155521,0,0,0.06155521,32.937863,26.940854)" />
    <path
       d="m 665.27864,409.56181 c -9.71701,0 -18.94001,-4.233 -25.30501,-11.614 -1.709,-1.982 -4.198,-3.123 -6.81599,-3.123 -2.618,0 -5.106,1.14 -6.816,3.123 -6.36301,7.38 -15.58601,11.613 -25.30401,11.613 -9.718,0 -18.94,-4.233 -25.30499,-11.614 -1.709,-1.982 -4.198,-3.123 -6.816,-3.123 -2.61801,0 -5.106,1.14 -6.81601,3.123 -6.36299,7.38 -15.586,11.613 -25.304,11.613 -9.71799,0 -18.94,-4.233 -25.304,-11.613 -1.71,-1.983 -4.198,-3.123 -6.81599,-3.123 -2.61801,0 -5.106,1.14 -6.81601,3.123 -6.36399,7.381 -15.587,11.614 -25.305,11.614 -9.71799,0 -18.93999,-4.233 -25.30399,-11.613 -1.71,-1.983 -4.198,-3.123 -6.81601,-3.123 -2.618,0 -5.106,1.14 -6.81599,3.123 -6.364,7.382 -15.587,11.614 -25.304,11.614 -4.971,0 -9,4.029 -9,9 0,4.971 4.029,9 9,9 10.469,0 20.55799,-3.195 29.02899,-9 1.055,-0.723 2.09,-1.48 3.092,-2.283 1.002,0.803 2.03701,1.56 3.092,2.283 8.47,5.805 18.56,9 29.028,9 10.468,0 20.55801,-3.195 29.02901,-9 1.05499,-0.723 2.08999,-1.48 3.09199,-2.283 1.002,0.803 2.037,1.56 3.092,2.283 8.47,5.805 18.56001,9 29.02801,9 10.46799,0 20.558,-3.195 29.028,-9 1.05499,-0.723 2.089,-1.48 3.092,-2.283 1.002,0.803 2.037,1.56 3.09199,2.283 8.47,5.805 18.56001,9 29.02901,9 10.469,0 20.55799,-3.195 29.028,-9 1.05499,-0.723 2.089,-1.48 3.09199,-2.283 1.002,0.803 2.037,1.56 3.09201,2.283 8.46999,5.805 18.56,9 29.02899,9 4.97101,0 9,-4.029 9,-9 0,-4.971 -4.03,-9 -9.00099,-9 z"
       id="path943"
       style="display:inline;stroke-width:1;fill:#0f3dd1;fill-opacity:1"
       transform="matrix(0.06155521,0,0,0.06155521,32.937863,26.940854)" />
    <path
       d="m 247.41612,490.28892 c -9.71701,0 -18.94001,-4.233 -25.30501,-11.614 -1.709,-1.982 -4.198,-3.123 -6.81599,-3.123 -2.618,0 -5.106,1.14 -6.816,3.123 -6.36301,7.38 -15.58601,11.613 -25.30401,11.613 -9.718,0 -18.94,-4.233 -25.30499,-11.614 -1.709,-1.982 -4.198,-3.123 -6.816,-3.123 -2.61801,0 -5.106,1.14 -6.81601,3.123 -6.36299,7.38 -15.586,11.613 -25.30399,11.613 -9.71799,0 -18.940001,-4.233 -25.304003,-11.613 -1.71,-1.983 -4.198,-3.123 -6.81599,-3.123 -2.61801,0 -5.106,1.14 -6.81601,3.123 -6.36399,7.381 -15.587,11.614 -25.305,11.614 -9.71799,0 -18.93999,-4.233 -25.30399,-11.613 -1.71,-1.983 -4.198,-3.123 -6.81601,-3.123 -2.618,0 -5.106,1.14 -6.81599,3.123 -6.3639999,7.382 -15.58699986,11.614 -25.3039999,11.614 -4.9710001,0 -9.0000001,4.029 -9.0000001,9 0,4.971 4.029,9 9.0000001,9 10.46900004,0 20.5579899,-3.195 29.0289899,-9 1.055,-0.723 2.09,-1.48 3.092,-2.283 1.002,0.803 2.03701,1.56 3.092,2.283 8.47,5.805 18.56,9 29.028,9 10.468,0 20.55801,-3.195 29.02901,-9 1.05499,-0.723 2.08999,-1.48 3.09199,-2.283 1.002,0.803 2.037,1.56 3.092,2.283 8.470002,5.805 18.560013,9 29.028013,9 10.46798,0 20.55799,-3.195 29.02799,-9 1.05499,-0.723 2.089,-1.48 3.092,-2.283 1.002,0.803 2.037,1.56 3.09199,2.283 8.47,5.805 18.56001,9 29.02901,9 10.469,0 20.55799,-3.195 29.028,-9 1.05499,-0.723 2.089,-1.48 3.09199,-2.283 1.002,0.803 2.037,1.56 3.09201,2.283 8.46999,5.805 18.56,9 29.02899,9 4.97101,0 9,-4.029 9,-9 0,-4.971 -4.03,-9 -9.00099,-9 z"
       id="path945"
       style="display:inline;stroke-width:1;fill:#0f3dd1;fill-opacity:1"
       transform="matrix(0.06155521,0,0,0.06155521,32.937863,26.940854)" />
    <path
       d="m 540.5812,592.69135 c -9.71701,0 -18.94001,-4.233 -25.30501,-11.614 -1.709,-1.982 -4.198,-3.123 -6.81599,-3.123 -2.618,0 -5.106,1.14 -6.816,3.123 -6.36301,7.38 -15.58601,11.613 -25.30401,11.613 -9.718,0 -18.94,-4.233 -25.30499,-11.614 -1.709,-1.982 -4.198,-3.123 -6.816,-3.123 -2.61801,0 -5.106,1.14 -6.81601,3.123 -6.36299,7.38 -15.586,11.613 -25.304,11.613 -9.71799,0 -18.94,-4.233 -25.304,-11.613 -1.71,-1.983 -4.198,-3.123 -6.81599,-3.123 -2.61801,0 -5.106,1.14 -6.81601,3.123 -6.36399,7.381 -15.587,11.614 -25.305,11.614 -9.71799,0 -18.93999,-4.233 -25.30399,-11.613 -1.71,-1.983 -4.198,-3.123 -6.81601,-3.123 -2.618,0 -5.106,1.14 -6.81599,3.123 -6.364,7.382 -15.587,11.614 -25.304,11.614 -4.971,0 -9,4.029 -9,9 0,4.971 4.029,9 9,9 10.469,0 20.55799,-3.195 29.02899,-9 1.055,-0.723 2.09,-1.48 3.092,-2.283 1.002,0.803 2.03701,1.56 3.092,2.283 8.47,5.805 18.56,9 29.028,9 10.468,0 20.55801,-3.195 29.02901,-9 1.05499,-0.723 2.08999,-1.48 3.09199,-2.283 1.002,0.803 2.037,1.56 3.092,2.283 8.47,5.805 18.56001,9 29.02801,9 10.46799,0 20.558,-3.195 29.028,-9 1.05499,-0.723 2.089,-1.48 3.092,-2.283 1.002,0.803 2.037,1.56 3.09199,2.283 8.47,5.805 18.56001,9 29.02901,9 10.469,0 20.55799,-3.195 29.028,-9 1.05499,-0.723 2.089,-1.48 3.09199,-2.283 1.002,0.803 2.037,1.56 3.09201,2.283 8.46999,5.805 18.56,9 29.02899,9 4.97101,0 9,-4.029 9,-9 0,-4.971 -4.03,-9 -9.00099,-9 z"
       id="path947"
       style="display:inline;stroke-width:1;fill:#0f3dd1;fill-opacity:1"
       transform="matrix(0.06155521,0,0,0.06155521,32.937863,26.940854)" />
    <path
       d="m 318.88223,701.38976 c -9.71701,0 -18.94001,-4.233 -25.30501,-11.614 -1.709,-1.982 -4.198,-3.123 -6.81599,-3.123 -2.618,0 -5.106,1.14 -6.816,3.123 -6.36301,7.38 -15.58601,11.613 -25.30401,11.613 -9.718,0 -18.94,-4.233 -25.30499,-11.614 -1.709,-1.982 -4.198,-3.123 -6.816,-3.123 -2.61801,0 -5.106,1.14 -6.81601,3.123 -6.36299,7.38 -15.586,11.613 -25.304,11.613 -9.71799,0 -18.94,-4.233 -25.304,-11.613 -1.71,-1.983 -4.198,-3.123 -6.81599,-3.123 -2.61801,0 -5.106,1.14 -6.81601,3.123 -6.36399,7.381 -15.587,11.614 -25.305,11.614 -9.71799,0 -18.93999,-4.233 -25.30399,-11.613 -1.710002,-1.983 -4.198002,-3.123 -6.816012,-3.123 -2.618,0 -5.106,1.14 -6.81599,3.123 -6.364,7.382 -15.587,11.614 -25.304,11.614 -4.971,0 -9,4.029 -9,9 0,4.971 4.029,9 9,9 10.469,0 20.55799,-3.195 29.02899,-9 1.055,-0.723 2.09,-1.48 3.092,-2.283 1.002,0.803 2.03701,1.56 3.092,2.283 8.470002,5.805 18.560002,9 29.028002,9 10.468,0 20.55801,-3.195 29.02901,-9 1.05499,-0.723 2.08999,-1.48 3.09199,-2.283 1.002,0.803 2.037,1.56 3.092,2.283 8.47,5.805 18.56001,9 29.02801,9 10.46799,0 20.558,-3.195 29.028,-9 1.05499,-0.723 2.089,-1.48 3.092,-2.283 1.002,0.803 2.037,1.56 3.09199,2.283 8.47,5.805 18.56001,9 29.02901,9 10.469,0 20.55799,-3.195 29.028,-9 1.05499,-0.723 2.089,-1.48 3.09199,-2.283 1.002,0.803 2.037,1.56 3.09201,2.283 8.46999,5.805 18.56,9 29.02899,9 4.97101,0 9,-4.029 9,-9 0,-4.971 -4.03,-9 -9.00099,-9 z"
       id="path949"
       style="display:inline;stroke-width:1;fill:#0f3dd1;fill-opacity:1"
       transform="matrix(0.06155521,0,0,0.06155521,32.937863,26.940854)" />
    <path
       d="m 64.356423,29.583777 c -0.598132,0 -1.165856,-0.260564 -1.557655,-0.714903 -0.105198,-0.122002 -0.258409,-0.192237 -0.41956,-0.192237 -0.161152,0 -0.314301,0.07017 -0.41956,0.192237 -0.391676,0.454278 -0.9594,0.714841 -1.557593,0.714841 -0.598194,0 -1.165856,-0.260563 -1.557655,-0.714902 -0.105198,-0.122003 -0.258409,-0.192237 -0.41956,-0.192237 -0.161152,0 -0.314301,0.07017 -0.419561,0.192237 -0.391675,0.454277 -0.959399,0.71484 -1.557592,0.71484 -0.598194,0 -1.165856,-0.260563 -1.557593,-0.71484 -0.105259,-0.122064 -0.258409,-0.192237 -0.41956,-0.192237 -0.161152,0 -0.314301,0.07017 -0.41956,0.192237 -0.391738,0.454339 -0.959462,0.714902 -1.557655,0.714902 -0.598194,0 -1.165856,-0.260563 -1.557593,-0.714841 -0.10526,-0.122064 -0.258409,-0.192237 -0.419561,-0.192237 -0.161151,0 -0.3143,0.07017 -0.41956,0.192237 -0.391737,0.454339 -0.959461,0.714903 -1.557593,0.714903 -0.305991,0 -0.553997,0.248006 -0.553997,0.553997 0,0.305991 0.248006,0.553997 0.553997,0.553997 0.644422,0 1.265452,-0.196669 1.786886,-0.553997 0.06494,-0.0445 0.128589,-0.0911 0.190329,-0.14053 0.06168,0.04943 0.125388,0.09603 0.190329,0.14053 0.521372,0.357328 1.142464,0.553997 1.786824,0.553997 0.64436,0 1.265453,-0.196669 1.786887,-0.553997 0.06494,-0.0445 0.128588,-0.0911 0.190328,-0.14053 0.06168,0.04943 0.125388,0.09603 0.190329,0.14053 0.521373,0.357328 1.142465,0.553997 1.786825,0.553997 0.644359,0 1.265451,-0.196669 1.786824,-0.553997 0.06494,-0.0445 0.128588,-0.0911 0.190328,-0.14053 0.06168,0.04943 0.125388,0.09603 0.190329,0.14053 0.521434,0.357328 1.142465,0.553997 1.786886,0.553997 0.644422,0 1.265452,-0.196669 1.786825,-0.553997 0.06494,-0.0445 0.128589,-0.0911 0.190328,-0.14053 0.06168,0.04943 0.125388,0.09603 0.190329,0.14053 0.521434,0.357328 1.142465,0.553997 1.786886,0.553997 0.305991,0 0.553997,-0.248006 0.553997,-0.553997 0,-0.30593 -0.248067,-0.553997 -0.554058,-0.553997 z"
       id="path1015"
       style="display:inline;fill:#0f3dd1;fill-opacity:1;stroke-width:0.0615552" />
  </g>
  <g
     inkscape:label="B.Mask-disabled"
     inkscape:groupmode="layer"
     id="g844"
     style="display:inline" />
  <g
     inkscape:label="B.SilkS-disabled"
     inkscape:groupmode="layer"
     id="g846"
     style="display:inline" />
  <g
     inkscape:label="F.Cu"
     inkscape:groupmode="layer"
     id="g848"
     style="display:none">
    <path
       d="m 164.53497,319.42382 c -9.717,0 -18.94,-4.233 -25.305,-11.614 -1.709,-1.982 -4.198,-3.123 -6.816,-3.123 -2.618,0 -5.106,1.14 -6.816,3.123 -6.363,7.38 -15.586,11.613 -25.304,11.613 -9.717997,0 -18.939997,-4.233 -25.304997,-11.614 -1.709,-1.982 -4.198,-3.123 -6.816,-3.123 -2.618,0 -5.106,1.14 -6.816,3.123 -6.36299,7.38 -15.58599,11.613 -25.30399,11.613 -9.718001,0 -18.940003,-4.233 -25.304003,-11.613 -1.7100002,-1.983 -4.1980002,-3.123 -6.8160002,-3.123 -2.618,0 -5.106,1.14 -6.816,3.123 -6.364,7.381 -15.5869998,11.614 -25.3049998,11.614 -9.718,0 -18.94,-4.233 -25.304,-11.613 -1.71,-1.983 -4.198,-3.123 -6.816,-3.123 -2.618,0 -5.105999,1.14 -6.815999,3.123 -6.364,7.382 -15.587,11.614 -25.304001,11.614 -4.971,0 -9,4.029 -9,9 0,4.971 4.029,9 9,9 10.469001,0 20.558001,-3.195 29.029,-9 1.055,-0.723 2.09,-1.48 3.092,-2.283 1.002,0.803 2.037,1.56 3.092,2.283 8.47,5.805 18.56,9 29.028,9 10.468,0 20.5579998,-3.195 29.02899975,-9 1.05500005,-0.723 2.09000005,-1.48 3.09200005,-2.283 1.002,0.803 2.037,1.56 3.092,2.283 8.4700002,5.805 18.5600022,9 29.0280032,9 10.468,0 20.55799,-3.195 29.02799,-9 1.055,-0.723 2.089,-1.48 3.092,-2.283 1.002,0.803 2.037,1.56 3.092,2.283 8.47,5.805 18.56,9 29.028997,9 10.469,0 20.558,-3.195 29.028,-9 1.055,-0.723 2.089,-1.48 3.092,-2.283 1.002,0.803 2.037,1.56 3.092,2.283 8.47,5.805 18.56,9 29.029,9 4.971,0 9,-4.029 9,-9 0,-4.971 -4.03,-9 -9.001,-9 z"
       id="path2"
       style="display:inline;fill:#0f3dd1;fill-opacity:1"
       transform="matrix(0.06155521,0,0,0.06155521,32.937863,26.940854)" />
    <path
       d="m 252.51396,146.09529 c -9.717,0 -18.94,-4.233 -25.305,-11.614 -1.709,-1.982 -4.198,-3.123 -6.816,-3.123 -2.618,0 -5.106,1.14 -6.816,3.123 -6.363,7.38 -15.586,11.613 -25.304,11.613 -9.718,0 -18.94,-4.233 -25.305,-11.614 -1.709,-1.982 -4.198,-3.123 -6.816,-3.123 -2.618,0 -5.106,1.14 -6.816,3.123 -6.363,7.38 -15.586,11.613 -25.30399,11.613 -9.718,0 -18.94,-4.233 -25.303998,-11.613 -1.71,-1.983 -4.198,-3.123 -6.816,-3.123 -2.618,0 -5.105996,1.14 -6.815996,3.123 -6.364,7.381 -15.587005,11.614 -25.305005,11.614 -9.718,0 -18.94,-4.233 -25.304,-11.613 -1.71,-1.983 -4.198,-3.123 -6.816,-3.123 -2.618,0 -5.106,1.14 -6.816,3.123 -6.364,7.381 -15.5869996,11.614 -25.3039994,11.614 -4.971,0 -8.9999996,4.029 -8.9999996,9.00001 0,4.971 4.0289996,9 8.9999996,9 10.4689998,0 20.5579994,-3.195 29.0289994,-9 1.055,-0.723 2.089,-1.48 3.092,-2.283 1.002,0.803 2.037,1.56 3.092,2.283 8.47,5.805 18.56,9 29.028,9 10.468,0 20.558005,-3.195 29.029001,-9 1.055,-0.723 2.089,-1.48 3.092,-2.283 1.002,0.803 2.037,1.56 3.092,2.283 8.469998,5.805 18.559998,9 29.027998,9 10.46799,0 20.55799,-3.195 29.02799,-9 1.055,-0.723 2.089,-1.48 3.092,-2.283 1.002,0.803 2.037,1.56 3.092,2.283 8.471,5.805 18.56,9 29.029,9 10.469,0 20.558,-3.195 29.028,-9 1.055,-0.723 2.089,-1.48 3.092,-2.283 1.002,0.803 2.037,1.56 3.092,2.283 8.471,5.805 18.56,9 29.029,9 4.971,0 9,-4.029 9,-9 0,-4.97001 -4.03,-9.00001 -9.001,-9.00001 z"
       id="path4"
       style="display:inline;fill:#0f3dd1;fill-opacity:1"
       transform="matrix(0.06155521,0,0,0.06155521,32.937863,26.940854)" />
    <path
       d="m 282.43673,255.35288 c 10.469,0 20.558,-3.195 29.029,-9 1.055,-0.723 2.089,-1.48 3.092,-2.283 1.002,0.803 2.037,1.56 3.092,2.283 8.47,5.805 18.56,9 29.028,9 10.468,0 20.558,-3.195 29.029,-9 1.055,-0.723 2.089,-1.48 3.092,-2.283 1.002,0.803 2.037,1.56 3.092,2.283 8.47,5.805 18.56,9 29.028,9 10.468,0 20.558,-3.195 29.028,-9 1.055,-0.723 2.089,-1.48 3.092,-2.283 1.002,0.803 2.037,1.56 3.092,2.283 8.471,5.805 18.56,9 29.029,9 10.469,0 20.558,-3.195 29.028,-9 1.055,-0.723 2.089,-1.48 3.092,-2.283 1.002,0.803 2.037,1.56 3.092,2.283 8.471,5.805 18.56,9 29.029,9 4.971,0 9,-4.029 9,-9 0,-4.971 -4.029,-9 -9,-9 -9.717,0 -18.94,-4.233 -25.305,-11.614 -1.709,-1.982 -4.198,-3.123 -6.816,-3.123 -2.618,0 -5.106,1.14 -6.816,3.123 -6.363,7.38 -15.586,11.613 -25.304,11.613 -9.718,0 -18.94,-4.233 -25.305,-11.614 -1.709,-1.982 -4.198,-3.123 -6.816,-3.123 -2.618,0 -5.106,1.14 -6.816,3.123 -6.363,7.38 -15.586,11.613 -25.304,11.613 -9.718,0 -18.94,-4.233 -25.304,-11.613 -1.71,-1.983 -4.198,-3.123 -6.816,-3.123 -2.618,0 -5.106,1.14 -6.816,3.123 -6.364,7.381 -15.587,11.614 -25.305,11.614 -9.718,0 -18.941,-4.232 -25.304,-11.612 -1.71,-1.983 -4.198,-3.123 -6.816,-3.123 -2.618,0 -5.106,1.14 -6.816,3.123 -6.365,7.381 -15.588,11.613 -25.305,11.613 -4.971,0 -9,4.029 -9,9 0,4.971 4.029,9 9,9 z"
       id="path6"
       style="display:inline;fill:#0f3dd1;fill-opacity:1"
       transform="matrix(0.06155521,0,0,0.06155521,32.937863,26.940854)" />
    <path
       d="m 665.27864,409.56181 c -9.71701,0 -18.94001,-4.233 -25.30501,-11.614 -1.709,-1.982 -4.198,-3.123 -6.81599,-3.123 -2.618,0 -5.106,1.14 -6.816,3.123 -6.36301,7.38 -15.58601,11.613 -25.30401,11.613 -9.718,0 -18.94,-4.233 -25.30499,-11.614 -1.709,-1.982 -4.198,-3.123 -6.816,-3.123 -2.61801,0 -5.106,1.14 -6.81601,3.123 -6.36299,7.38 -15.586,11.613 -25.304,11.613 -9.71799,0 -18.94,-4.233 -25.304,-11.613 -1.71,-1.983 -4.198,-3.123 -6.81599,-3.123 -2.61801,0 -5.106,1.14 -6.81601,3.123 -6.36399,7.381 -15.587,11.614 -25.305,11.614 -9.71799,0 -18.93999,-4.233 -25.30399,-11.613 -1.71,-1.983 -4.198,-3.123 -6.81601,-3.123 -2.618,0 -5.106,1.14 -6.81599,3.123 -6.364,7.382 -15.587,11.614 -25.304,11.614 -4.971,0 -9,4.029 -9,9 0,4.971 4.029,9 9,9 10.469,0 20.55799,-3.195 29.02899,-9 1.055,-0.723 2.09,-1.48 3.092,-2.283 1.002,0.803 2.03701,1.56 3.092,2.283 8.47,5.805 18.56,9 29.028,9 10.468,0 20.55801,-3.195 29.02901,-9 1.05499,-0.723 2.08999,-1.48 3.09199,-2.283 1.002,0.803 2.037,1.56 3.092,2.283 8.47,5.805 18.56001,9 29.02801,9 10.46799,0 20.558,-3.195 29.028,-9 1.05499,-0.723 2.089,-1.48 3.092,-2.283 1.002,0.803 2.037,1.56 3.09199,2.283 8.47,5.805 18.56001,9 29.02901,9 10.469,0 20.55799,-3.195 29.028,-9 1.05499,-0.723 2.089,-1.48 3.09199,-2.283 1.002,0.803 2.037,1.56 3.09201,2.283 8.46999,5.805 18.56,9 29.02899,9 4.97101,0 9,-4.029 9,-9 0,-4.971 -4.03,-9 -9.00099,-9 z"
       id="path2-6"
       style="display:inline;fill:#0f3dd1;fill-opacity:1;stroke-width:1"
       transform="matrix(0.06155521,0,0,0.06155521,32.937863,26.940854)" />
    <path
       d="m 247.41612,490.28892 c -9.71701,0 -18.94001,-4.233 -25.30501,-11.614 -1.709,-1.982 -4.198,-3.123 -6.81599,-3.123 -2.618,0 -5.106,1.14 -6.816,3.123 -6.36301,7.38 -15.58601,11.613 -25.30401,11.613 -9.718,0 -18.94,-4.233 -25.30499,-11.614 -1.709,-1.982 -4.198,-3.123 -6.816,-3.123 -2.61801,0 -5.106,1.14 -6.81601,3.123 -6.36299,7.38 -15.586,11.613 -25.30399,11.613 -9.71799,0 -18.940001,-4.233 -25.304003,-11.613 -1.71,-1.983 -4.198,-3.123 -6.81599,-3.123 -2.61801,0 -5.106,1.14 -6.81601,3.123 -6.36399,7.381 -15.587,11.614 -25.305,11.614 -9.71799,0 -18.93999,-4.233 -25.30399,-11.613 -1.71,-1.983 -4.198,-3.123 -6.81601,-3.123 -2.618,0 -5.106,1.14 -6.81599,3.123 -6.3639999,7.382 -15.58699986,11.614 -25.3039999,11.614 -4.9710001,0 -9.0000001,4.029 -9.0000001,9 0,4.971 4.029,9 9.0000001,9 10.46900004,0 20.5579899,-3.195 29.0289899,-9 1.055,-0.723 2.09,-1.48 3.092,-2.283 1.002,0.803 2.03701,1.56 3.092,2.283 8.47,5.805 18.56,9 29.028,9 10.468,0 20.55801,-3.195 29.02901,-9 1.05499,-0.723 2.08999,-1.48 3.09199,-2.283 1.002,0.803 2.037,1.56 3.092,2.283 8.470002,5.805 18.560013,9 29.028013,9 10.46798,0 20.55799,-3.195 29.02799,-9 1.05499,-0.723 2.089,-1.48 3.092,-2.283 1.002,0.803 2.037,1.56 3.09199,2.283 8.47,5.805 18.56001,9 29.02901,9 10.469,0 20.55799,-3.195 29.028,-9 1.05499,-0.723 2.089,-1.48 3.09199,-2.283 1.002,0.803 2.037,1.56 3.09201,2.283 8.46999,5.805 18.56,9 29.02899,9 4.97101,0 9,-4.029 9,-9 0,-4.971 -4.03,-9 -9.00099,-9 z"
       id="path2-7"
       style="display:inline;fill:#0f3dd1;fill-opacity:1;stroke-width:1"
       transform="matrix(0.06155521,0,0,0.06155521,32.937863,26.940854)" />
    <path
       d="m 540.5812,592.69135 c -9.71701,0 -18.94001,-4.233 -25.30501,-11.614 -1.709,-1.982 -4.198,-3.123 -6.81599,-3.123 -2.618,0 -5.106,1.14 -6.816,3.123 -6.36301,7.38 -15.58601,11.613 -25.30401,11.613 -9.718,0 -18.94,-4.233 -25.30499,-11.614 -1.709,-1.982 -4.198,-3.123 -6.816,-3.123 -2.61801,0 -5.106,1.14 -6.81601,3.123 -6.36299,7.38 -15.586,11.613 -25.304,11.613 -9.71799,0 -18.94,-4.233 -25.304,-11.613 -1.71,-1.983 -4.198,-3.123 -6.81599,-3.123 -2.61801,0 -5.106,1.14 -6.81601,3.123 -6.36399,7.381 -15.587,11.614 -25.305,11.614 -9.71799,0 -18.93999,-4.233 -25.30399,-11.613 -1.71,-1.983 -4.198,-3.123 -6.81601,-3.123 -2.618,0 -5.106,1.14 -6.81599,3.123 -6.364,7.382 -15.587,11.614 -25.304,11.614 -4.971,0 -9,4.029 -9,9 0,4.971 4.029,9 9,9 10.469,0 20.55799,-3.195 29.02899,-9 1.055,-0.723 2.09,-1.48 3.092,-2.283 1.002,0.803 2.03701,1.56 3.092,2.283 8.47,5.805 18.56,9 29.028,9 10.468,0 20.55801,-3.195 29.02901,-9 1.05499,-0.723 2.08999,-1.48 3.09199,-2.283 1.002,0.803 2.037,1.56 3.092,2.283 8.47,5.805 18.56001,9 29.02801,9 10.46799,0 20.558,-3.195 29.028,-9 1.05499,-0.723 2.089,-1.48 3.092,-2.283 1.002,0.803 2.037,1.56 3.09199,2.283 8.47,5.805 18.56001,9 29.02901,9 10.469,0 20.55799,-3.195 29.028,-9 1.05499,-0.723 2.089,-1.48 3.09199,-2.283 1.002,0.803 2.037,1.56 3.09201,2.283 8.46999,5.805 18.56,9 29.02899,9 4.97101,0 9,-4.029 9,-9 0,-4.971 -4.03,-9 -9.00099,-9 z"
       id="path2-5"
       style="display:inline;fill:#0f3dd1;fill-opacity:1;stroke-width:1"
       transform="matrix(0.06155521,0,0,0.06155521,32.937863,26.940854)" />
    <path
       d="m 318.88223,701.38976 c -9.71701,0 -18.94001,-4.233 -25.30501,-11.614 -1.709,-1.982 -4.198,-3.123 -6.81599,-3.123 -2.618,0 -5.106,1.14 -6.816,3.123 -6.36301,7.38 -15.58601,11.613 -25.30401,11.613 -9.718,0 -18.94,-4.233 -25.30499,-11.614 -1.709,-1.982 -4.198,-3.123 -6.816,-3.123 -2.61801,0 -5.106,1.14 -6.81601,3.123 -6.36299,7.38 -15.586,11.613 -25.304,11.613 -9.71799,0 -18.94,-4.233 -25.304,-11.613 -1.71,-1.983 -4.198,-3.123 -6.81599,-3.123 -2.61801,0 -5.106,1.14 -6.81601,3.123 -6.36399,7.381 -15.587,11.614 -25.305,11.614 -9.71799,0 -18.93999,-4.233 -25.30399,-11.613 -1.710002,-1.983 -4.198002,-3.123 -6.816012,-3.123 -2.618,0 -5.106,1.14 -6.81599,3.123 -6.364,7.382 -15.587,11.614 -25.304,11.614 -4.971,0 -9,4.029 -9,9 0,4.971 4.029,9 9,9 10.469,0 20.55799,-3.195 29.02899,-9 1.055,-0.723 2.09,-1.48 3.092,-2.283 1.002,0.803 2.03701,1.56 3.092,2.283 8.470002,5.805 18.560002,9 29.028002,9 10.468,0 20.55801,-3.195 29.02901,-9 1.05499,-0.723 2.08999,-1.48 3.09199,-2.283 1.002,0.803 2.037,1.56 3.092,2.283 8.47,5.805 18.56001,9 29.02801,9 10.46799,0 20.558,-3.195 29.028,-9 1.05499,-0.723 2.089,-1.48 3.092,-2.283 1.002,0.803 2.037,1.56 3.09199,2.283 8.47,5.805 18.56001,9 29.02901,9 10.469,0 20.55799,-3.195 29.028,-9 1.05499,-0.723 2.089,-1.48 3.09199,-2.283 1.002,0.803 2.037,1.56 3.09201,2.283 8.46999,5.805 18.56,9 29.02899,9 4.97101,0 9,-4.029 9,-9 0,-4.971 -4.03,-9 -9.00099,-9 z"
       id="path2-3"
       style="display:inline;fill:#0f3dd1;fill-opacity:1;stroke-width:1"
       transform="matrix(0.06155521,0,0,0.06155521,32.937863,26.940854)" />
  </g>
  <g
     inkscape:label="F.Mask"
     inkscape:groupmode="layer"
     id="g850">
    <path
       id="path1002"
       style="display:inline;fill:#908428;fill-opacity:1;stroke:none;stroke-width:0.394938;stroke-opacity:1"
       d="M 245.51562 90.957031 L 132.35938 91.001953 L 113.33789 123.97656 C 114.0471 124.09305 114.72888 124.23242 115.57617 124.23242 C 116.81296 124.23242 117.88524 124.09997 118.84375 123.85938 C 119.80226 123.61878 120.64599 123.26853 121.42773 122.83594 C 122.99122 121.97076 124.30408 120.77116 125.76953 119.42969 C 126.58096 118.68696 127.41978 117.91901 128.33398 117.18555 C 129.24819 116.45208 130.23738 115.75307 131.35156 115.14648 C 132.46575 114.5399 133.70386 114.02616 135.11523 113.66406 C 136.52661 113.30196 138.11026 113.0918 139.91602 113.0918 C 141.72165 113.0918 143.30749 113.30196 144.71875 113.66406 C 146.13001 114.02617 147.36833 114.53987 148.48242 115.14648 C 149.59652 115.7531 150.58585 116.45201 151.5 117.18555 C 152.41415 117.91908 153.25303 118.68684 154.06445 119.42969 C 155.52966 120.77092 156.8391 121.97082 158.40234 122.83594 C 159.18397 123.26849 160.02989 123.61878 160.98828 123.85938 C 161.94667 124.09997 163.0192 124.23242 164.25586 124.23242 C 165.49277 124.23242 166.56486 124.09997 167.52344 123.85938 C 168.48202 123.61878 169.32565 123.26853 170.10742 122.83594 C 171.67097 121.97076 172.98377 120.77116 174.44922 119.42969 C 175.26064 118.68696 176.09947 117.91901 177.01367 117.18555 C 177.92788 116.45208 178.91706 115.75307 180.03125 115.14648 C 181.14544 114.5399 182.38355 114.02616 183.79492 113.66406 C 185.20629 113.30196 186.78994 113.0918 188.5957 113.0918 C 190.40158 113.0918 191.98704 113.30196 193.39844 113.66406 C 194.80984 114.02616 196.04792 114.5399 197.16211 115.14648 C 198.2763 115.75307 199.26545 116.45208 200.17969 117.18555 C 201.09392 117.91901 201.93259 118.68696 202.74414 119.42969 C 204.20959 120.77116 205.52233 121.97076 207.08594 122.83594 C 207.86774 123.26853 208.71136 123.61878 209.66992 123.85938 C 210.62848 124.09997 211.70072 124.23242 212.9375 124.23242 C 214.17453 124.23242 215.24838 124.09997 216.20703 123.85938 C 217.16568 123.61878 218.00921 123.26853 218.79102 122.83594 C 220.35463 121.97076 221.66736 120.77116 223.13281 119.42969 C 223.94436 118.68696 224.78299 117.91901 225.69727 117.18555 C 226.61155 116.45208 227.6006 115.75307 228.71484 115.14648 C 229.82909 114.5399 231.06707 114.02616 232.47852 113.66406 C 233.88996 113.30196 235.47537 113.0918 237.28125 113.0918 C 239.08713 113.0918 240.67058 113.30196 242.08203 113.66406 C 243.49348 114.02616 244.73341 114.5399 245.84766 115.14648 C 246.9619 115.75307 247.95095 116.45208 248.86523 117.18555 C 249.77952 117.91901 250.61814 118.68696 251.42969 119.42969 C 252.89514 120.77116 254.20598 121.97076 255.76953 122.83594 C 256.55131 123.26853 257.39689 123.61878 258.35547 123.85938 C 259.31405 124.09997 260.38614 124.23242 261.62305 124.23242 C 262.73159 124.23242 263.67193 124.09364 264.55273 123.89844 L 245.51562 90.957031 z "
       transform="scale(0.26458333)" />
  </g>
  <g
     inkscape:label="F.SilkS"
     inkscape:groupmode="layer"
     id="g852"
     style="display:inline">
    <text
       xml:space="preserve"
       style="font-style:normal;font-weight:normal;font-size:12.7px;line-height:1.25;font-family:sans-serif;text-align:center;letter-spacing:0px;word-spacing:0px;text-anchor:middle;fill:#000000;fill-opacity:1;stroke:none;stroke-width:0.264583"
       x="51.053726"
       y="55.131474"
       id="text1009"><tspan
         sodipodi:role="line"
         id="tspan1007"
         x="51.053726"
         y="55.131474"
         style="font-style:normal;font-variant:normal;font-weight:600;font-stretch:normal;font-size:12.7px;font-family:FreeSans;-inkscape-font-specification:'FreeSans Semi-Bold';text-align:center;text-anchor:middle;stroke-width:0.264583">2:1</tspan></text>
    <path
       style="fill:none;stroke:#000000;stroke-width:1;stroke-linecap:butt;stroke-linejoin:miter;stroke-opacity:1;stroke-miterlimit:4;stroke-dasharray:4,1;stroke-dashoffset:0"
       d="m 31.931596,34.218787 c 3.374544,8.018272 9.157097,12.797734 9.157097,12.797734"
       id="path1011" />
    <path
       style="fill:none;stroke:#000000;stroke-width:1;stroke-linecap:butt;stroke-linejoin:miter;stroke-miterlimit:4;stroke-dasharray:4, 1;stroke-dashoffset:0;stroke-opacity:1"
       d="M 68.467074,34.218787 C 65.09253,42.237059 59.309977,47.016521 59.309977,47.016521"
       id="path1013" />
    <path
       style="fill:#121419;stroke:none;stroke-width:0.0335876;stroke-opacity:1"
       d="m 56.429619,62.218157 c 0.133813,-0.328422 0.201459,-0.675718 0.201459,-1.035683 0,-0.07299 -0.0029,-0.14674 -0.0086,-0.219122 -0.01065,-0.134758 -0.128539,-0.235281 -0.263192,-0.224768 -0.134721,0.01053 -0.235383,0.128439 -0.224769,0.263189 0.0047,0.05967 0.0071,0.120483 0.0071,0.180701 0,0.366241 -0.08511,0.716499 -0.252983,1.041019 -0.03137,0.06058 -0.03597,0.131465 -0.01279,0.195619 0.02318,0.06415 0.07208,0.115712 0.134888,0.142244 0.955705,0.403955 1.573247,1.335339 1.573247,2.372801 0,1.379247 -1.079273,2.508329 -2.457074,2.570466 -0.105901,0.0049 -0.19669,0.07717 -0.224869,0.179355 -0.182382,0.660638 -0.915131,1.140136 -1.74226,1.140136 -0.394119,0 -0.770032,-0.104896 -1.079677,-0.298566 l 0.80859,-1.275991 c 0.05667,-0.08941 0.08575,-0.188531 0.08877,-0.287275 0.005,-0.164585 -0.06243,-0.328085 -0.195514,-0.443861 -0.225138,-0.195885 -0.565716,-0.182957 -0.775405,0.02935 l -0.606762,0.614288 0.197831,-1.465432 c 0.02089,-0.154941 -0.02381,-0.313237 -0.122661,-0.434323 -0.08649,-0.105961 -0.209184,-0.176968 -0.342997,-0.20015 -0.01911,-0.0035 -0.03845,-0.0056 -0.05795,-0.0071 l -0.218589,-0.01478 c -0.10876,-0.0073 -0.212777,0.01632 -0.302926,0.0638 -0.150272,0.07919 -0.262153,0.224767 -0.293624,0.403521 l -0.191438,1.087438 -0.191383,1.087369 -1.181683,-1.453239 c -0.0392,-0.04818 -0.08542,-0.0886 -0.136231,-0.120609 -3.05e-4,-2.03e-4 -6.09e-4,-4.34e-4 -9.11e-4,-6.38e-4 -0.0055,-0.0035 -0.01125,-0.0063 -0.0168,-0.0097 -0.07272,-0.04224 -0.153798,-0.06821 -0.237195,-0.07564 -0.0026,-2.38e-4 -0.0054,-2.03e-4 -0.008,-4.05e-4 -0.01229,-7.02e-4 -0.02459,-0.0014 -0.03695,-0.0022 -0.07531,-7.01e-4 -0.151347,0.01345 -0.223358,0.04377 l -0.228363,0.09599 c -0.151648,0.06374 -0.267962,0.189939 -0.319151,0.346253 -0.05118,0.156349 -0.03201,0.326908 0.05263,0.46801 l 0.967258,1.612207 c -0.288517,0.154101 -0.626309,0.237403 -0.972632,0.237403 -0.827164,0 -1.559879,-0.479503 -1.74226,-1.1401 -0.02821,-0.102215 -0.119002,-0.174593 -0.224875,-0.179363 -1.377802,-0.06212 -2.457073,-1.19122 -2.457073,-2.5705 0,-1.037489 0.617542,-1.968875 1.573246,-2.372802 0.06282,-0.02655 0.111715,-0.0781 0.134888,-0.142244 0.02318,-0.06415 0.01854,-0.13505 -0.01279,-0.195612 -0.167871,-0.324526 -0.252983,-0.674778 -0.252983,-1.041019 0,-1.251646 1.018312,-2.269952 2.269957,-2.269952 0.348876,0 0.683812,0.07724 0.995439,0.229606 0.06526,0.03193 0.14137,0.0332 0.207706,0.0035 0.06627,-0.02977 0.115939,-0.08744 0.135493,-0.157427 0.272664,-0.976292 1.171538,-1.658158 2.185853,-1.658158 1.014314,0 1.913189,0.681866 2.185852,1.658158 0.01959,0.06997 0.06923,0.127704 0.135494,0.157427 0.06631,0.02977 0.142445,0.02857 0.207705,-0.0035 0.311627,-0.152357 0.646563,-0.229606 0.995439,-0.229606 0.836702,0 1.60314,0.4581 2.00018,1.195581 0.06406,0.119002 0.21251,0.163543 0.33151,0.09946 0.119038,-0.06408 0.163539,-0.212511 0.09945,-0.331509 -0.482554,-0.896255 -1.41411,-1.453009 -2.431144,-1.453009 -0.33047,0 -0.650695,0.05708 -0.955369,0.169993 -0.40987,-1.04448 -1.429626,-1.75261 -2.56929,-1.75261 -1.139663,0 -2.159419,0.70813 -2.569122,1.752574 -0.304673,-0.112924 -0.6249,-0.169991 -0.955368,-0.169991 -1.52159,0 -2.759465,1.237877 -2.759465,2.759429 0,0.359966 0.06765,0.70729 0.20146,1.035683 -1.006354,0.525749 -1.643781,1.566088 -1.643781,2.716 0,1.584635 1.196763,2.891799 2.754828,3.047174 0.30632,0.792503 1.167173,1.332253 2.158849,1.332253 0.434759,0 0.860517,-0.107947 1.224507,-0.307053 l 0.121285,0.202131 c 0.165453,0.275816 0.233937,0.602494 0.192794,0.919927 -0.03561,0.274451 -0.07943,0.597627 -0.135025,0.91396 -0.02338,0.133138 0.06559,0.260002 0.198706,0.283373 0.13331,0.02339 0.260001,-0.06563 0.28338,-0.1987 0.05726,-0.3259 0.102071,-0.655869 0.138348,-0.935755 0.05525,-0.426262 -0.03652,-0.864745 -0.258458,-1.234649 l -1.340384,-2.234151 c -0.01585,-0.02641 -0.01137,-0.05141 -0.0072,-0.06394 0.0042,-0.01254 0.01524,-0.03537 0.0436,-0.04727 l 0.228396,-0.09599 c 0.03144,-0.01323 0.06852,-0.0042 0.09005,0.02255 l 1.304379,1.604147 c 0.0035,0.0042 0.0072,0.0081 0.01077,0.01225 0.04847,0.05505 0.10876,0.09468 0.175026,0.116418 0.0704,0.02312 0.147316,0.02612 0.223391,0.0071 8.4e-4,-2.03e-4 0.0017,-3.29e-4 0.0025,-5.74e-4 0,0 0,0 3.4e-5,0 h 3.3e-5 c 0.07393,-0.01919 0.138214,-0.05757 0.188226,-0.109454 0.0019,-0.0022 0.0041,-0.0042 0.006,-0.0063 0.0018,-0.0022 0.0034,-0.0042 0.005,-0.0056 0.04796,-0.05414 0.08122,-0.121416 0.09449,-0.196887 l 0.416454,-2.366218 c 0.0068,-0.03908 0.04279,-0.06639 0.08148,-0.06387 l 0.218623,0.01478 c 0.02912,0.0022 0.04682,0.01856 0.05475,0.0283 0.0079,0.0097 0.02065,0.03033 0.01673,0.05932 l -0.233333,1.728727 c -0.0029,0.02136 -0.0041,0.04266 -0.0035,0.06374 0.0036,0.147419 0.08841,0.282875 0.223928,0.349445 0.0097,0.0049 0.01949,0.0091 0.02939,0.01303 0.04947,0.01961 0.101402,0.02886 0.152824,0.02808 0.10285,-0.0014 0.203775,-0.04244 0.27955,-0.119169 l 0.793408,-0.803282 c 0.01371,-0.01387 0.03154,-0.02136 0.04975,-0.02263 7.7e-4,-7e-5 0.0016,-2.66e-4 0.0024,-3.01e-4 4.06e-4,0 8.4e-4,6.2e-5 0.0012,6.2e-5 0.0139,-3e-4 0.02788,0.0028 0.04035,0.01017 0.0043,0.0028 0.0084,0.0056 0.01223,0.0087 0.02905,0.02528 0.03516,0.0673 0.01457,0.09985 l -1.077392,1.700075 c -0.226281,0.357108 -0.330773,0.786521 -0.294161,1.209128 0.102514,1.183928 0.280155,2.518869 1.052101,3.651083 h -3.61884 c 0.276226,-0.409642 0.490851,-0.87567 0.651333,-1.412128 0.03873,-0.129482 -0.03483,-0.265886 -0.164345,-0.304609 -0.129548,-0.03873 -0.265913,0.03481 -0.304606,0.16434 -0.195749,0.654356 -0.477617,1.190113 -0.86176,1.637772 -0.06223,0.07255 -0.07655,0.174726 -0.03661,0.261585 0.03994,0.08685 0.12676,0.14251 0.22235,0.14251 h 4.607727 c 0.09559,0 0.182448,-0.05568 0.222351,-0.14251 0.03994,-0.08686 0.02563,-0.189035 -0.03661,-0.26155 -0.942437,-1.09852 -1.137044,-2.526497 -1.245498,-3.778718 -0.02738,-0.316424 0.05071,-0.637827 0.219966,-0.904883 l 0.0068,-0.01089 c 0.387703,0.242971 0.854706,0.374771 1.341626,0.374771 0.991677,0 1.85253,-0.539755 2.158849,-1.332287 1.558067,-0.155382 2.75483,-1.462546 2.75483,-3.047145 6.7e-5,-1.149941 -0.637395,-2.190288 -1.643716,-2.716036 z"
       id="path3480" />
    <g
       id="g3482"
       transform="matrix(0.26458333,0,0,0.26458333,-17.945647,-7.7545639)">
</g>
    <g
       id="g3484"
       transform="matrix(0.26458333,0,0,0.26458333,-17.945647,-7.7545639)">
</g>
    <g
       id="g3486"
       transform="matrix(0.26458333,0,0,0.26458333,-17.945647,-7.7545639)">
</g>
    <g
       id="g3488"
       transform="matrix(0.26458333,0,0,0.26458333,-17.945647,-7.7545639)">
</g>
    <g
       id="g3490"
       transform="matrix(0.26458333,0,0,0.26458333,-17.945647,-7.7545639)">
</g>
    <g
       id="g3492"
       transform="matrix(0.26458333,0,0,0.26458333,-17.945647,-7.7545639)">
</g>
    <g
       id="g3494"
       transform="matrix(0.26458333,0,0,0.26458333,-17.945647,-7.7545639)">
</g>
    <g
       id="g3496"
       transform="matrix(0.26458333,0,0,0.26458333,-17.945647,-7.7545639)">
</g>
    <g
       id="g3498"
       transform="matrix(0.26458333,0,0,0.26458333,-17.945647,-7.7545639)">
</g>
    <g
       id="g3500"
       transform="matrix(0.26458333,0,0,0.26458333,-17.945647,-7.7545639)">
</g>
    <g
       id="g3502"
       transform="matrix(0.26458333,0,0,0.26458333,-17.945647,-7.7545639)">
</g>
    <g
       id="g3504"
       transform="matrix(0.26458333,0,0,0.26458333,-17.945647,-7.7545639)">
</g>
    <g
       id="g3506"
       transform="matrix(0.26458333,0,0,0.26458333,-17.945647,-7.7545639)">
</g>
    <g
       id="g3508"
       transform="matrix(0.26458333,0,0,0.26458333,-17.945647,-7.7545639)">
</g>
    <g
       id="g3510"
       transform="matrix(0.26458333,0,0,0.26458333,-17.945647,-7.7545639)">
</g>
  </g>
</svg>
