<?xml version="1.0" encoding="UTF-8" standalone="no"?>
<svg
   xmlns:dc="http://purl.org/dc/elements/1.1/"
   xmlns:cc="http://creativecommons.org/ns#"
   xmlns:rdf="http://www.w3.org/1999/02/22-rdf-syntax-ns#"
   xmlns:svg="http://www.w3.org/2000/svg"
   xmlns="http://www.w3.org/2000/svg"
   xmlns:sodipodi="http://sodipodi.sourceforge.net/DTD/sodipodi-0.dtd"
   xmlns:inkscape="http://www.inkscape.org/namespaces/inkscape"
   width="2.25in"
   height="2.25in"
   viewBox="0 0 57.150001 57.150002"
   version="1.1"
   id="svg8"
   inkscape:version="1.0.2 (394de47547, 2021-03-26)"
   sodipodi:docname="back.svg">
  <defs
     id="defs2" />
  <sodipodi:namedview
     id="base"
     pagecolor="#ffffff"
     bordercolor="#666666"
     borderopacity="1.0"
     inkscape:pageopacity="0.0"
     inkscape:pageshadow="2"
     inkscape:zoom="3.3309278"
     inkscape:cx="132"
     inkscape:cy="132"
     inkscape:document-units="mm"
     inkscape:current-layer="layer1"
     inkscape:document-rotation="0"
     showgrid="false"
     units="in"
     inkscape:window-width="3768"
     inkscape:window-height="2096"
     inkscape:window-x="72"
     inkscape:window-y="27"
     inkscape:window-maximized="1" />
  <metadata
     id="metadata5">
    <rdf:RDF>
      <cc:Work
         rdf:about="">
        <dc:format>image/svg+xml</dc:format>
        <dc:type
           rdf:resource="http://purl.org/dc/dcmitype/StillImage" />
        <dc:title></dc:title>
      </cc:Work>
    </rdf:RDF>
  </metadata>
  <g
     inkscape:label="Layer 1"
     inkscape:groupmode="layer"
     id="layer1">
    <g
       id="g966"
       transform="matrix(0.84374862,0,0,0.84374862,-0.17379477,-0.58380933)">
      <path
         id="path1474"
         style="fill:none;stroke:#a2a2a2;stroke-width:0.1;stroke-opacity:1"
         d="M 6.5522266,-0.29958136 1.4677825,-0.27684436 -1.054544,4.1378731 1.5070567,8.5298514 6.5915008,8.5071144 9.1143436,4.0923979 Z"
         inkscape:tile-cx="2.4423997"
         inkscape:tile-cy="4.6443018"
         inkscape:tile-w="10.284356"
         inkscape:tile-h="8.9296901"
         inkscape:tile-x0="-2.6997768"
         inkscape:tile-y0="0.17945672" />
      <path
         id="use3774"
         style="fill:none;stroke:#a2a2a2;stroke-width:0.1;stroke-opacity:1"
         d="m 21.978762,-0.29958136 -5.084445,0.022737 -2.522326,4.41471746 2.561601,4.3919783 5.084444,-0.022737 2.522843,-4.4147165 z"
         inkscape:tile-x0="-2.6997768"
         inkscape:tile-y0="0.17945672" />
      <path
         id="use3776"
         style="fill:none;stroke:#a2a2a2;stroke-width:0.1;stroke-opacity:1"
         d="M 14.265494,4.1652637 9.1810496,4.1880007 6.658723,8.6027182 9.2203238,12.994696 14.304769,12.971959 16.827612,8.557243 Z"
         inkscape:tile-x0="-2.6997768"
         inkscape:tile-y0="0.17945672" />
      <path
         id="use3778"
         style="fill:none;stroke:#a2a2a2;stroke-width:0.1;stroke-opacity:1"
         d="m 6.5522266,8.6301087 -5.0844441,0.022737 -2.5223265,4.4147173 2.5616007,4.391978 5.0844441,-0.02274 2.5228428,-4.414716 z"
         inkscape:tile-x0="-2.6997768"
         inkscape:tile-y0="0.17945672" />
      <path
         id="use3806"
         style="fill:none;stroke:#a2a2a2;stroke-width:0.1;stroke-opacity:1"
         d="m 37.405295,-0.29958136 -5.084444,0.022737 -2.522326,4.41471746 2.561601,4.3919783 5.084444,-0.022737 2.522842,-4.4147165 z"
         inkscape:tile-x0="-2.6997768"
         inkscape:tile-y0="0.17945672" />
      <path
         id="use3808"
         style="fill:none;stroke:#a2a2a2;stroke-width:0.1;stroke-opacity:1"
         d="m 29.692028,4.1652637 -5.084444,0.022737 -2.522326,4.4147175 2.561601,4.3919778 5.084444,-0.02274 2.522842,-4.414716 z"
         inkscape:tile-x0="-2.6997768"
         inkscape:tile-y0="0.17945672" />
      <path
         id="use3810"
         style="fill:none;stroke:#a2a2a2;stroke-width:0.1;stroke-opacity:1"
         d="m 21.978762,8.6301087 -5.084445,0.022737 -2.522326,4.4147173 2.561601,4.391978 5.084444,-0.02274 2.522843,-4.414716 z"
         inkscape:tile-x0="-2.6997768"
         inkscape:tile-y0="0.17945672" />
      <path
         id="use3812"
         style="fill:none;stroke:#a2a2a2;stroke-width:0.1;stroke-opacity:1"
         d="m 14.265494,13.094953 -5.0844444,0.02274 -2.5223266,4.414718 2.5616008,4.391978 5.0844452,-0.02274 2.522843,-4.414716 z"
         inkscape:tile-x0="-2.6997768"
         inkscape:tile-y0="0.17945672" />
      <path
         id="use3814"
         style="fill:none;stroke:#a2a2a2;stroke-width:0.1;stroke-opacity:1"
         d="m 6.5522266,17.559798 -5.0844441,0.02274 -2.5223265,4.414718 2.5616007,4.391978 5.0844441,-0.02274 2.5228428,-4.414716 z"
         inkscape:tile-x0="-2.6997768"
         inkscape:tile-y0="0.17945672" />
      <path
         id="use3838"
         style="fill:none;stroke:#a2a2a2;stroke-width:0.1;stroke-opacity:1"
         d="m 52.831829,-0.29958136 -5.084444,0.022737 -2.522326,4.41471746 2.561601,4.3919783 5.084444,-0.022737 2.522842,-4.4147165 z"
         inkscape:tile-x0="-2.6997768"
         inkscape:tile-y0="0.17945672" />
      <path
         id="use3840"
         style="fill:none;stroke:#a2a2a2;stroke-width:0.1;stroke-opacity:1"
         d="m 45.118562,4.1652637 -5.084444,0.022737 -2.522326,4.4147175 2.561601,4.3919778 5.084444,-0.02274 2.522842,-4.414716 z"
         inkscape:tile-x0="-2.6997768"
         inkscape:tile-y0="0.17945672" />
      <path
         id="use3842"
         style="fill:none;stroke:#a2a2a2;stroke-width:0.1;stroke-opacity:1"
         d="m 37.405295,8.6301087 -5.084444,0.022737 -2.522326,4.4147173 2.561601,4.391978 5.084444,-0.02274 2.522842,-4.414716 z"
         inkscape:tile-x0="-2.6997768"
         inkscape:tile-y0="0.17945672" />
      <path
         id="use3844"
         style="fill:#a3a3a3;fill-opacity:1;stroke:#fefefe;stroke-width:0.1;stroke-opacity:1"
         d="m 29.692028,13.094953 -5.084444,0.02274 -2.522326,4.414718 2.561601,4.391978 5.084444,-0.02274 2.522842,-4.414716 z"
         inkscape:tile-x0="-2.6997768"
         inkscape:tile-y0="0.17945672" />
      <path
         id="use3846"
         style="fill:#a3a3a3;fill-opacity:1;stroke:#fefefe;stroke-width:0.1;stroke-opacity:1"
         d="m 21.978762,17.559798 -5.084445,0.02274 -2.522326,4.414718 2.561601,4.391978 5.084444,-0.02274 2.522843,-4.414716 z"
         inkscape:tile-x0="-2.6997768"
         inkscape:tile-y0="0.17945672" />
      <path
         id="use3848"
         style="fill:none;stroke:#a2a2a2;stroke-width:0.1;stroke-opacity:1"
         d="m 14.265494,22.024643 -5.0844444,0.02274 -2.5223266,4.414718 2.5616008,4.391978 5.0844452,-0.02274 2.522843,-4.414716 z"
         inkscape:tile-x0="-2.6997768"
         inkscape:tile-y0="0.17945672" />
      <path
         id="use3850"
         style="fill:none;stroke:#a2a2a2;stroke-width:0.1;stroke-opacity:1"
         d="m 6.5522266,26.489488 -5.0844441,0.02274 -2.5223265,4.414718 2.5616007,4.391978 5.0844441,-0.02274 2.5228428,-4.414716 z"
         inkscape:tile-x0="-2.6997768"
         inkscape:tile-y0="0.17945672" />
      <path
         id="use3870"
         style="fill:none;stroke:#a2a2a2;stroke-width:0.1;stroke-opacity:1"
         d="m 68.258363,-0.29958136 -5.084444,0.022737 -2.522326,4.41471746 2.561601,4.3919783 5.084444,-0.022737 2.522842,-4.4147165 z"
         inkscape:tile-x0="-2.6997768"
         inkscape:tile-y0="0.17945672" />
      <path
         id="use3872"
         style="fill:none;stroke:#a2a2a2;stroke-width:0.1;stroke-opacity:1"
         d="m 60.545096,4.1652637 -5.084444,0.022737 -2.522326,4.4147175 2.561601,4.3919778 5.084444,-0.02274 2.522842,-4.414716 z"
         inkscape:tile-x0="-2.6997768"
         inkscape:tile-y0="0.17945672" />
      <path
         id="use3874"
         style="fill:none;stroke:#a2a2a2;stroke-width:0.1;stroke-opacity:1"
         d="m 52.831829,8.6301087 -5.084444,0.022737 -2.522326,4.4147173 2.561601,4.391978 5.084444,-0.02274 2.522842,-4.414716 z"
         inkscape:tile-x0="-2.6997768"
         inkscape:tile-y0="0.17945672" />
      <path
         id="use3876"
         style="fill:#a3a3a3;fill-opacity:1;stroke:#ffffff;stroke-width:0.1;stroke-opacity:1"
         d="m 45.118562,13.094953 -5.084444,0.02274 -2.522326,4.414718 2.561601,4.391978 5.084444,-0.02274 2.522842,-4.414716 z"
         inkscape:tile-x0="-2.6997768"
         inkscape:tile-y0="0.17945672" />
      <path
         id="use3878"
         style="fill:none;stroke:#a2a2a2;stroke-width:0.1;stroke-opacity:1"
         d="m 37.405295,17.559798 -5.084444,0.02274 -2.522326,4.414718 2.561601,4.391978 5.084444,-0.02274 2.522842,-4.414716 z"
         inkscape:tile-x0="-2.6997768"
         inkscape:tile-y0="0.17945672" />
      <path
         id="use3880"
         style="fill:#a3a3a3;fill-opacity:1;stroke:#ffffff;stroke-width:0.1;stroke-opacity:1"
         d="m 29.692028,22.024643 -5.084444,0.02274 -2.522326,4.414718 2.561601,4.391978 5.084444,-0.02274 2.522842,-4.414716 z"
         inkscape:tile-x0="-2.6997768"
         inkscape:tile-y0="0.17945672" />
      <path
         id="use3882"
         style="fill:none;stroke:#a2a2a2;stroke-width:0.1;stroke-opacity:1"
         d="m 21.978762,26.489488 -5.084445,0.02274 -2.522326,4.414718 2.561601,4.391978 5.084444,-0.02274 2.522843,-4.414716 z"
         inkscape:tile-x0="-2.6997768"
         inkscape:tile-y0="0.17945672" />
      <path
         id="use3884"
         style="fill:none;stroke:#a2a2a2;stroke-width:0.1;stroke-opacity:1"
         d="m 14.265494,30.954333 -5.0844444,0.02274 -2.5223266,4.414718 2.5616008,4.391978 5.0844452,-0.02274 2.522843,-4.414716 z"
         inkscape:tile-x0="-2.6997768"
         inkscape:tile-y0="0.17945672" />
      <path
         id="use3886"
         style="fill:none;stroke:#a2a2a2;stroke-width:0.1;stroke-opacity:1"
         d="m 6.5522266,35.419178 -5.0844441,0.02274 -2.5223265,4.414718 2.5616007,4.391978 5.0844441,-0.02274 2.5228428,-4.414716 z"
         inkscape:tile-x0="-2.6997768"
         inkscape:tile-y0="0.17945672" />
      <path
         id="use3906"
         style="fill:none;stroke:#a2a2a2;stroke-width:0.1;stroke-opacity:1"
         d="m 68.258363,8.6301087 -5.084444,0.022737 -2.522326,4.4147173 2.561601,4.391978 5.084444,-0.02274 2.522842,-4.414716 z"
         inkscape:tile-x0="-2.6997768"
         inkscape:tile-y0="0.17945672" />
      <path
         id="use3908"
         style="fill:none;stroke:#a2a2a2;stroke-width:0.1;stroke-opacity:1"
         d="m 60.545096,13.094953 -5.084444,0.02274 -2.522326,4.414718 2.561601,4.391978 5.084444,-0.02274 2.522842,-4.414716 z"
         inkscape:tile-x0="-2.6997768"
         inkscape:tile-y0="0.17945672" />
      <path
         id="use3910"
         style="fill:none;stroke:#a2a2a2;stroke-width:0.1;stroke-opacity:1"
         d="m 52.831829,17.559798 -5.084444,0.02274 -2.522326,4.414718 2.561601,4.391978 5.084444,-0.02274 2.522842,-4.414716 z"
         inkscape:tile-x0="-2.6997768"
         inkscape:tile-y0="0.17945672" />
      <path
         id="use3912"
         style="fill:none;stroke:#a2a2a2;stroke-width:0.1;stroke-opacity:1"
         d="m 45.118562,22.024643 -5.084444,0.02274 -2.522326,4.414718 2.561601,4.391978 5.084444,-0.02274 2.522842,-4.414716 z"
         inkscape:tile-x0="-2.6997768"
         inkscape:tile-y0="0.17945672" />
      <path
         id="use3914"
         style="fill:none;stroke:#a2a2a2;stroke-width:0.1;stroke-opacity:1"
         d="m 37.405295,26.489488 -5.084444,0.02274 -2.522326,4.414718 2.561601,4.391978 5.084444,-0.02274 2.522842,-4.414716 z"
         inkscape:tile-x0="-2.6997768"
         inkscape:tile-y0="0.17945672" />
      <path
         id="use3916"
         style="fill:none;stroke:#a2a2a2;stroke-width:0.1;stroke-opacity:1"
         d="m 29.692028,30.954333 -5.084444,0.02274 -2.522326,4.414718 2.561601,4.391978 5.084444,-0.02274 2.522842,-4.414716 z"
         inkscape:tile-x0="-2.6997768"
         inkscape:tile-y0="0.17945672" />
      <path
         id="use3918"
         style="fill:#a3a3a3;fill-opacity:1;stroke:#ffffff;stroke-width:0.1;stroke-opacity:1"
         d="m 21.978762,35.419178 -5.084445,0.02274 -2.522326,4.414718 2.561601,4.391978 5.084444,-0.02274 2.522843,-4.414716 z"
         inkscape:tile-x0="-2.6997768"
         inkscape:tile-y0="0.17945672" />
      <path
         id="use3920"
         style="fill:none;stroke:#a2a2a2;stroke-width:0.1;stroke-opacity:1"
         d="m 14.265494,39.884023 -5.0844444,0.02274 -2.5223266,4.414718 2.5616008,4.391978 5.0844452,-0.02274 2.522843,-4.414716 z"
         inkscape:tile-x0="-2.6997768"
         inkscape:tile-y0="0.17945672" />
      <path
         id="use3922"
         style="fill:none;stroke:#a2a2a2;stroke-width:0.1;stroke-opacity:1"
         d="m 6.5522266,44.348869 -5.0844441,0.02274 -2.5223265,4.414718 2.5616007,4.391978 5.0844441,-0.02274 2.5228428,-4.414716 z"
         inkscape:tile-x0="-2.6997768"
         inkscape:tile-y0="0.17945672" />
      <path
         id="use3942"
         style="fill:none;stroke:#a2a2a2;stroke-width:0.1;stroke-opacity:1"
         d="m 68.258363,17.559798 -5.084444,0.02274 -2.522326,4.414718 2.561601,4.391978 5.084444,-0.02274 2.522842,-4.414716 z"
         inkscape:tile-x0="-2.6997768"
         inkscape:tile-y0="0.17945672" />
      <path
         id="use3944"
         style="fill:none;stroke:#a2a2a2;stroke-width:0.1;stroke-opacity:1"
         d="m 60.545096,22.024643 -5.084444,0.02274 -2.522326,4.414718 2.561601,4.391978 5.084444,-0.02274 2.522842,-4.414716 z"
         inkscape:tile-x0="-2.6997768"
         inkscape:tile-y0="0.17945672" />
      <path
         id="use3946"
         style="fill:#a3a3a3;fill-opacity:1;stroke:#ffffff;stroke-width:0.1;stroke-opacity:1"
         d="m 52.831829,26.489488 -5.084444,0.02274 -2.522326,4.414718 2.561601,4.391978 5.084444,-0.02274 2.522842,-4.414716 z"
         inkscape:tile-x0="-2.6997768"
         inkscape:tile-y0="0.17945672" />
      <path
         id="use3948"
         style="fill:#a3a3a3;fill-opacity:1;stroke:#ffffff;stroke-width:0.1;stroke-opacity:1"
         d="m 45.118562,30.954333 -5.084444,0.02274 -2.522326,4.414718 2.561601,4.391978 5.084444,-0.02274 2.522842,-4.414716 z"
         inkscape:tile-x0="-2.6997768"
         inkscape:tile-y0="0.17945672" />
      <path
         id="use3950"
         style="fill:none;stroke:#a2a2a2;stroke-width:0.1;stroke-opacity:1"
         d="m 37.405295,35.419178 -5.084444,0.02274 -2.522326,4.414718 2.561601,4.391978 5.084444,-0.02274 2.522842,-4.414716 z"
         inkscape:tile-x0="-2.6997768"
         inkscape:tile-y0="0.17945672" />
      <path
         id="use3952"
         style="fill:none;stroke:#a2a2a2;stroke-width:0.1;stroke-opacity:1"
         d="m 29.692028,39.884023 -5.084444,0.02274 -2.522326,4.414718 2.561601,4.391978 5.084444,-0.02274 2.522842,-4.414716 z"
         inkscape:tile-x0="-2.6997768"
         inkscape:tile-y0="0.17945672" />
      <path
         id="use3954"
         style="fill:#a3a3a3;fill-opacity:1;stroke:#ffffff;stroke-width:0.1;stroke-opacity:1"
         d="m 21.978762,44.348869 -5.084445,0.02274 -2.522326,4.414718 2.561601,4.391978 5.084444,-0.02274 2.522843,-4.414716 z"
         inkscape:tile-x0="-2.6997768"
         inkscape:tile-y0="0.17945672" />
      <path
         id="use3956"
         style="fill:none;stroke:#a2a2a2;stroke-width:0.1;stroke-opacity:1"
         d="m 14.265494,48.813714 -5.0844444,0.02274 -2.5223266,4.414718 2.5616008,4.391978 5.0844452,-0.02274 2.522843,-4.414716 z"
         inkscape:tile-x0="-2.6997768"
         inkscape:tile-y0="0.17945672" />
      <path
         id="use3958"
         style="fill:none;stroke:#a2a2a2;stroke-width:0.1;stroke-opacity:1"
         d="m 6.5522266,53.278559 -5.0844441,0.02274 -2.5223265,4.414718 2.5616007,4.391978 5.0844441,-0.02274 2.5228428,-4.414716 z"
         inkscape:tile-x0="-2.6997768"
         inkscape:tile-y0="0.17945672" />
      <path
         id="use3978"
         style="fill:none;stroke:#a2a2a2;stroke-width:0.1;stroke-opacity:1"
         d="m 68.258363,26.489488 -5.084444,0.02274 -2.522326,4.414718 2.561601,4.391978 5.084444,-0.02274 2.522842,-4.414716 z"
         inkscape:tile-x0="-2.6997768"
         inkscape:tile-y0="0.17945672" />
      <path
         id="use3980"
         style="fill:none;stroke:#a2a2a2;stroke-width:0.1;stroke-opacity:1"
         d="m 60.545096,30.954333 -5.084444,0.02274 -2.522326,4.414718 2.561601,4.391978 5.084444,-0.02274 2.522842,-4.414716 z"
         inkscape:tile-x0="-2.6997768"
         inkscape:tile-y0="0.17945672" />
      <path
         id="use3982"
         style="fill:none;stroke:#a2a2a2;stroke-width:0.1;stroke-opacity:1"
         d="m 52.831829,35.419178 -5.084444,0.02274 -2.522326,4.414718 2.561601,4.391978 5.084444,-0.02274 2.522842,-4.414716 z"
         inkscape:tile-x0="-2.6997768"
         inkscape:tile-y0="0.17945672" />
      <path
         id="use3984"
         style="fill:none;stroke:#a2a2a2;stroke-width:0.1;stroke-opacity:1"
         d="m 45.118562,39.884023 -5.084444,0.02274 -2.522326,4.414718 2.561601,4.391978 5.084444,-0.02274 2.522842,-4.414716 z"
         inkscape:tile-x0="-2.6997768"
         inkscape:tile-y0="0.17945672" />
      <path
         id="use3986"
         style="fill:#a3a3a3;fill-opacity:1;stroke:#ffffff;stroke-width:0.1;stroke-opacity:1"
         d="m 37.405295,44.348869 -5.084444,0.02274 -2.522326,4.414718 2.561601,4.391978 5.084444,-0.02274 2.522842,-4.414716 z"
         inkscape:tile-x0="-2.6997768"
         inkscape:tile-y0="0.17945672" />
      <path
         id="use3988"
         style="fill:#a3a3a3;fill-opacity:1;stroke:#ffffff;stroke-width:0.1;stroke-opacity:1"
         d="m 29.692028,48.813714 -5.084444,0.02274 -2.522326,4.414718 2.561601,4.391978 5.084444,-0.02274 2.522842,-4.414716 z"
         inkscape:tile-x0="-2.6997768"
         inkscape:tile-y0="0.17945672" />
      <path
         id="use3990"
         style="fill:none;stroke:#a2a2a2;stroke-width:0.1;stroke-opacity:1"
         d="m 21.978762,53.278559 -5.084445,0.02274 -2.522326,4.414718 2.561601,4.391978 5.084444,-0.02274 2.522843,-4.414716 z"
         inkscape:tile-x0="-2.6997768"
         inkscape:tile-y0="0.17945672" />
      <path
         id="use3992"
         style="fill:none;stroke:#a2a2a2;stroke-width:0.1;stroke-opacity:1"
         d="M 14.265494,57.743404 9.1810496,57.766144 6.658723,62.180862 9.2203238,66.57284 14.304769,66.5501 16.827612,62.135384 Z"
         inkscape:tile-x0="-2.6997768"
         inkscape:tile-y0="0.17945672" />
      <path
         id="use3994"
         style="fill:none;stroke:#a2a2a2;stroke-width:0.1;stroke-opacity:1"
         d="m 6.5522266,62.208249 -5.0844441,0.02274 -2.5223265,4.414718 2.5616007,4.391978 5.0844441,-0.02274 2.5228428,-4.414716 z"
         inkscape:tile-x0="-2.6997768"
         inkscape:tile-y0="0.17945672" />
      <path
         id="use4014"
         style="fill:none;stroke:#a2a2a2;stroke-width:0.1;stroke-opacity:1"
         d="m 68.258363,35.419178 -5.084444,0.02274 -2.522326,4.414718 2.561601,4.391978 5.084444,-0.02274 2.522842,-4.414716 z"
         inkscape:tile-x0="-2.6997768"
         inkscape:tile-y0="0.17945672" />
      <path
         id="use4016"
         style="fill:none;stroke:#a2a2a2;stroke-width:0.1;stroke-opacity:1"
         d="m 60.545096,39.884023 -5.084444,0.02274 -2.522326,4.414718 2.561601,4.391978 5.084444,-0.02274 2.522842,-4.414716 z"
         inkscape:tile-x0="-2.6997768"
         inkscape:tile-y0="0.17945672" />
      <path
         id="use4018"
         style="fill:#a3a3a3;fill-opacity:1;stroke:#ffffff;stroke-width:0.1;stroke-opacity:1"
         d="m 52.831829,44.348869 -5.084444,0.02274 -2.522326,4.414718 2.561601,4.391978 5.084444,-0.02274 2.522842,-4.414716 z"
         inkscape:tile-x0="-2.6997768"
         inkscape:tile-y0="0.17945672" />
      <path
         id="use4020"
         style="fill:none;stroke:#a2a2a2;stroke-width:0.1;stroke-opacity:1"
         d="m 45.118562,48.813714 -5.084444,0.02274 -2.522326,4.414718 2.561601,4.391978 5.084444,-0.02274 2.522842,-4.414716 z"
         inkscape:tile-x0="-2.6997768"
         inkscape:tile-y0="0.17945672" />
      <path
         id="use4022"
         style="fill:none;stroke:#a2a2a2;stroke-width:0.1;stroke-opacity:1"
         d="m 37.405295,53.278559 -5.084444,0.02274 -2.522326,4.414718 2.561601,4.391978 5.084444,-0.02274 2.522842,-4.414716 z"
         inkscape:tile-x0="-2.6997768"
         inkscape:tile-y0="0.17945672" />
      <path
         id="use4024"
         style="fill:none;stroke:#a2a2a2;stroke-width:0.1;stroke-opacity:1"
         d="m 29.692028,57.743404 -5.084444,0.02274 -2.522326,4.414718 2.561601,4.391978 5.084444,-0.02274 2.522842,-4.414716 z"
         inkscape:tile-x0="-2.6997768"
         inkscape:tile-y0="0.17945672" />
      <path
         id="use4026"
         style="fill:none;stroke:#a2a2a2;stroke-width:0.1;stroke-opacity:1"
         d="m 21.978762,62.208249 -5.084445,0.02274 -2.522326,4.414718 2.561601,4.391978 5.084444,-0.02274 2.522843,-4.414716 z"
         inkscape:tile-x0="-2.6997768"
         inkscape:tile-y0="0.17945672" />
      <path
         id="use4050"
         style="fill:none;stroke:#a2a2a2;stroke-width:0.1;stroke-opacity:1"
         d="m 68.258363,44.348869 -5.084444,0.02274 -2.522326,4.414718 2.561601,4.391978 5.084444,-0.02274 2.522842,-4.414716 z"
         inkscape:tile-x0="-2.6997768"
         inkscape:tile-y0="0.17945672" />
      <path
         id="use4052"
         style="fill:none;stroke:#a2a2a2;stroke-width:0.1;stroke-opacity:1"
         d="m 60.545096,48.813714 -5.084444,0.02274 -2.522326,4.414718 2.561601,4.391978 5.084444,-0.02274 2.522842,-4.414716 z"
         inkscape:tile-x0="-2.6997768"
         inkscape:tile-y0="0.17945672" />
      <path
         id="use4054"
         style="fill:none;stroke:#a2a2a2;stroke-width:0.1;stroke-opacity:1"
         d="m 52.831829,53.278559 -5.084444,0.02274 -2.522326,4.414718 2.561601,4.391978 5.084444,-0.02274 2.522842,-4.414716 z"
         inkscape:tile-x0="-2.6997768"
         inkscape:tile-y0="0.17945672" />
      <path
         id="use4056"
         style="fill:none;stroke:#a2a2a2;stroke-width:0.1;stroke-opacity:1"
         d="m 45.118562,57.743404 -5.084444,0.02274 -2.522326,4.414718 2.561601,4.391978 5.084444,-0.02274 2.522842,-4.414716 z"
         inkscape:tile-x0="-2.6997768"
         inkscape:tile-y0="0.17945672" />
      <path
         id="use4058"
         style="fill:none;stroke:#a2a2a2;stroke-width:0.1;stroke-opacity:1"
         d="m 37.405295,62.208249 -5.084444,0.02274 -2.522326,4.414718 2.561601,4.391978 5.084444,-0.02274 2.522842,-4.414716 z"
         inkscape:tile-x0="-2.6997768"
         inkscape:tile-y0="0.17945672" />
      <path
         id="use4086"
         style="fill:none;stroke:#a2a2a2;stroke-width:0.1;stroke-opacity:1"
         d="m 68.258363,53.278559 -5.084444,0.02274 -2.522326,4.414718 2.561601,4.391978 5.084444,-0.02274 2.522842,-4.414716 z"
         inkscape:tile-x0="-2.6997768"
         inkscape:tile-y0="0.17945672" />
      <path
         id="use4088"
         style="fill:none;stroke:#a2a2a2;stroke-width:0.1;stroke-opacity:1"
         d="m 60.545096,57.743404 -5.084444,0.02274 -2.522326,4.414718 2.561601,4.391978 5.084444,-0.02274 2.522842,-4.414716 z"
         inkscape:tile-x0="-2.6997768"
         inkscape:tile-y0="0.17945672" />
      <path
         id="use4090"
         style="fill:none;stroke:#a2a2a2;stroke-width:0.1;stroke-opacity:1"
         d="m 52.831829,62.208249 -5.084444,0.02274 -2.522326,4.414718 2.561601,4.391978 5.084444,-0.02274 2.522842,-4.414716 z"
         inkscape:tile-x0="-2.6997768"
         inkscape:tile-y0="0.17945672" />
      <path
         id="use4122"
         style="fill:none;stroke:#a2a2a2;stroke-width:0.1;stroke-opacity:1"
         d="m 68.258363,62.208249 -5.084444,0.02274 -2.522326,4.414718 2.561601,4.391978 5.084444,-0.02274 2.522842,-4.414716 z"
         inkscape:tile-x0="-2.6997768"
         inkscape:tile-y0="0.17945672" />
    </g>
  </g>
</svg>
