<?xml version="1.0" encoding="UTF-8" standalone="no"?>
<svg
   xmlns:dc="http://purl.org/dc/elements/1.1/"
   xmlns:cc="http://creativecommons.org/ns#"
   xmlns:rdf="http://www.w3.org/1999/02/22-rdf-syntax-ns#"
   xmlns:svg="http://www.w3.org/2000/svg"
   xmlns="http://www.w3.org/2000/svg"
   xmlns:sodipodi="http://sodipodi.sourceforge.net/DTD/sodipodi-0.dtd"
   xmlns:inkscape="http://www.inkscape.org/namespaces/inkscape"
   width="2.25in"
   height="2.25in"
   viewBox="0 0 57.150001 57.150002"
   version="1.1"
   id="svg8"
   inkscape:version="1.0.2 (394de47547, 2021-03-26)"
   sodipodi:docname="knight.svg">
  <defs
     id="defs2" />
  <sodipodi:namedview
     id="base"
     pagecolor="#ffffff"
     bordercolor="#666666"
     borderopacity="1.0"
     inkscape:pageopacity="0.0"
     inkscape:pageshadow="2"
     inkscape:zoom="3.5681818"
     inkscape:cx="132"
     inkscape:cy="132"
     inkscape:document-units="mm"
     inkscape:current-layer="layer1"
     inkscape:document-rotation="0"
     showgrid="false"
     units="in"
     inkscape:window-width="3768"
     inkscape:window-height="2096"
     inkscape:window-x="72"
     inkscape:window-y="27"
     inkscape:window-maximized="1" />
  <metadata
     id="metadata5">
    <rdf:RDF>
      <cc:Work
         rdf:about="">
        <dc:format>image/svg+xml</dc:format>
        <dc:type
           rdf:resource="http://purl.org/dc/dcmitype/StillImage" />
        <dc:title></dc:title>
      </cc:Work>
    </rdf:RDF>
  </metadata>
  <g
     inkscape:label="Layer 1"
     inkscape:groupmode="layer"
     id="layer1">
    <text
       xml:space="preserve"
       style="font-style:normal;font-variant:normal;font-weight:600;font-stretch:normal;font-size:3.38667px;line-height:0%;font-family:FreeSans;-inkscape-font-specification:'FreeSans Semi-Bold';letter-spacing:0px;word-spacing:0px;display:inline;fill:#1a1a1a;fill-opacity:1;stroke:none;stroke-width:0.282222px;stroke-linecap:butt;stroke-linejoin:miter;stroke-opacity:1"
       x="28.362871"
       y="14.188681"
       id="text5366"><tspan
         sodipodi:role="line"
         x="28.362871"
         y="14.188681"
         style="font-style:normal;font-variant:normal;font-weight:600;font-stretch:normal;font-size:8.46667px;line-height:1.25;font-family:FreeSans;-inkscape-font-specification:'FreeSans Semi-Bold';text-align:center;text-anchor:middle;fill:#1a1a1a;fill-opacity:1;stroke-width:0.282222px"
         id="tspan7687">Knight</tspan></text>
    <text
       xml:space="preserve"
       style="font-style:normal;font-variant:normal;font-weight:600;font-stretch:normal;font-size:3.38667px;line-height:0%;font-family:FreeSans;-inkscape-font-specification:'FreeSans Semi-Bold';letter-spacing:0px;word-spacing:0px;display:inline;fill:#1a1a1a;fill-opacity:1;stroke:none;stroke-width:0.282222px;stroke-linecap:butt;stroke-linejoin:miter;stroke-opacity:1"
       x="29.632887"
       y="44.724895"
       id="text5366-3"
       transform="scale(0.96382021,1.0375379)"><tspan
         sodipodi:role="line"
         x="29.632887"
         y="44.724895"
         style="font-style:normal;font-variant:normal;font-weight:600;font-stretch:normal;font-size:2.04009px;line-height:1.25;font-family:FreeSans;-inkscape-font-specification:'FreeSans Semi-Bold';text-align:center;text-anchor:middle;fill:#1a1a1a;fill-opacity:1;stroke-width:0.282222px"
         id="tspan7633">Move the robber.  Steal 1 resource card from</tspan><tspan
         sodipodi:role="line"
         x="29.632887"
         y="47.275009"
         style="font-style:normal;font-variant:normal;font-weight:600;font-stretch:normal;font-size:2.04009px;line-height:1.25;font-family:FreeSans;-inkscape-font-specification:'FreeSans Semi-Bold';text-align:center;text-anchor:middle;fill:#1a1a1a;fill-opacity:1;stroke-width:0.282222px"
         id="tspan7728">the owner of an adjacent settlement of city</tspan></text>
    <path
       style="fill:#666666;stroke-width:0.182972"
       d="m 37.755114,39.058095 c -0.205666,-0.03829 -0.431032,-0.07033 -0.500816,-0.07123 -0.101586,-0.0013 -0.153772,-0.03317 -0.261757,-0.159873 -0.315589,-0.370265 -0.507137,-0.562001 -0.679145,-0.679844 -0.204997,-0.140422 -0.278168,-0.291662 -0.249357,-0.515415 0.02773,-0.21534 -0.03797,-0.720174 -0.139168,-1.06943 -0.112893,-0.389627 -0.09244,-0.419828 0.272922,-0.403 l 0.23788,0.01103 0.104887,0.291088 c 0.145775,0.404558 0.298114,0.696427 0.627086,1.201403 0.319858,0.491004 0.611563,0.801777 0.919891,0.980036 0.216708,0.125281 0.396756,0.320874 0.396756,0.431017 0,0.0827 -0.226688,0.0778 -0.729179,-0.01572 z m 0.972238,-0.130152 c -0.145257,-0.07909 -0.267529,-0.196033 -0.355728,-0.340234 -0.03883,-0.06349 -0.142951,-0.155912 -0.231374,-0.205382 -0.255361,-0.142863 -0.336317,-0.217925 -0.524475,-0.486344 -0.22866,-0.326185 -0.399826,-0.66029 -0.555028,-1.083375 -0.144326,-0.393431 -0.288324,-0.619001 -0.481545,-0.754295 -0.198879,-0.139268 -0.438637,-0.126881 -1.208931,0.06243 -0.588202,0.144565 -0.687823,0.158485 -1.148866,0.160587 -0.481205,0.0023 -0.514262,-0.0026 -0.706851,-0.102949 -0.192683,-0.10038 -0.932945,-0.662681 -0.936687,-0.711514 -0.0011,-0.01285 0.103385,-0.06153 0.231926,-0.108287 0.741662,-0.269809 1.090919,-0.506534 1.395694,-0.946031 0.11463,-0.165299 0.219955,-0.307748 0.23406,-0.316551 0.01411,-0.0088 0.143862,0.06417 0.28835,0.16217 0.380741,0.258253 0.728181,0.36332 1.194924,0.361334 0.279606,-0.0013 0.443401,-0.02324 0.649296,-0.08741 0.151447,-0.0472 0.29972,-0.07637 0.329495,-0.06483 0.07847,0.03044 0.287103,0.508365 0.482452,1.105216 0.237645,0.726081 0.437603,1.097177 0.860759,1.597479 0.194101,0.22948 0.367732,0.417243 0.385851,0.417243 0.01811,0 0.143736,-0.06801 0.279148,-0.151135 0.135413,-0.08312 0.28865,-0.151146 0.340528,-0.151146 0.06835,0 0.179255,0.08599 0.402658,0.312162 0.379401,0.384094 0.887939,0.962299 0.887939,1.009575 0,0.05165 -0.253622,0.113637 -0.46587,0.113882 -0.173902,0 -0.196496,-0.01155 -0.363749,-0.18871 -0.213569,-0.226259 -0.315794,-0.250994 -0.273339,-0.06613 0.05969,0.259901 0.04681,0.303568 -0.116653,0.395376 -0.209516,0.117675 -0.450801,0.144837 -0.593984,0.06687 z M 20.123665,38.008607 c -0.257346,-0.263289 -0.335329,-0.31063 -0.664924,-0.403635 -0.273668,-0.07722 -0.36982,-0.176324 -0.395588,-0.407725 -0.158689,-1.425089 -0.249075,-1.785774 -0.574087,-2.290866 -0.184144,-0.28617 -0.20361,-0.335613 -0.187828,-0.477098 0.01944,-0.17426 0.162605,-0.586972 0.329955,-0.951188 0.129599,-0.282039 0.134278,-0.28296 0.634567,-0.123541 0.440106,0.140228 0.889741,0.203421 1.294587,0.181943 0.230093,-0.01219 0.311498,-0.0044 0.311498,0.02987 0,0.05459 -0.428366,0.240141 -0.813313,0.352282 -0.149107,0.04345 -0.386435,0.112742 -0.527394,0.153978 -0.327676,0.09586 -0.556029,0.290038 -0.605156,0.514598 -0.04153,0.189826 -0.0073,0.321109 0.164396,0.631426 0.206904,0.37385 0.434269,0.923413 0.527205,1.27432 0.109213,0.412361 0.150728,0.49103 0.441675,0.836965 0.131296,0.156106 0.276356,0.345376 0.322355,0.420578 0.07848,0.128309 0.24269,0.213654 0.412382,0.214329 0.172844,0.0013 0.526574,0.08955 0.526574,0.132295 0,0.07355 -0.07145,0.08908 -0.540121,0.117402 l -0.430108,0.02598 z m 2.038264,-0.02983 c -0.337404,-0.141163 -0.844043,-0.269964 -1.177513,-0.299361 l -0.297349,-0.0262 -0.231306,-0.344727 c -0.127219,-0.189607 -0.301946,-0.438252 -0.388284,-0.55255 -0.187019,-0.24758 -0.261396,-0.388639 -0.298851,-0.566766 -0.03529,-0.167832 -0.174367,-0.447951 -0.293341,-0.590826 -0.112788,-0.135437 -0.303838,-0.513339 -0.353269,-0.698775 -0.04791,-0.179739 0.02913,-0.344662 0.229522,-0.491344 0.158879,-0.116297 0.408939,-0.20068 1.035119,-0.349336 0.447112,-0.106144 0.640525,-0.177271 1.195669,-0.439756 0.824571,-0.389885 1.522584,-0.326042 2.324659,0.212627 0.300584,0.201876 0.816413,0.676767 0.816413,0.751633 0,0.05516 -0.165608,0.09438 -0.398509,0.09438 -0.195809,0 -0.436649,0.09256 -0.416419,0.160041 0.02526,0.08427 0.357263,0.224157 0.580142,0.244439 0.259569,0.02363 0.274291,0.01103 0.494868,-0.423372 0.287483,-0.566169 0.547725,-1.559241 0.638674,-2.437132 0.04249,-0.410076 0.118007,-0.658251 0.332975,-1.094217 0.01605,-0.03255 0.140752,-0.07612 0.304527,-0.106403 0.303015,-0.056 0.407259,-0.126414 0.522068,-0.352582 0.0404,-0.07962 0.116901,-0.156265 0.183946,-0.184323 0.128998,-0.054 0.364592,-0.02933 0.433592,0.04539 0.02746,0.02973 0.05408,0.248268 0.06882,0.564896 l 0.02404,0.516403 -0.112974,0.08128 c -0.103168,0.07423 -0.112975,0.100055 -0.112975,0.29749 0,0.348297 -0.08459,0.583854 -0.499628,1.391267 -0.513019,0.998046 -0.636084,1.316336 -0.742355,1.919977 -0.09555,0.542746 -0.12665,0.584736 -0.313047,0.422736 -0.120687,-0.104899 -0.132078,0.01427 0.110805,-1.159256 0.07097,-0.342895 0.140026,-0.742467 0.15346,-0.88794 0.02731,-0.295725 0.194054,-1.337617 0.23098,-1.443254 0.04837,-0.138371 0.208139,-0.316539 0.348934,-0.389119 0.193132,-0.09956 0.210983,-0.139917 0.109951,-0.248593 -0.165966,-0.178505 -0.460707,-0.09011 -0.631698,0.18945 -0.09397,0.153628 -0.170892,0.53654 -0.225368,1.121823 -0.05093,0.547211 -0.124929,0.937057 -0.26802,1.412041 -0.09234,0.306526 -0.117608,0.469438 -0.133854,0.863139 l -0.02002,0.485293 -0.116441,-0.01786 c -0.06405,-0.0099 -0.293126,-0.04699 -0.509073,-0.08259 -0.448371,-0.07395 -0.779116,-0.06219 -1.738809,0.06176 -0.899434,0.116181 -1.086762,0.098 -1.896785,-0.184061 -0.319851,-0.111379 -0.421262,-0.132359 -0.500943,-0.103678 -0.162418,0.05848 -0.186422,0.135073 -0.107691,0.343624 0.05256,0.139252 0.187567,0.306668 0.55934,0.693645 0.269531,0.28056 0.56024,0.594513 0.64602,0.697686 0.08578,0.103171 0.165697,0.17775 0.177588,0.165742 0.01188,-0.01208 0.05056,-0.138945 0.08593,-0.282054 0.07459,-0.301814 0.12694,-0.330222 0.390017,-0.211665 0.379955,0.171232 0.745685,0.66873 0.75518,1.027272 0.0034,0.129229 -0.0011,0.133632 -0.146046,0.14407 -0.146366,0.01052 -0.151823,0.0064 -0.254258,-0.193085 -0.05757,-0.112131 -0.151727,-0.249399 -0.209228,-0.305074 -0.09321,-0.09023 -0.109818,-0.09478 -0.153144,-0.04204 -0.06753,0.08223 -0.06003,0.23357 0.02197,0.443249 0.09517,0.243361 0.05134,0.273457 -0.227999,0.156588 z m -1.328298,-1.175602 c -0.0021,-0.166506 -0.386291,-0.76515 -0.491091,-0.76515 -0.05725,0 -0.01969,0.2555 0.06364,0.432953 0.132174,0.281443 0.429684,0.512663 0.427443,0.332197 z m -0.9359,-1.613022 c 0.02457,-0.02991 0.03925,-0.101055 0.03263,-0.158095 -0.0091,-0.07824 -0.03904,-0.110935 -0.122003,-0.133191 -0.131518,-0.03526 -0.207894,0.0163 -0.207894,0.140346 0,0.08531 0.122403,0.205331 0.209406,0.205331 0.02375,0 0.0633,-0.02448 0.08787,-0.05439 z m 2.173274,-0.0811 c 0.111707,-0.03295 0.22613,-0.08233 0.254271,-0.109727 0.111566,-0.108612 0.0065,-0.13471 -0.512049,-0.127167 -0.426136,0.0063 -0.559719,-0.0063 -0.801572,-0.07458 -0.159621,-0.0451 -0.306859,-0.08202 -0.327196,-0.08202 -0.1393,0 0.150697,0.323433 0.355657,0.396664 0.205673,0.07348 0.777024,0.07172 1.030889,-0.0031 z m 4.363957,-1.69708 c 0.17708,-0.474412 0.183426,-0.510092 0.09074,-0.510092 -0.0804,0 -0.158221,0.191644 -0.286072,0.704476 -0.126656,0.508039 -0.03151,0.413359 0.195328,-0.194384 z m 0.720592,-1.948867 c 0.02287,-0.04318 0.03241,-0.10269 0.02119,-0.132243 -0.03275,-0.08625 -0.131475,-0.06191 -0.156435,0.03859 -0.041,0.165051 0.06028,0.235192 0.135248,0.09365 z m 4.904338,4.338295 c -0.06795,-0.02198 -0.240244,-0.145707 -0.382862,-0.274925 -0.232435,-0.2106 -0.538743,-0.397311 -0.830407,-0.506169 -0.2632,-0.09824 0.03803,-0.175363 0.566117,-0.144941 0.33828,0.01948 0.534251,0.09079 0.709686,0.258162 0.123424,0.117764 0.378869,0.524776 0.378869,0.603667 0,0.108521 -0.210056,0.139071 -0.441403,0.06421 z m -5.663258,-0.805738 c -0.06388,-0.06456 0.143194,-0.55899 0.742403,-1.772609 0.299256,-0.606107 0.372364,-0.791469 0.46946,-1.190222 0.06325,-0.25977 0.128252,-0.486797 0.144441,-0.504507 0.01618,-0.01771 0.08297,0.0078 0.148405,0.05667 0.09583,0.0716 0.165641,0.08888 0.358895,0.08888 0.222216,0 0.239926,0.0061 0.239926,0.08307 0,0.140929 -0.18506,0.684063 -0.377248,1.107163 -0.225914,0.497353 -0.249366,0.70872 -0.103254,0.930631 0.08111,0.12318 0.166323,0.178179 0.540799,0.349023 0.715112,0.326265 0.817375,0.356505 1.108258,0.327707 0.147643,-0.01463 0.252408,-0.01052 0.252408,0.01 0,0.07692 -0.153292,0.22417 -0.342462,0.328951 -0.188308,0.104315 -0.229387,0.111507 -0.717338,0.125633 -0.369168,0.01065 -0.641479,-0.0039 -0.949611,-0.05102 -0.539639,-0.08242 -1.001501,-0.06335 -1.259649,0.05204 -0.19376,0.0866 -0.221419,0.09295 -0.255433,0.05858 z m 5.929517,-0.266445 c -0.391578,-0.409521 -0.760359,-0.501514 -1.110604,-0.277085 l -0.17858,0.114441 -0.174634,-0.187579 c -0.209297,-0.224819 -0.516928,-0.380342 -0.754238,-0.381303 -0.09255,0 -0.28199,0.02876 -0.420981,0.06476 l -0.252709,0.06544 -0.172007,-0.198681 c -0.247587,-0.285988 -0.414307,-0.362283 -0.732689,-0.335314 -0.221932,0.0188 -0.253914,0.01347 -0.25397,-0.04242 -3.2e-5,-0.03516 0.04418,-0.308838 0.09827,-0.608159 0.09705,-0.537138 0.100677,-0.547188 0.27788,-0.769397 0.09875,-0.123829 0.213462,-0.312499 0.254914,-0.419267 0.253405,-0.652696 0.466504,-1.280603 0.585459,-1.725087 0.25436,-0.950458 0.24317,-0.923373 0.3873,-0.937293 0.06968,-0.0068 0.166442,-0.0021 0.215012,0.01013 0.08419,0.02135 0.08831,0.03744 0.08831,0.345065 0,0.3702 -0.04237,0.787883 -0.172164,1.697391 -0.113287,0.793819 -0.238059,1.363767 -0.410405,1.87474 -0.07278,0.215796 -0.142466,0.434849 -0.154849,0.486812 -0.06411,0.268989 0.252754,-0.266861 0.452451,-0.76515 0.04266,-0.106445 0.0782,-0.141552 0.142832,-0.141111 0.04732,0 0.304797,0.117662 0.572161,0.260784 l 0.48612,0.260227 -0.0029,0.438224 c -0.0027,0.398429 0.0032,0.438225 0.06458,0.438225 0.102335,0 0.173624,-0.143875 0.202852,-0.409387 0.01449,-0.131646 0.04595,-0.246957 0.06992,-0.256241 0.02397,-0.0093 0.168871,0.06731 0.322008,0.170235 0.153139,0.102924 0.37094,0.223896 0.484006,0.268835 0.113065,0.04492 0.225882,0.09872 0.250705,0.119531 0.02482,0.02083 0.05011,0.141331 0.05618,0.267808 0.01562,0.325017 0.09005,0.324225 0.122403,-0.0013 0.0142,-0.142877 0.03702,-0.277066 0.05071,-0.298204 0.05273,-0.08141 0.799418,-0.61647 0.831944,-0.596163 0.01887,0.01181 0.03431,0.07241 0.03431,0.134723 0,0.155277 0.07629,0.449026 0.116619,0.449026 0.01813,0 0.03414,-0.157275 0.03558,-0.349516 0.0015,-0.192229 0.01408,-0.377537 0.02804,-0.411816 0.05373,-0.131697 0.453745,-0.529229 0.519927,-0.516687 0.03715,0.007 0.132279,0.132657 0.21597,0.285195 0.134595,0.245294 0.243059,0.348466 0.243059,0.231194 0,-0.144772 -1.435664,-2.730389 -1.837087,-3.308582 -0.161897,-0.233193 -0.294357,-0.441483 -0.294357,-0.462868 0,-0.06752 0.108755,-0.04281 0.385739,0.08764 0.804355,0.378848 1.508595,1.20583 1.883242,2.211509 0.200527,0.538267 0.277421,0.939058 0.30018,1.564577 l 0.02171,0.596449 -0.300901,-0.02536 c -0.267402,-0.02253 -0.320562,-0.01575 -0.477508,0.06104 -0.198523,0.09711 -0.369057,0.312838 -0.475744,0.601824 l -0.06791,0.183971 -0.3072,-0.0025 c -0.344721,-0.0027 -0.476796,0.04184 -0.751373,0.253632 -0.09541,0.07358 -0.19436,0.131761 -0.219889,0.129282 -0.02552,-0.0025 -0.150475,-0.113325 -0.277656,-0.246321 z m 3.207381,-0.392676 c -0.15726,-0.03314 -0.452069,-0.204967 -0.452069,-0.263487 0,-0.01523 0.07047,-0.03723 0.156603,-0.0489 0.08613,-0.01168 0.256399,-0.07323 0.378371,-0.136801 l 0.221766,-0.11557 0.273584,0.179049 c 0.150473,0.09848 0.274682,0.198461 0.276021,0.222183 0.0068,0.119402 -0.554107,0.226754 -0.854276,0.163523 z M 24.433845,33.766511 c -0.08649,-0.02524 -0.14281,-0.07803 -0.196317,-0.184009 -0.102237,-0.2025 -0.09564,-0.245256 0.05584,-0.362009 0.155735,-0.120025 0.160512,-0.15194 0.03739,-0.249801 -0.127449,-0.101288 -0.118254,-0.134981 0.05609,-0.205471 0.168941,-0.06829 0.188422,-0.140307 0.06544,-0.241894 -0.06749,-0.05575 -0.07489,-0.079 -0.03739,-0.117532 0.02571,-0.02641 0.04674,-0.06932 0.04674,-0.09535 0,-0.0617 -0.233291,-0.125997 -0.458072,-0.126259 -0.200807,0 -0.223604,0.04387 -0.102832,0.19902 0.09514,0.122219 0.0943,0.167261 -0.0037,0.198697 -0.06225,0.01997 -0.0751,0.04849 -0.06212,0.137902 0.01274,0.08769 -0.0033,0.125828 -0.07259,0.171637 -0.07881,0.05218 -0.08617,0.07769 -0.06452,0.223598 0.02236,0.150652 0.01764,0.16469 -0.05533,0.16469 -0.04387,0 -0.149785,-0.04465 -0.235351,-0.09924 -0.08556,-0.05458 -0.211434,-0.122817 -0.279708,-0.15164 -0.0791,-0.03339 -0.124139,-0.07858 -0.124139,-0.124519 0,-0.03966 0.09961,-0.375251 0.221348,-0.745751 0.337195,-1.026207 0.369762,-1.104891 0.467537,-1.12969 0.128431,-0.03258 0.533241,0.05244 0.806866,0.169456 0.133681,0.05717 0.381631,0.162039 0.550997,0.233063 0.169368,0.07101 0.345109,0.157172 0.390537,0.191475 l 0.0826,0.06236 -0.120221,0.504403 c -0.14748,0.618781 -0.268219,1.244769 -0.268219,1.390604 0,0.212614 -0.02241,0.228753 -0.312498,0.225053 -0.146906,-0.0019 -0.321682,-0.01933 -0.388387,-0.0388 z M 31.8843,33.350553 c -0.43826,-0.251655 -0.467423,-0.279713 -0.467423,-0.449806 0,-0.21373 0.04122,-0.376718 0.09528,-0.376718 0.0267,0 0.237282,0.105625 0.467973,0.234738 0.442293,0.247516 0.521169,0.336468 0.521169,0.587762 0,0.25685 -0.174722,0.257992 -0.616995,0.004 z m 0.755398,0.131997 c -0.01441,-0.01456 -0.02623,-0.124544 -0.02623,-0.244385 V 33.02028 l 0.327183,-0.248127 c 0.179951,-0.136463 0.346118,-0.248124 0.369262,-0.248124 0.02314,0 0.05259,0.05313 0.06545,0.118077 0.05297,0.267613 0.03521,0.302814 -0.293077,0.580944 -0.30956,0.262265 -0.392019,0.310617 -0.442598,0.2595 z M 20.837786,33.00923 c -0.121962,-0.112014 -0.137913,-0.116169 -0.364588,-0.09477 -0.130376,0.01234 -0.237047,0.0077 -0.237047,-0.01026 0,-0.01791 0.118012,-0.18305 0.26225,-0.366982 0.235751,-0.300619 0.50151,-0.780055 0.693335,-1.250767 0.0641,-0.157301 0.07298,-0.163155 0.424348,-0.279752 0.328533,-0.109016 0.401558,-0.119286 0.863692,-0.121362 0.360698,-0.0016 0.567234,0.01547 0.723459,0.05985 0.120255,0.03417 0.225463,0.06903 0.233798,0.07745 0.0083,0.0084 -0.03435,0.115869 -0.09484,0.238776 -0.0607,0.123323 -0.186952,0.536748 -0.281718,0.92249 -0.193646,0.788235 -0.240626,0.869062 -0.505149,0.869062 -0.215812,0 -0.524279,-0.08106 -0.524279,-0.137774 0,-0.02707 0.05137,-0.07606 0.11417,-0.108872 0.0628,-0.03281 0.147597,-0.09343 0.188455,-0.134721 0.07292,-0.07367 0.07299,-0.07696 0.0041,-0.177468 -0.132808,-0.193889 -0.132805,-0.193915 0.04607,-0.271403 0.192111,-0.0832 0.207418,-0.118298 0.08688,-0.199177 -0.07712,-0.05174 -0.0796,-0.06413 -0.0311,-0.155692 0.02897,-0.05471 0.04015,-0.112129 0.02483,-0.127619 -0.01532,-0.01549 -0.131732,-0.02826 -0.258697,-0.02839 h -0.230842 l 0.01188,0.138318 c 0.01102,0.128297 0.0022,0.141852 -0.121529,0.187076 -0.143128,0.05229 -0.167059,0.109455 -0.07733,0.184698 0.116289,0.09752 0.04351,0.188931 -0.150426,0.188931 -0.139869,0 -0.139659,0.05676 8.77e-4,0.226688 0.07199,0.08707 0.13089,0.178115 0.13089,0.202317 0,0.07823 -0.149597,0.141255 -0.314794,0.132607 -0.110043,-0.0057 -0.204821,0.01767 -0.299209,0.07393 -0.07598,0.0453 -0.149806,0.08186 -0.164055,0.08127 -0.01424,0 -0.0833,-0.05383 -0.153451,-0.118259 z m 18.852733,-0.265407 c -0.170397,-0.304243 -0.479303,-0.579712 -0.733973,-0.654526 -0.177488,-0.05213 -0.2442,-0.05479 -0.425508,-0.01698 -0.56633,0.118103 -0.651287,0.250462 -0.231406,0.360502 0.263238,0.069 0.822098,0.341909 0.845357,0.412828 0.0078,0.02393 -0.313428,0.03703 -0.894479,0.03646 -0.80523,-0.0013 -0.925563,-0.009 -1.074997,-0.07259 -0.499491,-0.212873 -0.78992,-0.551822 -1.086413,-1.267879 -0.107974,-0.260771 -0.365175,-0.666822 -0.507655,-0.801466 -0.108848,-0.10286 -0.37531,-0.21873 -0.50299,-0.21873 -0.04999,0 -0.0746,-0.03811 -0.09148,-0.141694 -0.01268,-0.07793 -0.05823,-0.246776 -0.101177,-0.375226 -0.07326,-0.219093 -0.07429,-0.2394 -0.01658,-0.328406 0.07832,-0.120777 0.3518,-0.311526 0.557721,-0.389015 0.105163,-0.03958 0.292822,-0.06112 0.551968,-0.06338 0.507502,-0.0044 0.69028,0.07534 1.065721,0.465023 0.143967,0.149434 0.324188,0.304397 0.400492,0.344376 0.181963,0.09533 0.48215,0.09386 0.887592,-0.0044 0.347382,-0.08415 0.543976,-0.07378 0.814181,0.04297 0.227777,0.09842 0.475033,0.345091 0.570379,0.569054 0.0824,0.193539 0.14762,0.598551 0.09639,0.598551 -0.01499,0 -0.101998,-0.07769 -0.193337,-0.172661 -0.366718,-0.381278 -0.999255,-0.483502 -1.52836,-0.247011 -0.19089,0.08533 -0.234332,0.156693 -0.175202,0.287831 0.0802,0.177869 0.204654,0.220067 0.744299,0.252372 0.442993,0.02652 0.526324,0.04239 0.687341,0.130943 0.353363,0.194346 0.534807,0.546123 0.536815,1.040762 0.0018,0.428229 -0.04513,0.479307 -0.194703,0.212238 z m -2.896792,-0.928257 c -0.0077,-0.01558 -0.117587,-0.244943 -0.244094,-0.509676 -0.126507,-0.264731 -0.282166,-0.557936 -0.345908,-0.651551 -0.126091,-0.185179 -0.350286,-0.359619 -0.462207,-0.359619 -0.05889,0 -0.04944,0.02351 0.05755,0.143174 0.181408,0.202902 0.336395,0.439042 0.488823,0.744778 0.138013,0.276821 0.418568,0.661226 0.48259,0.661226 0.02052,0 0.03099,-0.01273 0.02325,-0.02833 z m 0.306632,-0.717913 c -5.46e-4,-0.160873 -0.174415,-0.502496 -0.346109,-0.680131 -0.134528,-0.139176 -0.251825,-0.204732 -0.251825,-0.140746 0,0.05413 0.286722,0.58793 0.400323,0.74531 0.147862,0.204835 0.198133,0.224052 0.197611,0.07557 z m -6.575169,1.547646 -0.461657,-0.253514 0.02264,-0.168506 c 0.01245,-0.09268 0.0388,-0.184828 0.05855,-0.204784 0.03899,-0.03939 0.425996,0.09918 0.793626,0.284168 0.180679,0.09092 0.21651,0.126115 0.234577,0.230455 0.03003,0.173452 -0.02553,0.348114 -0.113805,0.357775 -0.03975,0.0044 -0.280016,-0.10617 -0.533928,-0.245594 z m 3.027765,0.07641 c -0.01946,-0.03675 -0.0472,-0.130464 -0.06165,-0.208251 -0.02394,-0.128984 -0.01459,-0.152174 0.106401,-0.263797 0.169953,-0.15677 0.379903,-0.270239 0.449854,-0.243115 0.03003,0.01168 0.06638,0.07535 0.08078,0.141567 0.02426,0.111598 0.0076,0.139371 -0.229181,0.380392 -0.140442,0.143006 -0.267831,0.260019 -0.283082,0.260019 -0.01526,0 -0.04366,-0.03007 -0.06312,-0.06681 z m -1.631263,-0.212806 c -0.462365,-0.167534 -0.504815,-0.19436 -0.504815,-0.319045 0,-0.05764 0.02248,-0.135866 0.04995,-0.17383 0.04788,-0.06617 0.06608,-0.06417 0.438935,0.04816 0.214004,0.06447 0.410206,0.146499 0.436167,0.182374 0.02595,0.03587 0.04719,0.138475 0.04719,0.228012 0,0.199383 -0.0099,0.200111 -0.467422,0.03434 z m 0.634125,0.08814 c -0.01357,-0.02219 -0.03322,-0.136969 -0.04365,-0.255046 l -0.01897,-0.214706 0.248762,-0.200811 c 0.136819,-0.110456 0.27721,-0.195292 0.311979,-0.188514 0.03925,0.0077 0.0716,0.06227 0.08535,0.144135 0.01216,0.07251 0.03278,0.165847 0.04579,0.207408 0.02975,0.09503 -0.01094,0.145461 -0.297341,0.368409 -0.238873,0.185944 -0.290138,0.207433 -0.331921,0.139125 z m -1.905511,-0.617069 c -0.46438,-0.194605 -0.467422,-0.196603 -0.467422,-0.305242 0,-0.234257 0.08058,-0.255006 0.500782,-0.128918 0.422101,0.12666 0.471454,0.1616 0.471454,0.333755 0,0.177453 -0.03056,0.268264 -0.08814,0.261863 -0.02351,-0.0026 -0.211011,-0.07527 -0.416677,-0.161458 z m 2.695476,0.05798 c -0.011,-0.01797 -0.0311,-0.128217 -0.04468,-0.244996 -0.02826,-0.242932 -0.0016,-0.293466 0.213009,-0.404102 0.153283,-0.07902 0.164808,-0.07304 0.272593,0.14146 0.09075,0.180583 0.07818,0.217587 -0.131089,0.385952 -0.190081,0.152926 -0.271232,0.1848 -0.309835,0.121686 z m -1.554968,-0.263507 -0.317846,-0.104001 v -0.225002 -0.224987 l 0.135355,0.0078 c 0.14537,0.0083 0.530604,0.165055 0.571994,0.232727 0.01384,0.02261 0.03515,0.12653 0.04739,0.230935 0.02705,0.230739 0.01996,0.232077 -0.436893,0.08258 z m 0.621447,-0.03661 c -0.01027,-0.01679 -0.02976,-0.115078 -0.04333,-0.218432 -0.02445,-0.186268 -0.02316,-0.189306 0.146497,-0.347335 0.252757,-0.235428 0.347338,-0.203292 0.380898,0.129411 0.01833,0.181699 0.01678,0.184841 -0.160063,0.32516 -0.172103,0.136566 -0.284823,0.175246 -0.324002,0.111196 z m -1.75675,-0.395715 -0.406125,-0.153472 0.01861,-0.166857 c 0.01025,-0.09177 0.03314,-0.180778 0.05089,-0.197788 0.03479,-0.03335 0.74882,0.168793 0.826568,0.233999 0.08559,0.07177 0.03593,0.456078 -0.05709,0.441717 -0.01471,-0.0023 -0.209487,-0.07319 -0.432853,-0.157599 z m -2.630299,0.01208 c -0.142206,-0.08761 -0.228669,-0.242697 -0.258684,-0.463971 -0.01898,-0.13993 -0.0036,-0.192631 0.11575,-0.394974 0.08062,-0.13675 0.244078,-0.555447 0.394518,-1.01055 0.141276,-0.427382 0.300588,-0.865009 0.354024,-0.972505 0.156782,-0.315422 0.361307,-0.645202 0.484187,-0.780744 0.190796,-0.210445 0.552121,-0.361852 0.488046,-0.204498 -0.272939,0.670223 -0.491603,1.462446 -0.541048,1.960202 -0.07315,0.736376 -0.154853,1.238807 -0.229299,1.410015 -0.202554,0.465828 -0.510402,0.640075 -0.807494,0.457025 z m 4.961116,-0.192604 c -0.04257,-0.08431 -0.06749,-0.184802 -0.05539,-0.223326 0.0256,-0.08151 0.157572,-0.176428 0.293135,-0.210797 0.08276,-0.021 0.10474,-0.0046 0.172165,0.129023 0.11379,0.22539 0.101189,0.293401 -0.07079,0.382055 -0.207744,0.107093 -0.251173,0.09724 -0.339117,-0.07695 z m -7.852062,-0.03658 c -0.428454,-0.176919 -1.08318,-0.351751 -1.718521,-0.458881 -0.509712,-0.08594 -1.172228,-0.10747 -1.767981,-0.05744 -0.413244,0.03471 -0.484687,-0.01026 -0.16827,-0.105937 0.708666,-0.214251 1.70161,-0.224093 2.627616,-0.02602 0.611858,0.130865 0.816253,0.188241 1.26133,0.354101 0.284701,0.10608 0.327196,0.133488 0.327196,0.211003 0,0.126504 -0.06643,0.2357 -0.141541,0.232662 -0.03526,-0.0015 -0.22419,-0.0687 -0.419829,-0.149488 z m 6.605625,-0.06986 c -0.25434,-0.07503 -0.323014,-0.150875 -0.323014,-0.356763 0,-0.142083 0.0045,-0.147719 0.102832,-0.127516 0.05656,0.01155 0.197237,0.06348 0.312615,0.115259 0.177994,0.07988 0.213432,0.112559 0.233847,0.215717 0.01405,0.07094 0.0065,0.14293 -0.01804,0.172843 -0.04982,0.06066 -0.03269,0.06175 -0.308237,-0.01954 z m 0.465911,-0.08597 c -0.07316,-0.212054 -0.05337,-0.270782 0.128744,-0.381925 0.208111,-0.127024 0.218855,-0.127309 0.272927,-0.0074 0.07463,0.165508 0.05172,0.266394 -0.08878,0.391053 -0.170976,0.151692 -0.260128,0.151199 -0.312887,-0.0016 z m -1.275043,-0.209926 c -0.626148,-0.230738 -0.635695,-0.236348 -0.635695,-0.372849 0,-0.124362 0.0056,-0.129516 0.140227,-0.129983 0.07713,0 0.263429,0.02863 0.414013,0.06423 0.306688,0.07247 0.364299,0.131984 0.326241,0.336976 -0.0241,0.129813 -0.09192,0.157963 -0.244786,0.101625 z m 3.649676,-0.374797 c -0.249502,-0.530889 -0.605314,-0.888209 -1.161589,-1.166524 -0.586299,-0.293335 -0.778379,-0.327561 -2.020666,-0.360008 -0.988729,-0.02583 -1.321455,-0.05988 -1.409459,-0.144278 -0.0297,-0.02847 1.165438,-0.06201 2.157332,-0.06053 0.77618,0.0013 0.976622,0.04012 1.473852,0.286417 0.585792,0.290153 0.941761,0.743634 1.104495,1.407016 0.09252,0.377161 0.02396,0.395207 -0.143965,0.0379 z m -8.936679,0.08355 c -0.494167,-0.261187 -0.733387,-0.42733 -0.733387,-0.509363 0,-0.0847 0.257367,-0.876658 0.30039,-0.924361 0.0379,-0.04202 0.09739,0.07213 0.13048,0.250357 0.0144,0.07756 0.03699,0.140995 0.0502,0.140995 0.01322,0 0.0885,-0.204265 0.167308,-0.453922 0.139872,-0.443146 0.381865,-0.987476 0.61784,-1.389747 0.122917,-0.209537 0.146551,-0.341 0.07441,-0.413893 -0.03232,-0.03266 -0.09166,0.03993 -0.239922,0.293465 -0.271588,0.464413 -0.757251,1.095048 -0.843311,1.095048 -0.06388,0 -0.03121,-0.0758 0.166314,-0.385975 0.606838,-0.952887 0.998438,-1.848333 1.241481,-2.838821 0.05178,-0.211016 0.118124,-0.443172 0.14744,-0.515908 0.06634,-0.164586 0.146284,-1.101618 0.125577,-1.471898 -0.014,-0.250331 -0.02544,-0.283843 -0.124173,-0.363384 -0.146114,-0.117726 -0.311017,-0.141382 -0.972686,-0.139552 -0.55497,0.0015 -0.565813,0.0032 -1.024662,0.156937 -0.255065,0.08545 -0.478024,0.155368 -0.495467,0.155368 -0.160558,0 0.313892,-0.255566 0.622679,-0.335405 0.234151,-0.06055 1.05228,-0.186982 1.394701,-0.21556 0.254682,-0.02124 0.308235,-0.0366 0.298876,-0.08571 -0.0067,-0.03524 -0.09117,-0.08412 -0.205497,-0.118947 -0.106753,-0.03252 -0.205045,-0.07018 -0.21843,-0.08369 -0.04449,-0.04494 0.367065,-0.143083 0.600038,-0.143083 0.29169,0 0.561324,0.08081 0.76359,0.228869 0.276438,0.202343 0.491684,0.817306 0.430461,1.229835 -0.03931,0.264914 -0.228704,0.547486 -0.436867,0.651826 -0.258878,0.129749 -0.301572,0.09846 -0.270153,-0.198007 0.02535,-0.239141 0.0032,-0.401143 -0.05475,-0.401143 -0.01656,0 -0.05931,0.148785 -0.09502,0.330626 -0.0357,0.181843 -0.09517,0.432629 -0.132152,0.557327 -0.03699,0.124686 -0.08689,0.337223 -0.110904,0.472308 -0.02401,0.135087 -0.09473,0.449639 -0.157136,0.699023 -0.118239,0.472464 -0.144723,0.857948 -0.07203,1.048527 0.03859,0.101171 0.153666,0.146849 0.153666,0.06099 0,-0.07495 0.320648,-0.0046 0.623546,0.136837 0.156438,0.07304 0.297343,0.132789 0.313119,0.132789 0.01578,0 0.192824,-0.110885 0.393437,-0.246411 0.328191,-0.221729 0.519204,-0.317084 0.556186,-0.277663 0.0073,0.0077 0.07094,0.170038 0.141621,0.360774 l 0.128501,0.346791 -0.165506,0.257758 c -0.196622,0.306229 -0.319187,0.573391 -0.405256,0.883359 -0.03471,0.125009 -0.08177,0.221909 -0.104554,0.215326 -0.02279,-0.0066 -0.100466,-0.133916 -0.172614,-0.282962 -0.21607,-0.446364 -0.480153,-0.655447 -0.757147,-0.599472 -0.215348,0.04352 -0.341281,0.185359 -0.570885,0.642969 -0.120769,0.2407 -0.235404,0.437641 -0.254739,0.437641 -0.02096,0 -0.02441,-0.08779 -0.0086,-0.217262 0.13067,-1.06795 0.101211,-1.141414 -0.200369,-0.499677 -0.344159,0.732338 -0.42567,0.993175 -0.424774,1.359272 5.46e-4,0.235934 0.02689,0.409076 0.09915,0.652372 0.104476,0.351738 0.121126,0.481175 0.06189,0.481175 -0.02006,0 -0.178438,-0.07504 -0.351945,-0.166741 z m 1.951637,-7.278026 c -0.01172,-0.163729 -0.04335,-0.259745 -0.124594,-0.378213 -0.109059,-0.159016 -0.264828,-0.29031 -0.301032,-0.253721 -0.01059,0.01065 0.03934,0.127788 0.110991,0.260162 0.07165,0.132372 0.149657,0.325705 0.173351,0.429602 0.06976,0.305931 0.07314,0.312565 0.11792,0.231948 0.02149,-0.03869 0.032,-0.169091 0.02337,-0.289778 z m -1.188522,7.370628 c -0.07415,-0.14002 0.01665,-0.663692 0.181227,-1.045021 0.321984,-0.746102 0.680247,-1.33685 0.810732,-1.33685 0.16465,0 0.421597,0.232727 0.595987,0.539798 0.133327,0.234766 0.134903,0.449158 0.0061,0.830797 -0.113205,0.335444 -0.396797,0.934281 -0.44245,0.934281 -0.04619,0 -0.03681,-0.177959 0.02489,-0.472321 0.06049,-0.288557 0.07358,-0.547874 0.02766,-0.547874 -0.01598,0 -0.117947,0.102028 -0.226566,0.226714 -0.108622,0.124686 -0.213744,0.226714 -0.233606,0.226714 -0.01986,0 -0.05295,-0.04475 -0.07353,-0.09946 -0.03555,-0.09447 -0.04092,-0.09624 -0.107463,-0.03539 -0.03852,0.03522 -0.166196,0.241517 -0.283714,0.458403 -0.117515,0.216898 -0.219594,0.39435 -0.226839,0.39435 -0.0073,0 -0.03084,-0.03335 -0.05244,-0.07414 z m 6.334802,-0.04444 c -0.0994,-0.194229 -0.0084,-0.324951 0.208345,-0.299385 0.06747,0.0079 0.18697,0.142525 0.18697,0.210522 0,0.03959 -0.257351,0.207446 -0.318037,0.207446 -0.0091,0 -0.0439,-0.05336 -0.07728,-0.118583 z m -1.193828,-0.260394 -0.186878,-0.110677 -0.05145,-0.350283 c -0.08301,-0.565247 -0.08197,-0.574948 0.06305,-0.589009 0.06818,-0.0066 0.146586,0.0068 0.174224,0.03011 0.07061,0.05922 0.372181,0.999965 0.344186,1.073676 -0.0332,0.08744 -0.130391,0.07219 -0.343142,-0.05382 z m 0.475964,-0.04516 c -0.01196,-0.04624 -0.08416,-0.26856 -0.160428,-0.494042 -0.138065,-0.408179 -0.138321,-0.410101 -0.05887,-0.439951 0.12093,-0.04543 0.149459,-0.0207 0.315649,0.273691 0.223092,0.395168 0.278134,0.543097 0.233461,0.62744 -0.07412,0.139943 -0.296364,0.162093 -0.329808,0.03286 z m -10.441483,0.01235 c 0,-0.06003 0.10648,-0.105223 0.532845,-0.226208 0.440386,-0.124947 0.580892,-0.190582 0.912765,-0.426398 0.413188,-0.293594 0.776074,-0.632101 0.98534,-0.919152 0.11292,-0.154901 0.232107,-0.282067 0.264857,-0.282598 0.03275,0 0.09084,0.05773 0.129075,0.129465 0.06849,0.128514 0.0683,0.133981 -0.01318,0.368408 -0.10944,0.314863 -0.11006,0.697724 -0.0016,1.031376 0.04415,0.135928 0.07138,0.256135 0.06049,0.267133 -0.01089,0.01104 -0.312045,-0.0082 -0.669239,-0.0427 -0.948573,-0.09159 -1.59083,-0.05747 -2.117149,0.112494 -0.05027,0.01624 -0.08414,0.01142 -0.08414,-0.01181 z m -0.986638,-0.196138 c -0.120925,-0.09612 -0.209962,-0.262005 -0.209962,-0.391209 0,-0.0528 0.05962,-0.174934 0.132493,-0.271392 0.278029,-0.368046 0.310137,-0.55716 0.110916,-0.653228 -0.293199,-0.141396 -0.70663,-0.07071 -0.982617,0.168001 -0.265578,0.2297 -0.270261,0.220716 -0.271589,-0.520817 -6.37e-4,-0.358489 -0.02553,-0.85583 -0.0553,-1.105201 -0.02978,-0.249385 -0.05449,-0.50869 -0.05493,-0.576219 -7.74e-4,-0.115078 0.0074,-0.122805 0.128795,-0.122805 0.269824,0 0.545705,-0.398363 0.488661,-0.705617 -0.03298,-0.177621 -0.296257,-0.455428 -0.463682,-0.489265 -0.111317,-0.0225 -0.117163,-0.03252 -0.117163,-0.201019 0,-0.09755 0.0257,-0.264798 0.05712,-0.371694 l 0.05712,-0.194334 0.438352,0.02316 c 0.241093,0.01273 0.442961,0.03457 0.448595,0.0485 0.0056,0.01392 0.08641,0.154654 0.179499,0.312709 0.211454,0.359035 0.283556,0.566545 0.403721,1.161916 0.102949,0.510053 0.169508,1.334683 0.110692,1.371414 -0.01944,0.01208 -0.130106,0.0091 -0.245919,-0.0068 -0.119429,-0.01637 -0.237357,-0.01372 -0.272466,0.0061 -0.09186,0.05195 -0.169585,0.269641 -0.143436,0.401766 0.01939,0.09797 0.05338,0.126205 0.233242,0.193787 0.603093,0.226611 0.764223,0.494082 0.564962,0.937811 -0.135069,0.300777 -0.09218,0.346441 0.198916,0.211771 0.753805,-0.348713 1.367088,-0.783147 2.034544,-1.441229 0.221989,-0.218886 0.44352,-0.424982 0.492287,-0.457987 0.08204,-0.05554 0.09238,-0.05491 0.138237,0.0084 0.05007,0.0692 0.165728,0.525685 0.165728,0.654097 0,0.07391 -0.329581,0.425657 -0.398828,0.425657 -0.02256,0 -0.08618,-0.05984 -0.141378,-0.132957 -0.05519,-0.07313 -0.116092,-0.123129 -0.135318,-0.111131 -0.05205,0.03252 -0.0419,0.173064 0.02137,0.295633 0.03073,0.05952 0.05586,0.121091 0.05586,0.136802 0,0.01572 -0.104765,0.09814 -0.232809,0.183177 l -0.23281,0.154602 -0.08313,-0.07893 c -0.106112,-0.100717 -0.218102,-0.06787 -0.183768,0.05391 0.07699,0.273082 0.078,0.27016 -0.131612,0.385432 -0.186647,0.102653 -0.19947,0.104781 -0.236854,0.03939 -0.09197,-0.160871 -0.1682,-0.211859 -0.250351,-0.167429 -0.06273,0.03392 -0.07428,0.06697 -0.05825,0.166741 0.01618,0.100758 0.0011,0.142761 -0.07983,0.220652 -0.154671,0.149084 -0.296897,0.190956 -0.405133,0.119297 -0.08643,-0.05722 -0.09702,-0.0528 -0.30345,0.126479 -0.117642,0.102183 -0.25065,0.204925 -0.295573,0.228323 -0.132911,0.06924 -0.364372,0.05152 -0.474932,-0.03635 z m 0.295502,-0.41023 c -0.03381,-0.107651 -0.146333,-0.08566 -0.162843,0.03182 -0.0069,0.04939 0.0099,0.103873 0.03739,0.121051 0.07418,0.04635 0.156513,-0.05399 0.125451,-0.152874 z m 0.296382,-0.01052 c 0.08043,-0.116027 0.07285,-0.155407 -0.02493,-0.129582 -0.05559,0.0147 -0.11129,-0.0048 -0.168125,-0.05871 -0.118714,-0.112688 -0.133977,-0.07223 -0.04291,0.113754 0.08712,0.177933 0.150428,0.197929 0.235957,0.07454 z m 0.669239,-0.208849 c 0.03882,-0.06418 0.04043,-0.249462 0.0022,-0.262448 -0.02259,-0.0077 -0.08134,0.01896 -0.130554,0.05923 -0.0882,0.07217 -0.08846,0.07433 -0.01856,0.152382 0.07439,0.08306 0.118174,0.09822 0.146837,0.05085 z m 0.697753,-0.597344 c 0,-0.104808 -0.04387,-0.118712 -0.112181,-0.03555 -0.03697,0.045 -0.03704,0.06825 -3.64e-4,0.112934 0.0606,0.07377 0.112523,0.03806 0.112523,-0.07739 z m 0.63512,-0.366177 c -1.83e-4,-0.06754 -0.01625,-0.147862 -0.03542,-0.178491 -0.02938,-0.04695 -0.04982,-0.04147 -0.130303,0.03492 -0.117556,0.111597 -0.120407,0.167092 -0.01132,0.220248 0.142371,0.06939 0.177655,0.0541 0.177046,-0.07669 z m -3.258132,-0.406506 c 0.162992,-0.16469 0.398968,-0.855999 0.372127,-1.090152 l -0.01144,-0.09976 -0.08328,0.132241 c -0.197438,0.313551 -0.271966,0.480462 -0.271966,0.609122 0,0.0615 -0.03149,0.174882 -0.06999,0.251994 -0.159479,0.319434 -0.133964,0.397129 0.06454,0.196552 z m 4.062014,-0.163405 c 0.04924,-0.07593 0.05023,-0.108376 0.0072,-0.234037 -0.02749,-0.08023 -0.06801,-0.151951 -0.09004,-0.159365 -0.02203,-0.0074 -0.101714,0.05065 -0.177066,0.129049 l -0.137002,0.142537 0.124009,0.103963 c 0.152354,0.127724 0.199672,0.130814 0.272927,0.01786 z m 6.619344,2.116791 -0.299149,-0.08273 -0.01065,-0.385265 c -0.01251,-0.453038 0.0045,-0.475982 0.315531,-0.425992 0.231298,0.03717 0.4076,0.123504 0.462017,0.226246 0.02233,0.04217 0.03519,0.221106 0.02915,0.40579 -0.01054,0.322084 -0.01314,0.330548 -0.104282,0.337521 -0.05141,0.0039 -0.228102,-0.03007 -0.392637,-0.07557 z m 1.829091,-0.146461 c -0.05519,-0.110415 -0.14856,-0.271833 -0.207493,-0.358711 -0.120123,-0.177076 -0.134979,-0.268158 -0.04916,-0.301438 0.08192,-0.03176 0.218174,0.109793 0.419035,0.435303 0.181639,0.294375 0.185371,0.388303 0.01645,0.413764 -0.06197,0.0093 -0.09961,-0.03042 -0.17883,-0.188918 z m -7.813171,-0.0703 c -0.02692,-0.044 -0.09292,-0.915467 -0.07108,-0.938553 0.0076,-0.0081 0.102668,0.01078 0.211265,0.0418 0.219625,0.06273 0.217191,0.05383 0.106239,0.388444 -0.04134,0.124685 -0.09307,0.298971 -0.114955,0.387289 -0.03912,0.157938 -0.08376,0.199033 -0.131468,0.121024 z m 9.742151,-0.996863 c -0.258953,-0.107197 -0.82012,-0.392702 -1.233993,-0.627844 -0.77567,-0.440679 -2.96139,-1.559852 -3.215861,-1.646651 -0.279695,-0.09539 -1.093968,-0.505508 -1.192364,-0.600537 -0.06703,-0.06475 -0.02712,-0.169299 0.06463,-0.169299 0.104148,0 0.281038,0.08206 1.9504,0.904767 0.832946,0.410504 1.741614,0.837614 2.019261,0.949134 0.563865,0.226493 1.884566,0.881642 1.988037,0.98619 0.07266,0.07342 0.05803,0.171259 -0.03723,0.248814 -0.07431,0.0605 -0.09573,0.05773 -0.34287,-0.04457 z m -12.655045,-0.21992 c -0.0075,-0.02597 -0.03122,-0.353283 -0.05273,-0.727354 -0.02483,-0.431731 -0.06084,-0.741778 -0.0986,-0.848921 -0.09304,-0.264044 -0.23913,-0.490539 -0.367117,-0.569182 -0.104418,-0.06417 -0.128145,-0.114482 -0.217793,-0.461832 -0.05533,-0.214393 -0.161133,-0.553106 -0.235107,-0.752671 -0.07397,-0.199566 -0.134498,-0.39752 -0.134498,-0.439899 0,-0.09578 0.138666,-0.208772 0.36198,-0.29496 0.1517,-0.05853 0.20581,-0.06073 0.486338,-0.01975 0.588765,0.08602 1.047178,0.329249 1.459079,0.774174 0.382595,0.413269 0.762628,1.064913 0.875834,1.501787 l 0.04494,0.173428 -0.232508,0.343024 c -0.400454,0.590789 -0.963281,1.0652 -1.532877,1.292058 -0.222008,0.08842 -0.337319,0.09815 -0.356938,0.0301 z m 0.411066,-0.421553 c 0.02673,-0.107638 -0.03872,-0.249124 -0.115252,-0.249124 -0.07317,0 -0.109067,0.163338 -0.05735,0.260979 0.05624,0.106197 0.144792,0.10012 0.172605,-0.01181 z m 0.420082,-0.256681 c 0.08345,-0.08432 0.031,-0.294725 -0.07347,-0.294725 -0.06367,0 -0.105721,0.147019 -0.06956,0.243138 0.04029,0.107055 0.07555,0.11978 0.143028,0.05159 z m 0.554892,-0.442212 c 0.06626,-0.134279 0.01014,-0.249254 -0.12167,-0.249254 -0.124176,0 -0.155227,0.08902 -0.09079,0.260278 0.04723,0.125518 0.14766,0.120311 0.212457,-0.01103 z m -0.808239,-0.13837 c 0.07561,-0.200942 -0.1428,-0.3467 -0.229942,-0.153446 -0.02935,0.0651 -0.02877,0.111715 0.0022,0.17004 0.05925,0.111844 0.182883,0.102847 0.227824,-0.01659 z m 1.158276,-0.334495 c 0,-0.0087 0.0094,-0.04051 0.02084,-0.07069 0.02402,-0.06326 -0.07551,-0.177999 -0.154396,-0.177999 -0.05528,0 -0.07034,0.100393 -0.03072,0.204732 0.01935,0.05093 0.164271,0.08971 0.164271,0.04396 z m -0.654391,-0.210393 c 0,-0.163614 -0.09897,-0.198202 -0.185455,-0.06482 -0.08012,0.123569 -0.03844,0.222792 0.0874,0.208056 0.08489,-0.01 0.09806,-0.02919 0.09806,-0.143228 z m -0.864057,-0.0225 c 0.03675,-0.0968 0.02653,-0.157679 -0.03736,-0.222223 -0.07444,-0.07522 -0.16431,-0.01558 -0.16431,0.109029 0,0.148329 0.155234,0.235464 0.201665,0.113194 z m 0.525592,-0.444561 c 0.02721,-0.0778 0.02154,-0.11548 -0.02435,-0.161859 -0.05483,-0.05541 -0.06503,-0.05242 -0.122262,0.03584 -0.04968,0.0766 -0.05373,0.112739 -0.01986,0.176699 0.05355,0.101107 0.120515,0.08072 0.166474,-0.05068 z m 0.713726,-0.06666 c 0.03043,-0.09687 -0.06272,-0.205238 -0.147999,-0.172168 -0.05852,0.0227 -0.08191,0.178414 -0.03406,0.226766 0.0527,0.05325 0.158115,0.02164 0.18206,-0.0546 z M 21.49976,26.056271 c 0.01516,-0.07892 -0.119592,-0.238595 -0.173135,-0.205161 -0.06622,0.04135 -0.05179,0.202941 0.02198,0.246282 0.08158,0.04794 0.136936,0.03287 0.151146,-0.04113 z m 0.527357,-0.272158 c 0.05608,-0.06828 0.01109,-0.181699 -0.06621,-0.16691 -0.07874,0.01508 -0.107049,0.218794 -0.0304,0.218794 0.0297,0 0.07317,-0.02334 0.09661,-0.05189 z m 0.770057,-0.09782 c 0.03119,-0.0993 -0.04523,-0.235675 -0.123606,-0.220588 -0.0653,0.0126 -0.102703,0.146903 -0.06704,0.24079 0.03025,0.07964 0.16373,0.06551 0.190652,-0.0202 z m -1.44679,-0.233024 c 0.01309,-0.110105 -0.111115,-0.24188 -0.196693,-0.208707 -0.08185,0.03174 -0.07108,0.137425 0.0245,0.24022 0.09842,0.105857 0.157144,0.09511 0.172198,-0.03151 z M 22.3511,25.265624 c 0.03304,-0.05403 -0.05703,-0.223106 -0.118845,-0.223106 -0.07436,0 -0.125655,0.119765 -0.08454,0.197397 0.03941,0.0744 0.163969,0.09015 0.203382,0.02571 z m -0.678443,-0.209537 c 0.033,-0.0869 -0.01,-0.2025 -0.07533,-0.2025 -0.07652,0 -0.103398,0.09264 -0.05396,0.185984 0.05004,0.09447 0.09739,0.100522 0.12929,0.01651 z m -0.554945,-0.181456 c 0.0283,-0.113948 -0.0042,-0.172181 -0.09598,-0.172181 -0.08684,0 -0.134446,0.135566 -0.07361,0.209628 0.06798,0.08277 0.143894,0.066 0.169589,-0.03745 z m 3.60172,3.33237 C 24.526968,27.907808 24.227511,27.286925 24.125935,26.97649 24.018449,26.64798 23.97151,26.226089 23.999467,25.839802 l 0.02352,-0.324979 0.164723,-0.151134 c 0.182832,-0.167755 0.192284,-0.196721 0.202385,-0.620106 0.0069,-0.287544 0.0029,-0.301957 -0.128962,-0.47654 -0.15208,-0.201252 -0.152155,-0.201668 -0.09474,-0.534813 0.03097,-0.179659 0.06449,-0.258046 0.133982,-0.313279 0.336407,-0.267382 1.390358,-0.417035 2.007138,-0.285 0.37401,0.08008 0.374616,0.08099 0.348925,0.528906 -0.02493,0.434679 -0.04977,0.564519 -0.271181,1.417443 -0.361576,1.392876 -0.61568,2.038961 -1.12413,2.858204 -0.130838,0.210808 -0.248256,0.410595 -0.260931,0.443963 -0.04334,0.114118 -0.128863,0.06066 -0.280764,-0.175466 z m 0.318304,-0.105327 c 0.163603,-0.249813 0.174159,-0.308162 0.110474,-0.61073 -0.08593,-0.408232 -0.0515,-1.079728 0.07795,-1.520225 0.191304,-0.650968 0.541116,-0.933826 0.840287,-0.679468 l 0.114794,0.09761 0.03641,-0.09678 c 0.06794,-0.180557 0.155365,-0.560093 0.133994,-0.581685 -0.01168,-0.01181 -0.08052,0.007 -0.15294,0.04196 -0.448402,0.216055 -0.838974,-0.125893 -0.871448,-0.762982 -0.0095,-0.186918 0.0072,-0.358359 0.05081,-0.521192 0.03575,-0.133463 0.0569,-0.25084 0.04699,-0.26085 -0.03072,-0.03104 -0.436533,0.02953 -0.495317,0.07391 -0.04833,0.03651 -0.04296,0.06782 0.04063,0.237557 0.124727,0.253241 0.187991,0.692166 0.130623,0.906273 -0.02316,0.08643 -0.09069,0.209719 -0.15007,0.273939 -0.09039,0.09778 -0.135947,0.116778 -0.279924,0.116778 h -0.171965 v 0.184439 c 0,0.163988 0.01357,0.194917 0.122486,0.278844 0.256296,0.19754 0.422596,0.698893 0.376229,1.134274 -0.01156,0.108469 -0.104836,0.465245 -0.2073,0.79282 l -0.186298,0.595577 0.08193,0.160106 c 0.08701,0.170053 0.181191,0.292364 0.225109,0.292364 0.01465,0 0.07159,-0.06865 0.126541,-0.152552 z m -0.0859,-2.839482 c -0.02081,-0.05567 -0.01638,-0.128606 0.01218,-0.200786 0.03675,-0.09286 0.06952,-0.115467 0.181313,-0.125009 0.121634,-0.0104 0.139254,0 0.162167,0.09185 0.03831,0.154225 -0.05364,0.294907 -0.202293,0.309513 -0.09751,0.0096 -0.126957,-0.005 -0.153361,-0.07557 z m 2.693496,1.468107 c -0.07724,-0.09404 -0.403517,-0.249761 -0.640237,-0.305567 -0.129744,-0.03057 -0.24881,-0.06929 -0.264591,-0.08602 -0.02986,-0.03164 0.02262,-0.353179 0.153744,-0.941967 l 0.07679,-0.344791 0.334886,-0.252695 c 0.224782,-0.169612 0.410527,-0.351297 0.56495,-0.552602 0.126536,-0.164949 0.243139,-0.299905 0.259118,-0.299905 0.01598,0 0.03797,0.07227 0.04886,0.160586 0.07521,0.609615 0.107016,0.821826 0.123202,0.821826 0.01019,0 0.0065,-0.193191 -0.008,-0.429305 -0.02543,-0.411231 -0.0093,-0.590891 0.05317,-0.590891 0.01593,0 0.09218,0.14337 0.16945,0.318589 0.183061,0.415139 0.530623,0.95525 0.79475,1.235056 0.115671,0.122543 0.198798,0.234441 0.184722,0.248658 -0.05793,0.05854 -0.782661,-0.308747 -0.997997,-0.50578 -0.05254,-0.04807 -0.115223,-0.08741 -0.139292,-0.08741 -0.04823,0 -0.0445,0.02655 0.08687,0.618132 0.0455,0.204889 0.07446,0.404493 0.06435,0.443549 -0.01012,0.03906 -0.07957,0.108195 -0.154353,0.153652 -0.07478,0.04544 -0.240785,0.164665 -0.368884,0.264915 -0.252294,0.197461 -0.279156,0.207834 -0.341472,0.131969 z M 18.712355,25.98204 c -0.169673,-0.0821 -0.308498,-0.164236 -0.308498,-0.182518 0,-0.04246 0.179562,-0.09977 0.477472,-0.152406 0.236506,-0.04178 0.328977,-0.02746 0.285165,0.04417 -0.01312,0.02145 -0.03443,0.125153 -0.04736,0.230453 -0.01292,0.1053 -0.04033,0.19554 -0.06089,0.200526 -0.02057,0.005 -0.176218,-0.05812 -0.345892,-0.140228 z m 4.861651,-0.153875 c -0.07474,-0.09268 -0.159537,-0.342259 -0.197192,-0.580438 -0.02936,-0.185712 -0.02441,-0.321342 0.02228,-0.609342 0.03938,-0.242957 0.05227,-0.468972 0.03746,-0.656669 -0.01243,-0.157405 -0.01238,-0.296516 6e-5,-0.309123 0.04954,-0.05005 0.135502,0.02803 0.22308,0.202668 0.185729,0.370357 0.248814,0.815358 0.162792,1.14836 -0.02147,0.08312 -0.05052,0.303983 -0.06455,0.490797 -0.02005,0.267186 -0.03821,0.342117 -0.08503,0.351141 -0.03274,0.0064 -0.07726,-0.01052 -0.09893,-0.0374 z M 22.872688,24.80636 c -0.09024,-0.304905 -0.108225,-0.596668 -0.05806,-0.941695 0.02516,-0.173051 0.0538,-0.344414 0.06363,-0.380782 0.03451,-0.127595 0.129653,-0.06506 0.229925,0.151148 0.08883,0.191527 0.100597,0.262003 0.09935,0.59511 -0.0011,0.312085 -0.0166,0.412373 -0.08874,0.576219 -0.04803,0.109104 -0.109847,0.19837 -0.137368,0.19837 -0.02798,0 -0.07592,-0.08746 -0.108745,-0.19837 z m -0.578621,-0.391366 c -0.118387,-0.188631 -0.131378,-0.23357 -0.188569,-0.652174 -0.02092,-0.153121 -0.0671,-0.328121 -0.102632,-0.3889 -0.05662,-0.09683 -0.0577,-0.114895 -0.0089,-0.146095 0.03066,-0.01959 0.120503,-0.03588 0.19966,-0.03618 0.270597,-0.0013 0.435683,0.295931 0.435683,0.783885 0,0.275548 -0.09395,0.613574 -0.170545,0.613574 -0.03051,0 -0.10464,-0.07835 -0.164738,-0.174103 z m -0.591249,-0.188826 c -0.147939,-0.117818 -0.259591,-0.327951 -0.292166,-0.549888 -0.01324,-0.09023 -0.06495,-0.236439 -0.114904,-0.324913 l -0.09083,-0.160845 0.100602,-0.03865 c 0.217739,-0.08366 0.53277,0.146459 0.608897,0.444743 0.06318,0.247567 0.113596,0.61643 0.09202,0.673262 -0.03191,0.08402 -0.167787,0.06445 -0.303622,-0.0437 z m -1.433148,-0.0055 c -0.02908,-0.03637 -0.08454,-0.129361 -0.123252,-0.206668 -0.03872,-0.07729 -0.144574,-0.210796 -0.235241,-0.29666 -0.09067,-0.08586 -0.158672,-0.175648 -0.151124,-0.199525 0.0076,-0.02387 0.07249,-0.0758 0.14432,-0.115416 0.223534,-0.12327 0.426884,-0.01508 0.512154,0.27251 0.02311,0.07794 0.101359,0.199837 0.173882,0.270859 0.07252,0.07102 0.13186,0.160237 0.13186,0.198242 0,0.135203 -0.357405,0.195746 -0.452599,0.07665 z m 0.641995,-0.08255 c -0.0705,-0.07123 -0.151375,-0.297503 -0.151794,-0.424644 -1.2e-4,-0.03477 -0.06121,-0.143981 -0.135752,-0.242659 -0.127697,-0.16904 -0.131614,-0.182334 -0.06764,-0.22961 0.09034,-0.06674 0.220513,-0.06333 0.372965,0.0097 0.16412,0.0787 0.223232,0.176687 0.30893,0.51213 0.03908,0.152952 0.08292,0.305618 0.09744,0.33926 0.05215,0.120869 -0.30971,0.151381 -0.424143,0.03576 z m -2.045326,-0.305482 c -0.05472,-0.08355 -0.08842,-0.163106 -0.07488,-0.176777 0.01853,-0.01873 0.40375,0.136487 0.505833,0.203824 0.05011,0.03304 -0.101144,0.124853 -0.205695,0.124853 -0.105409,0 -0.141872,-0.02459 -0.225255,-0.1519 z m 0.256071,-0.349934 c -0.107271,-0.109752 -0.195039,-0.211782 -0.195039,-0.226713 0,-0.03894 0.163394,-0.03352 0.436313,0.01451 0.132294,0.02328 0.236775,0.06117 0.236775,0.08585 0,0.05081 -0.216436,0.3259 -0.256409,0.3259 -0.01463,0 -0.114369,-0.0898 -0.22164,-0.199553 z m 4.366996,-0.08525 c -0.297054,-0.15685 -1.778322,-0.889749 -2.580167,-1.276608 -0.195383,-0.09426 -0.473032,-0.243828 -0.616997,-0.332367 -0.240496,-0.147914 -1.520378,-0.786715 -1.804247,-0.90052 -0.107483,-0.04309 -0.121531,-0.06542 -0.121531,-0.193061 0,-0.07937 0.01287,-0.152354 0.0286,-0.162183 0.01573,-0.0099 0.415375,0.179244 0.888102,0.420137 0.472725,0.240894 1.339076,0.669913 1.925223,0.95338 1.085621,0.525023 1.903686,0.954835 2.460743,1.2929 0.252375,0.15316 0.308456,0.203719 0.299149,0.269692 -0.01806,0.128035 -0.133972,0.110753 -0.478875,-0.07137 z m 11.81642,-0.148659 c -0.215949,-0.05001 -0.645042,-0.169248 -0.953541,-0.264977 -0.726326,-0.225379 -1.181906,-0.296634 -1.738809,-0.271978 -0.406633,0.01801 -0.634194,0.05786 -1.776202,0.311046 -0.701927,0.155627 -2.17863,0.172311 -2.736145,0.03093 -0.06368,-0.01615 -0.09857,-0.07227 -0.144775,-0.232883 -0.08043,-0.279547 -0.242324,-0.598733 -0.401069,-0.790729 -0.101685,-0.122984 -0.133766,-0.20146 -0.153628,-0.375796 -0.01381,-0.121194 -0.0608,-0.335469 -0.104444,-0.476177 -0.07935,-0.255864 -0.07478,-0.337325 0.01479,-0.263601 0.100013,0.08232 0.572765,0.198681 0.956589,0.235452 0.502638,0.04816 1.365324,0.0475 1.708618,-0.0013 0.451476,-0.06421 1.830865,-0.08771 2.281017,-0.03887 0.482262,0.05231 0.996492,0.153044 1.461842,0.286338 0.43479,0.124543 1.29193,0.559847 1.716627,0.871789 0.350549,0.257485 1.071813,0.636503 1.458355,0.766357 0.1234,0.04146 0.329533,0.08737 0.458072,0.102014 0.56071,0.0639 0.01931,0.173157 -0.94419,0.190516 -0.64389,0.01155 -0.747283,0.0043 -1.103115,-0.07813 z M 24.882323,22.283074 c -0.08577,-0.03484 -0.101444,-0.110558 -0.05027,-0.242789 0.0261,-0.06742 0.06789,-0.07417 0.474141,-0.07657 0.329471,-0.0019 0.481679,-0.01894 0.584319,-0.06522 0.166998,-0.07532 0.478202,-0.127543 0.478202,-0.08024 0,0.01858 -0.121997,0.09675 -0.271105,0.173675 -0.149107,0.07693 -0.346566,0.182685 -0.438797,0.235 -0.136654,0.0775 -0.216255,0.09467 -0.43003,0.0927 -0.144284,-0.0013 -0.300194,-0.01777 -0.34647,-0.03656 z m -3.094331,-0.434705 c -1.591067,-0.788884 -2.029954,-1.012002 -2.108004,-1.071678 -0.08576,-0.06557 -0.08661,-0.07114 -0.02526,-0.165754 0.03491,-0.05384 0.12533,-0.145083 0.200924,-0.202759 0.07559,-0.05768 0.222874,-0.185944 0.327292,-0.285026 0.218433,-0.207288 0.74835,-0.475982 1.171345,-0.593942 0.328016,-0.09147 0.710992,-0.07962 1.368547,0.04234 0.489171,0.09073 0.687681,0.162884 1.503021,0.546316 l 0.618058,0.290661 -0.02304,0.153822 c -0.05637,0.376265 -0.166826,0.97331 -0.183108,0.989775 -0.0098,0.01 -0.150238,-0.01578 -0.312011,-0.05715 -0.420245,-0.107431 -0.698415,-0.129476 -1.054431,-0.08354 -0.333718,0.04305 -0.580425,0.15277 -0.654736,0.291168 -0.08123,0.151288 -0.283937,0.354943 -0.350676,0.35232 -0.03662,-0.0015 -0.25168,-0.09439 -0.477912,-0.206563 z m 5.071928,-0.17196 c -0.23217,-0.1274 -0.476663,-0.14533 -0.641328,-0.04704 -0.08212,0.04901 -0.133191,0.05501 -0.229873,0.02699 -0.06836,-0.01981 -0.127608,-0.06092 -0.131657,-0.09136 -0.0041,-0.03044 -0.01837,-0.172494 -0.03184,-0.315682 -0.03021,-0.321213 -0.09403,-0.395416 -0.440319,-0.511857 -0.28857,-0.09703 -0.304313,-0.136734 -0.147344,-0.371565 0.186078,-0.278392 0.442021,-0.424306 0.744218,-0.424306 0.450925,0 0.739797,0.331625 1.002634,1.151023 0.122387,0.381549 0.170695,0.704944 0.104139,0.69714 -0.01542,-0.0019 -0.118312,-0.05281 -0.228634,-0.113351 z m -1.683109,-0.04515 -0.200981,-0.07777 0.02348,-0.229726 c 0.02833,-0.277144 0.07848,-0.324186 0.34558,-0.324186 h 0.195866 l 0.06086,0.217262 c 0.03347,0.119491 0.06918,0.246138 0.07935,0.281442 0.02453,0.08514 -0.113191,0.220288 -0.219043,0.214976 -0.04627,-0.0023 -0.174576,-0.03923 -0.285115,-0.08199 z m -7.578323,-0.825035 c -0.102059,-0.106338 -0.337008,-0.316615 -0.522107,-0.467269 -0.341296,-0.277781 -0.491906,-0.423852 -0.464077,-0.45008 0.01878,-0.01771 1.32638,0.08283 1.450148,0.111482 0.0812,0.0188 0.08655,0.03381 0.06392,0.179244 -0.01358,0.0873 -0.05907,0.307502 -0.101086,0.489343 -0.06753,0.292298 -0.08594,0.330626 -0.158812,0.330626 -0.05006,0 -0.155296,-0.07593 -0.267988,-0.193346 z m 12.409858,-0.368696 c -0.244862,-0.08438 -0.416774,-0.21691 -0.589135,-0.454168 -0.205016,-0.282208 -0.566135,-0.500301 -0.636882,-0.384626 -0.03235,0.05287 0.08768,0.383718 0.188086,0.518466 0.04874,0.06541 0.16606,0.156809 0.260703,0.20311 0.226868,0.110962 0.173115,0.169299 -0.107677,0.116856 -0.365288,-0.06823 -0.479351,-0.153757 -0.811623,-0.608536 -0.16682,-0.228325 -0.364536,-0.466141 -0.439367,-0.528465 -0.20016,-0.166714 -0.133709,-0.205368 0.381482,-0.221883 0.534805,-0.01716 0.858606,0.05974 1.418846,0.336974 0.357277,0.176804 0.434913,0.200929 0.695584,0.216171 0.167273,0.0098 0.376222,-0.0029 0.486018,-0.02951 0.105926,-0.02569 0.201086,-0.03811 0.211465,-0.02764 0.07263,0.0734 -0.327181,0.661693 -0.545525,0.8027 -0.190724,0.12318 -0.294582,0.135463 -0.511975,0.06055 z m -2.087782,-0.193474 c -0.36029,-0.0543 -0.666584,-0.257278 -0.846803,-0.56117 -0.04503,-0.07592 -0.139129,-0.210367 -0.209119,-0.298789 -0.10797,-0.136385 -0.117942,-0.164353 -0.06581,-0.184569 0.102923,-0.03991 0.501256,0.01906 0.685837,0.101536 0.225383,0.100705 0.355596,0.228635 0.51734,0.508274 0.07212,0.124699 0.164991,0.263717 0.206379,0.308929 0.04139,0.04523 0.06408,0.100482 0.05043,0.122803 -0.02719,0.04446 -0.06103,0.04476 -0.338254,0.003 z m -1.715069,-0.494128 c -0.05419,-0.04307 -0.09853,-0.10247 -0.09853,-0.132009 0,-0.06531 0.285929,-0.280884 0.372551,-0.280884 0.07812,0 0.279111,0.207823 0.248846,0.257305 -0.01982,0.03241 -0.373005,0.233907 -0.410001,0.233907 -0.0079,0 -0.05867,-0.03525 -0.112869,-0.07832 z"
       id="path7724"
       inkscape:connector-curvature="0" />
  </g>
</svg>
