<?xml version="1.0" encoding="UTF-8" standalone="no"?>
<svg
   xmlns:dc="http://purl.org/dc/elements/1.1/"
   xmlns:cc="http://creativecommons.org/ns#"
   xmlns:rdf="http://www.w3.org/1999/02/22-rdf-syntax-ns#"
   xmlns:svg="http://www.w3.org/2000/svg"
   xmlns="http://www.w3.org/2000/svg"
   xmlns:sodipodi="http://sodipodi.sourceforge.net/DTD/sodipodi-0.dtd"
   xmlns:inkscape="http://www.inkscape.org/namespaces/inkscape"
   width="2.25in"
   height="2.25in"
   viewBox="0 0 57.150001 57.150002"
   version="1.1"
   id="svg8"
   inkscape:version="1.0.2 (394de47547, 2021-03-26)"
   sodipodi:docname="road_building.svg">
  <defs
     id="defs2" />
  <sodipodi:namedview
     id="base"
     pagecolor="#ffffff"
     bordercolor="#666666"
     borderopacity="1.0"
     inkscape:pageopacity="0.0"
     inkscape:pageshadow="2"
     inkscape:zoom="3.5681818"
     inkscape:cx="132"
     inkscape:cy="132"
     inkscape:document-units="mm"
     inkscape:current-layer="layer1"
     inkscape:document-rotation="0"
     showgrid="false"
     units="in"
     inkscape:window-width="3768"
     inkscape:window-height="2096"
     inkscape:window-x="72"
     inkscape:window-y="27"
     inkscape:window-maximized="1" />
  <metadata
     id="metadata5">
    <rdf:RDF>
      <cc:Work
         rdf:about="">
        <dc:format>image/svg+xml</dc:format>
        <dc:type
           rdf:resource="http://purl.org/dc/dcmitype/StillImage" />
        <dc:title></dc:title>
      </cc:Work>
    </rdf:RDF>
  </metadata>
  <g
     inkscape:label="Layer 1"
     inkscape:groupmode="layer"
     id="layer1">
    <g
       id="g1192"
       transform="matrix(0.60758699,0,0,0.60758699,6.9044871,4.2962853)">
      <path
         inkscape:connector-curvature="0"
         style="display:inline;fill:#800000;fill-opacity:1;stroke:none;stroke-width:0.282222"
         d="m 42.49701,63.784399 -0.480676,-0.06268 -0.0044,-0.207885 -0.0044,-0.207884 0.329523,-0.215392 c 0.181238,-0.118449 0.971968,-0.761633 1.75718,-1.429287 l 1.427652,-1.213908 3.309564,-0.12135 c 1.820262,-0.06674 3.885926,-0.109519 4.590375,-0.09506 l 1.280812,0.02627 -0.484692,0.635415 c -0.450799,0.590974 -1.80242,1.81816 -2.789873,2.533029 l -0.424637,0.307397 -4.012971,0.05701 c -2.20713,0.03135 -4.229272,0.02864 -4.493644,-0.0056 z"
         id="path4445" />
      <path
         inkscape:connector-curvature="0"
         style="display:inline;fill:#800000;fill-opacity:1;stroke:none;stroke-width:0.282222"
         d="m 34.129531,63.778049 -2.048522,-0.0127 -0.0034,-0.160585 c -0.0017,-0.08834 0.192848,-0.30559 0.432613,-0.482825 0.239768,-0.177208 0.915216,-0.705302 1.500993,-1.173508 0.585783,-0.468235 1.215796,-0.971545 1.400037,-1.118501 l 0.334983,-0.267191 4.14644,-0.08587 4.14644,-0.08587 0.0032,0.159238 c 0.0031,0.149507 -1.060527,1.073726 -2.966974,2.578111 l -0.827843,0.65326 -2.03481,0.0045 c -1.119141,0.0028 -2.956642,0 -4.083327,-0.0082 z"
         id="path4443" />
      <path
         inkscape:connector-curvature="0"
         style="display:inline;fill:#800000;fill-opacity:1;stroke:none;stroke-width:0.282222"
         d="m 24.875125,63.760354 -1.890211,-0.05715 0.399528,-0.375554 c 0.219743,-0.206558 0.902247,-0.722178 1.516664,-1.14585 0.614421,-0.423644 1.296436,-0.939264 1.515593,-1.145811 l 0.398467,-0.375542 3.639854,-0.08876 3.639856,-0.08876 0.202469,0.119411 0.20247,0.119411 -1.607366,1.244289 c -0.884053,0.684333 -1.798529,1.379277 -2.032166,1.54432 l -0.42479,0.300002 -1.835079,0.0037 c -1.009292,0.0028 -2.685675,-0.02201 -3.725289,-0.05359 z"
         id="path4441" />
      <path
         inkscape:connector-curvature="0"
         style="display:inline;fill:#800000;fill-opacity:1;stroke:none;stroke-width:0.282222"
         d="m 17.046307,63.78327 -1.874297,-0.01722 -0.0028,-0.136708 c -0.0025,-0.132475 2.971424,-2.285718 3.716587,-2.690743 l 0.368923,-0.20053 3.148257,-0.06434 3.148256,-0.06434 0.09335,0.144266 0.09334,0.144267 -0.295394,0.268306 c -0.16247,0.147573 -1.051385,0.804022 -1.975378,1.458778 l -1.679986,1.19047 -1.433269,-0.0073 c -0.7883,-0.004 -2.2767,-0.01524 -3.307559,-0.02455 z"
         id="path4439" />
      <path
         inkscape:connector-curvature="0"
         style="display:inline;fill:#800000;fill-opacity:1;stroke:none;stroke-width:0.282222"
         d="m 19.981158,60.29887 c -8.47e-4,-0.03699 0.521363,-0.39278 1.160283,-0.790637 0.638923,-0.397849 1.575359,-1.014513 2.080971,-1.370358 l 0.919302,-0.646989 0.853714,-0.01767 0.853719,-0.01767 0.0031,0.148226 c 0.0017,0.08152 -0.812921,0.725949 -1.810243,1.432049 l -1.813306,1.28382 -1.123058,0.02325 c -0.617683,0.01279 -1.123682,-0.007 -1.12445,-0.04401 z"
         id="path4437" />
      <path
         inkscape:connector-curvature="0"
         style="display:inline;fill:#800000;fill-opacity:1;stroke:none;stroke-width:0.282222"
         d="m 23.503466,60.085044 0.06505,-0.209524 1.706875,-1.209077 1.706874,-1.209088 3.352665,-0.144486 3.352659,-0.144484 0.003,0.142638 c 0.0031,0.148014 -2.177412,1.881195 -3.139668,2.495606 l -0.549264,0.350707 -3.281593,0.06882 -3.281595,0.06882 0.06505,-0.209525 z"
         id="path4435" />
      <path
         inkscape:connector-curvature="0"
         style="display:inline;fill:#800000;fill-opacity:1;stroke:none;stroke-width:0.282222"
         d="m 31.47965,59.979648 -0.0035,-0.167179 1.158305,-0.885947 c 0.637077,-0.487265 1.466251,-1.100192 1.842617,-1.362058 l 0.684307,-0.476114 3.727148,-0.07719 3.727162,-0.07719 -0.208043,0.261502 c -0.114419,0.143834 -0.910237,0.807474 -1.768475,1.474766 l -1.560438,1.213253 -3.797827,0.131671 -3.797833,0.131671 -0.0035,-0.167189 z"
         id="path4433" />
      <path
         inkscape:connector-curvature="0"
         style="display:inline;fill:#800000;fill-opacity:1;stroke:none;stroke-width:0.282222"
         d="m 40.406714,59.730232 c 0.0366,-0.117865 0.825858,-0.820595 1.753921,-1.561623 l 1.687378,-1.347318 4.15227,-0.138379 4.152279,-0.138379 0.0031,0.154305 c 0.0036,0.174162 -2.792086,2.556174 -3.371858,2.872929 l -0.376496,0.205698 -4.033612,0.08354 -4.033613,0.08353 0.06654,-0.214302 z"
         id="path4431" />
      <path
         inkscape:connector-curvature="0"
         style="display:inline;fill:#800000;fill-opacity:1;stroke:none;stroke-width:0.282222"
         d="m 50.123486,59.575114 c -0.0017,-0.0917 0.555283,-0.632739 1.238176,-1.202303 0.682905,-0.569561 1.394328,-1.179034 1.580944,-1.354396 0.391146,-0.367543 0.664713,-0.443111 2.040791,-0.56375 l 1.000523,-0.08771 0.006,0.287638 c 0.0094,0.452941 -0.482278,2.150931 -0.749695,2.589143 l -0.242418,0.397242 -2.435408,0.05044 -2.435416,0.05044 -0.0035,-0.166737 z"
         id="path4429" />
      <path
         inkscape:connector-curvature="0"
         style="display:inline;fill:#800000;fill-opacity:1;stroke:none;stroke-width:0.282222"
         d="m 25.285592,56.638282 c 0.316966,-0.269729 1.003088,-0.871864 1.524714,-1.338081 l 0.948408,-0.847663 2.107145,-0.05542 c 1.158934,-0.03045 2.361294,-0.09393 2.671916,-0.141023 l 0.564769,-0.08563 0.003,0.142406 c 0.0047,0.227406 -0.670698,0.806947 -2.038284,1.748976 l -1.271925,0.876136 -2.542991,0.09535 -2.542993,0.09536 0.576298,-0.490424 z"
         id="path4427" />
      <path
         inkscape:connector-curvature="0"
         style="display:inline;fill:#800000;fill-opacity:1;stroke:none;stroke-width:0.282222"
         d="m 31.131227,56.678927 c 0.04737,-0.08031 0.843512,-0.685594 1.769209,-1.345057 l 1.683088,-1.199024 3.43898,-0.184988 3.438987,-0.184982 -0.0035,0.158431 c -0.0036,0.164123 -0.925605,0.921749 -2.537079,2.084846 l -0.932454,0.673009 -3.471672,0.0719 -3.471663,0.0719 0.08613,-0.14603 z"
         id="path4425" />
      <path
         inkscape:connector-curvature="0"
         style="display:inline;fill:#800000;fill-opacity:1;stroke:none;stroke-width:0.282222"
         d="m 39.651801,56.416971 -0.09531,-0.1473 0.147492,-0.141359 c 0.08112,-0.07774 0.796609,-0.633558 1.589975,-1.235143 l 1.442497,-1.093789 0.537616,-0.09239 c 0.29569,-0.05081 2.046044,-0.17055 3.889677,-0.266079 l 3.352058,-0.173691 0.0031,0.147526 c 0.0034,0.16074 -2.610372,2.36923 -3.169451,2.67808 l -0.344701,0.190427 -3.628799,0.140501 -3.628807,0.14051 -0.09531,-0.147295 z"
         id="path4423" />
      <path
         inkscape:connector-curvature="0"
         style="display:inline;fill:#800000;fill-opacity:1;stroke:none;stroke-width:0.282222"
         d="m 48.655713,56.039883 c -8.46e-4,-0.03943 0.700594,-0.655755 1.558699,-1.369621 l 1.560184,-1.297926 1.329371,-0.136494 c 0.731147,-0.07508 1.682555,-0.140138 2.114236,-0.144588 l 0.784869,-0.008 0.08038,1.436472 0.08038,1.436474 -3.753318,0.07773 c -2.06432,0.04275 -3.753981,0.04545 -3.754797,0.0061 z"
         id="path4421" />
      <path
         inkscape:connector-curvature="0"
         style="display:inline;fill:#800000;fill-opacity:1;stroke:none;stroke-width:0.282222"
         d="m 28.392608,54.153005 c -0.0031,-0.0821 0.511135,-0.650249 1.143223,-1.262567 l 1.149248,-1.113296 1.39641,-0.02893 1.396405,-0.02891 -0.336895,0.333316 c -0.18529,0.183334 -0.867768,0.70735 -1.516608,1.164491 l -1.179712,0.831169 -0.74959,0.01552 c -0.412282,0.0086 -0.872637,0.06568 -1.023025,0.126997 l -0.273428,0.111472 -0.006,-0.149267 z"
         id="path4419" />
      <path
         inkscape:connector-curvature="0"
         style="display:inline;fill:#800000;fill-opacity:1;stroke:none;stroke-width:0.282222"
         d="m 31.353322,53.879692 -0.004,-0.202943 1.57826,-1.076528 1.578266,-1.076523 1.057345,-0.02275 c 0.581542,-0.01259 1.93841,-0.09179 3.015262,-0.176242 l 1.957922,-0.153551 0.0035,0.174055 0.0035,0.174049 -1.562083,1.105097 -1.562072,1.105104 -1.072935,0.02306 c -0.59011,0.01276 -1.953997,0.09211 -3.030849,0.176561 l -1.95792,0.153549 -0.0043,-0.202946 z"
         id="path4417" />
      <path
         inkscape:connector-curvature="0"
         style="display:inline;fill:#800000;fill-opacity:1;stroke:none;stroke-width:0.282222"
         d="m 38.745975,53.361826 c 0.05448,-0.09237 0.732716,-0.634433 1.507202,-1.204592 l 1.40815,-1.036642 3.285476,-0.213162 3.285472,-0.213166 0.114792,0.110135 0.114796,0.110134 -0.343253,0.246956 c -0.188789,0.135822 -0.829445,0.626347 -1.423686,1.090055 l -1.080432,0.843108 -0.816474,0.151931 -0.81648,0.151923 -2.667305,0.06563 -2.667307,0.06563 0.09905,-0.167945 z"
         id="path4415" />
      <path
         inkscape:connector-curvature="0"
         style="display:inline;fill:#800000;fill-opacity:1;stroke:none;stroke-width:0.282222"
         d="m 46.675992,53.036271 c -0.0034,-0.161281 0.282129,-0.412284 1.859717,-1.635173 l 0.920056,-0.713189 0.37086,-0.08289 c 0.20397,-0.04559 1.487384,-0.142497 2.85203,-0.215352 l 2.481174,-0.13247 0.06914,0.112889 c 0.03802,0.06209 0.122903,0.3471 0.188621,0.633372 l 0.119481,0.520482 -0.902826,0.647023 -0.902823,0.647023 -3.526092,0.187358 -3.526096,0.187356 -0.0031,-0.156427 z"
         id="path4413" />
      <path
         inkscape:connector-curvature="0"
         style="display:inline;fill:#800000;fill-opacity:1;stroke:none;stroke-width:0.282222"
         d="m 55.1377,52.688585 -0.09643,-0.149025 0.316805,-0.298862 0.3168,-0.298865 0.11511,0.282352 0.115113,0.282349 -0.09469,0.160551 c -0.120182,0.203776 -0.545973,0.217379 -0.672713,0.0215 z"
         id="path4411" />
      <path
         inkscape:connector-curvature="0"
         style="display:inline;fill:#800000;fill-opacity:1;stroke:none;stroke-width:0.282222"
         d="m 30.600554,51.200419 -0.0058,-0.281384 0.589184,-0.614107 c 0.32405,-0.337753 0.921339,-0.852001 1.32731,-1.142769 l 0.738133,-0.52867 1.130356,-0.131191 c 0.621702,-0.07216 1.948262,-0.164693 2.94791,-0.205627 l 1.817542,-0.07444 0.05729,0.163364 0.05729,0.163365 -1.209602,0.896651 c -0.66528,0.49316 -1.448776,1.0781 -1.741105,1.299876 l -0.531509,0.403227 -1.150366,0.02498 c -0.632694,0.01366 -1.796203,0.08862 -2.585565,0.166545 l -1.435207,0.141675 -0.0058,-0.281386 z"
         id="path4409" />
      <path
         inkscape:connector-curvature="0"
         style="display:inline;fill:#800000;fill-opacity:1;stroke:none;stroke-width:0.282222"
         d="m 37.256634,50.731701 c 0.06789,-0.218668 0.92366,-0.918574 2.444595,-1.999347 l 0.85896,-0.610376 1.043361,-0.123235 c 0.573857,-0.06778 1.902294,-0.152614 2.952084,-0.188519 l 1.908717,-0.06529 0.05568,0.156182 0.05568,0.156179 -0.968126,0.713082 c -0.532466,0.392201 -1.2356,0.949531 -1.562512,1.238521 l -0.594383,0.525436 -1.852591,0.167916 c -1.018926,0.09235 -2.4275,0.184782 -3.13016,0.205396 l -1.277572,0.03748 0.06627,-0.213437 z"
         id="path4407" />
      <path
         inkscape:connector-curvature="0"
         style="display:inline;fill:#800000;fill-opacity:1;stroke:none;stroke-width:0.282222"
         d="m 44.535266,50.312548 c 0.0045,-0.120617 1.90174,-1.622149 3.125185,-2.473362 l 0.535502,-0.372578 2.274726,-0.08663 c 1.251105,-0.04766 2.436534,-0.130293 2.634293,-0.183656 l 0.359568,-0.09703 0.220596,0.254875 0.220593,0.254869 -1.425547,1.107912 c -0.784047,0.609351 -1.581155,1.169557 -1.771345,1.244904 l -0.345804,0.136994 -2.9163,0.171721 -2.916301,0.171724 0.0048,-0.129746 z"
         id="path4405" />
      <path
         inkscape:connector-curvature="0"
         style="display:inline;fill:#800000;fill-opacity:1;stroke:none;stroke-width:0.282222"
         d="m 52.0128,49.795852 c -0.0031,-0.15372 1.845078,-1.636372 2.045044,-1.640515 0.06468,-0.0014 0.292238,0.338833 0.505672,0.755938 l 0.388052,0.758373 -0.102966,0.107324 -0.102963,0.10732 -1.364922,0.02825 -1.364917,0.02825 -0.003,-0.144972 z"
         id="path4403" />
      <path
         inkscape:connector-curvature="0"
         style="display:inline;fill:#800000;fill-opacity:1;stroke:none;stroke-width:0.282222"
         d="m 32.17272,47.642864 0.112274,-0.675347 0.285792,-0.232506 c 0.157187,-0.127877 0.519515,-0.389509 0.805177,-0.581406 l 0.519388,-0.3489 2.563941,-0.17487 2.56394,-0.174868 0.0034,0.162532 0.0034,0.162537 -1.434736,1.109354 -1.434747,1.109359 -2.050017,0.159732 -2.050017,0.159729 0.112271,-0.675349 z"
         id="path4401" />
      <path
         inkscape:connector-curvature="0"
         style="display:inline;fill:#800000;fill-opacity:1;stroke:none;stroke-width:0.282222"
         d="m 37.153561,47.765094 -0.0046,-0.223458 1.408571,-1.063853 1.408585,-1.063856 1.834438,-0.166379 c 1.008942,-0.09151 2.206783,-0.17905 2.661875,-0.194539 l 0.827436,-0.02814 0.0034,0.162376 0.0034,0.162374 -1.434521,1.081478 -1.434527,1.081479 -0.676419,0.10018 c -0.372031,0.0551 -1.557629,0.162202 -2.634668,0.238004 l -1.958239,0.137817 -0.0046,-0.223463 z"
         id="path4399" />
      <path
         inkscape:connector-curvature="0"
         style="display:inline;fill:#800000;fill-opacity:1;stroke:none;stroke-width:0.282222"
         d="m 43.594814,47.350902 -0.0039,-0.185688 1.415085,-1.113045 1.415088,-1.113042 2.084566,-0.19438 c 1.146514,-0.106912 2.321738,-0.176068 2.611614,-0.153682 l 0.527047,0.0407 0.004,0.192405 0.004,0.192399 -1.114625,0.891049 c -0.613043,0.490073 -1.26974,0.976506 -1.459331,1.080962 l -0.344707,0.18991 -2.567505,0.179056 -2.567511,0.17905 -0.0039,-0.185691 z"
         id="path4397" />
      <path
         inkscape:connector-curvature="0"
         style="display:inline;fill:#800000;fill-opacity:1;stroke:none;stroke-width:0.282222"
         d="m 50.044915,46.887468 c 0.0039,-0.07199 0.470304,-0.483094 1.036365,-0.913567 l 1.029214,-0.782682 0.264665,0.320088 c 0.145567,0.176045 0.389961,0.490536 0.543092,0.69887 l 0.27842,0.378787 -0.108658,0.184238 -0.108659,0.184234 -1.470798,0.03047 -1.470801,0.03047 0.0071,-0.130886 z"
         id="path4395" />
      <path
         inkscape:connector-curvature="0"
         style="display:inline;fill:#800000;fill-opacity:1;stroke:none;stroke-width:0.282222"
         d="m 32.154579,45.447903 c -0.04376,-0.130099 -0.129975,-0.597526 -0.191589,-1.03873 l -0.112023,-0.802197 0.90597,-0.127911 c 0.498289,-0.07035 1.631256,-0.143612 2.51771,-0.162806 l 1.611737,-0.03481 0.003,0.139635 c 0.0025,0.13221 -1.104951,1.267454 -1.747148,1.790598 l -0.297496,0.24235 -1.305243,0.115249 -1.305239,0.115245 -0.07957,-0.236539 z"
         id="path4393" />
      <path
         inkscape:connector-curvature="0"
         style="display:inline;fill:#800000;fill-opacity:1;stroke:none;stroke-width:0.282222"
         d="m 35.881591,45.267219 c -0.0044,-0.205717 1.537375,-1.740061 1.995661,-1.986226 l 0.376572,-0.202266 2.189517,-0.04534 2.189519,-0.04535 0.0023,0.09942 c 0.0011,0.05469 -0.31463,0.491182 -0.701692,0.969992 l -0.703755,0.870565 -0.540103,0.09333 c -0.297056,0.05134 -1.499647,0.160898 -2.672407,0.24347 l -2.132313,0.150131 -0.0031,-0.147732 z"
         id="path4391" />
      <path
         inkscape:connector-curvature="0"
         style="display:inline;fill:#800000;fill-opacity:1;stroke:none;stroke-width:0.282222"
         d="m 41.976987,44.814235 c 2.12e-4,-0.08612 0.324211,-0.538322 0.720045,-1.004894 l 0.719709,-0.848304 2.219372,-0.154646 2.219376,-0.154638 0.0031,0.157948 c 0.0017,0.08687 -0.335723,0.537411 -0.750048,1.001195 l -0.753313,0.843249 -0.754174,0.01674 c -0.414793,0.0091 -1.400014,0.08042 -2.189376,0.15834 l -1.435201,0.141679 2.54e-4,-0.156586 z"
         id="path4389" />
      <path
         inkscape:connector-curvature="0"
         style="display:inline;fill:#800000;fill-opacity:1;stroke:none;stroke-width:0.282222"
         d="m 47.193607,44.36106 c -0.0011,-0.05575 0.274608,-0.453684 0.612806,-0.88429 l 0.614903,-0.782932 0.595613,-0.01233 0.595619,-0.01233 0.748191,0.680124 0.748196,0.68013 -0.257779,0.178644 -0.257779,0.178647 -1.698836,0.03774 -1.698837,0.03774 -0.0023,-0.101357 z"
         id="path4387" />
      <path
         inkscape:connector-curvature="0"
         style="display:inline;fill:#800000;fill-opacity:1;stroke:none;stroke-width:0.282222"
         d="m 31.6724,42.909924 c -0.09948,-0.176976 -0.212147,-0.63029 -0.25036,-1.007367 l -0.06948,-0.685585 2.338033,-0.09656 2.338033,-0.09657 0.146392,0.140448 0.146389,0.140448 -0.640072,0.631937 c -0.352035,0.347563 -0.872913,0.752055 -1.157498,0.898878 l -0.517431,0.266937 -1.076565,0.06461 -1.076557,0.06461 -0.180881,-0.321781 z"
         id="path4385" />
      <path
         inkscape:connector-curvature="0"
         style="display:inline;fill:#800000;fill-opacity:1;stroke:none;stroke-width:0.282222"
         d="m 36.213894,41.981537 0.990318,-0.972913 2.257055,-0.04674 2.257069,-0.04675 0.0031,0.158098 c 0.0017,0.08695 -0.3898,0.526505 -0.870221,0.97678 l -0.873498,0.818687 -2.377155,0.04286 -2.37716,0.04286 0.990323,-0.97291 z"
         id="path4383" />
      <path
         inkscape:connector-curvature="0"
         style="display:inline;fill:#800000;fill-opacity:1;stroke:none;stroke-width:0.282222"
         d="m 41.153163,42.285942 c 0.178193,-0.214946 0.552546,-0.614914 0.831895,-0.88883 l 0.507919,-0.498015 1.964983,-0.04069 1.964989,-0.04072 0.0023,0.101357 c 0.0011,0.05575 -0.274611,0.453681 -0.612809,0.884293 l -0.614906,0.782929 -2.184072,0.04523 -2.184081,0.04523 0.32398,-0.390813 z"
         id="path4381" />
      <path
         inkscape:connector-curvature="0"
         style="display:inline;fill:#800000;fill-opacity:1;stroke:none;stroke-width:0.282222"
         d="m 45.931908,42.358868 -0.005,-0.239897 0.6474,-0.658904 c 0.356072,-0.362396 0.722577,-0.657115 0.81446,-0.654933 0.09188,0.0023 0.523053,0.303696 0.95817,0.67002 l 0.791122,0.666048 -0.09189,0.09578 c -0.05054,0.05268 -0.770811,0.155628 -1.600609,0.228777 l -1.508723,0.133009 z"
         id="path4379" />
      <path
         inkscape:connector-curvature="0"
         style="display:inline;fill:#800000;fill-opacity:1;stroke:none;stroke-width:0.282222"
         d="m 31.004021,40.744809 c -0.03895,-0.119033 -0.161654,-0.481201 -0.272674,-0.804802 -0.111021,-0.323605 -0.204137,-0.69843 -0.206923,-0.832942 l -0.0051,-0.244574 1.176641,-5.65e-4 c 0.647152,-2.82e-4 1.555352,0.03498 2.01821,0.07861 l 0.84157,0.07932 -0.651087,0.701096 c -0.3581,0.3856 -0.860515,0.816632 -1.116493,0.957845 l -0.465404,0.256749 -0.623982,0.0129 -0.623974,0.0129 -0.07082,-0.216433 z"
         id="path4377" />
      <path
         inkscape:connector-curvature="0"
         style="display:inline;fill:#800000;fill-opacity:1;stroke:none;stroke-width:0.282222"
         d="m 40.686532,40.587865 -1.287761,-0.06049 0.878078,-0.85458 0.87807,-0.85458 1.785177,-0.0057 c 0.981842,-0.0031 1.915396,0.04014 2.074559,0.09616 l 0.289393,0.101837 -0.587573,0.706317 -0.587572,0.706315 -1.077307,0.112604 -1.07731,0.112606 -1.287754,-0.0605 z"
         id="path4375" />
      <path
         inkscape:connector-curvature="0"
         style="display:inline;fill:#800000;fill-opacity:1;stroke:none;stroke-width:0.282222"
         d="m 45.675912,40.51942 -1.002995,-0.03151 -0.0025,-0.132952 c -0.0014,-0.07312 0.229622,-0.365004 0.513642,-0.648614 l 0.516396,-0.515663 0.63745,0.611579 0.637449,0.611584 -0.148102,0.06854 c -0.08145,0.0377 -0.599448,0.05436 -1.151091,0.03704 z"
         id="path4373" />
      <path
         inkscape:connector-curvature="0"
         style="display:inline;fill:#800000;fill-opacity:1;stroke:none;stroke-width:0.282222"
         d="m 33.519993,40.6587 c -8.47e-4,-0.04265 0.42944,-0.443781 0.956279,-0.891405 l 0.957884,-0.81385 2.336334,-0.04838 2.336335,-0.04839 0.0035,0.167954 c 0.0017,0.09237 -0.323252,0.489364 -0.72259,0.882206 l -0.726068,0.714248 -2.570025,0.05758 c -1.413516,0.03154 -2.570745,0.02266 -2.571629,-0.01998 z"
         id="path4371" />
      <path
         inkscape:connector-curvature="0"
         style="display:inline;fill:#800000;fill-opacity:1;stroke:none;stroke-width:0.282222"
         d="m 38.683234,38.513492 -0.242737,-0.153503 0.513551,-0.454347 c 0.282451,-0.249891 0.674057,-0.57003 0.870219,-0.711431 l 0.356672,-0.257077 1.59722,0.08017 1.597222,0.08018 0.116507,0.342324 0.116504,0.342328 -0.481663,0.431537 -0.481671,0.431538 -1.85954,0.01086 -1.859548,0.01087 -0.242736,-0.153504 z"
         id="path4369" />
      <path
         inkscape:connector-curvature="0"
         style="display:inline;fill:#800000;fill-opacity:1;stroke:none;stroke-width:0.282222"
         d="m 43.4087,38.364245 -0.0052,-0.249629 0.366545,-0.124748 0.366545,-0.124745 0.374328,0.359134 0.374325,0.359139 -0.735699,0.01524 -0.7357,0.01524 -0.0052,-0.249623 z"
         id="path4367" />
      <path
         inkscape:connector-curvature="0"
         style="display:inline;fill:#800000;fill-opacity:1;stroke:none;stroke-width:0.282222"
         d="m 30.809409,38.574853 -0.489737,-0.06335 -0.147549,-0.37671 c -0.08115,-0.20719 -0.204196,-0.591261 -0.273428,-0.853485 l -0.125879,-0.476769 0.918128,-0.01787 c 0.504977,-0.0096 1.448437,0.02125 2.096592,0.06895 l 1.17845,0.08672 -0.003,0.105599 c -0.0014,0.05807 -0.43594,0.447946 -0.965005,0.866377 l -0.961929,0.760778 -0.368419,-0.01851 c -0.20263,-0.01013 -0.5888,-0.04699 -0.858159,-0.08184 z"
         id="path4365" />
      <path
         inkscape:connector-curvature="0"
         style="display:inline;fill:#800000;fill-opacity:1;stroke:none;stroke-width:0.282222"
         d="m 33.124391,38.391163 c -0.003,-0.143753 0.05336,-0.26409 0.125205,-0.267414 0.07184,-0.0031 0.438463,-0.292337 0.814719,-0.642242 l 0.684103,-0.636182 2.176518,0.06797 c 1.197085,0.03738 2.21834,0.109353 2.269464,0.159947 l 0.09295,0.09197 -0.74888,0.695409 -0.74887,0.69541 -2.329903,0.04825 -2.329896,0.04825 -0.0054,-0.261366 z"
         id="path4363" />
      <path
         inkscape:connector-curvature="0"
         style="display:inline;fill:#800000;fill-opacity:1;stroke:#000000;stroke-width:0.282222;stroke-opacity:1"
         d="m 42.415828,36.717018 -0.111297,-0.172012 0.184526,-0.0039 0.184531,-0.0039 0.0036,0.174244 c 0.002,0.09584 -0.03097,0.174964 -0.07323,0.175841 -0.04226,8.47e-4 -0.126924,-0.07582 -0.188138,-0.170428 z"
         id="path4361" />
      <path
         inkscape:connector-curvature="0"
         style="display:inline;fill:none;fill-opacity:1;stroke:#000000;stroke-width:0.282222;stroke-opacity:1"
         d="m 37.92639,36.68301 -0.654835,-0.05482 -0.0035,-0.163725 c -0.0017,-0.09005 0.05538,-0.166449 0.127223,-0.169777 0.07184,-0.0031 0.438517,-0.289543 0.814843,-0.636035 l 0.684234,-0.629982 1.222081,0.08894 1.222082,0.08894 0.399522,0.352701 0.399525,0.352708 0.0047,0.224863 0.0047,0.22486 -0.333301,0.187354 -0.333302,0.187359 -1.449583,5.64e-4 c -0.79727,2.82e-4 -1.744263,-0.02396 -2.104416,-0.0541 z"
         id="path4359" />
      <path
         inkscape:connector-curvature="0"
         style="display:inline;fill:none;fill-opacity:1;stroke:#000000;stroke-width:0.282222;stroke-opacity:1"
         d="m 33.218108,36.60339 -1.525846,-0.0265 -0.003,-0.146468 c -0.0017,-0.08056 0.361775,-0.457646 0.807655,-0.837963 l 0.810687,-0.691486 1.310555,0.0071 c 0.720804,0.0039 1.821307,0.04878 2.445557,0.09977 l 1.134996,0.09271 -0.850621,0.782379 -0.850626,0.782371 -0.876737,-0.0177 c -0.482205,-0.0097 -1.56337,-0.02962 -2.402583,-0.04419 z"
         id="path4357" />
      <path
         inkscape:connector-curvature="0"
         style="display:inline;fill:none;fill-opacity:1;stroke:#000000;stroke-width:0.282222;stroke-opacity:1"
         d="M 29.41938,35.809516 C 29.31213,35.452203 29.221915,35.06185 29.218901,34.942069 l -0.0056,-0.217782 0.584299,-0.01211 c 0.321364,-0.0066 1.0673,0.02829 1.657641,0.07767 l 1.07335,0.08976 0.0025,0.128205 c 0.0014,0.07051 -0.403798,0.420725 -0.900571,0.778256 l -0.903224,0.65005 -0.556601,0.01152 -0.556593,0.01154 -0.194993,-0.649659 z"
         id="path4355" />
      <path
         inkscape:connector-curvature="0"
         style="display:inline;fill:none;fill-opacity:1;stroke:#000000;stroke-width:0.282222;stroke-opacity:1"
         d="m 37.363935,34.77599 -0.829013,-0.04812 -0.0031,-0.150055 c -0.0017,-0.08253 0.300544,-0.400956 0.671675,-0.707613 l 0.674782,-0.557561 1.141369,0.09311 1.141374,0.0931 0.288016,0.420316 0.288014,0.420314 -0.08977,0.249255 -0.08977,0.249253 -1.182277,-0.0069 c -0.650248,-0.0038 -1.555327,-0.0286 -2.011285,-0.05506 z"
         id="path4353" />
      <path
         inkscape:connector-curvature="0"
         style="display:inline;fill:none;fill-opacity:1;stroke:#000000;stroke-width:0.282222;stroke-opacity:1"
         d="m 34.616451,34.681885 c -0.240182,-0.02393 -1.123828,-0.07938 -1.963648,-0.123184 l -1.526949,-0.07964 -0.002,-0.115045 c -0.0011,-0.06328 0.382854,-0.389224 0.853285,-0.724326 l 0.855328,-0.60927 1.95887,0.08328 1.958876,0.08327 0.25393,0.13528 0.253935,0.135281 -0.92533,0.651402 c -0.508932,0.358273 -1.00503,0.6413 -1.102439,0.628949 -0.09741,-0.01236 -0.373623,-0.04205 -0.613808,-0.06599 z"
         id="path4351" />
      <path
         inkscape:connector-curvature="0"
         style="display:inline;fill:none;fill-opacity:1;stroke:#000000;stroke-width:0.282222;stroke-opacity:1"
         d="m 29.355959,34.430296 -0.288628,-0.0703 -0.11055,-0.380596 c -0.0608,-0.209325 -0.115273,-0.556994 -0.121047,-0.772595 l -0.01041,-0.392001 0.75979,-0.01575 c 0.417878,-0.0087 1.127463,0.02692 1.576851,0.07906 l 0.81707,0.09481 -0.05773,0.19453 c -0.03176,0.106999 -0.438286,0.457361 -0.903399,0.778583 l -0.845668,0.584053 -0.263779,-0.01476 c -0.145082,-0.0081 -0.393663,-0.04639 -0.552407,-0.08506 z"
         id="path4349" />
      <path
         inkscape:connector-curvature="0"
         style="display:inline;fill:none;fill-opacity:1;stroke:#000000;stroke-width:0.282222;stroke-opacity:1"
         d="m 36.976021,33.007444 -1.180874,-0.0755 -0.01146,-0.145384 c -0.0063,-0.07996 0.282889,-0.377933 0.642637,-0.662159 l 0.654084,-0.516774 0.522676,-0.01377 c 0.287474,-0.0074 0.813364,0.02814 1.168654,0.07935 l 0.645978,0.09311 0.194815,0.523692 c 0.107149,0.28803 0.196195,0.590403 0.197883,0.671937 l 0.0031,0.148243 -0.828302,-0.01363 c -0.455569,-0.0075 -1.35969,-0.04761 -2.009168,-0.08913 z"
         id="path4347" />
      <path
         inkscape:connector-curvature="0"
         style="display:inline;fill:none;fill-opacity:1;stroke:#000000;stroke-width:0.282222;stroke-opacity:1"
         d="M 32.322913,32.722865 30.67775,32.611066 30.527492,32.46691 30.37724,32.322748 l 0.863679,-0.585386 0.863681,-0.585388 1.61323,0.07907 1.613233,0.07908 -0.234608,-0.156785 -0.234595,-0.156797 0.742488,-0.570798 0.742492,-0.570794 0.357613,0.08145 c 0.196689,0.0448 0.81042,0.125186 1.36385,0.178638 l 1.006246,0.09719 -0.04153,0.542321 -0.04152,0.542318 -1.743109,0.0043 -1.743108,0.0043 0.404797,0.110549 c 0.222639,0.0608 0.421064,0.172542 0.440946,0.248313 l 0.03614,0.137767 -0.756096,0.530843 -0.756096,0.530843 -0.453449,-0.01456 c -0.2494,-0.008 -1.193777,-0.06489 -2.098616,-0.126387 z"
         id="path4345" />
      <path
         inkscape:connector-curvature="0"
         style="display:inline;fill:none;fill-opacity:1;stroke:#000000;stroke-width:0.282222;stroke-opacity:1"
         d="m 28.567151,31.926762 c -0.0661,-0.298244 -0.122637,-0.660888 -0.12564,-0.805883 l -0.0055,-0.263618 1.352917,0.09356 1.352914,0.09357 0.14373,0.136269 0.14373,0.136265 -0.841744,0.565091 -0.841742,0.565085 -0.529266,0.01095 -0.529262,0.01095 -0.120179,-0.542262 z"
         id="path4343" />
      <path
         inkscape:connector-curvature="0"
         style="display:inline;fill:none;fill-opacity:1;stroke:#000000;stroke-width:0.282222;stroke-opacity:1"
         d="m 31.082801,30.846438 c -0.510935,-0.06362 -0.965384,-0.150614 -1.009884,-0.193305 -0.08707,-0.08354 1.04668,-0.900498 1.474659,-1.062615 l 0.259444,-0.09828 1.309736,0.112999 c 0.720358,0.06215 1.585226,0.158123 1.921939,0.213269 l 0.612191,0.100268 -0.592808,0.518013 -0.592807,0.518008 -1.226744,0.0037 c -0.674712,0.002 -1.644783,-0.0484 -2.155726,-0.112023 z"
         id="path4341" />
      <path
         inkscape:connector-curvature="0"
         style="display:inline;fill:none;fill-opacity:1;stroke:#000000;stroke-width:0.282222;stroke-opacity:1"
         d="m 28.493364,30.474113 -0.103384,-0.25359 0.155386,-0.488344 0.155386,-0.488348 0.853945,0.03207 c 0.469669,0.01761 0.961568,0.06721 1.093095,0.110165 l 0.239152,0.07809 -0.200601,0.252163 c -0.256463,0.322371 -1.485868,0.998877 -1.828125,1.005967 l -0.261467,0.0054 -0.103387,-0.253582 z"
         id="path4339" />
      <path
         inkscape:connector-curvature="0"
         style="display:inline;fill:none;fill-opacity:1;stroke:#000000;stroke-width:0.282222;stroke-opacity:1"
         d="m 35.64523,29.645608 -1.223806,-0.172178 0.947014,-0.567326 0.947008,-0.567332 1.352293,0.06354 1.35229,0.06354 0.0097,0.46497 0.0097,0.464972 -0.204763,0.213425 -0.204764,0.213425 -0.880364,-0.0025 c -0.484197,-0.0014 -1.431072,-0.0799 -2.104167,-0.174605 z"
         id="path4337" />
      <path
         inkscape:connector-curvature="0"
         style="display:inline;fill:none;fill-opacity:1;stroke:#000000;stroke-width:0.282222;stroke-opacity:1"
         d="m 31.846638,29.270769 c -0.6479,-0.05253 -1.224596,-0.140191 -1.281537,-0.194824 l -0.103528,-0.09933 0.779046,-0.478491 0.779047,-0.478493 1.710554,0.08561 c 0.940813,0.04709 1.774201,0.120459 1.851973,0.163049 l 0.141416,0.07744 -0.788726,0.523395 -0.788721,0.523403 -0.560756,-0.01312 c -0.308415,-0.0072 -1.090862,-0.05611 -1.738768,-0.108627 z"
         id="path4335" />
      <path
         inkscape:connector-curvature="0"
         style="display:inline;fill:none;fill-opacity:1;stroke:#000000;stroke-width:0.282222;stroke-opacity:1"
         d="m 29.138959,29.024569 -0.393613,-0.06739 -0.0031,-0.153932 c -0.0017,-0.08466 0.08367,-0.355524 0.189831,-0.601926 l 0.193026,-0.447997 0.383322,-0.008 c 0.210826,-0.0044 0.748146,0.03439 1.19404,0.08612 l 0.810717,0.09407 0.0025,0.122868 c 0.0031,0.149908 -1.620387,1.092965 -1.831907,1.06413 -0.08314,-0.01132 -0.328286,-0.05094 -0.544776,-0.088 z"
         id="path4333" />
      <path
         inkscape:connector-curvature="0"
         style="display:inline;fill:none;fill-opacity:1;stroke:#000000;stroke-width:0.282222;stroke-opacity:1"
         d="m 38.368787,28.017807 0.08758,-0.243174 -0.475138,0.190683 -0.475146,0.190675 -1.645683,-0.123297 -1.645686,-0.1233 0.03905,-0.218703 0.03905,-0.218713 -0.163963,0.0035 c -0.09018,0.0017 -0.215756,0.09121 -0.279058,0.198549 l -0.115096,0.195151 -1.33118,-0.09148 c -0.732152,-0.05031 -1.519239,-0.131947 -1.749078,-0.181418 l -0.417884,-0.08994 0.408785,-0.349445 0.40879,-0.34945 -0.649918,0.396268 -0.649918,0.396265 -0.25488,-0.0918 -0.254887,-0.0918 0.289783,-0.541215 0.289778,-0.541212 0.697989,0.03434 0.697992,0.03434 -0.04139,0.226221 -0.04138,0.226224 0.379327,-0.213233 0.379332,-0.213228 1.450955,0.07224 1.450958,0.07224 0.30824,0.171092 0.308243,0.171094 -0.184393,0.0091 c -0.101416,0.0051 -0.334012,0.137211 -0.516878,0.293768 l -0.332481,0.284652 0.689006,-0.399514 0.689003,-0.399514 1.652457,0.08658 c 0.90884,0.04762 1.725261,0.129525 1.814254,0.18201 l 0.161809,0.09543 -0.408717,0.348386 -0.408717,0.348389 0.302901,-0.10419 0.302903,-0.104188 0.0071,0.343021 0.0071,0.343018 -0.454256,0.0094 -0.454254,0.0094 0.08758,-0.243168 z"
         id="path4331" />
      <path
         inkscape:connector-curvature="0"
         style="display:inline;fill:none;fill-opacity:1;stroke:#000000;stroke-width:0.282222;stroke-opacity:1"
         d="m 37.498307,26.533995 -0.1113,-0.172012 0.151226,-0.0031 c 0.08318,-0.0017 0.300922,-0.127415 0.483884,-0.279324 l 0.332655,-0.276182 -0.761543,0.390448 -0.761545,0.390452 -1.467098,-0.09167 -1.467099,-0.09166 0.09778,-0.271495 0.09778,-0.271492 -0.265531,0.229824 -0.265534,0.229817 -1.514264,-0.08489 -1.514271,-0.0849 -0.130726,-0.202048 -0.130725,-0.202043 0.171258,-0.336573 0.171261,-0.336578 0.464792,0.0718 0.464791,0.07179 0.432867,-0.141597 0.432867,-0.141593 -0.624741,-0.0044 c -0.3436,-0.0025 -0.674827,-0.0525 -0.736053,-0.11123 l -0.111308,-0.106798 0.869052,-1.041976 0.869047,-1.041975 0.539807,-0.02854 0.539809,-0.02854 -0.398264,-0.105117 -0.398258,-0.105116 0.266994,-0.397744 0.266985,-0.397753 0.280529,-0.0058 0.280526,-0.0058 -0.118957,-0.114125 -0.118956,-0.114133 0.282146,-0.32505 c 0.155177,-0.178776 0.369016,-0.326844 0.475188,-0.329043 l 0.193043,-0.004 0.163949,-0.39252 0.163945,-0.39252 0.431092,-0.227353 c 0.237101,-0.125041 0.360262,-0.227042 0.273693,-0.226661 l -0.157398,5.64e-4 0.374337,-0.338491 0.37434,-0.338498 0.29981,0.03804 0.29981,0.03803 -0.21936,-0.07038 c -0.287644,-0.09229 -0.2824,-0.3011 0.01397,-0.557637 l 0.239155,-0.206993 3.065958,-0.0017 3.065954,-0.0017 0.11697,0.112217 0.11697,0.112223 -0.22118,0.278026 -0.221181,0.27802 -0.540912,-0.10407 -0.540924,-0.104069 0.148333,0.148031 c 0.08158,0.08141 0.220413,0.156345 0.308508,0.166502 0.0881,0.01016 0.236327,0.02673 0.329401,0.03676 l 0.169232,0.01832 -0.106194,0.307261 c -0.0584,0.168995 -0.157269,0.34754 -0.219693,0.396771 -0.144165,0.113687 -1.08403,1.847412 -1.409703,2.600406 l -0.247247,0.571667 -0.705868,0.01465 -0.705878,0.01465 -0.0025,-0.130685 -0.0025,-0.130686 -1.436254,0.05789 -1.436257,0.05789 -0.09026,-0.113439 -0.09026,-0.113442 -1.304781,0.126359 c -0.717632,0.06949 -1.162643,0.137538 -0.988918,0.151218 l 0.31586,0.02486 -0.114464,0.194082 -0.114463,0.194084 0.382329,-0.214921 0.382326,-0.214912 1.243762,0.08647 c 0.68407,0.04756 1.27497,0.116417 1.313121,0.153018 0.03815,0.0366 -0.190983,0.232757 -0.509186,0.435912 l -0.578549,0.369361 -1.132829,0.01185 -1.132834,0.01188 -0.32991,-0.12177 -0.329903,-0.121765 -0.54209,0.102735 -0.542081,0.102737 0.960919,0.104527 c 0.528509,0.05749 1.74288,0.124318 2.698603,0.148502 l 1.737687,0.04396 0.05268,0.148931 0.05268,0.148926 1.131787,-0.0819 1.131796,-0.08189 -0.0032,0.145683 c -0.0017,0.08012 -0.104719,0.338319 -0.228849,0.573774 l -0.22569,0.428095 -1.110025,0.01072 -1.110016,0.01073 0.480824,0.06972 0.480819,0.06972 0.0031,0.158933 0.0032,0.158939 0.436183,-0.20975 0.436183,-0.209756 0.15945,0.157579 0.159444,0.15757 -0.08411,0.481121 -0.08411,0.481124 -0.927754,0.01925 -0.927747,0.01925 -0.111302,-0.172014 z"
         id="path4329" />
      <path
         inkscape:connector-curvature="0"
         style="display:inline;fill:none;fill-opacity:1;stroke:#000000;stroke-width:0.282222;stroke-opacity:1"
         d="m 34.862975,25.542656 0.104084,-0.176474 1.252711,-0.03972 1.252708,-0.03972 -0.220723,-0.08371 -0.220718,-0.08372 0.105577,-0.179008 0.105573,-0.179011 -0.38446,0.216115 -0.384454,0.216109 -1.38855,-0.09399 -1.388553,-0.09398 0.08701,-0.24159 0.08701,-0.241585 -0.326497,0.213419 -0.326498,0.213422 0.08902,0.137583 0.08902,0.137589 0.686697,-0.01425 0.6867,-0.01425 0.0032,0.159729 c 0.0017,0.08784 -0.09389,0.201301 -0.212679,0.252118 l -0.215988,0.0924 0.207812,0.0095 c 0.114288,0.0052 0.25464,-0.06995 0.311883,-0.167016 z"
         id="path4327" />
      <path
         inkscape:connector-curvature="0"
         style="display:inline;fill:none;fill-opacity:1;stroke:#000000;stroke-width:0.282222;stroke-opacity:1"
         d="m 40.796463,21.653244 c -8.47e-4,-0.03766 -0.217023,-0.06281 -0.480537,-0.05588 l -0.479126,0.01247 0.24879,0.150368 0.248788,0.150374 0.231749,-0.09449 c 0.127457,-0.05196 0.231115,-0.125289 0.230333,-0.162958 z"
         id="path4325" />
      <path
         inkscape:connector-curvature="0"
         style="display:inline;fill:none;fill-opacity:1;stroke:#000000;stroke-width:0.282222;stroke-opacity:1"
         d="m 37.724164,21.684526 0.08249,-0.139864 -0.55501,-0.02551 -0.555006,-0.02551 0.264939,0.167008 c 0.321597,0.202723 0.651024,0.213047 0.762584,0.02388 z"
         id="path4323" />
      <path
         inkscape:connector-curvature="0"
         style="display:inline;fill:none;fill-opacity:1;stroke:#000000;stroke-width:0.282222;stroke-opacity:1"
         d="m 39.313958,21.615444 c -0.193376,-0.07839 -0.469299,-0.144408 -0.613159,-0.146697 l -0.261563,-0.0042 0.264862,0.1635 c 0.145678,0.08992 0.421601,0.155936 0.613162,0.146696 l 0.34829,-0.01676 -0.351592,-0.142533 z"
         id="path4321" />
      <path
         inkscape:connector-curvature="0"
         style="display:inline;fill:none;fill-opacity:1;stroke:#000000;stroke-width:0.282222;stroke-opacity:1"
         d="m 40.62729,20.716653 0.518764,-0.01075 -0.08342,-0.129018 -0.08343,-0.12901 -0.910638,0.08088 -0.910644,0.08088 0.245011,0.148971 0.245006,0.148966 0.230296,-0.09009 c 0.126659,-0.04956 0.463733,-0.09493 0.749057,-0.100838 z"
         id="path4319" />
      <path
         inkscape:connector-curvature="0"
         style="display:inline;fill:none;fill-opacity:1;stroke:#000000;stroke-width:0.282222;stroke-opacity:1"
         d="m 38.507299,20.542655 -0.0025,-0.130686 -1.437005,0.05449 -1.437007,0.05449 0.699171,0.09152 c 0.384548,0.05034 1.03242,0.08462 1.43972,0.07619 l 0.74054,-0.01535 -0.0025,-0.130683 z"
         id="path4317" />
      <path
         inkscape:connector-curvature="0"
         style="display:inline;fill:none;fill-opacity:1;stroke:#000000;stroke-width:0.282222;stroke-opacity:1"
         d="m 42.150729,19.707689 c -8.47e-4,-0.03766 -0.217021,-0.06282 -0.480537,-0.05589 l -0.479123,0.01247 0.248787,0.150371 0.248787,0.150371 0.231747,-0.09448 c 0.127466,-0.05197 0.231115,-0.125298 0.230336,-0.162969 z"
         id="path4315" />
      <path
         inkscape:connector-curvature="0"
         style="display:inline;fill:none;fill-opacity:1;stroke:#000000;stroke-width:0.282222;stroke-opacity:1"
         d="m 37.137376,19.627558 -0.219628,-0.08338 -0.215985,0.0924 -0.215988,0.09239 0.43561,-0.009 0.435616,-0.009 -0.219625,-0.08337 z"
         id="path4313" />
      <path
         inkscape:connector-curvature="0"
         style="display:inline;fill:none;fill-opacity:1;stroke:#000000;stroke-width:0.282222;stroke-opacity:1"
         d="m 38.620397,19.592509 c -0.167502,-0.04016 -0.481166,-0.03525 -0.697047,0.01095 l -0.392517,0.08394 0.697052,-0.01095 0.697049,-0.01095 -0.304537,-0.07302 z"
         id="path4311" />
      <path
         inkscape:connector-curvature="0"
         style="display:inline;fill:none;fill-opacity:1;stroke:#000000;stroke-width:0.282222;stroke-opacity:1"
         d="m 39.169096,18.829315 c -0.002,-0.09583 -0.08202,-0.172618 -0.177853,-0.170632 -0.09584,0.002 -0.172624,0.08202 -0.170638,0.177854 0.002,0.09584 0.08202,0.172621 0.177857,0.170634 0.09583,-0.002 0.172618,-0.08202 0.170634,-0.177856 z"
         id="path4309" />
      <path
         inkscape:connector-curvature="0"
         style="display:inline;fill:none;fill-opacity:1;stroke:#000000;stroke-width:0.282222;stroke-opacity:1"
         d="m 41.682014,18.80013 0.09045,-0.153351 -0.998047,0.02238 -0.998048,0.02238 0.699564,0.110445 c 1.042692,0.164608 1.107852,0.164496 1.206082,-0.002 z"
         id="path4307" />
      <path
         inkscape:connector-curvature="0"
         style="display:inline;fill:none;fill-opacity:1;stroke:#000000;stroke-width:0.282222;stroke-opacity:1"
         d="m 38.596989,18.735863 -0.10745,-0.10309 -0.226805,0.09625 -0.226797,0.09625 0.334256,0.0069 0.33425,0.0069 -0.107454,-0.103096 z"
         id="path4305" />
      <path
         inkscape:connector-curvature="0"
         style="display:inline;fill:none;fill-opacity:1;stroke:#000000;stroke-width:0.282222;stroke-opacity:1"
         d="m 39.972032,23.911558 -0.0023,-0.130688 -1.567451,0.08841 -1.567445,0.08841 -0.0017,-0.143075 c -8.46e-4,-0.07869 0.297369,-0.322084 0.662799,-0.540868 l 0.664422,-0.397789 1.245139,0.07846 1.245142,0.07847 0.0031,0.154441 c 0.0017,0.08494 -0.108568,0.200008 -0.245175,0.255701 l -0.248378,0.101262 0.09988,0.244983 0.09988,0.244983 -0.192893,0.004 c -0.106085,0.0023 -0.193924,-0.05481 -0.195191,-0.126695 z"
         id="path4286" />
    </g>
    <text
       xml:space="preserve"
       style="font-style:normal;font-variant:normal;font-weight:600;font-stretch:normal;font-size:5.64444px;line-height:0%;font-family:FreeSans;-inkscape-font-specification:'FreeSans Semi-Bold';letter-spacing:0px;word-spacing:0px;display:inline;fill:#1a1a1a;fill-opacity:1;stroke:none;stroke-width:0.282222px;stroke-linecap:butt;stroke-linejoin:miter;stroke-opacity:1"
       x="28.508657"
       y="12.091055"
       id="text5366"><tspan
         sodipodi:role="line"
         x="28.508657"
         y="12.091055"
         style="font-style:normal;font-variant:normal;font-weight:600;font-stretch:normal;font-size:5.64444px;line-height:1.25;font-family:FreeSans;-inkscape-font-specification:'FreeSans Semi-Bold';text-align:center;text-anchor:middle;fill:#1a1a1a;fill-opacity:1;stroke-width:0.282222px"
         id="tspan4271">Road Building</tspan></text>
    <text
       xml:space="preserve"
       style="font-style:normal;font-variant:normal;font-weight:600;font-stretch:normal;font-size:3.38667px;line-height:0%;font-family:FreeSans;-inkscape-font-specification:'FreeSans Semi-Bold';letter-spacing:0px;word-spacing:0px;display:inline;fill:#1a1a1a;fill-opacity:1;stroke:none;stroke-width:0.282222px;stroke-linecap:butt;stroke-linejoin:miter;stroke-opacity:1"
       x="28.559753"
       y="46.49041"
       id="text5366-3"><tspan
         sodipodi:role="line"
         x="28.559753"
         y="46.49041"
         style="font-style:normal;font-variant:normal;font-weight:600;font-stretch:normal;font-size:2.11667px;line-height:1.25;font-family:FreeSans;-inkscape-font-specification:'FreeSans Semi-Bold';text-align:center;text-anchor:middle;fill:#1a1a1a;fill-opacity:1;stroke-width:0.282222px"
         id="tspan4271-7">Place 2 new roads as if</tspan><tspan
         sodipodi:role="line"
         x="28.559753"
         y="49.136246"
         style="font-style:normal;font-variant:normal;font-weight:600;font-stretch:normal;font-size:2.11667px;line-height:1.25;font-family:FreeSans;-inkscape-font-specification:'FreeSans Semi-Bold';text-align:center;text-anchor:middle;fill:#1a1a1a;fill-opacity:1;stroke-width:0.282222px"
         id="tspan5622">you had just built them</tspan></text>
  </g>
</svg>
