<?xml version="1.0" encoding="UTF-8" standalone="no"?>
<svg
   xmlns:dc="http://purl.org/dc/elements/1.1/"
   xmlns:cc="http://creativecommons.org/ns#"
   xmlns:rdf="http://www.w3.org/1999/02/22-rdf-syntax-ns#"
   xmlns:svg="http://www.w3.org/2000/svg"
   xmlns="http://www.w3.org/2000/svg"
   xmlns:sodipodi="http://sodipodi.sourceforge.net/DTD/sodipodi-0.dtd"
   xmlns:inkscape="http://www.inkscape.org/namespaces/inkscape"
   width="2.25in"
   height="2.25in"
   viewBox="0 0 57.150001 57.150002"
   version="1.1"
   id="svg8"
   inkscape:version="1.0.2 (394de47547, 2021-03-26)"
   sodipodi:docname="victory_point.svg">
  <defs
     id="defs2" />
  <sodipodi:namedview
     id="base"
     pagecolor="#ffffff"
     bordercolor="#666666"
     borderopacity="1.0"
     inkscape:pageopacity="0.0"
     inkscape:pageshadow="2"
     inkscape:zoom="3.5681818"
     inkscape:cx="132"
     inkscape:cy="132"
     inkscape:document-units="mm"
     inkscape:current-layer="layer1"
     inkscape:document-rotation="0"
     showgrid="false"
     units="in"
     inkscape:window-width="3768"
     inkscape:window-height="2096"
     inkscape:window-x="72"
     inkscape:window-y="27"
     inkscape:window-maximized="1" />
  <metadata
     id="metadata5">
    <rdf:RDF>
      <cc:Work
         rdf:about="">
        <dc:format>image/svg+xml</dc:format>
        <dc:type
           rdf:resource="http://purl.org/dc/dcmitype/StillImage" />
        <dc:title></dc:title>
      </cc:Work>
    </rdf:RDF>
  </metadata>
  <g
     inkscape:label="Layer 1"
     inkscape:groupmode="layer"
     id="layer1">
    <text
       xml:space="preserve"
       style="font-style:normal;font-variant:normal;font-weight:600;font-stretch:normal;font-size:5.64444px;line-height:0%;font-family:FreeSans;-inkscape-font-specification:'FreeSans Semi-Bold';letter-spacing:0px;word-spacing:0px;display:inline;fill:#1a1a1a;fill-opacity:1;stroke:none;stroke-width:0.282222px;stroke-linecap:butt;stroke-linejoin:miter;stroke-opacity:1"
       x="28.602915"
       y="12.378114"
       id="text5366"><tspan
         sodipodi:role="line"
         x="28.602915"
         y="12.378114"
         style="font-style:normal;font-variant:normal;font-weight:600;font-stretch:normal;font-size:5.64444px;line-height:1.25;font-family:FreeSans;-inkscape-font-specification:'FreeSans Semi-Bold';text-align:center;text-anchor:middle;fill:#1a1a1a;fill-opacity:1;stroke-width:0.282222px"
         id="tspan7687">Victory Point</tspan></text>
    <text
       xml:space="preserve"
       style="font-style:normal;font-variant:normal;font-weight:600;font-stretch:normal;font-size:3.38667px;line-height:0%;font-family:FreeSans;-inkscape-font-specification:'FreeSans Semi-Bold';letter-spacing:0px;word-spacing:0px;display:inline;fill:#1a1a1a;fill-opacity:1;stroke:none;stroke-width:0.282222px;stroke-linecap:butt;stroke-linejoin:miter;stroke-opacity:1"
       x="28.630018"
       y="47.130249"
       id="text5366-3"><tspan
         sodipodi:role="line"
         x="28.630018"
         y="47.130249"
         style="font-style:normal;font-variant:normal;font-weight:600;font-stretch:normal;font-size:2.11667px;line-height:1.25;font-family:FreeSans;-inkscape-font-specification:'FreeSans Semi-Bold';text-align:center;text-anchor:middle;fill:#1a1a1a;fill-opacity:1;stroke-width:0.282222px"
         id="tspan7633">Victory Point!</tspan></text>
    <g
       id="g7675"
       transform="matrix(0.2822222,0,0,0.2822222,-6.7531933,-222.37423)">
      <g
         id="g7672">
        <path
           inkscape:connector-curvature="0"
           id="path7660"
           d="m 121.74839,930.3133 c -1.70307,-1.86617 -3.1287,-3.37696 -3.18659,-3.37696 -0.0576,0 -1.91751,0.96656 -4.13308,2.1479 -2.2814,1.21644 -4.0521,2.12409 -4.08317,2.09302 -0.0302,-0.0302 -0.8736,-1.94117 -1.87426,-4.24665 -1.42883,-3.29194 -1.84494,-4.19496 -1.93838,-4.20658 -0.0654,-0.008 -2.12149,0.30858 -4.56899,0.70382 -2.786891,0.45004 -4.473271,0.69652 -4.512251,0.6595 -0.0342,-0.0325 -0.22371,-2.10662 -0.42105,-4.60913 -0.19734,-2.50249 -0.38236,-4.57322 -0.41116,-4.6016 -0.0288,-0.0284 -2.04065,-0.39538 -4.4708,-0.81555 -2.43014,-0.42017 -4.46814,-0.7789 -4.5289,-0.79717 -0.0607,-0.0183 -0.11005,-0.081 -0.10955,-0.13944 5.1e-4,-0.0584 0.51034,-2.0803 1.13298,-4.49309 0.87431,-3.38808 1.11482,-4.40328 1.05636,-4.45894 -0.0416,-0.0396 -1.87228,-1.05785 -4.068087,-2.2627 -2.195807,-1.20485 -3.992377,-2.21414 -3.992377,-2.24287 0,-0.0287 0.461569,-0.74951 1.02571,-1.60175 2.545189,-3.84496 3.993957,-6.06121 4.012599,-6.13828 0.01112,-0.046 -1.375748,-1.61848 -3.081934,-3.49444 -1.706186,-1.87597 -3.092893,-3.43722 -3.081571,-3.46945 0.01132,-0.0322 1.611224,-1.28409 3.555339,-2.78189 1.944114,-1.49781 3.587721,-2.77438 3.652471,-2.83681 0.11444,-0.11036 0.0675,-0.22985 -1.688754,-4.30203 -1.603859,-3.71874 -1.882534,-4.40943 -1.77909,-4.40943 0.07225,0 8.658934,-2.92387 8.701394,-2.96293 0.027,-0.0249 -0.10981,-2.1122 -0.30408,-4.63853 -0.19428,-2.52634 -0.33743,-4.60913 -0.31812,-4.62844 0.0193,-0.0193 2.10602,-0.0287 4.63715,-0.0208 3.755311,0.0116 4.611941,-10e-4 4.655831,-0.0691 0.0296,-0.0458 0.56755,-2.05744 1.19547,-4.47023 0.98796,-3.79622 1.15794,-4.38926 1.26244,-4.40455 0.0664,-0.01 2.03804,0.65073 4.3814,1.46767 2.34335,0.81693 4.29529,1.4723 4.33765,1.45637 0.0423,-0.0159 0.65535,-0.90362 1.36221,-1.97263 0.70686,-1.06902 1.84445,-2.78869 2.52799,-3.8215 0.68353,-1.03282 1.27163,-1.87784 1.30689,-1.87784 0.0353,0 1.68497,1.27109 3.66603,2.82464 1.98106,1.55356 3.63865,2.82121 3.68355,2.81701 0.0632,-0.006 4.55338,-3.41975 6.99765,-5.32021 l 0.36955,-0.28733 0.11683,0.14428 c 0.0643,0.0794 1.20223,1.82126 2.52882,3.87091 1.32659,2.04965 2.44454,3.73912 2.48435,3.7544 0.0398,0.0153 2.02583,-0.62973 4.4134,-1.43333 3.05844,-1.0294 4.3608,-1.44132 4.40795,-1.39417 0.0368,0.0368 0.55615,2.0393 1.15407,4.44998 0.59793,2.41069 1.10406,4.41042 1.12472,4.44386 0.0231,0.0374 1.80617,0.0784 4.63169,0.10643 2.52676,0.0251 4.61863,0.0695 4.6486,0.0986 0.0305,0.0296 -0.11969,2.05856 -0.34102,4.60702 -0.33842,3.89673 -0.38273,4.5658 -0.30697,4.6355 0.0487,0.0448 1.99162,0.74356 4.31761,1.55281 2.326,0.80925 4.26328,1.50225 4.30507,1.54001 0.058,0.0524 -0.35713,1.04586 -1.75423,4.19798 -1.00663,2.27112 -1.83614,4.18706 -1.84337,4.25764 -0.0103,0.10015 0.75455,0.73423 3.48377,2.88832 1.92331,1.518 3.55506,2.81814 3.62613,2.8892 l 0.1292,0.12921 -0.13018,0.14358 c -0.0716,0.079 -1.48517,1.6045 -3.14128,3.39006 -1.91681,2.06666 -3.00163,3.28243 -2.98506,3.34539 0.0143,0.0544 1.11503,1.78843 2.44602,3.85339 1.331,2.06497 2.43032,3.81183 2.44294,3.88192 0.0198,0.11 -0.51849,0.4168 -3.93355,2.24197 -2.17607,1.163 -4.01019,2.15715 -4.07583,2.20922 -0.11542,0.0916 -0.0831,0.2412 0.98795,4.57204 0.609,2.46255 1.08551,4.49834 1.0589,4.52397 -0.0266,0.0256 -2.07884,0.37644 -4.5605,0.77958 -2.48167,0.40314 -4.53511,0.75596 -4.56321,0.78406 -0.0364,0.0364 -0.85849,8.75326 -0.8654,9.176 -0.002,0.0965 -0.44211,0.0308 -4.764,-0.70951 -2.42883,-0.41607 -4.43688,-0.73554 -4.46231,-0.70993 -0.0254,0.0256 -0.88247,1.92125 -1.90451,4.21253 -1.11533,2.50042 -1.89537,4.17342 -1.95111,4.18461 -0.0511,0.0103 -1.89021,-0.96394 -4.08697,-2.16489 -2.19676,-1.20094 -4.03163,-2.17508 -4.07748,-2.16475 -0.0729,0.0164 -2.13728,2.1973 -5.32048,5.62074 -0.54069,0.5815 -1.0155,1.05727 -1.05513,1.05727 -0.0396,0 -1.45889,-1.51963 -3.1539,-3.37695 z m -7.28997,-61.43212 c 0.51766,-1.28596 1.11766,-1.90898 2.19909,-2.28344 0.2678,-0.0927 0.50111,-0.19147 0.51847,-0.21943 0.0174,-0.028 -0.18147,-0.12858 -0.44185,-0.22362 -0.56371,-0.20577 -0.88369,-0.36512 -0.88369,-0.44009 0,-0.0301 -0.0647,-0.0709 -0.14371,-0.0907 -0.39928,-0.10022 -1.03292,-0.88305 -1.30618,-1.61372 -0.0789,-0.21107 -0.16625,-0.38376 -0.19404,-0.38376 -0.0278,0 -0.0849,0.10652 -0.12688,0.23671 -0.19011,0.58937 -0.5439,1.18891 -0.94337,1.59866 -0.42842,0.43944 -0.6823,0.5971 -1.26241,0.784 -0.19094,0.0615 -0.36055,0.12376 -0.3769,0.13832 -0.0492,0.0438 0.14685,0.14386 0.284,0.14489 0.0704,5.1e-4 0.32983,0.0977 0.57649,0.2159 0.77183,0.36989 1.40735,1.14463 1.74136,2.12284 0.0707,0.20703 0.14765,0.37642 0.17102,0.37642 0.0234,0 0.10825,-0.16333 0.1886,-0.36295 z"
           style="fill:#fde200"
           sodipodi:nodetypes="csssscscscsccscssscscscsscssccscscsssscsccscssscccscscscscccscscscscsscccscscssccccccsccscscccccscc" />
      </g>
      <path
         sodipodi:nodetypes="csssscscscsccscssscscscsscssccscscsssscsccscssscccscscscscccscscscscsscccscscsscccccccsscsssccccsccscscccccccccssscccccscsccsssccccsccscccccccccsccsscsccscccccscccccccccsssscccscsscccccccccsscccccccccsscccc"
         style="fill:#f3ac28"
         d="m 121.74839,930.3133 c -1.70307,-1.86617 -3.1287,-3.37696 -3.18659,-3.37696 -0.0576,0 -1.91751,0.96656 -4.13308,2.1479 -2.2814,1.21644 -4.0521,2.12409 -4.08317,2.09302 -0.0302,-0.0302 -0.8736,-1.94117 -1.87426,-4.24665 -1.42883,-3.29194 -1.84494,-4.19496 -1.93838,-4.20658 -0.0654,-0.008 -2.12149,0.30858 -4.56899,0.70382 -2.786891,0.45004 -4.473271,0.69652 -4.512251,0.6595 -0.0342,-0.0325 -0.22371,-2.10662 -0.42105,-4.60913 -0.19734,-2.50249 -0.38236,-4.57322 -0.41116,-4.6016 -0.0288,-0.0284 -2.04065,-0.39538 -4.4708,-0.81555 -2.43014,-0.42017 -4.46814,-0.7789 -4.5289,-0.79717 -0.0607,-0.0183 -0.11005,-0.081 -0.10955,-0.13944 5.1e-4,-0.0584 0.51034,-2.0803 1.13298,-4.49309 0.87431,-3.38808 1.11482,-4.40328 1.05636,-4.45894 -0.0416,-0.0396 -1.87228,-1.05785 -4.068087,-2.2627 -2.195807,-1.20485 -3.992377,-2.21414 -3.992377,-2.24287 0,-0.0287 0.461569,-0.74951 1.02571,-1.60175 2.545189,-3.84496 3.993957,-6.06121 4.012599,-6.13828 0.01112,-0.046 -1.375748,-1.61848 -3.081934,-3.49444 -1.706186,-1.87597 -3.092893,-3.43722 -3.081571,-3.46945 0.01132,-0.0322 1.611224,-1.28409 3.555339,-2.78189 1.944114,-1.49781 3.587721,-2.77438 3.652471,-2.83681 0.11444,-0.11036 0.0675,-0.22985 -1.688754,-4.30203 -1.603859,-3.71874 -1.882534,-4.40943 -1.77909,-4.40943 0.07225,0 8.658934,-2.92387 8.701394,-2.96293 0.027,-0.0249 -0.10981,-2.1122 -0.30408,-4.63853 -0.19428,-2.52634 -0.33743,-4.60913 -0.31812,-4.62844 0.0193,-0.0193 2.10602,-0.0287 4.63715,-0.0208 3.755311,0.0116 4.611941,-10e-4 4.655831,-0.0691 0.0296,-0.0458 0.56755,-2.05744 1.19547,-4.47023 0.98796,-3.79622 1.15794,-4.38926 1.26244,-4.40455 0.0664,-0.01 2.03804,0.65073 4.3814,1.46767 2.34335,0.81693 4.29529,1.4723 4.33765,1.45637 0.0423,-0.0159 0.65535,-0.90362 1.36221,-1.97263 0.70686,-1.06902 1.84445,-2.78869 2.52799,-3.8215 0.68353,-1.03282 1.27163,-1.87784 1.30689,-1.87784 0.0353,0 1.68497,1.27109 3.66603,2.82464 1.98106,1.55356 3.63865,2.82121 3.68355,2.81701 0.0632,-0.006 4.55338,-3.41975 6.99765,-5.32021 l 0.36955,-0.28733 0.11683,0.14428 c 0.0643,0.0794 1.20223,1.82126 2.52882,3.87091 1.32659,2.04965 2.44454,3.73912 2.48435,3.7544 0.0398,0.0153 2.02583,-0.62973 4.4134,-1.43333 3.05844,-1.0294 4.3608,-1.44132 4.40795,-1.39417 0.0368,0.0368 0.55615,2.0393 1.15407,4.44998 0.59793,2.41069 1.10406,4.41042 1.12472,4.44386 0.0231,0.0374 1.80617,0.0784 4.63169,0.10643 2.52676,0.0251 4.61863,0.0695 4.6486,0.0986 0.0305,0.0296 -0.11969,2.05856 -0.34102,4.60702 -0.33842,3.89673 -0.38273,4.5658 -0.30697,4.6355 0.0487,0.0448 1.99162,0.74356 4.31761,1.55281 2.326,0.80925 4.26328,1.50225 4.30507,1.54001 0.058,0.0524 -0.35713,1.04586 -1.75423,4.19798 -1.00663,2.27112 -1.83614,4.18706 -1.84337,4.25764 -0.0103,0.10015 0.75455,0.73423 3.48377,2.88832 1.92331,1.518 3.55506,2.81814 3.62613,2.8892 l 0.1292,0.12921 -0.13018,0.14358 c -0.0716,0.079 -1.48517,1.6045 -3.14128,3.39006 -1.91681,2.06666 -3.00163,3.28243 -2.98506,3.34539 0.0143,0.0544 1.11503,1.78843 2.44602,3.85339 1.331,2.06497 2.43032,3.81183 2.44294,3.88192 0.0198,0.11 -0.51849,0.4168 -3.93355,2.24197 -2.17607,1.163 -4.01019,2.15715 -4.07583,2.20922 -0.11542,0.0916 -0.0831,0.2412 0.98795,4.57204 0.609,2.46255 1.08551,4.49834 1.0589,4.52397 -0.0266,0.0256 -2.07884,0.37644 -4.5605,0.77958 -2.48167,0.40314 -4.53511,0.75596 -4.56321,0.78406 -0.0364,0.0364 -0.85849,8.75326 -0.8654,9.176 -0.002,0.0965 -0.44211,0.0308 -4.764,-0.70951 -2.42883,-0.41607 -4.43688,-0.73554 -4.46231,-0.70993 -0.0254,0.0256 -0.88247,1.92125 -1.90451,4.21253 -1.11533,2.50042 -1.89537,4.17342 -1.95111,4.18461 -0.0511,0.0103 -1.89021,-0.96394 -4.08697,-2.16489 -2.19676,-1.20094 -4.03163,-2.17508 -4.07748,-2.16475 -0.0729,0.0164 -2.13728,2.1973 -5.32048,5.62074 -0.54069,0.5815 -1.0155,1.05727 -1.05513,1.05727 -0.0396,0 -1.45889,-1.51963 -3.1539,-3.37695 z m -2.74192,-23.75228 c 0,-2.50799 0.0188,-3.35151 0.0757,-3.40851 0.0563,-0.0562 0.77514,-0.0783 2.79308,-0.0857 1.53471,-0.006 2.52505,-0.0297 2.2755,-0.0553 -0.24301,-0.0249 -0.64777,-0.0489 -0.89947,-0.0532 -0.4118,-0.007 -0.45762,-0.0204 -0.45762,-0.13317 0,-0.0689 0.11288,-1.04178 0.25085,-2.16188 0.74653,-6.06066 1.17384,-10.44951 1.24327,-12.76955 0.0514,-1.71862 0.0599,-1.69221 -1.37348,-4.27018 -1.44781,-2.60388 -2.46702,-4.87172 -3.35731,-7.47035 -1.10717,-3.23169 -1.47651,-5.28207 -1.55154,-8.61336 l -0.0405,-1.79894 -0.88064,-0.0176 c -1.03338,-0.0207 -1.17144,0.008 -0.85517,0.17779 0.29819,0.16009 0.18596,0.15693 -0.12876,-0.004 -0.13748,-0.0702 -0.24997,-0.15228 -0.24997,-0.18253 0,-0.0302 -0.0647,-0.0712 -0.14371,-0.0911 -0.39928,-0.10022 -1.03292,-0.88305 -1.30618,-1.61372 -0.0789,-0.21107 -0.16625,-0.38376 -0.19404,-0.38376 -0.0278,0 -0.0849,0.10652 -0.12688,0.23671 -0.19011,0.58937 -0.5439,1.18891 -0.94337,1.59866 -0.43479,0.44597 -0.69155,0.60429 -1.27819,0.78813 -0.39998,0.12535 -0.45264,0.19533 -0.18936,0.25167 0.36759,0.0787 0.70993,0.23007 0.66919,0.29599 -0.0243,0.0393 -0.012,0.0492 0.0293,0.0236 0.0391,-0.0241 0.15729,7.2e-4 0.26275,0.0553 0.22275,0.1152 0.8435,0.71973 0.95482,0.9299 0.0419,0.0791 -0.0575,0.002 -0.22083,-0.17176 -0.18802,-0.19978 -0.28515,-0.26927 -0.26465,-0.18936 0.0178,0.0694 0.0634,0.32507 0.10134,0.56808 0.1366,0.87507 0.45564,2.36036 0.78687,3.66331 0.77046,3.0308 1.42085,4.88008 2.319,6.59379 1.65756,3.16271 3.1297,5.39439 4.74668,7.19575 0.29605,0.3298 0.53894,0.62095 0.53975,0.64698 8.2e-4,0.026 -0.0624,0.048 -0.14054,0.0487 -0.0781,7.6e-4 -0.2578,0.054 -0.3993,0.11823 -0.58589,0.26611 -0.63002,1.13715 -0.073,1.44155 0.16951,0.0926 0.34574,0.10968 1.04042,0.10059 0.45999,-0.006 0.83635,0.01 0.83635,0.0355 0,0.33188 -3.20459,14.7898 -3.31928,14.97537 -0.0185,0.0299 -0.28752,0.0543 -0.59792,0.0543 h -0.56436 l 3.1e-4,0.2367 c 1.9e-4,0.13019 0.11378,1.62464 0.25249,3.321 0.1387,1.69636 0.25219,3.16628 0.25219,3.26649 0,0.10021 0.0284,0.18219 0.0631,0.18219 0.0413,0 0.0631,-1.153 0.0631,-3.33276 z m -4.83132,-37.32109 c -0.0229,-0.037 -0.0246,-0.0844 -0.004,-0.1052 0.0208,-0.0208 0.0379,-0.005 0.0379,0.0358 0,0.16822 0.11648,0.0543 0.21903,-0.21424 0.0605,-0.15833 0.12185,-0.27597 0.13641,-0.26142 0.0447,0.0447 -0.22072,0.61242 -0.28635,0.61242 -0.0339,0 -0.0804,-0.0303 -0.10325,-0.0673 z m -0.0871,-0.22734 c -0.003,-0.0406 -0.0213,-0.12577 -0.0413,-0.18937 -0.0345,-0.1099 -0.0327,-0.11004 0.036,-0.003 0.0398,0.0621 0.0584,0.14728 0.0413,0.18936 -0.0224,0.0552 -0.0324,0.056 -0.036,0.003 z m -0.27605,-0.68548 c -0.0932,-0.18997 -0.15599,-0.3454 -0.13959,-0.3454 0.0425,0 0.36086,0.63893 0.3325,0.66728 -0.0129,0.0129 -0.0997,-0.13191 -0.19291,-0.32188 z m 0.77603,0.26226 c 0,-0.0682 0.25073,-0.54453 0.28661,-0.54453 0.0174,0 -0.0293,0.12071 -0.10372,0.26826 -0.14633,0.29015 -0.18289,0.34538 -0.18289,0.27627 z m 0.37006,-0.70234 c 0.12639,-0.25977 0.55322,-0.6911 0.91579,-0.92544 0.20617,-0.13326 0.40429,-0.24229 0.44026,-0.24229 0.036,0 -0.10335,0.10012 -0.30961,0.22248 -0.36392,0.2159 -0.66576,0.49229 -0.96332,0.88213 -0.0795,0.10415 -0.1169,0.13256 -0.0831,0.0631 z m 1.47088,-1.19662 c 0.0231,-0.0245 0.20215,-0.0941 0.39789,-0.1547 0.19574,-0.0606 0.35437,-0.13634 0.3525,-0.1684 -0.002,-0.0321 -0.16138,-0.11096 -0.35449,-0.17533 -0.19311,-0.0644 -0.33925,-0.12889 -0.32476,-0.14339 0.0467,-0.0467 0.8309,0.25818 0.83231,0.32355 0.001,0.054 -0.21089,0.13791 -0.81921,0.32419 -0.0694,0.0213 -0.10734,0.0186 -0.0842,-0.006 z m 1.24671,17.10927 c -0.0145,-0.0139 -0.27744,-0.0721 -0.5844,-0.12936 -2.63333,-0.491 -5.36416,-1.84669 -7.3402,-3.64395 -2.47921,-2.25492 -4.48768,-5.51177 -6.07542,-9.85163 -0.4067,-1.11168 -0.9543,-2.8494 -0.9543,-3.02834 0,-0.10415 0.24972,-0.11156 4.27642,-0.12683 l 4.27642,-0.0162 0.0196,-0.23671 0.0196,-0.2367 h -4.67101 c -2.56905,0 -4.68596,0.0242 -4.70424,0.0538 -0.0748,0.12097 0.63359,2.50165 1.17131,3.93662 2.24172,5.98233 5.57856,10.16506 9.67966,12.13344 0.97342,0.46721 2.3781,0.88085 3.62943,1.06877 0.57038,0.0857 1.3134,0.13125 1.25715,0.0771 z m 15.89455,-0.0128 c -0.021,-0.021 -0.0754,-0.0232 -0.12098,-0.005 -0.0503,0.0201 -0.0354,0.0351 0.0381,0.0381 0.0665,0.003 0.10382,-0.0122 0.0828,-0.0331 z m 1.59511,-0.25391 c 1.52197,-0.33503 3.13909,-1.01275 4.35533,-1.82528 3.83377,-2.56123 7.04791,-7.52595 8.80501,-13.60069 0.18593,-0.64279 0.34727,-1.25348 0.35854,-1.35709 l 0.0205,-0.18838 -4.57624,-0.015 c -2.51694,-0.008 -4.61301,0.008 -4.65795,0.037 -0.0449,0.0286 -0.0875,0.17743 -0.0947,0.33065 l -0.013,0.27859 4.10284,0.0316 4.10284,0.0316 -0.008,0.3156 c -0.01,0.37554 -0.30947,1.582 -0.66564,2.68048 -1.56765,4.83475 -4.48088,8.99261 -7.97359,11.38017 -1.5176,1.0374 -2.86211,1.62111 -4.63356,2.01161 -0.43817,0.0966 -0.47566,0.11278 -0.19517,0.0843 0.19094,-0.0194 0.67382,-0.10716 1.07305,-0.19504 z"
         id="path7658"
         inkscape:connector-curvature="0" />
      <path
         sodipodi:nodetypes="csssscscscsccscssscscscsscssccscscsssscsccscssscccscscscscccscscscscsscccscscsscccscsccscccscsccscccccccccccccccccccccscccccccccccscccscccccccscccccccccccccccccccccccccccscccccccccscccccccscssscssscsccccccccscccscscccscsssccsssscccssssscccccscsccssssccccssccsccscccccccccsssccccsccscccccccccccccccccccccsccccscsscscscccccscsccsscccsscccsssccccssccccsscccccccscc"
         style="fill:#fdc600"
         d="m 121.74839,930.3133 c -1.70307,-1.86617 -3.1287,-3.37696 -3.18659,-3.37696 -0.0576,0 -1.91751,0.96656 -4.13308,2.1479 -2.2814,1.21644 -4.0521,2.12409 -4.08317,2.09302 -0.0302,-0.0302 -0.8736,-1.94117 -1.87426,-4.24665 -1.42883,-3.29194 -1.84494,-4.19496 -1.93838,-4.20658 -0.0654,-0.008 -2.12149,0.30858 -4.56899,0.70382 -2.786891,0.45004 -4.473271,0.69652 -4.512251,0.6595 -0.0342,-0.0325 -0.22371,-2.10662 -0.42105,-4.60913 -0.19734,-2.50249 -0.38236,-4.57322 -0.41116,-4.6016 -0.0288,-0.0284 -2.04065,-0.39538 -4.4708,-0.81555 -2.43014,-0.42017 -4.46814,-0.7789 -4.5289,-0.79717 -0.0607,-0.0183 -0.11005,-0.081 -0.10955,-0.13944 5.1e-4,-0.0584 0.51034,-2.0803 1.13298,-4.49309 0.87431,-3.38808 1.11482,-4.40328 1.05636,-4.45894 -0.0416,-0.0396 -1.87228,-1.05785 -4.068087,-2.2627 -2.195807,-1.20485 -3.992377,-2.21414 -3.992377,-2.24287 0,-0.0287 0.461569,-0.74951 1.02571,-1.60175 2.545189,-3.84496 3.993957,-6.06121 4.012599,-6.13828 0.01112,-0.046 -1.375748,-1.61848 -3.081934,-3.49444 -1.706186,-1.87597 -3.092893,-3.43722 -3.081571,-3.46945 0.01132,-0.0322 1.611224,-1.28409 3.555339,-2.78189 1.944114,-1.49781 3.587721,-2.77438 3.652471,-2.83681 0.11444,-0.11036 0.0675,-0.22985 -1.688754,-4.30203 -1.603859,-3.71874 -1.882534,-4.40943 -1.77909,-4.40943 0.07225,0 8.658934,-2.92387 8.701394,-2.96293 0.027,-0.0249 -0.10981,-2.1122 -0.30408,-4.63853 -0.19428,-2.52634 -0.33743,-4.60913 -0.31812,-4.62844 0.0193,-0.0193 2.10602,-0.0287 4.63715,-0.0208 3.755311,0.0116 4.611941,-10e-4 4.655831,-0.0691 0.0296,-0.0458 0.56755,-2.05744 1.19547,-4.47023 0.98796,-3.79622 1.15794,-4.38926 1.26244,-4.40455 0.0664,-0.01 2.03804,0.65073 4.3814,1.46767 2.34335,0.81693 4.29529,1.4723 4.33765,1.45637 0.0423,-0.0159 0.65535,-0.90362 1.36221,-1.97263 0.70686,-1.06902 1.84445,-2.78869 2.52799,-3.8215 0.68353,-1.03282 1.27163,-1.87784 1.30689,-1.87784 0.0353,0 1.68497,1.27109 3.66603,2.82464 1.98106,1.55356 3.63865,2.82121 3.68355,2.81701 0.0632,-0.006 4.55338,-3.41975 6.99765,-5.32021 l 0.36955,-0.28733 0.11683,0.14428 c 0.0643,0.0794 1.20223,1.82126 2.52882,3.87091 1.32659,2.04965 2.44454,3.73912 2.48435,3.7544 0.0398,0.0153 2.02583,-0.62973 4.4134,-1.43333 3.05844,-1.0294 4.3608,-1.44132 4.40795,-1.39417 0.0368,0.0368 0.55615,2.0393 1.15407,4.44998 0.59793,2.41069 1.10406,4.41042 1.12472,4.44386 0.0231,0.0374 1.80617,0.0784 4.63169,0.10643 2.52676,0.0251 4.61863,0.0695 4.6486,0.0986 0.0305,0.0296 -0.11969,2.05856 -0.34102,4.60702 -0.33842,3.89673 -0.38273,4.5658 -0.30697,4.6355 0.0487,0.0448 1.99162,0.74356 4.31761,1.55281 2.326,0.80925 4.26328,1.50225 4.30507,1.54001 0.058,0.0524 -0.35713,1.04586 -1.75423,4.19798 -1.00663,2.27112 -1.83614,4.18706 -1.84337,4.25764 -0.0103,0.10015 0.75455,0.73423 3.48377,2.88832 1.92331,1.518 3.55506,2.81814 3.62613,2.8892 l 0.1292,0.12921 -0.13018,0.14358 c -0.0716,0.079 -1.48517,1.6045 -3.14128,3.39006 -1.91681,2.06666 -3.00163,3.28243 -2.98506,3.34539 0.0143,0.0544 1.11503,1.78843 2.44602,3.85339 1.331,2.06497 2.43032,3.81183 2.44294,3.88192 0.0198,0.11 -0.51849,0.4168 -3.93355,2.24197 -2.17607,1.163 -4.01019,2.15715 -4.07583,2.20922 -0.11542,0.0916 -0.0831,0.2412 0.98795,4.57204 0.609,2.46255 1.08551,4.49834 1.0589,4.52397 -0.0266,0.0256 -2.07884,0.37644 -4.5605,0.77958 -2.48167,0.40314 -4.53511,0.75596 -4.56321,0.78406 -0.0364,0.0364 -0.85849,8.75326 -0.8654,9.176 -0.002,0.0965 -0.44211,0.0308 -4.764,-0.70951 -2.42883,-0.41607 -4.43688,-0.73554 -4.46231,-0.70993 -0.0254,0.0256 -0.88247,1.92125 -1.90451,4.21253 -1.11533,2.50042 -1.89537,4.17342 -1.95111,4.18461 -0.0511,0.0103 -1.89021,-0.96394 -4.08697,-2.16489 -2.19676,-1.20094 -4.03163,-2.17508 -4.07748,-2.16475 -0.0729,0.0164 -2.13728,2.1973 -5.32048,5.62074 -0.54069,0.5815 -1.0155,1.05727 -1.05513,1.05727 -0.0396,0 -1.45889,-1.51963 -3.1539,-3.37695 z m 12.87368,-16.47964 c 0.0211,-0.0549 0.0383,-2.83285 0.0383,-6.1732 0,-4.63955 -0.0179,-6.09123 -0.0757,-6.14909 -0.0531,-0.0531 -0.40287,-0.0757 -1.16909,-0.0757 -1.07433,0 -1.09436,-0.002 -1.15213,-0.14203 -0.12285,-0.29679 -3.1031,-12.99993 -3.07007,-13.08601 0.0275,-0.0716 0.19359,-0.0904 0.79664,-0.0904 0.63337,0 0.80305,-0.021 1.00555,-0.12428 0.66401,-0.33875 0.72919,-1.34274 0.11554,-1.7797 -0.15866,-0.11297 -0.31074,-0.15185 -0.66372,-0.16967 -0.29054,-0.0147 -0.4579,-0.0498 -0.4579,-0.096 0,-0.0401 0.16332,-0.20016 0.36294,-0.35578 0.19962,-0.15563 0.67653,-0.58646 1.05981,-0.95742 l 0.69687,-0.67447 0.63533,10e-4 c 0.68368,10e-4 1.30001,-0.0742 2.20001,-0.27002 0.85985,-0.18709 1.29525,-0.3181 1.25793,-0.37849 -0.0185,-0.0299 0.0115,-0.0371 0.0666,-0.0159 0.138,0.053 1.05336,-0.28686 1.00099,-0.3716 -0.0248,-0.0401 -0.0107,-0.0477 0.0356,-0.0191 0.0942,0.0582 0.45942,-0.0842 0.41215,-0.16073 -0.0187,-0.0303 0.007,-0.0393 0.0574,-0.02 0.12961,0.0497 0.87783,-0.33853 0.82308,-0.42712 -0.0262,-0.0424 -0.0153,-0.0532 0.0273,-0.0268 0.0997,0.0616 0.46785,-0.13939 0.4142,-0.22619 -0.0265,-0.0429 -0.0146,-0.0524 0.0307,-0.0244 0.0974,0.0602 0.52657,-0.20662 0.47264,-0.29387 -0.0247,-0.04 -0.0119,-0.049 0.0316,-0.0222 0.0958,0.0592 0.46531,-0.20433 0.4106,-0.29286 -0.0255,-0.0413 -0.0124,-0.0497 0.0336,-0.0213 0.0882,0.0545 0.27429,-0.0784 0.22394,-0.15991 -0.0188,-0.0304 0.007,-0.0394 0.0574,-0.0201 0.089,0.0342 0.19316,-0.0666 0.20092,-0.19439 0.002,-0.0347 0.0411,-0.055 0.0865,-0.0451 0.10084,0.0219 0.26899,-0.10816 0.22719,-0.17579 -0.0166,-0.0268 0.0176,-0.0875 0.0759,-0.13487 0.073,-0.0592 0.0913,-0.0614 0.0587,-0.007 -0.0261,0.0434 -0.0226,0.0789 0.008,0.0789 0.0766,0 0.40335,-0.3486 0.36383,-0.38811 -0.0177,-0.0177 0.045,-0.10096 0.13923,-0.18499 0.0943,-0.084 0.1333,-0.10308 0.0867,-0.0423 -0.19373,0.25258 0.0513,0.0816 0.44989,-0.31391 0.39501,-0.39198 0.57623,-0.65117 0.31719,-0.45368 -0.0608,0.0463 -0.027,-0.007 0.0749,-0.11851 0.21072,-0.23043 0.30575,-0.27621 0.12602,-0.0607 -0.0652,0.0781 0.0157,0.0154 0.17957,-0.13938 0.27861,-0.26308 0.39778,-0.44874 0.21913,-0.34141 -0.0522,0.0314 -0.0492,0.0107 0.009,-0.0609 0.0483,-0.0596 0.10285,-0.0934 0.12112,-0.0751 0.0414,0.0414 0.26439,-0.15522 0.26439,-0.23304 0,-0.0314 -0.0355,-0.0366 -0.0789,-0.0117 -0.0458,0.0264 -0.0569,0.0213 -0.0263,-0.0121 0.0289,-0.0316 0.0715,-0.0524 0.0947,-0.0462 0.0582,0.0156 0.263,-0.17578 0.263,-0.24571 0,-0.0314 -0.0328,-0.0368 -0.0729,-0.012 -0.0455,0.0281 -0.0557,0.0173 -0.0272,-0.0289 0.0251,-0.0406 0.0689,-0.0595 0.0973,-0.042 0.0788,0.0487 0.20937,-0.14028 0.15628,-0.22619 -0.0278,-0.0449 -0.0201,-0.0591 0.019,-0.035 0.091,0.0563 0.22774,-0.12344 0.17002,-0.22349 -0.0259,-0.0449 -0.0239,-0.0606 0.005,-0.0349 0.0576,0.0522 0.22106,-0.0609 0.22106,-0.15293 0,-0.0325 -0.0355,-0.0387 -0.0789,-0.0137 -0.0458,0.0264 -0.0569,0.0213 -0.0263,-0.0121 0.0289,-0.0316 0.0857,-0.0581 0.12624,-0.059 0.0405,-8.4e-4 0.0697,-0.0502 0.065,-0.10978 -0.005,-0.0595 0.0156,-0.0933 0.0452,-0.075 0.076,0.047 0.64821,-0.83164 0.59633,-0.9156 -0.0234,-0.0379 -0.009,-0.0612 0.0331,-0.0516 0.0416,0.01 0.09,-0.0221 0.10756,-0.0703 0.0214,-0.0588 0.005,-0.0712 -0.0492,-0.0376 -0.0536,0.0331 -0.0656,0.025 -0.0354,-0.0238 0.0251,-0.0406 0.0707,-0.0584 0.10127,-0.0395 0.0761,0.047 0.2047,-0.20696 0.14977,-0.29584 -0.0265,-0.0429 -0.0161,-0.0542 0.0259,-0.0282 0.0868,0.0537 0.28783,-0.31447 0.2262,-0.4142 -0.0262,-0.0424 -0.0156,-0.0535 0.0263,-0.0276 0.0868,0.0536 0.28783,-0.31447 0.22619,-0.4142 -0.0288,-0.0466 -0.0151,-0.0532 0.0397,-0.0193 0.0612,0.0378 0.0725,0.0227 0.042,-0.0567 -0.024,-0.0626 -0.016,-0.0925 0.0191,-0.0708 0.0797,0.0492 0.90319,-1.59605 0.85792,-1.71401 -0.0192,-0.05 -0.01,-0.0753 0.0208,-0.0564 0.0964,0.0596 0.98316,-2.06686 0.92505,-2.21829 -0.0187,-0.0487 -0.008,-0.0726 0.0232,-0.0532 0.0755,0.0467 0.34276,-0.76169 0.28351,-0.85756 -0.0308,-0.0498 -0.0186,-0.0575 0.0369,-0.0232 0.0617,0.0381 0.0737,0.0165 0.0472,-0.085 -0.0196,-0.0749 -0.0143,-0.12303 0.0117,-0.10694 0.0846,0.0523 0.82459,-2.46113 0.82459,-2.80072 v -0.13109 l -4.65515,-0.0162 -4.65514,-0.0162 -0.0316,-0.37872 -0.0316,-0.37872 -11.90816,-0.0316 -11.90815,-0.0316 -0.24256,-0.19503 c -0.36716,-0.2952 -0.69505,-0.76079 -0.9184,-1.30409 -0.11062,-0.26905 -0.21863,-0.48918 -0.24004,-0.48918 -0.0214,0 -0.11508,0.19497 -0.20816,0.43326 -0.22642,0.57969 -0.43599,0.94445 -0.74305,1.29329 l -0.25516,0.28989 -0.89561,0.0175 -0.89562,0.0175 -0.0316,0.37873 -0.0316,0.37872 -4.62572,0.0162 c -3.91122,0.0137 -4.631,0.0299 -4.65987,0.10517 -0.085,0.22143 0.74192,2.93152 1.4053,4.60583 2.40212,6.06264 5.96734,10.19198 10.27887,11.90529 1.10321,0.43838 2.78724,0.78059 4.22934,0.85943 l 0.75719,0.0414 0.72589,0.70491 c 0.39923,0.3877 0.88921,0.82747 1.08883,0.97728 0.19962,0.14981 0.36294,0.28259 0.36294,0.29507 0,0.0125 -0.11197,0.0798 -0.24883,0.14964 -0.56833,0.28994 -0.79546,0.96802 -0.49548,1.47926 0.28548,0.48653 0.59075,0.59815 1.64879,0.60283 l 0.62044,0.003 -0.0443,0.20514 c -0.0971,0.44895 -3.06065,12.89754 -3.08769,12.96985 -0.0211,0.0564 -0.34231,0.0821 -1.18345,0.0947 l -1.15448,0.0172 -0.0163,6.15425 c -0.009,3.38485 -0.003,6.18977 0.0138,6.23316 0.0239,0.0626 1.86724,0.0789 8.9253,0.0789 8.05306,0 8.89886,-0.009 8.93355,-0.0998 z m -17.78252,-0.005 c -0.0233,-0.0233 -0.0423,-2.77292 -0.0423,-6.11032 0,-4.63539 0.0179,-6.08588 0.0757,-6.14374 0.0531,-0.0531 0.40287,-0.0757 1.16908,-0.0757 1.07434,0 1.09436,-0.002 1.15213,-0.14202 0.11889,-0.28723 3.10244,-12.99337 3.08304,-13.12988 -0.0194,-0.13643 -0.049,-0.1423 -0.87219,-0.17279 -0.76167,-0.0282 -0.87392,-0.0471 -1.0574,-0.17797 -0.46735,-0.33334 -0.55958,-0.96652 -0.20621,-1.41575 0.0685,-0.0871 0.25307,-0.21881 0.41007,-0.29261 0.157,-0.0738 0.28545,-0.15984 0.28545,-0.19121 0,-0.0314 -0.19173,-0.20749 -0.42606,-0.39138 -0.23434,-0.1839 -0.76032,-0.65811 -1.16885,-1.05382 -0.6539,-0.63336 -0.76223,-0.71458 -0.90521,-0.6787 -0.19589,0.0492 -1.76371,-0.26488 -2.68416,-0.53766 -5.47406,-1.62227 -9.29809,-5.81768 -11.97703,-13.14022 -0.4067,-1.11168 -0.9543,-2.8494 -0.9543,-3.02834 0,-0.10415 0.24972,-0.11156 4.27642,-0.12683 l 4.27642,-0.0162 0.0196,-0.23671 c 0.0108,-0.13047 0.0533,-0.23636 0.0947,-0.23595 0.17743,0.002 0.73059,0.18221 1.0219,0.33335 0.61925,0.32128 0.65268,0.371 0.79389,1.1808 0.2188,1.2547 0.43586,2.26037 0.78385,3.63174 0.76719,3.02331 1.41959,4.87883 2.3184,6.59379 1.65756,3.16271 3.1297,5.39439 4.74668,7.19575 0.29605,0.3298 0.53894,0.62095 0.53975,0.64698 8.2e-4,0.026 -0.0624,0.048 -0.14054,0.0487 -0.0781,7.6e-4 -0.2578,0.054 -0.3993,0.11823 -0.58589,0.26611 -0.63002,1.13715 -0.073,1.44155 0.16951,0.0926 0.34574,0.10968 1.04042,0.10059 0.45999,-0.006 0.83635,0.01 0.83635,0.0355 0,0.33188 -3.20459,14.7898 -3.31928,14.97537 -0.0185,0.0299 -0.28752,0.0543 -0.59792,0.0543 h -0.56436 l 3.1e-4,0.2367 c 1.9e-4,0.13019 0.11378,1.62464 0.25249,3.321 0.1387,1.69636 0.25219,3.16628 0.25219,3.26649 0,0.10021 0.0284,0.18219 0.0631,0.18219 0.0413,0 0.0631,-1.153 0.0631,-3.33276 0,-2.50799 0.0187,-3.35151 0.0757,-3.40851 0.0563,-0.0562 0.77515,-0.0783 2.79309,-0.0857 1.5347,-0.006 2.52504,-0.0297 2.2755,-0.0553 -0.24302,-0.0249 -0.64778,-0.0489 -0.89947,-0.0532 -0.41181,-0.007 -0.45763,-0.0204 -0.45763,-0.13317 0,-0.0689 0.11289,-1.04178 0.25086,-2.16188 0.74653,-6.06066 1.17383,-10.44951 1.24326,-12.76955 0.0514,-1.71862 0.0599,-1.69221 -1.37348,-4.27018 -1.44783,-2.60388 -2.46704,-4.87172 -3.35733,-7.47035 -1.10925,-3.23774 -1.47581,-5.27686 -1.55123,-8.62924 l -0.0408,-1.81481 10.63582,0.0369 c 5.8497,0.0203 10.66808,0.0466 10.7075,0.0585 0.0458,0.0137 0.0604,0.12172 0.0404,0.29888 -0.0228,0.20207 -0.004,0.30479 0.0698,0.3784 0.0575,0.0575 0.0731,0.11036 0.0361,0.12267 -0.0357,0.0119 -0.0709,0.1491 -0.0783,0.30489 l -0.0134,0.28327 4.10284,0.0316 4.10284,0.0316 -0.008,0.3156 c -0.01,0.37554 -0.30947,1.582 -0.66564,2.68048 -1.77614,5.47774 -5.29437,10.07974 -9.33068,12.20492 -0.94546,0.49781 -1.65241,0.77436 -2.59987,1.01705 -0.45615,0.11684 -0.77372,0.22592 -0.70763,0.24306 0.0659,0.0171 -0.0221,0.0195 -0.1957,0.005 -0.24594,-0.0201 -0.28773,-0.0114 -0.18936,0.0396 0.097,0.0503 0.0531,0.058 -0.18936,0.0331 -0.22884,-0.0234 -0.28957,-0.0143 -0.22092,0.0331 0.0672,0.0464 -0.11917,0.0605 -0.64099,0.0487 l -0.73567,-0.0167 -0.68454,0.66135 c -0.3765,0.36374 -0.8915,0.82856 -1.14445,1.03292 -0.25294,0.20437 -0.44952,0.40306 -0.43684,0.44153 0.0127,0.0386 0.23446,0.0851 0.4941,0.10381 0.30309,0.0218 0.54633,0.078 0.68219,0.1578 0.58408,0.34287 0.59176,1.2625 0.0136,1.62207 -0.20279,0.1261 -0.32939,0.14562 -1.07073,0.16509 -0.56215,0.0148 -0.85008,0.0464 -0.8689,0.0954 -0.0476,0.12415 3.11254,13.3089 3.2038,13.36676 0.0461,0.0292 0.57397,0.0536 1.173,0.0541 l 1.08914,9.7e-4 -0.0161,6.13847 -0.0161,6.13848 -8.81036,0.016 c -4.8457,0.009 -8.8294,-0.003 -8.85267,-0.0263 z m 15.29601,-6.23094 c 0,-4.72842 0.0164,-4.52822 -0.36213,-4.42363 -0.0959,0.0265 -2.97222,0.0652 -6.39178,0.0859 l -6.21737,0.0378 -0.0163,4.22908 c -0.009,2.326 -0.003,4.26459 0.0138,4.30798 0.0238,0.0624 1.38267,0.0789 6.50199,0.0789 h 6.47184 v -4.31603 z m -15.31191,-25.64144 c 0.0549,-0.0211 0.0998,-0.0667 0.0998,-0.10144 0,-0.0347 -0.23793,-0.43644 -0.52874,-0.89271 -0.78461,-1.23106 -1.12065,-1.8318 -1.80574,-3.22817 -1.47969,-3.01597 -2.55095,-6.23772 -3.05901,-9.19983 l -0.0406,-0.2367 h -3.59128 c -1.97521,0 -3.60651,0.0246 -3.6251,0.0547 -0.0975,0.1577 0.87311,2.64317 1.66707,4.26906 2.54949,5.22088 6.01988,8.37596 10.16284,9.23946 0.3298,0.0687 0.60442,0.127 0.61026,0.12946 0.006,0.002 0.0555,-0.0128 0.11046,-0.0338 z m -0.94191,-0.243 c -4.06465,-0.94138 -7.40917,-4.0654 -9.93654,-9.28145 -0.68897,-1.42193 -1.62196,-3.81482 -1.55521,-3.98877 0.0262,-0.0682 0.67243,-0.0806 3.52099,-0.0673 l 3.48891,0.0163 0.0544,0.28404 c 0.85057,4.44237 2.57909,8.82063 4.8793,12.35902 0.25502,0.39229 0.46367,0.74025 0.46367,0.77322 0,0.0894 -0.21543,0.067 -0.91551,-0.0951 z m 19.25525,0.0273 c 3.7474,-0.96253 6.99432,-3.97175 9.39706,-8.70913 0.64984,-1.28126 1.06123,-2.22671 1.5478,-3.55714 0.361,-0.98706 0.38423,-1.14469 0.17694,-1.20024 -0.0781,-0.0209 -1.66332,-0.0385 -3.52269,-0.0389 -2.60604,-6.6e-4 -3.40538,0.0172 -3.48855,0.078 -0.0749,0.0547 -0.16607,0.36863 -0.29807,1.02571 -0.80333,3.99884 -2.54309,8.28532 -4.74192,11.68325 -0.27169,0.41986 -0.49399,0.81369 -0.49399,0.87518 0,0.0992 0.0409,0.10676 0.36294,0.0671 0.19962,-0.0246 0.67684,-0.12531 1.06048,-0.22385 z m -1.29718,0.0667 c 0,-0.0335 0.20974,-0.38151 0.46608,-0.77323 1.66406,-2.54284 3.18266,-5.90655 4.10414,-9.09065 0.23986,-0.82881 0.58642,-2.2941 0.77276,-3.26732 l 0.0544,-0.28404 3.49922,-0.0163 c 1.92458,-0.009 3.52358,0.008 3.55334,0.0378 0.0657,0.0657 -0.457,1.54237 -0.97541,2.75583 -2.29647,5.37549 -5.61391,8.97875 -9.44387,10.25753 -1.008,0.33656 -2.03064,0.52814 -2.03064,0.38041 z m -22.53405,-15.81382 v -0.28405 l 0.55231,0.004 c 0.30377,0.002 0.60892,0.0265 0.67813,0.0536 0.11594,0.0453 0.11074,0.0569 -0.0662,0.14841 -0.24278,0.12554 -0.93978,0.36168 -1.06758,0.36168 -0.0725,0 -0.0967,-0.071 -0.0967,-0.28404 z"
         id="path7656"
         inkscape:connector-curvature="0" />
      <path
         sodipodi:nodetypes="csssscscscsccscssscscscsscssccscscsssscsccscssscccscscscscccscscscscsscccscscsscccscsccscccscsccsssccccccccccssscccccscssscssscsccccccccscccscsccsscccssccccsscc"
         style="fill:#019de1"
         d="m 121.74839,930.3133 c -1.70307,-1.86617 -3.1287,-3.37696 -3.18659,-3.37696 -0.0576,0 -1.91751,0.96656 -4.13308,2.1479 -2.2814,1.21644 -4.0521,2.12409 -4.08317,2.09302 -0.0302,-0.0302 -0.8736,-1.94117 -1.87426,-4.24665 -1.42883,-3.29194 -1.84494,-4.19496 -1.93838,-4.20658 -0.0654,-0.008 -2.12149,0.30858 -4.56899,0.70382 -2.786891,0.45004 -4.473271,0.69652 -4.512251,0.6595 -0.0342,-0.0325 -0.22371,-2.10662 -0.42105,-4.60913 -0.19734,-2.50249 -0.38236,-4.57322 -0.41116,-4.6016 -0.0288,-0.0284 -2.04065,-0.39538 -4.4708,-0.81555 -2.43014,-0.42017 -4.46814,-0.7789 -4.5289,-0.79717 -0.0607,-0.0183 -0.11005,-0.081 -0.10955,-0.13944 5.1e-4,-0.0584 0.51034,-2.0803 1.13298,-4.49309 0.87431,-3.38808 1.11482,-4.40328 1.05636,-4.45894 -0.0416,-0.0396 -1.87228,-1.05785 -4.068087,-2.2627 -2.195807,-1.20485 -3.992377,-2.21414 -3.992377,-2.24287 0,-0.0287 0.461569,-0.74951 1.02571,-1.60175 2.545189,-3.84496 3.993957,-6.06121 4.012599,-6.13828 0.01112,-0.046 -1.375748,-1.61848 -3.081934,-3.49444 -1.706186,-1.87597 -3.092893,-3.43722 -3.081571,-3.46945 0.01132,-0.0322 1.611224,-1.28409 3.555339,-2.78189 1.944114,-1.49781 3.587721,-2.77438 3.652471,-2.83681 0.11444,-0.11036 0.0675,-0.22985 -1.688754,-4.30203 -1.603859,-3.71874 -1.882534,-4.40943 -1.77909,-4.40943 0.07225,0 8.658934,-2.92387 8.701394,-2.96293 0.027,-0.0249 -0.10981,-2.1122 -0.30408,-4.63853 -0.19428,-2.52634 -0.33743,-4.60913 -0.31812,-4.62844 0.0193,-0.0193 2.10602,-0.0287 4.63715,-0.0208 3.755311,0.0116 4.611941,-10e-4 4.655831,-0.0691 0.0296,-0.0458 0.56755,-2.05744 1.19547,-4.47023 0.98796,-3.79622 1.15794,-4.38926 1.26244,-4.40455 0.0664,-0.01 2.03804,0.65073 4.3814,1.46767 2.34335,0.81693 4.29529,1.4723 4.33765,1.45637 0.0423,-0.0159 0.65535,-0.90362 1.36221,-1.97263 0.70686,-1.06902 1.84445,-2.78869 2.52799,-3.8215 0.68353,-1.03282 1.27163,-1.87784 1.30689,-1.87784 0.0353,0 1.68497,1.27109 3.66603,2.82464 1.98106,1.55356 3.63865,2.82121 3.68355,2.81701 0.0632,-0.006 4.55338,-3.41975 6.99765,-5.32021 l 0.36955,-0.28733 0.11683,0.14428 c 0.0643,0.0794 1.20223,1.82126 2.52882,3.87091 1.32659,2.04965 2.44454,3.73912 2.48435,3.7544 0.0398,0.0153 2.02583,-0.62973 4.4134,-1.43333 3.05844,-1.0294 4.3608,-1.44132 4.40795,-1.39417 0.0368,0.0368 0.55615,2.0393 1.15407,4.44998 0.59793,2.41069 1.10406,4.41042 1.12472,4.44386 0.0231,0.0374 1.80617,0.0784 4.63169,0.10643 2.52676,0.0251 4.61863,0.0695 4.6486,0.0986 0.0305,0.0296 -0.11969,2.05856 -0.34102,4.60702 -0.33842,3.89673 -0.38273,4.5658 -0.30697,4.6355 0.0487,0.0448 1.99162,0.74356 4.31761,1.55281 2.326,0.80925 4.26328,1.50225 4.30507,1.54001 0.058,0.0524 -0.35713,1.04586 -1.75423,4.19798 -1.00663,2.27112 -1.83614,4.18706 -1.84337,4.25764 -0.0103,0.10015 0.75455,0.73423 3.48377,2.88832 1.92331,1.518 3.55506,2.81814 3.62613,2.8892 l 0.1292,0.12921 -0.13018,0.14358 c -0.0716,0.079 -1.48517,1.6045 -3.14128,3.39006 -1.91681,2.06666 -3.00163,3.28243 -2.98506,3.34539 0.0143,0.0544 1.11503,1.78843 2.44602,3.85339 1.331,2.06497 2.43032,3.81183 2.44294,3.88192 0.0198,0.11 -0.51849,0.4168 -3.93355,2.24197 -2.17607,1.163 -4.01019,2.15715 -4.07583,2.20922 -0.11542,0.0916 -0.0831,0.2412 0.98795,4.57204 0.609,2.46255 1.08551,4.49834 1.0589,4.52397 -0.0266,0.0256 -2.07884,0.37644 -4.5605,0.77958 -2.48167,0.40314 -4.53511,0.75596 -4.56321,0.78406 -0.0364,0.0364 -0.85849,8.75326 -0.8654,9.176 -0.002,0.0965 -0.44211,0.0308 -4.764,-0.70951 -2.42883,-0.41607 -4.43688,-0.73554 -4.46231,-0.70993 -0.0254,0.0256 -0.88247,1.92125 -1.90451,4.21253 -1.11533,2.50042 -1.89537,4.17342 -1.95111,4.18461 -0.0511,0.0103 -1.89021,-0.96394 -4.08697,-2.16489 -2.19676,-1.20094 -4.03163,-2.17508 -4.07748,-2.16475 -0.0729,0.0164 -2.13728,2.1973 -5.32048,5.62074 -0.54069,0.5815 -1.0155,1.05727 -1.05513,1.05727 -0.0396,0 -1.45889,-1.51963 -3.1539,-3.37695 z m 12.87368,-16.47964 c 0.0211,-0.0549 0.0383,-2.83285 0.0383,-6.1732 0,-4.63955 -0.0179,-6.09123 -0.0757,-6.14909 -0.0531,-0.0531 -0.40287,-0.0757 -1.16909,-0.0757 -1.07433,0 -1.09436,-0.002 -1.15213,-0.14203 -0.12285,-0.29679 -3.1031,-12.99993 -3.07007,-13.08601 0.0275,-0.0716 0.19359,-0.0904 0.79664,-0.0904 0.63337,0 0.80305,-0.021 1.00555,-0.12428 0.66401,-0.33875 0.72919,-1.34274 0.11554,-1.7797 -0.15866,-0.11297 -0.31074,-0.15185 -0.66372,-0.16967 -0.29054,-0.0147 -0.4579,-0.0498 -0.4579,-0.096 0,-0.0401 0.16332,-0.20016 0.36294,-0.35578 0.19962,-0.15563 0.67629,-0.58623 1.05928,-0.95691 l 0.69633,-0.67395 0.66076,-3.1e-4 c 1.39668,-6.4e-4 3.38038,-0.4648 4.9618,-1.161 2.75588,-1.21323 5.41118,-3.76626 7.47543,-7.18753 0.60416,-1.00133 1.61989,-3.04631 2.07344,-4.17448 0.63395,-1.57691 1.51913,-4.38921 1.51975,-4.82837 v -0.14162 l -4.65514,-0.0162 -4.65515,-0.0162 -0.0316,-0.37873 -0.0316,-0.37872 -11.90815,-0.0316 -11.90816,-0.0316 -0.24256,-0.19502 c -0.36715,-0.29521 -0.69504,-0.7608 -0.9184,-1.30409 -0.11061,-0.26906 -0.21863,-0.48919 -0.24004,-0.48919 -0.0214,0 -0.11508,0.19497 -0.20816,0.43327 -0.22642,0.57969 -0.43599,0.94445 -0.74305,1.29329 l -0.25516,0.28988 -0.89561,0.0175 -0.89541,0.0175 -0.0316,0.37873 -0.0316,0.37872 -4.62572,0.0162 c -3.91122,0.0137 -4.631,0.0299 -4.65987,0.10517 -0.085,0.22143 0.74192,2.93152 1.4053,4.60583 2.40212,6.06264 5.96734,10.19198 10.27887,11.90529 1.10321,0.43838 2.78724,0.78059 4.22934,0.85943 l 0.75719,0.0414 0.72589,0.70491 c 0.39923,0.3877 0.88921,0.82747 1.08883,0.97728 0.19962,0.14981 0.36294,0.28259 0.36294,0.29507 0,0.0125 -0.11197,0.0798 -0.24883,0.14964 -0.56833,0.28994 -0.79546,0.96802 -0.49548,1.47926 0.28548,0.48653 0.59075,0.59815 1.64879,0.60283 l 0.62044,0.003 -0.0443,0.20514 c -0.0971,0.44895 -3.06065,12.89754 -3.08769,12.96985 -0.0211,0.0564 -0.34231,0.0821 -1.18345,0.0947 l -1.15448,0.0172 -0.0163,6.15425 c -0.009,3.38485 -0.003,6.18977 0.0138,6.23316 0.0239,0.0626 1.86724,0.0789 8.9253,0.0789 8.05306,0 8.89886,-0.009 8.93355,-0.0998 z m -18.74033,-32.12049 c -4.06465,-0.94138 -7.40917,-4.0654 -9.93654,-9.28145 -0.68897,-1.42193 -1.62196,-3.81482 -1.55521,-3.98877 0.0262,-0.0682 0.67243,-0.0806 3.52099,-0.0673 l 3.48891,0.0163 0.0544,0.28404 c 0.85057,4.44237 2.57909,8.82063 4.8793,12.35902 0.25502,0.39229 0.46367,0.74025 0.46367,0.77322 0,0.0894 -0.21543,0.067 -0.91551,-0.0951 z m 17.95807,0.0941 c 0,-0.0335 0.20974,-0.38151 0.46608,-0.77323 1.66406,-2.54284 3.18266,-5.90655 4.10414,-9.09065 0.23986,-0.82881 0.58642,-2.2941 0.77276,-3.26732 l 0.0544,-0.28404 3.49922,-0.0163 c 1.92458,-0.009 3.52358,0.008 3.55334,0.0378 0.0657,0.0657 -0.457,1.54237 -0.97541,2.75583 -2.29647,5.37549 -5.61391,8.97875 -9.44387,10.25753 -1.008,0.33656 -2.03064,0.52814 -2.03064,0.38041 z"
         id="path7654"
         inkscape:connector-curvature="0" />
      <path
         sodipodi:nodetypes="csscscscscsccccccscscsccscccscsccsssccccccccccscssscssscsscsscssscssssssccccccccccccccccccccccsccscccccccccccccccccccccccccccccccccccccccccccccccccccccccccccccccccccccccccccccccccccccccccccccccccccccccccccccccccccsccsccccccccccccccccccccsscsccccccccccccccccccccccccccccccccccccccccssssccccccccccccccccccccccccccsssccccccccccsccccccccsccccccccccccccccccscccccccsscccccccccscsssscsscccsccccccccccccscscsscsccscccccccccssccccssccsssscccccccccccccccccscccssscccccccscscccscccscscccscccscsccccsccscscccssccccsscccccccscsccsscccscscccscccscsccccscscssscscsccccscccccccscccsscccsccccsccccsccccscccscccccccccsccccccccccccccscccccccccscscccccccccsccccccccscsccscscccccccscscccsccscscccccccccccccccccccccccccccccccccccccccccccccccccccccccccccccsccsccccccccccccccccccccssssccssssssccscccccccccccccccccccccccccccccccccccssc"
         style="fill:#006993"
         d="m 125.93728,931.65461 c -0.18891,-0.21698 -2.51374,-2.95089 -5.16629,-6.07536 -2.65254,-3.12447 -5.38448,-6.34244 -6.07097,-7.15105 l -1.24816,-1.47019 v -1.46807 c 0,-1.05767 0.0212,-1.48925 0.0757,-1.54381 0.0547,-0.0548 0.50075,-0.0757 1.60957,-0.0757 h 1.53383 v -6.17319 c 0,-4.71721 0.0179,-6.19106 0.0757,-6.24894 0.0532,-0.0532 0.40855,-0.0757 1.19466,-0.0757 0.94587,0 1.12352,-0.0148 1.14868,-0.0959 0.0208,-0.0671 0.0267,-0.0624 0.0196,0.0158 -0.009,0.1012 -0.11978,0.11466 -1.17708,0.14326 l -1.16696,0.0316 v 6.21737 6.21738 l 8.89615,0.016 c 7.07523,0.0127 8.90642,0 8.94637,-0.0631 0.0276,-0.0435 0.0507,-2.82155 0.0512,-6.17341 7.4e-4,-4.65693 -0.0169,-6.11216 -0.0748,-6.17004 -0.0531,-0.0531 -0.40287,-0.0757 -1.16909,-0.0757 -1.07433,0 -1.09436,-0.002 -1.15213,-0.14203 -0.12285,-0.29679 -3.1031,-12.99993 -3.07007,-13.08601 0.0275,-0.0716 0.19359,-0.0904 0.79664,-0.0904 0.63337,0 0.80305,-0.021 1.00555,-0.12428 0.66401,-0.33875 0.72919,-1.34274 0.11554,-1.7797 -0.15866,-0.11297 -0.31074,-0.15185 -0.66372,-0.16967 -0.29054,-0.0147 -0.4579,-0.0498 -0.4579,-0.096 0,-0.0401 0.16332,-0.20016 0.36294,-0.35578 0.19962,-0.15563 0.67629,-0.58623 1.05928,-0.95691 l 0.69633,-0.67395 0.66076,-3.1e-4 c 1.39668,-6.4e-4 3.38038,-0.4648 4.9618,-1.161 2.75588,-1.21323 5.41118,-3.76626 7.47543,-7.18753 0.60416,-1.00133 1.61989,-3.04631 2.07344,-4.17448 0.63395,-1.57691 1.51913,-4.38921 1.51975,-4.82837 v -0.14162 l -4.65514,-0.0162 -4.65515,-0.0162 -0.0316,-0.39451 c -0.0174,-0.21699 -0.0198,-0.39451 -0.005,-0.39451 0.0144,10e-6 0.20367,0.17044 0.42059,0.37873 l 0.39441,0.37873 4.25032,6.9e-4 4.25032,7e-4 7.35355,5.14516 c 4.04445,2.82983 7.37749,5.18022 7.40674,5.22309 0.0333,0.0487 -0.151,0.59677 -0.49149,1.46196 -0.54044,1.37324 -0.54372,1.385 -0.42133,1.50739 0.0678,0.0678 1.69318,1.36207 3.61185,2.87605 1.91867,1.51399 3.49743,2.7811 3.50835,2.81582 0.0109,0.0347 -1.38614,1.57878 -3.10458,3.43126 -1.71844,1.85248 -3.12443,3.39743 -3.12443,3.43322 0,0.0358 1.09901,1.77084 2.44223,3.85566 1.34323,2.08481 2.44389,3.84657 2.44592,3.91502 0.003,0.10104 -0.74206,0.52434 -3.96092,2.25035 -2.18054,1.16924 -4.00392,2.16577 -4.05196,2.21452 -0.0745,0.0756 -0.0227,0.34901 0.35118,1.856 1.39059,5.60446 1.7541,7.13584 1.70542,7.18452 -0.0297,0.0297 -2.06682,0.38092 -4.52684,0.78039 -2.46002,0.39947 -4.50701,0.75909 -4.54886,0.79914 -0.0498,0.0477 -0.21608,1.63866 -0.48144,4.60662 -0.22294,2.49358 -0.43013,4.55621 -0.46043,4.58361 -0.0303,0.0274 -2.07179,-0.29725 -4.53665,-0.72146 -2.50717,-0.43149 -4.52327,-0.75013 -4.57624,-0.72327 -0.0521,0.0264 -0.93098,1.9253 -1.95312,4.21977 -1.11254,2.4974 -1.89213,4.17176 -1.94238,4.17176 -0.0462,0 -1.87664,-0.97995 -4.06771,-2.17766 -2.19108,-1.19772 -4.01632,-2.17766 -4.05611,-2.17766 -0.0398,0 -1.16057,1.15037 -2.49064,2.55638 -1.33007,1.40601 -2.44055,2.55638 -2.46774,2.55638 -0.0272,0 -0.20401,-0.17752 -0.39292,-0.3945 z m -6.79958,-30.63453 c 0.003,-0.0735 0.018,-0.0885 0.0381,-0.0381 0.0182,0.0456 0.016,0.1 -0.005,0.12098 -0.021,0.021 -0.0359,-0.0163 -0.0332,-0.0829 z m 0.0631,-0.25248 c 0.003,-0.0735 0.018,-0.0885 0.0381,-0.0381 0.0182,0.0456 0.016,0.10001 -0.005,0.12099 -0.021,0.021 -0.0359,-0.0163 -0.0332,-0.0829 z m 0.0631,-0.25248 c 0.003,-0.0735 0.018,-0.0885 0.0381,-0.0381 0.0182,0.0456 0.016,0.10001 -0.005,0.12098 -0.021,0.021 -0.0359,-0.0163 -0.0332,-0.0828 z m 0.0631,-0.25248 c 0.003,-0.0735 0.018,-0.0885 0.0381,-0.0381 0.0182,0.0456 0.016,0.10001 -0.005,0.12098 -0.021,0.021 -0.0359,-0.0163 -0.0332,-0.0828 z m 0.0681,-0.27879 c 0,-0.0868 0.0143,-0.12229 0.0318,-0.0789 0.0175,0.0434 0.0175,0.11441 0,0.1578 -0.0175,0.0434 -0.0318,0.008 -0.0318,-0.0789 z m 0.0581,-0.2893 c 0.003,-0.0735 0.018,-0.0885 0.0381,-0.0381 0.0182,0.0456 0.016,0.10001 -0.005,0.12099 -0.021,0.021 -0.0359,-0.0163 -0.0332,-0.0829 z m 0.0631,-0.25248 c 0.003,-0.0735 0.018,-0.0885 0.0381,-0.0381 0.0182,0.0456 0.016,0.10001 -0.005,0.12098 -0.021,0.021 -0.0359,-0.0163 -0.0332,-0.0828 z m 0.0631,-0.25248 c 0.003,-0.0735 0.018,-0.0885 0.0381,-0.0381 0.0182,0.0456 0.016,0.10001 -0.005,0.12098 -0.021,0.021 -0.0359,-0.0163 -0.0332,-0.0828 z m 0.0631,-0.25249 c 0.003,-0.0735 0.018,-0.0885 0.0381,-0.0381 0.0182,0.0456 0.016,0.1 -0.005,0.12098 -0.021,0.021 -0.0359,-0.0163 -0.0332,-0.0829 z m 0.0631,-0.3156 c 0.003,-0.0735 0.018,-0.0885 0.0381,-0.0381 0.0182,0.0456 0.016,0.10001 -0.005,0.12099 -0.021,0.021 -0.0359,-0.0163 -0.0332,-0.0829 z m 0.0631,-0.25248 c 0.003,-0.0735 0.018,-0.0885 0.0381,-0.0381 0.0182,0.0456 0.016,0.10001 -0.005,0.12098 -0.021,0.021 -0.0359,-0.0163 -0.0331,-0.0828 z m 0.0631,-0.25248 c 0.003,-0.0735 0.018,-0.0885 0.0381,-0.0381 0.0182,0.0456 0.016,0.10001 -0.005,0.12098 -0.021,0.021 -0.0359,-0.0163 -0.0331,-0.0828 z m 0.0631,-0.25249 c 0.003,-0.0735 0.018,-0.0885 0.0381,-0.0381 0.0182,0.0456 0.016,0.1 -0.005,0.12098 -0.021,0.021 -0.0359,-0.0163 -0.0331,-0.0829 z m 0.0631,-0.25248 c 0.003,-0.0735 0.018,-0.0885 0.0381,-0.0381 0.0182,0.0456 0.016,0.1 -0.005,0.12098 -0.021,0.021 -0.0359,-0.0163 -0.0332,-0.0829 z m 0.0631,-0.3156 c 0.003,-0.0735 0.018,-0.0885 0.0381,-0.0381 0.0182,0.0456 0.016,0.10001 -0.005,0.12098 -0.021,0.021 -0.0359,-0.0163 -0.0332,-0.0828 z m 0.0631,-0.25248 c 0.003,-0.0735 0.018,-0.0885 0.0381,-0.0381 0.0182,0.0456 0.016,0.10001 -0.005,0.12098 -0.021,0.021 -0.0359,-0.0163 -0.0332,-0.0828 z m 0.0631,-0.25249 c 0.003,-0.0735 0.018,-0.0885 0.0381,-0.0381 0.0182,0.0456 0.016,0.1 -0.005,0.12098 -0.021,0.021 -0.0359,-0.0163 -0.0332,-0.0829 z m 0.0631,-0.25248 c 0.003,-0.0735 0.018,-0.0885 0.0381,-0.0381 0.0182,0.0456 0.016,0.1 -0.005,0.12098 -0.021,0.021 -0.0359,-0.0163 -0.0332,-0.0829 z m 0.0631,-0.25248 c 0.003,-0.0735 0.018,-0.0885 0.0381,-0.0381 0.0182,0.0456 0.016,0.10001 -0.005,0.12098 -0.021,0.021 -0.0359,-0.0163 -0.0332,-0.0828 z m 0.0631,-0.3156 c 0.003,-0.0735 0.018,-0.0885 0.0381,-0.0381 0.0182,0.0456 0.016,0.10001 -0.005,0.12098 -0.021,0.021 -0.0359,-0.0163 -0.0332,-0.0828 z m 0.0631,-0.25249 c 0.003,-0.0735 0.018,-0.0885 0.0381,-0.0381 0.0182,0.0456 0.016,0.1 -0.005,0.12098 -0.021,0.021 -0.0359,-0.0163 -0.0332,-0.0829 z m 0.0631,-0.25248 c 0.003,-0.0735 0.018,-0.0885 0.0381,-0.0381 0.0182,0.0456 0.016,0.1 -0.005,0.12098 -0.021,0.021 -0.0359,-0.0163 -0.0332,-0.0829 z m 0.0631,-0.25248 c 0.003,-0.0735 0.018,-0.0885 0.0381,-0.0381 0.0182,0.0456 0.016,0.10001 -0.005,0.12098 -0.021,0.021 -0.0359,-0.0163 -0.0332,-0.0828 z m 0.0631,-0.25248 c 0.003,-0.0735 0.018,-0.0885 0.0381,-0.0381 0.0182,0.0456 0.016,0.10001 -0.005,0.12098 -0.021,0.021 -0.0359,-0.0163 -0.0332,-0.0828 z m 0.0631,-0.31561 c 0.003,-0.0735 0.018,-0.0885 0.0381,-0.0381 0.0182,0.0456 0.016,0.1 -0.005,0.12098 -0.021,0.021 -0.0359,-0.0163 -0.0332,-0.0829 z m 0.0631,-0.25248 c 0.003,-0.0735 0.018,-0.0885 0.0381,-0.0381 0.0182,0.0456 0.016,0.1 -0.005,0.12098 -0.021,0.021 -0.0359,-0.0163 -0.0331,-0.0829 z m 0.0631,-0.25248 c 0.003,-0.0735 0.018,-0.0885 0.0381,-0.0381 0.0182,0.0456 0.016,0.10001 -0.005,0.12098 -0.021,0.021 -0.0359,-0.0163 -0.0331,-0.0828 z m 0.0631,-0.25248 c 0.003,-0.0735 0.018,-0.0885 0.0381,-0.0381 0.0182,0.0456 0.016,0.10001 -0.005,0.12098 -0.021,0.021 -0.0359,-0.0163 -0.0331,-0.0828 z m 0.0681,-0.27879 c 0,-0.0868 0.0143,-0.12229 0.0318,-0.0789 0.0175,0.0434 0.0175,0.11441 0,0.1578 -0.0175,0.0434 -0.0318,0.008 -0.0318,-0.0789 z m 0.0581,-0.2893 c 0.003,-0.0735 0.018,-0.0885 0.0381,-0.0381 0.0182,0.0456 0.016,0.1 -0.005,0.12098 -0.021,0.021 -0.0359,-0.0163 -0.0332,-0.0829 z m 0.0631,-0.25248 c 0.003,-0.0735 0.018,-0.0885 0.0381,-0.0381 0.0182,0.0456 0.016,0.10001 -0.005,0.12098 -0.021,0.021 -0.0359,-0.0163 -0.0332,-0.0828 z m 0.0631,-0.25248 c 0.003,-0.0735 0.018,-0.0885 0.0381,-0.0381 0.0182,0.0456 0.016,0.10001 -0.005,0.12098 -0.021,0.021 -0.0359,-0.0163 -0.0332,-0.0828 z m 0.0631,-0.25249 c 0.003,-0.0735 0.018,-0.0885 0.0381,-0.0381 0.0182,0.0456 0.016,0.10001 -0.005,0.12098 -0.021,0.021 -0.0359,-0.0163 -0.0332,-0.0829 z m 0.0681,-0.27878 c 0,-0.0868 0.0143,-0.1223 0.0318,-0.0789 0.0175,0.0434 0.0175,0.11441 0,0.1578 -0.0175,0.0434 -0.0318,0.008 -0.0318,-0.0789 z m 0.0581,-0.2893 c 0.003,-0.0735 0.018,-0.0885 0.0381,-0.0381 0.0182,0.0456 0.016,0.10001 -0.005,0.12098 -0.021,0.021 -0.0359,-0.0163 -0.0332,-0.0828 z m 0.0631,-0.25248 c 0.003,-0.0735 0.018,-0.0885 0.0381,-0.0381 0.0182,0.0456 0.016,0.10001 -0.005,0.12098 -0.021,0.021 -0.0359,-0.0163 -0.0332,-0.0828 z m 0.0631,-0.25249 c 0.003,-0.0735 0.018,-0.0885 0.0381,-0.0381 0.0182,0.0456 0.016,0.10001 -0.005,0.12098 -0.021,0.021 -0.0359,-0.0163 -0.0332,-0.0829 z m 0.0631,-0.25248 c 0.003,-0.0735 0.018,-0.0885 0.0381,-0.0381 0.0182,0.0456 0.016,0.1 -0.005,0.12098 -0.021,0.021 -0.0359,-0.0163 -0.0332,-0.0829 z m 0.0631,-0.3156 c 0.003,-0.0735 0.018,-0.0885 0.0381,-0.0381 0.0182,0.0456 0.016,0.10001 -0.005,0.12098 -0.021,0.021 -0.0359,-0.0163 -0.0332,-0.0828 z m 0.0631,-0.25248 c 0.003,-0.0735 0.018,-0.0885 0.0381,-0.0381 0.0182,0.0456 0.016,0.10001 -0.005,0.12098 -0.021,0.021 -0.0359,-0.0163 -0.0332,-0.0828 z m 0.0631,-0.25249 c 0.003,-0.0735 0.018,-0.0885 0.0381,-0.0381 0.0182,0.0456 0.016,0.10001 -0.005,0.12098 -0.021,0.021 -0.0359,-0.0163 -0.0332,-0.0829 z m 0.0631,-0.25248 c 0.003,-0.0735 0.018,-0.0885 0.0381,-0.0381 0.0182,0.0456 0.016,0.1 -0.005,0.12098 -0.021,0.021 -0.0359,-0.0163 -0.0331,-0.0829 z m 0.0681,-0.27878 c 0,-0.0868 0.0143,-0.1223 0.0318,-0.0789 0.0175,0.0434 0.0175,0.1144 0,0.1578 -0.0175,0.0434 -0.0318,0.008 -0.0318,-0.0789 z m 0.0581,-0.2893 c 0.003,-0.0735 0.018,-0.0885 0.0381,-0.0381 0.0182,0.0456 0.016,0.10001 -0.005,0.12098 -0.021,0.021 -0.0359,-0.0163 -0.0332,-0.0828 z m 0.0631,-0.25249 c 0.003,-0.0735 0.018,-0.0885 0.0381,-0.0381 0.0182,0.0456 0.016,0.10001 -0.005,0.12098 -0.021,0.021 -0.0359,-0.0163 -0.0332,-0.0829 z m 0.0631,-0.25248 c 0.003,-0.0735 0.018,-0.0885 0.0381,-0.0381 0.0182,0.0456 0.016,0.1 -0.005,0.12098 -0.021,0.021 -0.0359,-0.0163 -0.0332,-0.0829 z m 0.0631,-0.25248 c 0.003,-0.0735 0.018,-0.0885 0.0381,-0.0381 0.0182,0.0456 0.016,0.10001 -0.005,0.12098 -0.021,0.021 -0.0359,-0.0163 -0.0332,-0.0828 z m 0.0631,-0.25248 c 0.003,-0.0735 0.018,-0.0885 0.0381,-0.0381 0.0182,0.0456 0.016,0.10001 -0.005,0.12098 -0.021,0.021 -0.0359,-0.0163 -0.0332,-0.0828 z m 0.0353,-0.31035 c -0.02,-0.0521 -0.009,-0.0947 0.0248,-0.0947 0.0336,0 0.0611,0.0426 0.0611,0.0947 0,0.0521 -0.0112,0.0947 -0.0248,0.0947 -0.0137,0 -0.0412,-0.0426 -0.0611,-0.0947 z m -1.47509,-0.13842 c 0.0614,-0.016 0.14663,-0.0149 0.18936,0.002 0.0427,0.0173 -0.008,0.0304 -0.11166,0.0291 -0.10415,-10e-4 -0.13911,-0.0154 -0.0777,-0.0314 z m -0.56618,-0.28764 c -0.13945,-0.15311 -0.27292,-0.38608 -0.26884,-0.46926 10e-4,-0.0283 0.0474,0.0337 0.10235,0.13788 0.0549,0.10415 0.15814,0.25327 0.2294,0.33138 0.0713,0.0781 0.11537,0.14202 0.098,0.14202 -0.0174,0 -0.0898,-0.0639 -0.16092,-0.14202 z m -0.31857,-0.77323 c 7e-4,-0.13886 0.0136,-0.18824 0.0287,-0.10972 0.0151,0.0785 0.0145,0.19213 -10e-4,0.25248 -0.0158,0.0603 -0.0282,-0.004 -0.0275,-0.14276 z m 0.15987,-0.56879 c 0.0358,-0.0698 0.13154,-0.18323 0.21287,-0.25203 0.14266,-0.12068 0.14234,-0.11843 -0.009,0.0638 -0.25137,0.30274 -0.27252,0.32226 -0.20388,0.1882 z m 0.43858,-0.41741 c 0.0428,-0.0431 0.0937,-0.0625 0.11319,-0.0431 0.0194,0.0194 -0.0156,0.0547 -0.0779,0.0784 -0.09,0.0343 -0.0972,0.027 -0.0353,-0.0353 z m 0.22198,-0.10709 c 0.009,-0.0285 -0.0694,-0.13032 -0.17358,-0.2263 l -0.18936,-0.17451 0.23608,0.17021 c 0.12985,0.0936 0.22049,0.19545 0.20142,0.2263 -0.0436,0.0705 -0.0956,0.0735 -0.0746,0.004 z m -0.58864,-0.56362 -0.15303,-0.17358 0.17358,0.15302 c 0.0955,0.0842 0.17359,0.16227 0.17359,0.17358 0,0.0495 -0.0511,0.009 -0.19414,-0.15302 z m -0.84457,-0.77043 -0.62605,-0.62841 -0.35113,-0.0224 -0.35114,-0.0224 0.34829,-0.0119 0.34829,-0.0119 0.66052,0.66277 c 0.36328,0.36452 0.64628,0.66277 0.62889,0.66277 -0.0174,0 -0.31334,-0.28279 -0.65767,-0.62841 z m -2.03756,-0.74242 c 0.096,-0.0145 0.23797,-0.0141 0.31561,8.6e-4 0.0776,0.015 -8.7e-4,0.0268 -0.17445,0.0264 -0.17358,-5.1e-4 -0.2371,-0.0127 -0.14116,-0.0272 z m -0.56895,-0.0613 c 0.0607,-0.0159 0.16017,-0.0159 0.22092,0 0.0608,0.0159 0.0111,0.0289 -0.11046,0.0289 -0.1215,0 -0.17121,-0.013 -0.11046,-0.0289 z m -0.41028,-0.0614 c 0.0434,-0.0175 0.1144,-0.0175 0.1578,0 0.0434,0.0175 0.008,0.0318 -0.0789,0.0318 -0.0868,0 -0.1223,-0.0143 -0.0789,-0.0318 z m -0.37873,-0.0631 c 0.0434,-0.0175 0.11441,-0.0175 0.15781,0 0.0434,0.0175 0.008,0.0318 -0.0789,0.0318 -0.0868,0 -0.12229,-0.0143 -0.0789,-0.0318 z m -0.3156,-0.0631 c 0.0434,-0.0175 0.11441,-0.0175 0.1578,0 0.0434,0.0175 0.008,0.0318 -0.0789,0.0318 -0.0868,0 -0.12229,-0.0143 -0.0789,-0.0318 z m -0.24854,-0.0644 c 0.0456,-0.0182 0.10001,-0.016 0.12098,0.005 0.021,0.021 -0.0163,0.0359 -0.0828,0.0331 -0.0735,-0.003 -0.0885,-0.018 -0.0381,-0.0381 z m -0.25248,-0.0631 c 0.0456,-0.0182 0.10001,-0.016 0.12098,0.005 0.021,0.021 -0.0163,0.0359 -0.0828,0.0331 -0.0735,-0.003 -0.0885,-0.018 -0.0381,-0.0381 z m -1.69242,-0.52497 c -0.0521,-0.0336 -0.0663,-0.0612 -0.0316,-0.0612 0.0347,0 0.10573,0.0275 0.1578,0.0612 0.0521,0.0337 0.0663,0.0612 0.0316,0.0612 -0.0347,0 -0.10573,-0.0275 -0.1578,-0.0612 z m -0.77323,-0.35113 c -0.23433,-0.12028 -0.42606,-0.23286 -0.42606,-0.25017 0,-0.0282 0.8774,0.39197 0.94155,0.4509 0.0863,0.0793 -0.14663,-0.0114 -0.51549,-0.20073 z m -0.77694,-0.44136 c -0.11766,-0.0943 -0.11688,-0.0954 0.0195,-0.0293 0.0781,0.0379 0.14202,0.082 0.14202,0.0982 0,0.0483 -0.0327,0.0344 -0.16152,-0.0688 z m 4.88461,-0.38885 c 0.0979,-0.0187 0.13495,-0.059 0.11118,-0.12093 -0.02,-0.0522 -0.008,-0.076 0.0267,-0.0544 0.13405,0.0829 0.0618,0.22045 -0.11119,0.21188 -0.15587,-0.008 -0.1586,-0.0114 -0.0267,-0.0366 z m 17.24287,-0.0158 c 0,-0.0335 0.20974,-0.38151 0.46608,-0.77323 1.66406,-2.54284 3.18266,-5.90655 4.10414,-9.09065 0.23986,-0.82881 0.58642,-2.2941 0.77276,-3.26732 l 0.0544,-0.28404 3.49922,-0.0163 c 1.92458,-0.009 3.52358,0.008 3.55334,0.0378 0.0657,0.0657 -0.457,1.54237 -0.97541,2.75583 -2.29647,5.37549 -5.61391,8.97875 -9.44387,10.25753 -1.008,0.33656 -2.03064,0.52814 -2.03064,0.38041 z m -17.62642,-0.0439 c 0.0434,-0.0175 0.1144,-0.0175 0.1578,0 0.0434,0.0175 0.008,0.0318 -0.0789,0.0318 -0.0868,0 -0.1223,-0.0143 -0.0789,-0.0318 z m -0.31166,-0.0644 c 0.0456,-0.0182 0.10001,-0.016 0.12098,0.005 0.021,0.021 -0.0163,0.0359 -0.0828,0.0332 -0.0735,-0.003 -0.0885,-0.018 -0.0381,-0.0381 z m -0.25248,-0.0631 c 0.0456,-0.0182 0.1,-0.016 0.12098,0.005 0.021,0.021 -0.0163,0.0359 -0.0829,0.0332 -0.0735,-0.003 -0.0885,-0.018 -0.0381,-0.0381 z m -0.25248,-0.0631 c 0.0456,-0.0182 0.1,-0.016 0.12098,0.005 0.021,0.021 -0.0163,0.0359 -0.0828,0.0332 -0.0735,-0.003 -0.0885,-0.018 -0.0381,-0.0381 z m -4.85651,-0.13046 c -0.0785,-0.10011 -0.0763,-0.10235 0.0238,-0.0238 0.0607,0.0476 0.11046,0.0974 0.11046,0.11046 0,0.052 -0.0518,0.0185 -0.1343,-0.0866 z m 5.89204,-0.1578 c -0.23038,-0.34022 -0.28021,-0.42607 -0.24735,-0.42607 0.0145,0 0.13007,0.15623 0.25685,0.34717 0.12678,0.19094 0.21737,0.34716 0.20133,0.34716 -0.0161,0 -0.11092,-0.12072 -0.21083,-0.26826 z m -1.47738,0.16202 c 0.0456,-0.0182 0.10001,-0.016 0.12098,0.005 0.021,0.021 -0.0163,0.0359 -0.0828,0.0332 -0.0735,-0.003 -0.0885,-0.018 -0.0381,-0.0381 z m -0.30377,-0.0831 c -0.0521,-0.0336 -0.0663,-0.0612 -0.0316,-0.0612 0.0347,0 0.10573,0.0275 0.1578,0.0612 0.0521,0.0336 0.0663,0.0612 0.0316,0.0612 -0.0347,0 -0.10572,-0.0275 -0.1578,-0.0612 z m -4.36337,-0.11046 c -0.0785,-0.10011 -0.0763,-0.10235 0.0238,-0.0238 0.0608,0.0476 0.11046,0.0974 0.11046,0.11046 0,0.0519 -0.0518,0.0185 -0.13429,-0.0866 z m 3.85841,-0.0789 c -0.0521,-0.0337 -0.0663,-0.0612 -0.0316,-0.0612 0.0347,0 0.10573,0.0275 0.1578,0.0612 0.0521,0.0336 0.0663,0.0612 0.0316,0.0612 -0.0347,0 -0.10573,-0.0275 -0.1578,-0.0612 z m -4.11089,-0.11046 c -0.0785,-0.10012 -0.0763,-0.10235 0.0238,-0.0238 0.10514,0.0825 0.13858,0.1343 0.0866,0.1343 -0.0131,0 -0.0628,-0.0497 -0.11046,-0.11046 z m 3.66904,-0.0789 c -0.1215,-0.0665 -0.19251,-0.12095 -0.1578,-0.12095 0.0347,0 0.16254,0.0544 0.28405,0.12095 0.1215,0.0665 0.19251,0.12095 0.1578,0.12095 -0.0347,0 -0.16254,-0.0544 -0.28405,-0.12095 z m -3.98137,-0.17359 -0.15302,-0.17358 0.17358,0.15303 c 0.0955,0.0842 0.17358,0.16227 0.17358,0.17358 0,0.0495 -0.0511,0.009 -0.19414,-0.15303 z m 3.27127,-0.17773 c -0.1649,-0.0858 -0.29982,-0.1702 -0.29982,-0.18748 0,-0.0173 0.14202,0.0405 0.3156,0.12851 0.17358,0.088 0.3156,0.17365 0.3156,0.19043 0,0.0417 0.006,0.044 -0.33138,-0.13146 z m 3.06963,0.0831 c -0.0256,-0.0434 -0.0871,-0.14991 -0.13662,-0.2367 -0.0865,-0.1515 -0.0859,-0.15276 0.0158,-0.0316 0.12821,0.15274 0.23873,0.34716 0.19734,0.34716 -0.0165,0 -0.051,-0.0355 -0.0766,-0.0789 z m -6.8125,-0.3156 -0.24951,-0.26826 0.26826,0.24951 c 0.24948,0.23204 0.29727,0.28701 0.24952,0.28701 -0.0103,0 -0.13103,-0.12072 -0.26827,-0.26826 z m 3.14322,-0.11772 c -0.21514,-0.13779 -0.28477,-0.23031 -0.0947,-0.12583 0.14483,0.0796 0.37171,0.25505 0.33138,0.25626 -0.0174,5e-4 -0.12387,-0.0582 -0.2367,-0.13043 z m 3.32961,-0.11898 c -0.0372,-0.0694 -0.0534,-0.12624 -0.036,-0.12624 0.0174,0 0.062,0.0568 0.0991,0.12624 0.0372,0.0694 0.0534,0.12624 0.036,0.12624 -0.0174,0 -0.062,-0.0568 -0.0991,-0.12624 z m -4.05549,-0.37936 c -0.23434,-0.17288 -0.42607,-0.32823 -0.42607,-0.34523 0,-0.017 0.19883,0.11417 0.44185,0.29148 0.38337,0.27971 0.49102,0.37296 0.42606,0.36903 -0.009,-5e-4 -0.20751,-0.1424 -0.44184,-0.31528 z m 3.83457,6.3e-4 c -0.0539,-0.10414 -0.0837,-0.18936 -0.0664,-0.18936 0.0174,0 0.0756,0.0852 0.12948,0.18936 0.0539,0.10415 0.0837,0.18937 0.0664,0.18937 -0.0173,0 -0.0756,-0.0852 -0.12948,-0.18937 z m -6.91975,0.0158 c -0.0785,-0.10011 -0.0763,-0.10234 0.0238,-0.0238 0.10514,0.0825 0.13858,0.1343 0.0866,0.1343 -0.0131,0 -0.0628,-0.0497 -0.11046,-0.11047 z m 6.66727,-0.45762 c -0.0539,-0.10415 -0.0837,-0.18936 -0.0664,-0.18936 0.0173,0 0.0756,0.0852 0.12948,0.18936 0.0539,0.10415 0.0837,0.18936 0.0664,0.18936 -0.0174,0 -0.0756,-0.0852 -0.12948,-0.18936 z m -4.58061,-0.38375 -0.46904,-0.44687 0.48919,0.42973 c 0.26905,0.23636 0.48918,0.43745 0.48918,0.44687 0,0.0472 -0.0766,-0.0175 -0.50933,-0.42973 z m -2.74435,0.11549 -0.24951,-0.26826 0.26826,0.24951 c 0.24948,0.23204 0.29727,0.28701 0.24951,0.28701 -0.0103,0 -0.13103,-0.12072 -0.26826,-0.26826 z m 6.85155,-0.61543 c -0.10514,-0.2083 -0.17697,-0.37872 -0.15961,-0.37872 0.0173,0 0.11759,0.17042 0.22274,0.37872 0.10514,0.2083 0.17697,0.37873 0.15961,0.37873 -0.0173,0 -0.11759,-0.17043 -0.22274,-0.37873 z m -7.32676,0.0789 -0.15303,-0.17358 0.17359,0.15303 c 0.0955,0.0842 0.17358,0.16227 0.17358,0.17358 0,0.0495 -0.0511,0.009 -0.19414,-0.15303 z m 2.17306,-0.56808 c -0.55027,-0.60098 -1.23301,-1.43292 -1.46339,-1.78316 l -0.14531,-0.22092 0.17783,0.21898 c 0.0978,0.12044 0.39767,0.48969 0.66635,0.82057 0.26868,0.33087 0.67711,0.80752 0.90762,1.05921 0.23052,0.25169 0.4064,0.45762 0.39085,0.45762 -0.0155,0 -0.25582,-0.24853 -0.53395,-0.5523 z m -2.45832,0.22092 -0.12025,-0.14202 0.14202,0.12024 c 0.13347,0.113 0.17076,0.1638 0.12025,0.1638 -0.012,0 -0.0759,-0.0639 -0.14202,-0.14202 z m -0.22298,-0.28404 c -0.0785,-0.10012 -0.0763,-0.10235 0.0238,-0.0238 0.10514,0.0824 0.13858,0.13429 0.0866,0.13429 -0.0131,0 -0.0628,-0.0497 -0.11046,-0.11046 z m 7.37388,-0.36611 c -0.23174,-0.47251 -0.21035,-0.5285 0.0265,-0.0694 0.10479,0.20309 0.17997,0.37982 0.16705,0.39274 -0.0129,0.0129 -0.10002,-0.13258 -0.19357,-0.32332 z m -7.56324,0.11362 c -0.0785,-0.10011 -0.0763,-0.10234 0.0238,-0.0238 0.10514,0.0825 0.13858,0.1343 0.0866,0.1343 -0.0131,0 -0.0628,-0.0497 -0.11046,-0.11047 z m -0.18936,-0.25248 c -0.0785,-0.10011 -0.0763,-0.10234 0.0238,-0.0238 0.0607,0.0476 0.11046,0.0974 0.11046,0.11046 0,0.052 -0.0518,0.0185 -0.13429,-0.0866 z m -0.29,-0.41028 c -0.0946,-0.12236 -0.15415,-0.2367 -0.12322,-0.2367 0.0154,0 0.0746,0.071 0.13142,0.1578 0.10641,0.1624 0.10049,0.21943 -0.008,0.0789 z m 7.63029,-0.33409 c -0.10576,-0.23211 -0.0856,-0.28163 0.0288,-0.0706 0.0534,0.0985 0.0853,0.19097 0.0708,0.2054 -0.0144,0.0144 -0.0593,-0.0462 -0.0996,-0.13479 z m -7.88277,-0.0446 c -0.0946,-0.12235 -0.15416,-0.2367 -0.12322,-0.2367 0.0154,0 0.0746,0.071 0.13142,0.1578 0.10641,0.16241 0.10048,0.21943 -0.008,0.0789 z m 7.65939,-0.46006 c -0.0609,-0.15873 -0.0429,-0.19968 0.0315,-0.0717 0.0368,0.0634 0.0537,0.1285 0.0374,0.14475 -0.0162,0.0163 -0.0473,-0.0166 -0.0689,-0.073 z m -0.18936,-0.44184 c -0.0609,-0.15873 -0.0429,-0.19969 0.0315,-0.0717 0.0368,0.0634 0.0537,0.12849 0.0374,0.14474 -0.0162,0.0163 -0.0473,-0.0166 -0.0689,-0.073 z m -5.76868,-0.13958 c -0.16342,-0.23601 -0.21654,-0.33139 -0.18457,-0.33139 0.0148,0 0.10209,0.11362 0.19399,0.25248 0.18676,0.28223 0.17862,0.35048 -0.009,0.0789 z m 5.64244,-0.17603 c -0.0609,-0.15873 -0.0429,-0.19968 0.0315,-0.0717 0.0368,0.0634 0.0537,0.12849 0.0374,0.14474 -0.0163,0.0163 -0.0473,-0.0166 -0.0689,-0.073 z m -8.30816,-0.34472 c -0.0372,-0.0694 -0.0534,-0.12624 -0.036,-0.12624 0.0174,0 0.062,0.0568 0.0991,0.12624 0.0372,0.0694 0.0534,0.12624 0.036,0.12624 -0.0174,0 -0.062,-0.0568 -0.0991,-0.12624 z m 8.18192,0.0291 c -0.0609,-0.15873 -0.0429,-0.19968 0.0315,-0.0717 0.0368,0.0634 0.0537,0.1285 0.0374,0.14475 -0.0162,0.0163 -0.0473,-0.0166 -0.0689,-0.073 z m -5.94863,-0.17114 c -0.0256,-0.0434 -0.0871,-0.14991 -0.13662,-0.2367 -0.0865,-0.15151 -0.0859,-0.15277 0.0158,-0.0316 0.12821,0.15274 0.23873,0.34716 0.19734,0.34716 -0.0165,0 -0.051,-0.0355 -0.0766,-0.0789 z m 5.75927,-0.33382 c -0.0609,-0.15873 -0.0429,-0.19969 0.0315,-0.0717 0.0369,0.0634 0.0537,0.12849 0.0374,0.14474 -0.0162,0.0163 -0.0473,-0.0166 -0.0689,-0.073 z m -8.37128,-0.21849 c -0.0708,-0.13886 -0.1146,-0.25248 -0.0972,-0.25248 0.0174,0 0.0895,0.11362 0.16037,0.25248 0.0708,0.13887 0.11461,0.25249 0.0972,0.25249 -0.0174,0 -0.0895,-0.11362 -0.16037,-0.25249 z m 2.24078,-0.0631 c -0.0539,-0.10415 -0.0837,-0.18936 -0.0664,-0.18936 0.0174,0 0.0756,0.0852 0.12948,0.18936 0.0539,0.10415 0.0837,0.18937 0.0664,0.18937 -0.0173,0 -0.0756,-0.0852 -0.12948,-0.18937 z m 5.94113,-0.22336 c -0.0609,-0.15873 -0.0429,-0.19968 0.0315,-0.0717 0.0368,0.0634 0.0537,0.1285 0.0374,0.14475 -0.0162,0.0162 -0.0473,-0.0166 -0.0689,-0.073 z m -6.19361,-0.21848 c -0.0539,-0.10415 -0.0837,-0.18936 -0.0664,-0.18936 0.0173,0 0.0756,0.0852 0.12948,0.18936 0.0539,0.10415 0.0837,0.18936 0.0664,0.18936 -0.0174,0 -0.0756,-0.0852 -0.12948,-0.18936 z m -2.57663,-0.6657 c -0.14828,-0.31095 -0.12742,-0.36386 0.0276,-0.07 0.0704,0.13346 0.11685,0.25382 0.1032,0.26747 -0.0136,0.0136 -0.0725,-0.0752 -0.1308,-0.19747 z m 2.00529,-0.41382 c -0.12418,-0.24657 -0.21548,-0.4586 -0.2029,-0.47118 0.0126,-0.0126 0.12778,0.18916 0.25602,0.44831 0.12823,0.25915 0.21953,0.47118 0.20289,0.47118 -0.0166,0 -0.13184,-0.20174 -0.25601,-0.44831 z m 6.2567,-0.21896 c -0.0232,-0.0925 -0.03,-0.18036 -0.0152,-0.19524 0.0149,-0.0149 0.0461,0.0486 0.0693,0.14114 0.0232,0.0925 0.03,0.18036 0.0152,0.19524 -0.0149,0.0149 -0.046,-0.0486 -0.0693,-0.14114 z m -8.64423,-0.18729 c -0.0609,-0.15873 -0.0429,-0.19969 0.0315,-0.0717 0.0368,0.0634 0.0537,0.12849 0.0374,0.14474 -0.0163,0.0163 -0.0473,-0.0166 -0.0689,-0.073 z m 8.45487,-0.44392 c -0.0232,-0.0925 -0.03,-0.18036 -0.0152,-0.19524 0.0149,-0.0149 0.046,0.0486 0.0693,0.14114 0.0232,0.0925 0.03,0.18036 0.0152,0.19524 -0.0149,0.0149 -0.046,-0.0486 -0.0693,-0.14114 z m -8.64423,0.002 c -0.0609,-0.15873 -0.0429,-0.19968 0.0315,-0.0717 0.0368,0.0633 0.0537,0.12849 0.0374,0.14474 -0.0162,0.0163 -0.0473,-0.0166 -0.0689,-0.073 z m 2.05387,-0.25274 c -0.10576,-0.23212 -0.0856,-0.28163 0.0288,-0.0706 0.0534,0.0985 0.0853,0.19097 0.0708,0.20541 -0.0144,0.0144 -0.0593,-0.0462 -0.0996,-0.13479 z m 6.49615,-0.1288 c 0.003,-0.0735 0.018,-0.0885 0.0381,-0.0381 0.0182,0.0456 0.016,0.10001 -0.005,0.12099 -0.021,0.021 -0.0359,-0.0163 -0.0332,-0.0829 z m -6.71953,-0.3759 c -0.0609,-0.15873 -0.0429,-0.19969 0.0315,-0.0717 0.0368,0.0634 0.0537,0.12849 0.0374,0.14474 -0.0162,0.0163 -0.0473,-0.0166 -0.0689,-0.073 z m 6.59329,-0.0659 c 0.003,-0.0735 0.018,-0.0885 0.0381,-0.0381 0.0182,0.0456 0.016,0.10001 -0.005,0.12098 -0.021,0.021 -0.0359,-0.0163 -0.0332,-0.0828 z m -0.0631,-0.25249 c 0.003,-0.0735 0.018,-0.0885 0.0381,-0.0381 0.0182,0.0456 0.016,0.1 -0.005,0.12098 -0.021,0.021 -0.0359,-0.0163 -0.0332,-0.0829 z m -8.86563,-0.18654 c -0.0609,-0.15873 -0.0429,-0.19968 0.0315,-0.0717 0.0368,0.0634 0.0537,0.1285 0.0374,0.14475 -0.0162,0.0163 -0.0473,-0.0166 -0.0689,-0.073 z m 8.80251,-0.0659 c 0.003,-0.0735 0.018,-0.0885 0.0381,-0.0381 0.0182,0.0456 0.016,0.1 -0.005,0.12098 -0.021,0.021 -0.0359,-0.0163 -0.0332,-0.0829 z m -0.0631,-0.25248 c 0.003,-0.0735 0.018,-0.0885 0.0381,-0.0381 0.0182,0.0456 0.016,0.10001 -0.005,0.12098 -0.021,0.021 -0.0359,-0.0163 -0.0331,-0.0828 z m -0.0581,-0.27879 c 0,-0.0868 0.0143,-0.12229 0.0318,-0.0789 0.0175,0.0434 0.0175,0.11441 0,0.1578 -0.0175,0.0434 -0.0318,0.008 -0.0318,-0.0789 z m -6.85075,-0.16024 c -0.0609,-0.15873 -0.0429,-0.19968 0.0315,-0.0717 0.0368,0.0634 0.0537,0.12849 0.0374,0.14474 -0.0163,0.0163 -0.0473,-0.0166 -0.0689,-0.073 z m 6.78265,-0.12906 c 0.003,-0.0735 0.018,-0.0885 0.0381,-0.0381 0.0182,0.0456 0.016,0.1 -0.005,0.12098 -0.021,0.021 -0.0359,-0.0163 -0.0332,-0.0829 z m -0.0631,-0.3156 c 0.003,-0.0735 0.018,-0.0885 0.0381,-0.0381 0.0182,0.0456 0.016,0.10001 -0.005,0.12098 -0.021,0.021 -0.0359,-0.0163 -0.0332,-0.0828 z m -7.07502,-0.56441 c -0.085,-0.25552 -0.11701,-0.44265 -0.0817,-0.47798 0.0343,-0.0343 1.47565,-0.0514 3.52512,-0.0417 3.26395,0.0154 3.46768,0.0229 3.47729,0.12803 0.007,0.0781 0.001,0.0829 -0.0195,0.0158 -0.0262,-0.0843 -0.45025,-0.0959 -3.49677,-0.0959 -1.90685,0 -3.467,0.024 -3.467,0.0532 0,0.0293 0.0569,0.21857 0.1264,0.42064 0.0695,0.20207 0.11505,0.37876 0.10117,0.39264 -0.0139,0.0139 -0.0881,-0.16374 -0.16498,-0.3947 z m 7.01688,0.28563 c 0,-0.0868 0.0143,-0.1223 0.0318,-0.0789 0.0175,0.0434 0.0175,0.11441 0,0.15781 -0.0175,0.0434 -0.0318,0.008 -0.0318,-0.0789 z m -0.0631,-0.37873 c 0,-0.0868 0.0143,-0.12229 0.0318,-0.0789 0.0175,0.0434 0.0175,0.11441 0,0.1578 -0.0175,0.0434 -0.0318,0.008 -0.0318,-0.0789 z m -9.47307,-1.42547 c 0.003,-0.0735 0.018,-0.0885 0.0381,-0.0381 0.0182,0.0456 0.016,0.10001 -0.005,0.12098 -0.021,0.021 -0.0359,-0.0163 -0.0332,-0.0828 z m -0.0631,-0.25248 c 0.003,-0.0735 0.018,-0.0885 0.0381,-0.0381 0.0182,0.0456 0.016,0.10001 -0.005,0.12098 -0.021,0.021 -0.0359,-0.0163 -0.0332,-0.0828 z m -0.0631,-0.25249 c 0.003,-0.0735 0.018,-0.0885 0.0381,-0.0381 0.0182,0.0456 0.016,0.10001 -0.005,0.12098 -0.021,0.021 -0.0359,-0.0163 -0.0331,-0.0829 z m -0.0641,-0.22371 c -0.002,-0.0565 0.0346,-0.1348 0.0819,-0.174 0.0625,-0.0518 1.33983,-0.0667 4.68671,-0.0547 l 4.60083,0.0166 -4.62562,0.0154 -4.62561,0.0154 -0.0571,0.14202 c -0.0386,0.0961 -0.0584,0.10881 -0.0611,0.0393 z m 9.34777,-0.62631 c -0.005,-0.15796 0.0242,-0.32128 0.0658,-0.36294 0.0523,-0.0523 0.3205,-0.0718 0.8679,-0.0629 l 0.79217,0.0129 -0.82057,0.0344 -0.82057,0.0344 -0.0374,0.31561 -0.0374,0.3156 -0.01,-0.2872 z m 10.64669,-0.4229 c 3.24006,-0.009 8.52325,-0.009 11.74043,0 3.21718,0.009 0.56623,0.0164 -5.89101,0.0164 -6.45723,0 -9.08947,-0.007 -5.84942,-0.0164 z"
         id="path7652"
         inkscape:connector-curvature="0" />
      <path
         sodipodi:nodetypes="cscscccscsccscccscsccscccsscccsccccsccsssccccscccccccccccccccccscccccccccsccccsccccscccccscscsssscssccccsscccssssccssscccscccccscccsccccscccccsccccscccsccscsssccssccccscccsccccscccccccccccccccc"
         style="fill:#2e4d62"
         d="m 113.657,917.04773 c -0.06,-0.0242 -0.0789,-0.39283 -0.0789,-1.54147 v -1.50964 h 1.50438 c 0.8274,0 1.51915,-0.0148 1.53721,-0.0328 0.0181,-0.0181 4.06726,-0.032 8.99821,-0.0309 8.14188,0.002 8.96891,-0.007 9.00392,-0.0986 0.0212,-0.0553 0.0386,-2.83348 0.0386,-6.17383 0,-4.63955 -0.0179,-6.09123 -0.0757,-6.14909 -0.0531,-0.0531 -0.40287,-0.0757 -1.16909,-0.0757 -1.07433,0 -1.09436,-0.002 -1.15213,-0.14203 -0.12285,-0.29679 -3.1031,-12.99993 -3.07007,-13.08601 0.0275,-0.0716 0.19359,-0.0904 0.79664,-0.0904 0.63337,0 0.80305,-0.021 1.00555,-0.12428 0.66401,-0.33875 0.72919,-1.34274 0.11554,-1.7797 -0.15866,-0.11297 -0.31074,-0.15185 -0.66372,-0.16967 -0.29054,-0.0147 -0.4579,-0.0498 -0.4579,-0.096 0,-0.0401 0.16332,-0.20016 0.36294,-0.35578 0.19962,-0.15563 0.67629,-0.58623 1.05928,-0.95691 l 0.69633,-0.67395 0.66076,-3.1e-4 c 1.00487,-4.4e-4 2.46921,-0.27065 3.75367,-0.6926 4.98822,-1.63867 9.18999,-6.77411 11.60333,-14.18171 0.31072,-0.9537 0.61268,-2.0419 0.69187,-2.49326 0.0265,-0.15078 0.0281,-0.14989 0.0363,0.0201 0.032,0.66278 -1.15303,4.15904 -2.13221,6.29068 -1.83027,3.98444 -4.40124,7.18297 -7.27671,9.0529 -0.64334,0.41837 -2.02654,1.09556 -2.70164,1.32267 -1.29914,0.43706 -2.83116,0.73984 -3.8634,0.76356 l -0.73893,0.017 -0.7428,0.70934 c -0.40853,0.39013 -0.86635,0.79806 -1.01737,0.90651 l -0.27457,0.19719 0.39921,0.0655 c 0.52434,0.086 0.8282,0.27972 1.00201,0.63875 0.26462,0.54664 0.0625,1.18401 -0.47049,1.48356 -0.20793,0.11686 -0.37608,0.14462 -1.02832,0.16974 -0.67946,0.0262 -0.77592,0.0431 -0.74999,0.13192 0.0164,0.056 0.49843,2.07598 1.07124,4.48876 l 1.52091,6.40627 c 0.26368,1.11067 0.50026,2.04022 0.52573,2.06569 0.0255,0.0255 0.55683,0.0541 1.18082,0.0636 l 1.13453,0.0173 0.0316,6.24893 0.0316,6.24894 1.16492,0.0173 c 0.83516,0.0124 1.17884,0.0392 1.2141,0.0947 0.0848,0.13351 0.062,2.91328 -0.0246,2.99991 -0.0584,0.0584 -2.74298,0.0746 -11.72465,0.0708 -6.4069,-0.003 -11.68441,-0.0193 -11.72781,-0.0368 z m 8.51049,-28.77801 c 0.003,-0.0735 0.018,-0.0885 0.0381,-0.0381 0.0182,0.0456 0.016,0.10001 -0.005,0.12098 -0.021,0.021 -0.0359,-0.0163 -0.0332,-0.0829 z m -1.40547,-0.13254 c 0.0456,-0.0182 0.1,-0.016 0.12098,0.005 0.021,0.021 -0.0163,0.0359 -0.0828,0.0332 -0.0735,-0.003 -0.0885,-0.018 -0.0381,-0.0381 z m -0.69055,-0.31982 c -0.0785,-0.10011 -0.0763,-0.10235 0.0238,-0.0238 0.10515,0.0825 0.13858,0.13429 0.0866,0.13429 -0.0131,0 -0.0628,-0.0497 -0.11046,-0.11046 z m -0.0551,-1.42827 c 0,-0.0131 0.0497,-0.0628 0.11046,-0.11046 0.10012,-0.0785 0.10235,-0.0763 0.0238,0.0238 -0.0825,0.10514 -0.1343,0.13858 -0.1343,0.0866 z m 0.56004,-0.52847 c -0.0785,-0.10011 -0.0763,-0.10234 0.0238,-0.0238 0.0607,0.0476 0.11046,0.0974 0.11046,0.11046 0,0.0519 -0.0518,0.0185 -0.13429,-0.0866 z m -0.25249,-0.18936 c -0.0785,-0.10011 -0.0763,-0.10235 0.0238,-0.0238 0.0607,0.0476 0.11046,0.0974 0.11046,0.11046 0,0.052 -0.0518,0.0185 -0.1343,-0.0866 z m -0.37872,-0.3156 c -0.0785,-0.10012 -0.0763,-0.10235 0.0238,-0.0238 0.0608,0.0476 0.11046,0.0974 0.11046,0.11047 0,0.0519 -0.0518,0.0185 -0.13429,-0.0866 z m -0.78293,-0.72589 -0.37675,-0.3945 0.39451,0.37674 c 0.36646,0.34997 0.42338,0.41226 0.37674,0.41226 -0.01,0 -0.18729,-0.17752 -0.3945,-0.3945 z m -2.46424,-2.88313 c 0,-0.0669 0.0223,-0.10782 0.0496,-0.091 0.0273,0.0169 0.0496,0.0716 0.0496,0.12161 0,0.05 -0.0223,0.091 -0.0496,0.091 -0.0273,0 -0.0496,-0.0547 -0.0496,-0.1216 z m 17.14175,0.0606 c 0,-0.0335 0.20974,-0.38151 0.46608,-0.77323 1.66406,-2.54284 3.18266,-5.90655 4.10414,-9.09065 0.23986,-0.82881 0.58642,-2.2941 0.77276,-3.26732 l 0.0544,-0.28404 3.49922,-0.0163 c 1.92458,-0.009 3.52358,0.008 3.55334,0.0378 0.0657,0.0657 -0.457,1.54237 -0.97541,2.75583 -2.29647,5.37549 -5.61391,8.97875 -9.44387,10.25753 -1.008,0.33656 -2.03064,0.52814 -2.03064,0.38041 z m 0.93921,-0.16575 c 1.66515,-0.37147 3.30031,-1.17958 4.74165,-2.34337 0.6661,-0.53784 2.0253,-1.95237 2.59665,-2.70235 1.14554,-1.50371 2.20649,-3.34757 3.06788,-5.33178 0.36278,-0.83567 1.02625,-2.61313 1.02625,-2.74937 0,-0.0798 -0.46045,-0.09 -3.45099,-0.0758 l -3.45098,0.0163 -0.17475,0.88369 c -0.78154,3.95204 -2.54917,8.32338 -4.73716,11.715 -0.23733,0.36789 -0.43152,0.68744 -0.43152,0.71011 0,0.0587 0.004,0.0582 0.81297,-0.12243 z m -25.12244,-0.89364 c -0.0785,-0.10011 -0.0763,-0.10234 0.0238,-0.0238 0.10514,0.0825 0.13858,0.13429 0.0866,0.13429 -0.0131,0 -0.0628,-0.0497 -0.11046,-0.11046 z m -0.5017,-0.44184 -0.15302,-0.17358 0.17358,0.15302 c 0.0955,0.0842 0.17358,0.16228 0.17358,0.17358 0,0.0495 -0.0511,0.009 -0.19414,-0.15302 z m 2.20595,-0.75745 c -0.0785,-0.10011 -0.0763,-0.10234 0.0238,-0.0238 0.10515,0.0825 0.13858,0.13429 0.0866,0.13429 -0.0131,0 -0.0628,-0.0497 -0.11046,-0.11046 z m -0.3156,-0.25248 c -0.0785,-0.10011 -0.0763,-0.10235 0.0238,-0.0238 0.10514,0.0825 0.13858,0.13429 0.0866,0.13429 -0.0131,0 -0.0628,-0.0497 -0.11046,-0.11046 z m -3.02652,-0.12624 -0.15302,-0.17358 0.17358,0.15302 c 0.0955,0.0842 0.17358,0.16228 0.17358,0.17358 0,0.0495 -0.0511,0.009 -0.19414,-0.15302 z m 2.65107,-0.18936 -0.15303,-0.17358 0.17359,0.15302 c 0.0955,0.0842 0.17358,0.16227 0.17358,0.17358 0,0.0495 -0.0511,0.009 -0.19414,-0.15302 z m -3.1593,-0.37873 c -0.0785,-0.10011 -0.0763,-0.10234 0.0238,-0.0238 0.0607,0.0476 0.11046,0.0974 0.11046,0.11046 0,0.0519 -0.0518,0.0185 -0.13429,-0.0866 z m 2.40323,-0.3156 -0.21752,-0.2367 0.2367,0.21752 c 0.22032,0.20247 0.26572,0.25588 0.21752,0.25588 -0.0105,0 -0.11706,-0.10651 -0.2367,-0.2367 z m -0.66334,-0.72589 -0.18539,-0.20514 0.20514,0.18539 c 0.19122,0.17281 0.23416,0.2249 0.18539,0.2249 -0.0109,0 -0.10317,-0.0923 -0.20514,-0.20515 z m -0.38075,-0.44184 -0.12024,-0.14202 0.14202,0.12024 c 0.13346,0.113 0.17076,0.1638 0.12024,0.1638 -0.012,0 -0.0759,-0.0639 -0.14202,-0.14202 z m -0.28609,-0.34716 c -0.0785,-0.10012 -0.0763,-0.10235 0.0238,-0.0238 0.0608,0.0476 0.11046,0.0974 0.11046,0.11047 0,0.052 -0.0518,0.0185 -0.13429,-0.0866 z m -0.18937,-0.25249 c -0.0785,-0.10011 -0.0763,-0.10234 0.0238,-0.0238 0.0607,0.0476 0.11046,0.0974 0.11046,0.11046 0,0.052 -0.0518,0.0185 -0.1343,-0.0866 z m -4.03166,-7.99681 c 0,-0.05 0.0257,-0.10687 0.0572,-0.12632 0.0315,-0.0195 0.0424,0.0215 0.0242,0.0909 -0.0385,0.14739 -0.0814,0.16602 -0.0814,0.0354 z m 35.12811,-2.13404 c -0.0474,-0.1434 -0.0655,-0.73645 -0.0211,-0.69128 0.0239,0.0244 0.0524,0.18632 0.0631,0.3599 l 0.0196,0.3156 0.41028,0.0364 0.41028,0.0364 -0.42804,0.0109 c -0.29458,0.007 -0.43619,-0.0137 -0.45414,-0.068 z"
         id="path7650"
         inkscape:connector-curvature="0" />
      <path
         style="fill:#001934"
         d="m 125.23469,916.98473 c -0.0585,-0.0585 -0.0538,-2.9108 0.005,-2.94521 0.026,-0.0153 2.70314,-0.0382 5.94911,-0.0511 l 5.90178,-0.0233 v 1.5149 1.51489 l -5.90671,0.0161 c -3.2487,0.009 -5.9258,-0.003 -5.94912,-0.0263 z"
         id="path7648"
         inkscape:connector-curvature="0" />
    </g>
  </g>
</svg>
