<?xml version="1.0" encoding="UTF-8" standalone="no"?>
<svg
   xmlns:dc="http://purl.org/dc/elements/1.1/"
   xmlns:cc="http://creativecommons.org/ns#"
   xmlns:rdf="http://www.w3.org/1999/02/22-rdf-syntax-ns#"
   xmlns:svg="http://www.w3.org/2000/svg"
   xmlns="http://www.w3.org/2000/svg"
   xmlns:sodipodi="http://sodipodi.sourceforge.net/DTD/sodipodi-0.dtd"
   xmlns:inkscape="http://www.inkscape.org/namespaces/inkscape"
   width="2.25in"
   height="2.25in"
   viewBox="0 0 57.150001 57.150002"
   version="1.1"
   id="svg8"
   inkscape:version="1.0.2 (394de47547, 2021-03-26)"
   sodipodi:docname="wheat.svg">
  <defs
     id="defs2">
    <clipPath
       clipPathUnits="userSpaceOnUse"
       id="clipPath870">
      <rect
         style="fill:#a3a3a3;stroke:none;stroke-width:0.225442"
         id="rect872"
         width="161.06836"
         height="161.06836"
         x="53.375"
         y="773.81201" />
    </clipPath>
  </defs>
  <sodipodi:namedview
     id="base"
     pagecolor="#ffffff"
     bordercolor="#666666"
     borderopacity="1.0"
     inkscape:pageopacity="0.0"
     inkscape:pageshadow="2"
     inkscape:zoom="2.0526726"
     inkscape:cx="132"
     inkscape:cy="132"
     inkscape:document-units="mm"
     inkscape:current-layer="layer1"
     inkscape:document-rotation="0"
     showgrid="false"
     units="in"
     inkscape:window-width="3768"
     inkscape:window-height="2096"
     inkscape:window-x="72"
     inkscape:window-y="27"
     inkscape:window-maximized="1" />
  <metadata
     id="metadata5">
    <rdf:RDF>
      <cc:Work
         rdf:about="">
        <dc:format>image/svg+xml</dc:format>
        <dc:type
           rdf:resource="http://purl.org/dc/dcmitype/StillImage" />
        <dc:title></dc:title>
      </cc:Work>
    </rdf:RDF>
  </metadata>
  <g
     inkscape:label="Layer 1"
     inkscape:groupmode="layer"
     id="layer1">
    <g
       id="g5927"
       transform="matrix(0.35481829,0,0,0.35481829,-18.938426,-274.56267)"
       clip-path="url(#clipPath870)">
      <rect
         transform="rotate(-90)"
         inkscape:tile-y0="69.449006"
         inkscape:tile-x0="63.779526"
         ry="10.561827"
         rx="14.442333"
         y="53.37545"
         x="-1023.9998"
         height="161.06786"
         width="296.06787"
         id="use9066-0-6-3-1"
         style="color:#000000;clip-rule:nonzero;display:inline;overflow:visible;visibility:visible;opacity:1;isolation:auto;mix-blend-mode:normal;color-interpolation:sRGB;color-interpolation-filters:linearRGB;solid-color:#000000;solid-opacity:1;fill:#fff6d5;fill-opacity:1;fill-rule:nonzero;stroke:none;stroke-width:0.932144;stroke-linecap:butt;stroke-linejoin:miter;stroke-miterlimit:4;stroke-dasharray:none;stroke-dashoffset:0;stroke-opacity:1;color-rendering:auto;image-rendering:auto;shape-rendering:auto;text-rendering:auto;enable-background:accumulate" />
      <path
         inkscape:connector-curvature="0"
         id="path10114-6-1-6-8-3-8-3"
         transform="translate(0,692.36215)"
         d="m 75.660156,40.738281 c -0.224,-9.7e-4 -2.626528,2.988403 -3.673828,4.570313 -1.1775,1.79772 -2.172987,3.928068 -2.492187,5.355468 -0.5021,2.24512 -0.126857,5.027691 0.964843,7.150391 1.0648,2.06959 3.894594,4.486535 5.183594,4.427735 0.2715,-0.01214 0.845191,-0.218652 1.275391,-0.457032 l -0.0098,-0.0039 c 1.2156,-0.67552 3.53601,-3.197454 4.099609,-4.458984 0.5474,-1.22315 0.980469,-3.144859 0.980469,-4.480469 0.0259,-2.94343 -1.577925,-6.389593 -4.890625,-10.501953 -0.6975,-0.89337 -1.3545,-1.600563 -1.4375,-1.601563 z m 40.015624,0 c -0.2,-9.7e-4 -2.59922,2.988403 -3.69922,4.570313 -1.2,1.79772 -2.2,3.928068 -2.5,5.355468 -0.5,2.24512 -0.1,5.029644 1,7.152344 1,2.06959 3.89922,4.484582 5.19922,4.425782 0.2,-0.01214 0.80117,-0.218652 1.20117,-0.457032 v -0.0039 c 1.2,-0.67552 3.59961,-3.197454 4.09961,-4.458984 0.6,-1.22315 1,-3.144859 1,-4.480469 0,-2.94343 -1.60039,-6.389593 -4.90039,-10.501953 -0.7,-0.89337 -1.30039,-1.600563 -1.40039,-1.601563 z m 40,0 c -0.2,-9.7e-4 -2.59922,2.988403 -3.69922,4.570313 -1.2,1.79772 -2.2,3.928068 -2.5,5.355468 -0.5,2.24512 -0.1,5.029644 1,7.152344 1,2.06959 3.89922,4.484582 5.19922,4.425782 0.2,-0.01214 0.80117,-0.218652 1.20117,-0.457032 v -0.0039 c 1.2,-0.67552 3.59961,-3.197454 4.09961,-4.458984 0.6,-1.22315 1,-3.144859 1,-4.480469 0,-2.94343 -1.60039,-6.389593 -4.90039,-10.501953 -0.7,-0.89337 -1.30039,-1.600563 -1.40039,-1.601563 z m 40,0 c -0.2,-9.7e-4 -2.59922,2.988403 -3.69922,4.570313 -1.2,1.79772 -2.2,3.928068 -2.5,5.355468 -0.5,2.24512 -0.1,5.029644 1,7.152344 1,2.06959 3.89922,4.484582 5.19922,4.425782 0.2,-0.01214 0.80117,-0.218652 1.20117,-0.457032 v -0.0039 c 1.2,-0.67552 3.59961,-3.197454 4.09961,-4.458984 0.6,-1.22315 1,-3.144859 1,-4.480469 0,-2.94343 -1.60039,-6.389593 -4.90039,-10.501953 -0.7,-0.89337 -1.30039,-1.600563 -1.40039,-1.601563 z M 64.744141,55.400391 c -0.05057,0.0047 -0.09189,0.02179 -0.123047,0.05273 -0.4666,0.47303 -1.366263,2.645882 -1.726563,4.164063 -1.5219,6.41768 1.557435,11.578653 7.552735,12.658203 1.2082,0.21705 2.055953,0.189673 2.814453,-0.0918 l 0.0098,-0.0078 c 0.434,-0.16146 0.575332,-0.336923 1.019532,-1.214843 0.729,-1.462821 0.71499,-3.372325 -0.03711,-5.146485 -0.3041,-0.69414 -0.384787,-0.779543 -1.179687,-1.189453 -1.6526,-0.85419 -3.166072,-2.694459 -4.138672,-5.037109 -0.631688,-1.516557 -3.432854,-4.258699 -4.191406,-4.1875 z m 39.957029,0 c -0.0511,0.0047 -0.0937,0.02179 -0.125,0.05273 -0.4,0.47303 -1.29922,2.645882 -1.69922,4.164063 -1.5,6.41768 1.59961,11.578653 7.59961,12.658203 1.2,0.21705 2.00078,0.189673 2.80078,-0.0918 v -0.0078 c 0.4,-0.16146 0.6,-0.336923 1,-1.214843 0.7,-1.462821 0.7,-3.372325 0,-5.146485 -0.3,-0.69414 -0.40117,-0.779543 -1.20117,-1.189453 -1.7,-0.85419 -3.19961,-2.694459 -4.09961,-5.037109 -0.65625,-1.516557 -3.50927,-4.258699 -4.27539,-4.1875 z m 40,0 c -0.0511,0.0047 -0.0937,0.02179 -0.125,0.05273 -0.4,0.47303 -1.29922,2.645882 -1.69922,4.164063 -1.5,6.41768 1.59961,11.578653 7.59961,12.658203 1.2,0.21705 2.00078,0.189673 2.80078,-0.0918 v -0.0078 c 0.4,-0.16146 0.6,-0.336923 1,-1.214843 0.7,-1.462821 0.7,-3.372325 0,-5.146485 -0.3,-0.69414 -0.40117,-0.779543 -1.20117,-1.189453 -1.7,-0.85419 -3.19961,-2.694459 -4.09961,-5.037109 -0.65625,-1.516557 -3.50927,-4.258699 -4.27539,-4.1875 z m 40,0 c -0.0511,0.0047 -0.0937,0.02179 -0.125,0.05273 -0.4,0.47303 -1.29922,2.645882 -1.69922,4.164063 -1.5,6.41768 1.59961,11.578653 7.59961,12.658203 1.2,0.21705 2.00078,0.189673 2.80078,-0.0918 v -0.0078 c 0.4,-0.16146 0.6,-0.336923 1,-1.214843 0.7,-1.462821 0.7,-3.372325 0,-5.146485 -0.3,-0.69414 -0.40117,-0.779543 -1.20117,-1.189453 -1.7,-0.85419 -3.19961,-2.694459 -4.09961,-5.037109 -0.65625,-1.516557 -3.50927,-4.258699 -4.27539,-4.1875 z m -98.449217,0.07813 c -0.313832,0.02464 -0.829391,0.458918 -2.048828,1.542968 -1.4044,1.23565 -1.471441,1.340147 -2.056641,2.685547 -1.1036,2.53903 -2.402912,4.084359 -4.132812,4.917969 l -0.949219,0.457031 -0.4375,1.222657 c -0.7491,2.090339 -0.448903,4.44482 0.716797,5.61914 1.1395,1.14877 5.246034,0.362679 7.615234,-1.457031 0.4848,-0.36019 0.966491,-0.800918 1.087891,-0.960938 0.1209,-0.16063 0.519159,-0.656961 0.880859,-1.107421 0.9069,-1.11922 1.564719,-3.169022 1.636719,-5.107422 0.0897,-2.40083 -0.757622,-5.803484 -1.857422,-7.464844 -0.151462,-0.228799 -0.266779,-0.36244 -0.455078,-0.347656 z m 39.984377,0 c -0.30274,0.02464 -0.81055,0.458918 -2.06055,1.542968 -1.4,1.23565 -1.4,1.340147 -2,2.685547 -1.1,2.53903 -2.39922,4.084359 -4.19922,4.917969 l -0.90039,0.457031 -0.5,1.222657 c -0.7,2.090339 -0.39922,4.44482 0.80078,5.61914 1.1,1.14877 5.19961,0.362679 7.59961,-1.457031 0.5,-0.36019 0.89961,-0.800918 1.09961,-0.960938 0.1,-0.16063 0.50039,-0.656961 0.90039,-1.107421 0.9,-1.11922 1.49961,-3.169022 1.59961,-5.107422 0.1,-2.40083 -0.80039,-5.803484 -1.90039,-7.464844 -0.15,-0.228799 -0.25781,-0.36244 -0.43945,-0.347656 z m 40,0 c -0.30274,0.02464 -0.81055,0.458918 -2.06055,1.542968 -1.4,1.23565 -1.4,1.340147 -2,2.685547 -1.1,2.53903 -2.39922,4.084359 -4.19922,4.917969 l -0.90039,0.458984 -0.5,1.220704 c -0.7,2.090339 -0.39922,4.44482 0.80078,5.61914 1.1,1.14877 5.19961,0.362679 7.59961,-1.457031 0.5,-0.36019 0.89961,-0.800918 1.09961,-0.960938 0.1,-0.16063 0.50039,-0.656961 0.90039,-1.107421 0.9,-1.11922 1.49961,-3.169022 1.59961,-5.107422 0.1,-2.40083 -0.80039,-5.803484 -1.90039,-7.464844 -0.15,-0.228799 -0.25781,-0.36244 -0.43945,-0.347656 z m 40,0 c -0.30274,0.02464 -0.81055,0.458918 -2.06055,1.542968 -1.4,1.23565 -1.4,1.340147 -2,2.685547 -1.1,2.53903 -2.39922,4.084359 -4.19922,4.917969 l -0.90039,0.457031 -0.5,1.222657 c -0.7,2.090339 -0.39922,4.44482 0.80078,5.61914 1.1,1.14877 5.19961,0.362679 7.59961,-1.457031 0.5,-0.36019 0.89961,-0.800918 1.09961,-0.960938 0.1,-0.16063 0.50039,-0.656961 0.90039,-1.107421 0.9,-1.11922 1.49961,-3.169022 1.59961,-5.107422 0.1,-2.40083 -0.80039,-5.803484 -1.90039,-7.464844 -0.15,-0.228799 -0.25781,-0.36244 -0.43945,-0.347656 z M 62.308594,71.626953 c -0.199163,-0.03248 -0.289553,0.185931 -0.408203,0.634766 -0.3353,1.28176 -0.319697,4.312675 0.0332,5.859375 0.5524,2.46686 2.03869,5.2761 3.58789,6.83789 0.7957,0.80174 2.462144,1.843918 3.527344,2.205078 1.0658,0.362061 2.61736,0.504834 3.69336,0.339844 h 0.002 c 0.7447,-0.12085 0.990406,-0.240986 1.378906,-0.722656 1.5216,-1.88208 1.432369,-5.612291 -0.207031,-8.644531 l -0.490235,-0.904297 -1.207031,-0.21875 c -3.1395,-0.57032 -6.779856,-2.427699 -8.847656,-4.511719 -0.5539,-0.558395 -0.863338,-0.84252 -1.0625,-0.875 z m 40.017576,0 c -0.2,-0.03248 -0.29922,0.185931 -0.44922,0.634766 -0.3,1.28176 -0.30039,4.312675 0.0996,5.859375 0.5,2.46686 2,5.27609 3.5,6.83789 0.8,0.80174 2.49961,1.843929 3.59961,2.205078 1,0.362071 2.60117,0.504834 3.70117,0.339844 0.7,-0.12084 0.99883,-0.240986 1.29883,-0.722656 1.6,-1.88209 1.50078,-5.612291 -0.19922,-8.644531 l -0.5,-0.904297 -1.20117,-0.21875 c -3.1,-0.57032 -6.69883,-2.427699 -8.79883,-4.511719 -0.55,-0.558395 -0.85078,-0.84252 -1.05078,-0.875 z m 40,0 c -0.2,-0.03248 -0.29922,0.185931 -0.44922,0.634766 -0.3,1.28176 -0.30039,4.312675 0.0996,5.859375 0.5,2.46686 2,5.2761 3.5,6.83789 0.8,0.80174 2.49961,1.843918 3.59961,2.205078 1,0.362061 2.60117,0.504834 3.70117,0.339844 0.7,-0.12085 0.99883,-0.240986 1.29883,-0.722656 1.6,-1.88208 1.50078,-5.612291 -0.19922,-8.644531 l -0.5,-0.904297 -1.20117,-0.21875 c -3.1,-0.57032 -6.69883,-2.427699 -8.79883,-4.511719 -0.55,-0.558395 -0.85078,-0.84252 -1.05078,-0.875 z m 40,0 c -0.2,-0.03248 -0.29922,0.185931 -0.44922,0.634766 -0.3,1.28176 -0.30039,4.312675 0.0996,5.859375 0.5,2.46686 2,5.27609 3.5,6.83789 0.8,0.80174 2.49961,1.843929 3.59961,2.205078 1,0.362071 2.60117,0.504834 3.70117,0.339844 0.7,-0.12084 0.99883,-0.240986 1.29883,-0.722656 1.6,-1.88209 1.50078,-5.612291 -0.19922,-8.644531 l -0.5,-0.904297 -1.20117,-0.21875 c -3.1,-0.57032 -6.69883,-2.427699 -8.79883,-4.511719 -0.55,-0.558395 -0.85078,-0.84252 -1.05078,-0.875 z m -93.486326,0.05078 c -0.0516,-0.05157 -0.464416,0.267804 -0.916016,0.714844 -2.311,2.29294 -6.202656,4.265095 -9.347656,4.734375 l -1.089844,0.164063 -0.675781,1.36914 c -1.4245,2.89407 -1.527803,5.78837 -0.283203,7.88086 0.5389,0.90523 0.9138,1.057596 2.6875,1.091796 1.7241,0.033 3.307609,-0.493164 5.224609,-1.740234 v -0.002 c 0.6155,-0.40105 1.376244,-1.222031 2.152344,-2.332031 1.768,-2.52646 2.748047,-5.408615 2.748047,-8.171875 0.0047,-1.37297 -0.2793,-3.486885 -0.5,-3.708985 z m 40.037106,0 c -0.1,-0.05157 -0.5,0.267804 -1,0.714844 -2.3,2.29294 -6.20078,4.265095 -9.30078,4.734375 l -1.09961,0.164063 -0.69922,1.36914 c -1.4,2.89407 -1.50117,5.78837 -0.20117,7.88086 0.5,0.90523 0.89961,1.057596 2.59961,1.091796 1.8,0.033 3.30078,-0.493154 5.30078,-1.740234 v -0.002 c 0.6,-0.40105 1.29961,-1.222021 2.09961,-2.332031 1.8,-2.52645 2.80078,-5.408615 2.80078,-8.171875 0,-1.37297 -0.3,-3.486885 -0.5,-3.708985 z m 40,0 c -0.1,-0.05157 -0.5,0.267804 -1,0.714844 -2.3,2.29294 -6.20078,4.265095 -9.30078,4.734375 l -1.09961,0.164063 -0.69922,1.36914 c -1.4,2.89407 -1.50117,5.78837 -0.20117,7.88086 0.5,0.90523 0.89961,1.057596 2.59961,1.091796 1.8,0.033 3.30078,-0.493164 5.30078,-1.740234 v -0.002 c 0.6,-0.40105 1.29961,-1.222031 2.09961,-2.332031 1.8,-2.52646 2.80078,-5.408615 2.80078,-8.171875 0,-1.37297 -0.3,-3.486885 -0.5,-3.708985 z m 40,0 c -0.1,-0.05157 -0.5,0.267804 -1,0.714844 -2.3,2.29294 -6.20078,4.265095 -9.30078,4.734375 l -1.09961,0.164063 -0.69922,1.36914 c -1.4,2.89407 -1.50117,5.78837 -0.20117,7.88086 0.5,0.90523 0.89961,1.057596 2.59961,1.091796 1.8,0.033 3.30078,-0.493154 5.30078,-1.740234 v -0.002 c 0.6,-0.40105 1.29961,-1.222021 2.09961,-2.332031 1.8,-2.52645 2.80078,-5.408615 2.80078,-8.171875 0,-1.37297 -0.3,-3.486885 -0.5,-3.708985 z M 62.023438,85.355469 61.785156,86.566406 c -0.2983,1.52777 -0.221944,4.299589 0.160156,5.824219 0.7711,3.06874 3.030629,6.442693 5.173829,7.720705 1.8422,1.09855 4.172343,1.5846 5.839843,1.21679 h 0.002 c 2.450799,-0.53918 2.946068,-5.574024 0.917968,-9.324214 L 73.40625,91.130859 71.675781,90.78125 c -0.951,-0.19211 -2.379828,-0.640204 -3.173828,-0.996094 -1.6301,-0.72793 -3.938528,-2.191883 -4.798828,-3.058594 -0.3178,-0.316209 -0.825606,-0.755539 -1.128906,-0.974609 z m 39.953122,0 -0.19922,1.210937 c -0.3,1.52778 -0.20078,4.299589 0.19922,5.824219 0.7,3.06874 2.99961,6.442703 5.09961,7.720705 1.9,1.09856 4.20039,1.58459 5.90039,1.21679 2.4,-0.53918 2.90039,-5.574034 0.90039,-9.324214 l -0.5,-0.873047 -1.70117,-0.349609 c -1,-0.19211 -2.39922,-0.640214 -3.19922,-0.996094 -1.6,-0.72794 -3.90078,-2.191874 -4.80078,-3.058594 -0.3,-0.316209 -0.79961,-0.755549 -1.09961,-0.974609 z m 40,0 -0.19922,1.210937 c -0.3,1.52777 -0.20078,4.299589 0.19922,5.824219 0.7,3.06874 2.99961,6.442693 5.09961,7.720705 1.9,1.09855 4.20039,1.5846 5.90039,1.21679 2.4,-0.53918 2.90039,-5.574024 0.90039,-9.324214 l -0.5,-0.873047 -1.70117,-0.349609 c -1,-0.19211 -2.39922,-0.640204 -3.19922,-0.996094 -1.6,-0.72794 -3.90078,-2.191883 -4.80078,-3.058594 -0.3,-0.316209 -0.79961,-0.755539 -1.09961,-0.974609 z m 40,0 -0.19922,1.210937 c -0.3,1.52778 -0.20078,4.299589 0.19922,5.824219 0.7,3.06874 2.99961,6.442703 5.09961,7.720705 1.9,1.09856 4.20039,1.58459 5.90039,1.21679 2.4,-0.53918 2.90039,-5.574034 0.90039,-9.324214 l -0.5,-0.873047 -1.70117,-0.349609 c -1,-0.19211 -2.39922,-0.640214 -3.19922,-0.996094 -1.6,-0.72794 -3.90078,-2.191874 -4.80078,-3.058594 -0.3,-0.316209 -0.79961,-0.755549 -1.09961,-0.974609 z m -93.273435,0.367187 c -0.19985,-0.07699 -0.50835,0.185125 -1.0625,0.734375 -2.25,2.22007 -6.319456,4.22063 -9.285156,4.5625 l -0.857422,0.09766 -0.523438,0.943359 c -1.4691,2.64832 -1.769262,5.614965 -0.789062,7.796875 0.2646,0.574595 0.614494,1.081745 0.871094,1.253905 1.3884,0.93313 4.970559,0.33643 7.130859,-1.197265 l -0.0059,0.002 c 2.073441,-1.466079 4.1819,-4.93772 4.8184,-7.93169 0.3477,-1.63452 0.380981,-3.146647 0.113281,-4.960937 -0.11915,-0.807081 -0.210306,-1.223797 -0.410156,-1.300782 z m 40.011715,0 c -0.1875,-0.07698 -0.48906,0.185125 -1.03906,0.734375 -2.3,2.22006 -6.39883,4.22063 -9.29883,4.5625 l -0.90039,0.09766 -0.5,0.943359 c -1.5,2.64832 -1.80078,5.614965 -0.80078,7.796875 0.3,0.574585 0.60039,1.081735 0.90039,1.253905 1.4,0.93312 4.89961,0.33644 7.09961,-1.197265 v 0.002 c 2.1,-1.46603 4.20078,-4.937671 4.80078,-7.931641 0.4,-1.63452 0.39961,-3.146637 0.0996,-4.960937 -0.1,-0.80708 -0.17383,-1.223799 -0.36133,-1.300782 z m 40,0 c -0.1875,-0.07699 -0.48906,0.185125 -1.03906,0.734375 -2.3,2.22007 -6.39883,4.22063 -9.29883,4.5625 l -0.90039,0.09766 -0.5,0.943359 c -1.5,2.64832 -1.80078,5.614975 -0.80078,7.796875 0.3,0.574595 0.60039,1.081745 0.90039,1.253905 1.4,0.93313 4.89961,0.33643 7.09961,-1.197265 v 0.002 c 2.1,-1.46603 4.20078,-4.937671 4.80078,-7.931641 0.4,-1.63452 0.39961,-3.146647 0.0996,-4.960937 -0.1,-0.807081 -0.17383,-1.223797 -0.36133,-1.300782 z m 40,0 c -0.1875,-0.07698 -0.48906,0.185125 -1.03906,0.734375 -2.3,2.22006 -6.39883,4.22063 -9.29883,4.5625 l -0.90039,0.09766 -0.5,0.943359 c -1.5,2.64832 -1.80078,5.614965 -0.80078,7.796875 0.3,0.574585 0.60039,1.081735 0.90039,1.253905 1.4,0.93312 4.89961,0.33644 7.09961,-1.197265 v 0.002 c 2.1,-1.46603 4.20078,-4.937671 4.80078,-7.931641 0.4,-1.63452 0.39961,-3.146637 0.0996,-4.960937 -0.1,-0.80708 -0.17383,-1.223799 -0.36133,-1.300782 z M 61.990234,99.398438 c -0.2323,0.231099 -0.500125,2.821912 -0.453125,4.369142 0.0938,3.00997 1.704288,6.67134 3.929688,8.91406 1.9682,1.98737 4.652384,2.98832 7.021484,2.61914 1.1271,-0.17641 1.825444,-0.83922 2.277344,-2.17383 0.6459,-1.9027 0.414981,-4.27537 -0.636719,-6.54883 -0.6773,-1.46343 -0.8237,-1.59137 -2.0625,-1.80078 -2.9767,-0.50272 -5.918078,-1.99275 -8.767578,-4.44336 -0.663,-0.570366 -1.242594,-0.980542 -1.308594,-0.935542 z m 39.986326,0 c -0.2,0.231089 -0.50039,2.821922 -0.40039,4.369142 0.1,3.00997 1.70039,6.67134 3.90039,8.91406 2,1.98737 4.6,2.98832 7,2.61914 1.1,-0.17641 1.80078,-0.83921 2.30078,-2.17383 0.6,-1.90269 0.39844,-4.27536 -0.60156,-6.54883 -0.7,-1.46343 -0.89961,-1.59138 -2.09961,-1.80078 -3,-0.50272 -5.89883,-1.99276 -8.79883,-4.44336 -0.6,-0.570366 -1.20078,-0.980542 -1.30078,-0.935542 z m 40,0 c -0.2,0.231099 -0.50039,2.821912 -0.40039,4.369142 0.1,3.00997 1.70039,6.67134 3.90039,8.91406 2,1.98737 4.6,2.98833 7,2.61914 1.1,-0.17641 1.80078,-0.83922 2.30078,-2.17383 0.6,-1.9027 0.39844,-4.27537 -0.60156,-6.54883 -0.7,-1.46343 -0.89961,-1.59137 -2.09961,-1.80078 -3,-0.50272 -5.89883,-1.99275 -8.79883,-4.44336 -0.6,-0.570366 -1.20078,-0.980542 -1.30078,-0.935542 z m 40,0 c -0.2,0.231089 -0.50039,2.821922 -0.40039,4.369142 0.1,3.00997 1.70039,6.67134 3.90039,8.91406 2,1.98737 4.6,2.98832 7,2.61914 1.1,-0.17641 1.80078,-0.83921 2.30078,-2.17383 0.6,-1.90269 0.39844,-4.27536 -0.60156,-6.54883 -0.7,-1.46343 -0.89961,-1.59138 -2.09961,-1.80078 -3,-0.50272 -5.89883,-1.99276 -8.79883,-4.44336 -0.6,-0.570366 -1.20078,-0.980542 -1.30078,-0.935542 z m -93.212888,0.03711 -0.660156,0.5 c -0.3637,0.275772 -0.875007,0.704322 -1.128907,0.958982 -1.5916,1.56783 -5.381743,3.41205 -8.027343,3.9082 l -1.589844,0.29883 -0.544922,1.06641 c -1.3268,2.59844 -1.593581,4.77419 -0.863281,7.04687 0.5902,1.83753 1.239431,2.25656 3.394531,2.19336 1.3745,-0.0403 2.791378,-0.44285 4.080078,-1.15625 v -0.002 c 0.6015,-0.32369 1.243503,-0.8891 2.095703,-1.80664 3.0739,-3.31004 4.430897,-8.2412 3.404297,-12.36719 l -0.160156,-0.640622 z m 40.013668,0 -0.70117,0.5 c -0.3,0.275762 -0.79961,0.704322 -1.09961,0.958982 -1.6,1.56784 -5.4,3.41204 -8,3.9082 l -1.59961,0.29883 -0.59961,1.06641 c -1.3,2.59843 -1.60078,4.77419 -0.80078,7.04687 0.6,1.83753 1.20039,2.25656 3.40039,2.19336 1.3,-0.0403 2.8,-0.44286 4,-1.15625 v -0.002 c 0.6,-0.32369 1.29961,-0.8891 2.09961,-1.80664 3.1,-3.31004 4.50039,-8.24119 3.40039,-12.36719 l -0.0996,-0.640622 z m 40,0 -0.70117,0.5 c -0.3,0.275772 -0.79961,0.704322 -1.09961,0.958982 -1.6,1.56783 -5.4,3.41205 -8,3.9082 l -1.59961,0.29883 -0.59961,1.06641 c -1.3,2.59844 -1.60078,4.77419 -0.80078,7.04687 0.6,1.83753 1.20039,2.25656 3.40039,2.19336 1.3,-0.0403 2.8,-0.44285 4,-1.15625 v -0.002 c 0.6,-0.32369 1.29961,-0.8891 2.09961,-1.80664 3.1,-3.31004 4.50039,-8.2412 3.40039,-12.36719 l -0.0996,-0.640622 z m 40,0 -0.70117,0.5 c -0.3,0.275762 -0.79961,0.704322 -1.09961,0.958982 -1.6,1.56784 -5.4,3.41204 -8,3.9082 l -1.59961,0.29883 -0.59961,1.06641 c -1.3,2.59843 -1.60078,4.77419 -0.80078,7.04687 0.6,1.83753 1.20039,2.25656 3.40039,2.19336 1.3,-0.0403 2.8,-0.44286 4,-1.15625 v -0.002 c 0.6,-0.32369 1.29961,-0.8891 2.09961,-1.80664 3.1,-3.31004 4.50039,-8.24119 3.40039,-12.36719 l -0.0996,-0.640622 z M 61.919922,113.25 c -0.2194,0.21727 -0.4845,2.85664 -0.4375,4.35352 0.1258,4.02694 2.793669,8.77001 5.917969,10.52148 1.7307,0.96995 4.246128,1.36759 5.736328,0.90625 0.6509,-0.20072 1.035087,-0.67695 1.492187,-1.8418 0.8297,-2.11621 0.436569,-5.1975 -0.957031,-7.5332 -0.4483,-0.75106 -0.4556,-0.75601 -1.9375,-1.06055 -2.9977,-0.61573 -5.317778,-1.78412 -8.080078,-4.06836 -0.9058,-0.75139 -1.679375,-1.31514 -1.734375,-1.27734 z m 39.957028,0 c -0.2,0.21727 -0.40039,2.85665 -0.40039,4.35352 0.1,4.02694 2.80039,8.77001 5.90039,10.52148 1.8,0.96996 4.29883,1.36758 5.79883,0.90625 0.6,-0.20072 1,-0.67695 1.5,-1.8418 0.8,-2.11621 0.4,-5.1975 -1,-7.5332 -0.5,-0.75106 -0.49844,-0.75601 -1.89844,-1.06055 -3,-0.61573 -5.40156,-1.78412 -8.10156,-4.06836 -0.9,-0.75139 -1.69883,-1.31514 -1.79883,-1.27734 z m 40,0 c -0.2,0.21727 -0.40039,2.85664 -0.40039,4.35352 0.1,4.02694 2.80039,8.77001 5.90039,10.52148 1.8,0.96995 4.29883,1.36759 5.79883,0.90625 0.6,-0.20072 1,-0.67695 1.5,-1.8418 0.8,-2.11621 0.4,-5.1975 -1,-7.5332 -0.5,-0.75106 -0.49844,-0.75601 -1.89844,-1.06055 -3,-0.61573 -5.40156,-1.78412 -8.10156,-4.06836 -0.9,-0.75139 -1.69883,-1.31514 -1.79883,-1.27734 z m 40,0 c -0.2,0.21727 -0.40039,2.85665 -0.40039,4.35352 0.1,4.02694 2.80039,8.77001 5.90039,10.52148 1.8,0.96996 4.29883,1.36758 5.79883,0.90625 0.6,-0.20072 1,-0.67695 1.5,-1.8418 0.8,-2.11621 0.4,-5.1975 -1,-7.5332 -0.5,-0.75106 -0.49844,-0.75601 -1.89844,-1.06055 -3,-0.61573 -5.40156,-1.78412 -8.10156,-4.06836 -0.9,-0.75139 -1.69883,-1.31514 -1.79883,-1.27734 z m -93.162106,0.0371 -1.640625,1.33594 c -0.9028,0.73414 -2.221194,1.67789 -2.933594,2.09179 -1.508,0.88035 -4.2789,1.87296 -5.75,2.0625 l -1.029297,0.13282 -0.609375,1.17187 c -0.7344,1.40918 -1.013109,2.23213 -1.162109,3.4375 -0.2615,2.10473 0.09931,3.83802 1.037109,4.98047 0.4629,0.56394 0.651994,0.65977 1.558594,0.7832 1.3522,0.18383 3.191694,-0.1622 4.621094,-0.86914 3.8951,-1.92366 6.79119,-7.68397 6.33789,-12.60742 -0.0635,-0.6894 -0.190437,-1.53635 -0.273437,-1.88672 z m 39.960936,0 -1.59961,1.33594 c -0.9,0.73415 -2.20039,1.67788 -2.90039,2.09179 -1.5,0.88034 -4.29883,1.87295 -5.79883,2.0625 l -1,0.13282 -0.59961,1.17187 c -0.8,1.40918 -1.00117,2.23214 -1.20117,3.4375 -0.2,2.10473 0.0996,3.83803 1.09961,4.98047 0.4,0.56394 0.6,0.65976 1.5,0.7832 1.4,0.18382 3.20156,-0.16221 4.60156,-0.86914 3.9,-1.92366 6.79844,-7.68396 6.39844,-12.60742 -0.1,-0.68939 -0.19883,-1.53636 -0.29883,-1.88672 z m 40,0 -1.59961,1.33594 c -0.9,0.73414 -2.20039,1.67789 -2.90039,2.09179 -1.5,0.88035 -4.29883,1.87296 -5.79883,2.0625 l -1,0.13282 -0.59961,1.17187 c -0.8,1.40918 -1.00117,2.23213 -1.20117,3.4375 -0.2,2.10472 0.0996,3.83802 1.09961,4.98047 0.4,0.56394 0.6,0.65977 1.5,0.7832 1.4,0.18383 3.20156,-0.1622 4.60156,-0.86914 3.9,-1.92366 6.79844,-7.68397 6.39844,-12.60742 -0.1,-0.6894 -0.19883,-1.53635 -0.29883,-1.88672 z m 40,0 -1.59961,1.33594 c -0.9,0.73415 -2.20039,1.67788 -2.90039,2.09179 -1.5,0.88034 -4.29883,1.87295 -5.79883,2.0625 l -1,0.13282 -0.59961,1.17187 c -0.8,1.40918 -1.00117,2.23214 -1.20117,3.4375 -0.2,2.10473 0.0996,3.83803 1.09961,4.98047 0.4,0.56394 0.6,0.65976 1.5,0.7832 1.4,0.18382 3.20156,-0.16221 4.60156,-0.86914 3.9,-1.92366 6.79844,-7.68396 6.39844,-12.60742 -0.1,-0.68939 -0.19883,-1.53636 -0.29883,-1.88672 z M 55.660156,124.73828 c -0.148482,-6.4e-4 -1.251522,1.31947 -2.285156,2.66602 v 17.74023 c 0.865346,0.6708 1.710717,1.12306 2.267578,1.09766 0.2715,-0.0121 0.845191,-0.21865 1.275391,-0.45703 l -0.0098,-0.004 c 1.2156,-0.67552 3.536009,-3.19745 4.099609,-4.45898 0.5474,-1.22315 0.980469,-3.14486 0.980469,-4.48047 0.0259,-2.94343 -1.577925,-6.3896 -4.890625,-10.50196 -0.6975,-0.89337 -1.3545,-1.60056 -1.4375,-1.60156 z m 40.015625,0 c -0.2,-9.7e-4 -2.599219,2.9884 -3.699219,4.57031 -1.199999,1.79772 -2.2,3.92807 -2.5,5.35547 -0.5,2.24512 -0.1,5.02769 1,7.15039 1,2.06959 3.899219,4.48654 5.199219,4.42774 0.2,-0.0121 0.801172,-0.21865 1.201172,-0.45703 v -0.004 c 1.2,-0.67552 3.599607,-3.19745 4.099607,-4.45898 0.6,-1.22315 1,-3.14486 1,-4.48047 0,-2.94343 -1.60039,-6.3896 -4.900388,-10.50196 -0.7,-0.89337 -1.300391,-1.60056 -1.400391,-1.60156 z m 39.999999,0 c -0.2,-9.7e-4 -2.59922,2.9884 -3.69922,4.57031 -1.2,1.79772 -2.2,3.92807 -2.5,5.35547 -0.5,2.24512 -0.1,5.02769 1,7.15039 1,2.06959 3.89922,4.48654 5.19922,4.42774 0.2,-0.0121 0.80117,-0.21865 1.20117,-0.45703 v -0.004 c 1.2,-0.67552 3.59961,-3.19745 4.09961,-4.45898 0.6,-1.22315 1,-3.14486 1,-4.48047 0,-2.94343 -1.60039,-6.3896 -4.90039,-10.50196 -0.7,-0.89337 -1.30039,-1.60056 -1.40039,-1.60156 z m 40,0 c -0.2,-9.7e-4 -2.59922,2.9884 -3.69922,4.57031 -1.2,1.79772 -2.2,3.92807 -2.5,5.35547 -0.5,2.24512 -0.1,5.02769 1,7.15039 1,2.06959 3.89922,4.48654 5.19922,4.42774 0.2,-0.0121 0.80117,-0.21865 1.20117,-0.45703 v -0.004 c 1.2,-0.67552 3.59961,-3.19745 4.09961,-4.45898 0.6,-1.22315 1,-3.14486 1,-4.48047 0,-2.94343 -1.60039,-6.3896 -4.90039,-10.50196 -0.7,-0.89337 -1.30039,-1.60056 -1.40039,-1.60156 z m 38.76758,1.35742 c -0.82326,1.00179 -1.84032,2.31195 -2.4668,3.21289 -1.2,1.79772 -2.2,3.92807 -2.5,5.35547 -0.5,2.24512 -0.1,5.02769 1,7.15039 0.74772,1.54747 2.5577,3.28764 3.9668,4.04297 z m -139.179688,4.57813 c -0.141586,0.0638 -0.397725,0.53767 -0.984375,1.73437 l -0.953125,1.95899 -0.07422,17.34765 -0.06836,63.93555 c -0.455746,0.60084 -0.887302,1.19001 -1.197266,1.6582 -1.1775,1.79772 -2.172987,3.92807 -2.492187,5.35547 -0.5021,2.24512 -0.126857,5.02769 0.964843,7.15039 1.0648,2.06959 3.894594,4.48654 5.183594,4.42774 0.2715,-0.0121 0.845191,-0.21865 1.275391,-0.45703 l -0.0098,-0.004 c 1.2156,-0.67552 3.53601,-3.19745 4.099609,-4.45898 0.5474,-1.22315 0.980469,-3.14486 0.980469,-4.48047 0.02574,-2.92519 -1.560925,-6.34907 -4.832031,-10.42774 l 0.06445,-62.68554 c 0.0618,-15.06777 0.02176,-17.44964 -0.306641,-18.00977 -0.2069,-0.35592 -0.605818,-1.10793 -0.886718,-1.67187 -0.2806,-0.56385 -0.575344,-1.15337 -0.652344,-1.3125 -0.02957,-0.0584 -0.06413,-0.0818 -0.111328,-0.0605 z m 40.011718,0 c -0.13594,0.0638 -0.39805,0.53767 -0.99805,1.73437 l -1,1.95899 v 17.34765 l -0.0937,63.96485 c -0.45427,0.59073 -0.88677,1.16834 -1.20703,1.6289 -1.2,1.79772 -2.2,3.92807 -2.5,5.35547 -0.5,2.24512 -0.1,5.02965 1,7.15235 1,2.06959 3.89922,4.48458 5.19922,4.42578 0.2,-0.0121 0.80117,-0.21865 1.20117,-0.45703 v -0.004 c 1.2,-0.67552 3.59961,-3.19745 4.09961,-4.45898 0.6,-1.22315 1,-3.14486 1,-4.48047 0,-2.91166 -1.57269,-6.31734 -4.80078,-10.3711 v -62.74218 c 0.1,-15.06778 0.10117,-17.44964 -0.29883,-18.00977 -0.2,-0.35592 -0.60078,-1.10792 -0.80078,-1.67187 -0.3,-0.56385 -0.59922,-1.15337 -0.69922,-1.3125 -0.025,-0.0584 -0.0562,-0.0818 -0.10156,-0.0605 z m 40,0 c -0.13594,0.0638 -0.39805,0.53767 -0.99805,1.73437 l -1,1.95899 v 17.34765 l -0.0937,63.96485 c -0.45427,0.59073 -0.88677,1.16834 -1.20703,1.6289 -1.2,1.79772 -2.2,3.92807 -2.5,5.35547 -0.5,2.24512 -0.1,5.02965 1,7.15235 1,2.06959 3.89922,4.48458 5.19922,4.42578 0.2,-0.0121 0.80117,-0.21865 1.20117,-0.45703 v -0.004 c 1.2,-0.67552 3.59961,-3.19745 4.09961,-4.45898 0.6,-1.22315 1,-3.14486 1,-4.48047 0,-2.91166 -1.57269,-6.31734 -4.80078,-10.3711 v -62.74218 c 0.1,-15.06777 0.10117,-17.44964 -0.29883,-18.00977 -0.2,-0.35592 -0.60078,-1.10793 -0.80078,-1.67187 -0.3,-0.56385 -0.59922,-1.15337 -0.69922,-1.3125 -0.025,-0.0584 -0.0563,-0.0818 -0.10156,-0.0605 z m 40,0 c -0.13594,0.0638 -0.39805,0.53767 -0.99805,1.73437 l -1,1.95899 v 17.34765 l -0.0937,63.96485 c -0.45427,0.59073 -0.88677,1.16834 -1.20703,1.6289 -1.2,1.79772 -2.2,3.92807 -2.5,5.35547 -0.5,2.24512 -0.1,5.02965 1,7.15235 1,2.06959 3.89922,4.48458 5.19922,4.42578 0.2,-0.0121 0.80117,-0.21865 1.20117,-0.45703 v -0.004 c 1.2,-0.67552 3.59961,-3.19745 4.09961,-4.45898 0.6,-1.22315 1,-3.14486 1,-4.48047 0,-2.91166 -1.57269,-6.31734 -4.80078,-10.3711 v -62.74218 c 0.1,-15.06778 0.10117,-17.44964 -0.29883,-18.00977 -0.2,-0.35592 -0.60078,-1.10792 -0.80078,-1.67187 -0.3,-0.56385 -0.59922,-1.15337 -0.69922,-1.3125 -0.025,-0.0584 -0.0563,-0.0818 -0.10156,-0.0605 z m -110.574218,8.72656 c -0.05107,0.005 -0.09375,0.0218 -0.125,0.0527 -0.4,0.47303 -1.299219,2.64589 -1.699219,4.16407 -1.5,6.41768 1.599609,11.57865 7.599609,12.6582 1.200001,0.21705 2.000782,0.18967 2.800782,-0.0918 v -0.008 c 0.4,-0.16146 0.6,-0.33692 1,-1.21484 0.7,-1.46282 0.7,-3.37233 0,-5.14649 -0.3,-0.69414 -0.401172,-0.77954 -1.201172,-1.18945 -1.7,-0.85419 -3.199609,-2.69446 -4.09961,-5.03711 -0.656249,-1.51656 -3.509277,-4.2587 -4.27539,-4.1875 z m 39.999998,0 c -0.0511,0.005 -0.0937,0.0218 -0.125,0.0527 -0.4,0.47303 -1.29922,2.64589 -1.69922,4.16407 -1.5,6.41768 1.59961,11.57865 7.59961,12.6582 1.2,0.21705 2.00078,0.18967 2.80078,-0.0918 v -0.008 c 0.4,-0.16146 0.6,-0.33692 1,-1.21484 0.7,-1.46282 0.7,-3.37233 0,-5.14649 -0.3,-0.69414 -0.40117,-0.77954 -1.20117,-1.18945 -1.7,-0.85419 -3.19961,-2.69446 -4.09961,-5.03711 -0.65625,-1.51656 -3.50927,-4.2587 -4.27539,-4.1875 z m 40,0 c -0.0511,0.005 -0.0937,0.0218 -0.125,0.0527 -0.4,0.47303 -1.29922,2.64589 -1.69922,4.16407 -1.5,6.41768 1.59961,11.57865 7.59961,12.6582 1.2,0.21705 2.00078,0.18967 2.80078,-0.0918 v -0.008 c 0.4,-0.16146 0.6,-0.33692 1,-1.21484 0.7,-1.46282 0.7,-3.37233 0,-5.14649 -0.3,-0.69414 -0.40117,-0.77954 -1.20117,-1.18945 -1.7,-0.85419 -3.19961,-2.69446 -4.09961,-5.03711 -0.65625,-1.51656 -3.50927,-4.2587 -4.27539,-4.1875 z m 40,0 c -0.0511,0.005 -0.0937,0.0218 -0.125,0.0527 -0.4,0.47303 -1.29922,2.64589 -1.69922,4.16407 -1.5,6.41768 1.59961,11.57865 7.59961,12.6582 1.2,0.21705 2.00078,0.18967 2.80078,-0.0918 v -0.008 c 0.4,-0.16146 0.6,-0.33692 1,-1.21484 0.0635,-0.13262 0.11406,-0.27259 0.16602,-0.41211 v -4.2461 c -0.052,-0.16295 -0.10243,-0.32711 -0.16602,-0.48828 -0.3,-0.69414 -0.40117,-0.77954 -1.20117,-1.18945 -1.7,-0.85419 -3.19961,-2.69446 -4.09961,-5.03711 -0.65625,-1.51656 -3.50927,-4.2587 -4.27539,-4.1875 z m -138.449217,0.0781 c -0.313832,0.0246 -0.829391,0.45891 -2.048828,1.54296 -1.4044,1.23565 -1.471441,1.34015 -2.056641,2.68555 -1.1036,2.53903 -2.402912,4.08436 -4.132812,4.91797 l -0.949219,0.45703 -0.4375,1.22266 c -0.7491,2.09034 -0.448903,4.44482 0.716797,5.61914 1.1395,1.14877 5.246034,0.36268 7.615234,-1.45703 0.4848,-0.36019 0.966491,-0.80092 1.087891,-0.96094 0.1209,-0.16063 0.519159,-0.65696 0.880859,-1.10742 0.9069,-1.11922 1.564719,-3.16902 1.636719,-5.10742 0.0897,-2.40083 -0.757622,-5.80544 -1.857422,-7.4668 -0.151462,-0.2288 -0.266779,-0.36049 -0.455078,-0.3457 z m 39.984377,0 c -0.30274,0.0246 -0.81055,0.45891 -2.06055,1.54296 -1.4,1.23565 -1.4,1.34015 -2,2.68555 -1.1,2.53903 -2.399218,4.08436 -4.199218,4.91797 l -0.90039,0.45703 -0.5,1.22266 c -0.7,2.09034 -0.399219,4.44482 0.800781,5.61914 1.1,1.14877 5.199607,0.36268 7.599607,-1.45703 0.5,-0.36019 0.89961,-0.80092 1.09961,-0.96094 0.1,-0.16063 0.50039,-0.65696 0.90039,-1.10742 0.9,-1.11922 1.49961,-3.16902 1.59961,-5.10742 0.1,-2.40083 -0.80039,-5.80544 -1.90039,-7.4668 -0.15,-0.2288 -0.25781,-0.36049 -0.43945,-0.3457 z m 40,0 c -0.30274,0.0246 -0.81055,0.45891 -2.06055,1.54296 -1.4,1.23565 -1.4,1.34015 -2,2.68555 -1.1,2.53903 -2.39922,4.08436 -4.19922,4.91797 l -0.90039,0.45703 -0.5,1.22266 c -0.7,2.09034 -0.39922,4.44482 0.80078,5.61914 1.1,1.14877 5.19961,0.36268 7.59961,-1.45703 0.5,-0.36019 0.89961,-0.80092 1.09961,-0.96094 0.1,-0.16063 0.50039,-0.65696 0.90039,-1.10742 0.9,-1.11922 1.49961,-3.16902 1.59961,-5.10742 0.1,-2.40083 -0.80039,-5.80349 -1.90039,-7.46485 -0.15,-0.2288 -0.25781,-0.36244 -0.43945,-0.34765 z m 40,0 c -0.30274,0.0246 -0.81055,0.45891 -2.06055,1.54296 -1.4,1.23565 -1.4,1.34015 -2,2.68555 -1.1,2.53903 -2.39922,4.08436 -4.19922,4.91797 l -0.90039,0.45703 -0.5,1.22266 c -0.7,2.09034 -0.39922,4.44482 0.80078,5.61914 1.1,1.14877 5.19961,0.36268 7.59961,-1.45703 0.5,-0.36019 0.89961,-0.80092 1.09961,-0.96094 0.1,-0.16063 0.50039,-0.65696 0.90039,-1.10742 0.9,-1.11922 1.49961,-3.16902 1.59961,-5.10742 0.1,-2.40083 -0.80039,-5.80544 -1.90039,-7.4668 -0.15,-0.2288 -0.25781,-0.36049 -0.43945,-0.3457 z M 53.375,148.79099 v 7.33398 c 0.348881,-0.15423 0.513104,-0.36774 0.916016,-1.16406 0.729,-1.46282 0.71499,-3.37233 -0.03711,-5.14649 -0.256061,-0.58448 -0.379607,-0.74484 -0.878906,-1.02343 z m 28.951172,6.83593 c -0.2,-0.0325 -0.299219,0.18593 -0.449219,0.63477 -0.3,1.28176 -0.300391,4.31267 0.09961,5.85937 0.5,2.46686 2,5.27609 3.5,6.83789 0.8,0.80174 2.49961,1.84393 3.59961,2.20508 1,0.36207 2.601172,0.50484 3.701172,0.33985 0.7,-0.12084 0.998828,-0.24099 1.298828,-0.72266 1.6,-1.88209 1.500781,-5.61229 -0.199219,-8.64453 l -0.5,-0.9043 -1.201172,-0.21875 c -3.1,-0.57032 -6.698828,-2.4277 -8.798828,-4.51172 -0.55,-0.55839 -0.850781,-0.84252 -1.050782,-0.875 z m 39.999998,0 c -0.2,-0.0325 -0.29922,0.18593 -0.44922,0.63477 -0.3,1.28176 -0.30039,4.31267 0.0996,5.85937 0.5,2.46686 2,5.2761 3.5,6.83789 0.8,0.80174 2.49961,1.84392 3.59961,2.20508 1,0.36206 2.60117,0.50484 3.70117,0.33985 0.7,-0.12085 0.99883,-0.24099 1.29883,-0.72266 1.6,-1.88208 1.50078,-5.61229 -0.19922,-8.64453 l -0.5,-0.9043 -1.20117,-0.21875 c -3.1,-0.57032 -6.69883,-2.4277 -8.79883,-4.51172 -0.55,-0.55839 -0.85078,-0.84252 -1.05078,-0.875 z m 40,0 c -0.2,-0.0325 -0.29922,0.18593 -0.44922,0.63477 -0.3,1.28176 -0.30039,4.31267 0.0996,5.85937 0.5,2.46686 2,5.27609 3.5,6.83789 0.8,0.80174 2.49961,1.84393 3.59961,2.20508 1,0.36207 2.60117,0.50484 3.70117,0.33985 0.7,-0.12084 0.99883,-0.24099 1.29883,-0.72266 1.6,-1.88209 1.50078,-5.61229 -0.19922,-8.64453 l -0.5,-0.9043 -1.20117,-0.21875 c -3.1,-0.57032 -6.69883,-2.4277 -8.79883,-4.51172 -0.55,-0.55839 -0.85078,-0.84252 -1.05078,-0.875 z m 40,0 c -0.2,-0.0325 -0.29922,0.18593 -0.44922,0.63477 -0.3,1.28176 -0.30039,4.31267 0.0996,5.85937 0.5,2.46686 2,5.2761 3.5,6.83789 0.8,0.80174 2.49961,1.84392 3.59961,2.20508 1,0.36206 2.60117,0.50484 3.70117,0.33985 0.7,-0.12085 0.99883,-0.24099 1.29883,-0.72266 0.13583,-0.15978 0.2558,-0.33662 0.36719,-0.52148 v -6.94727 c -0.16339,-0.39985 -0.35184,-0.79306 -0.56641,-1.17578 l -0.5,-0.9043 -1.20117,-0.21875 c -3.1,-0.57032 -6.69883,-2.4277 -8.79883,-4.51172 -0.55,-0.55839 -0.85078,-0.84252 -1.05078,-0.875 z m -133.486326,0.0508 c -0.0516,-0.0516 -0.464416,0.26781 -0.916016,0.71485 -2.311,2.29294 -6.202656,4.26509 -9.347656,4.73437 l -1.089844,0.16407 -0.675781,1.36914 c -1.4245,2.89407 -1.527803,5.78837 -0.283203,7.88086 0.5389,0.90523 0.9138,1.05759 2.6875,1.09179 1.7241,0.033 3.307609,-0.49316 5.224609,-1.74023 v -0.002 c 0.6155,-0.40105 1.376244,-1.22203 2.152344,-2.33203 1.768,-2.52646 2.748047,-5.40861 2.748047,-8.17187 0.0047,-1.37297 -0.2793,-3.48689 -0.5,-3.70899 z m 40.037106,0 c -0.1,-0.0516 -0.5,0.26781 -1,0.71485 -2.3,2.29294 -6.20078,4.26509 -9.300778,4.73437 l -1.09961,0.16407 -0.699218,1.36914 c -1.4,2.89407 -1.501172,5.78837 -0.201172,7.88086 0.5,0.90523 0.899609,1.05759 2.599609,1.09179 1.799999,0.033 3.300779,-0.49315 5.300779,-1.74023 v -0.002 c 0.6,-0.40105 1.29961,-1.22202 2.09961,-2.33203 1.8,-2.52645 2.80078,-5.40861 2.80078,-8.17187 0,-1.37297 -0.3,-3.48689 -0.5,-3.70899 z m 40,0 c -0.1,-0.0516 -0.5,0.26781 -1,0.71485 -2.3,2.29294 -6.20078,4.26509 -9.30078,4.73437 l -1.09961,0.16407 -0.69922,1.36914 c -1.4,2.89407 -1.50117,5.78837 -0.20117,7.88086 0.5,0.90523 0.89961,1.05759 2.59961,1.09179 1.8,0.033 3.30078,-0.49316 5.30078,-1.74023 v -0.002 c 0.6,-0.40105 1.29961,-1.22203 2.09961,-2.33203 1.8,-2.52646 2.80078,-5.40861 2.80078,-8.17187 0,-1.37297 -0.3,-3.48689 -0.5,-3.70899 z m 40,0 c -0.1,-0.0516 -0.5,0.26781 -1,0.71485 -2.3,2.29294 -6.20078,4.26509 -9.30078,4.73437 l -1.09961,0.16407 -0.69922,1.36914 c -1.4,2.89407 -1.50117,5.78837 -0.20117,7.88086 0.5,0.90523 0.89961,1.05759 2.59961,1.09179 1.8,0.033 3.30078,-0.49315 5.30078,-1.74023 v -0.002 c 0.6,-0.40105 1.29961,-1.22202 2.09961,-2.33203 1.8,-2.52645 2.80078,-5.40861 2.80078,-8.17187 0,-1.37297 -0.3,-3.48689 -0.5,-3.70899 z M 53.375,161.22265 v 10.12695 c 0.298064,-0.10697 0.500303,-0.2612 0.748047,-0.56836 1.5216,-1.88208 1.432369,-5.61229 -0.207031,-8.64453 l -0.490235,-0.9043 -0.05078,-0.01 z m 28.601562,8.13281 -0.199218,1.21094 c -0.3,1.52778 -0.200782,4.29958 0.199218,5.82421 0.7,3.06875 2.99961,6.44271 5.09961,7.72071 1.9,1.09856 4.20039,1.58459 5.90039,1.21679 2.400001,-0.53918 2.900391,-5.57403 0.900391,-9.32421 l -0.5,-0.87305 -1.701172,-0.34961 c -1,-0.19211 -2.399219,-0.64021 -3.199219,-0.99609 -1.599999,-0.72794 -3.900781,-2.19188 -4.800781,-3.0586 -0.3,-0.31621 -0.799609,-0.75555 -1.099609,-0.97461 z m 39.999998,0 -0.19922,1.21094 c -0.3,1.52777 -0.20078,4.29958 0.19922,5.82421 0.7,3.06875 2.99961,6.4427 5.09961,7.72071 1.9,1.09855 4.20039,1.5846 5.90039,1.21679 2.4,-0.53918 2.90039,-5.57402 0.90039,-9.32421 l -0.5,-0.87305 -1.70117,-0.34961 c -1,-0.19211 -2.39922,-0.6402 -3.19922,-0.99609 -1.6,-0.72793 -3.90078,-2.19189 -4.80078,-3.0586 -0.3,-0.31621 -0.79961,-0.75554 -1.09961,-0.97461 z m 40,0 -0.19922,1.21094 c -0.3,1.52778 -0.20078,4.29958 0.19922,5.82421 0.7,3.06875 2.99961,6.44271 5.09961,7.72071 1.9,1.09856 4.20039,1.58459 5.90039,1.21679 2.4,-0.53918 2.90039,-5.57403 0.90039,-9.32421 l -0.5,-0.87305 -1.70117,-0.34961 c -1,-0.19211 -2.39922,-0.64021 -3.19922,-0.99609 -1.6,-0.72794 -3.90078,-2.19188 -4.80078,-3.0586 -0.3,-0.31621 -0.79961,-0.75555 -1.09961,-0.97461 z m 40,0 -0.19922,1.21094 c -0.3,1.52777 -0.20078,4.29958 0.19922,5.82421 0.7,3.06875 2.99961,6.4427 5.09961,7.72071 1.9,1.09855 4.20039,1.5846 5.90039,1.21679 0.62043,-0.13938 1.11068,-0.58219 1.4668,-1.22265 v -6.81641 c -0.16086,-0.43841 -0.3452,-0.87036 -0.56641,-1.28515 l -0.5,-0.87305 -1.70117,-0.34961 c -1,-0.19211 -2.39922,-0.6402 -3.19922,-0.99609 -1.6,-0.72793 -3.90078,-2.19189 -4.80078,-3.0586 -0.3,-0.31621 -0.79961,-0.75554 -1.09961,-0.97461 z m -133.273435,0.36719 c -0.19985,-0.077 -0.50835,0.18512 -1.0625,0.73437 -2.25,2.22007 -6.319456,4.22063 -9.285156,4.5625 l -0.857422,0.0977 -0.523438,0.94336 c -1.4691,2.64832 -1.769262,5.61301 -0.789062,7.79492 0.2646,0.5746 0.614494,1.0837 0.871094,1.25586 1.387203,0.93232 4.964118,0.33545 7.125,-1.19531 0,0 0.002,-0.002 0.002,-0.002 2.072715,-1.4669 4.180123,-4.93674 4.816406,-7.92968 0.3477,-1.63453 0.380981,-3.14665 0.113281,-4.96094 -0.11915,-0.80708 -0.210306,-1.2238 -0.410156,-1.30078 z m 40.011715,0 c -0.1875,-0.077 -0.48906,0.18512 -1.03906,0.73437 -2.3,2.22006 -6.39883,4.22063 -9.298827,4.5625 l -0.900391,0.0977 -0.5,0.94336 c -1.5,2.64832 -1.800781,5.61496 -0.800781,7.79687 0.3,0.57459 0.600391,1.08174 0.900391,1.25391 1.4,0.93312 4.899608,0.33644 7.099608,-1.19727 v 0.002 c 2.1,-1.46603 4.20078,-4.93768 4.80078,-7.93164 0.4,-1.63453 0.39961,-3.14664 0.0996,-4.96094 -0.1,-0.80708 -0.17383,-1.2238 -0.36133,-1.30078 z m 40,0 c -0.1875,-0.077 -0.48906,0.18512 -1.03906,0.73437 -2.3,2.22007 -6.39883,4.22063 -9.29883,4.5625 l -0.90039,0.0977 -0.5,0.94336 c -1.5,2.64832 -1.80078,5.61496 -0.80078,7.79687 0.3,0.5746 0.60039,1.08175 0.90039,1.25391 1.4,0.93313 4.89961,0.33643 7.09961,-1.19727 v 0.002 c 2.1,-1.46603 4.20078,-4.93768 4.80078,-7.93164 0.4,-1.63453 0.39961,-3.14665 0.0996,-4.96094 -0.1,-0.80708 -0.17383,-1.2238 -0.36133,-1.30078 z m 40,0 c -0.1875,-0.077 -0.48906,0.18512 -1.03906,0.73437 -2.3,2.22006 -6.39883,4.22063 -9.29883,4.5625 l -0.90039,0.0977 -0.5,0.94336 c -1.5,2.64832 -1.80078,5.61496 -0.80078,7.79687 0.3,0.57459 0.60039,1.08174 0.90039,1.25391 1.4,0.93312 4.89961,0.33644 7.09961,-1.19727 v 0.002 c 2.1,-1.46603 4.20078,-4.93768 4.80078,-7.93164 0.4,-1.63453 0.39961,-3.14664 0.0996,-4.96094 -0.1,-0.80708 -0.17383,-1.2238 -0.36133,-1.30078 z M 53.375,175.125 v 10.05859 c 2.084886,-0.99042 2.41153,-5.65227 0.503906,-9.17968 l -0.472656,-0.87305 z m 28.601562,8.27344 c -0.2,0.23109 -0.50039,2.82192 -0.40039,4.36914 0.1,3.00997 1.70039,6.67134 3.90039,8.91406 2,1.98737 4.6,2.98832 7,2.61914 1.1,-0.17641 1.800782,-0.83921 2.300782,-2.17383 0.6,-1.90269 0.398437,-4.27536 -0.601563,-6.54883 -0.7,-1.46343 -0.899609,-1.59138 -2.099609,-1.80078 -3,-0.50272 -5.898828,-1.99276 -8.798828,-4.44336 -0.6,-0.57037 -1.200782,-0.98054 -1.300782,-0.93554 z m 39.999998,0 c -0.2,0.2311 -0.50039,2.82191 -0.40039,4.36914 0.1,3.00997 1.70039,6.67134 3.90039,8.91406 2,1.98737 4.6,2.98833 7,2.61914 1.1,-0.17641 1.80078,-0.83922 2.30078,-2.17383 0.6,-1.9027 0.39844,-4.27537 -0.60156,-6.54883 -0.7,-1.46343 -0.89961,-1.59137 -2.09961,-1.80078 -3,-0.50272 -5.89883,-1.99275 -8.79883,-4.44336 -0.6,-0.57037 -1.20078,-0.98054 -1.30078,-0.93554 z m 40,0 c -0.2,0.23109 -0.50039,2.82192 -0.40039,4.36914 0.1,3.00997 1.70039,6.67134 3.90039,8.91406 2,1.98737 4.6,2.98832 7,2.61914 1.1,-0.17641 1.80078,-0.83921 2.30078,-2.17383 0.6,-1.90269 0.39844,-4.27536 -0.60156,-6.54883 -0.7,-1.46343 -0.89961,-1.59138 -2.09961,-1.80078 -3,-0.50272 -5.89883,-1.99276 -8.79883,-4.44336 -0.6,-0.57037 -1.20078,-0.98054 -1.30078,-0.93554 z m 40,0 c -0.2,0.2311 -0.50039,2.82191 -0.40039,4.36914 0.1,3.00997 1.70039,6.67134 3.90039,8.91406 2,1.98737 4.6,2.98833 7,2.61914 0.87946,-0.14104 1.4965,-0.61276 1.9668,-1.4707 v -6.57227 c -0.0834,-0.22662 -0.1685,-0.45444 -0.26758,-0.67969 -0.7,-1.46343 -0.89961,-1.59137 -2.09961,-1.80078 -3,-0.50272 -5.89883,-1.99275 -8.79883,-4.44336 -0.6,-0.57037 -1.20078,-0.98054 -1.30078,-0.93554 z m -133.212888,0.0371 -0.660156,0.5 c -0.3637,0.27577 -0.875007,0.70432 -1.128907,0.95898 -1.5916,1.56783 -5.381743,3.41205 -8.027343,3.9082 l -1.589844,0.29883 -0.544922,1.06641 c -1.3268,2.59844 -1.593581,4.77419 -0.863281,7.04687 0.5902,1.83753 1.239431,2.25656 3.394531,2.19336 1.3745,-0.0403 2.791378,-0.44285 4.080078,-1.15625 v -0.002 c 0.6015,-0.32369 1.243503,-0.8891 2.095703,-1.80664 3.0739,-3.31004 4.430897,-8.2412 3.404297,-12.36719 l -0.160156,-0.64062 z m 40.013668,0 -0.70117,0.5 c -0.3,0.27576 -0.79961,0.70432 -1.09961,0.95898 -1.6,1.56784 -5.4,3.41204 -7.999998,3.9082 l -1.599609,0.29883 -0.599609,1.06641 c -1.3,2.59843 -1.600781,4.77419 -0.800782,7.04687 0.600001,1.83753 1.200391,2.25656 3.400391,2.19336 1.299997,-0.0403 2.799997,-0.44286 3.999997,-1.15625 v -0.002 c 0.6,-0.32368 1.29961,-0.88911 2.09961,-1.80664 3.1,-3.31004 4.50039,-8.24119 3.40039,-12.36719 l -0.0996,-0.64062 z m 40,0 -0.70117,0.5 c -0.3,0.27577 -0.79961,0.70432 -1.09961,0.95898 -1.6,1.56783 -5.4,3.41205 -8,3.9082 l -1.59961,0.29883 -0.59961,1.06641 c -1.3,2.59844 -1.60078,4.77419 -0.80078,7.04687 0.6,1.83753 1.20039,2.25656 3.40039,2.19336 1.3,-0.0403 2.8,-0.44285 4,-1.15625 v -0.002 c 0.6,-0.32369 1.29961,-0.8891 2.09961,-1.80664 3.1,-3.31004 4.50039,-8.2412 3.40039,-12.36719 l -0.0996,-0.64062 z m 40,0 -0.70117,0.5 c -0.3,0.27576 -0.79961,0.70432 -1.09961,0.95898 -1.6,1.56784 -5.4,3.41204 -8,3.9082 l -1.59961,0.29883 -0.59961,1.06641 c -1.3,2.59843 -1.60078,4.77419 -0.80078,7.04687 0.6,1.83753 1.20039,2.25656 3.40039,2.19336 1.3,-0.0403 2.8,-0.44286 4,-1.15625 v -0.002 c 0.6,-0.32368 1.29961,-0.88911 2.09961,-1.80664 3.1,-3.31004 4.50039,-8.24119 3.40039,-12.36719 l -0.0996,-0.64062 z M 53.375,189.2832 v 9.72461 c 0.627076,-0.33845 1.072048,-0.93999 1.390625,-1.88086 0.6459,-1.9027 0.414981,-4.27537 -0.636719,-6.54883 C 53.81969,189.91 53.617351,189.52936 53.375,189.2832 Z m 28.501953,7.9668 c -0.2,0.21727 -0.400391,2.85665 -0.400391,4.35352 0.1,4.02694 2.800391,8.77001 5.900391,10.52148 1.8,0.96996 4.298828,1.36758 5.798828,0.90625 0.6,-0.20072 1,-0.67695 1.5,-1.8418 0.8,-2.11621 0.4,-5.1975 -1,-7.5332 -0.5,-0.75106 -0.498437,-0.75601 -1.898437,-1.06055 -3,-0.61573 -5.401563,-1.78412 -8.101563,-4.06836 -0.9,-0.75139 -1.698828,-1.31514 -1.798828,-1.27734 z m 39.999997,0 c -0.2,0.21727 -0.40039,2.85665 -0.40039,4.35352 0.1,4.02695 2.80039,8.77001 5.90039,10.52148 1.8,0.96995 4.29883,1.36759 5.79883,0.90625 0.6,-0.20072 1,-0.67696 1.5,-1.8418 0.8,-2.11622 0.4,-5.1975 -1,-7.5332 -0.5,-0.75106 -0.49844,-0.75601 -1.89844,-1.06055 -3,-0.61573 -5.40156,-1.78412 -8.10156,-4.06836 -0.9,-0.75139 -1.69883,-1.31514 -1.79883,-1.27734 z m 40,0 c -0.2,0.21727 -0.40039,2.85665 -0.40039,4.35352 0.1,4.02694 2.80039,8.77001 5.90039,10.52148 1.8,0.96996 4.29883,1.36758 5.79883,0.90625 0.6,-0.20072 1,-0.67695 1.5,-1.8418 0.8,-2.11621 0.4,-5.1975 -1,-7.5332 -0.5,-0.75106 -0.49844,-0.75601 -1.89844,-1.06055 -3,-0.61573 -5.40156,-1.78412 -8.10156,-4.06836 -0.9,-0.75139 -1.69883,-1.31514 -1.79883,-1.27734 z m 40,0 c -0.2,0.21727 -0.40039,2.85665 -0.40039,4.35352 0.1,4.02695 2.80039,8.77001 5.90039,10.52148 1.8,0.96995 4.29883,1.36759 5.79883,0.90625 0.50299,-0.16827 0.86896,-0.55672 1.26758,-1.35547 v -6.38476 c -0.20902,-0.56756 -0.45973,-1.12116 -0.76758,-1.63477 -0.5,-0.75106 -0.49844,-0.75601 -1.89844,-1.06055 -3,-0.61573 -5.40156,-1.78412 -8.10156,-4.06836 -0.9,-0.75139 -1.69883,-1.31514 -1.79883,-1.27734 z m -133.162106,0.0371 -1.640625,1.33594 c -0.9028,0.73414 -2.221194,1.67789 -2.933594,2.09179 -1.508,0.88035 -4.2789,1.87296 -5.75,2.0625 l -1.029297,0.13282 -0.609375,1.17187 c -0.7344,1.40918 -1.013109,2.23213 -1.162109,3.4375 -0.2615,2.10472 0.09931,3.83802 1.037109,4.98047 0.4629,0.56394 0.651994,0.65977 1.558594,0.7832 1.3522,0.18383 3.191694,-0.1622 4.621094,-0.86914 3.8951,-1.92366 6.79119,-7.68397 6.33789,-12.60742 -0.0635,-0.6894 -0.190437,-1.53635 -0.273437,-1.88672 z m 39.960936,0 -1.59961,1.33594 c -0.9,0.73415 -2.20039,1.67788 -2.90039,2.09179 -1.5,0.88034 -4.298827,1.87295 -5.798827,2.0625 l -1,0.13282 -0.599609,1.17187 c -0.8,1.40918 -1.001172,2.23214 -1.201172,3.4375 -0.2,2.10473 0.09961,3.83803 1.099609,4.98047 0.4,0.56394 0.6,0.65976 1.5,0.7832 1.4,0.18382 3.201559,-0.16221 4.601559,-0.86914 3.9,-1.92366 6.79844,-7.68396 6.39844,-12.60742 -0.1,-0.68939 -0.19883,-1.53636 -0.29883,-1.88672 z m 40,0 -1.59961,1.33594 c -0.9,0.73414 -2.20039,1.67789 -2.90039,2.09179 -1.5,0.88035 -4.29883,1.87296 -5.79883,2.0625 l -1,0.13282 -0.59961,1.17187 c -0.8,1.40918 -1.00117,2.23213 -1.20117,3.4375 -0.2,2.10473 0.0996,3.83802 1.09961,4.98047 0.4,0.56394 0.6,0.65977 1.5,0.7832 1.4,0.18383 3.20156,-0.1622 4.60156,-0.86914 3.9,-1.92367 6.79844,-7.68397 6.39844,-12.60742 -0.1,-0.6894 -0.19883,-1.53635 -0.29883,-1.88672 z m 40,0 -1.59961,1.33594 c -0.9,0.73415 -2.20039,1.67788 -2.90039,2.09179 -1.5,0.88034 -4.29883,1.87295 -5.79883,2.0625 l -1,0.13282 -0.59961,1.17187 c -0.8,1.40918 -1.00117,2.23214 -1.20117,3.4375 -0.2,2.10473 0.0996,3.83803 1.09961,4.98047 0.4,0.56394 0.6,0.65976 1.5,0.7832 1.4,0.18382 3.20156,-0.16221 4.60156,-0.86914 3.9,-1.92366 6.79844,-7.68396 6.39844,-12.60742 -0.1,-0.68939 -0.19883,-1.53636 -0.29883,-1.88672 z M 53.375,203.20507 v 9.71289 c 0.506207,-0.24424 0.858319,-0.72043 1.253906,-1.72852 0.8297,-2.11622 0.436569,-5.1975 -0.957031,-7.5332 -0.117208,-0.19636 -0.205733,-0.33821 -0.296875,-0.45117 z m 1.888672,11.4668 c -0.141586,0.0638 -0.397725,0.53962 -0.984375,1.73632 L 53.375,218.26561 v 98.92969 c 0,4.46281 1.467729,8.43687 3.779297,11.08203 l 0.06641,-92.54882 c 0.0618,-15.06777 0.02176,-17.44965 -0.306641,-18.00977 -0.206899,-0.35593 -0.605818,-1.10793 -0.886718,-1.67187 -0.2806,-0.56385 -0.575344,-1.15337 -0.652344,-1.3125 -0.02958,-0.0584 -0.06413,-0.0838 -0.111328,-0.0625 z m 40.011719,0 c -0.135938,0.0638 -0.398047,0.53962 -0.998047,1.73632 l -1,1.95703 v 17.34961 l -0.0957,95.92188 h 3.99414 v -95.9082 c 0.1,-15.06778 0.101172,-17.44964 -0.298828,-18.00977 -0.2,-0.35592 -0.600781,-1.10793 -0.800781,-1.67187 -0.3,-0.56385 -0.599219,-1.15337 -0.699219,-1.3125 -0.025,-0.0584 -0.05625,-0.0838 -0.101562,-0.0625 z m 39.999999,0 c -0.13594,0.0638 -0.39805,0.53962 -0.99805,1.73632 l -1,1.95703 v 17.34961 l -0.0957,95.92188 h 3.99414 v -95.9082 c 0.1,-15.06777 0.10117,-17.44964 -0.29883,-18.00977 -0.2,-0.35592 -0.60078,-1.10793 -0.80078,-1.67187 -0.3,-0.56385 -0.59922,-1.15337 -0.69922,-1.3125 -0.025,-0.0584 -0.0563,-0.0838 -0.10156,-0.0625 z m 40,0 c -0.13594,0.0638 -0.39805,0.53962 -0.99805,1.73632 l -1,1.95703 v 17.34961 l -0.0957,95.92188 h 3.99414 v -95.9082 c 0.1,-15.06778 0.10117,-17.44964 -0.29883,-18.00977 -0.2,-0.35592 -0.60078,-1.10793 -0.80078,-1.67187 -0.3,-0.56385 -0.59922,-1.15337 -0.69922,-1.3125 -0.025,-0.0584 -0.0563,-0.0838 -0.10156,-0.0625 z m 39.16797,1.42578 c -0.0696,0.13679 -0.0844,0.14783 -0.16602,0.31054 l -1,1.95703 v 17.34961 l -0.0879,88.32618 c 0.79938,-2.03547 1.25391,-4.36478 1.25391,-6.84571 V 216.09765 Z M 64.744141,227.40039 c -0.05057,0.005 -0.09189,0.0218 -0.123047,0.0527 -0.4666,0.47303 -1.366263,2.64589 -1.726563,4.16407 -1.5219,6.41768 1.557435,11.57865 7.552735,12.6582 1.2082,0.21705 2.055953,0.18967 2.814453,-0.0918 l 0.0098,-0.008 c 0.434,-0.16146 0.575332,-0.33692 1.019532,-1.21484 0.729,-1.46282 0.71499,-3.37233 -0.03711,-5.14649 -0.3041,-0.69414 -0.384787,-0.77954 -1.179687,-1.18945 -1.6526,-0.85419 -3.166072,-2.69446 -4.138672,-5.03711 -0.631688,-1.51656 -3.432854,-4.2587 -4.191406,-4.1875 z m 39.957029,0 c -0.0511,0.005 -0.0937,0.0218 -0.125,0.0527 -0.4,0.47303 -1.29922,2.64589 -1.69922,4.16407 -1.5,6.41768 1.59961,11.57865 7.59961,12.6582 1.2,0.21705 2.00078,0.18967 2.80078,-0.0918 v -0.008 c 0.4,-0.16146 0.6,-0.33692 1,-1.21484 0.7,-1.46282 0.7,-3.37233 0,-5.14649 -0.3,-0.69414 -0.40117,-0.77954 -1.20117,-1.18945 -1.7,-0.85419 -3.19961,-2.69446 -4.09961,-5.03711 -0.65625,-1.51656 -3.50927,-4.2587 -4.27539,-4.1875 z m 40,0 c -0.0511,0.005 -0.0937,0.0218 -0.125,0.0527 -0.4,0.47303 -1.29922,2.64589 -1.69922,4.16407 -1.5,6.41768 1.59961,11.57865 7.59961,12.6582 1.2,0.21705 2.00078,0.18967 2.80078,-0.0918 v -0.008 c 0.4,-0.16146 0.6,-0.33692 1,-1.21484 0.7,-1.46282 0.7,-3.37233 0,-5.14649 -0.3,-0.69414 -0.40117,-0.77954 -1.20117,-1.18945 -1.7,-0.85419 -3.19961,-2.69446 -4.09961,-5.03711 -0.65625,-1.51656 -3.50927,-4.2587 -4.27539,-4.1875 z m 40,0 c -0.0511,0.005 -0.0937,0.0218 -0.125,0.0527 -0.4,0.47303 -1.29922,2.64589 -1.69922,4.16407 -1.5,6.41768 1.59961,11.57865 7.59961,12.6582 1.2,0.21705 2.00078,0.18967 2.80078,-0.0918 v -0.008 c 0.4,-0.16146 0.6,-0.33692 1,-1.21484 0.7,-1.46282 0.7,-3.37233 0,-5.14649 -0.3,-0.69414 -0.40117,-0.77954 -1.20117,-1.18945 -1.7,-0.85419 -3.19961,-2.69446 -4.09961,-5.03711 -0.65625,-1.51656 -3.50927,-4.2587 -4.27539,-4.1875 z m -98.449217,0.0781 c -0.313832,0.0246 -0.829391,0.45891 -2.048828,1.54296 -1.4044,1.23565 -1.471441,1.34015 -2.056641,2.68555 -1.1036,2.53903 -2.402912,4.08436 -4.132812,4.91797 l -0.949219,0.45703 -0.4375,1.22266 c -0.7491,2.09034 -0.448903,4.44482 0.716797,5.61914 1.1395,1.14877 5.246034,0.36268 7.615234,-1.45703 0.4848,-0.36019 0.966491,-0.80092 1.087891,-0.96094 0.1209,-0.16063 0.519159,-0.65696 0.880859,-1.10742 0.9069,-1.11922 1.564719,-3.16902 1.636719,-5.10742 0.0897,-2.40083 -0.757622,-5.80349 -1.857422,-7.46485 -0.151462,-0.2288 -0.266779,-0.36244 -0.455078,-0.34765 z m 39.984377,0 c -0.30274,0.0246 -0.81055,0.45891 -2.06055,1.54296 -1.4,1.23565 -1.4,1.34015 -2,2.68555 -1.1,2.53903 -2.39922,4.08436 -4.19922,4.91797 l -0.90039,0.45703 -0.5,1.22266 c -0.7,2.09034 -0.39922,4.44482 0.80078,5.61914 1.1,1.14877 5.19961,0.36268 7.59961,-1.45703 0.5,-0.36019 0.89961,-0.80092 1.09961,-0.96094 0.1,-0.16063 0.50039,-0.65696 0.90039,-1.10742 0.9,-1.11922 1.49961,-3.16902 1.59961,-5.10742 0.1,-2.40083 -0.80039,-5.80349 -1.90039,-7.46485 -0.15,-0.2288 -0.25781,-0.36244 -0.43945,-0.34765 z m 40,0 c -0.30274,0.0246 -0.81055,0.45891 -2.06055,1.54296 -1.4,1.23565 -1.4,1.34015 -2,2.68555 -1.1,2.53903 -2.39922,4.08436 -4.19922,4.91797 l -0.90039,0.45898 -0.5,1.22071 c -0.7,2.09034 -0.39922,4.44482 0.80078,5.61914 1.1,1.14877 5.19961,0.36268 7.59961,-1.45703 0.5,-0.36019 0.89961,-0.80092 1.09961,-0.96094 0.1,-0.16063 0.50039,-0.65696 0.90039,-1.10742 0.9,-1.11922 1.49961,-3.16902 1.59961,-5.10742 0.1,-2.40083 -0.80039,-5.80349 -1.90039,-7.46485 -0.15,-0.2288 -0.25781,-0.36244 -0.43945,-0.34765 z m 40,0 c -0.30274,0.0246 -0.81055,0.45891 -2.06055,1.54296 -1.4,1.23565 -1.4,1.34015 -2,2.68555 -1.1,2.53903 -2.39922,4.08436 -4.19922,4.91797 l -0.90039,0.45703 -0.5,1.22266 c -0.7,2.09034 -0.39922,4.44482 0.80078,5.61914 1.1,1.14877 5.19961,0.36268 7.59961,-1.45703 0.5,-0.36019 0.89961,-0.80092 1.09961,-0.96094 0.1,-0.16063 0.50039,-0.65696 0.90039,-1.10742 0.9,-1.11922 1.49961,-3.16902 1.59961,-5.10742 0.1,-2.40083 -0.80039,-5.80349 -1.90039,-7.46485 -0.15,-0.2288 -0.25781,-0.36244 -0.43945,-0.34765 z M 62.308594,243.62695 c -0.199163,-0.0325 -0.289553,0.18593 -0.408203,0.63477 -0.3353,1.28176 -0.319697,4.31267 0.0332,5.85937 0.5524,2.46686 2.03869,5.2761 3.58789,6.83789 0.7957,0.80174 2.462144,1.84392 3.527344,2.20508 1.0658,0.36206 2.61736,0.50484 3.69336,0.33985 h 0.002 c 0.7447,-0.12085 0.990406,-0.24099 1.378906,-0.72266 1.5216,-1.88208 1.432369,-5.61229 -0.207031,-8.64453 l -0.490235,-0.9043 -1.207031,-0.21875 c -3.1395,-0.57032 -6.779856,-2.4277 -8.847656,-4.51172 -0.5539,-0.55839 -0.863338,-0.84252 -1.0625,-0.875 z m 40.017576,0 c -0.2,-0.0325 -0.29922,0.18593 -0.44922,0.63477 -0.3,1.28176 -0.30039,4.31267 0.0996,5.85937 0.5,2.46686 2,5.27609 3.5,6.83789 0.8,0.80174 2.49961,1.84393 3.59961,2.20508 1,0.36207 2.60117,0.50484 3.70117,0.33985 0.7,-0.12084 0.99883,-0.24099 1.29883,-0.72266 1.6,-1.88209 1.50078,-5.61229 -0.19922,-8.64453 l -0.5,-0.9043 -1.20117,-0.21875 c -3.1,-0.57032 -6.69883,-2.4277 -8.79883,-4.51172 -0.55,-0.55839 -0.85078,-0.84252 -1.05078,-0.875 z m 40,0 c -0.2,-0.0325 -0.29922,0.18593 -0.44922,0.63477 -0.3,1.28176 -0.30039,4.31267 0.0996,5.85937 0.5,2.46686 2,5.2761 3.5,6.83789 0.8,0.80174 2.49961,1.84392 3.59961,2.20508 1,0.36206 2.60117,0.50484 3.70117,0.33985 0.7,-0.12085 0.99883,-0.24099 1.29883,-0.72266 1.6,-1.88208 1.50078,-5.61229 -0.19922,-8.64453 l -0.5,-0.9043 -1.20117,-0.21875 c -3.1,-0.57032 -6.69883,-2.4277 -8.79883,-4.51172 -0.55,-0.55839 -0.85078,-0.84252 -1.05078,-0.875 z m 40,0 c -0.2,-0.0325 -0.29922,0.18593 -0.44922,0.63477 -0.3,1.28176 -0.30039,4.31267 0.0996,5.85937 0.5,2.46686 2,5.27609 3.5,6.83789 0.8,0.80174 2.49961,1.84393 3.59961,2.20508 1,0.36207 2.60117,0.50484 3.70117,0.33985 0.7,-0.12084 0.99883,-0.24099 1.29883,-0.72266 1.6,-1.88209 1.50078,-5.61229 -0.19922,-8.64453 l -0.5,-0.9043 -1.20117,-0.21875 c -3.1,-0.57032 -6.69883,-2.4277 -8.79883,-4.51172 -0.55,-0.55839 -0.85078,-0.84252 -1.05078,-0.875 z m -93.486326,0.0508 c -0.0516,-0.0516 -0.464416,0.26781 -0.916016,0.71485 -2.311,2.29294 -6.202656,4.26509 -9.347656,4.73437 l -1.089844,0.16407 -0.675781,1.36914 c -1.4245,2.89407 -1.527803,5.78837 -0.283203,7.88086 0.5389,0.90523 0.9138,1.05759 2.6875,1.09179 1.7241,0.033 3.307609,-0.49316 5.224609,-1.74023 v -0.002 c 0.6155,-0.40105 1.376244,-1.22203 2.152344,-2.33203 1.768,-2.52646 2.748047,-5.40861 2.748047,-8.17187 0.0047,-1.37297 -0.2793,-3.48689 -0.5,-3.70899 z m 40.037106,0 c -0.1,-0.0516 -0.5,0.26781 -1,0.71485 -2.3,2.29294 -6.20078,4.26509 -9.30078,4.73437 l -1.09961,0.16407 -0.69922,1.36914 c -1.4,2.89407 -1.50117,5.78837 -0.20117,7.88086 0.5,0.90523 0.89961,1.05759 2.59961,1.09179 1.8,0.033 3.30078,-0.49315 5.30078,-1.74023 v -0.002 c 0.6,-0.40105 1.29961,-1.22202 2.09961,-2.33203 1.8,-2.52645 2.80078,-5.40861 2.80078,-8.17187 0,-1.37297 -0.3,-3.48689 -0.5,-3.70899 z m 40,0 c -0.1,-0.0516 -0.5,0.26781 -1,0.71485 -2.3,2.29294 -6.20078,4.26509 -9.30078,4.73437 l -1.09961,0.16407 -0.69922,1.36914 c -1.4,2.89407 -1.50117,5.78837 -0.20117,7.88086 0.5,0.90523 0.89961,1.05759 2.59961,1.09179 1.8,0.033 3.30078,-0.49316 5.30078,-1.74023 v -0.002 c 0.6,-0.40105 1.29961,-1.22203 2.09961,-2.33203 1.8,-2.52646 2.80078,-5.40861 2.80078,-8.17187 0,-1.37297 -0.3,-3.48689 -0.5,-3.70899 z m 40,0 c -0.1,-0.0516 -0.5,0.26781 -1,0.71485 -2.3,2.29294 -6.20078,4.26509 -9.30078,4.73437 l -1.09961,0.16407 -0.69922,1.36914 c -1.4,2.89407 -1.50117,5.78837 -0.20117,7.88086 0.5,0.90523 0.89961,1.05759 2.59961,1.09179 1.8,0.033 3.30078,-0.49315 5.30078,-1.74023 v -0.002 c 0.6,-0.40105 1.29961,-1.22202 2.09961,-2.33203 1.8,-2.52645 2.80078,-5.40861 2.80078,-8.17187 0,-1.37297 -0.3,-3.48689 -0.5,-3.70899 z m -146.853512,13.67774 -0.238282,1.21094 c -0.2983,1.52777 -0.221944,4.29958 0.160156,5.82421 0.7711,3.06875 3.030629,6.4427 5.173829,7.72071 1.8422,1.09855 4.172343,1.5846 5.839843,1.21679 h 0.002 c 2.450799,-0.53918 2.946068,-5.57402 0.917968,-9.32421 l -0.472656,-0.87305 -1.730469,-0.34961 c -0.951,-0.19211 -2.379828,-0.6402 -3.173828,-0.99609 -1.6301,-0.72793 -3.938528,-2.19189 -4.798828,-3.0586 -0.3178,-0.31621 -0.825606,-0.75554 -1.128906,-0.97461 l -0.550781,-0.39648 z m 39.953122,0 -0.19922,1.21094 c -0.3,1.52778 -0.20078,4.29958 0.19922,5.82421 0.7,3.06875 2.99961,6.44271 5.09961,7.72071 1.9,1.09856 4.20039,1.58459 5.90039,1.21679 2.4,-0.53918 2.90039,-5.57403 0.90039,-9.32421 l -0.5,-0.87305 -1.70117,-0.34961 c -1,-0.19211 -2.39922,-0.64021 -3.19922,-0.99609 -1.6,-0.72794 -3.90078,-2.19188 -4.80078,-3.0586 -0.3,-0.31621 -0.79961,-0.75555 -1.09961,-0.97461 z m 40,0 -0.19922,1.21094 c -0.3,1.52777 -0.20078,4.29958 0.19922,5.82421 0.7,3.06875 2.99961,6.4427 5.09961,7.72071 1.9,1.09855 4.20039,1.5846 5.90039,1.21679 2.4,-0.53918 2.90039,-5.57402 0.90039,-9.32421 l -0.5,-0.87305 -1.70117,-0.34961 c -1,-0.19211 -2.39922,-0.6402 -3.19922,-0.99609 -1.6,-0.72794 -3.90078,-2.19189 -4.80078,-3.0586 -0.3,-0.31621 -0.79961,-0.75554 -1.09961,-0.97461 z m 40,0 -0.19922,1.21094 c -0.3,1.52778 -0.20078,4.29958 0.19922,5.82421 0.7,3.06875 2.99961,6.44271 5.09961,7.72071 1.9,1.09856 4.20039,1.58459 5.90039,1.21679 2.4,-0.53918 2.90039,-5.57403 0.90039,-9.32421 l -0.5,-0.87305 -1.70117,-0.34961 c -1,-0.19211 -2.39922,-0.64021 -3.19922,-0.99609 -1.6,-0.72794 -3.90078,-2.19188 -4.80078,-3.0586 -0.3,-0.31621 -0.79961,-0.75555 -1.09961,-0.97461 z m -93.273435,0.36719 c -0.19985,-0.077 -0.50835,0.18512 -1.0625,0.73437 -2.25,2.22007 -6.319456,4.22063 -9.285156,4.5625 l -0.857422,0.0977 -0.523438,0.94336 c -1.4691,2.64832 -1.769262,5.61496 -0.789062,7.79687 0.2646,0.5746 0.614494,1.08175 0.871094,1.25391 1.3884,0.93313 4.970559,0.33643 7.130859,-1.19727 l -0.0059,0.002 c 2.0734,-1.46603 4.181859,-4.93768 4.818359,-7.93164 0.3477,-1.63453 0.380981,-3.14665 0.113281,-4.96094 -0.11915,-0.80708 -0.210306,-1.2238 -0.410156,-1.30078 z m 40.011715,0 c -0.1875,-0.077 -0.48906,0.18512 -1.03906,0.73437 -2.3,2.22006 -6.39883,4.22063 -9.29883,4.5625 l -0.90039,0.0977 -0.5,0.94336 c -1.5,2.64832 -1.80078,5.61496 -0.80078,7.79687 0.3,0.57459 0.60039,1.08174 0.90039,1.25391 1.4,0.93312 4.89961,0.33644 7.09961,-1.19727 v 0.002 c 2.1,-1.46603 4.20078,-4.93768 4.80078,-7.93164 0.4,-1.63453 0.39961,-3.14664 0.0996,-4.96094 -0.1,-0.80708 -0.17383,-1.2238 -0.36133,-1.30078 z m 40,0 c -0.1875,-0.077 -0.48906,0.18512 -1.03906,0.73437 -2.3,2.22007 -6.39883,4.22063 -9.29883,4.5625 l -0.90039,0.0977 -0.5,0.94336 c -1.5,2.64832 -1.80078,5.61497 -0.80078,7.79687 0.3,0.5746 0.60039,1.08175 0.90039,1.25391 1.4,0.93313 4.89961,0.33643 7.09961,-1.19727 v 0.002 c 2.1,-1.46603 4.20078,-4.93768 4.80078,-7.93164 0.4,-1.63453 0.39961,-3.14665 0.0996,-4.96094 -0.1,-0.80708 -0.17383,-1.2238 -0.36133,-1.30078 z m 40,0 c -0.1875,-0.077 -0.48906,0.18512 -1.03906,0.73437 -2.3,2.22006 -6.39883,4.22063 -9.29883,4.5625 l -0.90039,0.0977 -0.5,0.94336 c -1.5,2.64832 -1.80078,5.61496 -0.80078,7.79687 0.3,0.57459 0.60039,1.08174 0.90039,1.25391 1.4,0.93312 4.89961,0.33644 7.09961,-1.19727 v 0.002 c 2.1,-1.46603 4.20078,-4.93768 4.80078,-7.93164 0.4,-1.63453 0.39961,-3.14664 0.0996,-4.96094 -0.1,-0.80708 -0.17383,-1.2238 -0.36133,-1.30078 z M 61.990234,271.39844 c -0.2323,0.2311 -0.500125,2.82191 -0.453125,4.36914 0.0938,3.00997 1.704288,6.67134 3.929688,8.91406 1.9682,1.98737 4.652384,2.98832 7.021484,2.61914 1.1271,-0.17641 1.825444,-0.83922 2.277344,-2.17383 0.6459,-1.9027 0.414981,-4.27537 -0.636719,-6.54883 -0.6773,-1.46343 -0.8237,-1.59137 -2.0625,-1.80078 -2.9767,-0.50272 -5.918078,-1.99275 -8.767578,-4.44336 -0.663,-0.57037 -1.242594,-0.98054 -1.308594,-0.93554 z m 39.986326,0 c -0.2,0.23109 -0.50039,2.82192 -0.40039,4.36914 0.1,3.00997 1.70039,6.67134 3.90039,8.91406 2,1.98737 4.6,2.98832 7,2.61914 1.1,-0.17641 1.80078,-0.83921 2.30078,-2.17383 0.6,-1.90269 0.39844,-4.27536 -0.60156,-6.54883 -0.7,-1.46343 -0.89961,-1.59138 -2.09961,-1.80078 -3,-0.50272 -5.89883,-1.99276 -8.79883,-4.44336 -0.6,-0.57037 -1.20078,-0.98054 -1.30078,-0.93554 z m 40,0 c -0.2,0.2311 -0.50039,2.82191 -0.40039,4.36914 0.1,3.00997 1.70039,6.67134 3.90039,8.91406 2,1.98737 4.6,2.98833 7,2.61914 1.1,-0.17641 1.80078,-0.83922 2.30078,-2.17383 0.6,-1.9027 0.39844,-4.27537 -0.60156,-6.54883 -0.7,-1.46343 -0.89961,-1.59137 -2.09961,-1.80078 -3,-0.50272 -5.89883,-1.99275 -8.79883,-4.44336 -0.6,-0.57037 -1.20078,-0.98054 -1.30078,-0.93554 z m 40,0 c -0.2,0.23109 -0.50039,2.82192 -0.40039,4.36914 0.1,3.00997 1.70039,6.67134 3.90039,8.91406 2,1.98737 4.6,2.98832 7,2.61914 1.1,-0.17641 1.80078,-0.83921 2.30078,-2.17383 0.6,-1.90269 0.39844,-4.27536 -0.60156,-6.54883 -0.7,-1.46343 -0.89961,-1.59138 -2.09961,-1.80078 -3,-0.50272 -5.89883,-1.99276 -8.79883,-4.44336 -0.6,-0.57037 -1.20078,-0.98054 -1.30078,-0.93554 z m -93.212888,0.0371 -0.660156,0.5 c -0.3637,0.27577 -0.875007,0.70432 -1.128907,0.95898 -1.5916,1.56783 -5.381743,3.41205 -8.027343,3.9082 l -1.589844,0.29883 -0.544922,1.06641 c -1.3268,2.59844 -1.593581,4.77419 -0.863281,7.04687 0.5902,1.83753 1.239431,2.25656 3.394531,2.19336 1.3745,-0.0403 2.791378,-0.44285 4.080078,-1.15625 v -0.002 c 0.6015,-0.32369 1.243503,-0.8891 2.095703,-1.80664 3.0739,-3.31004 4.430897,-8.2412 3.404297,-12.36719 l -0.160156,-0.64062 z m 40.013668,0 -0.70117,0.5 c -0.3,0.27576 -0.79961,0.70432 -1.09961,0.95898 -1.6,1.56784 -5.4,3.41204 -8,3.9082 l -1.59961,0.29883 -0.59961,1.06641 c -1.3,2.59843 -1.60078,4.77419 -0.80078,7.04687 0.6,1.83753 1.20039,2.25656 3.40039,2.19336 1.3,-0.0403 2.8,-0.44286 4,-1.15625 v -0.002 c 0.6,-0.32369 1.29961,-0.8891 2.09961,-1.80664 3.1,-3.31004 4.50039,-8.24119 3.40039,-12.36719 l -0.0996,-0.64062 z m 40,0 -0.70117,0.5 c -0.3,0.27577 -0.79961,0.70432 -1.09961,0.95898 -1.6,1.56783 -5.4,3.41205 -8,3.9082 l -1.59961,0.29883 -0.59961,1.06641 c -1.3,2.59844 -1.60078,4.77419 -0.80078,7.04687 0.6,1.83753 1.20039,2.25656 3.40039,2.19336 1.3,-0.0403 2.8,-0.44285 4,-1.15625 v -0.002 c 0.6,-0.32369 1.29961,-0.8891 2.09961,-1.80664 3.1,-3.31004 4.50039,-8.2412 3.40039,-12.36719 l -0.0996,-0.64062 z m 40,0 -0.70117,0.5 c -0.3,0.27576 -0.79961,0.70432 -1.09961,0.95898 -1.6,1.56784 -5.4,3.41204 -8,3.9082 l -1.59961,0.29883 -0.59961,1.06641 c -1.3,2.59843 -1.60078,4.77419 -0.80078,7.04687 0.6,1.83753 1.20039,2.25656 3.40039,2.19336 1.3,-0.0403 2.8,-0.44286 4,-1.15625 v -0.002 c 0.6,-0.32369 1.29961,-0.8891 2.09961,-1.80664 3.1,-3.31004 4.50039,-8.24119 3.40039,-12.36719 l -0.0996,-0.64062 z M 61.919922,285.25 c -0.2194,0.21727 -0.4845,2.85664 -0.4375,4.35352 0.1258,4.02694 2.793669,8.77001 5.917969,10.52148 1.7307,0.96995 4.246128,1.36759 5.736328,0.90625 0.6509,-0.20072 1.035087,-0.67695 1.492187,-1.8418 0.8297,-2.11621 0.436569,-5.1975 -0.957031,-7.5332 -0.4483,-0.75106 -0.4556,-0.75601 -1.9375,-1.06055 -2.9977,-0.61573 -5.317778,-1.78412 -8.080078,-4.06836 -0.9058,-0.75139 -1.679375,-1.31514 -1.734375,-1.27734 z m 39.957028,0 c -0.2,0.21727 -0.40039,2.85665 -0.40039,4.35352 0.1,4.02694 2.80039,8.77001 5.90039,10.52148 1.8,0.96996 4.29883,1.36758 5.79883,0.90625 0.6,-0.20072 1,-0.67695 1.5,-1.8418 0.8,-2.11621 0.4,-5.1975 -1,-7.5332 -0.5,-0.75106 -0.49844,-0.75601 -1.89844,-1.06055 -3,-0.61573 -5.40156,-1.78412 -8.10156,-4.06836 -0.9,-0.75139 -1.69883,-1.31514 -1.79883,-1.27734 z m 40,0 c -0.2,0.21727 -0.40039,2.85664 -0.40039,4.35352 0.1,4.02694 2.80039,8.77001 5.90039,10.52148 1.8,0.96995 4.29883,1.36759 5.79883,0.90625 0.6,-0.20072 1,-0.67695 1.5,-1.8418 0.8,-2.11621 0.4,-5.1975 -1,-7.5332 -0.5,-0.75106 -0.49844,-0.75601 -1.89844,-1.06055 -3,-0.61573 -5.40156,-1.78412 -8.10156,-4.06836 -0.9,-0.75139 -1.69883,-1.31514 -1.79883,-1.27734 z m 40,0 c -0.2,0.21727 -0.40039,2.85665 -0.40039,4.35352 0.1,4.02694 2.80039,8.77001 5.90039,10.52148 1.8,0.96996 4.29883,1.36758 5.79883,0.90625 0.6,-0.20072 1,-0.67695 1.5,-1.8418 0.8,-2.11621 0.4,-5.1975 -1,-7.5332 -0.5,-0.75106 -0.49844,-0.75601 -1.89844,-1.06055 -3,-0.61573 -5.40156,-1.78412 -8.10156,-4.06836 -0.9,-0.75139 -1.69883,-1.31514 -1.79883,-1.27734 z m -93.162106,0.0371 -1.640625,1.33594 c -0.9028,0.73414 -2.221194,1.67789 -2.933594,2.09179 -1.508,0.88035 -4.2789,1.87296 -5.75,2.0625 l -1.029297,0.13282 -0.609375,1.17187 c -0.7344,1.40918 -1.013109,2.23213 -1.162109,3.4375 -0.2615,2.10473 0.09931,3.83802 1.037109,4.98047 0.4629,0.56394 0.651994,0.65977 1.558594,0.7832 1.3522,0.18383 3.191694,-0.1622 4.621094,-0.86914 3.8951,-1.92366 6.79119,-7.68397 6.33789,-12.60742 -0.0635,-0.6894 -0.190437,-1.53635 -0.273437,-1.88672 z m 39.960936,0 -1.59961,1.33594 c -0.9,0.73415 -2.20039,1.67788 -2.90039,2.09179 -1.5,0.88034 -4.29883,1.87295 -5.79883,2.0625 l -1,0.13282 -0.59961,1.17187 c -0.8,1.40918 -1.00117,2.23214 -1.20117,3.4375 -0.2,2.10473 0.0996,3.83803 1.09961,4.98047 0.4,0.56394 0.6,0.65976 1.5,0.7832 1.4,0.18382 3.20156,-0.16221 4.60156,-0.86914 3.9,-1.92366 6.79844,-7.68396 6.39844,-12.60742 -0.1,-0.68939 -0.19883,-1.53636 -0.29883,-1.88672 z m 40,0 -1.59961,1.33594 c -0.9,0.73414 -2.20039,1.67789 -2.90039,2.09179 -1.5,0.88035 -4.29883,1.87296 -5.79883,2.0625 l -1,0.13282 -0.59961,1.17187 c -0.8,1.40918 -1.00117,2.23213 -1.20117,3.4375 -0.2,2.10472 0.0996,3.83802 1.09961,4.98047 0.4,0.56394 0.6,0.65977 1.5,0.7832 1.4,0.18383 3.20156,-0.1622 4.60156,-0.86914 3.9,-1.92366 6.79844,-7.68397 6.39844,-12.60742 -0.1,-0.6894 -0.19883,-1.53635 -0.29883,-1.88672 z m 40,0 -1.59961,1.33594 c -0.9,0.73415 -2.20039,1.67788 -2.90039,2.09179 -1.5,0.88034 -4.29883,1.87295 -5.79883,2.0625 l -1,0.13282 -0.59961,1.17187 c -0.8,1.40918 -1.00117,2.23214 -1.20117,3.4375 -0.2,2.10473 0.0996,3.83803 1.09961,4.98047 0.4,0.56394 0.6,0.65976 1.5,0.7832 1.4,0.18382 3.20156,-0.16221 4.60156,-0.86914 3.9,-1.92366 6.79844,-7.68396 6.39844,-12.60742 -0.1,-0.68939 -0.19883,-1.53636 -0.29883,-1.88672 z M 75.263672,302.67188 c -0.141586,0.0638 -0.397725,0.53962 -0.984375,1.73632 l -0.953125,1.95703 -0.07422,17.34961 -0.04492,7.92188 h 3.970703 l 0.04297,-7.9082 c 0.0618,-15.0678 0.02176,-17.44964 -0.306641,-18.00977 -0.2069,-0.35592 -0.605818,-1.10793 -0.886718,-1.67187 -0.2806,-0.56385 -0.575344,-1.15337 -0.652344,-1.3125 -0.02957,-0.0584 -0.06413,-0.0838 -0.111328,-0.0625 z m 40.011718,0 c -0.13594,0.0638 -0.39805,0.53962 -0.99805,1.73632 l -1,1.95703 v 17.34961 l -0.0605,7.92188 h 3.95898 v -7.9082 c 0.1,-15.0678 0.10117,-17.44964 -0.29883,-18.00977 -0.2,-0.35592 -0.60078,-1.10792 -0.80078,-1.67187 -0.3,-0.56385 -0.59922,-1.15337 -0.69922,-1.3125 -0.025,-0.0584 -0.0562,-0.0838 -0.10156,-0.0625 z m 40,0 c -0.13594,0.0638 -0.39805,0.53962 -0.99805,1.73632 l -1,1.95703 v 17.34961 l -0.0605,7.92188 h 3.95898 v -7.9082 c 0.1,-15.0677 0.10117,-17.44964 -0.29883,-18.00977 -0.2,-0.35592 -0.60078,-1.10793 -0.80078,-1.67187 -0.3,-0.56385 -0.59922,-1.15337 -0.69922,-1.3125 -0.025,-0.0584 -0.0563,-0.0838 -0.10156,-0.0625 z m 40,0 c -0.13594,0.0638 -0.39805,0.53962 -0.99805,1.73632 l -1,1.95703 v 17.34961 l -0.0605,7.92188 h 3.95898 v -7.9082 c 0.1,-15.0678 0.10117,-17.44964 -0.29883,-18.00977 -0.2,-0.35592 -0.60078,-1.10792 -0.80078,-1.67187 -0.3,-0.56385 -0.59922,-1.15337 -0.69922,-1.3125 -0.025,-0.0584 -0.0563,-0.0838 -0.10156,-0.0625 z"
         style="display:inline;fill:#ffcc00;fill-opacity:1;stroke:none;stroke-width:0.533245;stroke-opacity:1" />
    </g>
  </g>
</svg>
