G04 #@! TF.GenerationSoftware,KiCad,Pcbnew,5.1.5+dfsg1-2build2*
G04 #@! TF.CreationDate,2021-04-12T21:23:26-04:00*
G04 #@! TF.ProjectId,wood_tile,776f6f64-5f74-4696-9c65-2e6b69636164,rev?*
G04 #@! TF.SameCoordinates,Original*
G04 #@! TF.FileFunction,Soldermask,Top*
G04 #@! TF.FilePolarity,Negative*
%FSLAX46Y46*%
G04 Gerber Fmt 4.6, Leading zero omitted, Abs format (unit mm)*
G04 Created by KiCad (PCBNEW 5.1.5+dfsg1-2build2) date 2021-04-12 21:23:26*
%MOMM*%
%LPD*%
G04 APERTURE LIST*
%ADD10C,0.010000*%
G04 APERTURE END LIST*
D10*
G36*
X3216501Y-8434349D02*
G01*
X3225490Y-8493730D01*
X3237599Y-8583736D01*
X3252079Y-8698637D01*
X3268184Y-8832707D01*
X3282598Y-8957501D01*
X3389701Y-9817385D01*
X3511837Y-10639207D01*
X3649626Y-11424711D01*
X3803689Y-12175639D01*
X3974648Y-12893734D01*
X4163123Y-13580740D01*
X4369735Y-14238399D01*
X4595106Y-14868456D01*
X4839855Y-15472651D01*
X5104604Y-16052730D01*
X5389975Y-16610434D01*
X5696587Y-17147507D01*
X6025061Y-17665693D01*
X6376020Y-18166733D01*
X6725164Y-18621375D01*
X6983912Y-18944167D01*
X134458Y-18944167D01*
X-504175Y-18944163D01*
X-1101827Y-18944147D01*
X-1659850Y-18944111D01*
X-2179596Y-18944046D01*
X-2662417Y-18943945D01*
X-3109665Y-18943800D01*
X-3522693Y-18943602D01*
X-3902853Y-18943344D01*
X-4251497Y-18943017D01*
X-4569977Y-18942614D01*
X-4859645Y-18942127D01*
X-5121854Y-18941547D01*
X-5357955Y-18940867D01*
X-5569300Y-18940079D01*
X-5757243Y-18939174D01*
X-5923134Y-18938145D01*
X-6068327Y-18936983D01*
X-6194173Y-18935681D01*
X-6302024Y-18934231D01*
X-6393234Y-18932624D01*
X-6469152Y-18930853D01*
X-6531133Y-18928910D01*
X-6580528Y-18926786D01*
X-6618689Y-18924474D01*
X-6646968Y-18921966D01*
X-6666718Y-18919253D01*
X-6679291Y-18916328D01*
X-6686039Y-18913183D01*
X-6688313Y-18909809D01*
X-6687467Y-18906199D01*
X-6685957Y-18903822D01*
X-6662813Y-18873550D01*
X-6618574Y-18817266D01*
X-6558731Y-18741899D01*
X-6488773Y-18654381D01*
X-6455376Y-18612781D01*
X-6041074Y-18066641D01*
X-5656114Y-17495044D01*
X-5299468Y-16896147D01*
X-4970110Y-16268108D01*
X-4667012Y-15609083D01*
X-4389147Y-14917230D01*
X-4375312Y-14880167D01*
X-4203098Y-14393099D01*
X-4040385Y-13882910D01*
X-3886653Y-13347325D01*
X-3741386Y-12784071D01*
X-3604066Y-12190873D01*
X-3474174Y-11565456D01*
X-3351194Y-10905548D01*
X-3234607Y-10208872D01*
X-3123895Y-9473156D01*
X-3091025Y-9239250D01*
X-3068604Y-9077934D01*
X-3047610Y-8928399D01*
X-3028853Y-8796296D01*
X-3013144Y-8687276D01*
X-3001291Y-8606988D01*
X-2994104Y-8561084D01*
X-2992874Y-8554344D01*
X-2989524Y-8535811D01*
X-2984602Y-8522724D01*
X-2972785Y-8515940D01*
X-2948747Y-8516315D01*
X-2907166Y-8524707D01*
X-2842717Y-8541970D01*
X-2750076Y-8568963D01*
X-2623918Y-8606541D01*
X-2571750Y-8622087D01*
X-1995708Y-8771693D01*
X-1408087Y-8881676D01*
X-811998Y-8952117D01*
X-210549Y-8983097D01*
X393149Y-8974698D01*
X995988Y-8927000D01*
X1594857Y-8840084D01*
X2186648Y-8714031D01*
X2768251Y-8548922D01*
X2981598Y-8477475D01*
X3070970Y-8447474D01*
X3144781Y-8424963D01*
X3194495Y-8412400D01*
X3211377Y-8411322D01*
X3216501Y-8434349D01*
G37*
X3216501Y-8434349D02*
X3225490Y-8493730D01*
X3237599Y-8583736D01*
X3252079Y-8698637D01*
X3268184Y-8832707D01*
X3282598Y-8957501D01*
X3389701Y-9817385D01*
X3511837Y-10639207D01*
X3649626Y-11424711D01*
X3803689Y-12175639D01*
X3974648Y-12893734D01*
X4163123Y-13580740D01*
X4369735Y-14238399D01*
X4595106Y-14868456D01*
X4839855Y-15472651D01*
X5104604Y-16052730D01*
X5389975Y-16610434D01*
X5696587Y-17147507D01*
X6025061Y-17665693D01*
X6376020Y-18166733D01*
X6725164Y-18621375D01*
X6983912Y-18944167D01*
X134458Y-18944167D01*
X-504175Y-18944163D01*
X-1101827Y-18944147D01*
X-1659850Y-18944111D01*
X-2179596Y-18944046D01*
X-2662417Y-18943945D01*
X-3109665Y-18943800D01*
X-3522693Y-18943602D01*
X-3902853Y-18943344D01*
X-4251497Y-18943017D01*
X-4569977Y-18942614D01*
X-4859645Y-18942127D01*
X-5121854Y-18941547D01*
X-5357955Y-18940867D01*
X-5569300Y-18940079D01*
X-5757243Y-18939174D01*
X-5923134Y-18938145D01*
X-6068327Y-18936983D01*
X-6194173Y-18935681D01*
X-6302024Y-18934231D01*
X-6393234Y-18932624D01*
X-6469152Y-18930853D01*
X-6531133Y-18928910D01*
X-6580528Y-18926786D01*
X-6618689Y-18924474D01*
X-6646968Y-18921966D01*
X-6666718Y-18919253D01*
X-6679291Y-18916328D01*
X-6686039Y-18913183D01*
X-6688313Y-18909809D01*
X-6687467Y-18906199D01*
X-6685957Y-18903822D01*
X-6662813Y-18873550D01*
X-6618574Y-18817266D01*
X-6558731Y-18741899D01*
X-6488773Y-18654381D01*
X-6455376Y-18612781D01*
X-6041074Y-18066641D01*
X-5656114Y-17495044D01*
X-5299468Y-16896147D01*
X-4970110Y-16268108D01*
X-4667012Y-15609083D01*
X-4389147Y-14917230D01*
X-4375312Y-14880167D01*
X-4203098Y-14393099D01*
X-4040385Y-13882910D01*
X-3886653Y-13347325D01*
X-3741386Y-12784071D01*
X-3604066Y-12190873D01*
X-3474174Y-11565456D01*
X-3351194Y-10905548D01*
X-3234607Y-10208872D01*
X-3123895Y-9473156D01*
X-3091025Y-9239250D01*
X-3068604Y-9077934D01*
X-3047610Y-8928399D01*
X-3028853Y-8796296D01*
X-3013144Y-8687276D01*
X-3001291Y-8606988D01*
X-2994104Y-8561084D01*
X-2992874Y-8554344D01*
X-2989524Y-8535811D01*
X-2984602Y-8522724D01*
X-2972785Y-8515940D01*
X-2948747Y-8516315D01*
X-2907166Y-8524707D01*
X-2842717Y-8541970D01*
X-2750076Y-8568963D01*
X-2623918Y-8606541D01*
X-2571750Y-8622087D01*
X-1995708Y-8771693D01*
X-1408087Y-8881676D01*
X-811998Y-8952117D01*
X-210549Y-8983097D01*
X393149Y-8974698D01*
X995988Y-8927000D01*
X1594857Y-8840084D01*
X2186648Y-8714031D01*
X2768251Y-8548922D01*
X2981598Y-8477475D01*
X3070970Y-8447474D01*
X3144781Y-8424963D01*
X3194495Y-8412400D01*
X3211377Y-8411322D01*
X3216501Y-8434349D01*
M02*
