G04 #@! TF.GenerationSoftware,KiCad,Pcbnew,5.1.5+dfsg1-2build2*
G04 #@! TF.CreationDate,2021-04-12T21:23:26-04:00*
G04 #@! TF.ProjectId,wood_tile,776f6f64-5f74-4696-9c65-2e6b69636164,rev?*
G04 #@! TF.SameCoordinates,Original*
G04 #@! TF.FileFunction,Copper,L1,Top*
G04 #@! TF.FilePolarity,Positive*
%FSLAX46Y46*%
G04 Gerber Fmt 4.6, Leading zero omitted, Abs format (unit mm)*
G04 Created by KiCad (PCBNEW 5.1.5+dfsg1-2build2) date 2021-04-12 21:23:26*
%MOMM*%
%LPD*%
G04 APERTURE LIST*
%ADD10C,0.010000*%
G04 APERTURE END LIST*
D10*
G36*
X10391577Y24995644D02*
G01*
X10857707Y24995521D01*
X11291572Y24995311D01*
X11693845Y24995012D01*
X12065196Y24994624D01*
X12406297Y24994146D01*
X12717819Y24993579D01*
X13000434Y24992923D01*
X13254812Y24992175D01*
X13481625Y24991337D01*
X13681544Y24990407D01*
X13855240Y24989386D01*
X14003386Y24988273D01*
X14126651Y24987067D01*
X14225707Y24985769D01*
X14301226Y24984377D01*
X14353879Y24982891D01*
X14384337Y24981312D01*
X14393334Y24979770D01*
X14410052Y24956743D01*
X14419792Y24954755D01*
X14433032Y24936644D01*
X14466305Y24883718D01*
X14518515Y24797845D01*
X14588568Y24680895D01*
X14675369Y24534735D01*
X14777822Y24361236D01*
X14894832Y24162265D01*
X15025305Y23939693D01*
X15168144Y23695386D01*
X15322256Y23431215D01*
X15486545Y23149048D01*
X15659915Y22850754D01*
X15841273Y22538202D01*
X16029522Y22213260D01*
X16223568Y21877798D01*
X16277167Y21785047D01*
X18108084Y18616083D01*
X18114665Y18351500D01*
X18108657Y17990689D01*
X18074361Y17606480D01*
X18013253Y17205577D01*
X17926814Y16794682D01*
X17816520Y16380499D01*
X17683852Y15969729D01*
X17530286Y15569076D01*
X17469847Y15427873D01*
X17423929Y15320620D01*
X17386662Y15227613D01*
X17360433Y15155327D01*
X17347631Y15110236D01*
X17348251Y15098166D01*
X17400205Y15076876D01*
X17482081Y15038543D01*
X17586875Y14986817D01*
X17707577Y14925349D01*
X17837181Y14857787D01*
X17968679Y14787784D01*
X18095065Y14718987D01*
X18209330Y14655049D01*
X18298584Y14603141D01*
X18635971Y14392054D01*
X18949338Y14175003D01*
X19248200Y13944509D01*
X19542071Y13693090D01*
X19840467Y13413266D01*
X19950421Y13304545D01*
X20346400Y12881783D01*
X20705076Y12443112D01*
X21029923Y11984008D01*
X21292627Y11555899D01*
X21569221Y11031193D01*
X21806854Y10491577D01*
X22005317Y9939187D01*
X22164397Y9376161D01*
X22283884Y8804634D01*
X22363567Y8226746D01*
X22403235Y7644631D01*
X22402676Y7060427D01*
X22361681Y6476271D01*
X22280037Y5894300D01*
X22157534Y5316650D01*
X21993960Y4745459D01*
X21971752Y4678023D01*
X21765823Y4127709D01*
X21520579Y3592440D01*
X21235835Y3071880D01*
X20911406Y2565692D01*
X20547108Y2073538D01*
X20537466Y2061384D01*
X20439917Y1945034D01*
X20316405Y1807715D01*
X20173316Y1655765D01*
X20017036Y1495524D01*
X19853951Y1333328D01*
X19690447Y1175517D01*
X19532909Y1028430D01*
X19387724Y898404D01*
X19261276Y791778D01*
X19246250Y779730D01*
X18763086Y420746D01*
X18264171Y100697D01*
X17748908Y-180652D01*
X17216698Y-423535D01*
X16666940Y-628187D01*
X16099037Y-794841D01*
X15512389Y-923733D01*
X14906398Y-1015096D01*
X14573250Y-1048714D01*
X14403917Y-1062958D01*
X14333250Y-1277604D01*
X14189506Y-1649585D01*
X14006057Y-2015815D01*
X13785465Y-2372870D01*
X13530294Y-2717327D01*
X13243108Y-3045765D01*
X12926471Y-3354758D01*
X12582945Y-3640886D01*
X12537363Y-3675534D01*
X12121694Y-3961977D01*
X11682295Y-4213787D01*
X11218921Y-4431063D01*
X10731324Y-4613900D01*
X10219258Y-4762397D01*
X9682478Y-4876651D01*
X9376834Y-4924900D01*
X9259575Y-4937404D01*
X9109535Y-4947546D01*
X8934942Y-4955273D01*
X8744025Y-4960531D01*
X8545011Y-4963266D01*
X8346130Y-4963425D01*
X8155610Y-4960954D01*
X7981679Y-4955799D01*
X7832565Y-4947908D01*
X7716496Y-4937225D01*
X7705450Y-4935790D01*
X7618719Y-4923566D01*
X7549598Y-4912886D01*
X7507544Y-4905262D01*
X7499286Y-4902842D01*
X7507615Y-4883716D01*
X7534423Y-4834724D01*
X7576135Y-4762133D01*
X7629174Y-4672211D01*
X7664806Y-4612781D01*
X7783150Y-4406924D01*
X7907192Y-4174002D01*
X8030285Y-3927446D01*
X8145783Y-3680684D01*
X8247038Y-3447146D01*
X8271647Y-3386667D01*
X8481823Y-2805057D01*
X8651971Y-2211656D01*
X8781871Y-1608923D01*
X8871307Y-999321D01*
X8920061Y-385309D01*
X8927915Y230652D01*
X8894652Y846101D01*
X8820054Y1458578D01*
X8739325Y1902617D01*
X8600104Y2472299D01*
X8421633Y3028575D01*
X8203338Y3572840D01*
X7944648Y4106492D01*
X7644991Y4630926D01*
X7577273Y4739278D01*
X7359025Y5071755D01*
X7144487Y5373477D01*
X6925717Y5654388D01*
X6694776Y5924429D01*
X6443724Y6193546D01*
X6299201Y6339795D01*
X5851174Y6755631D01*
X5377788Y7138101D01*
X4880726Y7486412D01*
X4361671Y7799770D01*
X3822304Y8077381D01*
X3264309Y8318451D01*
X2689368Y8522185D01*
X2099163Y8687792D01*
X1495377Y8814475D01*
X879693Y8901442D01*
X867834Y8902711D01*
X696640Y8917014D01*
X493620Y8927588D01*
X269122Y8934370D01*
X33491Y8937294D01*
X-202922Y8936298D01*
X-429772Y8931318D01*
X-636710Y8922289D01*
X-772583Y8912826D01*
X-1324982Y8850383D01*
X-1855715Y8757246D01*
X-2371473Y8631515D01*
X-2878946Y8471293D01*
X-3384823Y8274680D01*
X-3895796Y8039779D01*
X-3958166Y8008730D01*
X-4406557Y7769942D01*
X-4825565Y7517184D01*
X-5222897Y7244860D01*
X-5606260Y6947375D01*
X-5983361Y6619133D01*
X-6329449Y6287115D01*
X-6747372Y5843818D01*
X-7125836Y5388549D01*
X-7466737Y4918385D01*
X-7771969Y4430408D01*
X-8043429Y3921695D01*
X-8283012Y3389326D01*
X-8394799Y3104388D01*
X-8517028Y2746202D01*
X-8628549Y2357376D01*
X-8727048Y1948765D01*
X-8810211Y1531223D01*
X-8875723Y1115602D01*
X-8921271Y712757D01*
X-8931224Y588700D01*
X-8951147Y20796D01*
X-8930701Y-553539D01*
X-8870715Y-1130991D01*
X-8772017Y-1708245D01*
X-8635435Y-2281986D01*
X-8461796Y-2848900D01*
X-8251929Y-3405671D01*
X-8006661Y-3948985D01*
X-7726821Y-4475527D01*
X-7621806Y-4653681D01*
X-7558597Y-4758837D01*
X-7515317Y-4833567D01*
X-7489625Y-4883446D01*
X-7479180Y-4914049D01*
X-7481639Y-4930951D01*
X-7494662Y-4939727D01*
X-7500808Y-4941769D01*
X-7533934Y-4945704D01*
X-7602606Y-4949572D01*
X-7700040Y-4953267D01*
X-7819447Y-4956684D01*
X-7954043Y-4959717D01*
X-8097040Y-4962260D01*
X-8241652Y-4964208D01*
X-8381093Y-4965456D01*
X-8508577Y-4965897D01*
X-8617317Y-4965427D01*
X-8700527Y-4963940D01*
X-8751420Y-4961330D01*
X-8752416Y-4961229D01*
X-9030329Y-4930281D01*
X-9275215Y-4898101D01*
X-9496379Y-4863005D01*
X-9703126Y-4823307D01*
X-9904759Y-4777320D01*
X-10110584Y-4723358D01*
X-10191881Y-4700397D01*
X-10681687Y-4539559D01*
X-11150113Y-4345131D01*
X-11595271Y-4118319D01*
X-12015273Y-3860332D01*
X-12408232Y-3572379D01*
X-12772260Y-3255667D01*
X-13105470Y-2911405D01*
X-13247689Y-2744358D01*
X-13440993Y-2488228D01*
X-13624225Y-2207732D01*
X-13791067Y-1914096D01*
X-13935197Y-1618547D01*
X-14050297Y-1332312D01*
X-14062768Y-1296459D01*
X-14101018Y-1188926D01*
X-14130792Y-1117017D01*
X-14154690Y-1075495D01*
X-14175312Y-1059124D01*
X-14181035Y-1058334D01*
X-14214343Y-1056292D01*
X-14281387Y-1050669D01*
X-14373793Y-1042218D01*
X-14483185Y-1031691D01*
X-14538931Y-1026156D01*
X-15137246Y-945445D01*
X-15721914Y-824704D01*
X-16292770Y-663980D01*
X-16849651Y-463320D01*
X-17392395Y-222769D01*
X-17455393Y-191807D01*
X-17978341Y90900D01*
X-18474746Y405538D01*
X-18943721Y750362D01*
X-19384378Y1123630D01*
X-19795831Y1523600D01*
X-20177194Y1948528D01*
X-20527578Y2396673D01*
X-20846098Y2866289D01*
X-21131866Y3355636D01*
X-21383997Y3862970D01*
X-21601601Y4386549D01*
X-21783794Y4924629D01*
X-21929688Y5475468D01*
X-22038397Y6037323D01*
X-22109032Y6608450D01*
X-22140709Y7187108D01*
X-22132539Y7771554D01*
X-22083635Y8360044D01*
X-22022894Y8784166D01*
X-21905181Y9356856D01*
X-21748016Y9917167D01*
X-21552834Y10463222D01*
X-21321067Y10993144D01*
X-21054150Y11505054D01*
X-20753515Y11997073D01*
X-20420598Y12467324D01*
X-20056831Y12913929D01*
X-19663647Y13335010D01*
X-19242482Y13728688D01*
X-18794767Y14093086D01*
X-18321938Y14426325D01*
X-17825427Y14726527D01*
X-17306669Y14991814D01*
X-17272000Y15007903D01*
X-17188593Y15046396D01*
X-17120983Y15077647D01*
X-17077416Y15097841D01*
X-17065489Y15103431D01*
X-17071734Y15122557D01*
X-17092629Y15173075D01*
X-17125142Y15247913D01*
X-17166241Y15340000D01*
X-17179122Y15368459D01*
X-17392104Y15885839D01*
X-17564812Y16412227D01*
X-17699203Y16953692D01*
X-17714702Y17029198D01*
X-17759863Y17269478D01*
X-17794758Y17492047D01*
X-17820449Y17708246D01*
X-17837996Y17929414D01*
X-17848459Y18166892D01*
X-17852898Y18432021D01*
X-17853202Y18510398D01*
X-17854083Y19060879D01*
X-14596417Y24708323D01*
X-14392756Y24840484D01*
X-14189095Y24972646D01*
X102119Y24988343D01*
X1090430Y24989410D01*
X2037079Y24990396D01*
X2942737Y24991298D01*
X3808076Y24992117D01*
X4633767Y24992853D01*
X5420480Y24993504D01*
X6168889Y24994071D01*
X6879662Y24994554D01*
X7553473Y24994951D01*
X8190992Y24995262D01*
X8792891Y24995488D01*
X9359841Y24995627D01*
X9892512Y24995679D01*
X10391577Y24995644D01*
G37*
X10391577Y24995644D02*
X10857707Y24995521D01*
X11291572Y24995311D01*
X11693845Y24995012D01*
X12065196Y24994624D01*
X12406297Y24994146D01*
X12717819Y24993579D01*
X13000434Y24992923D01*
X13254812Y24992175D01*
X13481625Y24991337D01*
X13681544Y24990407D01*
X13855240Y24989386D01*
X14003386Y24988273D01*
X14126651Y24987067D01*
X14225707Y24985769D01*
X14301226Y24984377D01*
X14353879Y24982891D01*
X14384337Y24981312D01*
X14393334Y24979770D01*
X14410052Y24956743D01*
X14419792Y24954755D01*
X14433032Y24936644D01*
X14466305Y24883718D01*
X14518515Y24797845D01*
X14588568Y24680895D01*
X14675369Y24534735D01*
X14777822Y24361236D01*
X14894832Y24162265D01*
X15025305Y23939693D01*
X15168144Y23695386D01*
X15322256Y23431215D01*
X15486545Y23149048D01*
X15659915Y22850754D01*
X15841273Y22538202D01*
X16029522Y22213260D01*
X16223568Y21877798D01*
X16277167Y21785047D01*
X18108084Y18616083D01*
X18114665Y18351500D01*
X18108657Y17990689D01*
X18074361Y17606480D01*
X18013253Y17205577D01*
X17926814Y16794682D01*
X17816520Y16380499D01*
X17683852Y15969729D01*
X17530286Y15569076D01*
X17469847Y15427873D01*
X17423929Y15320620D01*
X17386662Y15227613D01*
X17360433Y15155327D01*
X17347631Y15110236D01*
X17348251Y15098166D01*
X17400205Y15076876D01*
X17482081Y15038543D01*
X17586875Y14986817D01*
X17707577Y14925349D01*
X17837181Y14857787D01*
X17968679Y14787784D01*
X18095065Y14718987D01*
X18209330Y14655049D01*
X18298584Y14603141D01*
X18635971Y14392054D01*
X18949338Y14175003D01*
X19248200Y13944509D01*
X19542071Y13693090D01*
X19840467Y13413266D01*
X19950421Y13304545D01*
X20346400Y12881783D01*
X20705076Y12443112D01*
X21029923Y11984008D01*
X21292627Y11555899D01*
X21569221Y11031193D01*
X21806854Y10491577D01*
X22005317Y9939187D01*
X22164397Y9376161D01*
X22283884Y8804634D01*
X22363567Y8226746D01*
X22403235Y7644631D01*
X22402676Y7060427D01*
X22361681Y6476271D01*
X22280037Y5894300D01*
X22157534Y5316650D01*
X21993960Y4745459D01*
X21971752Y4678023D01*
X21765823Y4127709D01*
X21520579Y3592440D01*
X21235835Y3071880D01*
X20911406Y2565692D01*
X20547108Y2073538D01*
X20537466Y2061384D01*
X20439917Y1945034D01*
X20316405Y1807715D01*
X20173316Y1655765D01*
X20017036Y1495524D01*
X19853951Y1333328D01*
X19690447Y1175517D01*
X19532909Y1028430D01*
X19387724Y898404D01*
X19261276Y791778D01*
X19246250Y779730D01*
X18763086Y420746D01*
X18264171Y100697D01*
X17748908Y-180652D01*
X17216698Y-423535D01*
X16666940Y-628187D01*
X16099037Y-794841D01*
X15512389Y-923733D01*
X14906398Y-1015096D01*
X14573250Y-1048714D01*
X14403917Y-1062958D01*
X14333250Y-1277604D01*
X14189506Y-1649585D01*
X14006057Y-2015815D01*
X13785465Y-2372870D01*
X13530294Y-2717327D01*
X13243108Y-3045765D01*
X12926471Y-3354758D01*
X12582945Y-3640886D01*
X12537363Y-3675534D01*
X12121694Y-3961977D01*
X11682295Y-4213787D01*
X11218921Y-4431063D01*
X10731324Y-4613900D01*
X10219258Y-4762397D01*
X9682478Y-4876651D01*
X9376834Y-4924900D01*
X9259575Y-4937404D01*
X9109535Y-4947546D01*
X8934942Y-4955273D01*
X8744025Y-4960531D01*
X8545011Y-4963266D01*
X8346130Y-4963425D01*
X8155610Y-4960954D01*
X7981679Y-4955799D01*
X7832565Y-4947908D01*
X7716496Y-4937225D01*
X7705450Y-4935790D01*
X7618719Y-4923566D01*
X7549598Y-4912886D01*
X7507544Y-4905262D01*
X7499286Y-4902842D01*
X7507615Y-4883716D01*
X7534423Y-4834724D01*
X7576135Y-4762133D01*
X7629174Y-4672211D01*
X7664806Y-4612781D01*
X7783150Y-4406924D01*
X7907192Y-4174002D01*
X8030285Y-3927446D01*
X8145783Y-3680684D01*
X8247038Y-3447146D01*
X8271647Y-3386667D01*
X8481823Y-2805057D01*
X8651971Y-2211656D01*
X8781871Y-1608923D01*
X8871307Y-999321D01*
X8920061Y-385309D01*
X8927915Y230652D01*
X8894652Y846101D01*
X8820054Y1458578D01*
X8739325Y1902617D01*
X8600104Y2472299D01*
X8421633Y3028575D01*
X8203338Y3572840D01*
X7944648Y4106492D01*
X7644991Y4630926D01*
X7577273Y4739278D01*
X7359025Y5071755D01*
X7144487Y5373477D01*
X6925717Y5654388D01*
X6694776Y5924429D01*
X6443724Y6193546D01*
X6299201Y6339795D01*
X5851174Y6755631D01*
X5377788Y7138101D01*
X4880726Y7486412D01*
X4361671Y7799770D01*
X3822304Y8077381D01*
X3264309Y8318451D01*
X2689368Y8522185D01*
X2099163Y8687792D01*
X1495377Y8814475D01*
X879693Y8901442D01*
X867834Y8902711D01*
X696640Y8917014D01*
X493620Y8927588D01*
X269122Y8934370D01*
X33491Y8937294D01*
X-202922Y8936298D01*
X-429772Y8931318D01*
X-636710Y8922289D01*
X-772583Y8912826D01*
X-1324982Y8850383D01*
X-1855715Y8757246D01*
X-2371473Y8631515D01*
X-2878946Y8471293D01*
X-3384823Y8274680D01*
X-3895796Y8039779D01*
X-3958166Y8008730D01*
X-4406557Y7769942D01*
X-4825565Y7517184D01*
X-5222897Y7244860D01*
X-5606260Y6947375D01*
X-5983361Y6619133D01*
X-6329449Y6287115D01*
X-6747372Y5843818D01*
X-7125836Y5388549D01*
X-7466737Y4918385D01*
X-7771969Y4430408D01*
X-8043429Y3921695D01*
X-8283012Y3389326D01*
X-8394799Y3104388D01*
X-8517028Y2746202D01*
X-8628549Y2357376D01*
X-8727048Y1948765D01*
X-8810211Y1531223D01*
X-8875723Y1115602D01*
X-8921271Y712757D01*
X-8931224Y588700D01*
X-8951147Y20796D01*
X-8930701Y-553539D01*
X-8870715Y-1130991D01*
X-8772017Y-1708245D01*
X-8635435Y-2281986D01*
X-8461796Y-2848900D01*
X-8251929Y-3405671D01*
X-8006661Y-3948985D01*
X-7726821Y-4475527D01*
X-7621806Y-4653681D01*
X-7558597Y-4758837D01*
X-7515317Y-4833567D01*
X-7489625Y-4883446D01*
X-7479180Y-4914049D01*
X-7481639Y-4930951D01*
X-7494662Y-4939727D01*
X-7500808Y-4941769D01*
X-7533934Y-4945704D01*
X-7602606Y-4949572D01*
X-7700040Y-4953267D01*
X-7819447Y-4956684D01*
X-7954043Y-4959717D01*
X-8097040Y-4962260D01*
X-8241652Y-4964208D01*
X-8381093Y-4965456D01*
X-8508577Y-4965897D01*
X-8617317Y-4965427D01*
X-8700527Y-4963940D01*
X-8751420Y-4961330D01*
X-8752416Y-4961229D01*
X-9030329Y-4930281D01*
X-9275215Y-4898101D01*
X-9496379Y-4863005D01*
X-9703126Y-4823307D01*
X-9904759Y-4777320D01*
X-10110584Y-4723358D01*
X-10191881Y-4700397D01*
X-10681687Y-4539559D01*
X-11150113Y-4345131D01*
X-11595271Y-4118319D01*
X-12015273Y-3860332D01*
X-12408232Y-3572379D01*
X-12772260Y-3255667D01*
X-13105470Y-2911405D01*
X-13247689Y-2744358D01*
X-13440993Y-2488228D01*
X-13624225Y-2207732D01*
X-13791067Y-1914096D01*
X-13935197Y-1618547D01*
X-14050297Y-1332312D01*
X-14062768Y-1296459D01*
X-14101018Y-1188926D01*
X-14130792Y-1117017D01*
X-14154690Y-1075495D01*
X-14175312Y-1059124D01*
X-14181035Y-1058334D01*
X-14214343Y-1056292D01*
X-14281387Y-1050669D01*
X-14373793Y-1042218D01*
X-14483185Y-1031691D01*
X-14538931Y-1026156D01*
X-15137246Y-945445D01*
X-15721914Y-824704D01*
X-16292770Y-663980D01*
X-16849651Y-463320D01*
X-17392395Y-222769D01*
X-17455393Y-191807D01*
X-17978341Y90900D01*
X-18474746Y405538D01*
X-18943721Y750362D01*
X-19384378Y1123630D01*
X-19795831Y1523600D01*
X-20177194Y1948528D01*
X-20527578Y2396673D01*
X-20846098Y2866289D01*
X-21131866Y3355636D01*
X-21383997Y3862970D01*
X-21601601Y4386549D01*
X-21783794Y4924629D01*
X-21929688Y5475468D01*
X-22038397Y6037323D01*
X-22109032Y6608450D01*
X-22140709Y7187108D01*
X-22132539Y7771554D01*
X-22083635Y8360044D01*
X-22022894Y8784166D01*
X-21905181Y9356856D01*
X-21748016Y9917167D01*
X-21552834Y10463222D01*
X-21321067Y10993144D01*
X-21054150Y11505054D01*
X-20753515Y11997073D01*
X-20420598Y12467324D01*
X-20056831Y12913929D01*
X-19663647Y13335010D01*
X-19242482Y13728688D01*
X-18794767Y14093086D01*
X-18321938Y14426325D01*
X-17825427Y14726527D01*
X-17306669Y14991814D01*
X-17272000Y15007903D01*
X-17188593Y15046396D01*
X-17120983Y15077647D01*
X-17077416Y15097841D01*
X-17065489Y15103431D01*
X-17071734Y15122557D01*
X-17092629Y15173075D01*
X-17125142Y15247913D01*
X-17166241Y15340000D01*
X-17179122Y15368459D01*
X-17392104Y15885839D01*
X-17564812Y16412227D01*
X-17699203Y16953692D01*
X-17714702Y17029198D01*
X-17759863Y17269478D01*
X-17794758Y17492047D01*
X-17820449Y17708246D01*
X-17837996Y17929414D01*
X-17848459Y18166892D01*
X-17852898Y18432021D01*
X-17853202Y18510398D01*
X-17854083Y19060879D01*
X-14596417Y24708323D01*
X-14392756Y24840484D01*
X-14189095Y24972646D01*
X102119Y24988343D01*
X1090430Y24989410D01*
X2037079Y24990396D01*
X2942737Y24991298D01*
X3808076Y24992117D01*
X4633767Y24992853D01*
X5420480Y24993504D01*
X6168889Y24994071D01*
X6879662Y24994554D01*
X7553473Y24994951D01*
X8190992Y24995262D01*
X8792891Y24995488D01*
X9359841Y24995627D01*
X9892512Y24995679D01*
X10391577Y24995644D01*
M02*
