G04 #@! TF.GenerationSoftware,KiCad,Pcbnew,5.1.5+dfsg1-2build2*
G04 #@! TF.CreationDate,2021-04-12T21:23:26-04:00*
G04 #@! TF.ProjectId,wood_tile,776f6f64-5f74-4696-9c65-2e6b69636164,rev?*
G04 #@! TF.SameCoordinates,Original*
G04 #@! TF.FileFunction,Profile,NP*
%FSLAX46Y46*%
G04 Gerber Fmt 4.6, Leading zero omitted, Abs format (unit mm)*
G04 Created by KiCad (PCBNEW 5.1.5+dfsg1-2build2) date 2021-04-12 21:23:26*
%MOMM*%
%LPD*%
G04 APERTURE LIST*
%ADD10C,0.100000*%
G04 APERTURE END LIST*
D10*
X14980100Y-25922800D02*
X-14959600Y-25934600D01*
X-14959600Y-25934600D02*
X-29939700Y-12000D01*
X-29939700Y-12000D02*
X-14980100Y25922400D01*
X-14980100Y25922400D02*
X14959600Y25934200D01*
X14959600Y25934200D02*
X29939700Y11600D01*
X29939700Y11600D02*
X14980100Y-25922800D01*
X14980100Y-25922800D02*
X14980100Y-25922800D01*
X8005500Y-200D02*
X7995700Y-397100D01*
X7995700Y-397100D02*
X7966400Y-791400D01*
X7966400Y-791400D02*
X7917800Y-1182300D01*
X7917800Y-1182300D02*
X7850300Y-1569300D01*
X7850300Y-1569300D02*
X7764100Y-1951500D01*
X7764100Y-1951500D02*
X7659500Y-2328500D01*
X7659500Y-2328500D02*
X7536700Y-2699400D01*
X7536700Y-2699400D02*
X7396100Y-3063800D01*
X7396100Y-3063800D02*
X7237900Y-3420800D01*
X7237900Y-3420800D02*
X7062400Y-3769900D01*
X7062400Y-3769900D02*
X6869900Y-4110400D01*
X6869900Y-4110400D02*
X6660500Y-4441600D01*
X6660500Y-4441600D02*
X6434600Y-4763000D01*
X6434600Y-4763000D02*
X6192600Y-5073700D01*
X6192600Y-5073700D02*
X5934500Y-5373300D01*
X5934500Y-5373300D02*
X5660800Y-5660900D01*
X5660800Y-5660900D02*
X5373100Y-5934700D01*
X5373100Y-5934700D02*
X5073600Y-6192700D01*
X5073600Y-6192700D02*
X4762800Y-6434800D01*
X4762800Y-6434800D02*
X4441500Y-6660700D01*
X4441500Y-6660700D02*
X4110200Y-6870000D01*
X4110200Y-6870000D02*
X3769700Y-7062600D01*
X3769700Y-7062600D02*
X3420600Y-7238100D01*
X3420600Y-7238100D02*
X3063600Y-7396300D01*
X3063600Y-7396300D02*
X2699300Y-7536900D01*
X2699300Y-7536900D02*
X2328300Y-7659700D01*
X2328300Y-7659700D02*
X1951400Y-7764300D01*
X1951400Y-7764300D02*
X1569100Y-7850500D01*
X1569100Y-7850500D02*
X1182200Y-7918000D01*
X1182200Y-7918000D02*
X791200Y-7966500D01*
X791200Y-7966500D02*
X397000Y-7995900D01*
X397000Y-7995900D02*
X0Y-8005700D01*
X0Y-8005700D02*
X-397000Y-7995900D01*
X-397000Y-7995900D02*
X-791200Y-7966500D01*
X-791200Y-7966500D02*
X-1182200Y-7918000D01*
X-1182200Y-7918000D02*
X-1569100Y-7850500D01*
X-1569100Y-7850500D02*
X-1951400Y-7764300D01*
X-1951400Y-7764300D02*
X-2328300Y-7659700D01*
X-2328300Y-7659700D02*
X-2699300Y-7536900D01*
X-2699300Y-7536900D02*
X-3063600Y-7396300D01*
X-3063600Y-7396300D02*
X-3420600Y-7238100D01*
X-3420600Y-7238100D02*
X-3769700Y-7062600D01*
X-3769700Y-7062600D02*
X-4110200Y-6870000D01*
X-4110200Y-6870000D02*
X-4441500Y-6660700D01*
X-4441500Y-6660700D02*
X-4762800Y-6434800D01*
X-4762800Y-6434800D02*
X-5073600Y-6192700D01*
X-5073600Y-6192700D02*
X-5373100Y-5934700D01*
X-5373100Y-5934700D02*
X-5660800Y-5660900D01*
X-5660800Y-5660900D02*
X-5934500Y-5373300D01*
X-5934500Y-5373300D02*
X-6192600Y-5073700D01*
X-6192600Y-5073700D02*
X-6434600Y-4763000D01*
X-6434600Y-4763000D02*
X-6660500Y-4441600D01*
X-6660500Y-4441600D02*
X-6869900Y-4110400D01*
X-6869900Y-4110400D02*
X-7062400Y-3769900D01*
X-7062400Y-3769900D02*
X-7237900Y-3420800D01*
X-7237900Y-3420800D02*
X-7396100Y-3063800D01*
X-7396100Y-3063800D02*
X-7536700Y-2699400D01*
X-7536700Y-2699400D02*
X-7659500Y-2328500D01*
X-7659500Y-2328500D02*
X-7764100Y-1951500D01*
X-7764100Y-1951500D02*
X-7850300Y-1569300D01*
X-7850300Y-1569300D02*
X-7917800Y-1182300D01*
X-7917800Y-1182300D02*
X-7966400Y-791400D01*
X-7966400Y-791400D02*
X-7995700Y-397100D01*
X-7995700Y-397100D02*
X-8005500Y-200D01*
X-8005500Y-200D02*
X-7995100Y411800D01*
X-7995100Y411800D02*
X-7964200Y818300D01*
X-7964200Y818300D02*
X-7913300Y1219000D01*
X-7913300Y1219000D02*
X-7842900Y1613200D01*
X-7842900Y1613200D02*
X-7753500Y2000500D01*
X-7753500Y2000500D02*
X-7645600Y2380400D01*
X-7645600Y2380400D02*
X-7519800Y2752400D01*
X-7519800Y2752400D02*
X-7376400Y3115900D01*
X-7376400Y3115900D02*
X-7216100Y3470600D01*
X-7216100Y3470600D02*
X-7039300Y3815700D01*
X-7039300Y3815700D02*
X-6846500Y4151000D01*
X-6846500Y4151000D02*
X-6638300Y4475800D01*
X-6638300Y4475800D02*
X-6415100Y4789700D01*
X-6415100Y4789700D02*
X-6177500Y5092100D01*
X-6177500Y5092100D02*
X-5925800Y5382600D01*
X-5925800Y5382600D02*
X-5660800Y5660600D01*
X-5660800Y5660600D02*
X-5382700Y5925700D01*
X-5382700Y5925700D02*
X-5092300Y6177300D01*
X-5092300Y6177300D02*
X-4789800Y6414900D01*
X-4789800Y6414900D02*
X-4476000Y6638100D01*
X-4476000Y6638100D02*
X-4151200Y6846400D01*
X-4151200Y6846400D02*
X-3815900Y7039100D01*
X-3815900Y7039100D02*
X-3470700Y7215900D01*
X-3470700Y7215900D02*
X-3116100Y7376200D01*
X-3116100Y7376200D02*
X-2752600Y7519600D01*
X-2752600Y7519600D02*
X-2380600Y7645400D01*
X-2380600Y7645400D02*
X-2000700Y7753300D01*
X-2000700Y7753300D02*
X-1613400Y7842700D01*
X-1613400Y7842700D02*
X-1219200Y7913100D01*
X-1219200Y7913100D02*
X-818500Y7964000D01*
X-818500Y7964000D02*
X-412000Y7994900D01*
X-412000Y7994900D02*
X0Y8005300D01*
X0Y8005300D02*
X412000Y7994900D01*
X412000Y7994900D02*
X818500Y7964000D01*
X818500Y7964000D02*
X1219200Y7913100D01*
X1219200Y7913100D02*
X1613400Y7842700D01*
X1613400Y7842700D02*
X2000700Y7753300D01*
X2000700Y7753300D02*
X2380600Y7645400D01*
X2380600Y7645400D02*
X2752600Y7519600D01*
X2752600Y7519600D02*
X3116100Y7376200D01*
X3116100Y7376200D02*
X3470700Y7215900D01*
X3470700Y7215900D02*
X3815900Y7039100D01*
X3815900Y7039100D02*
X4151200Y6846400D01*
X4151200Y6846400D02*
X4476000Y6638100D01*
X4476000Y6638100D02*
X4789800Y6414900D01*
X4789800Y6414900D02*
X5092300Y6177300D01*
X5092300Y6177300D02*
X5382700Y5925700D01*
X5382700Y5925700D02*
X5660800Y5660600D01*
X5660800Y5660600D02*
X5925800Y5382600D01*
X5925800Y5382600D02*
X6177500Y5092100D01*
X6177500Y5092100D02*
X6415100Y4789700D01*
X6415100Y4789700D02*
X6638300Y4475800D01*
X6638300Y4475800D02*
X6846500Y4151000D01*
X6846500Y4151000D02*
X7039300Y3815700D01*
X7039300Y3815700D02*
X7216100Y3470600D01*
X7216100Y3470600D02*
X7376400Y3115900D01*
X7376400Y3115900D02*
X7519800Y2752400D01*
X7519800Y2752400D02*
X7645600Y2380400D01*
X7645600Y2380400D02*
X7753500Y2000500D01*
X7753500Y2000500D02*
X7842900Y1613200D01*
X7842900Y1613200D02*
X7913300Y1219000D01*
X7913300Y1219000D02*
X7964200Y818300D01*
X7964200Y818300D02*
X7995100Y411800D01*
X7995100Y411800D02*
X8005500Y-200D01*
X8005500Y-200D02*
X8005500Y-200D01*
X8005500Y-200D02*
X8005500Y-200D01*
M02*
