G04 #@! TF.GenerationSoftware,KiCad,Pcbnew,5.1.5+dfsg1-2build2*
G04 #@! TF.CreationDate,2021-04-24T09:00:30-04:00*
G04 #@! TF.ProjectId,6,362e6b69-6361-4645-9f70-636258585858,rev?*
G04 #@! TF.SameCoordinates,Original*
G04 #@! TF.FileFunction,Legend,Top*
G04 #@! TF.FilePolarity,Positive*
%FSLAX46Y46*%
G04 Gerber Fmt 4.6, Leading zero omitted, Abs format (unit mm)*
G04 Created by KiCad (PCBNEW 5.1.5+dfsg1-2build2) date 2021-04-24 09:00:30*
%MOMM*%
%LPD*%
G04 APERTURE LIST*
%ADD10C,0.010000*%
G04 APERTURE END LIST*
D10*
G36*
X-4126661Y-2530912D02*
G01*
X-4059409Y-2536921D01*
X-4007541Y-2550288D01*
X-3957607Y-2573707D01*
X-3933485Y-2587476D01*
X-3801241Y-2687450D01*
X-3704359Y-2809856D01*
X-3644276Y-2951974D01*
X-3622428Y-3111088D01*
X-3624249Y-3172709D01*
X-3641555Y-3293845D01*
X-3678649Y-3394207D01*
X-3742708Y-3490261D01*
X-3783295Y-3537631D01*
X-3873901Y-3622000D01*
X-3971650Y-3677227D01*
X-4088148Y-3708351D01*
X-4201583Y-3719234D01*
X-4298754Y-3721154D01*
X-4369511Y-3714899D01*
X-4429338Y-3698330D01*
X-4466166Y-3682671D01*
X-4599179Y-3599789D01*
X-4703146Y-3492299D01*
X-4776801Y-3366574D01*
X-4818879Y-3228989D01*
X-4828116Y-3085916D01*
X-4803245Y-2943729D01*
X-4743002Y-2808802D01*
X-4660800Y-2702248D01*
X-4574841Y-2623069D01*
X-4490811Y-2571374D01*
X-4396049Y-2542170D01*
X-4277891Y-2530467D01*
X-4222750Y-2529569D01*
X-4126661Y-2530912D01*
G37*
X-4126661Y-2530912D02*
X-4059409Y-2536921D01*
X-4007541Y-2550288D01*
X-3957607Y-2573707D01*
X-3933485Y-2587476D01*
X-3801241Y-2687450D01*
X-3704359Y-2809856D01*
X-3644276Y-2951974D01*
X-3622428Y-3111088D01*
X-3624249Y-3172709D01*
X-3641555Y-3293845D01*
X-3678649Y-3394207D01*
X-3742708Y-3490261D01*
X-3783295Y-3537631D01*
X-3873901Y-3622000D01*
X-3971650Y-3677227D01*
X-4088148Y-3708351D01*
X-4201583Y-3719234D01*
X-4298754Y-3721154D01*
X-4369511Y-3714899D01*
X-4429338Y-3698330D01*
X-4466166Y-3682671D01*
X-4599179Y-3599789D01*
X-4703146Y-3492299D01*
X-4776801Y-3366574D01*
X-4818879Y-3228989D01*
X-4828116Y-3085916D01*
X-4803245Y-2943729D01*
X-4743002Y-2808802D01*
X-4660800Y-2702248D01*
X-4574841Y-2623069D01*
X-4490811Y-2571374D01*
X-4396049Y-2542170D01*
X-4277891Y-2530467D01*
X-4222750Y-2529569D01*
X-4126661Y-2530912D01*
G36*
X-2539161Y-2530912D02*
G01*
X-2471909Y-2536921D01*
X-2420041Y-2550288D01*
X-2370107Y-2573707D01*
X-2345985Y-2587476D01*
X-2218597Y-2684397D01*
X-2123189Y-2802844D01*
X-2060841Y-2936568D01*
X-2032630Y-3079317D01*
X-2039637Y-3224842D01*
X-2082940Y-3366890D01*
X-2163618Y-3499213D01*
X-2184334Y-3523961D01*
X-2276163Y-3613306D01*
X-2372270Y-3672039D01*
X-2484791Y-3705675D01*
X-2614083Y-3719234D01*
X-2711254Y-3721154D01*
X-2782011Y-3714899D01*
X-2841838Y-3698330D01*
X-2878666Y-3682671D01*
X-3011679Y-3599789D01*
X-3115646Y-3492299D01*
X-3189301Y-3366574D01*
X-3231379Y-3228989D01*
X-3240616Y-3085916D01*
X-3215745Y-2943729D01*
X-3155502Y-2808802D01*
X-3073300Y-2702248D01*
X-2987341Y-2623069D01*
X-2903311Y-2571374D01*
X-2808549Y-2542170D01*
X-2690391Y-2530467D01*
X-2635250Y-2529569D01*
X-2539161Y-2530912D01*
G37*
X-2539161Y-2530912D02*
X-2471909Y-2536921D01*
X-2420041Y-2550288D01*
X-2370107Y-2573707D01*
X-2345985Y-2587476D01*
X-2218597Y-2684397D01*
X-2123189Y-2802844D01*
X-2060841Y-2936568D01*
X-2032630Y-3079317D01*
X-2039637Y-3224842D01*
X-2082940Y-3366890D01*
X-2163618Y-3499213D01*
X-2184334Y-3523961D01*
X-2276163Y-3613306D01*
X-2372270Y-3672039D01*
X-2484791Y-3705675D01*
X-2614083Y-3719234D01*
X-2711254Y-3721154D01*
X-2782011Y-3714899D01*
X-2841838Y-3698330D01*
X-2878666Y-3682671D01*
X-3011679Y-3599789D01*
X-3115646Y-3492299D01*
X-3189301Y-3366574D01*
X-3231379Y-3228989D01*
X-3240616Y-3085916D01*
X-3215745Y-2943729D01*
X-3155502Y-2808802D01*
X-3073300Y-2702248D01*
X-2987341Y-2623069D01*
X-2903311Y-2571374D01*
X-2808549Y-2542170D01*
X-2690391Y-2530467D01*
X-2635250Y-2529569D01*
X-2539161Y-2530912D01*
G36*
X-951661Y-2530912D02*
G01*
X-884409Y-2536921D01*
X-832541Y-2550288D01*
X-782607Y-2573707D01*
X-758485Y-2587476D01*
X-631097Y-2684397D01*
X-535689Y-2802844D01*
X-473341Y-2936568D01*
X-445130Y-3079317D01*
X-452137Y-3224842D01*
X-495440Y-3366890D01*
X-576118Y-3499213D01*
X-596834Y-3523961D01*
X-688681Y-3613292D01*
X-784910Y-3672072D01*
X-897642Y-3705815D01*
X-1026583Y-3719500D01*
X-1120200Y-3721825D01*
X-1187881Y-3716528D01*
X-1245708Y-3701113D01*
X-1302193Y-3676732D01*
X-1440396Y-3589464D01*
X-1545066Y-3476921D01*
X-1614674Y-3341539D01*
X-1647693Y-3185754D01*
X-1650328Y-3122084D01*
X-1635158Y-2969944D01*
X-1587822Y-2839844D01*
X-1504708Y-2722571D01*
X-1485800Y-2702248D01*
X-1399841Y-2623069D01*
X-1315811Y-2571374D01*
X-1221049Y-2542170D01*
X-1102891Y-2530467D01*
X-1047750Y-2529569D01*
X-951661Y-2530912D01*
G37*
X-951661Y-2530912D02*
X-884409Y-2536921D01*
X-832541Y-2550288D01*
X-782607Y-2573707D01*
X-758485Y-2587476D01*
X-631097Y-2684397D01*
X-535689Y-2802844D01*
X-473341Y-2936568D01*
X-445130Y-3079317D01*
X-452137Y-3224842D01*
X-495440Y-3366890D01*
X-576118Y-3499213D01*
X-596834Y-3523961D01*
X-688681Y-3613292D01*
X-784910Y-3672072D01*
X-897642Y-3705815D01*
X-1026583Y-3719500D01*
X-1120200Y-3721825D01*
X-1187881Y-3716528D01*
X-1245708Y-3701113D01*
X-1302193Y-3676732D01*
X-1440396Y-3589464D01*
X-1545066Y-3476921D01*
X-1614674Y-3341539D01*
X-1647693Y-3185754D01*
X-1650328Y-3122084D01*
X-1635158Y-2969944D01*
X-1587822Y-2839844D01*
X-1504708Y-2722571D01*
X-1485800Y-2702248D01*
X-1399841Y-2623069D01*
X-1315811Y-2571374D01*
X-1221049Y-2542170D01*
X-1102891Y-2530467D01*
X-1047750Y-2529569D01*
X-951661Y-2530912D01*
G36*
X635839Y-2530912D02*
G01*
X703091Y-2536921D01*
X754959Y-2550288D01*
X804893Y-2573707D01*
X829015Y-2587476D01*
X956403Y-2684397D01*
X1051811Y-2802844D01*
X1114159Y-2936568D01*
X1142370Y-3079317D01*
X1135363Y-3224842D01*
X1092060Y-3366890D01*
X1011382Y-3499213D01*
X990666Y-3523961D01*
X898819Y-3613292D01*
X802590Y-3672072D01*
X689858Y-3705815D01*
X560917Y-3719500D01*
X467300Y-3721825D01*
X399619Y-3716528D01*
X341792Y-3701113D01*
X285307Y-3676732D01*
X147104Y-3589464D01*
X42434Y-3476921D01*
X-27174Y-3341539D01*
X-60193Y-3185754D01*
X-62828Y-3122084D01*
X-47658Y-2969944D01*
X-322Y-2839844D01*
X82792Y-2722571D01*
X101700Y-2702248D01*
X187659Y-2623069D01*
X271689Y-2571374D01*
X366451Y-2542170D01*
X484609Y-2530467D01*
X539750Y-2529569D01*
X635839Y-2530912D01*
G37*
X635839Y-2530912D02*
X703091Y-2536921D01*
X754959Y-2550288D01*
X804893Y-2573707D01*
X829015Y-2587476D01*
X956403Y-2684397D01*
X1051811Y-2802844D01*
X1114159Y-2936568D01*
X1142370Y-3079317D01*
X1135363Y-3224842D01*
X1092060Y-3366890D01*
X1011382Y-3499213D01*
X990666Y-3523961D01*
X898819Y-3613292D01*
X802590Y-3672072D01*
X689858Y-3705815D01*
X560917Y-3719500D01*
X467300Y-3721825D01*
X399619Y-3716528D01*
X341792Y-3701113D01*
X285307Y-3676732D01*
X147104Y-3589464D01*
X42434Y-3476921D01*
X-27174Y-3341539D01*
X-60193Y-3185754D01*
X-62828Y-3122084D01*
X-47658Y-2969944D01*
X-322Y-2839844D01*
X82792Y-2722571D01*
X101700Y-2702248D01*
X187659Y-2623069D01*
X271689Y-2571374D01*
X366451Y-2542170D01*
X484609Y-2530467D01*
X539750Y-2529569D01*
X635839Y-2530912D01*
G36*
X2223339Y-2530912D02*
G01*
X2290591Y-2536921D01*
X2342459Y-2550288D01*
X2392393Y-2573707D01*
X2416515Y-2587476D01*
X2543903Y-2684397D01*
X2639311Y-2802844D01*
X2701659Y-2936568D01*
X2729870Y-3079317D01*
X2722863Y-3224842D01*
X2679560Y-3366890D01*
X2598882Y-3499213D01*
X2578166Y-3523961D01*
X2486319Y-3613292D01*
X2390090Y-3672072D01*
X2277358Y-3705815D01*
X2148417Y-3719500D01*
X2054800Y-3721825D01*
X1987119Y-3716528D01*
X1929292Y-3701113D01*
X1872807Y-3676732D01*
X1734604Y-3589464D01*
X1629934Y-3476921D01*
X1560326Y-3341539D01*
X1527307Y-3185754D01*
X1524672Y-3122084D01*
X1539842Y-2969944D01*
X1587178Y-2839844D01*
X1670292Y-2722571D01*
X1689200Y-2702248D01*
X1775159Y-2623069D01*
X1859189Y-2571374D01*
X1953951Y-2542170D01*
X2072109Y-2530467D01*
X2127250Y-2529569D01*
X2223339Y-2530912D01*
G37*
X2223339Y-2530912D02*
X2290591Y-2536921D01*
X2342459Y-2550288D01*
X2392393Y-2573707D01*
X2416515Y-2587476D01*
X2543903Y-2684397D01*
X2639311Y-2802844D01*
X2701659Y-2936568D01*
X2729870Y-3079317D01*
X2722863Y-3224842D01*
X2679560Y-3366890D01*
X2598882Y-3499213D01*
X2578166Y-3523961D01*
X2486319Y-3613292D01*
X2390090Y-3672072D01*
X2277358Y-3705815D01*
X2148417Y-3719500D01*
X2054800Y-3721825D01*
X1987119Y-3716528D01*
X1929292Y-3701113D01*
X1872807Y-3676732D01*
X1734604Y-3589464D01*
X1629934Y-3476921D01*
X1560326Y-3341539D01*
X1527307Y-3185754D01*
X1524672Y-3122084D01*
X1539842Y-2969944D01*
X1587178Y-2839844D01*
X1670292Y-2722571D01*
X1689200Y-2702248D01*
X1775159Y-2623069D01*
X1859189Y-2571374D01*
X1953951Y-2542170D01*
X2072109Y-2530467D01*
X2127250Y-2529569D01*
X2223339Y-2530912D01*
G36*
X-567318Y3662346D02*
G01*
X-325016Y3603548D01*
X-106323Y3512603D01*
X87031Y3390255D01*
X253316Y3237245D01*
X390802Y3054319D01*
X408000Y3025772D01*
X465884Y2911097D01*
X521780Y2772833D01*
X568909Y2629454D01*
X599837Y2502958D01*
X612775Y2434166D01*
X142346Y2434217D01*
X-328083Y2434267D01*
X-389429Y2551670D01*
X-479558Y2682001D01*
X-594796Y2780261D01*
X-731186Y2845153D01*
X-884771Y2875385D01*
X-1051594Y2869660D01*
X-1227698Y2826685D01*
X-1228852Y2826286D01*
X-1340626Y2772603D01*
X-1437177Y2693104D01*
X-1519501Y2585468D01*
X-1588591Y2447376D01*
X-1645444Y2276508D01*
X-1691056Y2070545D01*
X-1726420Y1827166D01*
X-1746772Y1619250D01*
X-1760591Y1449916D01*
X-1679337Y1527211D01*
X-1555860Y1627973D01*
X-1410053Y1720802D01*
X-1259622Y1795186D01*
X-1175629Y1826240D01*
X-1101239Y1847068D01*
X-1028416Y1860717D01*
X-945195Y1868473D01*
X-839610Y1871620D01*
X-751416Y1871794D01*
X-630696Y1870265D01*
X-540043Y1865825D01*
X-467208Y1856830D01*
X-399943Y1841637D01*
X-326001Y1818600D01*
X-307120Y1812143D01*
X-136431Y1743085D01*
X10273Y1659316D01*
X146581Y1551921D01*
X259944Y1440171D01*
X410654Y1249567D01*
X530113Y1033350D01*
X617545Y795290D01*
X672175Y539157D01*
X693230Y268719D01*
X679932Y-12254D01*
X631509Y-299994D01*
X624135Y-331359D01*
X554879Y-542620D01*
X451956Y-754429D01*
X322362Y-955561D01*
X173094Y-1134793D01*
X52917Y-1247698D01*
X-60770Y-1328392D01*
X-201251Y-1407260D01*
X-353329Y-1477115D01*
X-501804Y-1530768D01*
X-597066Y-1555155D01*
X-720930Y-1572448D01*
X-870572Y-1582257D01*
X-1031350Y-1584578D01*
X-1188621Y-1579405D01*
X-1327741Y-1566734D01*
X-1397000Y-1555410D01*
X-1638411Y-1487751D01*
X-1856312Y-1387052D01*
X-2057096Y-1250239D01*
X-2093006Y-1220613D01*
X-2243316Y-1072697D01*
X-2372807Y-900467D01*
X-2482323Y-701598D01*
X-2572710Y-473762D01*
X-2644813Y-214635D01*
X-2699476Y78109D01*
X-2703386Y111873D01*
X-1767281Y111873D01*
X-1743437Y-79452D01*
X-1688960Y-254562D01*
X-1606093Y-409009D01*
X-1497078Y-538343D01*
X-1364160Y-638115D01*
X-1251325Y-690445D01*
X-1144623Y-713914D01*
X-1018549Y-719713D01*
X-890851Y-708587D01*
X-779274Y-681284D01*
X-750032Y-669328D01*
X-595958Y-575392D01*
X-470787Y-451470D01*
X-375567Y-299452D01*
X-311345Y-121228D01*
X-279170Y81311D01*
X-275418Y187094D01*
X-287172Y388155D01*
X-323396Y559950D01*
X-386336Y709244D01*
X-478238Y842803D01*
X-502282Y870431D01*
X-619445Y972113D01*
X-757013Y1038784D01*
X-918618Y1072088D01*
X-954298Y1074899D01*
X-1115655Y1073076D01*
X-1251500Y1044375D01*
X-1371237Y985859D01*
X-1460338Y916876D01*
X-1571770Y802549D01*
X-1653424Y682874D01*
X-1710441Y547464D01*
X-1747961Y385937D01*
X-1758249Y314963D01*
X-1767281Y111873D01*
X-2703386Y111873D01*
X-2737544Y406797D01*
X-2750937Y590623D01*
X-2761661Y920673D01*
X-2755201Y1252702D01*
X-2732354Y1577811D01*
X-2693915Y1887103D01*
X-2640682Y2171682D01*
X-2592571Y2359967D01*
X-2492229Y2644916D01*
X-2366947Y2896505D01*
X-2217231Y3114281D01*
X-2043584Y3297794D01*
X-1846511Y3446593D01*
X-1626518Y3560226D01*
X-1384107Y3638242D01*
X-1119786Y3680189D01*
X-1115830Y3680527D01*
X-831500Y3688253D01*
X-567318Y3662346D01*
G37*
X-567318Y3662346D02*
X-325016Y3603548D01*
X-106323Y3512603D01*
X87031Y3390255D01*
X253316Y3237245D01*
X390802Y3054319D01*
X408000Y3025772D01*
X465884Y2911097D01*
X521780Y2772833D01*
X568909Y2629454D01*
X599837Y2502958D01*
X612775Y2434166D01*
X142346Y2434217D01*
X-328083Y2434267D01*
X-389429Y2551670D01*
X-479558Y2682001D01*
X-594796Y2780261D01*
X-731186Y2845153D01*
X-884771Y2875385D01*
X-1051594Y2869660D01*
X-1227698Y2826685D01*
X-1228852Y2826286D01*
X-1340626Y2772603D01*
X-1437177Y2693104D01*
X-1519501Y2585468D01*
X-1588591Y2447376D01*
X-1645444Y2276508D01*
X-1691056Y2070545D01*
X-1726420Y1827166D01*
X-1746772Y1619250D01*
X-1760591Y1449916D01*
X-1679337Y1527211D01*
X-1555860Y1627973D01*
X-1410053Y1720802D01*
X-1259622Y1795186D01*
X-1175629Y1826240D01*
X-1101239Y1847068D01*
X-1028416Y1860717D01*
X-945195Y1868473D01*
X-839610Y1871620D01*
X-751416Y1871794D01*
X-630696Y1870265D01*
X-540043Y1865825D01*
X-467208Y1856830D01*
X-399943Y1841637D01*
X-326001Y1818600D01*
X-307120Y1812143D01*
X-136431Y1743085D01*
X10273Y1659316D01*
X146581Y1551921D01*
X259944Y1440171D01*
X410654Y1249567D01*
X530113Y1033350D01*
X617545Y795290D01*
X672175Y539157D01*
X693230Y268719D01*
X679932Y-12254D01*
X631509Y-299994D01*
X624135Y-331359D01*
X554879Y-542620D01*
X451956Y-754429D01*
X322362Y-955561D01*
X173094Y-1134793D01*
X52917Y-1247698D01*
X-60770Y-1328392D01*
X-201251Y-1407260D01*
X-353329Y-1477115D01*
X-501804Y-1530768D01*
X-597066Y-1555155D01*
X-720930Y-1572448D01*
X-870572Y-1582257D01*
X-1031350Y-1584578D01*
X-1188621Y-1579405D01*
X-1327741Y-1566734D01*
X-1397000Y-1555410D01*
X-1638411Y-1487751D01*
X-1856312Y-1387052D01*
X-2057096Y-1250239D01*
X-2093006Y-1220613D01*
X-2243316Y-1072697D01*
X-2372807Y-900467D01*
X-2482323Y-701598D01*
X-2572710Y-473762D01*
X-2644813Y-214635D01*
X-2699476Y78109D01*
X-2703386Y111873D01*
X-1767281Y111873D01*
X-1743437Y-79452D01*
X-1688960Y-254562D01*
X-1606093Y-409009D01*
X-1497078Y-538343D01*
X-1364160Y-638115D01*
X-1251325Y-690445D01*
X-1144623Y-713914D01*
X-1018549Y-719713D01*
X-890851Y-708587D01*
X-779274Y-681284D01*
X-750032Y-669328D01*
X-595958Y-575392D01*
X-470787Y-451470D01*
X-375567Y-299452D01*
X-311345Y-121228D01*
X-279170Y81311D01*
X-275418Y187094D01*
X-287172Y388155D01*
X-323396Y559950D01*
X-386336Y709244D01*
X-478238Y842803D01*
X-502282Y870431D01*
X-619445Y972113D01*
X-757013Y1038784D01*
X-918618Y1072088D01*
X-954298Y1074899D01*
X-1115655Y1073076D01*
X-1251500Y1044375D01*
X-1371237Y985859D01*
X-1460338Y916876D01*
X-1571770Y802549D01*
X-1653424Y682874D01*
X-1710441Y547464D01*
X-1747961Y385937D01*
X-1758249Y314963D01*
X-1767281Y111873D01*
X-2703386Y111873D01*
X-2737544Y406797D01*
X-2750937Y590623D01*
X-2761661Y920673D01*
X-2755201Y1252702D01*
X-2732354Y1577811D01*
X-2693915Y1887103D01*
X-2640682Y2171682D01*
X-2592571Y2359967D01*
X-2492229Y2644916D01*
X-2366947Y2896505D01*
X-2217231Y3114281D01*
X-2043584Y3297794D01*
X-1846511Y3446593D01*
X-1626518Y3560226D01*
X-1384107Y3638242D01*
X-1119786Y3680189D01*
X-1115830Y3680527D01*
X-831500Y3688253D01*
X-567318Y3662346D01*
M02*
