G04 #@! TF.GenerationSoftware,KiCad,Pcbnew,5.1.5+dfsg1-2build2*
G04 #@! TF.CreationDate,2021-04-01T21:50:37-04:00*
G04 #@! TF.ProjectId,ocean_tile_blank,6f636561-6e5f-4746-996c-655f626c616e,rev?*
G04 #@! TF.SameCoordinates,Original*
G04 #@! TF.FileFunction,Copper,L1,Top*
G04 #@! TF.FilePolarity,Positive*
%FSLAX46Y46*%
G04 Gerber Fmt 4.6, Leading zero omitted, Abs format (unit mm)*
G04 Created by KiCad (PCBNEW 5.1.5+dfsg1-2build2) date 2021-04-01 21:50:37*
%MOMM*%
%LPD*%
G04 APERTURE LIST*
%ADD10C,0.010000*%
G04 APERTURE END LIST*
D10*
G36*
X691957Y-19208270D02*
G01*
X832573Y-19257879D01*
X967685Y-19349225D01*
X1054940Y-19433272D01*
X1268047Y-19633177D01*
X1505952Y-19799817D01*
X1765499Y-19931717D01*
X2043529Y-20027402D01*
X2336887Y-20085396D01*
X2480273Y-20099286D01*
X2635060Y-20115210D01*
X2756937Y-20142473D01*
X2854566Y-20184416D01*
X2936609Y-20244386D01*
X2985396Y-20294291D01*
X3070753Y-20420613D01*
X3118581Y-20558315D01*
X3129053Y-20700571D01*
X3102345Y-20840553D01*
X3038631Y-20971435D01*
X2965798Y-21060385D01*
X2884051Y-21132067D01*
X2799828Y-21181795D01*
X2704065Y-21212189D01*
X2587700Y-21225865D01*
X2441668Y-21225441D01*
X2400932Y-21223518D01*
X2043990Y-21183850D01*
X1693804Y-21104427D01*
X1355476Y-20986966D01*
X1034109Y-20833184D01*
X784538Y-20679622D01*
X594088Y-20549180D01*
X398714Y-20679864D01*
X88497Y-20864501D01*
X-236121Y-21012091D01*
X-580882Y-21125046D01*
X-769456Y-21170774D01*
X-927245Y-21196329D01*
X-1113872Y-21212885D01*
X-1316942Y-21220440D01*
X-1524063Y-21218988D01*
X-1722842Y-21208528D01*
X-1900886Y-21189054D01*
X-2001618Y-21171133D01*
X-2340254Y-21082071D01*
X-2652942Y-20965508D01*
X-2948818Y-20817632D01*
X-3158210Y-20688540D01*
X-3365500Y-20550542D01*
X-3572790Y-20688540D01*
X-3870905Y-20866342D01*
X-4178667Y-21007781D01*
X-4504964Y-21116579D01*
X-4720166Y-21169210D01*
X-4869960Y-21193589D01*
X-5048204Y-21210289D01*
X-5242795Y-21219197D01*
X-5441629Y-21220197D01*
X-5632602Y-21213176D01*
X-5803612Y-21198020D01*
X-5915315Y-21180485D01*
X-6278000Y-21086934D01*
X-6626238Y-20954356D01*
X-6961695Y-20782006D01*
X-7286039Y-20569139D01*
X-7289939Y-20566286D01*
X-7320630Y-20568930D01*
X-7381044Y-20598222D01*
X-7468955Y-20653036D01*
X-7490655Y-20667654D01*
X-7802879Y-20855649D01*
X-8134550Y-21007266D01*
X-8488045Y-21123510D01*
X-8678333Y-21169677D01*
X-8828171Y-21194126D01*
X-9006821Y-21210797D01*
X-9202060Y-21219583D01*
X-9401664Y-21220372D01*
X-9593411Y-21213056D01*
X-9765076Y-21197525D01*
X-9873482Y-21180382D01*
X-10237094Y-21086675D01*
X-10583794Y-20954632D01*
X-10911681Y-20785037D01*
X-11062149Y-20690307D01*
X-11142884Y-20636514D01*
X-11209341Y-20592589D01*
X-11254485Y-20563158D01*
X-11271250Y-20552834D01*
X-11289105Y-20563858D01*
X-11335072Y-20593846D01*
X-11402113Y-20638171D01*
X-11480226Y-20690223D01*
X-11797445Y-20877597D01*
X-12128721Y-21025156D01*
X-12473024Y-21132560D01*
X-12829322Y-21199469D01*
X-13091583Y-21222325D01*
X-13366750Y-21235120D01*
X-13504333Y-21163402D01*
X-13631517Y-21075484D01*
X-13726072Y-20964714D01*
X-13786469Y-20836965D01*
X-13811176Y-20698109D01*
X-13798662Y-20554018D01*
X-13747395Y-20410566D01*
X-13715333Y-20354108D01*
X-13638754Y-20262379D01*
X-13540691Y-20186702D01*
X-13434619Y-20136146D01*
X-13369293Y-20121223D01*
X-13311323Y-20114801D01*
X-13224658Y-20105510D01*
X-13122718Y-20094778D01*
X-13051977Y-20087433D01*
X-12780015Y-20043572D01*
X-12528694Y-19968855D01*
X-12292526Y-19860629D01*
X-12066023Y-19716241D01*
X-11843699Y-19533041D01*
X-11779250Y-19472299D01*
X-11677562Y-19375969D01*
X-11596490Y-19306352D01*
X-11527798Y-19259186D01*
X-11463250Y-19230206D01*
X-11394608Y-19215150D01*
X-11313637Y-19209754D01*
X-11271250Y-19209341D01*
X-11185802Y-19211468D01*
X-11115556Y-19220583D01*
X-11052702Y-19240793D01*
X-10989431Y-19276202D01*
X-10917932Y-19330918D01*
X-10830395Y-19409044D01*
X-10753876Y-19481311D01*
X-10665860Y-19562617D01*
X-10576266Y-19640711D01*
X-10495649Y-19706657D01*
X-10435166Y-19751124D01*
X-10177215Y-19897043D01*
X-9907520Y-20004123D01*
X-9629698Y-20071846D01*
X-9347366Y-20099695D01*
X-9064141Y-20087154D01*
X-8783640Y-20033705D01*
X-8677914Y-20002363D01*
X-8463175Y-19921203D01*
X-8269511Y-19822898D01*
X-8086301Y-19700890D01*
X-7902925Y-19548618D01*
X-7824840Y-19475544D01*
X-7720812Y-19378127D01*
X-7636927Y-19307699D01*
X-7565250Y-19259565D01*
X-7497848Y-19229033D01*
X-7426787Y-19211406D01*
X-7365497Y-19203758D01*
X-7266105Y-19200755D01*
X-7177637Y-19213679D01*
X-7092428Y-19246209D01*
X-7002815Y-19302027D01*
X-6901134Y-19384811D01*
X-6806989Y-19471931D01*
X-6688686Y-19582779D01*
X-6589095Y-19669320D01*
X-6498581Y-19738688D01*
X-6407507Y-19798015D01*
X-6306239Y-19854437D01*
X-6254750Y-19880792D01*
X-5983670Y-19994042D01*
X-5705461Y-20066442D01*
X-5423309Y-20098200D01*
X-5140398Y-20089524D01*
X-4859914Y-20040622D01*
X-4585043Y-19951700D01*
X-4318970Y-19822968D01*
X-4194314Y-19746436D01*
X-4123479Y-19694399D01*
X-4035736Y-19622089D01*
X-3943333Y-19539928D01*
X-3874278Y-19474103D01*
X-3767113Y-19372494D01*
X-3677661Y-19299550D01*
X-3597675Y-19250501D01*
X-3518906Y-19220575D01*
X-3433106Y-19205000D01*
X-3404626Y-19202402D01*
X-3298268Y-19201342D01*
X-3204433Y-19218221D01*
X-3114744Y-19257019D01*
X-3020824Y-19321712D01*
X-2914296Y-19416278D01*
X-2876478Y-19453199D01*
X-2646204Y-19658426D01*
X-2409195Y-19822701D01*
X-2162675Y-19947217D01*
X-1903871Y-20033168D01*
X-1630006Y-20081750D01*
X-1386416Y-20094553D01*
X-1161903Y-20085576D01*
X-960299Y-20055775D01*
X-765898Y-20001675D01*
X-562995Y-19919801D01*
X-532309Y-19905593D01*
X-372203Y-19823510D01*
X-228416Y-19733350D01*
X-89271Y-19626730D01*
X56910Y-19495268D01*
X106919Y-19446744D01*
X201486Y-19357342D01*
X277130Y-19295197D01*
X341473Y-19254586D01*
X391148Y-19233340D01*
X545071Y-19200167D01*
X691957Y-19208270D01*
G37*
X691957Y-19208270D02*
X832573Y-19257879D01*
X967685Y-19349225D01*
X1054940Y-19433272D01*
X1268047Y-19633177D01*
X1505952Y-19799817D01*
X1765499Y-19931717D01*
X2043529Y-20027402D01*
X2336887Y-20085396D01*
X2480273Y-20099286D01*
X2635060Y-20115210D01*
X2756937Y-20142473D01*
X2854566Y-20184416D01*
X2936609Y-20244386D01*
X2985396Y-20294291D01*
X3070753Y-20420613D01*
X3118581Y-20558315D01*
X3129053Y-20700571D01*
X3102345Y-20840553D01*
X3038631Y-20971435D01*
X2965798Y-21060385D01*
X2884051Y-21132067D01*
X2799828Y-21181795D01*
X2704065Y-21212189D01*
X2587700Y-21225865D01*
X2441668Y-21225441D01*
X2400932Y-21223518D01*
X2043990Y-21183850D01*
X1693804Y-21104427D01*
X1355476Y-20986966D01*
X1034109Y-20833184D01*
X784538Y-20679622D01*
X594088Y-20549180D01*
X398714Y-20679864D01*
X88497Y-20864501D01*
X-236121Y-21012091D01*
X-580882Y-21125046D01*
X-769456Y-21170774D01*
X-927245Y-21196329D01*
X-1113872Y-21212885D01*
X-1316942Y-21220440D01*
X-1524063Y-21218988D01*
X-1722842Y-21208528D01*
X-1900886Y-21189054D01*
X-2001618Y-21171133D01*
X-2340254Y-21082071D01*
X-2652942Y-20965508D01*
X-2948818Y-20817632D01*
X-3158210Y-20688540D01*
X-3365500Y-20550542D01*
X-3572790Y-20688540D01*
X-3870905Y-20866342D01*
X-4178667Y-21007781D01*
X-4504964Y-21116579D01*
X-4720166Y-21169210D01*
X-4869960Y-21193589D01*
X-5048204Y-21210289D01*
X-5242795Y-21219197D01*
X-5441629Y-21220197D01*
X-5632602Y-21213176D01*
X-5803612Y-21198020D01*
X-5915315Y-21180485D01*
X-6278000Y-21086934D01*
X-6626238Y-20954356D01*
X-6961695Y-20782006D01*
X-7286039Y-20569139D01*
X-7289939Y-20566286D01*
X-7320630Y-20568930D01*
X-7381044Y-20598222D01*
X-7468955Y-20653036D01*
X-7490655Y-20667654D01*
X-7802879Y-20855649D01*
X-8134550Y-21007266D01*
X-8488045Y-21123510D01*
X-8678333Y-21169677D01*
X-8828171Y-21194126D01*
X-9006821Y-21210797D01*
X-9202060Y-21219583D01*
X-9401664Y-21220372D01*
X-9593411Y-21213056D01*
X-9765076Y-21197525D01*
X-9873482Y-21180382D01*
X-10237094Y-21086675D01*
X-10583794Y-20954632D01*
X-10911681Y-20785037D01*
X-11062149Y-20690307D01*
X-11142884Y-20636514D01*
X-11209341Y-20592589D01*
X-11254485Y-20563158D01*
X-11271250Y-20552834D01*
X-11289105Y-20563858D01*
X-11335072Y-20593846D01*
X-11402113Y-20638171D01*
X-11480226Y-20690223D01*
X-11797445Y-20877597D01*
X-12128721Y-21025156D01*
X-12473024Y-21132560D01*
X-12829322Y-21199469D01*
X-13091583Y-21222325D01*
X-13366750Y-21235120D01*
X-13504333Y-21163402D01*
X-13631517Y-21075484D01*
X-13726072Y-20964714D01*
X-13786469Y-20836965D01*
X-13811176Y-20698109D01*
X-13798662Y-20554018D01*
X-13747395Y-20410566D01*
X-13715333Y-20354108D01*
X-13638754Y-20262379D01*
X-13540691Y-20186702D01*
X-13434619Y-20136146D01*
X-13369293Y-20121223D01*
X-13311323Y-20114801D01*
X-13224658Y-20105510D01*
X-13122718Y-20094778D01*
X-13051977Y-20087433D01*
X-12780015Y-20043572D01*
X-12528694Y-19968855D01*
X-12292526Y-19860629D01*
X-12066023Y-19716241D01*
X-11843699Y-19533041D01*
X-11779250Y-19472299D01*
X-11677562Y-19375969D01*
X-11596490Y-19306352D01*
X-11527798Y-19259186D01*
X-11463250Y-19230206D01*
X-11394608Y-19215150D01*
X-11313637Y-19209754D01*
X-11271250Y-19209341D01*
X-11185802Y-19211468D01*
X-11115556Y-19220583D01*
X-11052702Y-19240793D01*
X-10989431Y-19276202D01*
X-10917932Y-19330918D01*
X-10830395Y-19409044D01*
X-10753876Y-19481311D01*
X-10665860Y-19562617D01*
X-10576266Y-19640711D01*
X-10495649Y-19706657D01*
X-10435166Y-19751124D01*
X-10177215Y-19897043D01*
X-9907520Y-20004123D01*
X-9629698Y-20071846D01*
X-9347366Y-20099695D01*
X-9064141Y-20087154D01*
X-8783640Y-20033705D01*
X-8677914Y-20002363D01*
X-8463175Y-19921203D01*
X-8269511Y-19822898D01*
X-8086301Y-19700890D01*
X-7902925Y-19548618D01*
X-7824840Y-19475544D01*
X-7720812Y-19378127D01*
X-7636927Y-19307699D01*
X-7565250Y-19259565D01*
X-7497848Y-19229033D01*
X-7426787Y-19211406D01*
X-7365497Y-19203758D01*
X-7266105Y-19200755D01*
X-7177637Y-19213679D01*
X-7092428Y-19246209D01*
X-7002815Y-19302027D01*
X-6901134Y-19384811D01*
X-6806989Y-19471931D01*
X-6688686Y-19582779D01*
X-6589095Y-19669320D01*
X-6498581Y-19738688D01*
X-6407507Y-19798015D01*
X-6306239Y-19854437D01*
X-6254750Y-19880792D01*
X-5983670Y-19994042D01*
X-5705461Y-20066442D01*
X-5423309Y-20098200D01*
X-5140398Y-20089524D01*
X-4859914Y-20040622D01*
X-4585043Y-19951700D01*
X-4318970Y-19822968D01*
X-4194314Y-19746436D01*
X-4123479Y-19694399D01*
X-4035736Y-19622089D01*
X-3943333Y-19539928D01*
X-3874278Y-19474103D01*
X-3767113Y-19372494D01*
X-3677661Y-19299550D01*
X-3597675Y-19250501D01*
X-3518906Y-19220575D01*
X-3433106Y-19205000D01*
X-3404626Y-19202402D01*
X-3298268Y-19201342D01*
X-3204433Y-19218221D01*
X-3114744Y-19257019D01*
X-3020824Y-19321712D01*
X-2914296Y-19416278D01*
X-2876478Y-19453199D01*
X-2646204Y-19658426D01*
X-2409195Y-19822701D01*
X-2162675Y-19947217D01*
X-1903871Y-20033168D01*
X-1630006Y-20081750D01*
X-1386416Y-20094553D01*
X-1161903Y-20085576D01*
X-960299Y-20055775D01*
X-765898Y-20001675D01*
X-562995Y-19919801D01*
X-532309Y-19905593D01*
X-372203Y-19823510D01*
X-228416Y-19733350D01*
X-89271Y-19626730D01*
X56910Y-19495268D01*
X106919Y-19446744D01*
X201486Y-19357342D01*
X277130Y-19295197D01*
X341473Y-19254586D01*
X391148Y-19233340D01*
X545071Y-19200167D01*
X691957Y-19208270D01*
G36*
X6425248Y-12515778D02*
G01*
X6511316Y-12537531D01*
X6595342Y-12579142D01*
X6685633Y-12644991D01*
X6790493Y-12739462D01*
X6821121Y-12769207D01*
X7058332Y-12975911D01*
X7308025Y-13143166D01*
X7568564Y-13270556D01*
X7838313Y-13357660D01*
X8115638Y-13404061D01*
X8398902Y-13409340D01*
X8686471Y-13373078D01*
X8932334Y-13309515D01*
X9134509Y-13232983D01*
X9323003Y-13135109D01*
X9506507Y-13010462D01*
X9693708Y-12853608D01*
X9759043Y-12792644D01*
X9864126Y-12694740D01*
X9948514Y-12623510D01*
X10020133Y-12574435D01*
X10086906Y-12542995D01*
X10156761Y-12524672D01*
X10237622Y-12514947D01*
X10247348Y-12514221D01*
X10374126Y-12517689D01*
X10489304Y-12549816D01*
X10600676Y-12614172D01*
X10716038Y-12714329D01*
X10742084Y-12740852D01*
X10967270Y-12946662D01*
X11213204Y-13117522D01*
X11476542Y-13251441D01*
X11753944Y-13346426D01*
X11760797Y-13348224D01*
X11970398Y-13388300D01*
X12196648Y-13406251D01*
X12423963Y-13401886D01*
X12636757Y-13375013D01*
X12706498Y-13359868D01*
X12958743Y-13283694D01*
X13187968Y-13182987D01*
X13402761Y-13052894D01*
X13611711Y-12888560D01*
X13724152Y-12784827D01*
X13838434Y-12679314D01*
X13934866Y-12603375D01*
X14021180Y-12552853D01*
X14105106Y-12523591D01*
X14194376Y-12511435D01*
X14234584Y-12510430D01*
X14329331Y-12516929D01*
X14415507Y-12539214D01*
X14500941Y-12581467D01*
X14593461Y-12647870D01*
X14700897Y-12742605D01*
X14741286Y-12781116D01*
X14830146Y-12863708D01*
X14923800Y-12945250D01*
X15010126Y-13015465D01*
X15068087Y-13058160D01*
X15310677Y-13197803D01*
X15576213Y-13304449D01*
X15858903Y-13376184D01*
X16132773Y-13409929D01*
X16305396Y-13430011D01*
X16443454Y-13467636D01*
X16551664Y-13524568D01*
X16628793Y-13595373D01*
X16713827Y-13725746D01*
X16760704Y-13865369D01*
X16770634Y-14007928D01*
X16744828Y-14147110D01*
X16684496Y-14276599D01*
X16590850Y-14390081D01*
X16465101Y-14481244D01*
X16458203Y-14484990D01*
X16417953Y-14504189D01*
X16375978Y-14517053D01*
X16323034Y-14524693D01*
X16249877Y-14528222D01*
X16147262Y-14528749D01*
X16097250Y-14528381D01*
X15781695Y-14505892D01*
X15460794Y-14445925D01*
X15142612Y-14351154D01*
X14835218Y-14224251D01*
X14546679Y-14067891D01*
X14386468Y-13961411D01*
X14233522Y-13851677D01*
X14109706Y-13942812D01*
X13830236Y-14123299D01*
X13525528Y-14273820D01*
X13202064Y-14392446D01*
X12866322Y-14477251D01*
X12524782Y-14526305D01*
X12183924Y-14537683D01*
X12117917Y-14535340D01*
X11752089Y-14497174D01*
X11395740Y-14418133D01*
X11051550Y-14299101D01*
X10722199Y-14140967D01*
X10482183Y-13994315D01*
X10403572Y-13941907D01*
X10338825Y-13899589D01*
X10295380Y-13872169D01*
X10280775Y-13864167D01*
X10261158Y-13875226D01*
X10213662Y-13905304D01*
X10145508Y-13949750D01*
X10067441Y-14001556D01*
X9752000Y-14187128D01*
X9416851Y-14335626D01*
X9064400Y-14446075D01*
X8858250Y-14491341D01*
X8692810Y-14514276D01*
X8501236Y-14527771D01*
X8296347Y-14531930D01*
X8090961Y-14526859D01*
X7897899Y-14512665D01*
X7729978Y-14489453D01*
X7690956Y-14481726D01*
X7334072Y-14386356D01*
X6999544Y-14257002D01*
X6681432Y-14091167D01*
X6520549Y-13989701D01*
X6416565Y-13923448D01*
X6344346Y-13885052D01*
X6303815Y-13874474D01*
X6297824Y-13876718D01*
X6089527Y-14020465D01*
X5854344Y-14156292D01*
X5607722Y-14276177D01*
X5365108Y-14372096D01*
X5306982Y-14391362D01*
X5123557Y-14444959D01*
X4953321Y-14483630D01*
X4783117Y-14509267D01*
X4599788Y-14523765D01*
X4390175Y-14529016D01*
X4349750Y-14529126D01*
X4134176Y-14525300D01*
X3947191Y-14512559D01*
X3775638Y-14489011D01*
X3606359Y-14452762D01*
X3426196Y-14401917D01*
X3392518Y-14391362D01*
X3089082Y-14275816D01*
X2783632Y-14121962D01*
X2482362Y-13933020D01*
X2402967Y-13876718D01*
X2373293Y-13877964D01*
X2314819Y-13905049D01*
X2226160Y-13958672D01*
X2178952Y-13989701D01*
X1862159Y-14177663D01*
X1532472Y-14327021D01*
X1192774Y-14436815D01*
X845947Y-14506082D01*
X551437Y-14532236D01*
X424035Y-14535046D01*
X328298Y-14531735D01*
X253904Y-14521597D01*
X204048Y-14508496D01*
X84289Y-14448764D01*
X-18565Y-14356400D01*
X-98877Y-14239580D01*
X-151011Y-14106477D01*
X-169333Y-13966952D01*
X-151629Y-13846529D01*
X-103441Y-13723660D01*
X-32157Y-13614817D01*
X7315Y-13573106D01*
X74711Y-13518648D01*
X148031Y-13477429D01*
X235715Y-13446720D01*
X346200Y-13423792D01*
X487927Y-13405917D01*
X539750Y-13400955D01*
X825630Y-13359323D01*
X1087421Y-13287001D01*
X1330678Y-13181365D01*
X1560952Y-13039794D01*
X1783796Y-12859666D01*
X1880651Y-12767791D01*
X1990127Y-12665018D01*
X2083366Y-12592250D01*
X2168761Y-12545065D01*
X2254707Y-12519036D01*
X2349596Y-12509741D01*
X2370667Y-12509500D01*
X2465043Y-12515446D01*
X2550114Y-12536059D01*
X2633728Y-12575502D01*
X2723737Y-12637937D01*
X2827988Y-12727527D01*
X2887857Y-12783756D01*
X3006135Y-12894568D01*
X3105741Y-12981078D01*
X3196335Y-13050438D01*
X3287581Y-13109801D01*
X3389140Y-13166317D01*
X3439584Y-13192125D01*
X3687348Y-13296202D01*
X3947631Y-13367941D01*
X4211166Y-13405614D01*
X4468686Y-13407494D01*
X4553304Y-13399663D01*
X4730966Y-13373520D01*
X4884248Y-13338710D01*
X5030945Y-13290231D01*
X5188851Y-13223082D01*
X5200189Y-13217830D01*
X5322459Y-13158298D01*
X5425855Y-13100608D01*
X5520351Y-13037679D01*
X5615923Y-12962432D01*
X5722546Y-12867783D01*
X5811644Y-12783756D01*
X5925952Y-12679041D01*
X6022095Y-12603560D01*
X6107922Y-12553151D01*
X6191284Y-12523651D01*
X6280030Y-12510898D01*
X6328833Y-12509500D01*
X6425248Y-12515778D01*
G37*
X6425248Y-12515778D02*
X6511316Y-12537531D01*
X6595342Y-12579142D01*
X6685633Y-12644991D01*
X6790493Y-12739462D01*
X6821121Y-12769207D01*
X7058332Y-12975911D01*
X7308025Y-13143166D01*
X7568564Y-13270556D01*
X7838313Y-13357660D01*
X8115638Y-13404061D01*
X8398902Y-13409340D01*
X8686471Y-13373078D01*
X8932334Y-13309515D01*
X9134509Y-13232983D01*
X9323003Y-13135109D01*
X9506507Y-13010462D01*
X9693708Y-12853608D01*
X9759043Y-12792644D01*
X9864126Y-12694740D01*
X9948514Y-12623510D01*
X10020133Y-12574435D01*
X10086906Y-12542995D01*
X10156761Y-12524672D01*
X10237622Y-12514947D01*
X10247348Y-12514221D01*
X10374126Y-12517689D01*
X10489304Y-12549816D01*
X10600676Y-12614172D01*
X10716038Y-12714329D01*
X10742084Y-12740852D01*
X10967270Y-12946662D01*
X11213204Y-13117522D01*
X11476542Y-13251441D01*
X11753944Y-13346426D01*
X11760797Y-13348224D01*
X11970398Y-13388300D01*
X12196648Y-13406251D01*
X12423963Y-13401886D01*
X12636757Y-13375013D01*
X12706498Y-13359868D01*
X12958743Y-13283694D01*
X13187968Y-13182987D01*
X13402761Y-13052894D01*
X13611711Y-12888560D01*
X13724152Y-12784827D01*
X13838434Y-12679314D01*
X13934866Y-12603375D01*
X14021180Y-12552853D01*
X14105106Y-12523591D01*
X14194376Y-12511435D01*
X14234584Y-12510430D01*
X14329331Y-12516929D01*
X14415507Y-12539214D01*
X14500941Y-12581467D01*
X14593461Y-12647870D01*
X14700897Y-12742605D01*
X14741286Y-12781116D01*
X14830146Y-12863708D01*
X14923800Y-12945250D01*
X15010126Y-13015465D01*
X15068087Y-13058160D01*
X15310677Y-13197803D01*
X15576213Y-13304449D01*
X15858903Y-13376184D01*
X16132773Y-13409929D01*
X16305396Y-13430011D01*
X16443454Y-13467636D01*
X16551664Y-13524568D01*
X16628793Y-13595373D01*
X16713827Y-13725746D01*
X16760704Y-13865369D01*
X16770634Y-14007928D01*
X16744828Y-14147110D01*
X16684496Y-14276599D01*
X16590850Y-14390081D01*
X16465101Y-14481244D01*
X16458203Y-14484990D01*
X16417953Y-14504189D01*
X16375978Y-14517053D01*
X16323034Y-14524693D01*
X16249877Y-14528222D01*
X16147262Y-14528749D01*
X16097250Y-14528381D01*
X15781695Y-14505892D01*
X15460794Y-14445925D01*
X15142612Y-14351154D01*
X14835218Y-14224251D01*
X14546679Y-14067891D01*
X14386468Y-13961411D01*
X14233522Y-13851677D01*
X14109706Y-13942812D01*
X13830236Y-14123299D01*
X13525528Y-14273820D01*
X13202064Y-14392446D01*
X12866322Y-14477251D01*
X12524782Y-14526305D01*
X12183924Y-14537683D01*
X12117917Y-14535340D01*
X11752089Y-14497174D01*
X11395740Y-14418133D01*
X11051550Y-14299101D01*
X10722199Y-14140967D01*
X10482183Y-13994315D01*
X10403572Y-13941907D01*
X10338825Y-13899589D01*
X10295380Y-13872169D01*
X10280775Y-13864167D01*
X10261158Y-13875226D01*
X10213662Y-13905304D01*
X10145508Y-13949750D01*
X10067441Y-14001556D01*
X9752000Y-14187128D01*
X9416851Y-14335626D01*
X9064400Y-14446075D01*
X8858250Y-14491341D01*
X8692810Y-14514276D01*
X8501236Y-14527771D01*
X8296347Y-14531930D01*
X8090961Y-14526859D01*
X7897899Y-14512665D01*
X7729978Y-14489453D01*
X7690956Y-14481726D01*
X7334072Y-14386356D01*
X6999544Y-14257002D01*
X6681432Y-14091167D01*
X6520549Y-13989701D01*
X6416565Y-13923448D01*
X6344346Y-13885052D01*
X6303815Y-13874474D01*
X6297824Y-13876718D01*
X6089527Y-14020465D01*
X5854344Y-14156292D01*
X5607722Y-14276177D01*
X5365108Y-14372096D01*
X5306982Y-14391362D01*
X5123557Y-14444959D01*
X4953321Y-14483630D01*
X4783117Y-14509267D01*
X4599788Y-14523765D01*
X4390175Y-14529016D01*
X4349750Y-14529126D01*
X4134176Y-14525300D01*
X3947191Y-14512559D01*
X3775638Y-14489011D01*
X3606359Y-14452762D01*
X3426196Y-14401917D01*
X3392518Y-14391362D01*
X3089082Y-14275816D01*
X2783632Y-14121962D01*
X2482362Y-13933020D01*
X2402967Y-13876718D01*
X2373293Y-13877964D01*
X2314819Y-13905049D01*
X2226160Y-13958672D01*
X2178952Y-13989701D01*
X1862159Y-14177663D01*
X1532472Y-14327021D01*
X1192774Y-14436815D01*
X845947Y-14506082D01*
X551437Y-14532236D01*
X424035Y-14535046D01*
X328298Y-14531735D01*
X253904Y-14521597D01*
X204048Y-14508496D01*
X84289Y-14448764D01*
X-18565Y-14356400D01*
X-98877Y-14239580D01*
X-151011Y-14106477D01*
X-169333Y-13966952D01*
X-151629Y-13846529D01*
X-103441Y-13723660D01*
X-32157Y-13614817D01*
X7315Y-13573106D01*
X74711Y-13518648D01*
X148031Y-13477429D01*
X235715Y-13446720D01*
X346200Y-13423792D01*
X487927Y-13405917D01*
X539750Y-13400955D01*
X825630Y-13359323D01*
X1087421Y-13287001D01*
X1330678Y-13181365D01*
X1560952Y-13039794D01*
X1783796Y-12859666D01*
X1880651Y-12767791D01*
X1990127Y-12665018D01*
X2083366Y-12592250D01*
X2168761Y-12545065D01*
X2254707Y-12519036D01*
X2349596Y-12509741D01*
X2370667Y-12509500D01*
X2465043Y-12515446D01*
X2550114Y-12536059D01*
X2633728Y-12575502D01*
X2723737Y-12637937D01*
X2827988Y-12727527D01*
X2887857Y-12783756D01*
X3006135Y-12894568D01*
X3105741Y-12981078D01*
X3196335Y-13050438D01*
X3287581Y-13109801D01*
X3389140Y-13166317D01*
X3439584Y-13192125D01*
X3687348Y-13296202D01*
X3947631Y-13367941D01*
X4211166Y-13405614D01*
X4468686Y-13407494D01*
X4553304Y-13399663D01*
X4730966Y-13373520D01*
X4884248Y-13338710D01*
X5030945Y-13290231D01*
X5188851Y-13223082D01*
X5200189Y-13217830D01*
X5322459Y-13158298D01*
X5425855Y-13100608D01*
X5520351Y-13037679D01*
X5615923Y-12962432D01*
X5722546Y-12867783D01*
X5811644Y-12783756D01*
X5925952Y-12679041D01*
X6022095Y-12603560D01*
X6107922Y-12553151D01*
X6191284Y-12523651D01*
X6280030Y-12510898D01*
X6328833Y-12509500D01*
X6425248Y-12515778D01*
G36*
X-15533893Y-6224295D02*
G01*
X-15497025Y-6234646D01*
X-15444883Y-6253724D01*
X-15393216Y-6281995D01*
X-15334567Y-6324894D01*
X-15261476Y-6387854D01*
X-15170213Y-6472771D01*
X-15031467Y-6599782D01*
X-14907960Y-6701214D01*
X-14788777Y-6784773D01*
X-14663004Y-6858169D01*
X-14532367Y-6923212D01*
X-14342672Y-7001669D01*
X-14156778Y-7055152D01*
X-13961245Y-7086479D01*
X-13742634Y-7098466D01*
X-13694833Y-7098791D01*
X-13474241Y-7090756D01*
X-13279003Y-7064599D01*
X-13094902Y-7017237D01*
X-12907722Y-6945588D01*
X-12835082Y-6912421D01*
X-12716355Y-6853851D01*
X-12616212Y-6797886D01*
X-12525003Y-6737648D01*
X-12433078Y-6666254D01*
X-12330789Y-6576826D01*
X-12221778Y-6475127D01*
X-12127351Y-6387228D01*
X-12054678Y-6324645D01*
X-11996379Y-6281986D01*
X-11945072Y-6253857D01*
X-11893374Y-6234864D01*
X-11892641Y-6234646D01*
X-11779386Y-6208364D01*
X-11679969Y-6205176D01*
X-11572752Y-6225077D01*
X-11539080Y-6234580D01*
X-11489935Y-6252421D01*
X-11440892Y-6278739D01*
X-11385150Y-6318575D01*
X-11315907Y-6376973D01*
X-11226359Y-6458974D01*
X-11189293Y-6493872D01*
X-11092835Y-6581568D01*
X-10992974Y-6666313D01*
X-10899733Y-6739978D01*
X-10823135Y-6794438D01*
X-10803596Y-6806587D01*
X-10534071Y-6942562D01*
X-10256877Y-7038031D01*
X-9974544Y-7092681D01*
X-9689597Y-7106198D01*
X-9404565Y-7078270D01*
X-9136284Y-7013152D01*
X-8923982Y-6934730D01*
X-8729689Y-6837097D01*
X-8543904Y-6714388D01*
X-8357127Y-6560735D01*
X-8265583Y-6475473D01*
X-8163194Y-6379117D01*
X-8081527Y-6309510D01*
X-8012498Y-6262384D01*
X-7948019Y-6233469D01*
X-7880006Y-6218497D01*
X-7800372Y-6213197D01*
X-7768166Y-6212837D01*
X-7664851Y-6218078D01*
X-7576003Y-6237428D01*
X-7492832Y-6275428D01*
X-7406546Y-6336619D01*
X-7308352Y-6425541D01*
X-7256890Y-6476879D01*
X-7031437Y-6676531D01*
X-6782157Y-6841833D01*
X-6512371Y-6970905D01*
X-6225400Y-7061868D01*
X-6220973Y-7062935D01*
X-6100785Y-7083423D01*
X-5953386Y-7095905D01*
X-5792244Y-7100378D01*
X-5630825Y-7096839D01*
X-5482596Y-7085285D01*
X-5361024Y-7065713D01*
X-5350143Y-7063141D01*
X-5064199Y-6973213D01*
X-4800838Y-6848836D01*
X-4556204Y-6687853D01*
X-4334101Y-6495613D01*
X-4226922Y-6393785D01*
X-4140103Y-6319453D01*
X-4065902Y-6268448D01*
X-3996581Y-6236603D01*
X-3924400Y-6219751D01*
X-3841617Y-6213722D01*
X-3810000Y-6213398D01*
X-3715579Y-6217533D01*
X-3635066Y-6232845D01*
X-3560179Y-6263698D01*
X-3482636Y-6314453D01*
X-3394155Y-6389472D01*
X-3294946Y-6484688D01*
X-3076110Y-6678511D01*
X-2847531Y-6834153D01*
X-2604414Y-6953767D01*
X-2341964Y-7039504D01*
X-2055383Y-7093518D01*
X-1903443Y-7109153D01*
X-1768761Y-7122421D01*
X-1666381Y-7140530D01*
X-1586293Y-7166926D01*
X-1518488Y-7205057D01*
X-1452956Y-7258371D01*
X-1442770Y-7267828D01*
X-1362516Y-7357413D01*
X-1312138Y-7452223D01*
X-1286802Y-7564383D01*
X-1281316Y-7672917D01*
X-1290288Y-7807381D01*
X-1320617Y-7914973D01*
X-1377420Y-8007912D01*
X-1455716Y-8089410D01*
X-1531413Y-8150073D01*
X-1608038Y-8192121D01*
X-1694888Y-8217946D01*
X-1801257Y-8229941D01*
X-1936441Y-8230497D01*
X-1995438Y-8228290D01*
X-2353919Y-8191155D01*
X-2704716Y-8113034D01*
X-3044788Y-7995020D01*
X-3371099Y-7838204D01*
X-3680609Y-7643679D01*
X-3738013Y-7601991D01*
X-3803610Y-7553263D01*
X-3978170Y-7672125D01*
X-4283318Y-7855682D01*
X-4611424Y-8008026D01*
X-4952938Y-8125065D01*
X-5150095Y-8174445D01*
X-5288475Y-8197118D01*
X-5456585Y-8213208D01*
X-5643027Y-8222612D01*
X-5836398Y-8225232D01*
X-6025298Y-8220965D01*
X-6198325Y-8209711D01*
X-6344079Y-8191371D01*
X-6376879Y-8185271D01*
X-6726561Y-8093513D01*
X-7068121Y-7962804D01*
X-7393433Y-7796524D01*
X-7559359Y-7693217D01*
X-7765131Y-7556229D01*
X-7966628Y-7692844D01*
X-8277934Y-7879415D01*
X-8602995Y-8026136D01*
X-8942598Y-8133265D01*
X-9297532Y-8201057D01*
X-9610990Y-8227908D01*
X-9974958Y-8222741D01*
X-10330951Y-8178364D01*
X-10675496Y-8095783D01*
X-11005118Y-7976000D01*
X-11316344Y-7820019D01*
X-11554813Y-7666219D01*
X-11645112Y-7605543D01*
X-11707162Y-7573213D01*
X-11739900Y-7569781D01*
X-11740303Y-7570049D01*
X-11990403Y-7735839D01*
X-12225195Y-7871812D01*
X-12454352Y-7982326D01*
X-12687549Y-8071740D01*
X-12934457Y-8144414D01*
X-13102166Y-8183728D01*
X-13220717Y-8202313D01*
X-13370342Y-8215369D01*
X-13540186Y-8222897D01*
X-13719395Y-8224898D01*
X-13897113Y-8221374D01*
X-14062486Y-8212324D01*
X-14204660Y-8197749D01*
X-14287500Y-8183635D01*
X-14649574Y-8087402D01*
X-14985080Y-7959879D01*
X-15297453Y-7799640D01*
X-15462250Y-7695966D01*
X-15555409Y-7635889D01*
X-15629281Y-7593580D01*
X-15678634Y-7571832D01*
X-15696647Y-7570863D01*
X-15894755Y-7708757D01*
X-16117994Y-7840884D01*
X-16349333Y-7957663D01*
X-16497574Y-8021435D01*
X-16657681Y-8077936D01*
X-16832557Y-8127353D01*
X-17014979Y-8168690D01*
X-17197723Y-8200949D01*
X-17373569Y-8223135D01*
X-17535293Y-8234252D01*
X-17675672Y-8233303D01*
X-17787484Y-8219292D01*
X-17833907Y-8205765D01*
X-17958140Y-8140549D01*
X-18064257Y-8051165D01*
X-18144583Y-7945896D01*
X-18191442Y-7833024D01*
X-18195097Y-7816016D01*
X-18203460Y-7720005D01*
X-18198095Y-7612127D01*
X-18181026Y-7508324D01*
X-18154279Y-7424536D01*
X-18142527Y-7402109D01*
X-18042546Y-7276334D01*
X-17920886Y-7184364D01*
X-17782061Y-7128839D01*
X-17646471Y-7112207D01*
X-17434893Y-7097873D01*
X-17209439Y-7057982D01*
X-16986864Y-6996200D01*
X-16815069Y-6930368D01*
X-16630832Y-6833843D01*
X-16443618Y-6705061D01*
X-16248785Y-6540704D01*
X-16180646Y-6476768D01*
X-16087493Y-6388987D01*
X-16015987Y-6326532D01*
X-15958709Y-6283946D01*
X-15908243Y-6255775D01*
X-15857172Y-6236563D01*
X-15851870Y-6234961D01*
X-15738823Y-6208581D01*
X-15639977Y-6205032D01*
X-15533893Y-6224295D01*
G37*
X-15533893Y-6224295D02*
X-15497025Y-6234646D01*
X-15444883Y-6253724D01*
X-15393216Y-6281995D01*
X-15334567Y-6324894D01*
X-15261476Y-6387854D01*
X-15170213Y-6472771D01*
X-15031467Y-6599782D01*
X-14907960Y-6701214D01*
X-14788777Y-6784773D01*
X-14663004Y-6858169D01*
X-14532367Y-6923212D01*
X-14342672Y-7001669D01*
X-14156778Y-7055152D01*
X-13961245Y-7086479D01*
X-13742634Y-7098466D01*
X-13694833Y-7098791D01*
X-13474241Y-7090756D01*
X-13279003Y-7064599D01*
X-13094902Y-7017237D01*
X-12907722Y-6945588D01*
X-12835082Y-6912421D01*
X-12716355Y-6853851D01*
X-12616212Y-6797886D01*
X-12525003Y-6737648D01*
X-12433078Y-6666254D01*
X-12330789Y-6576826D01*
X-12221778Y-6475127D01*
X-12127351Y-6387228D01*
X-12054678Y-6324645D01*
X-11996379Y-6281986D01*
X-11945072Y-6253857D01*
X-11893374Y-6234864D01*
X-11892641Y-6234646D01*
X-11779386Y-6208364D01*
X-11679969Y-6205176D01*
X-11572752Y-6225077D01*
X-11539080Y-6234580D01*
X-11489935Y-6252421D01*
X-11440892Y-6278739D01*
X-11385150Y-6318575D01*
X-11315907Y-6376973D01*
X-11226359Y-6458974D01*
X-11189293Y-6493872D01*
X-11092835Y-6581568D01*
X-10992974Y-6666313D01*
X-10899733Y-6739978D01*
X-10823135Y-6794438D01*
X-10803596Y-6806587D01*
X-10534071Y-6942562D01*
X-10256877Y-7038031D01*
X-9974544Y-7092681D01*
X-9689597Y-7106198D01*
X-9404565Y-7078270D01*
X-9136284Y-7013152D01*
X-8923982Y-6934730D01*
X-8729689Y-6837097D01*
X-8543904Y-6714388D01*
X-8357127Y-6560735D01*
X-8265583Y-6475473D01*
X-8163194Y-6379117D01*
X-8081527Y-6309510D01*
X-8012498Y-6262384D01*
X-7948019Y-6233469D01*
X-7880006Y-6218497D01*
X-7800372Y-6213197D01*
X-7768166Y-6212837D01*
X-7664851Y-6218078D01*
X-7576003Y-6237428D01*
X-7492832Y-6275428D01*
X-7406546Y-6336619D01*
X-7308352Y-6425541D01*
X-7256890Y-6476879D01*
X-7031437Y-6676531D01*
X-6782157Y-6841833D01*
X-6512371Y-6970905D01*
X-6225400Y-7061868D01*
X-6220973Y-7062935D01*
X-6100785Y-7083423D01*
X-5953386Y-7095905D01*
X-5792244Y-7100378D01*
X-5630825Y-7096839D01*
X-5482596Y-7085285D01*
X-5361024Y-7065713D01*
X-5350143Y-7063141D01*
X-5064199Y-6973213D01*
X-4800838Y-6848836D01*
X-4556204Y-6687853D01*
X-4334101Y-6495613D01*
X-4226922Y-6393785D01*
X-4140103Y-6319453D01*
X-4065902Y-6268448D01*
X-3996581Y-6236603D01*
X-3924400Y-6219751D01*
X-3841617Y-6213722D01*
X-3810000Y-6213398D01*
X-3715579Y-6217533D01*
X-3635066Y-6232845D01*
X-3560179Y-6263698D01*
X-3482636Y-6314453D01*
X-3394155Y-6389472D01*
X-3294946Y-6484688D01*
X-3076110Y-6678511D01*
X-2847531Y-6834153D01*
X-2604414Y-6953767D01*
X-2341964Y-7039504D01*
X-2055383Y-7093518D01*
X-1903443Y-7109153D01*
X-1768761Y-7122421D01*
X-1666381Y-7140530D01*
X-1586293Y-7166926D01*
X-1518488Y-7205057D01*
X-1452956Y-7258371D01*
X-1442770Y-7267828D01*
X-1362516Y-7357413D01*
X-1312138Y-7452223D01*
X-1286802Y-7564383D01*
X-1281316Y-7672917D01*
X-1290288Y-7807381D01*
X-1320617Y-7914973D01*
X-1377420Y-8007912D01*
X-1455716Y-8089410D01*
X-1531413Y-8150073D01*
X-1608038Y-8192121D01*
X-1694888Y-8217946D01*
X-1801257Y-8229941D01*
X-1936441Y-8230497D01*
X-1995438Y-8228290D01*
X-2353919Y-8191155D01*
X-2704716Y-8113034D01*
X-3044788Y-7995020D01*
X-3371099Y-7838204D01*
X-3680609Y-7643679D01*
X-3738013Y-7601991D01*
X-3803610Y-7553263D01*
X-3978170Y-7672125D01*
X-4283318Y-7855682D01*
X-4611424Y-8008026D01*
X-4952938Y-8125065D01*
X-5150095Y-8174445D01*
X-5288475Y-8197118D01*
X-5456585Y-8213208D01*
X-5643027Y-8222612D01*
X-5836398Y-8225232D01*
X-6025298Y-8220965D01*
X-6198325Y-8209711D01*
X-6344079Y-8191371D01*
X-6376879Y-8185271D01*
X-6726561Y-8093513D01*
X-7068121Y-7962804D01*
X-7393433Y-7796524D01*
X-7559359Y-7693217D01*
X-7765131Y-7556229D01*
X-7966628Y-7692844D01*
X-8277934Y-7879415D01*
X-8602995Y-8026136D01*
X-8942598Y-8133265D01*
X-9297532Y-8201057D01*
X-9610990Y-8227908D01*
X-9974958Y-8222741D01*
X-10330951Y-8178364D01*
X-10675496Y-8095783D01*
X-11005118Y-7976000D01*
X-11316344Y-7820019D01*
X-11554813Y-7666219D01*
X-11645112Y-7605543D01*
X-11707162Y-7573213D01*
X-11739900Y-7569781D01*
X-11740303Y-7570049D01*
X-11990403Y-7735839D01*
X-12225195Y-7871812D01*
X-12454352Y-7982326D01*
X-12687549Y-8071740D01*
X-12934457Y-8144414D01*
X-13102166Y-8183728D01*
X-13220717Y-8202313D01*
X-13370342Y-8215369D01*
X-13540186Y-8222897D01*
X-13719395Y-8224898D01*
X-13897113Y-8221374D01*
X-14062486Y-8212324D01*
X-14204660Y-8197749D01*
X-14287500Y-8183635D01*
X-14649574Y-8087402D01*
X-14985080Y-7959879D01*
X-15297453Y-7799640D01*
X-15462250Y-7695966D01*
X-15555409Y-7635889D01*
X-15629281Y-7593580D01*
X-15678634Y-7571832D01*
X-15696647Y-7570863D01*
X-15894755Y-7708757D01*
X-16117994Y-7840884D01*
X-16349333Y-7957663D01*
X-16497574Y-8021435D01*
X-16657681Y-8077936D01*
X-16832557Y-8127353D01*
X-17014979Y-8168690D01*
X-17197723Y-8200949D01*
X-17373569Y-8223135D01*
X-17535293Y-8234252D01*
X-17675672Y-8233303D01*
X-17787484Y-8219292D01*
X-17833907Y-8205765D01*
X-17958140Y-8140549D01*
X-18064257Y-8051165D01*
X-18144583Y-7945896D01*
X-18191442Y-7833024D01*
X-18195097Y-7816016D01*
X-18203460Y-7720005D01*
X-18198095Y-7612127D01*
X-18181026Y-7508324D01*
X-18154279Y-7424536D01*
X-18142527Y-7402109D01*
X-18042546Y-7276334D01*
X-17920886Y-7184364D01*
X-17782061Y-7128839D01*
X-17646471Y-7112207D01*
X-17434893Y-7097873D01*
X-17209439Y-7057982D01*
X-16986864Y-6996200D01*
X-16815069Y-6930368D01*
X-16630832Y-6833843D01*
X-16443618Y-6705061D01*
X-16248785Y-6540704D01*
X-16180646Y-6476768D01*
X-16087493Y-6388987D01*
X-16015987Y-6326532D01*
X-15958709Y-6283946D01*
X-15908243Y-6255775D01*
X-15857172Y-6236563D01*
X-15851870Y-6234961D01*
X-15738823Y-6208581D01*
X-15639977Y-6205032D01*
X-15533893Y-6224295D01*
G36*
X14109266Y-1248523D02*
G01*
X14207266Y-1276813D01*
X14303783Y-1329150D01*
X14406845Y-1409778D01*
X14510893Y-1509082D01*
X14737279Y-1711242D01*
X14978583Y-1873814D01*
X15235168Y-1996963D01*
X15507400Y-2080853D01*
X15795643Y-2125651D01*
X15885584Y-2131504D01*
X16180339Y-2125552D01*
X16460700Y-2080179D01*
X16727578Y-1995032D01*
X16981881Y-1869754D01*
X17224520Y-1703992D01*
X17420167Y-1533034D01*
X17534990Y-1426086D01*
X17630378Y-1347840D01*
X17713693Y-1294225D01*
X17792296Y-1261172D01*
X17873550Y-1244609D01*
X17949334Y-1240461D01*
X18054958Y-1246929D01*
X18148686Y-1270890D01*
X18239231Y-1316793D01*
X18335304Y-1389088D01*
X18445619Y-1492222D01*
X18448968Y-1495568D01*
X18674477Y-1697949D01*
X18907104Y-1859755D01*
X19150407Y-1982595D01*
X19407944Y-2068076D01*
X19683271Y-2117808D01*
X19854334Y-2130983D01*
X20134492Y-2126200D01*
X20398280Y-2086357D01*
X20649249Y-2010042D01*
X20890950Y-1895845D01*
X21126935Y-1742355D01*
X21360757Y-1548159D01*
X21390207Y-1520767D01*
X21499765Y-1420126D01*
X21587992Y-1346471D01*
X21662354Y-1295755D01*
X21730315Y-1263932D01*
X21799341Y-1246957D01*
X21876897Y-1240784D01*
X21907500Y-1240427D01*
X21998512Y-1244741D01*
X22076723Y-1260628D01*
X22150693Y-1292505D01*
X22228981Y-1344789D01*
X22320147Y-1421898D01*
X22395332Y-1492170D01*
X22617768Y-1687167D01*
X22839197Y-1843388D01*
X23065952Y-1963746D01*
X23304364Y-2051160D01*
X23560764Y-2108543D01*
X23792346Y-2135496D01*
X23956288Y-2153583D01*
X24085911Y-2182727D01*
X24188587Y-2226643D01*
X24271689Y-2289045D01*
X24342588Y-2373647D01*
X24379124Y-2431106D01*
X24409501Y-2488824D01*
X24427041Y-2543291D01*
X24435070Y-2609910D01*
X24436917Y-2698750D01*
X24428746Y-2831830D01*
X24400843Y-2938043D01*
X24348127Y-3030238D01*
X24272442Y-3114603D01*
X24208318Y-3170830D01*
X24144067Y-3211220D01*
X24071537Y-3237744D01*
X23982578Y-3252375D01*
X23869039Y-3257085D01*
X23722769Y-3253848D01*
X23700819Y-3252941D01*
X23345062Y-3217695D01*
X23002846Y-3142740D01*
X22672692Y-3027581D01*
X22353121Y-2871724D01*
X22108580Y-2720452D01*
X21907542Y-2584149D01*
X21752639Y-2695287D01*
X21511919Y-2847990D01*
X21241795Y-2983831D01*
X20953491Y-3097827D01*
X20658235Y-3184998D01*
X20637798Y-3189919D01*
X20450225Y-3224351D01*
X20235083Y-3247086D01*
X20005583Y-3257793D01*
X19774936Y-3256140D01*
X19556352Y-3241797D01*
X19399129Y-3220976D01*
X19042508Y-3139041D01*
X18700194Y-3017266D01*
X18372259Y-2855681D01*
X18152562Y-2719752D01*
X17955739Y-2587230D01*
X17789741Y-2701313D01*
X17503116Y-2875499D01*
X17190773Y-3023636D01*
X16863487Y-3141132D01*
X16594667Y-3210722D01*
X16515576Y-3225275D01*
X16429574Y-3235870D01*
X16328579Y-3243012D01*
X16204507Y-3247205D01*
X16049275Y-3248954D01*
X15980834Y-3249084D01*
X15811722Y-3248126D01*
X15676825Y-3244915D01*
X15568059Y-3238948D01*
X15477342Y-3229717D01*
X15396589Y-3216719D01*
X15367000Y-3210722D01*
X15053393Y-3127031D01*
X14743475Y-3012131D01*
X14448907Y-2870989D01*
X14181347Y-2708568D01*
X14171084Y-2701499D01*
X14092013Y-2647769D01*
X14039114Y-2615676D01*
X14004348Y-2601917D01*
X13979681Y-2603188D01*
X13959417Y-2614492D01*
X13672707Y-2803147D01*
X13391324Y-2955127D01*
X13108081Y-3074198D01*
X13031137Y-3100933D01*
X12879107Y-3149518D01*
X12746371Y-3186423D01*
X12622562Y-3213173D01*
X12497311Y-3231290D01*
X12360251Y-3242298D01*
X12201013Y-3247720D01*
X12022667Y-3249084D01*
X11833284Y-3247511D01*
X11675783Y-3241779D01*
X11539794Y-3230364D01*
X11414948Y-3211741D01*
X11290875Y-3184387D01*
X11157207Y-3146779D01*
X11014047Y-3100883D01*
X10863360Y-3045003D01*
X10703260Y-2975651D01*
X10542738Y-2897566D01*
X10390787Y-2815489D01*
X10256401Y-2734161D01*
X10148573Y-2658321D01*
X10104897Y-2621635D01*
X10085034Y-2605070D01*
X10065383Y-2598244D01*
X10038804Y-2603950D01*
X9998158Y-2624980D01*
X9936306Y-2664126D01*
X9850897Y-2720977D01*
X9544940Y-2902663D01*
X9224895Y-3048754D01*
X8895478Y-3157755D01*
X8561409Y-3228173D01*
X8227405Y-3258514D01*
X8149481Y-3259667D01*
X8044536Y-3258729D01*
X7970055Y-3254549D01*
X7914181Y-3245074D01*
X7865061Y-3228251D01*
X7810841Y-3202029D01*
X7808012Y-3200554D01*
X7700162Y-3125966D01*
X7610426Y-3028732D01*
X7549001Y-2920756D01*
X7536299Y-2883424D01*
X7513765Y-2733164D01*
X7527139Y-2585167D01*
X7574136Y-2448025D01*
X7652473Y-2330330D01*
X7694482Y-2288490D01*
X7762677Y-2235054D01*
X7832951Y-2196316D01*
X7915124Y-2169110D01*
X8019019Y-2150271D01*
X8154456Y-2136636D01*
X8169321Y-2135496D01*
X8464879Y-2096796D01*
X8735899Y-2025725D01*
X8987259Y-1920053D01*
X9223836Y-1777551D01*
X9450509Y-1595991D01*
X9544399Y-1507089D01*
X9655568Y-1402532D01*
X9750182Y-1327956D01*
X9836496Y-1279042D01*
X9922768Y-1251472D01*
X10017255Y-1240927D01*
X10054167Y-1240461D01*
X10143349Y-1246307D01*
X10223689Y-1265219D01*
X10302549Y-1301270D01*
X10387291Y-1358529D01*
X10485277Y-1441066D01*
X10583334Y-1533034D01*
X10816869Y-1733109D01*
X11061305Y-1892401D01*
X11317549Y-2011266D01*
X11586513Y-2090057D01*
X11869105Y-2129129D01*
X12117917Y-2131504D01*
X12407452Y-2099653D01*
X12679428Y-2030451D01*
X12935952Y-1922949D01*
X13179134Y-1776193D01*
X13411082Y-1589234D01*
X13492793Y-1511354D01*
X13607294Y-1403964D01*
X13705993Y-1327385D01*
X13796835Y-1277382D01*
X13887763Y-1249722D01*
X13986721Y-1240169D01*
X14001750Y-1240036D01*
X14109266Y-1248523D01*
G37*
X14109266Y-1248523D02*
X14207266Y-1276813D01*
X14303783Y-1329150D01*
X14406845Y-1409778D01*
X14510893Y-1509082D01*
X14737279Y-1711242D01*
X14978583Y-1873814D01*
X15235168Y-1996963D01*
X15507400Y-2080853D01*
X15795643Y-2125651D01*
X15885584Y-2131504D01*
X16180339Y-2125552D01*
X16460700Y-2080179D01*
X16727578Y-1995032D01*
X16981881Y-1869754D01*
X17224520Y-1703992D01*
X17420167Y-1533034D01*
X17534990Y-1426086D01*
X17630378Y-1347840D01*
X17713693Y-1294225D01*
X17792296Y-1261172D01*
X17873550Y-1244609D01*
X17949334Y-1240461D01*
X18054958Y-1246929D01*
X18148686Y-1270890D01*
X18239231Y-1316793D01*
X18335304Y-1389088D01*
X18445619Y-1492222D01*
X18448968Y-1495568D01*
X18674477Y-1697949D01*
X18907104Y-1859755D01*
X19150407Y-1982595D01*
X19407944Y-2068076D01*
X19683271Y-2117808D01*
X19854334Y-2130983D01*
X20134492Y-2126200D01*
X20398280Y-2086357D01*
X20649249Y-2010042D01*
X20890950Y-1895845D01*
X21126935Y-1742355D01*
X21360757Y-1548159D01*
X21390207Y-1520767D01*
X21499765Y-1420126D01*
X21587992Y-1346471D01*
X21662354Y-1295755D01*
X21730315Y-1263932D01*
X21799341Y-1246957D01*
X21876897Y-1240784D01*
X21907500Y-1240427D01*
X21998512Y-1244741D01*
X22076723Y-1260628D01*
X22150693Y-1292505D01*
X22228981Y-1344789D01*
X22320147Y-1421898D01*
X22395332Y-1492170D01*
X22617768Y-1687167D01*
X22839197Y-1843388D01*
X23065952Y-1963746D01*
X23304364Y-2051160D01*
X23560764Y-2108543D01*
X23792346Y-2135496D01*
X23956288Y-2153583D01*
X24085911Y-2182727D01*
X24188587Y-2226643D01*
X24271689Y-2289045D01*
X24342588Y-2373647D01*
X24379124Y-2431106D01*
X24409501Y-2488824D01*
X24427041Y-2543291D01*
X24435070Y-2609910D01*
X24436917Y-2698750D01*
X24428746Y-2831830D01*
X24400843Y-2938043D01*
X24348127Y-3030238D01*
X24272442Y-3114603D01*
X24208318Y-3170830D01*
X24144067Y-3211220D01*
X24071537Y-3237744D01*
X23982578Y-3252375D01*
X23869039Y-3257085D01*
X23722769Y-3253848D01*
X23700819Y-3252941D01*
X23345062Y-3217695D01*
X23002846Y-3142740D01*
X22672692Y-3027581D01*
X22353121Y-2871724D01*
X22108580Y-2720452D01*
X21907542Y-2584149D01*
X21752639Y-2695287D01*
X21511919Y-2847990D01*
X21241795Y-2983831D01*
X20953491Y-3097827D01*
X20658235Y-3184998D01*
X20637798Y-3189919D01*
X20450225Y-3224351D01*
X20235083Y-3247086D01*
X20005583Y-3257793D01*
X19774936Y-3256140D01*
X19556352Y-3241797D01*
X19399129Y-3220976D01*
X19042508Y-3139041D01*
X18700194Y-3017266D01*
X18372259Y-2855681D01*
X18152562Y-2719752D01*
X17955739Y-2587230D01*
X17789741Y-2701313D01*
X17503116Y-2875499D01*
X17190773Y-3023636D01*
X16863487Y-3141132D01*
X16594667Y-3210722D01*
X16515576Y-3225275D01*
X16429574Y-3235870D01*
X16328579Y-3243012D01*
X16204507Y-3247205D01*
X16049275Y-3248954D01*
X15980834Y-3249084D01*
X15811722Y-3248126D01*
X15676825Y-3244915D01*
X15568059Y-3238948D01*
X15477342Y-3229717D01*
X15396589Y-3216719D01*
X15367000Y-3210722D01*
X15053393Y-3127031D01*
X14743475Y-3012131D01*
X14448907Y-2870989D01*
X14181347Y-2708568D01*
X14171084Y-2701499D01*
X14092013Y-2647769D01*
X14039114Y-2615676D01*
X14004348Y-2601917D01*
X13979681Y-2603188D01*
X13959417Y-2614492D01*
X13672707Y-2803147D01*
X13391324Y-2955127D01*
X13108081Y-3074198D01*
X13031137Y-3100933D01*
X12879107Y-3149518D01*
X12746371Y-3186423D01*
X12622562Y-3213173D01*
X12497311Y-3231290D01*
X12360251Y-3242298D01*
X12201013Y-3247720D01*
X12022667Y-3249084D01*
X11833284Y-3247511D01*
X11675783Y-3241779D01*
X11539794Y-3230364D01*
X11414948Y-3211741D01*
X11290875Y-3184387D01*
X11157207Y-3146779D01*
X11014047Y-3100883D01*
X10863360Y-3045003D01*
X10703260Y-2975651D01*
X10542738Y-2897566D01*
X10390787Y-2815489D01*
X10256401Y-2734161D01*
X10148573Y-2658321D01*
X10104897Y-2621635D01*
X10085034Y-2605070D01*
X10065383Y-2598244D01*
X10038804Y-2603950D01*
X9998158Y-2624980D01*
X9936306Y-2664126D01*
X9850897Y-2720977D01*
X9544940Y-2902663D01*
X9224895Y-3048754D01*
X8895478Y-3157755D01*
X8561409Y-3228173D01*
X8227405Y-3258514D01*
X8149481Y-3259667D01*
X8044536Y-3258729D01*
X7970055Y-3254549D01*
X7914181Y-3245074D01*
X7865061Y-3228251D01*
X7810841Y-3202029D01*
X7808012Y-3200554D01*
X7700162Y-3125966D01*
X7610426Y-3028732D01*
X7549001Y-2920756D01*
X7536299Y-2883424D01*
X7513765Y-2733164D01*
X7527139Y-2585167D01*
X7574136Y-2448025D01*
X7652473Y-2330330D01*
X7694482Y-2288490D01*
X7762677Y-2235054D01*
X7832951Y-2196316D01*
X7915124Y-2169110D01*
X8019019Y-2150271D01*
X8154456Y-2136636D01*
X8169321Y-2135496D01*
X8464879Y-2096796D01*
X8735899Y-2025725D01*
X8987259Y-1920053D01*
X9223836Y-1777551D01*
X9450509Y-1595991D01*
X9544399Y-1507089D01*
X9655568Y-1402532D01*
X9750182Y-1327956D01*
X9836496Y-1279042D01*
X9922768Y-1251472D01*
X10017255Y-1240927D01*
X10054167Y-1240461D01*
X10143349Y-1246307D01*
X10223689Y-1265219D01*
X10302549Y-1301270D01*
X10387291Y-1358529D01*
X10485277Y-1441066D01*
X10583334Y-1533034D01*
X10816869Y-1733109D01*
X11061305Y-1892401D01*
X11317549Y-2011266D01*
X11586513Y-2090057D01*
X11869105Y-2129129D01*
X12117917Y-2131504D01*
X12407452Y-2099653D01*
X12679428Y-2030451D01*
X12935952Y-1922949D01*
X13179134Y-1776193D01*
X13411082Y-1589234D01*
X13492793Y-1511354D01*
X13607294Y-1403964D01*
X13705993Y-1327385D01*
X13796835Y-1277382D01*
X13887763Y-1249722D01*
X13986721Y-1240169D01*
X14001750Y-1240036D01*
X14109266Y-1248523D01*
G36*
X-8813906Y4303650D02*
G01*
X-8742536Y4284498D01*
X-8688643Y4264980D01*
X-8636520Y4236717D01*
X-8578248Y4193985D01*
X-8505910Y4131063D01*
X-8424811Y4054909D01*
X-8203222Y3860566D01*
X-7982605Y3704805D01*
X-7756255Y3584576D01*
X-7517464Y3496832D01*
X-7259527Y3438523D01*
X-7003067Y3408513D01*
X-6851075Y3391668D01*
X-6732068Y3364186D01*
X-6637310Y3322598D01*
X-6558062Y3263433D01*
X-6509518Y3212494D01*
X-6426884Y3084443D01*
X-6382132Y2940495D01*
X-6376728Y2794830D01*
X-6407444Y2649832D01*
X-6473356Y2524585D01*
X-6571152Y2418388D01*
X-6641718Y2363531D01*
X-6714350Y2325144D01*
X-6797768Y2301207D01*
X-6900693Y2289699D01*
X-7031845Y2288602D01*
X-7118308Y2291665D01*
X-7470579Y2328676D01*
X-7816672Y2406686D01*
X-8152807Y2524427D01*
X-8475208Y2680631D01*
X-8711102Y2825902D01*
X-8913154Y2962893D01*
X-9076202Y2849732D01*
X-9389100Y2657268D01*
X-9716548Y2504376D01*
X-10059868Y2390546D01*
X-10420385Y2315267D01*
X-10488083Y2305656D01*
X-10652157Y2291500D01*
X-10841798Y2287361D01*
X-11043418Y2292603D01*
X-11243427Y2306588D01*
X-11428240Y2328680D01*
X-11578166Y2356785D01*
X-11941120Y2462905D01*
X-12282102Y2605020D01*
X-12602246Y2783650D01*
X-12798300Y2918547D01*
X-12864850Y2967980D01*
X-12980354Y2882653D01*
X-13199467Y2738280D01*
X-13446326Y2605793D01*
X-13706675Y2491817D01*
X-13966255Y2402974D01*
X-14075833Y2373726D01*
X-14251839Y2335062D01*
X-14414029Y2308825D01*
X-14576173Y2293749D01*
X-14752042Y2288569D01*
X-14955406Y2292019D01*
X-14962352Y2292251D01*
X-15303883Y2319278D01*
X-15623752Y2377785D01*
X-15928933Y2470042D01*
X-16226400Y2598322D01*
X-16523126Y2764895D01*
X-16634161Y2836713D01*
X-16830408Y2967981D01*
X-16876579Y2925583D01*
X-16963493Y2857042D01*
X-17081721Y2779969D01*
X-17222362Y2699056D01*
X-17376517Y2619000D01*
X-17535285Y2544493D01*
X-17689767Y2480231D01*
X-17788693Y2444489D01*
X-17956517Y2391955D01*
X-18109439Y2353002D01*
X-18260462Y2325442D01*
X-18422589Y2307087D01*
X-18608825Y2295748D01*
X-18690166Y2292775D01*
X-18839854Y2288981D01*
X-18959030Y2288623D01*
X-19059425Y2292298D01*
X-19152764Y2300605D01*
X-19250778Y2314144D01*
X-19314583Y2324663D01*
X-19617369Y2392147D01*
X-19916228Y2488574D01*
X-20201191Y2609913D01*
X-20462288Y2752134D01*
X-20602766Y2845400D01*
X-20769115Y2964799D01*
X-20952016Y2839748D01*
X-21266453Y2648873D01*
X-21591828Y2498544D01*
X-21927312Y2389041D01*
X-22272078Y2320640D01*
X-22574250Y2294939D01*
X-22707637Y2291666D01*
X-22806623Y2292621D01*
X-22878969Y2298229D01*
X-22932435Y2308911D01*
X-22952551Y2315541D01*
X-23080543Y2384962D01*
X-23184320Y2484511D01*
X-23258802Y2606903D01*
X-23298913Y2744853D01*
X-23304500Y2820419D01*
X-23294583Y2958504D01*
X-23261911Y3071216D01*
X-23202104Y3171321D01*
X-23171196Y3208887D01*
X-23101711Y3279724D01*
X-23030994Y3331090D01*
X-22949518Y3366806D01*
X-22847756Y3390697D01*
X-22716181Y3406585D01*
X-22669007Y3410397D01*
X-22369252Y3449000D01*
X-22095186Y3519337D01*
X-21842375Y3623397D01*
X-21606386Y3763171D01*
X-21382783Y3940648D01*
X-21288504Y4029880D01*
X-21209203Y4105201D01*
X-21131507Y4173029D01*
X-21065069Y4225265D01*
X-21024327Y4251527D01*
X-20882387Y4300768D01*
X-20731735Y4310021D01*
X-20607123Y4287560D01*
X-20553881Y4269537D01*
X-20505160Y4245529D01*
X-20453268Y4209986D01*
X-20390512Y4157359D01*
X-20309201Y4082099D01*
X-20268712Y4043410D01*
X-20174602Y3956577D01*
X-20075243Y3870886D01*
X-19981927Y3795732D01*
X-19905944Y3740512D01*
X-19900188Y3736742D01*
X-19648210Y3598124D01*
X-19382702Y3497670D01*
X-19108053Y3435439D01*
X-18828652Y3411488D01*
X-18548887Y3425876D01*
X-18273147Y3478660D01*
X-18005822Y3569900D01*
X-17751301Y3699653D01*
X-17737473Y3708085D01*
X-17646852Y3770128D01*
X-17539120Y3853753D01*
X-17425972Y3949522D01*
X-17333286Y4034361D01*
X-17239621Y4122403D01*
X-17168199Y4185499D01*
X-17111675Y4228977D01*
X-17062706Y4258170D01*
X-17013947Y4278408D01*
X-16984137Y4287775D01*
X-16848116Y4312525D01*
X-16718915Y4303715D01*
X-16592023Y4259663D01*
X-16462933Y4178688D01*
X-16327134Y4059109D01*
X-16301584Y4033308D01*
X-16081334Y3836976D01*
X-15835766Y3674035D01*
X-15567188Y3545797D01*
X-15287356Y3455931D01*
X-15201546Y3438990D01*
X-15098627Y3428010D01*
X-14969929Y3422336D01*
X-14827250Y3421218D01*
X-14640123Y3425973D01*
X-14481798Y3440684D01*
X-14339343Y3468203D01*
X-14199829Y3511380D01*
X-14050324Y3573067D01*
X-13971737Y3609836D01*
X-13850773Y3670997D01*
X-13746044Y3731768D01*
X-13647954Y3799080D01*
X-13546905Y3879864D01*
X-13433301Y3981051D01*
X-13352087Y4057325D01*
X-13262414Y4140987D01*
X-13193814Y4199869D01*
X-13138092Y4239772D01*
X-13087050Y4266501D01*
X-13032494Y4285858D01*
X-13027041Y4287463D01*
X-12877666Y4309798D01*
X-12729019Y4293027D01*
X-12589127Y4239741D01*
X-12466015Y4152534D01*
X-12404661Y4086423D01*
X-12334323Y4010584D01*
X-12236995Y3923208D01*
X-12123170Y3832434D01*
X-12003339Y3746404D01*
X-11887995Y3673258D01*
X-11833058Y3642906D01*
X-11565610Y3527442D01*
X-11288559Y3451319D01*
X-11006207Y3414644D01*
X-10722860Y3417524D01*
X-10442823Y3460069D01*
X-10170400Y3542385D01*
X-10039529Y3597957D01*
X-9901330Y3667089D01*
X-9779250Y3739316D01*
X-9662589Y3822220D01*
X-9540643Y3923384D01*
X-9407890Y4045459D01*
X-9314310Y4132693D01*
X-9242366Y4194702D01*
X-9184542Y4236956D01*
X-9133323Y4264925D01*
X-9081191Y4284080D01*
X-9079187Y4284679D01*
X-8980329Y4309432D01*
X-8898762Y4315760D01*
X-8813906Y4303650D01*
G37*
X-8813906Y4303650D02*
X-8742536Y4284498D01*
X-8688643Y4264980D01*
X-8636520Y4236717D01*
X-8578248Y4193985D01*
X-8505910Y4131063D01*
X-8424811Y4054909D01*
X-8203222Y3860566D01*
X-7982605Y3704805D01*
X-7756255Y3584576D01*
X-7517464Y3496832D01*
X-7259527Y3438523D01*
X-7003067Y3408513D01*
X-6851075Y3391668D01*
X-6732068Y3364186D01*
X-6637310Y3322598D01*
X-6558062Y3263433D01*
X-6509518Y3212494D01*
X-6426884Y3084443D01*
X-6382132Y2940495D01*
X-6376728Y2794830D01*
X-6407444Y2649832D01*
X-6473356Y2524585D01*
X-6571152Y2418388D01*
X-6641718Y2363531D01*
X-6714350Y2325144D01*
X-6797768Y2301207D01*
X-6900693Y2289699D01*
X-7031845Y2288602D01*
X-7118308Y2291665D01*
X-7470579Y2328676D01*
X-7816672Y2406686D01*
X-8152807Y2524427D01*
X-8475208Y2680631D01*
X-8711102Y2825902D01*
X-8913154Y2962893D01*
X-9076202Y2849732D01*
X-9389100Y2657268D01*
X-9716548Y2504376D01*
X-10059868Y2390546D01*
X-10420385Y2315267D01*
X-10488083Y2305656D01*
X-10652157Y2291500D01*
X-10841798Y2287361D01*
X-11043418Y2292603D01*
X-11243427Y2306588D01*
X-11428240Y2328680D01*
X-11578166Y2356785D01*
X-11941120Y2462905D01*
X-12282102Y2605020D01*
X-12602246Y2783650D01*
X-12798300Y2918547D01*
X-12864850Y2967980D01*
X-12980354Y2882653D01*
X-13199467Y2738280D01*
X-13446326Y2605793D01*
X-13706675Y2491817D01*
X-13966255Y2402974D01*
X-14075833Y2373726D01*
X-14251839Y2335062D01*
X-14414029Y2308825D01*
X-14576173Y2293749D01*
X-14752042Y2288569D01*
X-14955406Y2292019D01*
X-14962352Y2292251D01*
X-15303883Y2319278D01*
X-15623752Y2377785D01*
X-15928933Y2470042D01*
X-16226400Y2598322D01*
X-16523126Y2764895D01*
X-16634161Y2836713D01*
X-16830408Y2967981D01*
X-16876579Y2925583D01*
X-16963493Y2857042D01*
X-17081721Y2779969D01*
X-17222362Y2699056D01*
X-17376517Y2619000D01*
X-17535285Y2544493D01*
X-17689767Y2480231D01*
X-17788693Y2444489D01*
X-17956517Y2391955D01*
X-18109439Y2353002D01*
X-18260462Y2325442D01*
X-18422589Y2307087D01*
X-18608825Y2295748D01*
X-18690166Y2292775D01*
X-18839854Y2288981D01*
X-18959030Y2288623D01*
X-19059425Y2292298D01*
X-19152764Y2300605D01*
X-19250778Y2314144D01*
X-19314583Y2324663D01*
X-19617369Y2392147D01*
X-19916228Y2488574D01*
X-20201191Y2609913D01*
X-20462288Y2752134D01*
X-20602766Y2845400D01*
X-20769115Y2964799D01*
X-20952016Y2839748D01*
X-21266453Y2648873D01*
X-21591828Y2498544D01*
X-21927312Y2389041D01*
X-22272078Y2320640D01*
X-22574250Y2294939D01*
X-22707637Y2291666D01*
X-22806623Y2292621D01*
X-22878969Y2298229D01*
X-22932435Y2308911D01*
X-22952551Y2315541D01*
X-23080543Y2384962D01*
X-23184320Y2484511D01*
X-23258802Y2606903D01*
X-23298913Y2744853D01*
X-23304500Y2820419D01*
X-23294583Y2958504D01*
X-23261911Y3071216D01*
X-23202104Y3171321D01*
X-23171196Y3208887D01*
X-23101711Y3279724D01*
X-23030994Y3331090D01*
X-22949518Y3366806D01*
X-22847756Y3390697D01*
X-22716181Y3406585D01*
X-22669007Y3410397D01*
X-22369252Y3449000D01*
X-22095186Y3519337D01*
X-21842375Y3623397D01*
X-21606386Y3763171D01*
X-21382783Y3940648D01*
X-21288504Y4029880D01*
X-21209203Y4105201D01*
X-21131507Y4173029D01*
X-21065069Y4225265D01*
X-21024327Y4251527D01*
X-20882387Y4300768D01*
X-20731735Y4310021D01*
X-20607123Y4287560D01*
X-20553881Y4269537D01*
X-20505160Y4245529D01*
X-20453268Y4209986D01*
X-20390512Y4157359D01*
X-20309201Y4082099D01*
X-20268712Y4043410D01*
X-20174602Y3956577D01*
X-20075243Y3870886D01*
X-19981927Y3795732D01*
X-19905944Y3740512D01*
X-19900188Y3736742D01*
X-19648210Y3598124D01*
X-19382702Y3497670D01*
X-19108053Y3435439D01*
X-18828652Y3411488D01*
X-18548887Y3425876D01*
X-18273147Y3478660D01*
X-18005822Y3569900D01*
X-17751301Y3699653D01*
X-17737473Y3708085D01*
X-17646852Y3770128D01*
X-17539120Y3853753D01*
X-17425972Y3949522D01*
X-17333286Y4034361D01*
X-17239621Y4122403D01*
X-17168199Y4185499D01*
X-17111675Y4228977D01*
X-17062706Y4258170D01*
X-17013947Y4278408D01*
X-16984137Y4287775D01*
X-16848116Y4312525D01*
X-16718915Y4303715D01*
X-16592023Y4259663D01*
X-16462933Y4178688D01*
X-16327134Y4059109D01*
X-16301584Y4033308D01*
X-16081334Y3836976D01*
X-15835766Y3674035D01*
X-15567188Y3545797D01*
X-15287356Y3455931D01*
X-15201546Y3438990D01*
X-15098627Y3428010D01*
X-14969929Y3422336D01*
X-14827250Y3421218D01*
X-14640123Y3425973D01*
X-14481798Y3440684D01*
X-14339343Y3468203D01*
X-14199829Y3511380D01*
X-14050324Y3573067D01*
X-13971737Y3609836D01*
X-13850773Y3670997D01*
X-13746044Y3731768D01*
X-13647954Y3799080D01*
X-13546905Y3879864D01*
X-13433301Y3981051D01*
X-13352087Y4057325D01*
X-13262414Y4140987D01*
X-13193814Y4199869D01*
X-13138092Y4239772D01*
X-13087050Y4266501D01*
X-13032494Y4285858D01*
X-13027041Y4287463D01*
X-12877666Y4309798D01*
X-12729019Y4293027D01*
X-12589127Y4239741D01*
X-12466015Y4152534D01*
X-12404661Y4086423D01*
X-12334323Y4010584D01*
X-12236995Y3923208D01*
X-12123170Y3832434D01*
X-12003339Y3746404D01*
X-11887995Y3673258D01*
X-11833058Y3642906D01*
X-11565610Y3527442D01*
X-11288559Y3451319D01*
X-11006207Y3414644D01*
X-10722860Y3417524D01*
X-10442823Y3460069D01*
X-10170400Y3542385D01*
X-10039529Y3597957D01*
X-9901330Y3667089D01*
X-9779250Y3739316D01*
X-9662589Y3822220D01*
X-9540643Y3923384D01*
X-9407890Y4045459D01*
X-9314310Y4132693D01*
X-9242366Y4194702D01*
X-9184542Y4236956D01*
X-9133323Y4264925D01*
X-9081191Y4284080D01*
X-9079187Y4284679D01*
X-8980329Y4309432D01*
X-8898762Y4315760D01*
X-8813906Y4303650D01*
G36*
X10290108Y9351612D02*
G01*
X10373510Y9336902D01*
X10449218Y9306424D01*
X10526951Y9255532D01*
X10616425Y9179576D01*
X10678584Y9121197D01*
X10862430Y8954789D01*
X11036174Y8820243D01*
X11209173Y8711828D01*
X11390786Y8623811D01*
X11590370Y8550459D01*
X11631084Y8537710D01*
X11705166Y8515996D01*
X11769327Y8500456D01*
X11833202Y8490075D01*
X11906429Y8483837D01*
X11998643Y8480725D01*
X12119480Y8479724D01*
X12181417Y8479689D01*
X12362689Y8482476D01*
X12512738Y8492016D01*
X12642418Y8510414D01*
X12762585Y8539777D01*
X12884091Y8582211D01*
X13017792Y8639820D01*
X13025774Y8643498D01*
X13169020Y8715483D01*
X13298510Y8794516D01*
X13425203Y8888363D01*
X13560058Y9004788D01*
X13636199Y9076021D01*
X13748891Y9179703D01*
X13842348Y9254954D01*
X13924370Y9305922D01*
X14002758Y9336753D01*
X14085312Y9351592D01*
X14160500Y9354737D01*
X14258649Y9348853D01*
X14345776Y9328346D01*
X14430024Y9288932D01*
X14519538Y9226327D01*
X14622460Y9136247D01*
X14679084Y9081926D01*
X14900506Y8887091D01*
X15128032Y8732012D01*
X15367349Y8614115D01*
X15624145Y8530823D01*
X15904107Y8479562D01*
X16038734Y8466291D01*
X16159193Y8455353D01*
X16248990Y8442003D01*
X16319795Y8423831D01*
X16383280Y8398427D01*
X16395301Y8392670D01*
X16516781Y8311069D01*
X16609651Y8202754D01*
X16671252Y8074457D01*
X16698923Y7932912D01*
X16690005Y7784852D01*
X16668160Y7701960D01*
X16602500Y7571980D01*
X16501298Y7464179D01*
X16401109Y7397038D01*
X16348520Y7369311D01*
X16303346Y7351380D01*
X16254229Y7341281D01*
X16189813Y7337054D01*
X16098741Y7336736D01*
X16054917Y7337230D01*
X15737586Y7360397D01*
X15414509Y7419989D01*
X15094525Y7513110D01*
X14786475Y7636863D01*
X14499196Y7788350D01*
X14320090Y7905821D01*
X14165781Y8016532D01*
X13988515Y7894721D01*
X13675939Y7704961D01*
X13348141Y7553657D01*
X13008286Y7441262D01*
X12659537Y7368229D01*
X12305059Y7335011D01*
X11948014Y7342061D01*
X11591566Y7389831D01*
X11238879Y7478774D01*
X11190748Y7494285D01*
X10948464Y7585751D01*
X10711025Y7696618D01*
X10492588Y7819855D01*
X10367955Y7902936D01*
X10212917Y8014235D01*
X10011834Y7878676D01*
X9698724Y7692297D01*
X9371895Y7544633D01*
X9034550Y7435683D01*
X8689893Y7365445D01*
X8341129Y7333916D01*
X7991460Y7341096D01*
X7644091Y7386983D01*
X7302226Y7471575D01*
X6969069Y7594870D01*
X6647823Y7756866D01*
X6450415Y7880543D01*
X6253473Y8014070D01*
X6081221Y7894651D01*
X5773655Y7706644D01*
X5449842Y7556436D01*
X5113251Y7444363D01*
X4767350Y7370764D01*
X4415611Y7335975D01*
X4061501Y7340334D01*
X3708490Y7384177D01*
X3360048Y7467843D01*
X3019643Y7591668D01*
X3009489Y7596052D01*
X2836910Y7678233D01*
X2661028Y7774968D01*
X2498062Y7876912D01*
X2397141Y7948818D01*
X2303184Y8020559D01*
X2194050Y7941530D01*
X1884256Y7742131D01*
X1559931Y7582325D01*
X1220077Y7461738D01*
X863692Y7379993D01*
X603250Y7345627D01*
X479990Y7334616D01*
X389621Y7328448D01*
X322983Y7327095D01*
X270915Y7330527D01*
X224257Y7338713D01*
X201084Y7344325D01*
X51117Y7402005D01*
X-69505Y7488829D01*
X-158469Y7601854D01*
X-213459Y7738138D01*
X-232162Y7894738D01*
X-232162Y7895166D01*
X-216496Y8041747D01*
X-167275Y8169072D01*
X-87605Y8280169D01*
X-14775Y8346623D01*
X75714Y8396721D01*
X190510Y8432815D01*
X336259Y8457256D01*
X441401Y8467311D01*
X737522Y8508785D01*
X1016893Y8586232D01*
X1275935Y8698390D01*
X1511064Y8843998D01*
X1511463Y8844289D01*
X1580110Y8898161D01*
X1666662Y8971547D01*
X1759094Y9054022D01*
X1830917Y9121197D01*
X1931863Y9214099D01*
X2015340Y9279200D01*
X2091065Y9321146D01*
X2168757Y9344586D01*
X2258133Y9354167D01*
X2320206Y9355202D01*
X2427480Y9345934D01*
X2524037Y9315925D01*
X2618732Y9260574D01*
X2720421Y9175278D01*
X2780542Y9115984D01*
X3004554Y8912059D01*
X3242862Y8746443D01*
X3500219Y8616205D01*
X3719368Y8536635D01*
X3790739Y8515577D01*
X3853080Y8500408D01*
X3915676Y8490172D01*
X3987813Y8483913D01*
X4078779Y8480677D01*
X4197859Y8479507D01*
X4275667Y8479398D01*
X4413432Y8479859D01*
X4518156Y8481878D01*
X4599127Y8486413D01*
X4665632Y8494418D01*
X4726958Y8506851D01*
X4792395Y8524666D01*
X4832103Y8536675D01*
X5090967Y8632634D01*
X5326495Y8755603D01*
X5547155Y8910723D01*
X5755566Y9097332D01*
X5860292Y9196728D01*
X5947445Y9267481D01*
X6025772Y9314099D01*
X6104021Y9341095D01*
X6190940Y9352979D01*
X6254750Y9354737D01*
X6351738Y9350119D01*
X6434491Y9333260D01*
X6511756Y9299647D01*
X6592281Y9244770D01*
X6684815Y9164119D01*
X6753935Y9097332D01*
X6968258Y8906007D01*
X7189211Y8751835D01*
X7425265Y8629673D01*
X7677397Y8536675D01*
X7748810Y8515604D01*
X7811169Y8500425D01*
X7873761Y8490181D01*
X7945875Y8483918D01*
X8036798Y8480679D01*
X8155818Y8479507D01*
X8233834Y8479398D01*
X8371608Y8479859D01*
X8476339Y8481880D01*
X8557314Y8486416D01*
X8623818Y8494422D01*
X8685138Y8506853D01*
X8750559Y8524666D01*
X8790132Y8536635D01*
X9063766Y8640032D01*
X9314151Y8775655D01*
X9546653Y8946817D01*
X9725938Y9114176D01*
X9835555Y9217908D01*
X9933498Y9289157D01*
X10028556Y9332495D01*
X10129523Y9352496D01*
X10189294Y9355202D01*
X10290108Y9351612D01*
G37*
X10290108Y9351612D02*
X10373510Y9336902D01*
X10449218Y9306424D01*
X10526951Y9255532D01*
X10616425Y9179576D01*
X10678584Y9121197D01*
X10862430Y8954789D01*
X11036174Y8820243D01*
X11209173Y8711828D01*
X11390786Y8623811D01*
X11590370Y8550459D01*
X11631084Y8537710D01*
X11705166Y8515996D01*
X11769327Y8500456D01*
X11833202Y8490075D01*
X11906429Y8483837D01*
X11998643Y8480725D01*
X12119480Y8479724D01*
X12181417Y8479689D01*
X12362689Y8482476D01*
X12512738Y8492016D01*
X12642418Y8510414D01*
X12762585Y8539777D01*
X12884091Y8582211D01*
X13017792Y8639820D01*
X13025774Y8643498D01*
X13169020Y8715483D01*
X13298510Y8794516D01*
X13425203Y8888363D01*
X13560058Y9004788D01*
X13636199Y9076021D01*
X13748891Y9179703D01*
X13842348Y9254954D01*
X13924370Y9305922D01*
X14002758Y9336753D01*
X14085312Y9351592D01*
X14160500Y9354737D01*
X14258649Y9348853D01*
X14345776Y9328346D01*
X14430024Y9288932D01*
X14519538Y9226327D01*
X14622460Y9136247D01*
X14679084Y9081926D01*
X14900506Y8887091D01*
X15128032Y8732012D01*
X15367349Y8614115D01*
X15624145Y8530823D01*
X15904107Y8479562D01*
X16038734Y8466291D01*
X16159193Y8455353D01*
X16248990Y8442003D01*
X16319795Y8423831D01*
X16383280Y8398427D01*
X16395301Y8392670D01*
X16516781Y8311069D01*
X16609651Y8202754D01*
X16671252Y8074457D01*
X16698923Y7932912D01*
X16690005Y7784852D01*
X16668160Y7701960D01*
X16602500Y7571980D01*
X16501298Y7464179D01*
X16401109Y7397038D01*
X16348520Y7369311D01*
X16303346Y7351380D01*
X16254229Y7341281D01*
X16189813Y7337054D01*
X16098741Y7336736D01*
X16054917Y7337230D01*
X15737586Y7360397D01*
X15414509Y7419989D01*
X15094525Y7513110D01*
X14786475Y7636863D01*
X14499196Y7788350D01*
X14320090Y7905821D01*
X14165781Y8016532D01*
X13988515Y7894721D01*
X13675939Y7704961D01*
X13348141Y7553657D01*
X13008286Y7441262D01*
X12659537Y7368229D01*
X12305059Y7335011D01*
X11948014Y7342061D01*
X11591566Y7389831D01*
X11238879Y7478774D01*
X11190748Y7494285D01*
X10948464Y7585751D01*
X10711025Y7696618D01*
X10492588Y7819855D01*
X10367955Y7902936D01*
X10212917Y8014235D01*
X10011834Y7878676D01*
X9698724Y7692297D01*
X9371895Y7544633D01*
X9034550Y7435683D01*
X8689893Y7365445D01*
X8341129Y7333916D01*
X7991460Y7341096D01*
X7644091Y7386983D01*
X7302226Y7471575D01*
X6969069Y7594870D01*
X6647823Y7756866D01*
X6450415Y7880543D01*
X6253473Y8014070D01*
X6081221Y7894651D01*
X5773655Y7706644D01*
X5449842Y7556436D01*
X5113251Y7444363D01*
X4767350Y7370764D01*
X4415611Y7335975D01*
X4061501Y7340334D01*
X3708490Y7384177D01*
X3360048Y7467843D01*
X3019643Y7591668D01*
X3009489Y7596052D01*
X2836910Y7678233D01*
X2661028Y7774968D01*
X2498062Y7876912D01*
X2397141Y7948818D01*
X2303184Y8020559D01*
X2194050Y7941530D01*
X1884256Y7742131D01*
X1559931Y7582325D01*
X1220077Y7461738D01*
X863692Y7379993D01*
X603250Y7345627D01*
X479990Y7334616D01*
X389621Y7328448D01*
X322983Y7327095D01*
X270915Y7330527D01*
X224257Y7338713D01*
X201084Y7344325D01*
X51117Y7402005D01*
X-69505Y7488829D01*
X-158469Y7601854D01*
X-213459Y7738138D01*
X-232162Y7894738D01*
X-232162Y7895166D01*
X-216496Y8041747D01*
X-167275Y8169072D01*
X-87605Y8280169D01*
X-14775Y8346623D01*
X75714Y8396721D01*
X190510Y8432815D01*
X336259Y8457256D01*
X441401Y8467311D01*
X737522Y8508785D01*
X1016893Y8586232D01*
X1275935Y8698390D01*
X1511064Y8843998D01*
X1511463Y8844289D01*
X1580110Y8898161D01*
X1666662Y8971547D01*
X1759094Y9054022D01*
X1830917Y9121197D01*
X1931863Y9214099D01*
X2015340Y9279200D01*
X2091065Y9321146D01*
X2168757Y9344586D01*
X2258133Y9354167D01*
X2320206Y9355202D01*
X2427480Y9345934D01*
X2524037Y9315925D01*
X2618732Y9260574D01*
X2720421Y9175278D01*
X2780542Y9115984D01*
X3004554Y8912059D01*
X3242862Y8746443D01*
X3500219Y8616205D01*
X3719368Y8536635D01*
X3790739Y8515577D01*
X3853080Y8500408D01*
X3915676Y8490172D01*
X3987813Y8483913D01*
X4078779Y8480677D01*
X4197859Y8479507D01*
X4275667Y8479398D01*
X4413432Y8479859D01*
X4518156Y8481878D01*
X4599127Y8486413D01*
X4665632Y8494418D01*
X4726958Y8506851D01*
X4792395Y8524666D01*
X4832103Y8536675D01*
X5090967Y8632634D01*
X5326495Y8755603D01*
X5547155Y8910723D01*
X5755566Y9097332D01*
X5860292Y9196728D01*
X5947445Y9267481D01*
X6025772Y9314099D01*
X6104021Y9341095D01*
X6190940Y9352979D01*
X6254750Y9354737D01*
X6351738Y9350119D01*
X6434491Y9333260D01*
X6511756Y9299647D01*
X6592281Y9244770D01*
X6684815Y9164119D01*
X6753935Y9097332D01*
X6968258Y8906007D01*
X7189211Y8751835D01*
X7425265Y8629673D01*
X7677397Y8536675D01*
X7748810Y8515604D01*
X7811169Y8500425D01*
X7873761Y8490181D01*
X7945875Y8483918D01*
X8036798Y8480679D01*
X8155818Y8479507D01*
X8233834Y8479398D01*
X8371608Y8479859D01*
X8476339Y8481880D01*
X8557314Y8486416D01*
X8623818Y8494422D01*
X8685138Y8506853D01*
X8750559Y8524666D01*
X8790132Y8536635D01*
X9063766Y8640032D01*
X9314151Y8775655D01*
X9546653Y8946817D01*
X9725938Y9114176D01*
X9835555Y9217908D01*
X9933498Y9289157D01*
X10028556Y9332495D01*
X10129523Y9352496D01*
X10189294Y9355202D01*
X10290108Y9351612D01*
G36*
X-15260424Y14972222D02*
G01*
X-15134350Y14929167D01*
X-15005785Y14849618D01*
X-14870095Y14731844D01*
X-14837833Y14699618D01*
X-14615447Y14502526D01*
X-14368283Y14339189D01*
X-14098991Y14211117D01*
X-13826856Y14123931D01*
X-13741046Y14106990D01*
X-13638127Y14096010D01*
X-13509429Y14090336D01*
X-13366750Y14089218D01*
X-13179253Y14094003D01*
X-13020603Y14108787D01*
X-12877922Y14136395D01*
X-12738336Y14179654D01*
X-12588968Y14241392D01*
X-12514279Y14276366D01*
X-12395824Y14335539D01*
X-12296543Y14391332D01*
X-12206730Y14450689D01*
X-12116678Y14520555D01*
X-12016682Y14607874D01*
X-11903923Y14713043D01*
X-11811733Y14799131D01*
X-11741350Y14860367D01*
X-11685081Y14902263D01*
X-11635238Y14930330D01*
X-11584130Y14950082D01*
X-11565152Y14955867D01*
X-11413763Y14979347D01*
X-11265053Y14963038D01*
X-11150676Y14920379D01*
X-11102115Y14888215D01*
X-11034109Y14833497D01*
X-10956348Y14764385D01*
X-10891246Y14701847D01*
X-10672811Y14508165D01*
X-10441249Y14351844D01*
X-10189650Y14228892D01*
X-9911103Y14135318D01*
X-9909713Y14134940D01*
X-9825920Y14115139D01*
X-9738795Y14101716D01*
X-9637059Y14093563D01*
X-9509435Y14089574D01*
X-9440333Y14088840D01*
X-9229061Y14093973D01*
X-9045264Y14114009D01*
X-8875891Y14151620D01*
X-8707890Y14209480D01*
X-8581633Y14264621D01*
X-8442893Y14334002D01*
X-8320776Y14406039D01*
X-8204522Y14488348D01*
X-8083368Y14588548D01*
X-7947020Y14713811D01*
X-7855589Y14799311D01*
X-7785857Y14860032D01*
X-7730011Y14901547D01*
X-7680241Y14929431D01*
X-7628736Y14949257D01*
X-7608360Y14955468D01*
X-7486119Y14979946D01*
X-7372450Y14977141D01*
X-7261329Y14944791D01*
X-7146735Y14880636D01*
X-7022645Y14782413D01*
X-6939043Y14704145D01*
X-6853213Y14623259D01*
X-6763704Y14544351D01*
X-6682411Y14477638D01*
X-6632126Y14440485D01*
X-6376169Y14291350D01*
X-6107428Y14181254D01*
X-5829436Y14110686D01*
X-5545728Y14080137D01*
X-5259836Y14090098D01*
X-4975296Y14141057D01*
X-4815416Y14188518D01*
X-4598426Y14275177D01*
X-4400992Y14382414D01*
X-4212993Y14516669D01*
X-4024305Y14684382D01*
X-4002777Y14705441D01*
X-3924044Y14780058D01*
X-3848023Y14846758D01*
X-3783972Y14897720D01*
X-3744788Y14923373D01*
X-3609480Y14969358D01*
X-3462320Y14978028D01*
X-3333648Y14955131D01*
X-3279403Y14936827D01*
X-3230106Y14912663D01*
X-3177881Y14877003D01*
X-3114852Y14824212D01*
X-3033141Y14748653D01*
X-2997380Y14714550D01*
X-2858738Y14586678D01*
X-2734684Y14484589D01*
X-2614117Y14400421D01*
X-2485935Y14326311D01*
X-2364137Y14266023D01*
X-2133077Y14175661D01*
X-1884831Y14113875D01*
X-1610834Y14078560D01*
X-1598307Y14077600D01*
X-1446421Y14061489D01*
X-1327865Y14036497D01*
X-1233998Y13999252D01*
X-1156176Y13946380D01*
X-1089663Y13879105D01*
X-1024281Y13779157D01*
X-976399Y13659907D01*
X-953465Y13541126D01*
X-952500Y13514916D01*
X-972709Y13373124D01*
X-1029527Y13239258D01*
X-1117241Y13122218D01*
X-1230139Y13030904D01*
X-1280583Y13003802D01*
X-1387455Y12971003D01*
X-1526328Y12954842D01*
X-1690626Y12954526D01*
X-1873774Y12969258D01*
X-2069196Y12998245D01*
X-2270317Y13040692D01*
X-2470559Y13095804D01*
X-2663349Y13162786D01*
X-2692874Y13174475D01*
X-2835222Y13233925D01*
X-2953879Y13289218D01*
X-3063788Y13348278D01*
X-3179891Y13419030D01*
X-3289688Y13490989D01*
X-3494097Y13627659D01*
X-3692250Y13495176D01*
X-3995787Y13314394D01*
X-4313655Y13169450D01*
X-4652580Y13057493D01*
X-4828529Y13013778D01*
X-4912918Y12996087D01*
X-4990931Y12983136D01*
X-5071783Y12974219D01*
X-5164689Y12968632D01*
X-5278863Y12965669D01*
X-5423519Y12964627D01*
X-5471583Y12964583D01*
X-5638858Y12965580D01*
X-5772125Y12968924D01*
X-5879672Y12975147D01*
X-5969785Y12984780D01*
X-6050753Y12998355D01*
X-6074326Y13003239D01*
X-6437539Y13100461D01*
X-6776165Y13230792D01*
X-7093753Y13395711D01*
X-7244596Y13490818D01*
X-7451275Y13629134D01*
X-7652029Y13493022D01*
X-7958336Y13310541D01*
X-8289163Y13161955D01*
X-8645246Y13046955D01*
X-8827007Y13003239D01*
X-8906852Y12988387D01*
X-8993375Y12977635D01*
X-9094863Y12970452D01*
X-9219603Y12966306D01*
X-9375882Y12964666D01*
X-9429750Y12964583D01*
X-9584774Y12965208D01*
X-9706692Y12967551D01*
X-9804717Y12972319D01*
X-9888064Y12980216D01*
X-9965948Y12991946D01*
X-10047582Y13008216D01*
X-10072804Y13013778D01*
X-10439318Y13116771D01*
X-10786342Y13257152D01*
X-11113170Y13434603D01*
X-11338329Y13587168D01*
X-11404423Y13636034D01*
X-11517753Y13551247D01*
X-11730318Y13409765D01*
X-11971870Y13279280D01*
X-12229339Y13165952D01*
X-12489655Y13075938D01*
X-12579197Y13051035D01*
X-12802369Y13001706D01*
X-13025083Y12971004D01*
X-13260715Y12957644D01*
X-13522643Y12960340D01*
X-13522672Y12960341D01*
X-13865999Y12989623D01*
X-14190588Y13052638D01*
X-14502332Y13151327D01*
X-14807120Y13287633D01*
X-15110843Y13463498D01*
X-15173661Y13504713D01*
X-15369908Y13635981D01*
X-15416079Y13593583D01*
X-15480133Y13542938D01*
X-15572694Y13480407D01*
X-15683893Y13411970D01*
X-15803858Y13343608D01*
X-15922719Y13281302D01*
X-15967160Y13259691D01*
X-16260225Y13138685D01*
X-16565162Y13046091D01*
X-16871832Y12984310D01*
X-17170095Y12955739D01*
X-17259364Y12954000D01*
X-17363654Y12955288D01*
X-17438271Y12960563D01*
X-17495833Y12971941D01*
X-17548959Y12991536D01*
X-17584847Y13008562D01*
X-17705621Y13090263D01*
X-17797768Y13196432D01*
X-17860075Y13320011D01*
X-17891326Y13453940D01*
X-17890307Y13591162D01*
X-17855803Y13724618D01*
X-17786600Y13847251D01*
X-17738647Y13902263D01*
X-17665518Y13966470D01*
X-17588345Y14012693D01*
X-17497242Y14044544D01*
X-17382324Y14065635D01*
X-17257985Y14077839D01*
X-16984989Y14110222D01*
X-16739171Y14166486D01*
X-16512997Y14250028D01*
X-16298936Y14364250D01*
X-16089456Y14512550D01*
X-15877025Y14698328D01*
X-15871456Y14703631D01*
X-15778026Y14791431D01*
X-15706783Y14854294D01*
X-15650342Y14897572D01*
X-15601317Y14926620D01*
X-15552322Y14946792D01*
X-15523637Y14955775D01*
X-15388642Y14980514D01*
X-15260424Y14972222D01*
G37*
X-15260424Y14972222D02*
X-15134350Y14929167D01*
X-15005785Y14849618D01*
X-14870095Y14731844D01*
X-14837833Y14699618D01*
X-14615447Y14502526D01*
X-14368283Y14339189D01*
X-14098991Y14211117D01*
X-13826856Y14123931D01*
X-13741046Y14106990D01*
X-13638127Y14096010D01*
X-13509429Y14090336D01*
X-13366750Y14089218D01*
X-13179253Y14094003D01*
X-13020603Y14108787D01*
X-12877922Y14136395D01*
X-12738336Y14179654D01*
X-12588968Y14241392D01*
X-12514279Y14276366D01*
X-12395824Y14335539D01*
X-12296543Y14391332D01*
X-12206730Y14450689D01*
X-12116678Y14520555D01*
X-12016682Y14607874D01*
X-11903923Y14713043D01*
X-11811733Y14799131D01*
X-11741350Y14860367D01*
X-11685081Y14902263D01*
X-11635238Y14930330D01*
X-11584130Y14950082D01*
X-11565152Y14955867D01*
X-11413763Y14979347D01*
X-11265053Y14963038D01*
X-11150676Y14920379D01*
X-11102115Y14888215D01*
X-11034109Y14833497D01*
X-10956348Y14764385D01*
X-10891246Y14701847D01*
X-10672811Y14508165D01*
X-10441249Y14351844D01*
X-10189650Y14228892D01*
X-9911103Y14135318D01*
X-9909713Y14134940D01*
X-9825920Y14115139D01*
X-9738795Y14101716D01*
X-9637059Y14093563D01*
X-9509435Y14089574D01*
X-9440333Y14088840D01*
X-9229061Y14093973D01*
X-9045264Y14114009D01*
X-8875891Y14151620D01*
X-8707890Y14209480D01*
X-8581633Y14264621D01*
X-8442893Y14334002D01*
X-8320776Y14406039D01*
X-8204522Y14488348D01*
X-8083368Y14588548D01*
X-7947020Y14713811D01*
X-7855589Y14799311D01*
X-7785857Y14860032D01*
X-7730011Y14901547D01*
X-7680241Y14929431D01*
X-7628736Y14949257D01*
X-7608360Y14955468D01*
X-7486119Y14979946D01*
X-7372450Y14977141D01*
X-7261329Y14944791D01*
X-7146735Y14880636D01*
X-7022645Y14782413D01*
X-6939043Y14704145D01*
X-6853213Y14623259D01*
X-6763704Y14544351D01*
X-6682411Y14477638D01*
X-6632126Y14440485D01*
X-6376169Y14291350D01*
X-6107428Y14181254D01*
X-5829436Y14110686D01*
X-5545728Y14080137D01*
X-5259836Y14090098D01*
X-4975296Y14141057D01*
X-4815416Y14188518D01*
X-4598426Y14275177D01*
X-4400992Y14382414D01*
X-4212993Y14516669D01*
X-4024305Y14684382D01*
X-4002777Y14705441D01*
X-3924044Y14780058D01*
X-3848023Y14846758D01*
X-3783972Y14897720D01*
X-3744788Y14923373D01*
X-3609480Y14969358D01*
X-3462320Y14978028D01*
X-3333648Y14955131D01*
X-3279403Y14936827D01*
X-3230106Y14912663D01*
X-3177881Y14877003D01*
X-3114852Y14824212D01*
X-3033141Y14748653D01*
X-2997380Y14714550D01*
X-2858738Y14586678D01*
X-2734684Y14484589D01*
X-2614117Y14400421D01*
X-2485935Y14326311D01*
X-2364137Y14266023D01*
X-2133077Y14175661D01*
X-1884831Y14113875D01*
X-1610834Y14078560D01*
X-1598307Y14077600D01*
X-1446421Y14061489D01*
X-1327865Y14036497D01*
X-1233998Y13999252D01*
X-1156176Y13946380D01*
X-1089663Y13879105D01*
X-1024281Y13779157D01*
X-976399Y13659907D01*
X-953465Y13541126D01*
X-952500Y13514916D01*
X-972709Y13373124D01*
X-1029527Y13239258D01*
X-1117241Y13122218D01*
X-1230139Y13030904D01*
X-1280583Y13003802D01*
X-1387455Y12971003D01*
X-1526328Y12954842D01*
X-1690626Y12954526D01*
X-1873774Y12969258D01*
X-2069196Y12998245D01*
X-2270317Y13040692D01*
X-2470559Y13095804D01*
X-2663349Y13162786D01*
X-2692874Y13174475D01*
X-2835222Y13233925D01*
X-2953879Y13289218D01*
X-3063788Y13348278D01*
X-3179891Y13419030D01*
X-3289688Y13490989D01*
X-3494097Y13627659D01*
X-3692250Y13495176D01*
X-3995787Y13314394D01*
X-4313655Y13169450D01*
X-4652580Y13057493D01*
X-4828529Y13013778D01*
X-4912918Y12996087D01*
X-4990931Y12983136D01*
X-5071783Y12974219D01*
X-5164689Y12968632D01*
X-5278863Y12965669D01*
X-5423519Y12964627D01*
X-5471583Y12964583D01*
X-5638858Y12965580D01*
X-5772125Y12968924D01*
X-5879672Y12975147D01*
X-5969785Y12984780D01*
X-6050753Y12998355D01*
X-6074326Y13003239D01*
X-6437539Y13100461D01*
X-6776165Y13230792D01*
X-7093753Y13395711D01*
X-7244596Y13490818D01*
X-7451275Y13629134D01*
X-7652029Y13493022D01*
X-7958336Y13310541D01*
X-8289163Y13161955D01*
X-8645246Y13046955D01*
X-8827007Y13003239D01*
X-8906852Y12988387D01*
X-8993375Y12977635D01*
X-9094863Y12970452D01*
X-9219603Y12966306D01*
X-9375882Y12964666D01*
X-9429750Y12964583D01*
X-9584774Y12965208D01*
X-9706692Y12967551D01*
X-9804717Y12972319D01*
X-9888064Y12980216D01*
X-9965948Y12991946D01*
X-10047582Y13008216D01*
X-10072804Y13013778D01*
X-10439318Y13116771D01*
X-10786342Y13257152D01*
X-11113170Y13434603D01*
X-11338329Y13587168D01*
X-11404423Y13636034D01*
X-11517753Y13551247D01*
X-11730318Y13409765D01*
X-11971870Y13279280D01*
X-12229339Y13165952D01*
X-12489655Y13075938D01*
X-12579197Y13051035D01*
X-12802369Y13001706D01*
X-13025083Y12971004D01*
X-13260715Y12957644D01*
X-13522643Y12960340D01*
X-13522672Y12960341D01*
X-13865999Y12989623D01*
X-14190588Y13052638D01*
X-14502332Y13151327D01*
X-14807120Y13287633D01*
X-15110843Y13463498D01*
X-15173661Y13504713D01*
X-15369908Y13635981D01*
X-15416079Y13593583D01*
X-15480133Y13542938D01*
X-15572694Y13480407D01*
X-15683893Y13411970D01*
X-15803858Y13343608D01*
X-15922719Y13281302D01*
X-15967160Y13259691D01*
X-16260225Y13138685D01*
X-16565162Y13046091D01*
X-16871832Y12984310D01*
X-17170095Y12955739D01*
X-17259364Y12954000D01*
X-17363654Y12955288D01*
X-17438271Y12960563D01*
X-17495833Y12971941D01*
X-17548959Y12991536D01*
X-17584847Y13008562D01*
X-17705621Y13090263D01*
X-17797768Y13196432D01*
X-17860075Y13320011D01*
X-17891326Y13453940D01*
X-17890307Y13591162D01*
X-17855803Y13724618D01*
X-17786600Y13847251D01*
X-17738647Y13902263D01*
X-17665518Y13966470D01*
X-17588345Y14012693D01*
X-17497242Y14044544D01*
X-17382324Y14065635D01*
X-17257985Y14077839D01*
X-16984989Y14110222D01*
X-16739171Y14166486D01*
X-16512997Y14250028D01*
X-16298936Y14364250D01*
X-16089456Y14512550D01*
X-15877025Y14698328D01*
X-15871456Y14703631D01*
X-15778026Y14791431D01*
X-15706783Y14854294D01*
X-15650342Y14897572D01*
X-15601317Y14926620D01*
X-15552322Y14946792D01*
X-15523637Y14955775D01*
X-15388642Y14980514D01*
X-15260424Y14972222D01*
G36*
X-171120Y21137749D02*
G01*
X-75461Y21111668D01*
X18225Y21063013D01*
X117926Y20987541D01*
X231626Y20881009D01*
X243417Y20869148D01*
X464358Y20672478D01*
X701447Y20513978D01*
X958810Y20391228D01*
X1186748Y20315859D01*
X1261931Y20296843D01*
X1332068Y20283492D01*
X1407228Y20274900D01*
X1497481Y20270162D01*
X1612898Y20268371D01*
X1714500Y20268389D01*
X1849408Y20269479D01*
X1951928Y20272317D01*
X2031999Y20277987D01*
X2099563Y20287572D01*
X2164559Y20302156D01*
X2236927Y20322822D01*
X2249770Y20326739D01*
X2516759Y20426164D01*
X2759970Y20554890D01*
X2986869Y20717447D01*
X3175000Y20888107D01*
X3279139Y20987539D01*
X3366074Y21058199D01*
X3444680Y21104661D01*
X3523833Y21131498D01*
X3612407Y21143285D01*
X3673553Y21145035D01*
X3831075Y21127364D01*
X3967803Y21072962D01*
X4084855Y20981318D01*
X4121002Y20940813D01*
X4248095Y20808646D01*
X4407783Y20678806D01*
X4590493Y20557337D01*
X4786652Y20450284D01*
X4986684Y20363689D01*
X5091888Y20327884D01*
X5165769Y20306305D01*
X5230119Y20290853D01*
X5294583Y20280509D01*
X5368805Y20274253D01*
X5462429Y20271064D01*
X5585098Y20269922D01*
X5640917Y20269814D01*
X5821396Y20272291D01*
X5970899Y20281586D01*
X6100533Y20299945D01*
X6221408Y20329616D01*
X6344632Y20372844D01*
X6481315Y20431876D01*
X6511445Y20445871D01*
X6720934Y20558584D01*
X6914205Y20694706D01*
X7102721Y20862501D01*
X7136903Y20896572D01*
X7242394Y20997152D01*
X7333414Y21067499D01*
X7419369Y21112336D01*
X7509666Y21136387D01*
X7613712Y21144375D01*
X7630584Y21144480D01*
X7723621Y21140436D01*
X7802315Y21125443D01*
X7875338Y21095024D01*
X7951364Y21044701D01*
X8039066Y20969996D01*
X8122711Y20890403D01*
X8338593Y20699244D01*
X8559221Y20545189D01*
X8792964Y20423168D01*
X9048195Y20328107D01*
X9053231Y20326552D01*
X9125816Y20305188D01*
X9189145Y20289901D01*
X9252783Y20279694D01*
X9326296Y20273566D01*
X9419252Y20270518D01*
X9541215Y20269551D01*
X9599084Y20269522D01*
X9780019Y20272287D01*
X9929775Y20281773D01*
X10059254Y20300109D01*
X10179359Y20329421D01*
X10300994Y20371836D01*
X10435063Y20429481D01*
X10446845Y20434904D01*
X10608636Y20517752D01*
X10756983Y20612501D01*
X10903403Y20727351D01*
X11059413Y20870502D01*
X11061571Y20872601D01*
X11175389Y20978113D01*
X11271721Y21053840D01*
X11358325Y21103979D01*
X11442958Y21132727D01*
X11533378Y21144282D01*
X11565128Y21145035D01*
X11656321Y21142363D01*
X11732699Y21130817D01*
X11802425Y21106233D01*
X11873665Y21064450D01*
X11954581Y21001305D01*
X12053338Y20912635D01*
X12091844Y20876487D01*
X12190139Y20787682D01*
X12295384Y20699402D01*
X12396006Y20620961D01*
X12480431Y20561671D01*
X12492608Y20554002D01*
X12680097Y20453762D01*
X12885585Y20370232D01*
X13096995Y20307093D01*
X13302252Y20268032D01*
X13467849Y20256500D01*
X13643637Y20239640D01*
X13797516Y20190109D01*
X13926346Y20109477D01*
X14026988Y19999313D01*
X14047960Y19966351D01*
X14077978Y19910380D01*
X14095895Y19859070D01*
X14104726Y19798102D01*
X14107487Y19713159D01*
X14107584Y19683340D01*
X14106168Y19590645D01*
X14099792Y19526022D01*
X14085265Y19475246D01*
X14059395Y19424092D01*
X14043467Y19397590D01*
X13952033Y19286923D01*
X13832537Y19199295D01*
X13696471Y19142667D01*
X13664208Y19134900D01*
X13550512Y19122607D01*
X13405646Y19124492D01*
X13237865Y19139310D01*
X13055424Y19165817D01*
X12866575Y19202766D01*
X12679575Y19248915D01*
X12502678Y19303017D01*
X12467167Y19315422D01*
X12303539Y19381674D01*
X12126029Y19466488D01*
X11950849Y19561398D01*
X11794215Y19657938D01*
X11741524Y19694297D01*
X11584411Y19807028D01*
X11406664Y19684886D01*
X11099738Y19498684D01*
X10777801Y19349989D01*
X10444343Y19238806D01*
X10102854Y19165141D01*
X9756823Y19129000D01*
X9409740Y19130388D01*
X9065096Y19169313D01*
X8726379Y19245779D01*
X8397079Y19359792D01*
X8080688Y19511359D01*
X7811407Y19678801D01*
X7632397Y19803531D01*
X7430407Y19668223D01*
X7114635Y19481342D01*
X6785672Y19333543D01*
X6446599Y19224825D01*
X6100496Y19155188D01*
X5750445Y19124633D01*
X5399526Y19133159D01*
X5050819Y19180767D01*
X4707405Y19267457D01*
X4372364Y19393227D01*
X4048778Y19558080D01*
X3872593Y19668223D01*
X3670603Y19803531D01*
X3491593Y19678953D01*
X3189421Y19493841D01*
X2871126Y19346217D01*
X2540261Y19236088D01*
X2200380Y19163460D01*
X1855036Y19128339D01*
X1507784Y19130732D01*
X1162176Y19170644D01*
X821768Y19248081D01*
X490111Y19363051D01*
X170761Y19515559D01*
X-85407Y19672696D01*
X-283079Y19807490D01*
X-390248Y19729912D01*
X-699851Y19530878D01*
X-1024518Y19371278D01*
X-1364987Y19250837D01*
X-1721993Y19169278D01*
X-1979083Y19135460D01*
X-2101591Y19124301D01*
X-2191245Y19117809D01*
X-2257303Y19116339D01*
X-2309025Y19120247D01*
X-2355671Y19129889D01*
X-2406498Y19145621D01*
X-2427130Y19152681D01*
X-2571905Y19220890D01*
X-2682356Y19313839D01*
X-2758864Y19432021D01*
X-2801807Y19575930D01*
X-2810462Y19651947D01*
X-2806659Y19794271D01*
X-2772406Y19916125D01*
X-2703619Y20030159D01*
X-2678174Y20061749D01*
X-2606500Y20131403D01*
X-2520823Y20183347D01*
X-2413788Y20220309D01*
X-2278038Y20245016D01*
X-2150826Y20257298D01*
X-1876518Y20291073D01*
X-1624809Y20353144D01*
X-1389665Y20446314D01*
X-1165050Y20573386D01*
X-944930Y20737163D01*
X-761971Y20902348D01*
X-657907Y20998796D01*
X-570909Y21066648D01*
X-491780Y21110514D01*
X-411326Y21135000D01*
X-320349Y21144716D01*
X-276737Y21145500D01*
X-171120Y21137749D01*
G37*
X-171120Y21137749D02*
X-75461Y21111668D01*
X18225Y21063013D01*
X117926Y20987541D01*
X231626Y20881009D01*
X243417Y20869148D01*
X464358Y20672478D01*
X701447Y20513978D01*
X958810Y20391228D01*
X1186748Y20315859D01*
X1261931Y20296843D01*
X1332068Y20283492D01*
X1407228Y20274900D01*
X1497481Y20270162D01*
X1612898Y20268371D01*
X1714500Y20268389D01*
X1849408Y20269479D01*
X1951928Y20272317D01*
X2031999Y20277987D01*
X2099563Y20287572D01*
X2164559Y20302156D01*
X2236927Y20322822D01*
X2249770Y20326739D01*
X2516759Y20426164D01*
X2759970Y20554890D01*
X2986869Y20717447D01*
X3175000Y20888107D01*
X3279139Y20987539D01*
X3366074Y21058199D01*
X3444680Y21104661D01*
X3523833Y21131498D01*
X3612407Y21143285D01*
X3673553Y21145035D01*
X3831075Y21127364D01*
X3967803Y21072962D01*
X4084855Y20981318D01*
X4121002Y20940813D01*
X4248095Y20808646D01*
X4407783Y20678806D01*
X4590493Y20557337D01*
X4786652Y20450284D01*
X4986684Y20363689D01*
X5091888Y20327884D01*
X5165769Y20306305D01*
X5230119Y20290853D01*
X5294583Y20280509D01*
X5368805Y20274253D01*
X5462429Y20271064D01*
X5585098Y20269922D01*
X5640917Y20269814D01*
X5821396Y20272291D01*
X5970899Y20281586D01*
X6100533Y20299945D01*
X6221408Y20329616D01*
X6344632Y20372844D01*
X6481315Y20431876D01*
X6511445Y20445871D01*
X6720934Y20558584D01*
X6914205Y20694706D01*
X7102721Y20862501D01*
X7136903Y20896572D01*
X7242394Y20997152D01*
X7333414Y21067499D01*
X7419369Y21112336D01*
X7509666Y21136387D01*
X7613712Y21144375D01*
X7630584Y21144480D01*
X7723621Y21140436D01*
X7802315Y21125443D01*
X7875338Y21095024D01*
X7951364Y21044701D01*
X8039066Y20969996D01*
X8122711Y20890403D01*
X8338593Y20699244D01*
X8559221Y20545189D01*
X8792964Y20423168D01*
X9048195Y20328107D01*
X9053231Y20326552D01*
X9125816Y20305188D01*
X9189145Y20289901D01*
X9252783Y20279694D01*
X9326296Y20273566D01*
X9419252Y20270518D01*
X9541215Y20269551D01*
X9599084Y20269522D01*
X9780019Y20272287D01*
X9929775Y20281773D01*
X10059254Y20300109D01*
X10179359Y20329421D01*
X10300994Y20371836D01*
X10435063Y20429481D01*
X10446845Y20434904D01*
X10608636Y20517752D01*
X10756983Y20612501D01*
X10903403Y20727351D01*
X11059413Y20870502D01*
X11061571Y20872601D01*
X11175389Y20978113D01*
X11271721Y21053840D01*
X11358325Y21103979D01*
X11442958Y21132727D01*
X11533378Y21144282D01*
X11565128Y21145035D01*
X11656321Y21142363D01*
X11732699Y21130817D01*
X11802425Y21106233D01*
X11873665Y21064450D01*
X11954581Y21001305D01*
X12053338Y20912635D01*
X12091844Y20876487D01*
X12190139Y20787682D01*
X12295384Y20699402D01*
X12396006Y20620961D01*
X12480431Y20561671D01*
X12492608Y20554002D01*
X12680097Y20453762D01*
X12885585Y20370232D01*
X13096995Y20307093D01*
X13302252Y20268032D01*
X13467849Y20256500D01*
X13643637Y20239640D01*
X13797516Y20190109D01*
X13926346Y20109477D01*
X14026988Y19999313D01*
X14047960Y19966351D01*
X14077978Y19910380D01*
X14095895Y19859070D01*
X14104726Y19798102D01*
X14107487Y19713159D01*
X14107584Y19683340D01*
X14106168Y19590645D01*
X14099792Y19526022D01*
X14085265Y19475246D01*
X14059395Y19424092D01*
X14043467Y19397590D01*
X13952033Y19286923D01*
X13832537Y19199295D01*
X13696471Y19142667D01*
X13664208Y19134900D01*
X13550512Y19122607D01*
X13405646Y19124492D01*
X13237865Y19139310D01*
X13055424Y19165817D01*
X12866575Y19202766D01*
X12679575Y19248915D01*
X12502678Y19303017D01*
X12467167Y19315422D01*
X12303539Y19381674D01*
X12126029Y19466488D01*
X11950849Y19561398D01*
X11794215Y19657938D01*
X11741524Y19694297D01*
X11584411Y19807028D01*
X11406664Y19684886D01*
X11099738Y19498684D01*
X10777801Y19349989D01*
X10444343Y19238806D01*
X10102854Y19165141D01*
X9756823Y19129000D01*
X9409740Y19130388D01*
X9065096Y19169313D01*
X8726379Y19245779D01*
X8397079Y19359792D01*
X8080688Y19511359D01*
X7811407Y19678801D01*
X7632397Y19803531D01*
X7430407Y19668223D01*
X7114635Y19481342D01*
X6785672Y19333543D01*
X6446599Y19224825D01*
X6100496Y19155188D01*
X5750445Y19124633D01*
X5399526Y19133159D01*
X5050819Y19180767D01*
X4707405Y19267457D01*
X4372364Y19393227D01*
X4048778Y19558080D01*
X3872593Y19668223D01*
X3670603Y19803531D01*
X3491593Y19678953D01*
X3189421Y19493841D01*
X2871126Y19346217D01*
X2540261Y19236088D01*
X2200380Y19163460D01*
X1855036Y19128339D01*
X1507784Y19130732D01*
X1162176Y19170644D01*
X821768Y19248081D01*
X490111Y19363051D01*
X170761Y19515559D01*
X-85407Y19672696D01*
X-283079Y19807490D01*
X-390248Y19729912D01*
X-699851Y19530878D01*
X-1024518Y19371278D01*
X-1364987Y19250837D01*
X-1721993Y19169278D01*
X-1979083Y19135460D01*
X-2101591Y19124301D01*
X-2191245Y19117809D01*
X-2257303Y19116339D01*
X-2309025Y19120247D01*
X-2355671Y19129889D01*
X-2406498Y19145621D01*
X-2427130Y19152681D01*
X-2571905Y19220890D01*
X-2682356Y19313839D01*
X-2758864Y19432021D01*
X-2801807Y19575930D01*
X-2810462Y19651947D01*
X-2806659Y19794271D01*
X-2772406Y19916125D01*
X-2703619Y20030159D01*
X-2678174Y20061749D01*
X-2606500Y20131403D01*
X-2520823Y20183347D01*
X-2413788Y20220309D01*
X-2278038Y20245016D01*
X-2150826Y20257298D01*
X-1876518Y20291073D01*
X-1624809Y20353144D01*
X-1389665Y20446314D01*
X-1165050Y20573386D01*
X-944930Y20737163D01*
X-761971Y20902348D01*
X-657907Y20998796D01*
X-570909Y21066648D01*
X-491780Y21110514D01*
X-411326Y21135000D01*
X-320349Y21144716D01*
X-276737Y21145500D01*
X-171120Y21137749D01*
M02*
