G04 #@! TF.GenerationSoftware,KiCad,Pcbnew,5.1.5+dfsg1-2build2*
G04 #@! TF.CreationDate,2021-04-01T21:49:22-04:00*
G04 #@! TF.ProjectId,ocean_tile_brick,6f636561-6e5f-4746-996c-655f62726963,rev?*
G04 #@! TF.SameCoordinates,Original*
G04 #@! TF.FileFunction,Soldermask,Top*
G04 #@! TF.FilePolarity,Negative*
%FSLAX46Y46*%
G04 Gerber Fmt 4.6, Leading zero omitted, Abs format (unit mm)*
G04 Created by KiCad (PCBNEW 5.1.5+dfsg1-2build2) date 2021-04-01 21:49:22*
%MOMM*%
%LPD*%
G04 APERTURE LIST*
%ADD10C,0.010000*%
G04 APERTURE END LIST*
D10*
G36*
X17484016Y21583004D02*
G01*
X17713451Y21185879D01*
X17937197Y20798429D01*
X18154335Y20422246D01*
X18363949Y20058926D01*
X18565124Y19710061D01*
X18756942Y19377246D01*
X18938486Y19062076D01*
X19108841Y18766143D01*
X19267089Y18491043D01*
X19412314Y18238368D01*
X19543599Y18009714D01*
X19660028Y17806673D01*
X19760684Y17630841D01*
X19844651Y17483811D01*
X19911012Y17367176D01*
X19958849Y17282532D01*
X19987248Y17231472D01*
X19995419Y17215529D01*
X19972451Y17207756D01*
X19918412Y17194086D01*
X19843705Y17177101D01*
X19820393Y17172080D01*
X19746220Y17158875D01*
X19660621Y17149126D01*
X19556598Y17142440D01*
X19427152Y17138424D01*
X19265288Y17136685D01*
X19187584Y17136539D01*
X18977192Y17138689D01*
X18799366Y17146055D01*
X18644505Y17160048D01*
X18503013Y17182077D01*
X18365293Y17213553D01*
X18221745Y17255886D01*
X18104096Y17295748D01*
X17940871Y17358043D01*
X17784820Y17428215D01*
X17631290Y17509413D01*
X17475630Y17604784D01*
X17313190Y17717479D01*
X17139317Y17850644D01*
X16949362Y18007429D01*
X16738672Y18190982D01*
X16607288Y18309001D01*
X16495364Y18410095D01*
X16379533Y18514113D01*
X16268897Y18612924D01*
X16172554Y18698400D01*
X16107605Y18755447D01*
X15761741Y19040661D01*
X15422221Y19286691D01*
X15084734Y19495325D01*
X14744970Y19668351D01*
X14398619Y19807555D01*
X14041371Y19914725D01*
X13668917Y19991649D01*
X13276947Y20040114D01*
X12964584Y20058970D01*
X12506051Y20057872D01*
X12068172Y20020515D01*
X11648833Y19946328D01*
X11245919Y19834740D01*
X10857314Y19685181D01*
X10480905Y19497078D01*
X10163782Y19303016D01*
X10044069Y19221637D01*
X9928649Y19139162D01*
X9812529Y19051534D01*
X9690720Y18954692D01*
X9558229Y18844579D01*
X9410066Y18717135D01*
X9241240Y18568301D01*
X9053548Y18400136D01*
X8883562Y18247486D01*
X8739980Y18119890D01*
X8618220Y18013559D01*
X8513700Y17924703D01*
X8421839Y17849531D01*
X8338056Y17784255D01*
X8257769Y17725083D01*
X8176396Y17668225D01*
X8134732Y17640057D01*
X7827468Y17458031D01*
X7507559Y17315883D01*
X7171378Y17212129D01*
X6995584Y17174099D01*
X6858811Y17154924D01*
X6691041Y17141502D01*
X6503217Y17133835D01*
X6306282Y17131921D01*
X6111178Y17135761D01*
X5928849Y17145355D01*
X5770239Y17160703D01*
X5683250Y17174099D01*
X5488912Y17215394D01*
X5306139Y17265358D01*
X5130838Y17326433D01*
X4958915Y17401057D01*
X4786278Y17491672D01*
X4608833Y17600717D01*
X4422487Y17730634D01*
X4223147Y17883862D01*
X4006720Y18062841D01*
X3769113Y18270012D01*
X3619500Y18404489D01*
X3421128Y18583041D01*
X3247475Y18736112D01*
X3093216Y18868052D01*
X2953030Y18983205D01*
X2821594Y19085920D01*
X2693585Y19180544D01*
X2563680Y19271424D01*
X2530208Y19294119D01*
X2161015Y19518662D01*
X1777102Y19704221D01*
X1377722Y19851000D01*
X962128Y19959202D01*
X529573Y20029029D01*
X79309Y20060685D01*
X-285750Y20058970D01*
X-716858Y20028492D01*
X-1121458Y19968054D01*
X-1504375Y19876167D01*
X-1870432Y19751337D01*
X-2224454Y19592074D01*
X-2571264Y19396887D01*
X-2705054Y19311072D01*
X-2831396Y19225230D01*
X-2954431Y19136955D01*
X-3079325Y19042061D01*
X-3211241Y18936359D01*
X-3355343Y18815663D01*
X-3516795Y18675785D01*
X-3700762Y18512537D01*
X-3801750Y18421790D01*
X-4026757Y18220793D01*
X-4226088Y18047222D01*
X-4403738Y17898308D01*
X-4563700Y17771278D01*
X-4709970Y17663364D01*
X-4846541Y17571794D01*
X-4977407Y17493799D01*
X-5106562Y17426608D01*
X-5238001Y17367451D01*
X-5375717Y17313558D01*
X-5425262Y17295736D01*
X-5572560Y17246339D01*
X-5706785Y17207935D01*
X-5836841Y17179251D01*
X-5971637Y17159010D01*
X-6120078Y17145939D01*
X-6291071Y17138764D01*
X-6493522Y17136209D01*
X-6540500Y17136140D01*
X-6707204Y17136589D01*
X-6839367Y17138279D01*
X-6944775Y17141722D01*
X-7031214Y17147428D01*
X-7106470Y17155912D01*
X-7178329Y17167684D01*
X-7253571Y17183038D01*
X-7586873Y17273095D01*
X-7895192Y17393512D01*
X-8043333Y17466513D01*
X-8146452Y17522695D01*
X-8243914Y17579859D01*
X-8339840Y17641198D01*
X-8438352Y17709901D01*
X-8543572Y17789161D01*
X-8659620Y17882168D01*
X-8790619Y17992113D01*
X-8940689Y18122188D01*
X-9113953Y18275583D01*
X-9276935Y18421644D01*
X-9455198Y18581371D01*
X-9607655Y18716299D01*
X-9739404Y18830560D01*
X-9855543Y18928286D01*
X-9961169Y19013611D01*
X-10061381Y19090667D01*
X-10161275Y19163586D01*
X-10265951Y19236502D01*
X-10361512Y19300912D01*
X-10720316Y19518494D01*
X-11088136Y19698004D01*
X-11470078Y19841358D01*
X-11871251Y19950473D01*
X-12296763Y20027266D01*
X-12297833Y20027415D01*
X-12422700Y20040151D01*
X-12579978Y20049051D01*
X-12759924Y20054191D01*
X-12952798Y20055647D01*
X-13148857Y20053496D01*
X-13338359Y20047814D01*
X-13511563Y20038676D01*
X-13658728Y20026161D01*
X-13736412Y20016156D01*
X-14154923Y19934396D01*
X-14548051Y19821890D01*
X-14921750Y19676356D01*
X-15281974Y19495509D01*
X-15596051Y19303016D01*
X-15711631Y19224569D01*
X-15822105Y19145934D01*
X-15932446Y19063063D01*
X-16047628Y18971911D01*
X-16172622Y18868431D01*
X-16312403Y18748579D01*
X-16471942Y18608306D01*
X-16656213Y18443567D01*
X-16692677Y18410747D01*
X-16864295Y18256688D01*
X-17009593Y18127658D01*
X-17133225Y18019826D01*
X-17239844Y17929363D01*
X-17334101Y17852436D01*
X-17420649Y17785216D01*
X-17504140Y17723872D01*
X-17589228Y17664573D01*
X-17642416Y17628758D01*
X-17939609Y17453878D01*
X-18251616Y17314352D01*
X-18571789Y17212916D01*
X-18743176Y17175414D01*
X-18866854Y17157932D01*
X-19018501Y17144715D01*
X-19186918Y17135985D01*
X-19360908Y17131964D01*
X-19529272Y17132871D01*
X-19680815Y17138927D01*
X-19804337Y17150355D01*
X-19828994Y17153990D01*
X-19910166Y17167948D01*
X-19973672Y17180342D01*
X-20009223Y17189106D01*
X-20013154Y17190932D01*
X-20003407Y17209590D01*
X-19973607Y17262963D01*
X-19924874Y17349107D01*
X-19858327Y17466080D01*
X-19775086Y17611937D01*
X-19676270Y17784736D01*
X-19562999Y17982532D01*
X-19436393Y18203384D01*
X-19297570Y18445346D01*
X-19147651Y18706476D01*
X-18987756Y18984830D01*
X-18819002Y19278465D01*
X-18642511Y19585438D01*
X-18459402Y19903804D01*
X-18270794Y20231621D01*
X-18077807Y20566946D01*
X-17881560Y20907834D01*
X-17683173Y21252342D01*
X-17483765Y21598527D01*
X-17284456Y21944446D01*
X-17086366Y22288155D01*
X-16890614Y22627710D01*
X-16698320Y22961169D01*
X-16510602Y23286587D01*
X-16328581Y23602022D01*
X-16153377Y23905530D01*
X-15986108Y24195167D01*
X-15827895Y24468991D01*
X-15679856Y24725057D01*
X-15543112Y24961422D01*
X-15418781Y25176144D01*
X-15307984Y25367277D01*
X-15211841Y25532880D01*
X-15131469Y25671008D01*
X-15067990Y25779719D01*
X-15022523Y25857068D01*
X-14996186Y25901113D01*
X-14989766Y25911058D01*
X-14968011Y25911795D01*
X-14904989Y25912547D01*
X-14801768Y25913312D01*
X-14659415Y25914089D01*
X-14478996Y25914876D01*
X-14261578Y25915673D01*
X-14008229Y25916476D01*
X-13720014Y25917285D01*
X-13398003Y25918097D01*
X-13043260Y25918912D01*
X-12656853Y25919728D01*
X-12239849Y25920542D01*
X-11793315Y25921354D01*
X-11318319Y25922162D01*
X-10815926Y25922964D01*
X-10287203Y25923759D01*
X-9733219Y25924544D01*
X-9155039Y25925319D01*
X-8553731Y25926082D01*
X-7930361Y25926831D01*
X-7285997Y25927565D01*
X-6621705Y25928281D01*
X-5938552Y25928979D01*
X-5237606Y25929656D01*
X-4519933Y25930312D01*
X-3786600Y25930944D01*
X-3038675Y25931552D01*
X-2277223Y25932132D01*
X-1503313Y25932684D01*
X-718010Y25933206D01*
X-5343Y25933648D01*
X14964730Y25942596D01*
X17484016Y21583004D01*
G37*
X17484016Y21583004D02*
X17713451Y21185879D01*
X17937197Y20798429D01*
X18154335Y20422246D01*
X18363949Y20058926D01*
X18565124Y19710061D01*
X18756942Y19377246D01*
X18938486Y19062076D01*
X19108841Y18766143D01*
X19267089Y18491043D01*
X19412314Y18238368D01*
X19543599Y18009714D01*
X19660028Y17806673D01*
X19760684Y17630841D01*
X19844651Y17483811D01*
X19911012Y17367176D01*
X19958849Y17282532D01*
X19987248Y17231472D01*
X19995419Y17215529D01*
X19972451Y17207756D01*
X19918412Y17194086D01*
X19843705Y17177101D01*
X19820393Y17172080D01*
X19746220Y17158875D01*
X19660621Y17149126D01*
X19556598Y17142440D01*
X19427152Y17138424D01*
X19265288Y17136685D01*
X19187584Y17136539D01*
X18977192Y17138689D01*
X18799366Y17146055D01*
X18644505Y17160048D01*
X18503013Y17182077D01*
X18365293Y17213553D01*
X18221745Y17255886D01*
X18104096Y17295748D01*
X17940871Y17358043D01*
X17784820Y17428215D01*
X17631290Y17509413D01*
X17475630Y17604784D01*
X17313190Y17717479D01*
X17139317Y17850644D01*
X16949362Y18007429D01*
X16738672Y18190982D01*
X16607288Y18309001D01*
X16495364Y18410095D01*
X16379533Y18514113D01*
X16268897Y18612924D01*
X16172554Y18698400D01*
X16107605Y18755447D01*
X15761741Y19040661D01*
X15422221Y19286691D01*
X15084734Y19495325D01*
X14744970Y19668351D01*
X14398619Y19807555D01*
X14041371Y19914725D01*
X13668917Y19991649D01*
X13276947Y20040114D01*
X12964584Y20058970D01*
X12506051Y20057872D01*
X12068172Y20020515D01*
X11648833Y19946328D01*
X11245919Y19834740D01*
X10857314Y19685181D01*
X10480905Y19497078D01*
X10163782Y19303016D01*
X10044069Y19221637D01*
X9928649Y19139162D01*
X9812529Y19051534D01*
X9690720Y18954692D01*
X9558229Y18844579D01*
X9410066Y18717135D01*
X9241240Y18568301D01*
X9053548Y18400136D01*
X8883562Y18247486D01*
X8739980Y18119890D01*
X8618220Y18013559D01*
X8513700Y17924703D01*
X8421839Y17849531D01*
X8338056Y17784255D01*
X8257769Y17725083D01*
X8176396Y17668225D01*
X8134732Y17640057D01*
X7827468Y17458031D01*
X7507559Y17315883D01*
X7171378Y17212129D01*
X6995584Y17174099D01*
X6858811Y17154924D01*
X6691041Y17141502D01*
X6503217Y17133835D01*
X6306282Y17131921D01*
X6111178Y17135761D01*
X5928849Y17145355D01*
X5770239Y17160703D01*
X5683250Y17174099D01*
X5488912Y17215394D01*
X5306139Y17265358D01*
X5130838Y17326433D01*
X4958915Y17401057D01*
X4786278Y17491672D01*
X4608833Y17600717D01*
X4422487Y17730634D01*
X4223147Y17883862D01*
X4006720Y18062841D01*
X3769113Y18270012D01*
X3619500Y18404489D01*
X3421128Y18583041D01*
X3247475Y18736112D01*
X3093216Y18868052D01*
X2953030Y18983205D01*
X2821594Y19085920D01*
X2693585Y19180544D01*
X2563680Y19271424D01*
X2530208Y19294119D01*
X2161015Y19518662D01*
X1777102Y19704221D01*
X1377722Y19851000D01*
X962128Y19959202D01*
X529573Y20029029D01*
X79309Y20060685D01*
X-285750Y20058970D01*
X-716858Y20028492D01*
X-1121458Y19968054D01*
X-1504375Y19876167D01*
X-1870432Y19751337D01*
X-2224454Y19592074D01*
X-2571264Y19396887D01*
X-2705054Y19311072D01*
X-2831396Y19225230D01*
X-2954431Y19136955D01*
X-3079325Y19042061D01*
X-3211241Y18936359D01*
X-3355343Y18815663D01*
X-3516795Y18675785D01*
X-3700762Y18512537D01*
X-3801750Y18421790D01*
X-4026757Y18220793D01*
X-4226088Y18047222D01*
X-4403738Y17898308D01*
X-4563700Y17771278D01*
X-4709970Y17663364D01*
X-4846541Y17571794D01*
X-4977407Y17493799D01*
X-5106562Y17426608D01*
X-5238001Y17367451D01*
X-5375717Y17313558D01*
X-5425262Y17295736D01*
X-5572560Y17246339D01*
X-5706785Y17207935D01*
X-5836841Y17179251D01*
X-5971637Y17159010D01*
X-6120078Y17145939D01*
X-6291071Y17138764D01*
X-6493522Y17136209D01*
X-6540500Y17136140D01*
X-6707204Y17136589D01*
X-6839367Y17138279D01*
X-6944775Y17141722D01*
X-7031214Y17147428D01*
X-7106470Y17155912D01*
X-7178329Y17167684D01*
X-7253571Y17183038D01*
X-7586873Y17273095D01*
X-7895192Y17393512D01*
X-8043333Y17466513D01*
X-8146452Y17522695D01*
X-8243914Y17579859D01*
X-8339840Y17641198D01*
X-8438352Y17709901D01*
X-8543572Y17789161D01*
X-8659620Y17882168D01*
X-8790619Y17992113D01*
X-8940689Y18122188D01*
X-9113953Y18275583D01*
X-9276935Y18421644D01*
X-9455198Y18581371D01*
X-9607655Y18716299D01*
X-9739404Y18830560D01*
X-9855543Y18928286D01*
X-9961169Y19013611D01*
X-10061381Y19090667D01*
X-10161275Y19163586D01*
X-10265951Y19236502D01*
X-10361512Y19300912D01*
X-10720316Y19518494D01*
X-11088136Y19698004D01*
X-11470078Y19841358D01*
X-11871251Y19950473D01*
X-12296763Y20027266D01*
X-12297833Y20027415D01*
X-12422700Y20040151D01*
X-12579978Y20049051D01*
X-12759924Y20054191D01*
X-12952798Y20055647D01*
X-13148857Y20053496D01*
X-13338359Y20047814D01*
X-13511563Y20038676D01*
X-13658728Y20026161D01*
X-13736412Y20016156D01*
X-14154923Y19934396D01*
X-14548051Y19821890D01*
X-14921750Y19676356D01*
X-15281974Y19495509D01*
X-15596051Y19303016D01*
X-15711631Y19224569D01*
X-15822105Y19145934D01*
X-15932446Y19063063D01*
X-16047628Y18971911D01*
X-16172622Y18868431D01*
X-16312403Y18748579D01*
X-16471942Y18608306D01*
X-16656213Y18443567D01*
X-16692677Y18410747D01*
X-16864295Y18256688D01*
X-17009593Y18127658D01*
X-17133225Y18019826D01*
X-17239844Y17929363D01*
X-17334101Y17852436D01*
X-17420649Y17785216D01*
X-17504140Y17723872D01*
X-17589228Y17664573D01*
X-17642416Y17628758D01*
X-17939609Y17453878D01*
X-18251616Y17314352D01*
X-18571789Y17212916D01*
X-18743176Y17175414D01*
X-18866854Y17157932D01*
X-19018501Y17144715D01*
X-19186918Y17135985D01*
X-19360908Y17131964D01*
X-19529272Y17132871D01*
X-19680815Y17138927D01*
X-19804337Y17150355D01*
X-19828994Y17153990D01*
X-19910166Y17167948D01*
X-19973672Y17180342D01*
X-20009223Y17189106D01*
X-20013154Y17190932D01*
X-20003407Y17209590D01*
X-19973607Y17262963D01*
X-19924874Y17349107D01*
X-19858327Y17466080D01*
X-19775086Y17611937D01*
X-19676270Y17784736D01*
X-19562999Y17982532D01*
X-19436393Y18203384D01*
X-19297570Y18445346D01*
X-19147651Y18706476D01*
X-18987756Y18984830D01*
X-18819002Y19278465D01*
X-18642511Y19585438D01*
X-18459402Y19903804D01*
X-18270794Y20231621D01*
X-18077807Y20566946D01*
X-17881560Y20907834D01*
X-17683173Y21252342D01*
X-17483765Y21598527D01*
X-17284456Y21944446D01*
X-17086366Y22288155D01*
X-16890614Y22627710D01*
X-16698320Y22961169D01*
X-16510602Y23286587D01*
X-16328581Y23602022D01*
X-16153377Y23905530D01*
X-15986108Y24195167D01*
X-15827895Y24468991D01*
X-15679856Y24725057D01*
X-15543112Y24961422D01*
X-15418781Y25176144D01*
X-15307984Y25367277D01*
X-15211841Y25532880D01*
X-15131469Y25671008D01*
X-15067990Y25779719D01*
X-15022523Y25857068D01*
X-14996186Y25901113D01*
X-14989766Y25911058D01*
X-14968011Y25911795D01*
X-14904989Y25912547D01*
X-14801768Y25913312D01*
X-14659415Y25914089D01*
X-14478996Y25914876D01*
X-14261578Y25915673D01*
X-14008229Y25916476D01*
X-13720014Y25917285D01*
X-13398003Y25918097D01*
X-13043260Y25918912D01*
X-12656853Y25919728D01*
X-12239849Y25920542D01*
X-11793315Y25921354D01*
X-11318319Y25922162D01*
X-10815926Y25922964D01*
X-10287203Y25923759D01*
X-9733219Y25924544D01*
X-9155039Y25925319D01*
X-8553731Y25926082D01*
X-7930361Y25926831D01*
X-7285997Y25927565D01*
X-6621705Y25928281D01*
X-5938552Y25928979D01*
X-5237606Y25929656D01*
X-4519933Y25930312D01*
X-3786600Y25930944D01*
X-3038675Y25931552D01*
X-2277223Y25932132D01*
X-1503313Y25932684D01*
X-718010Y25933206D01*
X-5343Y25933648D01*
X14964730Y25942596D01*
X17484016Y21583004D01*
M02*
