<?xml version="1.0" encoding="UTF-8" standalone="no"?>
<svg
   xmlns:dc="http://purl.org/dc/elements/1.1/"
   xmlns:cc="http://creativecommons.org/ns#"
   xmlns:rdf="http://www.w3.org/1999/02/22-rdf-syntax-ns#"
   xmlns:svg="http://www.w3.org/2000/svg"
   xmlns="http://www.w3.org/2000/svg"
   xmlns:sodipodi="http://sodipodi.sourceforge.net/DTD/sodipodi-0.dtd"
   xmlns:inkscape="http://www.inkscape.org/namespaces/inkscape"
   width="100.0mm"
   height="100.0mm"
   viewBox="0 0 100.0 100.0"
   version="1.1"
   id="svg8"
   sodipodi:docname="wood_tile.svg"
   inkscape:version="1.0.2 (394de47547, 2021-03-26)">
  <defs
     id="defs2" />
  <sodipodi:namedview
     id="base"
     pagecolor="#ffffff"
     bordercolor="#666666"
     borderopacity="1.0"
     inkscape:pageopacity="0.0"
     inkscape:pageshadow="2"
     inkscape:zoom="5.0403125"
     inkscape:cx="112.59222"
     inkscape:cy="181.04036"
     inkscape:document-units="mm"
     inkscape:current-layer="g842"
     inkscape:document-rotation="0"
     showgrid="false"
     inkscape:window-width="2140"
     inkscape:window-height="2096"
     inkscape:window-x="1700"
     inkscape:window-y="27"
     inkscape:window-maximized="0" />
  <metadata
     id="metadata5">
    <rdf:RDF>
      <cc:Work
         rdf:about="">
        <dc:format>image/svg+xml</dc:format>
        <dc:type
           rdf:resource="http://purl.org/dc/dcmitype/StillImage" />
        <dc:title />
      </cc:Work>
    </rdf:RDF>
  </metadata>
  <g
     inkscape:label="[fixed] BG"
     inkscape:groupmode="layer"
     sodipodi:insensitive="true"
     id="g838"
     style="display:inline">
    <rect
       x="0"
       y="0"
       width="100"
       height="100"
       style="fill:#ffffff;fill-opacity:1;stroke:none"
       id="rect836" />
  </g>
  <g
     inkscape:label="Edge.Cuts"
     inkscape:groupmode="layer"
     id="g840"
     style="display:inline">
    <path
       id="path864"
       style="fill:none;stroke:#000600;stroke-width:0.104494;stroke-opacity:1"
       d="M 64.9801 75.9228 L 35.0404 75.9346 L 20.0603 50.012 L 35.0199 24.0776 L 64.9596 24.0658 L 79.9397 49.9884 L 64.9801 75.9228" />
    <path
       id="path867"
       style="fill:none;stroke:#000600;stroke-width:0.0889503;stroke-opacity:1"
       d="M 58.0055 50.0002 L 57.9957 50.3971 L 57.9664 50.7914 L 57.9178 51.1823 L 57.8503 51.5693 L 57.7641 51.9515 L 57.6595 52.3285 L 57.5367 52.6994 L 57.3961 53.0638 L 57.2379 53.4208 L 57.0624 53.7699 L 56.8699 54.1104 L 56.6605 54.4416 L 56.4346 54.763 L 56.1926 55.0737 L 55.9345 55.3733 L 55.6608 55.6609 L 55.3731 55.9347 L 55.0736 56.1927 L 54.7628 56.4348 L 54.4415 56.6607 L 54.1102 56.87 L 53.7697 57.0626 L 53.4206 57.2381 L 53.0636 57.3963 L 52.6993 57.5369 L 52.3283 57.6597 L 51.9514 57.7643 L 51.5691 57.8505 L 51.1822 57.918 L 50.7912 57.9665 L 50.397 57.9959 L 50 58.0057 L 49.603 57.9959 L 49.2088 57.9665 L 48.8178 57.918 L 48.4309 57.8505 L 48.0486 57.7643 L 47.6717 57.6597 L 47.3007 57.5369 L 46.9364 57.3963 L 46.5794 57.2381 L 46.2303 57.0626 L 45.8898 56.87 L 45.5585 56.6607 L 45.2372 56.4348 L 44.9264 56.1927 L 44.6269 55.9347 L 44.3392 55.6609 L 44.0655 55.3733 L 43.8074 55.0737 L 43.5654 54.763 L 43.3395 54.4416 L 43.1301 54.1104 L 42.9376 53.7699 L 42.7621 53.4208 L 42.6039 53.0638 L 42.4633 52.6994 L 42.3405 52.3285 L 42.2359 51.9515 L 42.1497 51.5693 L 42.0822 51.1823 L 42.0336 50.7914 L 42.0043 50.3971 L 41.9945 50.0002 L 42.0049 49.5882 L 42.0358 49.1817 L 42.0867 48.781 L 42.1571 48.3868 L 42.2465 47.9995 L 42.3544 47.6196 L 42.4802 47.2476 L 42.6236 46.8841 L 42.7839 46.5294 L 42.9607 46.1843 L 43.1535 45.849 L 43.3617 45.5242 L 43.5849 45.2103 L 43.8225 44.9079 L 44.0742 44.6174 L 44.3392 44.3394 L 44.6173 44.0743 L 44.9077 43.8227 L 45.2102 43.5851 L 45.524 43.3619 L 45.8488 43.1536 L 46.1841 42.9609 L 46.5293 42.7841 L 46.8839 42.6238 L 47.2474 42.4804 L 47.6194 42.3546 L 47.9993 42.2467 L 48.3866 42.1573 L 48.7808 42.0869 L 49.1815 42.036 L 49.588 42.0051 L 50 41.9947 L 50.412 42.0051 L 50.8185 42.036 L 51.2192 42.0869 L 51.6134 42.1573 L 52.0007 42.2467 L 52.3806 42.3546 L 52.7526 42.4804 L 53.1161 42.6238 L 53.4707 42.7841 L 53.8159 42.9609 L 54.1512 43.1536 L 54.476 43.3619 L 54.7898 43.5851 L 55.0923 43.8227 L 55.3827 44.0743 L 55.6608 44.3394 L 55.9258 44.6174 L 56.1775 44.9079 L 56.4151 45.2103 L 56.6383 45.5242 L 56.8465 45.849 L 57.0393 46.1843 L 57.2161 46.5294 L 57.3764 46.8841 L 57.5198 47.2476 L 57.6456 47.6196 L 57.7535 47.9995 L 57.8429 48.3868 L 57.9133 48.781 L 57.9642 49.1817 L 57.9951 49.5882 L 58.0055 50.0002 L 58.0055 50.0002" />
  </g>
  <g
     inkscape:label="B.Cu"
     inkscape:groupmode="layer"
     id="g842"
     style="display:none">
    <path
       id="path843"
       style="display:inline;fill:#000000;fill-opacity:1;stroke:none;stroke-width:0.394938;stroke-opacity:1"
       d="m 243.33594,94.738281 c -36.26477,0.01474 -72.52821,0.03011 -108.79297,0.04492 -18.12008,31.414869 -36.24125,62.829279 -54.361329,94.244139 18.144684,31.39764 36.288909,62.79572 54.433589,94.19336 36.26477,-0.0174 72.53016,-0.0335 108.79493,-0.0508 18.12008,-31.41486 36.24125,-62.83123 54.36132,-94.24609 -18.14468,-31.39518 -36.29085,-62.79037 -54.43554,-94.185551 z m -53.75977,60.195309 c 11.32973,0.15667 22.32168,6.31589 28.25977,16.01368 8.32465,12.77751 6.35513,31.01922 -4.4668,41.7539 -10.21969,10.87541 -27.85926,13.50379 -40.80664,6.08203 -13.00567,-6.87775 -20.19472,-22.80958 -16.83203,-37.11718 2.98045,-14.65564 16.62603,-26.20166 31.57812,-26.6836 0.75693,-0.0436 1.51227,-0.0593 2.26758,-0.0488 z"
       transform="scale(0.26458333)" />
  </g>
  <g
     inkscape:label="B.Mask-disabled"
     inkscape:groupmode="layer"
     id="g844"
     style="display:inline" />
  <g
     inkscape:label="B.SilkS"
     inkscape:groupmode="layer"
     id="g846"
     style="display:inline">
    <text
       xml:space="preserve"
       style="font-style:normal;font-weight:normal;font-size:7.05556px;line-height:1.25;font-family:sans-serif;letter-spacing:0px;word-spacing:0px;display:inline;fill:#000000;fill-opacity:1;stroke:none;stroke-width:0.264583"
       x="-54.994514"
       y="35.143505"
       id="text847"
       transform="scale(-1,1)"><tspan
         sodipodi:role="line"
         id="tspan845"
         x="-54.994514"
         y="35.143505"
         style="font-style:normal;font-variant:normal;font-weight:normal;font-stretch:normal;font-size:7.05556px;font-family:FreeSans;-inkscape-font-specification:FreeSans;stroke-width:0.264583">EX</tspan></text>
  </g>
  <g
     inkscape:label="F.Cu"
     inkscape:groupmode="layer"
     id="g848"
     style="display:inline">
    <path
       id="path913"
       style="display:inline;fill:#005e01;fill-opacity:1;stroke:#000600;stroke-width:0.394938;stroke-opacity:1"
       d="m 243.33594,94.738281 c -35.9464,0.01461 -71.89149,0.03024 -107.83789,0.04492 -0.51486,0.306709 -1.01872,0.628923 -1.51172,0.966797 -4.06664,7.050362 -8.13453,14.100032 -12.20117,21.150392 -0.0533,0.70843 -0.0898,1.42248 -0.0898,2.14453 0,4.66806 1.14023,9.06664 3.14649,12.94531 -11.3616,4.80227 -19.33399,16.05136 -19.33399,29.16211 0,16.99133 13.39488,30.83566 30.19922,31.59375 2.34289,8.48606 11.3892,14.8125 22.20117,14.8125 0.84676,0 1.68125,-0.0473 2.50391,-0.12304 -4.8198,-7.547 -6.75111,-16.96434 -4.68164,-25.76953 2.98045,-14.65564 16.62603,-26.20166 31.57812,-26.6836 12.11081,-0.69843 24.19339,5.62054 30.52735,15.96485 7.06153,10.83874 6.71108,25.60774 -0.16211,36.39257 0.29013,0.0364 0.5814,0.0706 0.875,0.0977 0.16418,0.0151 0.32892,0.0269 0.49414,0.0391 0.66005,0.0487 1.32483,0.082 2,0.082 1.3515,0 2.67618,-0.0995 3.96289,-0.28906 1.28674,-0.18956 2.53564,-0.46919 3.73828,-0.83203 1.20263,-0.36284 2.35779,-0.80829 3.45703,-1.32812 1.09924,-0.51985 2.14259,-1.11482 3.11914,-1.7754 0.48828,-0.33028 0.96007,-0.67664 1.41407,-1.03906 2.2699,-1.81209 4.09639,-4.01383 5.32812,-6.47656 0.24635,-0.49255 0.46843,-0.99535 0.66602,-1.50781 0.19758,-0.51247 0.37117,-1.0341 0.51757,-1.56446 3.67524,-0.16594 7.189,-0.95755 10.4336,-2.27148 0.9272,-0.37551 1.83182,-0.79363 2.71289,-1.25195 3.96474,-2.06237 7.43834,-4.93888 10.19726,-8.40821 0.30623,-0.38508 0.60425,-0.77835 0.89258,-1.17773 v -0.002 c 0.57691,-0.7992 1.11754,-1.62568 1.61914,-2.47852 v -0.002 c 0.50155,-0.85285 0.96535,-1.73118 1.38672,-2.63282 v -0.002 c 0.21079,-0.4511 0.41176,-0.90674 0.60156,-1.36914 0.5694,-1.38719 1.04253,-2.82473 1.41211,-4.30273 0.49264,-1.97006 0.80077,-4.0139 0.9043,-6.11133 v -0.002 c 0.0259,-0.52453 0.0391,-1.05106 0.0391,-1.58204 5.2e-4,-9.0139 -3.76905,-17.14645 -9.8164,-22.91015 -0.55007,-0.52432 -1.11647,-1.0297 -1.70313,-1.51367 -1.7585,-1.4507 -3.67754,-2.71562 -5.72461,-3.76368 h -0.002 c -0.68255,-0.3494 -1.37774,-0.67444 -2.08789,-0.97461 0.75248,-1.4545 1.38263,-2.98266 1.87695,-4.57031 0.65912,-2.11686 1.0764,-4.3402 1.2168,-6.63867 0.0351,-0.57462 0.0527,-1.15282 0.0527,-1.73633 0,-0.0766 -0.005,-0.15202 -0.006,-0.22851 -4.63859,-8.02602 -9.27742,-16.05212 -13.91601,-24.078131 z"
       transform="scale(0.26458333)" />
  </g>
  <g
     inkscape:label="F.Mask"
     inkscape:groupmode="layer"
     id="g850"
     style="display:inline">
    <path
       id="path12"
       style="display:inline;fill:#bf6101;stroke-width:0.376973"
       d="M 201.11328 220.75781 C 193.66428 223.54613 185.23726 223.76906 177.7207 221.13477 C 175.7957 235.67391 173.2357 249.36741 163.61914 260.57617 L 215.33594 260.57617 C 205.63683 249.27077 202.63292 235.43652 201.11328 220.75781 z "
       transform="scale(0.26458333)" />
  </g>
  <g
     inkscape:label="F.SilkS"
     inkscape:groupmode="layer"
     id="g852"
     style="display:inline">
    <path
       id="path906"
       style="display:inline;fill:#000500;fill-opacity:1;stroke:none;stroke-width:0.394938;stroke-opacity:1"
       d="m 243.33594,94.738281 c -2.2318,9.07e-4 -4.46352,0.001 -6.69532,0.002 3.85287,1.204069 7.36299,3.307715 10.24415,6.138679 -1.18297,-2.046851 -2.36587,-4.093788 -3.54883,-6.140632 z m -21.95703,0.0098 c -2.41084,9.8e-4 -4.82159,9.73e-4 -7.23243,0.002 0.26951,0.630292 0.75189,1.149717 1.38477,1.433594 0.74413,0.334375 1.59957,0.319803 2.33203,-0.03906 1.1444,-0.559496 2.31896,-1.018435 3.51563,-1.396484 z m -56.57618,0.02344 c -2.38153,9.71e-4 -4.76299,9.82e-4 -7.14453,0.002 1.16885,0.373534 2.31698,0.824228 3.43555,1.371093 0.73246,0.358488 1.58556,0.37306 2.33008,0.03906 0.62598,-0.281103 1.10714,-0.791326 1.3789,-1.41211 z m -22.64257,0.0078 c -2.5391,0.001 -5.0781,0.0029 -7.61719,0.0039 -2.04956,3.553332 -4.09888,7.106829 -6.14844,10.660159 3.1694,-4.99809 8.02492,-8.824032 13.76563,-10.664065 z m -14.82813,12.507809 c -2.75709,4.77998 -5.51439,9.55986 -8.27148,14.33984 0.25573,3.12129 0.96929,6.14731 2.14843,9.04102 -11.29488,5.90076 -18.44921,17.57831 -18.44921,30.48437 0,17.78523 13.43288,32.45534 30.91992,34.19922 3.438,8.8947 13.09838,14.95313 24.22851,14.95313 1.44368,0 2.87646,-0.11894 4.28711,-0.32617 -1.25823,-1.62736 -2.36567,-3.37172 -3.31836,-5.19727 -0.32168,0.0128 -0.64353,0.0293 -0.96679,0.0293 -9.28373,0 -17.50773,-5.38061 -19.55469,-12.79493 -0.31665,-1.14712 -1.33522,-1.96014 -2.52344,-2.01367 -15.46383,-0.6974 -27.57617,-13.36919 -27.57617,-28.84961 0,-11.64432 6.92985,-22.09737 17.65625,-26.63086 0.70494,-0.29778 1.25356,-0.87763 1.51367,-1.59765 0.26011,-0.72002 0.20915,-1.51563 -0.14258,-2.19531 -1.88411,-3.64232 -2.83984,-7.57308 -2.83984,-11.6836 0,-4.24023 1.04845,-8.23711 2.88867,-11.75781 z m 127.73438,7.74805 c -0.44651,0.53217 -0.69365,1.23283 -0.63477,1.98046 0.0524,0.66989 0.0801,1.35339 0.0801,2.0293 0,4.11052 -0.95574,8.04128 -2.83984,11.6836 -0.35211,0.67968 -0.40465,1.47529 -0.14454,2.19531 0.26011,0.72002 0.80874,1.29985 1.51368,1.59765 10.7264,4.53387 17.6582,14.98691 17.6582,26.63086 0,15.48004 -12.11235,28.15221 -27.57617,28.84961 -1.18862,0.0535 -2.20911,0.86693 -2.52539,2.01367 -2.04697,7.4147 -10.26939,12.79493 -19.55274,12.79493 -0.62875,0 -1.25214,-0.0291 -1.87109,-0.0762 -0.92572,1.79969 -2.02216,3.50997 -3.27539,5.10937 1.67893,0.29454 3.3982,0.46094 5.14453,0.46094 11.13013,0 20.79247,-6.05807 24.23047,-14.95313 17.48705,-1.74388 30.91797,-16.41437 30.91797,-34.19922 7.5e-4,-12.90643 -7.15277,-24.58361 -18.44727,-30.48437 0.99123,-2.4328 1.65115,-4.95959 1.99024,-7.55664 -1.55589,-2.6921 -3.11209,-5.38408 -4.66797,-8.07617 z m -51.3125,104.60546 c -1.71658,0.81285 -3.49932,1.48244 -5.32813,2.00196 1.26252,12.01794 3.71254,24.98433 11.34961,36.18554 H 169.1582 c 3.10023,-4.59755 5.50937,-9.82858 7.31055,-15.8496 0.43465,-1.45324 -0.39014,-2.98332 -1.84375,-3.41797 -1.45398,-0.43465 -2.98565,0.39014 -3.41992,1.84375 -2.197,7.34419 -5.36043,13.3585 -9.67188,18.38281 -0.69853,0.81426 -0.85837,1.9607 -0.41015,2.93555 0.44822,0.97486 1.42322,1.59961 2.49609,1.59961 h 51.71484 c 1.07286,0 2.0463,-0.62475 2.49414,-1.59961 0.44823,-0.97485 0.28838,-2.12166 -0.41015,-2.93555 -9.77115,-11.38927 -12.36356,-25.91615 -13.66406,-39.14649 z m -28.66211,0.43946 c -0.38536,2.94737 -0.84541,6.30399 -1.42969,9.6289 -0.26238,1.49433 0.73652,2.91928 2.23047,3.18164 1.49621,0.26276 2.91731,-0.73653 3.17969,-2.23046 0.52953,-3.01354 0.9462,-5.98508 1.31054,-8.72071 -1.8105,-0.46363 -3.58166,-1.08061 -5.29101,-1.85937 z"
       transform="scale(0.26458333)" />
  </g>
</svg>
