<?xml version="1.0" encoding="UTF-8" standalone="no"?>
<svg
   xmlns:dc="http://purl.org/dc/elements/1.1/"
   xmlns:cc="http://creativecommons.org/ns#"
   xmlns:rdf="http://www.w3.org/1999/02/22-rdf-syntax-ns#"
   xmlns:svg="http://www.w3.org/2000/svg"
   xmlns="http://www.w3.org/2000/svg"
   xmlns:sodipodi="http://sodipodi.sourceforge.net/DTD/sodipodi-0.dtd"
   xmlns:inkscape="http://www.inkscape.org/namespaces/inkscape"
   width="100.0mm"
   height="100.0mm"
   viewBox="0 0 100.0 100.0"
   version="1.1"
   id="svg8"
   sodipodi:docname="gold_tile.svg"
   inkscape:version="1.0.2 (394de47547, 2021-03-26)">
  <defs
     id="defs2" />
  <sodipodi:namedview
     id="base"
     pagecolor="#ffffff"
     bordercolor="#666666"
     borderopacity="1.0"
     inkscape:pageopacity="0.0"
     inkscape:pageshadow="2"
     inkscape:zoom="5.0403125"
     inkscape:cx="112.59222"
     inkscape:cy="181.04036"
     inkscape:document-units="mm"
     inkscape:current-layer="g842"
     inkscape:document-rotation="0"
     showgrid="false"
     inkscape:window-width="2072"
     inkscape:window-height="2096"
     inkscape:window-x="1768"
     inkscape:window-y="27"
     inkscape:window-maximized="0" />
  <metadata
     id="metadata5">
    <rdf:RDF>
      <cc:Work
         rdf:about="">
        <dc:format>image/svg+xml</dc:format>
        <dc:type
           rdf:resource="http://purl.org/dc/dcmitype/StillImage" />
        <dc:title />
      </cc:Work>
    </rdf:RDF>
  </metadata>
  <g
     inkscape:label="[fixed] BG"
     inkscape:groupmode="layer"
     sodipodi:insensitive="true"
     id="g838"
     style="display:inline">
    <rect
       x="0"
       y="0"
       width="100"
       height="100"
       style="fill:#ffffff;fill-opacity:1;stroke:none"
       id="rect836" />
  </g>
  <g
     inkscape:label="Edge.Cuts"
     inkscape:groupmode="layer"
     id="g840"
     style="display:inline">
    <path
       id="path864"
       style="fill:none;stroke:#000600;stroke-width:0.104494;stroke-opacity:1"
       d="M 64.9801 75.9228 L 35.0404 75.9346 L 20.0603 50.012 L 35.0199 24.0776 L 64.9596 24.0658 L 79.9397 49.9884 L 64.9801 75.9228" />
    <path
       id="path867"
       style="fill:none;stroke:#000600;stroke-width:0.0889503;stroke-opacity:1"
       d="M 58.0055 50.0002 L 57.9957 50.3971 L 57.9664 50.7914 L 57.9178 51.1823 L 57.8503 51.5693 L 57.7641 51.9515 L 57.6595 52.3285 L 57.5367 52.6994 L 57.3961 53.0638 L 57.2379 53.4208 L 57.0624 53.7699 L 56.8699 54.1104 L 56.6605 54.4416 L 56.4346 54.763 L 56.1926 55.0737 L 55.9345 55.3733 L 55.6608 55.6609 L 55.3731 55.9347 L 55.0736 56.1927 L 54.7628 56.4348 L 54.4415 56.6607 L 54.1102 56.87 L 53.7697 57.0626 L 53.4206 57.2381 L 53.0636 57.3963 L 52.6993 57.5369 L 52.3283 57.6597 L 51.9514 57.7643 L 51.5691 57.8505 L 51.1822 57.918 L 50.7912 57.9665 L 50.397 57.9959 L 50 58.0057 L 49.603 57.9959 L 49.2088 57.9665 L 48.8178 57.918 L 48.4309 57.8505 L 48.0486 57.7643 L 47.6717 57.6597 L 47.3007 57.5369 L 46.9364 57.3963 L 46.5794 57.2381 L 46.2303 57.0626 L 45.8898 56.87 L 45.5585 56.6607 L 45.2372 56.4348 L 44.9264 56.1927 L 44.6269 55.9347 L 44.3392 55.6609 L 44.0655 55.3733 L 43.8074 55.0737 L 43.5654 54.763 L 43.3395 54.4416 L 43.1301 54.1104 L 42.9376 53.7699 L 42.7621 53.4208 L 42.6039 53.0638 L 42.4633 52.6994 L 42.3405 52.3285 L 42.2359 51.9515 L 42.1497 51.5693 L 42.0822 51.1823 L 42.0336 50.7914 L 42.0043 50.3971 L 41.9945 50.0002 L 42.0049 49.5882 L 42.0358 49.1817 L 42.0867 48.781 L 42.1571 48.3868 L 42.2465 47.9995 L 42.3544 47.6196 L 42.4802 47.2476 L 42.6236 46.8841 L 42.7839 46.5294 L 42.9607 46.1843 L 43.1535 45.849 L 43.3617 45.5242 L 43.5849 45.2103 L 43.8225 44.9079 L 44.0742 44.6174 L 44.3392 44.3394 L 44.6173 44.0743 L 44.9077 43.8227 L 45.2102 43.5851 L 45.524 43.3619 L 45.8488 43.1536 L 46.1841 42.9609 L 46.5293 42.7841 L 46.8839 42.6238 L 47.2474 42.4804 L 47.6194 42.3546 L 47.9993 42.2467 L 48.3866 42.1573 L 48.7808 42.0869 L 49.1815 42.036 L 49.588 42.0051 L 50 41.9947 L 50.412 42.0051 L 50.8185 42.036 L 51.2192 42.0869 L 51.6134 42.1573 L 52.0007 42.2467 L 52.3806 42.3546 L 52.7526 42.4804 L 53.1161 42.6238 L 53.4707 42.7841 L 53.8159 42.9609 L 54.1512 43.1536 L 54.476 43.3619 L 54.7898 43.5851 L 55.0923 43.8227 L 55.3827 44.0743 L 55.6608 44.3394 L 55.9258 44.6174 L 56.1775 44.9079 L 56.4151 45.2103 L 56.6383 45.5242 L 56.8465 45.849 L 57.0393 46.1843 L 57.2161 46.5294 L 57.3764 46.8841 L 57.5198 47.2476 L 57.6456 47.6196 L 57.7535 47.9995 L 57.8429 48.3868 L 57.9133 48.781 L 57.9642 49.1817 L 57.9951 49.5882 L 58.0055 50.0002 L 58.0055 50.0002" />
  </g>
  <g
     inkscape:label="B.Cu"
     inkscape:groupmode="layer"
     id="g842"
     style="display:none">
    <path
       id="path876"
       style="display:inline;fill:#000000;fill-opacity:1;stroke:none;stroke-width:0.394938;stroke-opacity:1"
       d="m 243.33594,94.738281 c -36.26477,0.01474 -72.52821,0.03011 -108.79297,0.04492 -18.12008,31.414869 -36.24125,62.829279 -54.361329,94.244139 18.144684,31.39764 36.288909,62.79572 54.433589,94.19336 36.26477,-0.0174 72.53016,-0.0335 108.79493,-0.0508 18.12008,-31.41486 36.24125,-62.83123 54.36132,-94.24609 -18.14468,-31.39518 -36.29085,-62.79037 -54.43554,-94.185551 z m -53.75977,60.195309 c 11.32973,0.15667 22.32168,6.31589 28.25977,16.01368 8.32465,12.77751 6.35513,31.01922 -4.4668,41.7539 -10.21969,10.87541 -27.85926,13.50379 -40.80664,6.08203 -13.00567,-6.87775 -20.19472,-22.80958 -16.83203,-37.11718 2.98045,-14.65564 16.62603,-26.20166 31.57812,-26.6836 0.75693,-0.0436 1.51227,-0.0593 2.26758,-0.0488 z"
       transform="scale(0.26458333)" />
  </g>
  <g
     inkscape:label="B.Mask-disabled"
     inkscape:groupmode="layer"
     id="g844"
     style="display:inline" />
  <g
     inkscape:label="B.SilkS"
     inkscape:groupmode="layer"
     id="g846"
     style="display:none">
    <text
       xml:space="preserve"
       style="font-style:normal;font-weight:normal;font-size:7.05556px;line-height:1.25;font-family:sans-serif;letter-spacing:0px;word-spacing:0px;display:inline;fill:#000000;fill-opacity:1;stroke:none;stroke-width:0.264583"
       x="-54.994514"
       y="35.143505"
       id="text847"
       transform="scale(-1,1)"><tspan
         sodipodi:role="line"
         id="tspan845"
         x="-54.994514"
         y="35.143505"
         style="font-style:normal;font-variant:normal;font-weight:normal;font-stretch:normal;font-size:7.05556px;font-family:FreeSans;-inkscape-font-specification:FreeSans;stroke-width:0.264583">EX</tspan></text>
  </g>
  <g
     inkscape:label="F.Cu"
     inkscape:groupmode="layer"
     id="g848"
     style="display:inline">
    <path
       d="m 40.840737,29.673984 c -2.735096,0 -4.962383,2.227287 -4.962383,4.962383 0,2.735096 2.227287,4.962384 4.962383,4.962384 2.735096,0 4.962384,-2.227288 4.962384,-4.962384 0,-2.735096 -2.227288,-4.962383 -4.962384,-4.962383 z m 0,4.457789 c 0.736002,0 1.369155,0.514236 1.520212,1.230954 0.176769,0.838848 -0.359965,1.664841 -1.198814,1.844824 v 0.610656 c 0,0.176768 -0.144629,0.321397 -0.321398,0.321397 -0.176769,0 -0.321398,-0.144629 -0.321398,-0.321397 v -0.610656 c -0.719931,-0.151057 -1.234167,-0.787425 -1.234167,-1.520213 0,-0.176768 0.144629,-0.321397 0.321397,-0.321397 0.176769,0 0.321398,0.144629 0.321398,0.321397 0,0.504595 0.408176,0.912771 0.91277,0.912771 0.504595,0 0.91277,-0.408176 0.91277,-0.912771 0,-0.504594 -0.408175,-0.91277 -0.91277,-0.91277 -0.732787,-0.0032 -1.369155,-0.514236 -1.520212,-1.234167 -0.179983,-0.842063 0.359966,-1.668056 1.198814,-1.844824 v -0.41139 c 0,-0.176769 0.144629,-0.321398 0.321398,-0.321398 0.176769,0 0.321398,0.144629 0.321398,0.321398 v 0.41139 c 0.719932,0.154271 1.234168,0.787424 1.234168,1.523426 0,0.176768 -0.144629,0.321398 -0.321398,0.321398 -0.176769,0 -0.321398,-0.14463 -0.321398,-0.321398 0,-0.504595 -0.408175,-0.91277 -0.91277,-0.91277 -0.504594,0 -0.91277,0.411389 -0.91277,0.91277 0,0.504594 0.408176,0.91277 0.91277,0.91277 z"
       id="path2"
       style="stroke-width:0.0321398" />
    <path
       d="m 40.840737,27.957719 c -3.68322,0 -6.681862,2.998642 -6.681862,6.681862 0,3.68322 2.998642,6.678649 6.681862,6.678649 3.68322,0 6.678649,-2.998643 6.678649,-6.681863 0,-3.68322 -2.995429,-6.678648 -6.678649,-6.678648 z m 0,12.283828 c -3.091847,0 -5.605179,-2.513332 -5.605179,-5.60518 0,-3.091847 2.513332,-5.605179 5.605179,-5.605179 3.091848,0 5.60518,2.513332 5.60518,5.605179 0,3.091848 -2.513332,5.60518 -5.60518,5.60518 z"
       id="path8"
       style="stroke-width:0.0321398" />
    <path
       d="m 59.138762,29.662184 c -2.735096,0 -4.962383,2.227287 -4.962383,4.962383 0,2.735096 2.227287,4.962384 4.962383,4.962384 2.735096,0 4.962384,-2.227288 4.962384,-4.962384 0,-2.735096 -2.227288,-4.962383 -4.962384,-4.962383 z m 0,4.457789 c 0.736002,0 1.369155,0.514236 1.520212,1.230954 0.176769,0.838848 -0.359965,1.664841 -1.198814,1.844824 v 0.610656 c 0,0.176768 -0.144629,0.321397 -0.321398,0.321397 -0.176769,0 -0.321398,-0.144629 -0.321398,-0.321397 v -0.610656 c -0.719931,-0.151057 -1.234167,-0.787425 -1.234167,-1.520213 0,-0.176768 0.144629,-0.321397 0.321397,-0.321397 0.176769,0 0.321398,0.144629 0.321398,0.321397 0,0.504595 0.408176,0.912771 0.91277,0.912771 0.504595,0 0.91277,-0.408176 0.91277,-0.912771 0,-0.504594 -0.408175,-0.91277 -0.91277,-0.91277 -0.732787,-0.0032 -1.369155,-0.514236 -1.520212,-1.234167 -0.179983,-0.842063 0.359966,-1.668056 1.198814,-1.844824 v -0.41139 c 0,-0.176769 0.144629,-0.321398 0.321398,-0.321398 0.176769,0 0.321398,0.144629 0.321398,0.321398 v 0.41139 c 0.719932,0.154271 1.234168,0.787424 1.234168,1.523426 0,0.176768 -0.144629,0.321398 -0.321398,0.321398 -0.176769,0 -0.321398,-0.14463 -0.321398,-0.321398 0,-0.504595 -0.408175,-0.91277 -0.91277,-0.91277 -0.504594,0 -0.91277,0.411389 -0.91277,0.91277 0,0.504594 0.408176,0.91277 0.91277,0.91277 z"
       id="path2-5"
       style="stroke-width:0.0321398" />
    <path
       d="m 59.138762,27.945919 c -3.68322,0 -6.681862,2.998642 -6.681862,6.681862 0,3.68322 2.998642,6.678649 6.681862,6.678649 3.68322,0 6.678649,-2.998643 6.678649,-6.681863 0,-3.68322 -2.995429,-6.678648 -6.678649,-6.678648 z m 0,12.283828 c -3.091847,0 -5.605179,-2.513332 -5.605179,-5.60518 0,-3.091847 2.513332,-5.605179 5.605179,-5.605179 3.091848,0 5.60518,2.513332 5.60518,5.605179 0,3.091848 -2.513332,5.60518 -5.60518,5.60518 z"
       id="path8-6"
       style="stroke-width:0.0321398" />
    <path
       d="m 67.768859,45.530611 c -2.735096,0 -4.962383,2.227287 -4.962383,4.962383 0,2.735096 2.227287,4.962384 4.962383,4.962384 2.735096,0 4.962384,-2.227288 4.962384,-4.962384 0,-2.735096 -2.227288,-4.962383 -4.962384,-4.962383 z m 0,4.457789 c 0.736002,0 1.369155,0.514236 1.520212,1.230954 0.176769,0.838848 -0.359965,1.664841 -1.198814,1.844824 v 0.610656 c 0,0.176768 -0.144629,0.321397 -0.321398,0.321397 -0.176769,0 -0.321398,-0.144629 -0.321398,-0.321397 v -0.610656 c -0.719931,-0.151057 -1.234167,-0.787425 -1.234167,-1.520213 0,-0.176768 0.144629,-0.321397 0.321397,-0.321397 0.176769,0 0.321398,0.144629 0.321398,0.321397 0,0.504595 0.408176,0.912771 0.91277,0.912771 0.504595,0 0.91277,-0.408176 0.91277,-0.912771 0,-0.504594 -0.408175,-0.91277 -0.91277,-0.91277 -0.732787,-0.0032 -1.369155,-0.514236 -1.520212,-1.234167 -0.179983,-0.842063 0.359966,-1.668056 1.198814,-1.844824 v -0.41139 c 0,-0.176769 0.144629,-0.321398 0.321398,-0.321398 0.176769,0 0.321398,0.144629 0.321398,0.321398 v 0.41139 c 0.719932,0.154271 1.234168,0.787424 1.234168,1.523426 0,0.176768 -0.144629,0.321398 -0.321398,0.321398 -0.176769,0 -0.321398,-0.14463 -0.321398,-0.321398 0,-0.504595 -0.408175,-0.91277 -0.91277,-0.91277 -0.504594,0 -0.91277,0.411389 -0.91277,0.91277 0,0.504594 0.408176,0.91277 0.91277,0.91277 z"
       id="path2-5-2"
       style="stroke-width:0.0321398" />
    <path
       d="m 67.768859,43.814346 c -3.68322,0 -6.681862,2.998642 -6.681862,6.681862 0,3.68322 2.998642,6.678649 6.681862,6.678649 3.68322,0 6.678649,-2.998643 6.678649,-6.681863 0,-3.68322 -2.995429,-6.678648 -6.678649,-6.678648 z m 0,12.283828 c -3.091847,0 -5.605179,-2.513332 -5.605179,-5.60518 0,-3.091847 2.513332,-5.605179 5.605179,-5.605179 3.091848,0 5.60518,2.513332 5.60518,5.605179 0,3.091848 -2.513332,5.60518 -5.60518,5.60518 z"
       id="path8-6-9"
       style="stroke-width:0.0321398" />
    <path
       d="m 32.231141,45.554212 c -2.735096,0 -4.962383,2.227287 -4.962383,4.962383 0,2.735096 2.227287,4.962384 4.962383,4.962384 2.735096,0 4.962384,-2.227288 4.962384,-4.962384 0,-2.735096 -2.227288,-4.962383 -4.962384,-4.962383 z m 0,4.457789 c 0.736002,0 1.369155,0.514236 1.520212,1.230954 0.176769,0.838848 -0.359965,1.664841 -1.198814,1.844824 v 0.610656 c 0,0.176768 -0.144629,0.321397 -0.321398,0.321397 -0.176769,0 -0.321398,-0.144629 -0.321398,-0.321397 v -0.610656 c -0.719931,-0.151057 -1.234167,-0.787425 -1.234167,-1.520213 0,-0.176768 0.144629,-0.321397 0.321397,-0.321397 0.176769,0 0.321398,0.144629 0.321398,0.321397 0,0.504595 0.408176,0.912771 0.91277,0.912771 0.504595,0 0.91277,-0.408176 0.91277,-0.912771 0,-0.504594 -0.408175,-0.91277 -0.91277,-0.91277 -0.732787,-0.0032 -1.369155,-0.514236 -1.520212,-1.234167 -0.179983,-0.842063 0.359966,-1.668056 1.198814,-1.844824 v -0.41139 c 0,-0.176769 0.144629,-0.321398 0.321398,-0.321398 0.176769,0 0.321398,0.144629 0.321398,0.321398 v 0.41139 c 0.719932,0.154271 1.234168,0.787424 1.234168,1.523426 0,0.176768 -0.144629,0.321398 -0.321398,0.321398 -0.176769,0 -0.321398,-0.14463 -0.321398,-0.321398 0,-0.504595 -0.408175,-0.91277 -0.91277,-0.91277 -0.504594,0 -0.91277,0.411389 -0.91277,0.91277 0,0.504594 0.408176,0.91277 0.91277,0.91277 z"
       id="path2-5-6"
       style="stroke-width:0.0321398" />
    <path
       d="m 32.231141,43.837947 c -3.68322,0 -6.681862,2.998642 -6.681862,6.681862 0,3.68322 2.998642,6.678649 6.681862,6.678649 3.68322,0 6.678649,-2.998643 6.678649,-6.681863 0,-3.68322 -2.995429,-6.678648 -6.678649,-6.678648 z m 0,12.283828 c -3.091847,0 -5.605179,-2.513332 -5.605179,-5.60518 0,-3.091847 2.513332,-5.605179 5.605179,-5.605179 3.091848,0 5.60518,2.513332 5.60518,5.605179 0,3.091848 -2.513332,5.60518 -5.60518,5.60518 z"
       id="path8-6-1"
       style="stroke-width:0.0321398" />
    <path
       d="m 40.861237,60.893471 c -2.735096,0 -4.962383,2.227287 -4.962383,4.962383 0,2.735096 2.227287,4.962384 4.962383,4.962384 2.735096,0 4.962384,-2.227288 4.962384,-4.962384 0,-2.735096 -2.227288,-4.962383 -4.962384,-4.962383 z m 0,4.457789 c 0.736002,0 1.369155,0.514236 1.520212,1.230954 0.176769,0.838848 -0.359965,1.664841 -1.198814,1.844824 v 0.610656 c 0,0.176768 -0.144629,0.321397 -0.321398,0.321397 -0.176769,0 -0.321398,-0.144629 -0.321398,-0.321397 v -0.610656 c -0.719931,-0.151057 -1.234167,-0.787425 -1.234167,-1.520213 0,-0.176768 0.144629,-0.321397 0.321397,-0.321397 0.176769,0 0.321398,0.144629 0.321398,0.321397 0,0.504595 0.408176,0.912771 0.91277,0.912771 0.504595,0 0.91277,-0.408176 0.91277,-0.912771 0,-0.504594 -0.408175,-0.91277 -0.91277,-0.91277 -0.732787,-0.0032 -1.369155,-0.514236 -1.520212,-1.234167 -0.179983,-0.842063 0.359966,-1.668056 1.198814,-1.844824 v -0.41139 c 0,-0.176769 0.144629,-0.321398 0.321398,-0.321398 0.176769,0 0.321398,0.144629 0.321398,0.321398 v 0.41139 c 0.719932,0.154271 1.234168,0.787424 1.234168,1.523426 0,0.176768 -0.144629,0.321398 -0.321398,0.321398 -0.176769,0 -0.321398,-0.14463 -0.321398,-0.321398 0,-0.504595 -0.408175,-0.91277 -0.91277,-0.91277 -0.504594,0 -0.91277,0.411389 -0.91277,0.91277 0,0.504594 0.408176,0.91277 0.91277,0.91277 z"
       id="path2-5-20"
       style="stroke-width:0.0321398" />
    <path
       d="m 40.861237,59.177206 c -3.68322,0 -6.681862,2.998642 -6.681862,6.681862 0,3.68322 2.998642,6.678649 6.681862,6.678649 3.68322,0 6.678649,-2.998643 6.678649,-6.681863 0,-3.68322 -2.995429,-6.678648 -6.678649,-6.678648 z m 0,12.283828 c -3.091847,0 -5.605179,-2.513332 -5.605179,-5.60518 0,-3.091847 2.513332,-5.605179 5.605179,-5.605179 3.091848,0 5.60518,2.513332 5.60518,5.605179 0,3.091848 -2.513332,5.60518 -5.60518,5.60518 z"
       id="path8-6-5"
       style="stroke-width:0.0321398" />
    <path
       d="m 59.159262,60.881673 c -2.735096,0 -4.962383,2.227287 -4.962383,4.962383 0,2.735096 2.227287,4.962384 4.962383,4.962384 2.735096,0 4.962384,-2.227288 4.962384,-4.962384 0,-2.735096 -2.227288,-4.962383 -4.962384,-4.962383 z m 0,4.457789 c 0.736002,0 1.369155,0.514236 1.520212,1.230954 0.176769,0.838848 -0.359965,1.664841 -1.198814,1.844824 v 0.610656 c 0,0.176768 -0.144629,0.321397 -0.321398,0.321397 -0.176769,0 -0.321398,-0.144629 -0.321398,-0.321397 V 68.41524 c -0.719931,-0.151057 -1.234167,-0.787425 -1.234167,-1.520213 0,-0.176768 0.144629,-0.321397 0.321397,-0.321397 0.176769,0 0.321398,0.144629 0.321398,0.321397 0,0.504595 0.408176,0.912771 0.91277,0.912771 0.504595,0 0.91277,-0.408176 0.91277,-0.912771 0,-0.504594 -0.408175,-0.91277 -0.91277,-0.91277 -0.732787,-0.0032 -1.369155,-0.514236 -1.520212,-1.234167 -0.179983,-0.842063 0.359966,-1.668056 1.198814,-1.844824 v -0.41139 c 0,-0.176769 0.144629,-0.321398 0.321398,-0.321398 0.176769,0 0.321398,0.144629 0.321398,0.321398 v 0.41139 c 0.719932,0.154271 1.234168,0.787424 1.234168,1.523426 0,0.176768 -0.144629,0.321398 -0.321398,0.321398 -0.176769,0 -0.321398,-0.14463 -0.321398,-0.321398 0,-0.504595 -0.408175,-0.91277 -0.91277,-0.91277 -0.504594,0 -0.91277,0.411389 -0.91277,0.91277 0,0.504594 0.408176,0.91277 0.91277,0.91277 z"
       id="path2-5-8"
       style="stroke-width:0.0321398" />
    <path
       d="m 59.159262,59.165408 c -3.68322,0 -6.681862,2.998642 -6.681862,6.681862 0,3.68322 2.998642,6.678649 6.681862,6.678649 3.68322,0 6.678649,-2.998643 6.678649,-6.681863 0,-3.68322 -2.995429,-6.678648 -6.678649,-6.678648 z m 0,12.283828 c -3.091847,0 -5.605179,-2.513332 -5.605179,-5.60518 0,-3.091847 2.513332,-5.605179 5.605179,-5.605179 3.091848,0 5.60518,2.513332 5.60518,5.605179 0,3.091848 -2.513332,5.60518 -5.60518,5.60518 z"
       id="path8-6-6"
       style="stroke-width:0.0321398" />
  </g>
  <g
     inkscape:label="F.Mask"
     inkscape:groupmode="layer"
     id="g850"
     style="display:inline">
    <path
       d="m 40.840737,29.673984 c -2.735096,0 -4.962383,2.227287 -4.962383,4.962383 0,2.735096 2.227287,4.962384 4.962383,4.962384 2.735096,0 4.962384,-2.227288 4.962384,-4.962384 0,-2.735096 -2.227288,-4.962383 -4.962384,-4.962383 z m 0,4.457789 c 0.736002,0 1.369155,0.514236 1.520212,1.230954 0.176769,0.838848 -0.359965,1.664841 -1.198814,1.844824 v 0.610656 c 0,0.176768 -0.144629,0.321397 -0.321398,0.321397 -0.176769,0 -0.321398,-0.144629 -0.321398,-0.321397 v -0.610656 c -0.719931,-0.151057 -1.234167,-0.787425 -1.234167,-1.520213 0,-0.176768 0.144629,-0.321397 0.321397,-0.321397 0.176769,0 0.321398,0.144629 0.321398,0.321397 0,0.504595 0.408176,0.912771 0.91277,0.912771 0.504595,0 0.91277,-0.408176 0.91277,-0.912771 0,-0.504594 -0.408175,-0.91277 -0.91277,-0.91277 -0.732787,-0.0032 -1.369155,-0.514236 -1.520212,-1.234167 -0.179983,-0.842063 0.359966,-1.668056 1.198814,-1.844824 v -0.41139 c 0,-0.176769 0.144629,-0.321398 0.321398,-0.321398 0.176769,0 0.321398,0.144629 0.321398,0.321398 v 0.41139 c 0.719932,0.154271 1.234168,0.787424 1.234168,1.523426 0,0.176768 -0.144629,0.321398 -0.321398,0.321398 -0.176769,0 -0.321398,-0.14463 -0.321398,-0.321398 0,-0.504595 -0.408175,-0.91277 -0.91277,-0.91277 -0.504594,0 -0.91277,0.411389 -0.91277,0.91277 0,0.504594 0.408176,0.91277 0.91277,0.91277 z"
       id="path1167"
       style="display:inline;stroke-width:0.0321398" />
    <path
       d="m 40.840737,27.957719 c -3.68322,0 -6.681862,2.998642 -6.681862,6.681862 0,3.68322 2.998642,6.678649 6.681862,6.678649 3.68322,0 6.678649,-2.998643 6.678649,-6.681863 0,-3.68322 -2.995429,-6.678648 -6.678649,-6.678648 z m 0,12.283828 c -3.091847,0 -5.605179,-2.513332 -5.605179,-5.60518 0,-3.091847 2.513332,-5.605179 5.605179,-5.605179 3.091848,0 5.60518,2.513332 5.60518,5.605179 0,3.091848 -2.513332,5.60518 -5.60518,5.60518 z"
       id="path1169"
       style="display:inline;stroke-width:0.0321398" />
    <path
       d="m 59.138762,29.662184 c -2.735096,0 -4.962383,2.227287 -4.962383,4.962383 0,2.735096 2.227287,4.962384 4.962383,4.962384 2.735096,0 4.962384,-2.227288 4.962384,-4.962384 0,-2.735096 -2.227288,-4.962383 -4.962384,-4.962383 z m 0,4.457789 c 0.736002,0 1.369155,0.514236 1.520212,1.230954 0.176769,0.838848 -0.359965,1.664841 -1.198814,1.844824 v 0.610656 c 0,0.176768 -0.144629,0.321397 -0.321398,0.321397 -0.176769,0 -0.321398,-0.144629 -0.321398,-0.321397 v -0.610656 c -0.719931,-0.151057 -1.234167,-0.787425 -1.234167,-1.520213 0,-0.176768 0.144629,-0.321397 0.321397,-0.321397 0.176769,0 0.321398,0.144629 0.321398,0.321397 0,0.504595 0.408176,0.912771 0.91277,0.912771 0.504595,0 0.91277,-0.408176 0.91277,-0.912771 0,-0.504594 -0.408175,-0.91277 -0.91277,-0.91277 -0.732787,-0.0032 -1.369155,-0.514236 -1.520212,-1.234167 -0.179983,-0.842063 0.359966,-1.668056 1.198814,-1.844824 v -0.41139 c 0,-0.176769 0.144629,-0.321398 0.321398,-0.321398 0.176769,0 0.321398,0.144629 0.321398,0.321398 v 0.41139 c 0.719932,0.154271 1.234168,0.787424 1.234168,1.523426 0,0.176768 -0.144629,0.321398 -0.321398,0.321398 -0.176769,0 -0.321398,-0.14463 -0.321398,-0.321398 0,-0.504595 -0.408175,-0.91277 -0.91277,-0.91277 -0.504594,0 -0.91277,0.411389 -0.91277,0.91277 0,0.504594 0.408176,0.91277 0.91277,0.91277 z"
       id="path1171"
       style="display:inline;stroke-width:0.0321398" />
    <path
       d="m 59.138762,27.945919 c -3.68322,0 -6.681862,2.998642 -6.681862,6.681862 0,3.68322 2.998642,6.678649 6.681862,6.678649 3.68322,0 6.678649,-2.998643 6.678649,-6.681863 0,-3.68322 -2.995429,-6.678648 -6.678649,-6.678648 z m 0,12.283828 c -3.091847,0 -5.605179,-2.513332 -5.605179,-5.60518 0,-3.091847 2.513332,-5.605179 5.605179,-5.605179 3.091848,0 5.60518,2.513332 5.60518,5.605179 0,3.091848 -2.513332,5.60518 -5.60518,5.60518 z"
       id="path1173"
       style="display:inline;stroke-width:0.0321398" />
    <path
       d="m 67.768859,45.530611 c -2.735096,0 -4.962383,2.227287 -4.962383,4.962383 0,2.735096 2.227287,4.962384 4.962383,4.962384 2.735096,0 4.962384,-2.227288 4.962384,-4.962384 0,-2.735096 -2.227288,-4.962383 -4.962384,-4.962383 z m 0,4.457789 c 0.736002,0 1.369155,0.514236 1.520212,1.230954 0.176769,0.838848 -0.359965,1.664841 -1.198814,1.844824 v 0.610656 c 0,0.176768 -0.144629,0.321397 -0.321398,0.321397 -0.176769,0 -0.321398,-0.144629 -0.321398,-0.321397 v -0.610656 c -0.719931,-0.151057 -1.234167,-0.787425 -1.234167,-1.520213 0,-0.176768 0.144629,-0.321397 0.321397,-0.321397 0.176769,0 0.321398,0.144629 0.321398,0.321397 0,0.504595 0.408176,0.912771 0.91277,0.912771 0.504595,0 0.91277,-0.408176 0.91277,-0.912771 0,-0.504594 -0.408175,-0.91277 -0.91277,-0.91277 -0.732787,-0.0032 -1.369155,-0.514236 -1.520212,-1.234167 -0.179983,-0.842063 0.359966,-1.668056 1.198814,-1.844824 v -0.41139 c 0,-0.176769 0.144629,-0.321398 0.321398,-0.321398 0.176769,0 0.321398,0.144629 0.321398,0.321398 v 0.41139 c 0.719932,0.154271 1.234168,0.787424 1.234168,1.523426 0,0.176768 -0.144629,0.321398 -0.321398,0.321398 -0.176769,0 -0.321398,-0.14463 -0.321398,-0.321398 0,-0.504595 -0.408175,-0.91277 -0.91277,-0.91277 -0.504594,0 -0.91277,0.411389 -0.91277,0.91277 0,0.504594 0.408176,0.91277 0.91277,0.91277 z"
       id="path1175"
       style="display:inline;stroke-width:0.0321398" />
    <path
       d="m 67.768859,43.814346 c -3.68322,0 -6.681862,2.998642 -6.681862,6.681862 0,3.68322 2.998642,6.678649 6.681862,6.678649 3.68322,0 6.678649,-2.998643 6.678649,-6.681863 0,-3.68322 -2.995429,-6.678648 -6.678649,-6.678648 z m 0,12.283828 c -3.091847,0 -5.605179,-2.513332 -5.605179,-5.60518 0,-3.091847 2.513332,-5.605179 5.605179,-5.605179 3.091848,0 5.60518,2.513332 5.60518,5.605179 0,3.091848 -2.513332,5.60518 -5.60518,5.60518 z"
       id="path1177"
       style="display:inline;stroke-width:0.0321398" />
    <path
       d="m 32.231141,45.554212 c -2.735096,0 -4.962383,2.227287 -4.962383,4.962383 0,2.735096 2.227287,4.962384 4.962383,4.962384 2.735096,0 4.962384,-2.227288 4.962384,-4.962384 0,-2.735096 -2.227288,-4.962383 -4.962384,-4.962383 z m 0,4.457789 c 0.736002,0 1.369155,0.514236 1.520212,1.230954 0.176769,0.838848 -0.359965,1.664841 -1.198814,1.844824 v 0.610656 c 0,0.176768 -0.144629,0.321397 -0.321398,0.321397 -0.176769,0 -0.321398,-0.144629 -0.321398,-0.321397 v -0.610656 c -0.719931,-0.151057 -1.234167,-0.787425 -1.234167,-1.520213 0,-0.176768 0.144629,-0.321397 0.321397,-0.321397 0.176769,0 0.321398,0.144629 0.321398,0.321397 0,0.504595 0.408176,0.912771 0.91277,0.912771 0.504595,0 0.91277,-0.408176 0.91277,-0.912771 0,-0.504594 -0.408175,-0.91277 -0.91277,-0.91277 -0.732787,-0.0032 -1.369155,-0.514236 -1.520212,-1.234167 -0.179983,-0.842063 0.359966,-1.668056 1.198814,-1.844824 v -0.41139 c 0,-0.176769 0.144629,-0.321398 0.321398,-0.321398 0.176769,0 0.321398,0.144629 0.321398,0.321398 v 0.41139 c 0.719932,0.154271 1.234168,0.787424 1.234168,1.523426 0,0.176768 -0.144629,0.321398 -0.321398,0.321398 -0.176769,0 -0.321398,-0.14463 -0.321398,-0.321398 0,-0.504595 -0.408175,-0.91277 -0.91277,-0.91277 -0.504594,0 -0.91277,0.411389 -0.91277,0.91277 0,0.504594 0.408176,0.91277 0.91277,0.91277 z"
       id="path1179"
       style="display:inline;stroke-width:0.0321398" />
    <path
       d="m 32.231141,43.837947 c -3.68322,0 -6.681862,2.998642 -6.681862,6.681862 0,3.68322 2.998642,6.678649 6.681862,6.678649 3.68322,0 6.678649,-2.998643 6.678649,-6.681863 0,-3.68322 -2.995429,-6.678648 -6.678649,-6.678648 z m 0,12.283828 c -3.091847,0 -5.605179,-2.513332 -5.605179,-5.60518 0,-3.091847 2.513332,-5.605179 5.605179,-5.605179 3.091848,0 5.60518,2.513332 5.60518,5.605179 0,3.091848 -2.513332,5.60518 -5.60518,5.60518 z"
       id="path1181"
       style="display:inline;stroke-width:0.0321398" />
    <path
       d="m 40.861237,60.893471 c -2.735096,0 -4.962383,2.227287 -4.962383,4.962383 0,2.735096 2.227287,4.962384 4.962383,4.962384 2.735096,0 4.962384,-2.227288 4.962384,-4.962384 0,-2.735096 -2.227288,-4.962383 -4.962384,-4.962383 z m 0,4.457789 c 0.736002,0 1.369155,0.514236 1.520212,1.230954 0.176769,0.838848 -0.359965,1.664841 -1.198814,1.844824 v 0.610656 c 0,0.176768 -0.144629,0.321397 -0.321398,0.321397 -0.176769,0 -0.321398,-0.144629 -0.321398,-0.321397 v -0.610656 c -0.719931,-0.151057 -1.234167,-0.787425 -1.234167,-1.520213 0,-0.176768 0.144629,-0.321397 0.321397,-0.321397 0.176769,0 0.321398,0.144629 0.321398,0.321397 0,0.504595 0.408176,0.912771 0.91277,0.912771 0.504595,0 0.91277,-0.408176 0.91277,-0.912771 0,-0.504594 -0.408175,-0.91277 -0.91277,-0.91277 -0.732787,-0.0032 -1.369155,-0.514236 -1.520212,-1.234167 -0.179983,-0.842063 0.359966,-1.668056 1.198814,-1.844824 v -0.41139 c 0,-0.176769 0.144629,-0.321398 0.321398,-0.321398 0.176769,0 0.321398,0.144629 0.321398,0.321398 v 0.41139 c 0.719932,0.154271 1.234168,0.787424 1.234168,1.523426 0,0.176768 -0.144629,0.321398 -0.321398,0.321398 -0.176769,0 -0.321398,-0.14463 -0.321398,-0.321398 0,-0.504595 -0.408175,-0.91277 -0.91277,-0.91277 -0.504594,0 -0.91277,0.411389 -0.91277,0.91277 0,0.504594 0.408176,0.91277 0.91277,0.91277 z"
       id="path1183"
       style="display:inline;stroke-width:0.0321398" />
    <path
       d="m 40.861237,59.177206 c -3.68322,0 -6.681862,2.998642 -6.681862,6.681862 0,3.68322 2.998642,6.678649 6.681862,6.678649 3.68322,0 6.678649,-2.998643 6.678649,-6.681863 0,-3.68322 -2.995429,-6.678648 -6.678649,-6.678648 z m 0,12.283828 c -3.091847,0 -5.605179,-2.513332 -5.605179,-5.60518 0,-3.091847 2.513332,-5.605179 5.605179,-5.605179 3.091848,0 5.60518,2.513332 5.60518,5.605179 0,3.091848 -2.513332,5.60518 -5.60518,5.60518 z"
       id="path1185"
       style="display:inline;stroke-width:0.0321398" />
    <path
       d="m 59.159262,60.881673 c -2.735096,0 -4.962383,2.227287 -4.962383,4.962383 0,2.735096 2.227287,4.962384 4.962383,4.962384 2.735096,0 4.962384,-2.227288 4.962384,-4.962384 0,-2.735096 -2.227288,-4.962383 -4.962384,-4.962383 z m 0,4.457789 c 0.736002,0 1.369155,0.514236 1.520212,1.230954 0.176769,0.838848 -0.359965,1.664841 -1.198814,1.844824 v 0.610656 c 0,0.176768 -0.144629,0.321397 -0.321398,0.321397 -0.176769,0 -0.321398,-0.144629 -0.321398,-0.321397 V 68.41524 c -0.719931,-0.151057 -1.234167,-0.787425 -1.234167,-1.520213 0,-0.176768 0.144629,-0.321397 0.321397,-0.321397 0.176769,0 0.321398,0.144629 0.321398,0.321397 0,0.504595 0.408176,0.912771 0.91277,0.912771 0.504595,0 0.91277,-0.408176 0.91277,-0.912771 0,-0.504594 -0.408175,-0.91277 -0.91277,-0.91277 -0.732787,-0.0032 -1.369155,-0.514236 -1.520212,-1.234167 -0.179983,-0.842063 0.359966,-1.668056 1.198814,-1.844824 v -0.41139 c 0,-0.176769 0.144629,-0.321398 0.321398,-0.321398 0.176769,0 0.321398,0.144629 0.321398,0.321398 v 0.41139 c 0.719932,0.154271 1.234168,0.787424 1.234168,1.523426 0,0.176768 -0.144629,0.321398 -0.321398,0.321398 -0.176769,0 -0.321398,-0.14463 -0.321398,-0.321398 0,-0.504595 -0.408175,-0.91277 -0.91277,-0.91277 -0.504594,0 -0.91277,0.411389 -0.91277,0.91277 0,0.504594 0.408176,0.91277 0.91277,0.91277 z"
       id="path1187"
       style="display:inline;stroke-width:0.0321398" />
    <path
       d="m 59.159262,59.165408 c -3.68322,0 -6.681862,2.998642 -6.681862,6.681862 0,3.68322 2.998642,6.678649 6.681862,6.678649 3.68322,0 6.678649,-2.998643 6.678649,-6.681863 0,-3.68322 -2.995429,-6.678648 -6.678649,-6.678648 z m 0,12.283828 c -3.091847,0 -5.605179,-2.513332 -5.605179,-5.60518 0,-3.091847 2.513332,-5.605179 5.605179,-5.605179 3.091848,0 5.60518,2.513332 5.60518,5.605179 0,3.091848 -2.513332,5.60518 -5.60518,5.60518 z"
       id="path1189"
       style="display:inline;stroke-width:0.0321398" />
  </g>
  <g
     inkscape:label="F.SilkS-disabled"
     inkscape:groupmode="layer"
     id="g852"
     style="display:inline" />
</svg>
