G04 #@! TF.GenerationSoftware,KiCad,Pcbnew,5.1.5+dfsg1-2build2*
G04 #@! TF.CreationDate,2021-04-24T08:27:42-04:00*
G04 #@! TF.ProjectId,largest_army_card,6c617267-6573-4745-9f61-726d795f6361,rev?*
G04 #@! TF.SameCoordinates,Original*
G04 #@! TF.FileFunction,Legend,Top*
G04 #@! TF.FilePolarity,Positive*
%FSLAX46Y46*%
G04 Gerber Fmt 4.6, Leading zero omitted, Abs format (unit mm)*
G04 Created by KiCad (PCBNEW 5.1.5+dfsg1-2build2) date 2021-04-24 08:27:42*
%MOMM*%
%LPD*%
G04 APERTURE LIST*
%ADD10C,0.010000*%
G04 APERTURE END LIST*
D10*
G36*
X-8816063Y-15612622D02*
G01*
X-8745163Y-15653196D01*
X-8674591Y-15730506D01*
X-8621898Y-15822855D01*
X-8595318Y-15914654D01*
X-8593667Y-15939985D01*
X-8608075Y-16012235D01*
X-8648195Y-16105434D01*
X-8709376Y-16211035D01*
X-8786962Y-16320492D01*
X-8829111Y-16372416D01*
X-8874840Y-16424280D01*
X-8944250Y-16500456D01*
X-9031627Y-16594793D01*
X-9131254Y-16701144D01*
X-9237416Y-16813357D01*
X-9298074Y-16876971D01*
X-9503440Y-17094322D01*
X-9680784Y-17288520D01*
X-9833665Y-17464605D01*
X-9965636Y-17627619D01*
X-10080256Y-17782604D01*
X-10181080Y-17934602D01*
X-10271664Y-18088654D01*
X-10355565Y-18249803D01*
X-10436339Y-18423089D01*
X-10509857Y-18594934D01*
X-10562358Y-18727855D01*
X-10620157Y-18884760D01*
X-10681420Y-19059715D01*
X-10744312Y-19246789D01*
X-10806998Y-19440049D01*
X-10867643Y-19633563D01*
X-10924413Y-19821397D01*
X-10975472Y-19997620D01*
X-11018987Y-20156298D01*
X-11053121Y-20291500D01*
X-11076041Y-20397292D01*
X-11084775Y-20453846D01*
X-11097690Y-20577110D01*
X-11015137Y-20562830D01*
X-10899161Y-20539018D01*
X-10751059Y-20502775D01*
X-10578412Y-20456351D01*
X-10388802Y-20401993D01*
X-10189808Y-20341951D01*
X-9989013Y-20278473D01*
X-9793997Y-20213809D01*
X-9612341Y-20150207D01*
X-9561139Y-20131506D01*
X-9331435Y-20044113D01*
X-9125803Y-19959442D01*
X-8938964Y-19873979D01*
X-8765638Y-19784213D01*
X-8600546Y-19686631D01*
X-8438407Y-19577722D01*
X-8273942Y-19453972D01*
X-8101872Y-19311871D01*
X-7916917Y-19147905D01*
X-7713797Y-18958563D01*
X-7524750Y-18776825D01*
X-7334699Y-18593270D01*
X-7171308Y-18438382D01*
X-7031699Y-18310500D01*
X-6912994Y-18207966D01*
X-6812314Y-18129122D01*
X-6726781Y-18072307D01*
X-6653517Y-18035863D01*
X-6589644Y-18018131D01*
X-6532284Y-18017452D01*
X-6478558Y-18032167D01*
X-6425588Y-18060617D01*
X-6370496Y-18101144D01*
X-6363025Y-18107215D01*
X-6254422Y-18211226D01*
X-6187249Y-18312412D01*
X-6160892Y-18412901D01*
X-6174739Y-18514823D01*
X-6219223Y-18606647D01*
X-6270003Y-18676281D01*
X-6348040Y-18769773D01*
X-6449001Y-18882802D01*
X-6568554Y-19011045D01*
X-6702366Y-19150178D01*
X-6846105Y-19295878D01*
X-6995438Y-19443823D01*
X-7146033Y-19589690D01*
X-7293557Y-19729155D01*
X-7433678Y-19857896D01*
X-7562064Y-19971590D01*
X-7674382Y-20065913D01*
X-7710504Y-20094651D01*
X-7870787Y-20213204D01*
X-8039781Y-20324383D01*
X-8223204Y-20431204D01*
X-8426772Y-20536684D01*
X-8656204Y-20643838D01*
X-8917217Y-20755682D01*
X-9116029Y-20836099D01*
X-9231348Y-20881101D01*
X-9373959Y-20935543D01*
X-9540367Y-20998167D01*
X-9727079Y-21067720D01*
X-9930600Y-21142943D01*
X-10147435Y-21222582D01*
X-10374090Y-21305381D01*
X-10607070Y-21390083D01*
X-10842882Y-21475432D01*
X-11078031Y-21560172D01*
X-11309023Y-21643048D01*
X-11532363Y-21722803D01*
X-11744556Y-21798181D01*
X-11942109Y-21867927D01*
X-12121527Y-21930783D01*
X-12279315Y-21985495D01*
X-12411980Y-22030805D01*
X-12516027Y-22065459D01*
X-12587961Y-22088200D01*
X-12624289Y-22097772D01*
X-12626743Y-22098000D01*
X-12654430Y-22090666D01*
X-12657667Y-22084807D01*
X-12650470Y-22061158D01*
X-12629464Y-22000222D01*
X-12595528Y-21904416D01*
X-12549539Y-21776155D01*
X-12492375Y-21617857D01*
X-12424915Y-21431938D01*
X-12348036Y-21220815D01*
X-12262617Y-20986905D01*
X-12169536Y-20732623D01*
X-12069671Y-20460387D01*
X-11963899Y-20172614D01*
X-11886426Y-19962167D01*
X-11752032Y-19599138D01*
X-11629758Y-19273244D01*
X-11518171Y-18981514D01*
X-11415839Y-18720976D01*
X-11321327Y-18488661D01*
X-11233204Y-18281597D01*
X-11150034Y-18096814D01*
X-11070386Y-17931341D01*
X-10992826Y-17782208D01*
X-10915920Y-17646444D01*
X-10838236Y-17521078D01*
X-10758340Y-17403140D01*
X-10674798Y-17289659D01*
X-10586178Y-17177664D01*
X-10491046Y-17064185D01*
X-10484593Y-17056675D01*
X-10421214Y-16985987D01*
X-10335511Y-16894790D01*
X-10231661Y-16787179D01*
X-10113842Y-16667250D01*
X-9986231Y-16539099D01*
X-9853006Y-16406823D01*
X-9718345Y-16274515D01*
X-9586424Y-16146273D01*
X-9461423Y-16026191D01*
X-9347517Y-15918367D01*
X-9248886Y-15826895D01*
X-9169706Y-15755870D01*
X-9114155Y-15709390D01*
X-9099088Y-15698317D01*
X-8988657Y-15634451D01*
X-8895831Y-15606080D01*
X-8816063Y-15612622D01*
G37*
X-8816063Y-15612622D02*
X-8745163Y-15653196D01*
X-8674591Y-15730506D01*
X-8621898Y-15822855D01*
X-8595318Y-15914654D01*
X-8593667Y-15939985D01*
X-8608075Y-16012235D01*
X-8648195Y-16105434D01*
X-8709376Y-16211035D01*
X-8786962Y-16320492D01*
X-8829111Y-16372416D01*
X-8874840Y-16424280D01*
X-8944250Y-16500456D01*
X-9031627Y-16594793D01*
X-9131254Y-16701144D01*
X-9237416Y-16813357D01*
X-9298074Y-16876971D01*
X-9503440Y-17094322D01*
X-9680784Y-17288520D01*
X-9833665Y-17464605D01*
X-9965636Y-17627619D01*
X-10080256Y-17782604D01*
X-10181080Y-17934602D01*
X-10271664Y-18088654D01*
X-10355565Y-18249803D01*
X-10436339Y-18423089D01*
X-10509857Y-18594934D01*
X-10562358Y-18727855D01*
X-10620157Y-18884760D01*
X-10681420Y-19059715D01*
X-10744312Y-19246789D01*
X-10806998Y-19440049D01*
X-10867643Y-19633563D01*
X-10924413Y-19821397D01*
X-10975472Y-19997620D01*
X-11018987Y-20156298D01*
X-11053121Y-20291500D01*
X-11076041Y-20397292D01*
X-11084775Y-20453846D01*
X-11097690Y-20577110D01*
X-11015137Y-20562830D01*
X-10899161Y-20539018D01*
X-10751059Y-20502775D01*
X-10578412Y-20456351D01*
X-10388802Y-20401993D01*
X-10189808Y-20341951D01*
X-9989013Y-20278473D01*
X-9793997Y-20213809D01*
X-9612341Y-20150207D01*
X-9561139Y-20131506D01*
X-9331435Y-20044113D01*
X-9125803Y-19959442D01*
X-8938964Y-19873979D01*
X-8765638Y-19784213D01*
X-8600546Y-19686631D01*
X-8438407Y-19577722D01*
X-8273942Y-19453972D01*
X-8101872Y-19311871D01*
X-7916917Y-19147905D01*
X-7713797Y-18958563D01*
X-7524750Y-18776825D01*
X-7334699Y-18593270D01*
X-7171308Y-18438382D01*
X-7031699Y-18310500D01*
X-6912994Y-18207966D01*
X-6812314Y-18129122D01*
X-6726781Y-18072307D01*
X-6653517Y-18035863D01*
X-6589644Y-18018131D01*
X-6532284Y-18017452D01*
X-6478558Y-18032167D01*
X-6425588Y-18060617D01*
X-6370496Y-18101144D01*
X-6363025Y-18107215D01*
X-6254422Y-18211226D01*
X-6187249Y-18312412D01*
X-6160892Y-18412901D01*
X-6174739Y-18514823D01*
X-6219223Y-18606647D01*
X-6270003Y-18676281D01*
X-6348040Y-18769773D01*
X-6449001Y-18882802D01*
X-6568554Y-19011045D01*
X-6702366Y-19150178D01*
X-6846105Y-19295878D01*
X-6995438Y-19443823D01*
X-7146033Y-19589690D01*
X-7293557Y-19729155D01*
X-7433678Y-19857896D01*
X-7562064Y-19971590D01*
X-7674382Y-20065913D01*
X-7710504Y-20094651D01*
X-7870787Y-20213204D01*
X-8039781Y-20324383D01*
X-8223204Y-20431204D01*
X-8426772Y-20536684D01*
X-8656204Y-20643838D01*
X-8917217Y-20755682D01*
X-9116029Y-20836099D01*
X-9231348Y-20881101D01*
X-9373959Y-20935543D01*
X-9540367Y-20998167D01*
X-9727079Y-21067720D01*
X-9930600Y-21142943D01*
X-10147435Y-21222582D01*
X-10374090Y-21305381D01*
X-10607070Y-21390083D01*
X-10842882Y-21475432D01*
X-11078031Y-21560172D01*
X-11309023Y-21643048D01*
X-11532363Y-21722803D01*
X-11744556Y-21798181D01*
X-11942109Y-21867927D01*
X-12121527Y-21930783D01*
X-12279315Y-21985495D01*
X-12411980Y-22030805D01*
X-12516027Y-22065459D01*
X-12587961Y-22088200D01*
X-12624289Y-22097772D01*
X-12626743Y-22098000D01*
X-12654430Y-22090666D01*
X-12657667Y-22084807D01*
X-12650470Y-22061158D01*
X-12629464Y-22000222D01*
X-12595528Y-21904416D01*
X-12549539Y-21776155D01*
X-12492375Y-21617857D01*
X-12424915Y-21431938D01*
X-12348036Y-21220815D01*
X-12262617Y-20986905D01*
X-12169536Y-20732623D01*
X-12069671Y-20460387D01*
X-11963899Y-20172614D01*
X-11886426Y-19962167D01*
X-11752032Y-19599138D01*
X-11629758Y-19273244D01*
X-11518171Y-18981514D01*
X-11415839Y-18720976D01*
X-11321327Y-18488661D01*
X-11233204Y-18281597D01*
X-11150034Y-18096814D01*
X-11070386Y-17931341D01*
X-10992826Y-17782208D01*
X-10915920Y-17646444D01*
X-10838236Y-17521078D01*
X-10758340Y-17403140D01*
X-10674798Y-17289659D01*
X-10586178Y-17177664D01*
X-10491046Y-17064185D01*
X-10484593Y-17056675D01*
X-10421214Y-16985987D01*
X-10335511Y-16894790D01*
X-10231661Y-16787179D01*
X-10113842Y-16667250D01*
X-9986231Y-16539099D01*
X-9853006Y-16406823D01*
X-9718345Y-16274515D01*
X-9586424Y-16146273D01*
X-9461423Y-16026191D01*
X-9347517Y-15918367D01*
X-9248886Y-15826895D01*
X-9169706Y-15755870D01*
X-9114155Y-15709390D01*
X-9099088Y-15698317D01*
X-8988657Y-15634451D01*
X-8895831Y-15606080D01*
X-8816063Y-15612622D01*
G36*
X9790984Y-15586407D02*
G01*
X9874649Y-15615702D01*
X9971444Y-15669681D01*
X10084282Y-15749931D01*
X10216081Y-15858039D01*
X10369756Y-15995590D01*
X10519833Y-16136916D01*
X10764024Y-16374741D01*
X10977792Y-16592286D01*
X11164794Y-16794378D01*
X11328689Y-16985847D01*
X11473135Y-17171520D01*
X11601793Y-17356225D01*
X11718319Y-17544793D01*
X11826373Y-17742050D01*
X11929613Y-17952826D01*
X11980479Y-18064585D01*
X12023447Y-18164401D01*
X12076572Y-18293306D01*
X12138653Y-18448052D01*
X12208494Y-18625392D01*
X12284895Y-18822076D01*
X12366658Y-19034859D01*
X12452583Y-19260491D01*
X12541472Y-19495725D01*
X12632126Y-19737314D01*
X12723347Y-19982009D01*
X12813936Y-20226564D01*
X12902694Y-20467729D01*
X12988423Y-20702258D01*
X13069923Y-20926902D01*
X13145996Y-21138414D01*
X13215444Y-21333546D01*
X13277067Y-21509050D01*
X13329667Y-21661679D01*
X13372045Y-21788185D01*
X13403002Y-21885319D01*
X13421341Y-21949835D01*
X13425861Y-21978485D01*
X13425391Y-21979386D01*
X13389809Y-21990351D01*
X13322475Y-21990379D01*
X13232273Y-21980402D01*
X13128086Y-21961356D01*
X13033045Y-21938151D01*
X12898801Y-21898900D01*
X12730280Y-21845719D01*
X12532492Y-21780442D01*
X12310451Y-21704901D01*
X12069167Y-21620926D01*
X11813653Y-21530352D01*
X11548921Y-21435009D01*
X11279982Y-21336730D01*
X11011849Y-21237346D01*
X10749534Y-21138691D01*
X10498048Y-21042596D01*
X10262403Y-20950893D01*
X10047612Y-20865415D01*
X9858686Y-20787993D01*
X9700638Y-20720460D01*
X9694333Y-20717683D01*
X9426152Y-20593400D01*
X9188779Y-20469602D01*
X8971263Y-20339797D01*
X8762659Y-20197496D01*
X8572500Y-20052591D01*
X8508979Y-19998685D01*
X8423081Y-19920882D01*
X8318870Y-19823255D01*
X8200414Y-19709876D01*
X8071779Y-19584817D01*
X7937033Y-19452152D01*
X7800242Y-19315951D01*
X7665474Y-19180288D01*
X7536794Y-19049234D01*
X7418270Y-18926861D01*
X7313968Y-18817243D01*
X7227956Y-18724451D01*
X7164300Y-18652557D01*
X7127067Y-18605634D01*
X7126205Y-18604363D01*
X7061360Y-18491785D01*
X7032893Y-18397132D01*
X7041523Y-18315515D01*
X7087968Y-18242044D01*
X7172949Y-18171830D01*
X7191584Y-18159672D01*
X7251366Y-18126780D01*
X7310560Y-18106645D01*
X7372015Y-18100970D01*
X7438586Y-18111458D01*
X7513122Y-18139815D01*
X7598476Y-18187743D01*
X7697500Y-18256946D01*
X7813045Y-18349128D01*
X7947963Y-18465993D01*
X8105106Y-18609244D01*
X8287325Y-18780585D01*
X8382000Y-18870880D01*
X8590895Y-19067869D01*
X8781647Y-19240314D01*
X8959789Y-19391465D01*
X9130856Y-19524573D01*
X9300383Y-19642890D01*
X9473906Y-19749667D01*
X9656960Y-19848155D01*
X9855078Y-19941604D01*
X10073797Y-20033266D01*
X10318651Y-20126391D01*
X10595175Y-20224232D01*
X10810354Y-20297200D01*
X10971639Y-20350591D01*
X11136056Y-20403935D01*
X11298215Y-20455583D01*
X11452726Y-20503886D01*
X11594198Y-20547194D01*
X11717241Y-20583858D01*
X11816464Y-20612228D01*
X11886478Y-20630655D01*
X11921892Y-20637490D01*
X11922467Y-20637500D01*
X11934452Y-20618074D01*
X11933778Y-20562307D01*
X11921342Y-20473960D01*
X11898039Y-20356797D01*
X11864765Y-20214578D01*
X11822417Y-20051068D01*
X11771891Y-19870028D01*
X11714083Y-19675221D01*
X11649889Y-19470409D01*
X11629522Y-19407582D01*
X11553567Y-19179019D01*
X11485618Y-18983853D01*
X11422710Y-18814598D01*
X11361880Y-18663764D01*
X11300163Y-18523861D01*
X11234596Y-18387402D01*
X11194818Y-18309166D01*
X11131413Y-18190176D01*
X11067842Y-18079460D01*
X11000777Y-17972778D01*
X10926895Y-17865888D01*
X10842869Y-17754548D01*
X10745373Y-17634517D01*
X10631082Y-17501552D01*
X10496671Y-17351414D01*
X10338813Y-17179859D01*
X10157576Y-16986250D01*
X9995529Y-16812899D01*
X9860599Y-16665596D01*
X9749736Y-16540694D01*
X9659887Y-16434543D01*
X9588001Y-16343493D01*
X9531027Y-16263897D01*
X9485914Y-16192105D01*
X9470330Y-16164433D01*
X9419260Y-16035325D01*
X9409821Y-15913325D01*
X9441693Y-15799865D01*
X9514555Y-15696379D01*
X9589607Y-15630766D01*
X9651379Y-15595525D01*
X9717533Y-15580210D01*
X9790984Y-15586407D01*
G37*
X9790984Y-15586407D02*
X9874649Y-15615702D01*
X9971444Y-15669681D01*
X10084282Y-15749931D01*
X10216081Y-15858039D01*
X10369756Y-15995590D01*
X10519833Y-16136916D01*
X10764024Y-16374741D01*
X10977792Y-16592286D01*
X11164794Y-16794378D01*
X11328689Y-16985847D01*
X11473135Y-17171520D01*
X11601793Y-17356225D01*
X11718319Y-17544793D01*
X11826373Y-17742050D01*
X11929613Y-17952826D01*
X11980479Y-18064585D01*
X12023447Y-18164401D01*
X12076572Y-18293306D01*
X12138653Y-18448052D01*
X12208494Y-18625392D01*
X12284895Y-18822076D01*
X12366658Y-19034859D01*
X12452583Y-19260491D01*
X12541472Y-19495725D01*
X12632126Y-19737314D01*
X12723347Y-19982009D01*
X12813936Y-20226564D01*
X12902694Y-20467729D01*
X12988423Y-20702258D01*
X13069923Y-20926902D01*
X13145996Y-21138414D01*
X13215444Y-21333546D01*
X13277067Y-21509050D01*
X13329667Y-21661679D01*
X13372045Y-21788185D01*
X13403002Y-21885319D01*
X13421341Y-21949835D01*
X13425861Y-21978485D01*
X13425391Y-21979386D01*
X13389809Y-21990351D01*
X13322475Y-21990379D01*
X13232273Y-21980402D01*
X13128086Y-21961356D01*
X13033045Y-21938151D01*
X12898801Y-21898900D01*
X12730280Y-21845719D01*
X12532492Y-21780442D01*
X12310451Y-21704901D01*
X12069167Y-21620926D01*
X11813653Y-21530352D01*
X11548921Y-21435009D01*
X11279982Y-21336730D01*
X11011849Y-21237346D01*
X10749534Y-21138691D01*
X10498048Y-21042596D01*
X10262403Y-20950893D01*
X10047612Y-20865415D01*
X9858686Y-20787993D01*
X9700638Y-20720460D01*
X9694333Y-20717683D01*
X9426152Y-20593400D01*
X9188779Y-20469602D01*
X8971263Y-20339797D01*
X8762659Y-20197496D01*
X8572500Y-20052591D01*
X8508979Y-19998685D01*
X8423081Y-19920882D01*
X8318870Y-19823255D01*
X8200414Y-19709876D01*
X8071779Y-19584817D01*
X7937033Y-19452152D01*
X7800242Y-19315951D01*
X7665474Y-19180288D01*
X7536794Y-19049234D01*
X7418270Y-18926861D01*
X7313968Y-18817243D01*
X7227956Y-18724451D01*
X7164300Y-18652557D01*
X7127067Y-18605634D01*
X7126205Y-18604363D01*
X7061360Y-18491785D01*
X7032893Y-18397132D01*
X7041523Y-18315515D01*
X7087968Y-18242044D01*
X7172949Y-18171830D01*
X7191584Y-18159672D01*
X7251366Y-18126780D01*
X7310560Y-18106645D01*
X7372015Y-18100970D01*
X7438586Y-18111458D01*
X7513122Y-18139815D01*
X7598476Y-18187743D01*
X7697500Y-18256946D01*
X7813045Y-18349128D01*
X7947963Y-18465993D01*
X8105106Y-18609244D01*
X8287325Y-18780585D01*
X8382000Y-18870880D01*
X8590895Y-19067869D01*
X8781647Y-19240314D01*
X8959789Y-19391465D01*
X9130856Y-19524573D01*
X9300383Y-19642890D01*
X9473906Y-19749667D01*
X9656960Y-19848155D01*
X9855078Y-19941604D01*
X10073797Y-20033266D01*
X10318651Y-20126391D01*
X10595175Y-20224232D01*
X10810354Y-20297200D01*
X10971639Y-20350591D01*
X11136056Y-20403935D01*
X11298215Y-20455583D01*
X11452726Y-20503886D01*
X11594198Y-20547194D01*
X11717241Y-20583858D01*
X11816464Y-20612228D01*
X11886478Y-20630655D01*
X11921892Y-20637490D01*
X11922467Y-20637500D01*
X11934452Y-20618074D01*
X11933778Y-20562307D01*
X11921342Y-20473960D01*
X11898039Y-20356797D01*
X11864765Y-20214578D01*
X11822417Y-20051068D01*
X11771891Y-19870028D01*
X11714083Y-19675221D01*
X11649889Y-19470409D01*
X11629522Y-19407582D01*
X11553567Y-19179019D01*
X11485618Y-18983853D01*
X11422710Y-18814598D01*
X11361880Y-18663764D01*
X11300163Y-18523861D01*
X11234596Y-18387402D01*
X11194818Y-18309166D01*
X11131413Y-18190176D01*
X11067842Y-18079460D01*
X11000777Y-17972778D01*
X10926895Y-17865888D01*
X10842869Y-17754548D01*
X10745373Y-17634517D01*
X10631082Y-17501552D01*
X10496671Y-17351414D01*
X10338813Y-17179859D01*
X10157576Y-16986250D01*
X9995529Y-16812899D01*
X9860599Y-16665596D01*
X9749736Y-16540694D01*
X9659887Y-16434543D01*
X9588001Y-16343493D01*
X9531027Y-16263897D01*
X9485914Y-16192105D01*
X9470330Y-16164433D01*
X9419260Y-16035325D01*
X9409821Y-15913325D01*
X9441693Y-15799865D01*
X9514555Y-15696379D01*
X9589607Y-15630766D01*
X9651379Y-15595525D01*
X9717533Y-15580210D01*
X9790984Y-15586407D01*
G36*
X1095600Y1306595D02*
G01*
X1752454Y1241420D01*
X2130435Y1184993D01*
X2524925Y1110154D01*
X2931040Y1016614D01*
X3341667Y906737D01*
X3749692Y782887D01*
X4148000Y647429D01*
X4529478Y502727D01*
X4887012Y351145D01*
X5213487Y195047D01*
X5386916Y102758D01*
X5579013Y-9271D01*
X5795328Y-144583D01*
X6028666Y-298088D01*
X6271830Y-464693D01*
X6517623Y-639305D01*
X6758851Y-816833D01*
X6988316Y-992184D01*
X7198822Y-1160265D01*
X7344833Y-1282708D01*
X7808135Y-1709218D01*
X8242830Y-2165578D01*
X8647950Y-2649571D01*
X9022529Y-3158983D01*
X9365601Y-3691600D01*
X9676199Y-4245207D01*
X9953356Y-4817589D01*
X10196106Y-5406531D01*
X10403483Y-6009818D01*
X10574520Y-6625237D01*
X10708251Y-7250572D01*
X10803708Y-7883608D01*
X10859926Y-8522130D01*
X10875938Y-9163925D01*
X10872505Y-9366250D01*
X10837634Y-10045532D01*
X10770045Y-10698852D01*
X10668952Y-11328039D01*
X10533571Y-11934922D01*
X10363115Y-12521332D01*
X10156800Y-13089098D01*
X9913840Y-13640049D01*
X9633450Y-14176015D01*
X9314844Y-14698826D01*
X8957237Y-15210311D01*
X8559844Y-15712300D01*
X8121879Y-16206622D01*
X7788249Y-16551559D01*
X7416588Y-16908935D01*
X7048888Y-17233411D01*
X6676186Y-17532400D01*
X6289520Y-17813314D01*
X6138333Y-17916015D01*
X5572212Y-18268957D01*
X4991220Y-18582442D01*
X4396316Y-18856200D01*
X3788458Y-19089960D01*
X3168606Y-19283452D01*
X2537716Y-19436407D01*
X1896749Y-19548555D01*
X1246663Y-19619626D01*
X588417Y-19649350D01*
X10583Y-19641396D01*
X-584762Y-19598219D01*
X-1188885Y-19517794D01*
X-1793569Y-19401644D01*
X-2390597Y-19251293D01*
X-2841562Y-19112628D01*
X-3452770Y-18888434D01*
X-4048144Y-18628796D01*
X-4624980Y-18335449D01*
X-5180575Y-18010128D01*
X-5712225Y-17654568D01*
X-6217226Y-17270504D01*
X-6692874Y-16859672D01*
X-7136465Y-16423807D01*
X-7291917Y-16256552D01*
X-7734678Y-15737516D01*
X-8140107Y-15198566D01*
X-8508092Y-14639919D01*
X-8838518Y-14061792D01*
X-9131273Y-13464399D01*
X-9386244Y-12847958D01*
X-9603317Y-12212685D01*
X-9782379Y-11558796D01*
X-9807793Y-11451166D01*
X-9938468Y-10800008D01*
X-10027763Y-10156765D01*
X-10075708Y-9520545D01*
X-10079648Y-9145567D01*
X-9389789Y-9145567D01*
X-9372959Y-9773503D01*
X-9315481Y-10399368D01*
X-9217205Y-11021188D01*
X-9077985Y-11636988D01*
X-8928807Y-12149666D01*
X-8718370Y-12735583D01*
X-8469507Y-13305828D01*
X-8183701Y-13858845D01*
X-7862436Y-14393079D01*
X-7507196Y-14906972D01*
X-7119465Y-15398969D01*
X-6700727Y-15867514D01*
X-6252466Y-16311049D01*
X-5776166Y-16728020D01*
X-5273310Y-17116870D01*
X-4745384Y-17476042D01*
X-4193871Y-17803980D01*
X-3620254Y-18099128D01*
X-3026019Y-18359931D01*
X-2995084Y-18372324D01*
X-2809085Y-18443317D01*
X-2607316Y-18514790D01*
X-2399513Y-18583685D01*
X-2195414Y-18646943D01*
X-2004755Y-18701504D01*
X-1837273Y-18744310D01*
X-1749995Y-18763474D01*
X-1519806Y-18803533D01*
X-1257832Y-18838503D01*
X-974403Y-18867603D01*
X-679847Y-18890053D01*
X-384493Y-18905072D01*
X-98670Y-18911880D01*
X167292Y-18909695D01*
X179916Y-18909335D01*
X283968Y-18906268D01*
X416519Y-18902380D01*
X563752Y-18898076D01*
X711852Y-18893759D01*
X783166Y-18891686D01*
X1172366Y-18873831D01*
X1564195Y-18843332D01*
X1952437Y-18801174D01*
X2330880Y-18748343D01*
X2693307Y-18685825D01*
X3033505Y-18614604D01*
X3345258Y-18535667D01*
X3622352Y-18449999D01*
X3666963Y-18434336D01*
X4237405Y-18207804D01*
X4794996Y-17942225D01*
X5337566Y-17639517D01*
X5862944Y-17301597D01*
X6368956Y-16930382D01*
X6853433Y-16527791D01*
X7314202Y-16095740D01*
X7749092Y-15636148D01*
X8155932Y-15150931D01*
X8532549Y-14642007D01*
X8876773Y-14111294D01*
X9186431Y-13560710D01*
X9186625Y-13560338D01*
X9368154Y-13195142D01*
X9526734Y-12838642D01*
X9664256Y-12484212D01*
X9782609Y-12125222D01*
X9883682Y-11755045D01*
X9969365Y-11367053D01*
X10041548Y-10954617D01*
X10102120Y-10511110D01*
X10131885Y-10244666D01*
X10142739Y-10112918D01*
X10151881Y-9947674D01*
X10159275Y-9755909D01*
X10164887Y-9544598D01*
X10168682Y-9320716D01*
X10170627Y-9091239D01*
X10170687Y-8863143D01*
X10168826Y-8643402D01*
X10165012Y-8438993D01*
X10159209Y-8256889D01*
X10151382Y-8104068D01*
X10142968Y-8001000D01*
X10062364Y-7413493D01*
X9944026Y-6838163D01*
X9786939Y-6271538D01*
X9590089Y-5710149D01*
X9352460Y-5150525D01*
X9241184Y-4917068D01*
X8970387Y-4400220D01*
X8681140Y-3915521D01*
X8368476Y-3456039D01*
X8027425Y-3014844D01*
X7653020Y-2585003D01*
X7324414Y-2242919D01*
X6880626Y-1822590D01*
X6426602Y-1440032D01*
X5956353Y-1090898D01*
X5463894Y-770840D01*
X4943238Y-475509D01*
X4760987Y-381101D01*
X4178680Y-109284D01*
X3586302Y121696D01*
X2984901Y311656D01*
X2375528Y460413D01*
X1759231Y567784D01*
X1137059Y633585D01*
X510061Y657635D01*
X-120715Y639750D01*
X-751417Y580105D01*
X-1394672Y477381D01*
X-2023434Y335695D01*
X-2636333Y156022D01*
X-3232001Y-60663D01*
X-3809069Y-313383D01*
X-4366170Y-601165D01*
X-4901933Y-923032D01*
X-5414990Y-1278009D01*
X-5903973Y-1665120D01*
X-6367514Y-2083391D01*
X-6804242Y-2531846D01*
X-7212790Y-3009509D01*
X-7591790Y-3515405D01*
X-7939871Y-4048559D01*
X-8255667Y-4607995D01*
X-8381855Y-4857750D01*
X-8645424Y-5444938D01*
X-8869381Y-6043868D01*
X-9053576Y-6652566D01*
X-9197863Y-7269057D01*
X-9302093Y-7891371D01*
X-9366117Y-8517531D01*
X-9389789Y-9145567D01*
X-10079648Y-9145567D01*
X-10082329Y-8890459D01*
X-10047656Y-8265617D01*
X-9971716Y-7645130D01*
X-9935515Y-7429500D01*
X-9799712Y-6792481D01*
X-9623534Y-6164546D01*
X-9408370Y-5547853D01*
X-9155608Y-4944567D01*
X-8866637Y-4356847D01*
X-8542845Y-3786857D01*
X-8185622Y-3236757D01*
X-7796355Y-2708710D01*
X-7376435Y-2204877D01*
X-6927248Y-1727420D01*
X-6450185Y-1278500D01*
X-5946634Y-860280D01*
X-5507537Y-536608D01*
X-5090019Y-263698D01*
X-4638997Y-2327D01*
X-4162627Y243490D01*
X-3669063Y469734D01*
X-3166461Y672388D01*
X-2765849Y814000D01*
X-2134215Y1001109D01*
X-1497150Y1146264D01*
X-855145Y1249427D01*
X-208691Y1310561D01*
X441721Y1329630D01*
X1095600Y1306595D01*
G37*
X1095600Y1306595D02*
X1752454Y1241420D01*
X2130435Y1184993D01*
X2524925Y1110154D01*
X2931040Y1016614D01*
X3341667Y906737D01*
X3749692Y782887D01*
X4148000Y647429D01*
X4529478Y502727D01*
X4887012Y351145D01*
X5213487Y195047D01*
X5386916Y102758D01*
X5579013Y-9271D01*
X5795328Y-144583D01*
X6028666Y-298088D01*
X6271830Y-464693D01*
X6517623Y-639305D01*
X6758851Y-816833D01*
X6988316Y-992184D01*
X7198822Y-1160265D01*
X7344833Y-1282708D01*
X7808135Y-1709218D01*
X8242830Y-2165578D01*
X8647950Y-2649571D01*
X9022529Y-3158983D01*
X9365601Y-3691600D01*
X9676199Y-4245207D01*
X9953356Y-4817589D01*
X10196106Y-5406531D01*
X10403483Y-6009818D01*
X10574520Y-6625237D01*
X10708251Y-7250572D01*
X10803708Y-7883608D01*
X10859926Y-8522130D01*
X10875938Y-9163925D01*
X10872505Y-9366250D01*
X10837634Y-10045532D01*
X10770045Y-10698852D01*
X10668952Y-11328039D01*
X10533571Y-11934922D01*
X10363115Y-12521332D01*
X10156800Y-13089098D01*
X9913840Y-13640049D01*
X9633450Y-14176015D01*
X9314844Y-14698826D01*
X8957237Y-15210311D01*
X8559844Y-15712300D01*
X8121879Y-16206622D01*
X7788249Y-16551559D01*
X7416588Y-16908935D01*
X7048888Y-17233411D01*
X6676186Y-17532400D01*
X6289520Y-17813314D01*
X6138333Y-17916015D01*
X5572212Y-18268957D01*
X4991220Y-18582442D01*
X4396316Y-18856200D01*
X3788458Y-19089960D01*
X3168606Y-19283452D01*
X2537716Y-19436407D01*
X1896749Y-19548555D01*
X1246663Y-19619626D01*
X588417Y-19649350D01*
X10583Y-19641396D01*
X-584762Y-19598219D01*
X-1188885Y-19517794D01*
X-1793569Y-19401644D01*
X-2390597Y-19251293D01*
X-2841562Y-19112628D01*
X-3452770Y-18888434D01*
X-4048144Y-18628796D01*
X-4624980Y-18335449D01*
X-5180575Y-18010128D01*
X-5712225Y-17654568D01*
X-6217226Y-17270504D01*
X-6692874Y-16859672D01*
X-7136465Y-16423807D01*
X-7291917Y-16256552D01*
X-7734678Y-15737516D01*
X-8140107Y-15198566D01*
X-8508092Y-14639919D01*
X-8838518Y-14061792D01*
X-9131273Y-13464399D01*
X-9386244Y-12847958D01*
X-9603317Y-12212685D01*
X-9782379Y-11558796D01*
X-9807793Y-11451166D01*
X-9938468Y-10800008D01*
X-10027763Y-10156765D01*
X-10075708Y-9520545D01*
X-10079648Y-9145567D01*
X-9389789Y-9145567D01*
X-9372959Y-9773503D01*
X-9315481Y-10399368D01*
X-9217205Y-11021188D01*
X-9077985Y-11636988D01*
X-8928807Y-12149666D01*
X-8718370Y-12735583D01*
X-8469507Y-13305828D01*
X-8183701Y-13858845D01*
X-7862436Y-14393079D01*
X-7507196Y-14906972D01*
X-7119465Y-15398969D01*
X-6700727Y-15867514D01*
X-6252466Y-16311049D01*
X-5776166Y-16728020D01*
X-5273310Y-17116870D01*
X-4745384Y-17476042D01*
X-4193871Y-17803980D01*
X-3620254Y-18099128D01*
X-3026019Y-18359931D01*
X-2995084Y-18372324D01*
X-2809085Y-18443317D01*
X-2607316Y-18514790D01*
X-2399513Y-18583685D01*
X-2195414Y-18646943D01*
X-2004755Y-18701504D01*
X-1837273Y-18744310D01*
X-1749995Y-18763474D01*
X-1519806Y-18803533D01*
X-1257832Y-18838503D01*
X-974403Y-18867603D01*
X-679847Y-18890053D01*
X-384493Y-18905072D01*
X-98670Y-18911880D01*
X167292Y-18909695D01*
X179916Y-18909335D01*
X283968Y-18906268D01*
X416519Y-18902380D01*
X563752Y-18898076D01*
X711852Y-18893759D01*
X783166Y-18891686D01*
X1172366Y-18873831D01*
X1564195Y-18843332D01*
X1952437Y-18801174D01*
X2330880Y-18748343D01*
X2693307Y-18685825D01*
X3033505Y-18614604D01*
X3345258Y-18535667D01*
X3622352Y-18449999D01*
X3666963Y-18434336D01*
X4237405Y-18207804D01*
X4794996Y-17942225D01*
X5337566Y-17639517D01*
X5862944Y-17301597D01*
X6368956Y-16930382D01*
X6853433Y-16527791D01*
X7314202Y-16095740D01*
X7749092Y-15636148D01*
X8155932Y-15150931D01*
X8532549Y-14642007D01*
X8876773Y-14111294D01*
X9186431Y-13560710D01*
X9186625Y-13560338D01*
X9368154Y-13195142D01*
X9526734Y-12838642D01*
X9664256Y-12484212D01*
X9782609Y-12125222D01*
X9883682Y-11755045D01*
X9969365Y-11367053D01*
X10041548Y-10954617D01*
X10102120Y-10511110D01*
X10131885Y-10244666D01*
X10142739Y-10112918D01*
X10151881Y-9947674D01*
X10159275Y-9755909D01*
X10164887Y-9544598D01*
X10168682Y-9320716D01*
X10170627Y-9091239D01*
X10170687Y-8863143D01*
X10168826Y-8643402D01*
X10165012Y-8438993D01*
X10159209Y-8256889D01*
X10151382Y-8104068D01*
X10142968Y-8001000D01*
X10062364Y-7413493D01*
X9944026Y-6838163D01*
X9786939Y-6271538D01*
X9590089Y-5710149D01*
X9352460Y-5150525D01*
X9241184Y-4917068D01*
X8970387Y-4400220D01*
X8681140Y-3915521D01*
X8368476Y-3456039D01*
X8027425Y-3014844D01*
X7653020Y-2585003D01*
X7324414Y-2242919D01*
X6880626Y-1822590D01*
X6426602Y-1440032D01*
X5956353Y-1090898D01*
X5463894Y-770840D01*
X4943238Y-475509D01*
X4760987Y-381101D01*
X4178680Y-109284D01*
X3586302Y121696D01*
X2984901Y311656D01*
X2375528Y460413D01*
X1759231Y567784D01*
X1137059Y633585D01*
X510061Y657635D01*
X-120715Y639750D01*
X-751417Y580105D01*
X-1394672Y477381D01*
X-2023434Y335695D01*
X-2636333Y156022D01*
X-3232001Y-60663D01*
X-3809069Y-313383D01*
X-4366170Y-601165D01*
X-4901933Y-923032D01*
X-5414990Y-1278009D01*
X-5903973Y-1665120D01*
X-6367514Y-2083391D01*
X-6804242Y-2531846D01*
X-7212790Y-3009509D01*
X-7591790Y-3515405D01*
X-7939871Y-4048559D01*
X-8255667Y-4607995D01*
X-8381855Y-4857750D01*
X-8645424Y-5444938D01*
X-8869381Y-6043868D01*
X-9053576Y-6652566D01*
X-9197863Y-7269057D01*
X-9302093Y-7891371D01*
X-9366117Y-8517531D01*
X-9389789Y-9145567D01*
X-10079648Y-9145567D01*
X-10082329Y-8890459D01*
X-10047656Y-8265617D01*
X-9971716Y-7645130D01*
X-9935515Y-7429500D01*
X-9799712Y-6792481D01*
X-9623534Y-6164546D01*
X-9408370Y-5547853D01*
X-9155608Y-4944567D01*
X-8866637Y-4356847D01*
X-8542845Y-3786857D01*
X-8185622Y-3236757D01*
X-7796355Y-2708710D01*
X-7376435Y-2204877D01*
X-6927248Y-1727420D01*
X-6450185Y-1278500D01*
X-5946634Y-860280D01*
X-5507537Y-536608D01*
X-5090019Y-263698D01*
X-4638997Y-2327D01*
X-4162627Y243490D01*
X-3669063Y469734D01*
X-3166461Y672388D01*
X-2765849Y814000D01*
X-2134215Y1001109D01*
X-1497150Y1146264D01*
X-855145Y1249427D01*
X-208691Y1310561D01*
X441721Y1329630D01*
X1095600Y1306595D01*
G36*
X-7606955Y-17115872D02*
G01*
X-7625972Y-17155684D01*
X-7674661Y-17222394D01*
X-7753274Y-17316294D01*
X-7862066Y-17437677D01*
X-8001291Y-17586834D01*
X-8171202Y-17764058D01*
X-8360200Y-17957594D01*
X-8571321Y-18170416D01*
X-8755691Y-18352390D01*
X-8913153Y-18503377D01*
X-9043551Y-18623237D01*
X-9146728Y-18711833D01*
X-9222527Y-18769025D01*
X-9270792Y-18794676D01*
X-9291367Y-18788646D01*
X-9292167Y-18782481D01*
X-9277057Y-18751492D01*
X-9232666Y-18692879D01*
X-9160404Y-18608176D01*
X-9061681Y-18498918D01*
X-8937907Y-18366638D01*
X-8790492Y-18212870D01*
X-8620846Y-18039150D01*
X-8456179Y-17872886D01*
X-8264497Y-17681467D01*
X-8100332Y-17519741D01*
X-7962318Y-17386454D01*
X-7849088Y-17280351D01*
X-7759276Y-17200177D01*
X-7691516Y-17144677D01*
X-7644439Y-17112596D01*
X-7617355Y-17102666D01*
X-7606955Y-17115872D01*
G37*
X-7606955Y-17115872D02*
X-7625972Y-17155684D01*
X-7674661Y-17222394D01*
X-7753274Y-17316294D01*
X-7862066Y-17437677D01*
X-8001291Y-17586834D01*
X-8171202Y-17764058D01*
X-8360200Y-17957594D01*
X-8571321Y-18170416D01*
X-8755691Y-18352390D01*
X-8913153Y-18503377D01*
X-9043551Y-18623237D01*
X-9146728Y-18711833D01*
X-9222527Y-18769025D01*
X-9270792Y-18794676D01*
X-9291367Y-18788646D01*
X-9292167Y-18782481D01*
X-9277057Y-18751492D01*
X-9232666Y-18692879D01*
X-9160404Y-18608176D01*
X-9061681Y-18498918D01*
X-8937907Y-18366638D01*
X-8790492Y-18212870D01*
X-8620846Y-18039150D01*
X-8456179Y-17872886D01*
X-8264497Y-17681467D01*
X-8100332Y-17519741D01*
X-7962318Y-17386454D01*
X-7849088Y-17280351D01*
X-7759276Y-17200177D01*
X-7691516Y-17144677D01*
X-7644439Y-17112596D01*
X-7617355Y-17102666D01*
X-7606955Y-17115872D01*
G36*
X8482097Y-17047517D02*
G01*
X8529732Y-17087588D01*
X8606379Y-17156350D01*
X8712301Y-17254038D01*
X8847766Y-17380886D01*
X9013038Y-17537129D01*
X9073756Y-17594791D01*
X9212945Y-17727031D01*
X9349511Y-17856641D01*
X9478733Y-17979152D01*
X9595893Y-18090095D01*
X9696272Y-18185001D01*
X9775149Y-18259402D01*
X9825548Y-18306718D01*
X9919830Y-18397997D01*
X10009569Y-18490678D01*
X10089740Y-18578971D01*
X10155320Y-18657083D01*
X10201283Y-18719224D01*
X10222606Y-18759602D01*
X10223500Y-18765454D01*
X10217555Y-18788792D01*
X10198206Y-18793022D01*
X10163176Y-18776328D01*
X10110191Y-18736895D01*
X10036975Y-18672908D01*
X9941252Y-18582552D01*
X9820748Y-18464013D01*
X9724473Y-18367375D01*
X9609834Y-18250949D01*
X9481643Y-18119579D01*
X9344546Y-17978128D01*
X9203188Y-17831457D01*
X9062217Y-17684429D01*
X8926279Y-17541905D01*
X8800019Y-17408747D01*
X8688085Y-17289819D01*
X8595122Y-17189981D01*
X8525776Y-17114096D01*
X8510602Y-17097100D01*
X8472797Y-17052508D01*
X8463207Y-17035901D01*
X8482097Y-17047517D01*
G37*
X8482097Y-17047517D02*
X8529732Y-17087588D01*
X8606379Y-17156350D01*
X8712301Y-17254038D01*
X8847766Y-17380886D01*
X9013038Y-17537129D01*
X9073756Y-17594791D01*
X9212945Y-17727031D01*
X9349511Y-17856641D01*
X9478733Y-17979152D01*
X9595893Y-18090095D01*
X9696272Y-18185001D01*
X9775149Y-18259402D01*
X9825548Y-18306718D01*
X9919830Y-18397997D01*
X10009569Y-18490678D01*
X10089740Y-18578971D01*
X10155320Y-18657083D01*
X10201283Y-18719224D01*
X10222606Y-18759602D01*
X10223500Y-18765454D01*
X10217555Y-18788792D01*
X10198206Y-18793022D01*
X10163176Y-18776328D01*
X10110191Y-18736895D01*
X10036975Y-18672908D01*
X9941252Y-18582552D01*
X9820748Y-18464013D01*
X9724473Y-18367375D01*
X9609834Y-18250949D01*
X9481643Y-18119579D01*
X9344546Y-17978128D01*
X9203188Y-17831457D01*
X9062217Y-17684429D01*
X8926279Y-17541905D01*
X8800019Y-17408747D01*
X8688085Y-17289819D01*
X8595122Y-17189981D01*
X8525776Y-17114096D01*
X8510602Y-17097100D01*
X8472797Y-17052508D01*
X8463207Y-17035901D01*
X8482097Y-17047517D01*
G36*
X6949729Y4031466D02*
G01*
X7050955Y3991849D01*
X7130517Y3924077D01*
X7181316Y3836255D01*
X7196587Y3749734D01*
X7201748Y3709792D01*
X7220830Y3668583D01*
X7259377Y3617555D01*
X7322930Y3548157D01*
X7336152Y3534402D01*
X7435577Y3438366D01*
X7563102Y3326118D01*
X7714028Y3201015D01*
X7883660Y3066416D01*
X8067299Y2925676D01*
X8260250Y2782153D01*
X8457813Y2639204D01*
X8655294Y2500186D01*
X8847993Y2368456D01*
X9031215Y2247371D01*
X9200261Y2140287D01*
X9350436Y2050563D01*
X9477042Y1981555D01*
X9567333Y1939782D01*
X9654155Y1903436D01*
X9734671Y1865668D01*
X9816717Y1822022D01*
X9908127Y1768042D01*
X10016734Y1699274D01*
X10150373Y1611262D01*
X10181166Y1590709D01*
X10453550Y1404599D01*
X10694872Y1231340D01*
X10903907Y1071925D01*
X11079432Y927352D01*
X11220225Y798614D01*
X11325061Y686709D01*
X11377427Y617367D01*
X11412789Y558746D01*
X11425630Y517642D01*
X11419780Y478439D01*
X11414906Y464592D01*
X11402735Y378700D01*
X11411933Y312892D01*
X11439910Y223523D01*
X11489881Y104201D01*
X11559323Y-40517D01*
X11645714Y-206073D01*
X11746530Y-387909D01*
X11859249Y-581467D01*
X11981347Y-782189D01*
X12110303Y-985517D01*
X12235383Y-1174750D01*
X12412374Y-1431233D01*
X12576121Y-1656814D01*
X12725770Y-1850524D01*
X12860467Y-2011395D01*
X12979359Y-2138461D01*
X13081593Y-2230753D01*
X13166315Y-2287305D01*
X13232671Y-2307148D01*
X13234423Y-2307166D01*
X13292319Y-2326746D01*
X13345044Y-2379164D01*
X13388409Y-2454936D01*
X13418227Y-2544576D01*
X13430308Y-2638602D01*
X13420465Y-2727529D01*
X13420312Y-2728099D01*
X13376571Y-2816989D01*
X13301055Y-2896363D01*
X13204322Y-2956398D01*
X13154832Y-2975051D01*
X13053620Y-2999099D01*
X12969093Y-3001311D01*
X12881626Y-2981609D01*
X12858750Y-2973871D01*
X12782564Y-2935266D01*
X12715667Y-2880575D01*
X12663210Y-2817560D01*
X12630341Y-2753981D01*
X12622211Y-2697602D01*
X12643970Y-2656184D01*
X12646616Y-2654140D01*
X12672162Y-2620991D01*
X12673218Y-2598231D01*
X12645183Y-2550380D01*
X12587354Y-2474404D01*
X12500639Y-2371323D01*
X12385945Y-2242161D01*
X12244181Y-2087937D01*
X12076254Y-1909674D01*
X11883071Y-1708392D01*
X11873472Y-1698471D01*
X11335485Y-1142693D01*
X10964701Y-1508965D01*
X10750835Y-1719862D01*
X10564450Y-1902585D01*
X10403204Y-2059007D01*
X10264754Y-2191000D01*
X10146757Y-2300437D01*
X10046873Y-2389188D01*
X9962759Y-2459127D01*
X9892072Y-2512125D01*
X9832470Y-2550055D01*
X9781612Y-2574788D01*
X9737155Y-2588196D01*
X9696757Y-2592152D01*
X9658075Y-2588528D01*
X9623921Y-2580646D01*
X9571805Y-2553699D01*
X9505054Y-2502220D01*
X9433197Y-2435767D01*
X9365762Y-2363902D01*
X9312277Y-2296184D01*
X9282272Y-2242176D01*
X9280422Y-2235993D01*
X9272770Y-2190805D01*
X9274030Y-2144462D01*
X9286259Y-2094260D01*
X9311513Y-2037497D01*
X9351847Y-1971469D01*
X9409319Y-1893472D01*
X9485984Y-1800805D01*
X9583898Y-1690762D01*
X9705118Y-1560642D01*
X9851700Y-1407741D01*
X10025700Y-1229355D01*
X10115897Y-1137606D01*
X10720916Y-523284D01*
X10498666Y-313171D01*
X10396028Y-216455D01*
X10282384Y-109879D01*
X10171789Y-6598D01*
X10080995Y77738D01*
X9885574Y258533D01*
X9393078Y-217347D01*
X9187971Y-414271D01*
X9009708Y-582578D01*
X8855941Y-724307D01*
X8724319Y-841498D01*
X8612495Y-936192D01*
X8518120Y-1010427D01*
X8438845Y-1066245D01*
X8372320Y-1105685D01*
X8367176Y-1108349D01*
X8312824Y-1134503D01*
X8285958Y-1139578D01*
X8276971Y-1122900D01*
X8276166Y-1101969D01*
X8289336Y-1059577D01*
X8329287Y-993865D01*
X8396681Y-904059D01*
X8492182Y-789383D01*
X8616453Y-649062D01*
X8770155Y-482322D01*
X8953953Y-288387D01*
X9112284Y-124278D01*
X9240198Y7794D01*
X9358388Y130456D01*
X9463700Y240388D01*
X9552981Y334269D01*
X9623077Y408779D01*
X9670833Y460596D01*
X9693095Y486399D01*
X9694333Y488545D01*
X9679590Y506410D01*
X9638448Y548533D01*
X9575538Y610376D01*
X9495489Y687400D01*
X9402932Y775064D01*
X9382125Y794603D01*
X9279374Y891014D01*
X9180231Y984179D01*
X9091459Y1067730D01*
X9019820Y1135303D01*
X8972078Y1180532D01*
X8970903Y1181652D01*
X8871889Y1275982D01*
X8344575Y757918D01*
X8147089Y564895D01*
X7976200Y400343D01*
X7829233Y262149D01*
X7703514Y148199D01*
X7596370Y56382D01*
X7505124Y-15416D01*
X7427105Y-69308D01*
X7359637Y-107405D01*
X7300045Y-131821D01*
X7245657Y-144668D01*
X7197802Y-148087D01*
X7115016Y-132150D01*
X7026914Y-90173D01*
X6945145Y-30668D01*
X6881356Y37853D01*
X6847196Y106881D01*
X6846867Y108336D01*
X6842710Y142829D01*
X6846733Y179607D01*
X6861110Y221345D01*
X6888014Y270719D01*
X6929621Y330404D01*
X6988105Y403074D01*
X7065640Y491405D01*
X7164402Y598071D01*
X7286564Y725749D01*
X7434301Y877113D01*
X7609788Y1054837D01*
X7645703Y1091056D01*
X7786532Y1233362D01*
X7917780Y1366678D01*
X8036509Y1487971D01*
X8139781Y1594207D01*
X8224660Y1682354D01*
X8288208Y1749377D01*
X8327488Y1792244D01*
X8339666Y1807725D01*
X8325296Y1828436D01*
X8285089Y1874374D01*
X8223402Y1941094D01*
X8144591Y2024151D01*
X8053012Y2119099D01*
X7953023Y2221493D01*
X7848978Y2326887D01*
X7745235Y2430835D01*
X7646149Y2528892D01*
X7556078Y2616613D01*
X7479377Y2689552D01*
X7440083Y2725730D01*
X7243159Y2896298D01*
X7062123Y3036840D01*
X6889565Y3152675D01*
X6718076Y3249123D01*
X6694570Y3260965D01*
X6568610Y3327741D01*
X6478205Y3386797D01*
X6418491Y3443006D01*
X6384607Y3501243D01*
X6371690Y3566384D01*
X6371166Y3585205D01*
X6390714Y3678515D01*
X6443994Y3772444D01*
X6522955Y3860783D01*
X6619551Y3937325D01*
X6725732Y3995861D01*
X6833450Y4030183D01*
X6934657Y4034084D01*
X6949729Y4031466D01*
G37*
X6949729Y4031466D02*
X7050955Y3991849D01*
X7130517Y3924077D01*
X7181316Y3836255D01*
X7196587Y3749734D01*
X7201748Y3709792D01*
X7220830Y3668583D01*
X7259377Y3617555D01*
X7322930Y3548157D01*
X7336152Y3534402D01*
X7435577Y3438366D01*
X7563102Y3326118D01*
X7714028Y3201015D01*
X7883660Y3066416D01*
X8067299Y2925676D01*
X8260250Y2782153D01*
X8457813Y2639204D01*
X8655294Y2500186D01*
X8847993Y2368456D01*
X9031215Y2247371D01*
X9200261Y2140287D01*
X9350436Y2050563D01*
X9477042Y1981555D01*
X9567333Y1939782D01*
X9654155Y1903436D01*
X9734671Y1865668D01*
X9816717Y1822022D01*
X9908127Y1768042D01*
X10016734Y1699274D01*
X10150373Y1611262D01*
X10181166Y1590709D01*
X10453550Y1404599D01*
X10694872Y1231340D01*
X10903907Y1071925D01*
X11079432Y927352D01*
X11220225Y798614D01*
X11325061Y686709D01*
X11377427Y617367D01*
X11412789Y558746D01*
X11425630Y517642D01*
X11419780Y478439D01*
X11414906Y464592D01*
X11402735Y378700D01*
X11411933Y312892D01*
X11439910Y223523D01*
X11489881Y104201D01*
X11559323Y-40517D01*
X11645714Y-206073D01*
X11746530Y-387909D01*
X11859249Y-581467D01*
X11981347Y-782189D01*
X12110303Y-985517D01*
X12235383Y-1174750D01*
X12412374Y-1431233D01*
X12576121Y-1656814D01*
X12725770Y-1850524D01*
X12860467Y-2011395D01*
X12979359Y-2138461D01*
X13081593Y-2230753D01*
X13166315Y-2287305D01*
X13232671Y-2307148D01*
X13234423Y-2307166D01*
X13292319Y-2326746D01*
X13345044Y-2379164D01*
X13388409Y-2454936D01*
X13418227Y-2544576D01*
X13430308Y-2638602D01*
X13420465Y-2727529D01*
X13420312Y-2728099D01*
X13376571Y-2816989D01*
X13301055Y-2896363D01*
X13204322Y-2956398D01*
X13154832Y-2975051D01*
X13053620Y-2999099D01*
X12969093Y-3001311D01*
X12881626Y-2981609D01*
X12858750Y-2973871D01*
X12782564Y-2935266D01*
X12715667Y-2880575D01*
X12663210Y-2817560D01*
X12630341Y-2753981D01*
X12622211Y-2697602D01*
X12643970Y-2656184D01*
X12646616Y-2654140D01*
X12672162Y-2620991D01*
X12673218Y-2598231D01*
X12645183Y-2550380D01*
X12587354Y-2474404D01*
X12500639Y-2371323D01*
X12385945Y-2242161D01*
X12244181Y-2087937D01*
X12076254Y-1909674D01*
X11883071Y-1708392D01*
X11873472Y-1698471D01*
X11335485Y-1142693D01*
X10964701Y-1508965D01*
X10750835Y-1719862D01*
X10564450Y-1902585D01*
X10403204Y-2059007D01*
X10264754Y-2191000D01*
X10146757Y-2300437D01*
X10046873Y-2389188D01*
X9962759Y-2459127D01*
X9892072Y-2512125D01*
X9832470Y-2550055D01*
X9781612Y-2574788D01*
X9737155Y-2588196D01*
X9696757Y-2592152D01*
X9658075Y-2588528D01*
X9623921Y-2580646D01*
X9571805Y-2553699D01*
X9505054Y-2502220D01*
X9433197Y-2435767D01*
X9365762Y-2363902D01*
X9312277Y-2296184D01*
X9282272Y-2242176D01*
X9280422Y-2235993D01*
X9272770Y-2190805D01*
X9274030Y-2144462D01*
X9286259Y-2094260D01*
X9311513Y-2037497D01*
X9351847Y-1971469D01*
X9409319Y-1893472D01*
X9485984Y-1800805D01*
X9583898Y-1690762D01*
X9705118Y-1560642D01*
X9851700Y-1407741D01*
X10025700Y-1229355D01*
X10115897Y-1137606D01*
X10720916Y-523284D01*
X10498666Y-313171D01*
X10396028Y-216455D01*
X10282384Y-109879D01*
X10171789Y-6598D01*
X10080995Y77738D01*
X9885574Y258533D01*
X9393078Y-217347D01*
X9187971Y-414271D01*
X9009708Y-582578D01*
X8855941Y-724307D01*
X8724319Y-841498D01*
X8612495Y-936192D01*
X8518120Y-1010427D01*
X8438845Y-1066245D01*
X8372320Y-1105685D01*
X8367176Y-1108349D01*
X8312824Y-1134503D01*
X8285958Y-1139578D01*
X8276971Y-1122900D01*
X8276166Y-1101969D01*
X8289336Y-1059577D01*
X8329287Y-993865D01*
X8396681Y-904059D01*
X8492182Y-789383D01*
X8616453Y-649062D01*
X8770155Y-482322D01*
X8953953Y-288387D01*
X9112284Y-124278D01*
X9240198Y7794D01*
X9358388Y130456D01*
X9463700Y240388D01*
X9552981Y334269D01*
X9623077Y408779D01*
X9670833Y460596D01*
X9693095Y486399D01*
X9694333Y488545D01*
X9679590Y506410D01*
X9638448Y548533D01*
X9575538Y610376D01*
X9495489Y687400D01*
X9402932Y775064D01*
X9382125Y794603D01*
X9279374Y891014D01*
X9180231Y984179D01*
X9091459Y1067730D01*
X9019820Y1135303D01*
X8972078Y1180532D01*
X8970903Y1181652D01*
X8871889Y1275982D01*
X8344575Y757918D01*
X8147089Y564895D01*
X7976200Y400343D01*
X7829233Y262149D01*
X7703514Y148199D01*
X7596370Y56382D01*
X7505124Y-15416D01*
X7427105Y-69308D01*
X7359637Y-107405D01*
X7300045Y-131821D01*
X7245657Y-144668D01*
X7197802Y-148087D01*
X7115016Y-132150D01*
X7026914Y-90173D01*
X6945145Y-30668D01*
X6881356Y37853D01*
X6847196Y106881D01*
X6846867Y108336D01*
X6842710Y142829D01*
X6846733Y179607D01*
X6861110Y221345D01*
X6888014Y270719D01*
X6929621Y330404D01*
X6988105Y403074D01*
X7065640Y491405D01*
X7164402Y598071D01*
X7286564Y725749D01*
X7434301Y877113D01*
X7609788Y1054837D01*
X7645703Y1091056D01*
X7786532Y1233362D01*
X7917780Y1366678D01*
X8036509Y1487971D01*
X8139781Y1594207D01*
X8224660Y1682354D01*
X8288208Y1749377D01*
X8327488Y1792244D01*
X8339666Y1807725D01*
X8325296Y1828436D01*
X8285089Y1874374D01*
X8223402Y1941094D01*
X8144591Y2024151D01*
X8053012Y2119099D01*
X7953023Y2221493D01*
X7848978Y2326887D01*
X7745235Y2430835D01*
X7646149Y2528892D01*
X7556078Y2616613D01*
X7479377Y2689552D01*
X7440083Y2725730D01*
X7243159Y2896298D01*
X7062123Y3036840D01*
X6889565Y3152675D01*
X6718076Y3249123D01*
X6694570Y3260965D01*
X6568610Y3327741D01*
X6478205Y3386797D01*
X6418491Y3443006D01*
X6384607Y3501243D01*
X6371690Y3566384D01*
X6371166Y3585205D01*
X6390714Y3678515D01*
X6443994Y3772444D01*
X6522955Y3860783D01*
X6619551Y3937325D01*
X6725732Y3995861D01*
X6833450Y4030183D01*
X6934657Y4034084D01*
X6949729Y4031466D01*
G36*
X-5733991Y3990421D02*
G01*
X-5676677Y3957859D01*
X-5630219Y3893409D01*
X-5623003Y3879843D01*
X-5599277Y3804620D01*
X-5589010Y3709118D01*
X-5593095Y3613483D01*
X-5608322Y3547640D01*
X-5655096Y3472100D01*
X-5737141Y3391721D01*
X-5848547Y3311485D01*
X-5969399Y3243324D01*
X-6080616Y3183488D01*
X-6190132Y3115780D01*
X-6302277Y3036646D01*
X-6421380Y2942531D01*
X-6551771Y2829881D01*
X-6697780Y2695142D01*
X-6863735Y2534759D01*
X-7012048Y2387329D01*
X-7494178Y1903565D01*
X-6819092Y1207406D01*
X-6630374Y1011868D01*
X-6470001Y843481D01*
X-6335987Y699867D01*
X-6226344Y578646D01*
X-6139086Y477440D01*
X-6072224Y393870D01*
X-6023773Y325557D01*
X-5991745Y270122D01*
X-5974153Y225187D01*
X-5969000Y189713D01*
X-5988757Y118738D01*
X-6048450Y41076D01*
X-6148712Y-44005D01*
X-6205177Y-83537D01*
X-6285458Y-132825D01*
X-6348806Y-159428D01*
X-6409769Y-168958D01*
X-6427547Y-169333D01*
X-6476803Y-166206D01*
X-6526953Y-155349D01*
X-6580779Y-134553D01*
X-6641066Y-101606D01*
X-6710596Y-54297D01*
X-6792153Y9586D01*
X-6888520Y92253D01*
X-7002481Y195916D01*
X-7136818Y322786D01*
X-7294315Y475075D01*
X-7477756Y654992D01*
X-7529836Y706364D01*
X-8106422Y1275628D01*
X-8387086Y1011833D01*
X-8489198Y915908D01*
X-8591958Y819459D01*
X-8686811Y730511D01*
X-8765205Y657084D01*
X-8804781Y620082D01*
X-8941811Y492124D01*
X-8411060Y-55563D01*
X-8248085Y-223969D01*
X-8111587Y-365635D01*
X-7998385Y-484029D01*
X-7905298Y-582617D01*
X-7829143Y-664867D01*
X-7766741Y-734245D01*
X-7714908Y-794219D01*
X-7670464Y-848255D01*
X-7630226Y-899820D01*
X-7602944Y-936187D01*
X-7543585Y-1020860D01*
X-7511228Y-1079255D01*
X-7503863Y-1115918D01*
X-7515725Y-1133379D01*
X-7552155Y-1132023D01*
X-7615332Y-1101532D01*
X-7703056Y-1043662D01*
X-7813128Y-960169D01*
X-7943349Y-852808D01*
X-8091520Y-723335D01*
X-8255440Y-573507D01*
X-8432911Y-405078D01*
X-8456084Y-382663D01*
X-8567035Y-275118D01*
X-8679232Y-166371D01*
X-8785110Y-63751D01*
X-8877106Y25410D01*
X-8947656Y93781D01*
X-8957665Y103480D01*
X-9120579Y261349D01*
X-9388894Y8967D01*
X-9490867Y-86836D01*
X-9595344Y-184789D01*
X-9692906Y-276076D01*
X-9774135Y-351880D01*
X-9807721Y-383115D01*
X-9958234Y-522813D01*
X-9429266Y-1060448D01*
X-9223701Y-1271593D01*
X-9048216Y-1457277D01*
X-8901228Y-1620139D01*
X-8781153Y-1762817D01*
X-8686411Y-1887951D01*
X-8615417Y-1998178D01*
X-8566589Y-2096138D01*
X-8538345Y-2184470D01*
X-8529101Y-2265812D01*
X-8537276Y-2342803D01*
X-8561286Y-2418083D01*
X-8585008Y-2468055D01*
X-8636491Y-2557714D01*
X-8679628Y-2613223D01*
X-8719904Y-2640448D01*
X-8751211Y-2645833D01*
X-8783570Y-2636926D01*
X-8832056Y-2609263D01*
X-8898294Y-2561424D01*
X-8983909Y-2491995D01*
X-9090527Y-2399557D01*
X-9219774Y-2282695D01*
X-9373275Y-2139990D01*
X-9552656Y-1970027D01*
X-9759543Y-1771388D01*
X-9806544Y-1725986D01*
X-10475786Y-1078926D01*
X-10950774Y-1550171D01*
X-11151591Y-1752789D01*
X-11321990Y-1932402D01*
X-11464708Y-2092330D01*
X-11582481Y-2235892D01*
X-11678044Y-2366408D01*
X-11754133Y-2487198D01*
X-11808644Y-2591226D01*
X-11892251Y-2737036D01*
X-11988409Y-2850890D01*
X-12093552Y-2930906D01*
X-12204117Y-2975205D01*
X-12316540Y-2981906D01*
X-12427257Y-2949127D01*
X-12456584Y-2933151D01*
X-12542959Y-2864508D01*
X-12594108Y-2786035D01*
X-12606896Y-2703075D01*
X-12603735Y-2682276D01*
X-12586628Y-2624799D01*
X-12557817Y-2564759D01*
X-12513717Y-2497461D01*
X-12450739Y-2418208D01*
X-12365298Y-2322302D01*
X-12253807Y-2205048D01*
X-12187728Y-2137512D01*
X-11855898Y-1775565D01*
X-11535537Y-1375687D01*
X-11229170Y-941325D01*
X-10939322Y-475925D01*
X-10830747Y-285750D01*
X-10738853Y-114512D01*
X-10670047Y29287D01*
X-10622029Y152082D01*
X-10592497Y260311D01*
X-10579149Y360407D01*
X-10577987Y421007D01*
X-10576178Y524318D01*
X-10561558Y602245D01*
X-10528145Y669483D01*
X-10469954Y740729D01*
X-10431643Y780486D01*
X-10374710Y835137D01*
X-10307740Y893823D01*
X-10228598Y957971D01*
X-10135149Y1029012D01*
X-10025258Y1108374D01*
X-9896789Y1197488D01*
X-9747606Y1297781D01*
X-9575575Y1410684D01*
X-9378559Y1537625D01*
X-9154423Y1680034D01*
X-8901032Y1839340D01*
X-8616250Y2016972D01*
X-8297943Y2214360D01*
X-8184204Y2284680D01*
X-7883228Y2474369D01*
X-7614842Y2651931D01*
X-7372789Y2822058D01*
X-7150811Y2989441D01*
X-6942650Y3158774D01*
X-6742049Y3334748D01*
X-6573382Y3492500D01*
X-6421390Y3636252D01*
X-6293646Y3751439D01*
X-6185971Y3840861D01*
X-6094184Y3907320D01*
X-6014103Y3953617D01*
X-5941549Y3982553D01*
X-5872340Y3996929D01*
X-5816222Y3999827D01*
X-5733991Y3990421D01*
G37*
X-5733991Y3990421D02*
X-5676677Y3957859D01*
X-5630219Y3893409D01*
X-5623003Y3879843D01*
X-5599277Y3804620D01*
X-5589010Y3709118D01*
X-5593095Y3613483D01*
X-5608322Y3547640D01*
X-5655096Y3472100D01*
X-5737141Y3391721D01*
X-5848547Y3311485D01*
X-5969399Y3243324D01*
X-6080616Y3183488D01*
X-6190132Y3115780D01*
X-6302277Y3036646D01*
X-6421380Y2942531D01*
X-6551771Y2829881D01*
X-6697780Y2695142D01*
X-6863735Y2534759D01*
X-7012048Y2387329D01*
X-7494178Y1903565D01*
X-6819092Y1207406D01*
X-6630374Y1011868D01*
X-6470001Y843481D01*
X-6335987Y699867D01*
X-6226344Y578646D01*
X-6139086Y477440D01*
X-6072224Y393870D01*
X-6023773Y325557D01*
X-5991745Y270122D01*
X-5974153Y225187D01*
X-5969000Y189713D01*
X-5988757Y118738D01*
X-6048450Y41076D01*
X-6148712Y-44005D01*
X-6205177Y-83537D01*
X-6285458Y-132825D01*
X-6348806Y-159428D01*
X-6409769Y-168958D01*
X-6427547Y-169333D01*
X-6476803Y-166206D01*
X-6526953Y-155349D01*
X-6580779Y-134553D01*
X-6641066Y-101606D01*
X-6710596Y-54297D01*
X-6792153Y9586D01*
X-6888520Y92253D01*
X-7002481Y195916D01*
X-7136818Y322786D01*
X-7294315Y475075D01*
X-7477756Y654992D01*
X-7529836Y706364D01*
X-8106422Y1275628D01*
X-8387086Y1011833D01*
X-8489198Y915908D01*
X-8591958Y819459D01*
X-8686811Y730511D01*
X-8765205Y657084D01*
X-8804781Y620082D01*
X-8941811Y492124D01*
X-8411060Y-55563D01*
X-8248085Y-223969D01*
X-8111587Y-365635D01*
X-7998385Y-484029D01*
X-7905298Y-582617D01*
X-7829143Y-664867D01*
X-7766741Y-734245D01*
X-7714908Y-794219D01*
X-7670464Y-848255D01*
X-7630226Y-899820D01*
X-7602944Y-936187D01*
X-7543585Y-1020860D01*
X-7511228Y-1079255D01*
X-7503863Y-1115918D01*
X-7515725Y-1133379D01*
X-7552155Y-1132023D01*
X-7615332Y-1101532D01*
X-7703056Y-1043662D01*
X-7813128Y-960169D01*
X-7943349Y-852808D01*
X-8091520Y-723335D01*
X-8255440Y-573507D01*
X-8432911Y-405078D01*
X-8456084Y-382663D01*
X-8567035Y-275118D01*
X-8679232Y-166371D01*
X-8785110Y-63751D01*
X-8877106Y25410D01*
X-8947656Y93781D01*
X-8957665Y103480D01*
X-9120579Y261349D01*
X-9388894Y8967D01*
X-9490867Y-86836D01*
X-9595344Y-184789D01*
X-9692906Y-276076D01*
X-9774135Y-351880D01*
X-9807721Y-383115D01*
X-9958234Y-522813D01*
X-9429266Y-1060448D01*
X-9223701Y-1271593D01*
X-9048216Y-1457277D01*
X-8901228Y-1620139D01*
X-8781153Y-1762817D01*
X-8686411Y-1887951D01*
X-8615417Y-1998178D01*
X-8566589Y-2096138D01*
X-8538345Y-2184470D01*
X-8529101Y-2265812D01*
X-8537276Y-2342803D01*
X-8561286Y-2418083D01*
X-8585008Y-2468055D01*
X-8636491Y-2557714D01*
X-8679628Y-2613223D01*
X-8719904Y-2640448D01*
X-8751211Y-2645833D01*
X-8783570Y-2636926D01*
X-8832056Y-2609263D01*
X-8898294Y-2561424D01*
X-8983909Y-2491995D01*
X-9090527Y-2399557D01*
X-9219774Y-2282695D01*
X-9373275Y-2139990D01*
X-9552656Y-1970027D01*
X-9759543Y-1771388D01*
X-9806544Y-1725986D01*
X-10475786Y-1078926D01*
X-10950774Y-1550171D01*
X-11151591Y-1752789D01*
X-11321990Y-1932402D01*
X-11464708Y-2092330D01*
X-11582481Y-2235892D01*
X-11678044Y-2366408D01*
X-11754133Y-2487198D01*
X-11808644Y-2591226D01*
X-11892251Y-2737036D01*
X-11988409Y-2850890D01*
X-12093552Y-2930906D01*
X-12204117Y-2975205D01*
X-12316540Y-2981906D01*
X-12427257Y-2949127D01*
X-12456584Y-2933151D01*
X-12542959Y-2864508D01*
X-12594108Y-2786035D01*
X-12606896Y-2703075D01*
X-12603735Y-2682276D01*
X-12586628Y-2624799D01*
X-12557817Y-2564759D01*
X-12513717Y-2497461D01*
X-12450739Y-2418208D01*
X-12365298Y-2322302D01*
X-12253807Y-2205048D01*
X-12187728Y-2137512D01*
X-11855898Y-1775565D01*
X-11535537Y-1375687D01*
X-11229170Y-941325D01*
X-10939322Y-475925D01*
X-10830747Y-285750D01*
X-10738853Y-114512D01*
X-10670047Y29287D01*
X-10622029Y152082D01*
X-10592497Y260311D01*
X-10579149Y360407D01*
X-10577987Y421007D01*
X-10576178Y524318D01*
X-10561558Y602245D01*
X-10528145Y669483D01*
X-10469954Y740729D01*
X-10431643Y780486D01*
X-10374710Y835137D01*
X-10307740Y893823D01*
X-10228598Y957971D01*
X-10135149Y1029012D01*
X-10025258Y1108374D01*
X-9896789Y1197488D01*
X-9747606Y1297781D01*
X-9575575Y1410684D01*
X-9378559Y1537625D01*
X-9154423Y1680034D01*
X-8901032Y1839340D01*
X-8616250Y2016972D01*
X-8297943Y2214360D01*
X-8184204Y2284680D01*
X-7883228Y2474369D01*
X-7614842Y2651931D01*
X-7372789Y2822058D01*
X-7150811Y2989441D01*
X-6942650Y3158774D01*
X-6742049Y3334748D01*
X-6573382Y3492500D01*
X-6421390Y3636252D01*
X-6293646Y3751439D01*
X-6185971Y3840861D01*
X-6094184Y3907320D01*
X-6014103Y3953617D01*
X-5941549Y3982553D01*
X-5872340Y3996929D01*
X-5816222Y3999827D01*
X-5733991Y3990421D01*
G36*
X-9862073Y2668197D02*
G01*
X-9784200Y2627099D01*
X-9697592Y2553596D01*
X-9672729Y2528974D01*
X-9612741Y2465447D01*
X-9577916Y2418671D01*
X-9561745Y2377314D01*
X-9557714Y2330040D01*
X-9557713Y2328768D01*
X-9561691Y2288678D01*
X-9575465Y2248077D01*
X-9601795Y2204630D01*
X-9643442Y2155997D01*
X-9703165Y2099841D01*
X-9783724Y2033825D01*
X-9887879Y1955610D01*
X-10018391Y1862858D01*
X-10178018Y1753233D01*
X-10369522Y1624396D01*
X-10462430Y1562458D01*
X-10648607Y1439777D01*
X-10804287Y1340471D01*
X-10933261Y1263091D01*
X-11039324Y1206187D01*
X-11126267Y1168309D01*
X-11197882Y1148007D01*
X-11257964Y1143833D01*
X-11310304Y1154335D01*
X-11358696Y1178065D01*
X-11396760Y1205316D01*
X-11506548Y1306953D01*
X-11580748Y1407958D01*
X-11616974Y1504742D01*
X-11620295Y1541256D01*
X-11617286Y1592312D01*
X-11603523Y1633627D01*
X-11572301Y1677418D01*
X-11516920Y1735902D01*
X-11509375Y1743448D01*
X-11465685Y1785620D01*
X-11419664Y1826412D01*
X-11366589Y1869216D01*
X-11301735Y1917425D01*
X-11220375Y1974432D01*
X-11117784Y2043629D01*
X-10989237Y2128409D01*
X-10830009Y2232165D01*
X-10816167Y2241151D01*
X-10613893Y2369143D01*
X-10433086Y2476804D01*
X-10276472Y2562658D01*
X-10146777Y2625225D01*
X-10046728Y2663028D01*
X-10029206Y2667814D01*
X-9940609Y2680548D01*
X-9862073Y2668197D01*
G37*
X-9862073Y2668197D02*
X-9784200Y2627099D01*
X-9697592Y2553596D01*
X-9672729Y2528974D01*
X-9612741Y2465447D01*
X-9577916Y2418671D01*
X-9561745Y2377314D01*
X-9557714Y2330040D01*
X-9557713Y2328768D01*
X-9561691Y2288678D01*
X-9575465Y2248077D01*
X-9601795Y2204630D01*
X-9643442Y2155997D01*
X-9703165Y2099841D01*
X-9783724Y2033825D01*
X-9887879Y1955610D01*
X-10018391Y1862858D01*
X-10178018Y1753233D01*
X-10369522Y1624396D01*
X-10462430Y1562458D01*
X-10648607Y1439777D01*
X-10804287Y1340471D01*
X-10933261Y1263091D01*
X-11039324Y1206187D01*
X-11126267Y1168309D01*
X-11197882Y1148007D01*
X-11257964Y1143833D01*
X-11310304Y1154335D01*
X-11358696Y1178065D01*
X-11396760Y1205316D01*
X-11506548Y1306953D01*
X-11580748Y1407958D01*
X-11616974Y1504742D01*
X-11620295Y1541256D01*
X-11617286Y1592312D01*
X-11603523Y1633627D01*
X-11572301Y1677418D01*
X-11516920Y1735902D01*
X-11509375Y1743448D01*
X-11465685Y1785620D01*
X-11419664Y1826412D01*
X-11366589Y1869216D01*
X-11301735Y1917425D01*
X-11220375Y1974432D01*
X-11117784Y2043629D01*
X-10989237Y2128409D01*
X-10830009Y2232165D01*
X-10816167Y2241151D01*
X-10613893Y2369143D01*
X-10433086Y2476804D01*
X-10276472Y2562658D01*
X-10146777Y2625225D01*
X-10046728Y2663028D01*
X-10029206Y2667814D01*
X-9940609Y2680548D01*
X-9862073Y2668197D01*
G36*
X10863657Y2701931D02*
G01*
X10990686Y2652675D01*
X11059049Y2619764D01*
X11148999Y2571035D01*
X11261237Y2504847D01*
X11390231Y2424955D01*
X11530449Y2335113D01*
X11676357Y2239075D01*
X11822424Y2140596D01*
X11963117Y2043429D01*
X12092903Y1951329D01*
X12206251Y1868050D01*
X12297628Y1797347D01*
X12361501Y1742974D01*
X12382896Y1721398D01*
X12434229Y1645037D01*
X12447926Y1571437D01*
X12423399Y1494800D01*
X12360059Y1409325D01*
X12350170Y1398571D01*
X12239603Y1291857D01*
X12139309Y1221530D01*
X12043347Y1184868D01*
X11945778Y1179152D01*
X11890288Y1187985D01*
X11838054Y1202520D01*
X11780500Y1224859D01*
X11713001Y1257629D01*
X11630929Y1303459D01*
X11529656Y1364975D01*
X11404556Y1444805D01*
X11251001Y1545577D01*
X11194427Y1583122D01*
X10985022Y1724349D01*
X10810145Y1846729D01*
X10667402Y1952121D01*
X10554398Y2042381D01*
X10468736Y2119369D01*
X10408022Y2184940D01*
X10392711Y2204861D01*
X10346283Y2285375D01*
X10331905Y2359989D01*
X10351102Y2434845D01*
X10405401Y2516081D01*
X10492533Y2606299D01*
X10578772Y2674438D01*
X10664703Y2712979D01*
X10757330Y2722087D01*
X10863657Y2701931D01*
G37*
X10863657Y2701931D02*
X10990686Y2652675D01*
X11059049Y2619764D01*
X11148999Y2571035D01*
X11261237Y2504847D01*
X11390231Y2424955D01*
X11530449Y2335113D01*
X11676357Y2239075D01*
X11822424Y2140596D01*
X11963117Y2043429D01*
X12092903Y1951329D01*
X12206251Y1868050D01*
X12297628Y1797347D01*
X12361501Y1742974D01*
X12382896Y1721398D01*
X12434229Y1645037D01*
X12447926Y1571437D01*
X12423399Y1494800D01*
X12360059Y1409325D01*
X12350170Y1398571D01*
X12239603Y1291857D01*
X12139309Y1221530D01*
X12043347Y1184868D01*
X11945778Y1179152D01*
X11890288Y1187985D01*
X11838054Y1202520D01*
X11780500Y1224859D01*
X11713001Y1257629D01*
X11630929Y1303459D01*
X11529656Y1364975D01*
X11404556Y1444805D01*
X11251001Y1545577D01*
X11194427Y1583122D01*
X10985022Y1724349D01*
X10810145Y1846729D01*
X10667402Y1952121D01*
X10554398Y2042381D01*
X10468736Y2119369D01*
X10408022Y2184940D01*
X10392711Y2204861D01*
X10346283Y2285375D01*
X10331905Y2359989D01*
X10351102Y2434845D01*
X10405401Y2516081D01*
X10492533Y2606299D01*
X10578772Y2674438D01*
X10664703Y2712979D01*
X10757330Y2722087D01*
X10863657Y2701931D01*
G36*
X11955271Y3650420D02*
G01*
X12060813Y3615343D01*
X12188457Y3555350D01*
X12340757Y3469189D01*
X12520267Y3355607D01*
X12594166Y3306333D01*
X12795083Y3167375D01*
X12963306Y3043759D01*
X13097558Y2936501D01*
X13196559Y2846617D01*
X13254286Y2781655D01*
X13302715Y2682783D01*
X13314326Y2570551D01*
X13288816Y2453019D01*
X13268424Y2406866D01*
X13230241Y2336341D01*
X13184792Y2258876D01*
X13137649Y2183152D01*
X13094384Y2117845D01*
X13060567Y2071636D01*
X13041772Y2053204D01*
X13041368Y2053167D01*
X13020008Y2064073D01*
X12968363Y2094611D01*
X12891748Y2141511D01*
X12795481Y2201501D01*
X12684879Y2271313D01*
X12632244Y2304808D01*
X12387963Y2461562D01*
X12177762Y2598684D01*
X11999286Y2718093D01*
X11850176Y2821706D01*
X11728077Y2911444D01*
X11630632Y2989224D01*
X11555485Y3056967D01*
X11500278Y3116590D01*
X11462655Y3170013D01*
X11440259Y3219154D01*
X11430734Y3265932D01*
X11430000Y3283725D01*
X11434066Y3332521D01*
X11450565Y3375577D01*
X11485948Y3424620D01*
X11540836Y3485228D01*
X11624167Y3567508D01*
X11694246Y3620457D01*
X11761627Y3649752D01*
X11836864Y3661068D01*
X11869276Y3661834D01*
X11955271Y3650420D01*
G37*
X11955271Y3650420D02*
X12060813Y3615343D01*
X12188457Y3555350D01*
X12340757Y3469189D01*
X12520267Y3355607D01*
X12594166Y3306333D01*
X12795083Y3167375D01*
X12963306Y3043759D01*
X13097558Y2936501D01*
X13196559Y2846617D01*
X13254286Y2781655D01*
X13302715Y2682783D01*
X13314326Y2570551D01*
X13288816Y2453019D01*
X13268424Y2406866D01*
X13230241Y2336341D01*
X13184792Y2258876D01*
X13137649Y2183152D01*
X13094384Y2117845D01*
X13060567Y2071636D01*
X13041772Y2053204D01*
X13041368Y2053167D01*
X13020008Y2064073D01*
X12968363Y2094611D01*
X12891748Y2141511D01*
X12795481Y2201501D01*
X12684879Y2271313D01*
X12632244Y2304808D01*
X12387963Y2461562D01*
X12177762Y2598684D01*
X11999286Y2718093D01*
X11850176Y2821706D01*
X11728077Y2911444D01*
X11630632Y2989224D01*
X11555485Y3056967D01*
X11500278Y3116590D01*
X11462655Y3170013D01*
X11440259Y3219154D01*
X11430734Y3265932D01*
X11430000Y3283725D01*
X11434066Y3332521D01*
X11450565Y3375577D01*
X11485948Y3424620D01*
X11540836Y3485228D01*
X11624167Y3567508D01*
X11694246Y3620457D01*
X11761627Y3649752D01*
X11836864Y3661068D01*
X11869276Y3661834D01*
X11955271Y3650420D01*
G36*
X-10849191Y3665307D02*
G01*
X-10818832Y3652629D01*
X-10767361Y3616045D01*
X-10700963Y3555436D01*
X-10629202Y3481189D01*
X-10561644Y3403690D01*
X-10507851Y3333325D01*
X-10478340Y3282860D01*
X-10461720Y3233523D01*
X-10466998Y3202323D01*
X-10490182Y3175756D01*
X-10519674Y3152425D01*
X-10579238Y3109182D01*
X-10663696Y3049555D01*
X-10767869Y2977071D01*
X-10886579Y2895261D01*
X-11014646Y2807651D01*
X-11146894Y2717771D01*
X-11278142Y2629149D01*
X-11403213Y2545314D01*
X-11516927Y2469793D01*
X-11614106Y2406115D01*
X-11689572Y2357808D01*
X-11702525Y2349731D01*
X-11840775Y2268980D01*
X-11953322Y2215305D01*
X-12045784Y2187302D01*
X-12123779Y2183566D01*
X-12192923Y2202691D01*
X-12224097Y2219261D01*
X-12282670Y2264693D01*
X-12353259Y2333165D01*
X-12424694Y2412294D01*
X-12485808Y2489701D01*
X-12525431Y2553004D01*
X-12525738Y2553642D01*
X-12544031Y2606044D01*
X-12545437Y2657182D01*
X-12527217Y2710072D01*
X-12486634Y2767731D01*
X-12420949Y2833175D01*
X-12327423Y2909420D01*
X-12203319Y2999481D01*
X-12045898Y3106376D01*
X-11990917Y3142737D01*
X-11775765Y3283016D01*
X-11592687Y3399417D01*
X-11439668Y3493155D01*
X-11314691Y3565449D01*
X-11215738Y3617515D01*
X-11167474Y3639785D01*
X-11057549Y3672668D01*
X-10946572Y3681355D01*
X-10849191Y3665307D01*
G37*
X-10849191Y3665307D02*
X-10818832Y3652629D01*
X-10767361Y3616045D01*
X-10700963Y3555436D01*
X-10629202Y3481189D01*
X-10561644Y3403690D01*
X-10507851Y3333325D01*
X-10478340Y3282860D01*
X-10461720Y3233523D01*
X-10466998Y3202323D01*
X-10490182Y3175756D01*
X-10519674Y3152425D01*
X-10579238Y3109182D01*
X-10663696Y3049555D01*
X-10767869Y2977071D01*
X-10886579Y2895261D01*
X-11014646Y2807651D01*
X-11146894Y2717771D01*
X-11278142Y2629149D01*
X-11403213Y2545314D01*
X-11516927Y2469793D01*
X-11614106Y2406115D01*
X-11689572Y2357808D01*
X-11702525Y2349731D01*
X-11840775Y2268980D01*
X-11953322Y2215305D01*
X-12045784Y2187302D01*
X-12123779Y2183566D01*
X-12192923Y2202691D01*
X-12224097Y2219261D01*
X-12282670Y2264693D01*
X-12353259Y2333165D01*
X-12424694Y2412294D01*
X-12485808Y2489701D01*
X-12525431Y2553004D01*
X-12525738Y2553642D01*
X-12544031Y2606044D01*
X-12545437Y2657182D01*
X-12527217Y2710072D01*
X-12486634Y2767731D01*
X-12420949Y2833175D01*
X-12327423Y2909420D01*
X-12203319Y2999481D01*
X-12045898Y3106376D01*
X-11990917Y3142737D01*
X-11775765Y3283016D01*
X-11592687Y3399417D01*
X-11439668Y3493155D01*
X-11314691Y3565449D01*
X-11215738Y3617515D01*
X-11167474Y3639785D01*
X-11057549Y3672668D01*
X-10946572Y3681355D01*
X-10849191Y3665307D01*
G36*
X-11960978Y4614769D02*
G01*
X-11873019Y4571800D01*
X-11778676Y4493127D01*
X-11771354Y4485978D01*
X-11682977Y4391662D01*
X-11629541Y4313342D01*
X-11610135Y4244499D01*
X-11623852Y4178614D01*
X-11669783Y4109167D01*
X-11712411Y4063092D01*
X-11766617Y4015839D01*
X-11850519Y3951531D01*
X-11957365Y3874644D01*
X-12080402Y3789655D01*
X-12212878Y3701040D01*
X-12348040Y3613276D01*
X-12479137Y3530839D01*
X-12599415Y3458206D01*
X-12702122Y3399853D01*
X-12752508Y3373556D01*
X-12917639Y3303675D01*
X-13063616Y3267032D01*
X-13188449Y3263927D01*
X-13286601Y3292807D01*
X-13337567Y3327185D01*
X-13400642Y3380901D01*
X-13450643Y3430362D01*
X-13504330Y3491654D01*
X-13533479Y3538928D01*
X-13545134Y3586356D01*
X-13546667Y3623490D01*
X-13544234Y3669768D01*
X-13532801Y3707447D01*
X-13506165Y3746566D01*
X-13458125Y3797161D01*
X-13412064Y3841355D01*
X-13331984Y3909479D01*
X-13223693Y3990507D01*
X-13094040Y4080274D01*
X-12949871Y4174612D01*
X-12798037Y4269354D01*
X-12645383Y4360335D01*
X-12498758Y4443386D01*
X-12365010Y4514341D01*
X-12250987Y4569034D01*
X-12163536Y4603297D01*
X-12156184Y4605537D01*
X-12052163Y4625019D01*
X-11960978Y4614769D01*
G37*
X-11960978Y4614769D02*
X-11873019Y4571800D01*
X-11778676Y4493127D01*
X-11771354Y4485978D01*
X-11682977Y4391662D01*
X-11629541Y4313342D01*
X-11610135Y4244499D01*
X-11623852Y4178614D01*
X-11669783Y4109167D01*
X-11712411Y4063092D01*
X-11766617Y4015839D01*
X-11850519Y3951531D01*
X-11957365Y3874644D01*
X-12080402Y3789655D01*
X-12212878Y3701040D01*
X-12348040Y3613276D01*
X-12479137Y3530839D01*
X-12599415Y3458206D01*
X-12702122Y3399853D01*
X-12752508Y3373556D01*
X-12917639Y3303675D01*
X-13063616Y3267032D01*
X-13188449Y3263927D01*
X-13286601Y3292807D01*
X-13337567Y3327185D01*
X-13400642Y3380901D01*
X-13450643Y3430362D01*
X-13504330Y3491654D01*
X-13533479Y3538928D01*
X-13545134Y3586356D01*
X-13546667Y3623490D01*
X-13544234Y3669768D01*
X-13532801Y3707447D01*
X-13506165Y3746566D01*
X-13458125Y3797161D01*
X-13412064Y3841355D01*
X-13331984Y3909479D01*
X-13223693Y3990507D01*
X-13094040Y4080274D01*
X-12949871Y4174612D01*
X-12798037Y4269354D01*
X-12645383Y4360335D01*
X-12498758Y4443386D01*
X-12365010Y4514341D01*
X-12250987Y4569034D01*
X-12163536Y4603297D01*
X-12156184Y4605537D01*
X-12052163Y4625019D01*
X-11960978Y4614769D01*
G36*
X12932791Y4605423D02*
G01*
X13037872Y4570061D01*
X13168785Y4512886D01*
X13318143Y4438327D01*
X13478559Y4350812D01*
X13642644Y4254767D01*
X13803011Y4154621D01*
X13952272Y4054801D01*
X14083040Y3959735D01*
X14187928Y3873851D01*
X14243638Y3819791D01*
X14295011Y3758522D01*
X14321174Y3708552D01*
X14329612Y3654287D01*
X14329833Y3640233D01*
X14325412Y3588091D01*
X14307620Y3542755D01*
X14269668Y3491118D01*
X14229291Y3446159D01*
X14120514Y3346552D01*
X14013953Y3286694D01*
X13903940Y3264741D01*
X13784810Y3278846D01*
X13747750Y3289418D01*
X13637084Y3332324D01*
X13506470Y3397548D01*
X13352599Y3486938D01*
X13172163Y3602347D01*
X13091583Y3656363D01*
X12899383Y3789313D01*
X12742599Y3904583D01*
X12619511Y4004820D01*
X12528401Y4092667D01*
X12467550Y4170772D01*
X12435239Y4241780D01*
X12429748Y4308337D01*
X12449359Y4373088D01*
X12492353Y4438679D01*
X12545604Y4496679D01*
X12638559Y4574429D01*
X12728310Y4615778D01*
X12826461Y4623988D01*
X12932791Y4605423D01*
G37*
X12932791Y4605423D02*
X13037872Y4570061D01*
X13168785Y4512886D01*
X13318143Y4438327D01*
X13478559Y4350812D01*
X13642644Y4254767D01*
X13803011Y4154621D01*
X13952272Y4054801D01*
X14083040Y3959735D01*
X14187928Y3873851D01*
X14243638Y3819791D01*
X14295011Y3758522D01*
X14321174Y3708552D01*
X14329612Y3654287D01*
X14329833Y3640233D01*
X14325412Y3588091D01*
X14307620Y3542755D01*
X14269668Y3491118D01*
X14229291Y3446159D01*
X14120514Y3346552D01*
X14013953Y3286694D01*
X13903940Y3264741D01*
X13784810Y3278846D01*
X13747750Y3289418D01*
X13637084Y3332324D01*
X13506470Y3397548D01*
X13352599Y3486938D01*
X13172163Y3602347D01*
X13091583Y3656363D01*
X12899383Y3789313D01*
X12742599Y3904583D01*
X12619511Y4004820D01*
X12528401Y4092667D01*
X12467550Y4170772D01*
X12435239Y4241780D01*
X12429748Y4308337D01*
X12449359Y4373088D01*
X12492353Y4438679D01*
X12545604Y4496679D01*
X12638559Y4574429D01*
X12728310Y4615778D01*
X12826461Y4623988D01*
X12932791Y4605423D01*
G36*
X-12964872Y5559651D02*
G01*
X-12878241Y5534002D01*
X-12795228Y5486151D01*
X-12711862Y5417586D01*
X-12658940Y5362372D01*
X-12625753Y5309499D01*
X-12614259Y5256294D01*
X-12626418Y5200086D01*
X-12664189Y5138202D01*
X-12729532Y5067969D01*
X-12824405Y4986715D01*
X-12950769Y4891768D01*
X-13110581Y4780455D01*
X-13245131Y4690219D01*
X-13431002Y4568023D01*
X-13586421Y4469110D01*
X-13715326Y4392075D01*
X-13821652Y4335512D01*
X-13909335Y4298014D01*
X-13982313Y4278176D01*
X-14044522Y4274592D01*
X-14099898Y4285855D01*
X-14152377Y4310561D01*
X-14205684Y4347140D01*
X-14299605Y4428320D01*
X-14379650Y4515568D01*
X-14440984Y4601785D01*
X-14478771Y4679873D01*
X-14488174Y4742734D01*
X-14484928Y4757025D01*
X-14453876Y4810786D01*
X-14394571Y4872811D01*
X-14305150Y4944374D01*
X-14183745Y5026749D01*
X-14028490Y5121209D01*
X-13837520Y5229028D01*
X-13631334Y5339717D01*
X-13449885Y5431572D01*
X-13297629Y5499060D01*
X-13169451Y5542613D01*
X-13060237Y5562666D01*
X-12964872Y5559651D01*
G37*
X-12964872Y5559651D02*
X-12878241Y5534002D01*
X-12795228Y5486151D01*
X-12711862Y5417586D01*
X-12658940Y5362372D01*
X-12625753Y5309499D01*
X-12614259Y5256294D01*
X-12626418Y5200086D01*
X-12664189Y5138202D01*
X-12729532Y5067969D01*
X-12824405Y4986715D01*
X-12950769Y4891768D01*
X-13110581Y4780455D01*
X-13245131Y4690219D01*
X-13431002Y4568023D01*
X-13586421Y4469110D01*
X-13715326Y4392075D01*
X-13821652Y4335512D01*
X-13909335Y4298014D01*
X-13982313Y4278176D01*
X-14044522Y4274592D01*
X-14099898Y4285855D01*
X-14152377Y4310561D01*
X-14205684Y4347140D01*
X-14299605Y4428320D01*
X-14379650Y4515568D01*
X-14440984Y4601785D01*
X-14478771Y4679873D01*
X-14488174Y4742734D01*
X-14484928Y4757025D01*
X-14453876Y4810786D01*
X-14394571Y4872811D01*
X-14305150Y4944374D01*
X-14183745Y5026749D01*
X-14028490Y5121209D01*
X-13837520Y5229028D01*
X-13631334Y5339717D01*
X-13449885Y5431572D01*
X-13297629Y5499060D01*
X-13169451Y5542613D01*
X-13060237Y5562666D01*
X-12964872Y5559651D01*
G36*
X13983282Y5581629D02*
G01*
X14062733Y5566840D01*
X14153970Y5536436D01*
X14262141Y5488053D01*
X14392391Y5419329D01*
X14549867Y5327900D01*
X14594416Y5301022D01*
X14796417Y5176127D01*
X14962798Y5067678D01*
X15095856Y4973295D01*
X15197889Y4890598D01*
X15271193Y4817208D01*
X15318067Y4750746D01*
X15340807Y4688832D01*
X15341710Y4629088D01*
X15323076Y4569132D01*
X15315708Y4553976D01*
X15276826Y4498868D01*
X15216333Y4433791D01*
X15146632Y4370233D01*
X15080129Y4319680D01*
X15037376Y4296248D01*
X14934684Y4277224D01*
X14813215Y4287809D01*
X14683509Y4327070D01*
X14682204Y4327606D01*
X14535926Y4395988D01*
X14369803Y4489423D01*
X14180366Y4609963D01*
X14030067Y4712942D01*
X13881438Y4819445D01*
X13765475Y4908242D01*
X13678497Y4983335D01*
X13616824Y5048724D01*
X13576778Y5108412D01*
X13554678Y5166399D01*
X13546845Y5226686D01*
X13546666Y5238606D01*
X13552843Y5288393D01*
X13575809Y5336415D01*
X13622215Y5394849D01*
X13646542Y5421422D01*
X13729725Y5503400D01*
X13800952Y5554524D01*
X13870756Y5579806D01*
X13949672Y5584257D01*
X13983282Y5581629D01*
G37*
X13983282Y5581629D02*
X14062733Y5566840D01*
X14153970Y5536436D01*
X14262141Y5488053D01*
X14392391Y5419329D01*
X14549867Y5327900D01*
X14594416Y5301022D01*
X14796417Y5176127D01*
X14962798Y5067678D01*
X15095856Y4973295D01*
X15197889Y4890598D01*
X15271193Y4817208D01*
X15318067Y4750746D01*
X15340807Y4688832D01*
X15341710Y4629088D01*
X15323076Y4569132D01*
X15315708Y4553976D01*
X15276826Y4498868D01*
X15216333Y4433791D01*
X15146632Y4370233D01*
X15080129Y4319680D01*
X15037376Y4296248D01*
X14934684Y4277224D01*
X14813215Y4287809D01*
X14683509Y4327070D01*
X14682204Y4327606D01*
X14535926Y4395988D01*
X14369803Y4489423D01*
X14180366Y4609963D01*
X14030067Y4712942D01*
X13881438Y4819445D01*
X13765475Y4908242D01*
X13678497Y4983335D01*
X13616824Y5048724D01*
X13576778Y5108412D01*
X13554678Y5166399D01*
X13546845Y5226686D01*
X13546666Y5238606D01*
X13552843Y5288393D01*
X13575809Y5336415D01*
X13622215Y5394849D01*
X13646542Y5421422D01*
X13729725Y5503400D01*
X13800952Y5554524D01*
X13870756Y5579806D01*
X13949672Y5584257D01*
X13983282Y5581629D01*
G36*
X-14522607Y7225742D02*
G01*
X-14441979Y7198362D01*
X-14326410Y7127850D01*
X-14212195Y7020529D01*
X-14104390Y6881760D01*
X-14033615Y6765448D01*
X-13915517Y6572385D01*
X-13791226Y6410804D01*
X-13688459Y6306533D01*
X-13638622Y6258580D01*
X-13616394Y6222889D01*
X-13615144Y6186826D01*
X-13618208Y6172678D01*
X-13651457Y6108454D01*
X-13719080Y6032323D01*
X-13815945Y5947576D01*
X-13936914Y5857508D01*
X-14076853Y5765411D01*
X-14230628Y5674578D01*
X-14393103Y5588302D01*
X-14559143Y5509876D01*
X-14723614Y5442593D01*
X-14798150Y5416013D01*
X-14944967Y5375522D01*
X-15098642Y5349092D01*
X-15248265Y5337477D01*
X-15382928Y5341431D01*
X-15491724Y5361709D01*
X-15507230Y5366970D01*
X-15607659Y5423191D01*
X-15702013Y5510932D01*
X-15779528Y5619641D01*
X-15795276Y5649387D01*
X-15817232Y5699717D01*
X-15831271Y5750855D01*
X-15838986Y5814042D01*
X-15841972Y5900521D01*
X-15842109Y5979584D01*
X-15840097Y6092127D01*
X-15833974Y6175987D01*
X-15821676Y6244764D01*
X-15801140Y6312059D01*
X-15785275Y6354160D01*
X-15690882Y6549115D01*
X-15567942Y6732470D01*
X-15422746Y6897697D01*
X-15261584Y7038269D01*
X-15090746Y7147659D01*
X-14967643Y7202594D01*
X-14820980Y7238682D01*
X-14667792Y7246359D01*
X-14522607Y7225742D01*
G37*
X-14522607Y7225742D02*
X-14441979Y7198362D01*
X-14326410Y7127850D01*
X-14212195Y7020529D01*
X-14104390Y6881760D01*
X-14033615Y6765448D01*
X-13915517Y6572385D01*
X-13791226Y6410804D01*
X-13688459Y6306533D01*
X-13638622Y6258580D01*
X-13616394Y6222889D01*
X-13615144Y6186826D01*
X-13618208Y6172678D01*
X-13651457Y6108454D01*
X-13719080Y6032323D01*
X-13815945Y5947576D01*
X-13936914Y5857508D01*
X-14076853Y5765411D01*
X-14230628Y5674578D01*
X-14393103Y5588302D01*
X-14559143Y5509876D01*
X-14723614Y5442593D01*
X-14798150Y5416013D01*
X-14944967Y5375522D01*
X-15098642Y5349092D01*
X-15248265Y5337477D01*
X-15382928Y5341431D01*
X-15491724Y5361709D01*
X-15507230Y5366970D01*
X-15607659Y5423191D01*
X-15702013Y5510932D01*
X-15779528Y5619641D01*
X-15795276Y5649387D01*
X-15817232Y5699717D01*
X-15831271Y5750855D01*
X-15838986Y5814042D01*
X-15841972Y5900521D01*
X-15842109Y5979584D01*
X-15840097Y6092127D01*
X-15833974Y6175987D01*
X-15821676Y6244764D01*
X-15801140Y6312059D01*
X-15785275Y6354160D01*
X-15690882Y6549115D01*
X-15567942Y6732470D01*
X-15422746Y6897697D01*
X-15261584Y7038269D01*
X-15090746Y7147659D01*
X-14967643Y7202594D01*
X-14820980Y7238682D01*
X-14667792Y7246359D01*
X-14522607Y7225742D01*
G36*
X15664499Y7237816D02*
G01*
X15806459Y7191733D01*
X15856059Y7169618D01*
X16030822Y7065092D01*
X16196516Y6927249D01*
X16347014Y6763926D01*
X16476191Y6582958D01*
X16577919Y6392181D01*
X16646073Y6199429D01*
X16659013Y6142613D01*
X16677063Y5969435D01*
X16658478Y5816918D01*
X16602743Y5683648D01*
X16509343Y5568209D01*
X16425333Y5500063D01*
X16255035Y5405483D01*
X16075045Y5352030D01*
X15886577Y5339928D01*
X15701187Y5366839D01*
X15606492Y5395791D01*
X15496985Y5441125D01*
X15367860Y5505213D01*
X15214311Y5590426D01*
X15047242Y5689582D01*
X14939968Y5753681D01*
X14828934Y5818273D01*
X14727634Y5875606D01*
X14653105Y5916075D01*
X14579975Y5958238D01*
X14522363Y5998719D01*
X14490347Y6030223D01*
X14487486Y6035958D01*
X14483464Y6108370D01*
X14506093Y6204627D01*
X14551591Y6319149D01*
X14616175Y6446353D01*
X14696065Y6580658D01*
X14787477Y6716483D01*
X14886630Y6848246D01*
X14989741Y6970367D01*
X15093029Y7077262D01*
X15192712Y7163352D01*
X15285007Y7223054D01*
X15295326Y7228142D01*
X15399032Y7257053D01*
X15525390Y7259934D01*
X15664499Y7237816D01*
G37*
X15664499Y7237816D02*
X15806459Y7191733D01*
X15856059Y7169618D01*
X16030822Y7065092D01*
X16196516Y6927249D01*
X16347014Y6763926D01*
X16476191Y6582958D01*
X16577919Y6392181D01*
X16646073Y6199429D01*
X16659013Y6142613D01*
X16677063Y5969435D01*
X16658478Y5816918D01*
X16602743Y5683648D01*
X16509343Y5568209D01*
X16425333Y5500063D01*
X16255035Y5405483D01*
X16075045Y5352030D01*
X15886577Y5339928D01*
X15701187Y5366839D01*
X15606492Y5395791D01*
X15496985Y5441125D01*
X15367860Y5505213D01*
X15214311Y5590426D01*
X15047242Y5689582D01*
X14939968Y5753681D01*
X14828934Y5818273D01*
X14727634Y5875606D01*
X14653105Y5916075D01*
X14579975Y5958238D01*
X14522363Y5998719D01*
X14490347Y6030223D01*
X14487486Y6035958D01*
X14483464Y6108370D01*
X14506093Y6204627D01*
X14551591Y6319149D01*
X14616175Y6446353D01*
X14696065Y6580658D01*
X14787477Y6716483D01*
X14886630Y6848246D01*
X14989741Y6970367D01*
X15093029Y7077262D01*
X15192712Y7163352D01*
X15285007Y7223054D01*
X15295326Y7228142D01*
X15399032Y7257053D01*
X15525390Y7259934D01*
X15664499Y7237816D01*
G36*
X2728427Y11260664D02*
G01*
X3819275Y11260658D01*
X4870048Y11260646D01*
X5881500Y11260629D01*
X6854384Y11260604D01*
X7789452Y11260570D01*
X8687457Y11260525D01*
X9549153Y11260469D01*
X10375293Y11260400D01*
X11166628Y11260315D01*
X11923914Y11260215D01*
X12647901Y11260098D01*
X13339344Y11259962D01*
X13998995Y11259806D01*
X14627608Y11259628D01*
X15225934Y11259427D01*
X15794728Y11259203D01*
X16334742Y11258952D01*
X16846729Y11258675D01*
X17331443Y11258369D01*
X17789635Y11258033D01*
X18222060Y11257666D01*
X18629470Y11257267D01*
X19012617Y11256833D01*
X19372256Y11256365D01*
X19709139Y11255859D01*
X20024018Y11255316D01*
X20317648Y11254733D01*
X20590780Y11254109D01*
X20844169Y11253443D01*
X21078566Y11252733D01*
X21294725Y11251979D01*
X21493399Y11251178D01*
X21675340Y11250329D01*
X21841303Y11249431D01*
X21992039Y11248482D01*
X22128302Y11247482D01*
X22250844Y11246428D01*
X22360419Y11245320D01*
X22457780Y11244155D01*
X22543679Y11242933D01*
X22618870Y11241653D01*
X22684105Y11240312D01*
X22740138Y11238909D01*
X22787722Y11237443D01*
X22827609Y11235914D01*
X22860552Y11234318D01*
X22887305Y11232655D01*
X22908620Y11230924D01*
X22925250Y11229122D01*
X22937949Y11227250D01*
X22947469Y11225305D01*
X22954563Y11223286D01*
X22959985Y11221191D01*
X22964013Y11219262D01*
X23069559Y11144205D01*
X23145001Y11046043D01*
X23187077Y10932381D01*
X23192521Y10810822D01*
X23174262Y10729367D01*
X23117405Y10613011D01*
X23034052Y10526976D01*
X22979925Y10492896D01*
X22891750Y10445750D01*
X433916Y10441362D01*
X-760183Y10441135D01*
X-1912652Y10440929D01*
X-3024197Y10440745D01*
X-4095521Y10440584D01*
X-5127328Y10440447D01*
X-6120323Y10440334D01*
X-7075210Y10440247D01*
X-7992692Y10440185D01*
X-8873475Y10440150D01*
X-9718261Y10440142D01*
X-10527756Y10440163D01*
X-11302664Y10440213D01*
X-12043688Y10440292D01*
X-12751534Y10440402D01*
X-13426904Y10440544D01*
X-14070504Y10440717D01*
X-14683037Y10440923D01*
X-15265208Y10441163D01*
X-15817720Y10441438D01*
X-16341279Y10441747D01*
X-16836587Y10442092D01*
X-17304350Y10442475D01*
X-17745272Y10442894D01*
X-18160056Y10443352D01*
X-18549407Y10443849D01*
X-18914028Y10444386D01*
X-19254625Y10444963D01*
X-19571902Y10445582D01*
X-19866562Y10446242D01*
X-20139309Y10446946D01*
X-20390849Y10447693D01*
X-20621884Y10448485D01*
X-20833120Y10449322D01*
X-21025260Y10450204D01*
X-21199008Y10451134D01*
X-21355070Y10452111D01*
X-21494148Y10453136D01*
X-21616947Y10454211D01*
X-21724172Y10455335D01*
X-21816526Y10456509D01*
X-21894713Y10457735D01*
X-21959439Y10459014D01*
X-22011406Y10460345D01*
X-22051319Y10461729D01*
X-22079883Y10463168D01*
X-22097801Y10464663D01*
X-22105299Y10466016D01*
X-22214472Y10524451D01*
X-22294796Y10606791D01*
X-22346186Y10705879D01*
X-22368558Y10814562D01*
X-22361827Y10925684D01*
X-22325910Y11032091D01*
X-22260722Y11126627D01*
X-22166179Y11202137D01*
X-22114266Y11227907D01*
X-22107390Y11229629D01*
X-22094661Y11231291D01*
X-22075342Y11232893D01*
X-22048695Y11234436D01*
X-22013984Y11235922D01*
X-21970471Y11237352D01*
X-21917419Y11238726D01*
X-21854091Y11240046D01*
X-21779749Y11241313D01*
X-21693657Y11242527D01*
X-21595076Y11243691D01*
X-21483270Y11244805D01*
X-21357501Y11245869D01*
X-21217033Y11246886D01*
X-21061128Y11247856D01*
X-20889048Y11248780D01*
X-20700056Y11249660D01*
X-20493416Y11250496D01*
X-20268390Y11251290D01*
X-20024240Y11252042D01*
X-19760230Y11252754D01*
X-19475622Y11253426D01*
X-19169679Y11254061D01*
X-18841663Y11254658D01*
X-18490838Y11255219D01*
X-18116466Y11255746D01*
X-17717810Y11256238D01*
X-17294133Y11256697D01*
X-16844697Y11257125D01*
X-16368765Y11257522D01*
X-15865600Y11257890D01*
X-15334465Y11258228D01*
X-14774622Y11258540D01*
X-14185334Y11258825D01*
X-13565864Y11259084D01*
X-12915475Y11259320D01*
X-12233429Y11259532D01*
X-11518989Y11259722D01*
X-10771419Y11259891D01*
X-9989979Y11260040D01*
X-9173935Y11260170D01*
X-8322547Y11260282D01*
X-7435079Y11260377D01*
X-6510794Y11260457D01*
X-5548954Y11260522D01*
X-4548822Y11260574D01*
X-3509661Y11260613D01*
X-2430734Y11260641D01*
X-1311303Y11260658D01*
X-150632Y11260666D01*
X423496Y11260667D01*
X1596752Y11260667D01*
X2728427Y11260664D01*
G37*
X2728427Y11260664D02*
X3819275Y11260658D01*
X4870048Y11260646D01*
X5881500Y11260629D01*
X6854384Y11260604D01*
X7789452Y11260570D01*
X8687457Y11260525D01*
X9549153Y11260469D01*
X10375293Y11260400D01*
X11166628Y11260315D01*
X11923914Y11260215D01*
X12647901Y11260098D01*
X13339344Y11259962D01*
X13998995Y11259806D01*
X14627608Y11259628D01*
X15225934Y11259427D01*
X15794728Y11259203D01*
X16334742Y11258952D01*
X16846729Y11258675D01*
X17331443Y11258369D01*
X17789635Y11258033D01*
X18222060Y11257666D01*
X18629470Y11257267D01*
X19012617Y11256833D01*
X19372256Y11256365D01*
X19709139Y11255859D01*
X20024018Y11255316D01*
X20317648Y11254733D01*
X20590780Y11254109D01*
X20844169Y11253443D01*
X21078566Y11252733D01*
X21294725Y11251979D01*
X21493399Y11251178D01*
X21675340Y11250329D01*
X21841303Y11249431D01*
X21992039Y11248482D01*
X22128302Y11247482D01*
X22250844Y11246428D01*
X22360419Y11245320D01*
X22457780Y11244155D01*
X22543679Y11242933D01*
X22618870Y11241653D01*
X22684105Y11240312D01*
X22740138Y11238909D01*
X22787722Y11237443D01*
X22827609Y11235914D01*
X22860552Y11234318D01*
X22887305Y11232655D01*
X22908620Y11230924D01*
X22925250Y11229122D01*
X22937949Y11227250D01*
X22947469Y11225305D01*
X22954563Y11223286D01*
X22959985Y11221191D01*
X22964013Y11219262D01*
X23069559Y11144205D01*
X23145001Y11046043D01*
X23187077Y10932381D01*
X23192521Y10810822D01*
X23174262Y10729367D01*
X23117405Y10613011D01*
X23034052Y10526976D01*
X22979925Y10492896D01*
X22891750Y10445750D01*
X433916Y10441362D01*
X-760183Y10441135D01*
X-1912652Y10440929D01*
X-3024197Y10440745D01*
X-4095521Y10440584D01*
X-5127328Y10440447D01*
X-6120323Y10440334D01*
X-7075210Y10440247D01*
X-7992692Y10440185D01*
X-8873475Y10440150D01*
X-9718261Y10440142D01*
X-10527756Y10440163D01*
X-11302664Y10440213D01*
X-12043688Y10440292D01*
X-12751534Y10440402D01*
X-13426904Y10440544D01*
X-14070504Y10440717D01*
X-14683037Y10440923D01*
X-15265208Y10441163D01*
X-15817720Y10441438D01*
X-16341279Y10441747D01*
X-16836587Y10442092D01*
X-17304350Y10442475D01*
X-17745272Y10442894D01*
X-18160056Y10443352D01*
X-18549407Y10443849D01*
X-18914028Y10444386D01*
X-19254625Y10444963D01*
X-19571902Y10445582D01*
X-19866562Y10446242D01*
X-20139309Y10446946D01*
X-20390849Y10447693D01*
X-20621884Y10448485D01*
X-20833120Y10449322D01*
X-21025260Y10450204D01*
X-21199008Y10451134D01*
X-21355070Y10452111D01*
X-21494148Y10453136D01*
X-21616947Y10454211D01*
X-21724172Y10455335D01*
X-21816526Y10456509D01*
X-21894713Y10457735D01*
X-21959439Y10459014D01*
X-22011406Y10460345D01*
X-22051319Y10461729D01*
X-22079883Y10463168D01*
X-22097801Y10464663D01*
X-22105299Y10466016D01*
X-22214472Y10524451D01*
X-22294796Y10606791D01*
X-22346186Y10705879D01*
X-22368558Y10814562D01*
X-22361827Y10925684D01*
X-22325910Y11032091D01*
X-22260722Y11126627D01*
X-22166179Y11202137D01*
X-22114266Y11227907D01*
X-22107390Y11229629D01*
X-22094661Y11231291D01*
X-22075342Y11232893D01*
X-22048695Y11234436D01*
X-22013984Y11235922D01*
X-21970471Y11237352D01*
X-21917419Y11238726D01*
X-21854091Y11240046D01*
X-21779749Y11241313D01*
X-21693657Y11242527D01*
X-21595076Y11243691D01*
X-21483270Y11244805D01*
X-21357501Y11245869D01*
X-21217033Y11246886D01*
X-21061128Y11247856D01*
X-20889048Y11248780D01*
X-20700056Y11249660D01*
X-20493416Y11250496D01*
X-20268390Y11251290D01*
X-20024240Y11252042D01*
X-19760230Y11252754D01*
X-19475622Y11253426D01*
X-19169679Y11254061D01*
X-18841663Y11254658D01*
X-18490838Y11255219D01*
X-18116466Y11255746D01*
X-17717810Y11256238D01*
X-17294133Y11256697D01*
X-16844697Y11257125D01*
X-16368765Y11257522D01*
X-15865600Y11257890D01*
X-15334465Y11258228D01*
X-14774622Y11258540D01*
X-14185334Y11258825D01*
X-13565864Y11259084D01*
X-12915475Y11259320D01*
X-12233429Y11259532D01*
X-11518989Y11259722D01*
X-10771419Y11259891D01*
X-9989979Y11260040D01*
X-9173935Y11260170D01*
X-8322547Y11260282D01*
X-7435079Y11260377D01*
X-6510794Y11260457D01*
X-5548954Y11260522D01*
X-4548822Y11260574D01*
X-3509661Y11260613D01*
X-2430734Y11260641D01*
X-1311303Y11260658D01*
X-150632Y11260666D01*
X423496Y11260667D01*
X1596752Y11260667D01*
X2728427Y11260664D01*
G36*
X-8434917Y20165810D02*
G01*
X-8244450Y20139602D01*
X-8073356Y20083637D01*
X-7915788Y19994706D01*
X-7765898Y19869600D01*
X-7635949Y19727334D01*
X-7557329Y19632084D01*
X-7556915Y19870209D01*
X-7556500Y20108334D01*
X-6708302Y20108334D01*
X-6714753Y18250959D01*
X-6715849Y17920970D01*
X-6716829Y17630456D01*
X-6717885Y17376559D01*
X-6719208Y17156424D01*
X-6720992Y16967192D01*
X-6723426Y16806006D01*
X-6726704Y16670009D01*
X-6731017Y16556344D01*
X-6736557Y16462154D01*
X-6743516Y16384582D01*
X-6752086Y16320769D01*
X-6762458Y16267860D01*
X-6774825Y16222997D01*
X-6789378Y16183323D01*
X-6806309Y16145980D01*
X-6825809Y16108112D01*
X-6848072Y16066861D01*
X-6863321Y16038380D01*
X-6955974Y15902674D01*
X-7083188Y15774211D01*
X-7237229Y15658475D01*
X-7410360Y15560945D01*
X-7594847Y15487102D01*
X-7672917Y15464708D01*
X-7891114Y15422420D01*
X-8132538Y15397830D01*
X-8381598Y15391745D01*
X-8622703Y15404972D01*
X-8686865Y15412271D01*
X-8938565Y15459900D01*
X-9166432Y15534348D01*
X-9366606Y15633944D01*
X-9535224Y15757017D01*
X-9579449Y15798636D01*
X-9685774Y15924420D01*
X-9757698Y16058752D01*
X-9801501Y16214275D01*
X-9809286Y16261292D01*
X-9823928Y16361834D01*
X-8894590Y16361834D01*
X-8882314Y16312925D01*
X-8846713Y16234110D01*
X-8784596Y16152508D01*
X-8708247Y16082259D01*
X-8650690Y16046322D01*
X-8493792Y15991388D01*
X-8327062Y15970079D01*
X-8159106Y15981075D01*
X-7998531Y16023058D01*
X-7853944Y16094711D01*
X-7742753Y16185380D01*
X-7679097Y16259035D01*
X-7632177Y16334529D01*
X-7599350Y16420397D01*
X-7577970Y16525174D01*
X-7565394Y16657396D01*
X-7560310Y16774250D01*
X-7551424Y17070250D01*
X-7697547Y16932405D01*
X-7841397Y16808181D01*
X-7977723Y16717930D01*
X-8117246Y16657424D01*
X-8270687Y16622434D01*
X-8448765Y16608732D01*
X-8519584Y16608188D01*
X-8637680Y16610805D01*
X-8729016Y16618444D01*
X-8809075Y16633355D01*
X-8893339Y16657783D01*
X-8918106Y16666060D01*
X-9128430Y16759315D01*
X-9315521Y16887316D01*
X-9478351Y17048767D01*
X-9615893Y17242374D01*
X-9727121Y17466841D01*
X-9811008Y17720872D01*
X-9835031Y17822666D01*
X-9855868Y17957384D01*
X-9869052Y18120821D01*
X-9874586Y18300059D01*
X-9872641Y18467352D01*
X-8989014Y18467352D01*
X-8987880Y18266013D01*
X-8958748Y18038112D01*
X-8902574Y17838013D01*
X-8820202Y17667859D01*
X-8712471Y17529789D01*
X-8689724Y17507837D01*
X-8607208Y17437653D01*
X-8533985Y17393029D01*
X-8456307Y17369152D01*
X-8360425Y17361210D01*
X-8274690Y17362572D01*
X-8175331Y17368586D01*
X-8103813Y17379989D01*
X-8045702Y17400043D01*
X-7998306Y17425008D01*
X-7859068Y17530552D01*
X-7741726Y17669112D01*
X-7649771Y17835585D01*
X-7586690Y18024864D01*
X-7585824Y18028520D01*
X-7566744Y18150998D01*
X-7558862Y18297790D01*
X-7561589Y18455175D01*
X-7574334Y18609431D01*
X-7596507Y18746837D01*
X-7620515Y18835058D01*
X-7698468Y19011307D01*
X-7796841Y19158965D01*
X-7911999Y19275948D01*
X-8040304Y19360169D01*
X-8178122Y19409544D01*
X-8321817Y19421985D01*
X-8467752Y19395407D01*
X-8544317Y19364999D01*
X-8662379Y19286361D01*
X-8765626Y19172489D01*
X-8851986Y19028517D01*
X-8919385Y18859580D01*
X-8965752Y18670813D01*
X-8989014Y18467352D01*
X-9872641Y18467352D01*
X-9872468Y18482180D01*
X-9862699Y18654266D01*
X-9845279Y18803401D01*
X-9835031Y18859168D01*
X-9763952Y19116382D01*
X-9666166Y19351286D01*
X-9544276Y19561448D01*
X-9400888Y19744438D01*
X-9238605Y19897827D01*
X-9060033Y20019184D01*
X-8867774Y20106078D01*
X-8664433Y20156079D01*
X-8452615Y20166756D01*
X-8434917Y20165810D01*
G37*
X-8434917Y20165810D02*
X-8244450Y20139602D01*
X-8073356Y20083637D01*
X-7915788Y19994706D01*
X-7765898Y19869600D01*
X-7635949Y19727334D01*
X-7557329Y19632084D01*
X-7556915Y19870209D01*
X-7556500Y20108334D01*
X-6708302Y20108334D01*
X-6714753Y18250959D01*
X-6715849Y17920970D01*
X-6716829Y17630456D01*
X-6717885Y17376559D01*
X-6719208Y17156424D01*
X-6720992Y16967192D01*
X-6723426Y16806006D01*
X-6726704Y16670009D01*
X-6731017Y16556344D01*
X-6736557Y16462154D01*
X-6743516Y16384582D01*
X-6752086Y16320769D01*
X-6762458Y16267860D01*
X-6774825Y16222997D01*
X-6789378Y16183323D01*
X-6806309Y16145980D01*
X-6825809Y16108112D01*
X-6848072Y16066861D01*
X-6863321Y16038380D01*
X-6955974Y15902674D01*
X-7083188Y15774211D01*
X-7237229Y15658475D01*
X-7410360Y15560945D01*
X-7594847Y15487102D01*
X-7672917Y15464708D01*
X-7891114Y15422420D01*
X-8132538Y15397830D01*
X-8381598Y15391745D01*
X-8622703Y15404972D01*
X-8686865Y15412271D01*
X-8938565Y15459900D01*
X-9166432Y15534348D01*
X-9366606Y15633944D01*
X-9535224Y15757017D01*
X-9579449Y15798636D01*
X-9685774Y15924420D01*
X-9757698Y16058752D01*
X-9801501Y16214275D01*
X-9809286Y16261292D01*
X-9823928Y16361834D01*
X-8894590Y16361834D01*
X-8882314Y16312925D01*
X-8846713Y16234110D01*
X-8784596Y16152508D01*
X-8708247Y16082259D01*
X-8650690Y16046322D01*
X-8493792Y15991388D01*
X-8327062Y15970079D01*
X-8159106Y15981075D01*
X-7998531Y16023058D01*
X-7853944Y16094711D01*
X-7742753Y16185380D01*
X-7679097Y16259035D01*
X-7632177Y16334529D01*
X-7599350Y16420397D01*
X-7577970Y16525174D01*
X-7565394Y16657396D01*
X-7560310Y16774250D01*
X-7551424Y17070250D01*
X-7697547Y16932405D01*
X-7841397Y16808181D01*
X-7977723Y16717930D01*
X-8117246Y16657424D01*
X-8270687Y16622434D01*
X-8448765Y16608732D01*
X-8519584Y16608188D01*
X-8637680Y16610805D01*
X-8729016Y16618444D01*
X-8809075Y16633355D01*
X-8893339Y16657783D01*
X-8918106Y16666060D01*
X-9128430Y16759315D01*
X-9315521Y16887316D01*
X-9478351Y17048767D01*
X-9615893Y17242374D01*
X-9727121Y17466841D01*
X-9811008Y17720872D01*
X-9835031Y17822666D01*
X-9855868Y17957384D01*
X-9869052Y18120821D01*
X-9874586Y18300059D01*
X-9872641Y18467352D01*
X-8989014Y18467352D01*
X-8987880Y18266013D01*
X-8958748Y18038112D01*
X-8902574Y17838013D01*
X-8820202Y17667859D01*
X-8712471Y17529789D01*
X-8689724Y17507837D01*
X-8607208Y17437653D01*
X-8533985Y17393029D01*
X-8456307Y17369152D01*
X-8360425Y17361210D01*
X-8274690Y17362572D01*
X-8175331Y17368586D01*
X-8103813Y17379989D01*
X-8045702Y17400043D01*
X-7998306Y17425008D01*
X-7859068Y17530552D01*
X-7741726Y17669112D01*
X-7649771Y17835585D01*
X-7586690Y18024864D01*
X-7585824Y18028520D01*
X-7566744Y18150998D01*
X-7558862Y18297790D01*
X-7561589Y18455175D01*
X-7574334Y18609431D01*
X-7596507Y18746837D01*
X-7620515Y18835058D01*
X-7698468Y19011307D01*
X-7796841Y19158965D01*
X-7911999Y19275948D01*
X-8040304Y19360169D01*
X-8178122Y19409544D01*
X-8321817Y19421985D01*
X-8467752Y19395407D01*
X-8544317Y19364999D01*
X-8662379Y19286361D01*
X-8765626Y19172489D01*
X-8851986Y19028517D01*
X-8919385Y18859580D01*
X-8965752Y18670813D01*
X-8989014Y18467352D01*
X-9872641Y18467352D01*
X-9872468Y18482180D01*
X-9862699Y18654266D01*
X-9845279Y18803401D01*
X-9835031Y18859168D01*
X-9763952Y19116382D01*
X-9666166Y19351286D01*
X-9544276Y19561448D01*
X-9400888Y19744438D01*
X-9238605Y19897827D01*
X-9060033Y20019184D01*
X-8867774Y20106078D01*
X-8664433Y20156079D01*
X-8452615Y20166756D01*
X-8434917Y20165810D01*
G36*
X17978602Y19933709D02*
G01*
X17995499Y19877956D01*
X18023170Y19786547D01*
X18060144Y19664351D01*
X18104950Y19516234D01*
X18156113Y19347064D01*
X18212163Y19161709D01*
X18271626Y18965036D01*
X18329126Y18774834D01*
X18388759Y18577872D01*
X18445050Y18392544D01*
X18496743Y18222943D01*
X18542584Y18073159D01*
X18581316Y17947285D01*
X18611683Y17849413D01*
X18632432Y17783634D01*
X18642305Y17754039D01*
X18642534Y17753481D01*
X18651886Y17764583D01*
X18671901Y17816193D01*
X18702448Y17907884D01*
X18743395Y18039229D01*
X18794612Y18209801D01*
X18855969Y18419172D01*
X18927335Y18666917D01*
X18997083Y18911995D01*
X19335750Y20107612D01*
X20254974Y20108334D01*
X20088493Y19626792D01*
X20053728Y19526310D01*
X20006645Y19390335D01*
X19948804Y19223369D01*
X19881765Y19029914D01*
X19807088Y18814471D01*
X19726335Y18581540D01*
X19641064Y18335624D01*
X19552838Y18081224D01*
X19463215Y17822840D01*
X19393281Y17621250D01*
X19308472Y17376705D01*
X19227458Y17142925D01*
X19151349Y16923122D01*
X19081252Y16720504D01*
X19018278Y16538283D01*
X18963533Y16379667D01*
X18918128Y16247866D01*
X18883169Y16146091D01*
X18859766Y16077550D01*
X18849028Y16045455D01*
X18848681Y16044334D01*
X18776132Y15873810D01*
X18669086Y15723137D01*
X18532299Y15596312D01*
X18370528Y15497336D01*
X18188530Y15430205D01*
X18094510Y15410327D01*
X18010836Y15401132D01*
X17900604Y15394989D01*
X17777785Y15392054D01*
X17656353Y15392488D01*
X17550279Y15396449D01*
X17478375Y15403328D01*
X17420166Y15412146D01*
X17420166Y15751671D01*
X17420471Y15878479D01*
X17421824Y15968703D01*
X17424879Y16028092D01*
X17430293Y16062393D01*
X17438719Y16077354D01*
X17450814Y16078725D01*
X17457208Y16076605D01*
X17535929Y16057586D01*
X17635871Y16049388D01*
X17737168Y16052641D01*
X17811413Y16065406D01*
X17895735Y16102705D01*
X17985783Y16163892D01*
X18066918Y16237229D01*
X18124501Y16310974D01*
X18129956Y16320866D01*
X18153454Y16378831D01*
X18175998Y16453944D01*
X18183014Y16483568D01*
X18186665Y16501895D01*
X18188910Y16520643D01*
X18188902Y16542414D01*
X18185794Y16569808D01*
X18178739Y16605428D01*
X18166891Y16651873D01*
X18149401Y16711746D01*
X18125424Y16787648D01*
X18094113Y16882180D01*
X18054619Y16997942D01*
X18006097Y17137537D01*
X17947699Y17303566D01*
X17878578Y17498629D01*
X17797887Y17725328D01*
X17704780Y17986265D01*
X17598409Y18284040D01*
X17579768Y18336211D01*
X17486697Y18596813D01*
X17397816Y18845927D01*
X17314143Y19080680D01*
X17236698Y19298202D01*
X17166500Y19495620D01*
X17104569Y19670065D01*
X17051925Y19818663D01*
X17009587Y19938544D01*
X16978574Y20026835D01*
X16959906Y20080667D01*
X16954500Y20097253D01*
X16974680Y20100408D01*
X17031276Y20103214D01*
X17118372Y20105536D01*
X17230052Y20107237D01*
X17360397Y20108184D01*
X17440052Y20108334D01*
X17925604Y20108334D01*
X17978602Y19933709D01*
G37*
X17978602Y19933709D02*
X17995499Y19877956D01*
X18023170Y19786547D01*
X18060144Y19664351D01*
X18104950Y19516234D01*
X18156113Y19347064D01*
X18212163Y19161709D01*
X18271626Y18965036D01*
X18329126Y18774834D01*
X18388759Y18577872D01*
X18445050Y18392544D01*
X18496743Y18222943D01*
X18542584Y18073159D01*
X18581316Y17947285D01*
X18611683Y17849413D01*
X18632432Y17783634D01*
X18642305Y17754039D01*
X18642534Y17753481D01*
X18651886Y17764583D01*
X18671901Y17816193D01*
X18702448Y17907884D01*
X18743395Y18039229D01*
X18794612Y18209801D01*
X18855969Y18419172D01*
X18927335Y18666917D01*
X18997083Y18911995D01*
X19335750Y20107612D01*
X20254974Y20108334D01*
X20088493Y19626792D01*
X20053728Y19526310D01*
X20006645Y19390335D01*
X19948804Y19223369D01*
X19881765Y19029914D01*
X19807088Y18814471D01*
X19726335Y18581540D01*
X19641064Y18335624D01*
X19552838Y18081224D01*
X19463215Y17822840D01*
X19393281Y17621250D01*
X19308472Y17376705D01*
X19227458Y17142925D01*
X19151349Y16923122D01*
X19081252Y16720504D01*
X19018278Y16538283D01*
X18963533Y16379667D01*
X18918128Y16247866D01*
X18883169Y16146091D01*
X18859766Y16077550D01*
X18849028Y16045455D01*
X18848681Y16044334D01*
X18776132Y15873810D01*
X18669086Y15723137D01*
X18532299Y15596312D01*
X18370528Y15497336D01*
X18188530Y15430205D01*
X18094510Y15410327D01*
X18010836Y15401132D01*
X17900604Y15394989D01*
X17777785Y15392054D01*
X17656353Y15392488D01*
X17550279Y15396449D01*
X17478375Y15403328D01*
X17420166Y15412146D01*
X17420166Y15751671D01*
X17420471Y15878479D01*
X17421824Y15968703D01*
X17424879Y16028092D01*
X17430293Y16062393D01*
X17438719Y16077354D01*
X17450814Y16078725D01*
X17457208Y16076605D01*
X17535929Y16057586D01*
X17635871Y16049388D01*
X17737168Y16052641D01*
X17811413Y16065406D01*
X17895735Y16102705D01*
X17985783Y16163892D01*
X18066918Y16237229D01*
X18124501Y16310974D01*
X18129956Y16320866D01*
X18153454Y16378831D01*
X18175998Y16453944D01*
X18183014Y16483568D01*
X18186665Y16501895D01*
X18188910Y16520643D01*
X18188902Y16542414D01*
X18185794Y16569808D01*
X18178739Y16605428D01*
X18166891Y16651873D01*
X18149401Y16711746D01*
X18125424Y16787648D01*
X18094113Y16882180D01*
X18054619Y16997942D01*
X18006097Y17137537D01*
X17947699Y17303566D01*
X17878578Y17498629D01*
X17797887Y17725328D01*
X17704780Y17986265D01*
X17598409Y18284040D01*
X17579768Y18336211D01*
X17486697Y18596813D01*
X17397816Y18845927D01*
X17314143Y19080680D01*
X17236698Y19298202D01*
X17166500Y19495620D01*
X17104569Y19670065D01*
X17051925Y19818663D01*
X17009587Y19938544D01*
X16978574Y20026835D01*
X16959906Y20080667D01*
X16954500Y20097253D01*
X16974680Y20100408D01*
X17031276Y20103214D01*
X17118372Y20105536D01*
X17230052Y20107237D01*
X17360397Y20108184D01*
X17440052Y20108334D01*
X17925604Y20108334D01*
X17978602Y19933709D01*
G36*
X-13981897Y20149806D02*
G01*
X-13765270Y20113607D01*
X-13571815Y20059944D01*
X-13408459Y19990116D01*
X-13352496Y19957566D01*
X-13239583Y19870452D01*
X-13135726Y19763207D01*
X-13054663Y19650545D01*
X-13038596Y19621361D01*
X-13015876Y19574144D01*
X-12996666Y19526243D01*
X-12980672Y19473784D01*
X-12967602Y19412897D01*
X-12957164Y19339708D01*
X-12949064Y19250346D01*
X-12943010Y19140939D01*
X-12938710Y19007614D01*
X-12935870Y18846500D01*
X-12934198Y18653724D01*
X-12933401Y18425415D01*
X-12933201Y18226956D01*
X-12932687Y17956035D01*
X-12931330Y17725861D01*
X-12929094Y17534854D01*
X-12925945Y17381436D01*
X-12921846Y17264027D01*
X-12916762Y17181050D01*
X-12910657Y17130924D01*
X-12908269Y17120838D01*
X-12878795Y17054087D01*
X-12833345Y16982064D01*
X-12813019Y16956267D01*
X-12757395Y16872285D01*
X-12742334Y16808261D01*
X-12742334Y16742834D01*
X-13708160Y16742834D01*
X-13743627Y16817208D01*
X-13771649Y16891256D01*
X-13791640Y16970301D01*
X-13792492Y16975371D01*
X-13805890Y17059159D01*
X-13931971Y16945062D01*
X-14079624Y16831091D01*
X-14248888Y16732742D01*
X-14421661Y16660226D01*
X-14456165Y16649391D01*
X-14570900Y16624851D01*
X-14707536Y16609402D01*
X-14847992Y16604096D01*
X-14974190Y16609987D01*
X-15020996Y16616479D01*
X-15222759Y16671751D01*
X-15401607Y16760084D01*
X-15554230Y16879509D01*
X-15652456Y16992315D01*
X-15735232Y17137810D01*
X-15793016Y17308434D01*
X-15825109Y17494647D01*
X-15830814Y17686911D01*
X-15822768Y17757943D01*
X-14939633Y17757943D01*
X-14931722Y17625846D01*
X-14889773Y17515150D01*
X-14817314Y17427743D01*
X-14717875Y17365509D01*
X-14594983Y17330334D01*
X-14452168Y17324104D01*
X-14292958Y17348705D01*
X-14215328Y17370848D01*
X-14114853Y17421059D01*
X-14016600Y17500450D01*
X-13933205Y17597168D01*
X-13884935Y17680722D01*
X-13849704Y17786015D01*
X-13822360Y17918789D01*
X-13805350Y18064545D01*
X-13800827Y18179344D01*
X-13801602Y18251993D01*
X-13806401Y18290923D01*
X-13818607Y18304745D01*
X-13841602Y18302067D01*
X-13848292Y18300163D01*
X-13887813Y18289985D01*
X-13958023Y18273199D01*
X-14048275Y18252312D01*
X-14128750Y18234111D01*
X-14239789Y18209143D01*
X-14351484Y18183830D01*
X-14447961Y18161778D01*
X-14494648Y18150983D01*
X-14651873Y18105514D01*
X-14771030Y18049695D01*
X-14855781Y17980291D01*
X-14909790Y17894065D01*
X-14936720Y17787782D01*
X-14939633Y17757943D01*
X-15822768Y17757943D01*
X-15809430Y17875684D01*
X-15760260Y18051427D01*
X-15734455Y18112152D01*
X-15653918Y18250342D01*
X-15550574Y18368593D01*
X-15421177Y18468727D01*
X-15262481Y18552569D01*
X-15071242Y18621940D01*
X-14844213Y18678662D01*
X-14668500Y18710816D01*
X-14479119Y18742142D01*
X-14326565Y18769431D01*
X-14205686Y18794099D01*
X-14111328Y18817562D01*
X-14038339Y18841237D01*
X-13981565Y18866540D01*
X-13935855Y18894887D01*
X-13903324Y18921119D01*
X-13851482Y18970090D01*
X-13824475Y19009772D01*
X-13814257Y19057538D01*
X-13812762Y19116647D01*
X-13826466Y19225852D01*
X-13868963Y19311164D01*
X-13942333Y19373945D01*
X-14048658Y19415559D01*
X-14190017Y19437369D01*
X-14308667Y19441584D01*
X-14410777Y19438391D01*
X-14509673Y19429876D01*
X-14588911Y19417630D01*
X-14610322Y19412366D01*
X-14721022Y19359210D01*
X-14807672Y19273152D01*
X-14866525Y19158442D01*
X-14881536Y19105070D01*
X-14908070Y18986500D01*
X-15765139Y18986500D01*
X-15754717Y19076459D01*
X-15710724Y19311737D01*
X-15636455Y19517975D01*
X-15531621Y19695414D01*
X-15395939Y19844293D01*
X-15229122Y19964852D01*
X-15030884Y20057329D01*
X-14800939Y20121966D01*
X-14539002Y20159001D01*
X-14456954Y20164616D01*
X-14214768Y20167242D01*
X-13981897Y20149806D01*
G37*
X-13981897Y20149806D02*
X-13765270Y20113607D01*
X-13571815Y20059944D01*
X-13408459Y19990116D01*
X-13352496Y19957566D01*
X-13239583Y19870452D01*
X-13135726Y19763207D01*
X-13054663Y19650545D01*
X-13038596Y19621361D01*
X-13015876Y19574144D01*
X-12996666Y19526243D01*
X-12980672Y19473784D01*
X-12967602Y19412897D01*
X-12957164Y19339708D01*
X-12949064Y19250346D01*
X-12943010Y19140939D01*
X-12938710Y19007614D01*
X-12935870Y18846500D01*
X-12934198Y18653724D01*
X-12933401Y18425415D01*
X-12933201Y18226956D01*
X-12932687Y17956035D01*
X-12931330Y17725861D01*
X-12929094Y17534854D01*
X-12925945Y17381436D01*
X-12921846Y17264027D01*
X-12916762Y17181050D01*
X-12910657Y17130924D01*
X-12908269Y17120838D01*
X-12878795Y17054087D01*
X-12833345Y16982064D01*
X-12813019Y16956267D01*
X-12757395Y16872285D01*
X-12742334Y16808261D01*
X-12742334Y16742834D01*
X-13708160Y16742834D01*
X-13743627Y16817208D01*
X-13771649Y16891256D01*
X-13791640Y16970301D01*
X-13792492Y16975371D01*
X-13805890Y17059159D01*
X-13931971Y16945062D01*
X-14079624Y16831091D01*
X-14248888Y16732742D01*
X-14421661Y16660226D01*
X-14456165Y16649391D01*
X-14570900Y16624851D01*
X-14707536Y16609402D01*
X-14847992Y16604096D01*
X-14974190Y16609987D01*
X-15020996Y16616479D01*
X-15222759Y16671751D01*
X-15401607Y16760084D01*
X-15554230Y16879509D01*
X-15652456Y16992315D01*
X-15735232Y17137810D01*
X-15793016Y17308434D01*
X-15825109Y17494647D01*
X-15830814Y17686911D01*
X-15822768Y17757943D01*
X-14939633Y17757943D01*
X-14931722Y17625846D01*
X-14889773Y17515150D01*
X-14817314Y17427743D01*
X-14717875Y17365509D01*
X-14594983Y17330334D01*
X-14452168Y17324104D01*
X-14292958Y17348705D01*
X-14215328Y17370848D01*
X-14114853Y17421059D01*
X-14016600Y17500450D01*
X-13933205Y17597168D01*
X-13884935Y17680722D01*
X-13849704Y17786015D01*
X-13822360Y17918789D01*
X-13805350Y18064545D01*
X-13800827Y18179344D01*
X-13801602Y18251993D01*
X-13806401Y18290923D01*
X-13818607Y18304745D01*
X-13841602Y18302067D01*
X-13848292Y18300163D01*
X-13887813Y18289985D01*
X-13958023Y18273199D01*
X-14048275Y18252312D01*
X-14128750Y18234111D01*
X-14239789Y18209143D01*
X-14351484Y18183830D01*
X-14447961Y18161778D01*
X-14494648Y18150983D01*
X-14651873Y18105514D01*
X-14771030Y18049695D01*
X-14855781Y17980291D01*
X-14909790Y17894065D01*
X-14936720Y17787782D01*
X-14939633Y17757943D01*
X-15822768Y17757943D01*
X-15809430Y17875684D01*
X-15760260Y18051427D01*
X-15734455Y18112152D01*
X-15653918Y18250342D01*
X-15550574Y18368593D01*
X-15421177Y18468727D01*
X-15262481Y18552569D01*
X-15071242Y18621940D01*
X-14844213Y18678662D01*
X-14668500Y18710816D01*
X-14479119Y18742142D01*
X-14326565Y18769431D01*
X-14205686Y18794099D01*
X-14111328Y18817562D01*
X-14038339Y18841237D01*
X-13981565Y18866540D01*
X-13935855Y18894887D01*
X-13903324Y18921119D01*
X-13851482Y18970090D01*
X-13824475Y19009772D01*
X-13814257Y19057538D01*
X-13812762Y19116647D01*
X-13826466Y19225852D01*
X-13868963Y19311164D01*
X-13942333Y19373945D01*
X-14048658Y19415559D01*
X-14190017Y19437369D01*
X-14308667Y19441584D01*
X-14410777Y19438391D01*
X-14509673Y19429876D01*
X-14588911Y19417630D01*
X-14610322Y19412366D01*
X-14721022Y19359210D01*
X-14807672Y19273152D01*
X-14866525Y19158442D01*
X-14881536Y19105070D01*
X-14908070Y18986500D01*
X-15765139Y18986500D01*
X-15754717Y19076459D01*
X-15710724Y19311737D01*
X-15636455Y19517975D01*
X-15531621Y19695414D01*
X-15395939Y19844293D01*
X-15229122Y19964852D01*
X-15030884Y20057329D01*
X-14800939Y20121966D01*
X-14539002Y20159001D01*
X-14456954Y20164616D01*
X-14214768Y20167242D01*
X-13981897Y20149806D01*
G36*
X-4358995Y20156203D02*
G01*
X-4217262Y20143365D01*
X-4091555Y20118532D01*
X-3968962Y20078892D01*
X-3836570Y20021633D01*
X-3788834Y19998543D01*
X-3629633Y19902694D01*
X-3475516Y19778031D01*
X-3336616Y19634544D01*
X-3223066Y19482224D01*
X-3170296Y19388667D01*
X-3073307Y19149447D01*
X-3001823Y18883335D01*
X-2957544Y18598446D01*
X-2942169Y18302893D01*
X-2942167Y18299418D01*
X-2942167Y18139834D01*
X-5185834Y18139834D01*
X-5185834Y18027864D01*
X-5174259Y17892030D01*
X-5142269Y17753418D01*
X-5093971Y17622608D01*
X-5033468Y17510175D01*
X-4964865Y17426697D01*
X-4946564Y17411312D01*
X-4879059Y17368770D01*
X-4801182Y17331509D01*
X-4784844Y17325332D01*
X-4705793Y17307431D01*
X-4600597Y17296821D01*
X-4484869Y17293818D01*
X-4374217Y17298733D01*
X-4284253Y17311883D01*
X-4271914Y17315022D01*
X-4145329Y17370047D01*
X-4028765Y17457949D01*
X-3934125Y17569315D01*
X-3918156Y17594792D01*
X-3846395Y17716500D01*
X-2979911Y17716500D01*
X-2993337Y17658292D01*
X-3008495Y17613547D01*
X-3037645Y17543250D01*
X-3075608Y17459597D01*
X-3093846Y17421547D01*
X-3146933Y17321858D01*
X-3204511Y17236150D01*
X-3277045Y17150295D01*
X-3352589Y17072297D01*
X-3491139Y16944860D01*
X-3624404Y16846658D01*
X-3766024Y16769058D01*
X-3929635Y16703427D01*
X-3942055Y16699129D01*
X-4209630Y16629591D01*
X-4486623Y16601092D01*
X-4771509Y16613779D01*
X-4800752Y16617367D01*
X-5047245Y16668630D01*
X-5270372Y16755159D01*
X-5469564Y16876551D01*
X-5644251Y17032400D01*
X-5793863Y17222301D01*
X-5892128Y17392492D01*
X-5969761Y17582713D01*
X-6028543Y17802320D01*
X-6067092Y18042139D01*
X-6084026Y18292996D01*
X-6077965Y18545717D01*
X-6073651Y18598066D01*
X-6054575Y18753667D01*
X-5186640Y18753667D01*
X-4530070Y18753667D01*
X-4342790Y18754300D01*
X-4182605Y18756138D01*
X-4052551Y18759087D01*
X-3955660Y18763054D01*
X-3894968Y18767947D01*
X-3873509Y18773672D01*
X-3873500Y18773792D01*
X-3879878Y18824828D01*
X-3896354Y18900454D01*
X-3918948Y18985335D01*
X-3943675Y19064139D01*
X-3960253Y19107784D01*
X-4015829Y19204343D01*
X-4094735Y19299511D01*
X-4185177Y19381324D01*
X-4275360Y19437820D01*
X-4292996Y19445285D01*
X-4406933Y19473695D01*
X-4536694Y19482519D01*
X-4664948Y19472002D01*
X-4774364Y19442388D01*
X-4783667Y19438357D01*
X-4893789Y19373684D01*
X-4984511Y19286034D01*
X-5058644Y19170903D01*
X-5118997Y19023787D01*
X-5168380Y18840180D01*
X-5174459Y18811875D01*
X-5186640Y18753667D01*
X-6054575Y18753667D01*
X-6047449Y18811792D01*
X-6009767Y18997109D01*
X-5957135Y19167176D01*
X-5886080Y19335152D01*
X-5870994Y19366329D01*
X-5767896Y19540681D01*
X-5638468Y19704073D01*
X-5491225Y19847692D01*
X-5334683Y19962721D01*
X-5249334Y20009821D01*
X-5114565Y20070044D01*
X-4990699Y20112504D01*
X-4865031Y20139848D01*
X-4724860Y20154724D01*
X-4557482Y20159782D01*
X-4529667Y20159857D01*
X-4358995Y20156203D01*
G37*
X-4358995Y20156203D02*
X-4217262Y20143365D01*
X-4091555Y20118532D01*
X-3968962Y20078892D01*
X-3836570Y20021633D01*
X-3788834Y19998543D01*
X-3629633Y19902694D01*
X-3475516Y19778031D01*
X-3336616Y19634544D01*
X-3223066Y19482224D01*
X-3170296Y19388667D01*
X-3073307Y19149447D01*
X-3001823Y18883335D01*
X-2957544Y18598446D01*
X-2942169Y18302893D01*
X-2942167Y18299418D01*
X-2942167Y18139834D01*
X-5185834Y18139834D01*
X-5185834Y18027864D01*
X-5174259Y17892030D01*
X-5142269Y17753418D01*
X-5093971Y17622608D01*
X-5033468Y17510175D01*
X-4964865Y17426697D01*
X-4946564Y17411312D01*
X-4879059Y17368770D01*
X-4801182Y17331509D01*
X-4784844Y17325332D01*
X-4705793Y17307431D01*
X-4600597Y17296821D01*
X-4484869Y17293818D01*
X-4374217Y17298733D01*
X-4284253Y17311883D01*
X-4271914Y17315022D01*
X-4145329Y17370047D01*
X-4028765Y17457949D01*
X-3934125Y17569315D01*
X-3918156Y17594792D01*
X-3846395Y17716500D01*
X-2979911Y17716500D01*
X-2993337Y17658292D01*
X-3008495Y17613547D01*
X-3037645Y17543250D01*
X-3075608Y17459597D01*
X-3093846Y17421547D01*
X-3146933Y17321858D01*
X-3204511Y17236150D01*
X-3277045Y17150295D01*
X-3352589Y17072297D01*
X-3491139Y16944860D01*
X-3624404Y16846658D01*
X-3766024Y16769058D01*
X-3929635Y16703427D01*
X-3942055Y16699129D01*
X-4209630Y16629591D01*
X-4486623Y16601092D01*
X-4771509Y16613779D01*
X-4800752Y16617367D01*
X-5047245Y16668630D01*
X-5270372Y16755159D01*
X-5469564Y16876551D01*
X-5644251Y17032400D01*
X-5793863Y17222301D01*
X-5892128Y17392492D01*
X-5969761Y17582713D01*
X-6028543Y17802320D01*
X-6067092Y18042139D01*
X-6084026Y18292996D01*
X-6077965Y18545717D01*
X-6073651Y18598066D01*
X-6054575Y18753667D01*
X-5186640Y18753667D01*
X-4530070Y18753667D01*
X-4342790Y18754300D01*
X-4182605Y18756138D01*
X-4052551Y18759087D01*
X-3955660Y18763054D01*
X-3894968Y18767947D01*
X-3873509Y18773672D01*
X-3873500Y18773792D01*
X-3879878Y18824828D01*
X-3896354Y18900454D01*
X-3918948Y18985335D01*
X-3943675Y19064139D01*
X-3960253Y19107784D01*
X-4015829Y19204343D01*
X-4094735Y19299511D01*
X-4185177Y19381324D01*
X-4275360Y19437820D01*
X-4292996Y19445285D01*
X-4406933Y19473695D01*
X-4536694Y19482519D01*
X-4664948Y19472002D01*
X-4774364Y19442388D01*
X-4783667Y19438357D01*
X-4893789Y19373684D01*
X-4984511Y19286034D01*
X-5058644Y19170903D01*
X-5118997Y19023787D01*
X-5168380Y18840180D01*
X-5174459Y18811875D01*
X-5186640Y18753667D01*
X-6054575Y18753667D01*
X-6047449Y18811792D01*
X-6009767Y18997109D01*
X-5957135Y19167176D01*
X-5886080Y19335152D01*
X-5870994Y19366329D01*
X-5767896Y19540681D01*
X-5638468Y19704073D01*
X-5491225Y19847692D01*
X-5334683Y19962721D01*
X-5249334Y20009821D01*
X-5114565Y20070044D01*
X-4990699Y20112504D01*
X-4865031Y20139848D01*
X-4724860Y20154724D01*
X-4557482Y20159782D01*
X-4529667Y20159857D01*
X-4358995Y20156203D01*
G36*
X-905657Y20160180D02*
G01*
X-735713Y20151185D01*
X-584252Y20133820D01*
X-476250Y20111746D01*
X-242653Y20031524D01*
X-41391Y19926072D01*
X126674Y19796164D01*
X260683Y19642572D01*
X359775Y19466070D01*
X412089Y19313704D01*
X430341Y19227755D01*
X442097Y19141917D01*
X444500Y19098470D01*
X444500Y19007667D01*
X-395431Y19007667D01*
X-421718Y19125131D01*
X-466300Y19243458D01*
X-541802Y19335642D01*
X-649197Y19402243D01*
X-789460Y19443824D01*
X-963564Y19460945D01*
X-1005417Y19461485D01*
X-1175726Y19450586D01*
X-1310721Y19417609D01*
X-1411521Y19362034D01*
X-1479246Y19283339D01*
X-1502796Y19230030D01*
X-1510892Y19143659D01*
X-1481585Y19063289D01*
X-1419593Y18999144D01*
X-1387785Y18980832D01*
X-1349952Y18966578D01*
X-1277046Y18942533D01*
X-1174726Y18910434D01*
X-1048652Y18872019D01*
X-904483Y18829027D01*
X-747879Y18783194D01*
X-684706Y18764940D01*
X-461232Y18699564D01*
X-274720Y18642397D01*
X-120986Y18591696D01*
X4154Y18545715D01*
X104884Y18502711D01*
X185388Y18460940D01*
X249852Y18418656D01*
X302458Y18374116D01*
X335287Y18339732D01*
X438579Y18191637D01*
X507021Y18025618D01*
X541002Y17847215D01*
X540910Y17661965D01*
X507134Y17475407D01*
X440060Y17293081D01*
X340077Y17120523D01*
X241302Y16998219D01*
X151034Y16908828D01*
X60351Y16838949D01*
X-42597Y16781393D01*
X-169659Y16728971D01*
X-246762Y16702165D01*
X-502200Y16637240D01*
X-782852Y16604390D01*
X-1089736Y16603532D01*
X-1291167Y16618778D01*
X-1548406Y16658627D01*
X-1777877Y16721933D01*
X-1976743Y16807620D01*
X-2142163Y16914609D01*
X-2198402Y16963196D01*
X-2332982Y17114482D01*
X-2429179Y17280383D01*
X-2489444Y17465892D01*
X-2510474Y17599008D01*
X-2524680Y17737667D01*
X-1654364Y17737667D01*
X-1640919Y17676450D01*
X-1607981Y17589288D01*
X-1552233Y17500475D01*
X-1484669Y17424993D01*
X-1424551Y17381683D01*
X-1350900Y17350459D01*
X-1269877Y17329446D01*
X-1171592Y17317120D01*
X-1046152Y17311961D01*
X-969175Y17311595D01*
X-784310Y17322431D01*
X-628067Y17352793D01*
X-503009Y17401582D01*
X-411697Y17467696D01*
X-356696Y17550034D01*
X-347393Y17578782D01*
X-348688Y17653473D01*
X-382860Y17730118D01*
X-442916Y17796438D01*
X-488163Y17826010D01*
X-526647Y17841726D01*
X-600057Y17867971D01*
X-702834Y17902900D01*
X-829421Y17944667D01*
X-974257Y17991426D01*
X-1131787Y18041330D01*
X-1212143Y18066441D01*
X-1409637Y18127961D01*
X-1571196Y18178692D01*
X-1701327Y18220346D01*
X-1804540Y18254635D01*
X-1885344Y18283274D01*
X-1948248Y18307975D01*
X-1997760Y18330451D01*
X-2038390Y18352414D01*
X-2074646Y18375579D01*
X-2111037Y18401658D01*
X-2128219Y18414471D01*
X-2239703Y18523925D01*
X-2323216Y18662117D01*
X-2377369Y18824836D01*
X-2400774Y19007873D01*
X-2392042Y19207020D01*
X-2391376Y19212359D01*
X-2345793Y19413155D01*
X-2263378Y19594606D01*
X-2145803Y19754965D01*
X-1994740Y19892487D01*
X-1811857Y20005424D01*
X-1598828Y20092029D01*
X-1530361Y20112323D01*
X-1406435Y20136876D01*
X-1253012Y20153032D01*
X-1082088Y20160798D01*
X-905657Y20160180D01*
G37*
X-905657Y20160180D02*
X-735713Y20151185D01*
X-584252Y20133820D01*
X-476250Y20111746D01*
X-242653Y20031524D01*
X-41391Y19926072D01*
X126674Y19796164D01*
X260683Y19642572D01*
X359775Y19466070D01*
X412089Y19313704D01*
X430341Y19227755D01*
X442097Y19141917D01*
X444500Y19098470D01*
X444500Y19007667D01*
X-395431Y19007667D01*
X-421718Y19125131D01*
X-466300Y19243458D01*
X-541802Y19335642D01*
X-649197Y19402243D01*
X-789460Y19443824D01*
X-963564Y19460945D01*
X-1005417Y19461485D01*
X-1175726Y19450586D01*
X-1310721Y19417609D01*
X-1411521Y19362034D01*
X-1479246Y19283339D01*
X-1502796Y19230030D01*
X-1510892Y19143659D01*
X-1481585Y19063289D01*
X-1419593Y18999144D01*
X-1387785Y18980832D01*
X-1349952Y18966578D01*
X-1277046Y18942533D01*
X-1174726Y18910434D01*
X-1048652Y18872019D01*
X-904483Y18829027D01*
X-747879Y18783194D01*
X-684706Y18764940D01*
X-461232Y18699564D01*
X-274720Y18642397D01*
X-120986Y18591696D01*
X4154Y18545715D01*
X104884Y18502711D01*
X185388Y18460940D01*
X249852Y18418656D01*
X302458Y18374116D01*
X335287Y18339732D01*
X438579Y18191637D01*
X507021Y18025618D01*
X541002Y17847215D01*
X540910Y17661965D01*
X507134Y17475407D01*
X440060Y17293081D01*
X340077Y17120523D01*
X241302Y16998219D01*
X151034Y16908828D01*
X60351Y16838949D01*
X-42597Y16781393D01*
X-169659Y16728971D01*
X-246762Y16702165D01*
X-502200Y16637240D01*
X-782852Y16604390D01*
X-1089736Y16603532D01*
X-1291167Y16618778D01*
X-1548406Y16658627D01*
X-1777877Y16721933D01*
X-1976743Y16807620D01*
X-2142163Y16914609D01*
X-2198402Y16963196D01*
X-2332982Y17114482D01*
X-2429179Y17280383D01*
X-2489444Y17465892D01*
X-2510474Y17599008D01*
X-2524680Y17737667D01*
X-1654364Y17737667D01*
X-1640919Y17676450D01*
X-1607981Y17589288D01*
X-1552233Y17500475D01*
X-1484669Y17424993D01*
X-1424551Y17381683D01*
X-1350900Y17350459D01*
X-1269877Y17329446D01*
X-1171592Y17317120D01*
X-1046152Y17311961D01*
X-969175Y17311595D01*
X-784310Y17322431D01*
X-628067Y17352793D01*
X-503009Y17401582D01*
X-411697Y17467696D01*
X-356696Y17550034D01*
X-347393Y17578782D01*
X-348688Y17653473D01*
X-382860Y17730118D01*
X-442916Y17796438D01*
X-488163Y17826010D01*
X-526647Y17841726D01*
X-600057Y17867971D01*
X-702834Y17902900D01*
X-829421Y17944667D01*
X-974257Y17991426D01*
X-1131787Y18041330D01*
X-1212143Y18066441D01*
X-1409637Y18127961D01*
X-1571196Y18178692D01*
X-1701327Y18220346D01*
X-1804540Y18254635D01*
X-1885344Y18283274D01*
X-1948248Y18307975D01*
X-1997760Y18330451D01*
X-2038390Y18352414D01*
X-2074646Y18375579D01*
X-2111037Y18401658D01*
X-2128219Y18414471D01*
X-2239703Y18523925D01*
X-2323216Y18662117D01*
X-2377369Y18824836D01*
X-2400774Y19007873D01*
X-2392042Y19207020D01*
X-2391376Y19212359D01*
X-2345793Y19413155D01*
X-2263378Y19594606D01*
X-2145803Y19754965D01*
X-1994740Y19892487D01*
X-1811857Y20005424D01*
X-1598828Y20092029D01*
X-1530361Y20112323D01*
X-1406435Y20136876D01*
X-1253012Y20153032D01*
X-1082088Y20160798D01*
X-905657Y20160180D01*
G36*
X2201333Y20044834D02*
G01*
X2688166Y20044834D01*
X2688166Y19452167D01*
X2201333Y19452167D01*
X2201333Y18456654D01*
X2201381Y18210163D01*
X2201819Y18002535D01*
X2203084Y17830298D01*
X2205618Y17689982D01*
X2209858Y17578116D01*
X2216244Y17491229D01*
X2225215Y17425850D01*
X2237211Y17378508D01*
X2252670Y17345732D01*
X2272031Y17324052D01*
X2295734Y17309997D01*
X2324218Y17300095D01*
X2348513Y17293433D01*
X2430618Y17281447D01*
X2529688Y17281522D01*
X2562363Y17284402D01*
X2689330Y17298767D01*
X2683456Y16983759D01*
X2677583Y16668750D01*
X2571750Y16642189D01*
X2477028Y16625135D01*
X2356014Y16612842D01*
X2223411Y16605882D01*
X2093920Y16604827D01*
X1982242Y16610248D01*
X1928136Y16617158D01*
X1748524Y16666476D01*
X1598345Y16744404D01*
X1478986Y16849832D01*
X1391839Y16981645D01*
X1354558Y17076249D01*
X1345231Y17108309D01*
X1337385Y17141550D01*
X1330892Y17179764D01*
X1325626Y17226746D01*
X1321458Y17286288D01*
X1318261Y17362182D01*
X1315907Y17458223D01*
X1314270Y17578203D01*
X1313222Y17725914D01*
X1312635Y17905150D01*
X1312381Y18119704D01*
X1312333Y18332563D01*
X1312333Y19452167D01*
X867833Y19452167D01*
X867833Y20044834D01*
X1312333Y20044834D01*
X1312333Y20955000D01*
X2201333Y20955000D01*
X2201333Y20044834D01*
G37*
X2201333Y20044834D02*
X2688166Y20044834D01*
X2688166Y19452167D01*
X2201333Y19452167D01*
X2201333Y18456654D01*
X2201381Y18210163D01*
X2201819Y18002535D01*
X2203084Y17830298D01*
X2205618Y17689982D01*
X2209858Y17578116D01*
X2216244Y17491229D01*
X2225215Y17425850D01*
X2237211Y17378508D01*
X2252670Y17345732D01*
X2272031Y17324052D01*
X2295734Y17309997D01*
X2324218Y17300095D01*
X2348513Y17293433D01*
X2430618Y17281447D01*
X2529688Y17281522D01*
X2562363Y17284402D01*
X2689330Y17298767D01*
X2683456Y16983759D01*
X2677583Y16668750D01*
X2571750Y16642189D01*
X2477028Y16625135D01*
X2356014Y16612842D01*
X2223411Y16605882D01*
X2093920Y16604827D01*
X1982242Y16610248D01*
X1928136Y16617158D01*
X1748524Y16666476D01*
X1598345Y16744404D01*
X1478986Y16849832D01*
X1391839Y16981645D01*
X1354558Y17076249D01*
X1345231Y17108309D01*
X1337385Y17141550D01*
X1330892Y17179764D01*
X1325626Y17226746D01*
X1321458Y17286288D01*
X1318261Y17362182D01*
X1315907Y17458223D01*
X1314270Y17578203D01*
X1313222Y17725914D01*
X1312635Y17905150D01*
X1312381Y18119704D01*
X1312333Y18332563D01*
X1312333Y19452167D01*
X867833Y19452167D01*
X867833Y20044834D01*
X1312333Y20044834D01*
X1312333Y20955000D01*
X2201333Y20955000D01*
X2201333Y20044834D01*
G36*
X-18478500Y17547167D02*
G01*
X-16319500Y17547167D01*
X-16319500Y16742834D01*
X-19431000Y16742834D01*
X-19431000Y21293667D01*
X-18478500Y21293667D01*
X-18478500Y17547167D01*
G37*
X-18478500Y17547167D02*
X-16319500Y17547167D01*
X-16319500Y16742834D01*
X-19431000Y16742834D01*
X-19431000Y21293667D01*
X-18478500Y21293667D01*
X-18478500Y17547167D01*
G36*
X-10244667Y19272250D02*
G01*
X-10514542Y19272250D01*
X-10629682Y19271531D01*
X-10712836Y19268395D01*
X-10774341Y19261372D01*
X-10824535Y19248993D01*
X-10873755Y19229790D01*
X-10900834Y19217357D01*
X-11032715Y19138677D01*
X-11132420Y19039857D01*
X-11203653Y18915668D01*
X-11250116Y18760880D01*
X-11259213Y18711206D01*
X-11264548Y18656313D01*
X-11269322Y18563262D01*
X-11273446Y18436227D01*
X-11276832Y18279380D01*
X-11279391Y18096894D01*
X-11281033Y17892943D01*
X-11281670Y17671699D01*
X-11281674Y17658292D01*
X-11281834Y16742834D01*
X-12170834Y16742834D01*
X-12170834Y20108334D01*
X-11281834Y20108334D01*
X-11281834Y19506047D01*
X-11202459Y19641847D01*
X-11079751Y19815669D01*
X-10935004Y19957539D01*
X-10771911Y20064993D01*
X-10594169Y20135564D01*
X-10416860Y20166081D01*
X-10244667Y20177883D01*
X-10244667Y19272250D01*
G37*
X-10244667Y19272250D02*
X-10514542Y19272250D01*
X-10629682Y19271531D01*
X-10712836Y19268395D01*
X-10774341Y19261372D01*
X-10824535Y19248993D01*
X-10873755Y19229790D01*
X-10900834Y19217357D01*
X-11032715Y19138677D01*
X-11132420Y19039857D01*
X-11203653Y18915668D01*
X-11250116Y18760880D01*
X-11259213Y18711206D01*
X-11264548Y18656313D01*
X-11269322Y18563262D01*
X-11273446Y18436227D01*
X-11276832Y18279380D01*
X-11279391Y18096894D01*
X-11281033Y17892943D01*
X-11281670Y17671699D01*
X-11281674Y17658292D01*
X-11281834Y16742834D01*
X-12170834Y16742834D01*
X-12170834Y20108334D01*
X-11281834Y20108334D01*
X-11281834Y19506047D01*
X-11202459Y19641847D01*
X-11079751Y19815669D01*
X-10935004Y19957539D01*
X-10771911Y20064993D01*
X-10594169Y20135564D01*
X-10416860Y20166081D01*
X-10244667Y20177883D01*
X-10244667Y19272250D01*
G36*
X8067229Y19028834D02*
G01*
X8169939Y18731797D01*
X8268698Y18445928D01*
X8362634Y18173771D01*
X8450871Y17917873D01*
X8532534Y17680779D01*
X8606748Y17465036D01*
X8672638Y17273189D01*
X8729330Y17107784D01*
X8775948Y16971367D01*
X8811618Y16866485D01*
X8835464Y16795683D01*
X8846612Y16761507D01*
X8847355Y16758709D01*
X8827266Y16754191D01*
X8770752Y16750174D01*
X8683720Y16746849D01*
X8572078Y16744411D01*
X8441733Y16743052D01*
X8361447Y16742834D01*
X7875228Y16742834D01*
X7730019Y17192625D01*
X7584811Y17642417D01*
X5898083Y17642417D01*
X5748702Y17192625D01*
X5599321Y16742834D01*
X4630910Y16742834D01*
X4643284Y16790459D01*
X4651899Y16816387D01*
X4673792Y16879596D01*
X4708044Y16977482D01*
X4753735Y17107446D01*
X4809946Y17266884D01*
X4875757Y17453196D01*
X4950247Y17663781D01*
X5032497Y17896036D01*
X5121588Y18147361D01*
X5216599Y18415153D01*
X5237284Y18473408D01*
X6180666Y18473408D01*
X6200915Y18469135D01*
X6257991Y18465289D01*
X6346391Y18462028D01*
X6460609Y18459510D01*
X6595141Y18457893D01*
X6741583Y18457334D01*
X6890697Y18457896D01*
X7024899Y18459482D01*
X7138684Y18461938D01*
X7226548Y18465112D01*
X7282985Y18468850D01*
X7302500Y18472919D01*
X7296019Y18495708D01*
X7277505Y18554394D01*
X7248348Y18644722D01*
X7209939Y18762440D01*
X7163667Y18903294D01*
X7110923Y19063031D01*
X7053098Y19237400D01*
X7022157Y19330417D01*
X6741814Y20172331D01*
X6461240Y19330907D01*
X6401297Y19150769D01*
X6345733Y18983076D01*
X6295943Y18832084D01*
X6253318Y18702051D01*
X6219251Y18597232D01*
X6195135Y18521885D01*
X6182363Y18480266D01*
X6180666Y18473408D01*
X5237284Y18473408D01*
X5316611Y18696812D01*
X5420705Y18989736D01*
X5445893Y19060584D01*
X6236128Y21283084D01*
X7287414Y21283084D01*
X8067229Y19028834D01*
G37*
X8067229Y19028834D02*
X8169939Y18731797D01*
X8268698Y18445928D01*
X8362634Y18173771D01*
X8450871Y17917873D01*
X8532534Y17680779D01*
X8606748Y17465036D01*
X8672638Y17273189D01*
X8729330Y17107784D01*
X8775948Y16971367D01*
X8811618Y16866485D01*
X8835464Y16795683D01*
X8846612Y16761507D01*
X8847355Y16758709D01*
X8827266Y16754191D01*
X8770752Y16750174D01*
X8683720Y16746849D01*
X8572078Y16744411D01*
X8441733Y16743052D01*
X8361447Y16742834D01*
X7875228Y16742834D01*
X7730019Y17192625D01*
X7584811Y17642417D01*
X5898083Y17642417D01*
X5748702Y17192625D01*
X5599321Y16742834D01*
X4630910Y16742834D01*
X4643284Y16790459D01*
X4651899Y16816387D01*
X4673792Y16879596D01*
X4708044Y16977482D01*
X4753735Y17107446D01*
X4809946Y17266884D01*
X4875757Y17453196D01*
X4950247Y17663781D01*
X5032497Y17896036D01*
X5121588Y18147361D01*
X5216599Y18415153D01*
X5237284Y18473408D01*
X6180666Y18473408D01*
X6200915Y18469135D01*
X6257991Y18465289D01*
X6346391Y18462028D01*
X6460609Y18459510D01*
X6595141Y18457893D01*
X6741583Y18457334D01*
X6890697Y18457896D01*
X7024899Y18459482D01*
X7138684Y18461938D01*
X7226548Y18465112D01*
X7282985Y18468850D01*
X7302500Y18472919D01*
X7296019Y18495708D01*
X7277505Y18554394D01*
X7248348Y18644722D01*
X7209939Y18762440D01*
X7163667Y18903294D01*
X7110923Y19063031D01*
X7053098Y19237400D01*
X7022157Y19330417D01*
X6741814Y20172331D01*
X6461240Y19330907D01*
X6401297Y19150769D01*
X6345733Y18983076D01*
X6295943Y18832084D01*
X6253318Y18702051D01*
X6219251Y18597232D01*
X6195135Y18521885D01*
X6182363Y18480266D01*
X6180666Y18473408D01*
X5237284Y18473408D01*
X5316611Y18696812D01*
X5420705Y18989736D01*
X5445893Y19060584D01*
X6236128Y21283084D01*
X7287414Y21283084D01*
X8067229Y19028834D01*
G36*
X11218333Y19272250D02*
G01*
X10948458Y19272250D01*
X10833318Y19271531D01*
X10750164Y19268395D01*
X10688659Y19261372D01*
X10638465Y19248993D01*
X10589245Y19229790D01*
X10562166Y19217357D01*
X10427706Y19135523D01*
X10325542Y19030421D01*
X10253071Y18898380D01*
X10207691Y18735727D01*
X10203516Y18711334D01*
X10198383Y18657491D01*
X10193749Y18565772D01*
X10189707Y18440632D01*
X10186353Y18286526D01*
X10183778Y18107911D01*
X10182079Y17909240D01*
X10181347Y17694969D01*
X10181326Y17658292D01*
X10181166Y16742834D01*
X9292166Y16742834D01*
X9292166Y20108334D01*
X10181166Y20108334D01*
X10181166Y19506047D01*
X10260541Y19641847D01*
X10381415Y19812704D01*
X10524931Y19953732D01*
X10686508Y20062064D01*
X10861562Y20134834D01*
X11045513Y20169173D01*
X11107208Y20171583D01*
X11218333Y20171834D01*
X11218333Y19272250D01*
G37*
X11218333Y19272250D02*
X10948458Y19272250D01*
X10833318Y19271531D01*
X10750164Y19268395D01*
X10688659Y19261372D01*
X10638465Y19248993D01*
X10589245Y19229790D01*
X10562166Y19217357D01*
X10427706Y19135523D01*
X10325542Y19030421D01*
X10253071Y18898380D01*
X10207691Y18735727D01*
X10203516Y18711334D01*
X10198383Y18657491D01*
X10193749Y18565772D01*
X10189707Y18440632D01*
X10186353Y18286526D01*
X10183778Y18107911D01*
X10182079Y17909240D01*
X10181347Y17694969D01*
X10181326Y17658292D01*
X10181166Y16742834D01*
X9292166Y16742834D01*
X9292166Y20108334D01*
X10181166Y20108334D01*
X10181166Y19506047D01*
X10260541Y19641847D01*
X10381415Y19812704D01*
X10524931Y19953732D01*
X10686508Y20062064D01*
X10861562Y20134834D01*
X11045513Y20169173D01*
X11107208Y20171583D01*
X11218333Y20171834D01*
X11218333Y19272250D01*
G36*
X13618950Y20165405D02*
G01*
X13721177Y20155859D01*
X13822070Y20141358D01*
X13903614Y20124616D01*
X13920242Y20119984D01*
X14046074Y20067197D01*
X14172347Y19989242D01*
X14284618Y19896374D01*
X14364562Y19804523D01*
X14440325Y19695584D01*
X14584170Y19835811D01*
X14754923Y19976265D01*
X14940028Y20077835D01*
X15141575Y20141261D01*
X15361653Y20167283D01*
X15513660Y20164617D01*
X15707687Y20142562D01*
X15871099Y20101689D01*
X16012709Y20038597D01*
X16141329Y19949882D01*
X16197288Y19900723D01*
X16303146Y19785116D01*
X16384581Y19655421D01*
X16449935Y19498201D01*
X16453241Y19488451D01*
X16462310Y19460077D01*
X16470078Y19430811D01*
X16476669Y19397217D01*
X16482207Y19355859D01*
X16486815Y19303302D01*
X16490620Y19236108D01*
X16493743Y19150843D01*
X16496311Y19044070D01*
X16498447Y18912352D01*
X16500276Y18752254D01*
X16501921Y18560340D01*
X16503507Y18333174D01*
X16505158Y18067319D01*
X16505263Y18049875D01*
X16513123Y16742834D01*
X15623282Y16742834D01*
X15616849Y17922875D01*
X15610416Y19102917D01*
X15552236Y19201888D01*
X15500370Y19273604D01*
X15434631Y19326702D01*
X15377070Y19358095D01*
X15307908Y19388935D01*
X15249310Y19404740D01*
X15182803Y19408744D01*
X15107166Y19405345D01*
X14951230Y19380371D01*
X14824122Y19326053D01*
X14721743Y19239659D01*
X14640000Y19118457D01*
X14622009Y19081750D01*
X14611277Y19057865D01*
X14602228Y19034233D01*
X14594696Y19007169D01*
X14588515Y18972989D01*
X14583521Y18928008D01*
X14579548Y18868541D01*
X14576430Y18790902D01*
X14574001Y18691407D01*
X14572096Y18566371D01*
X14570549Y18412108D01*
X14569194Y18224934D01*
X14567867Y18001164D01*
X14567079Y17859375D01*
X14560909Y16742834D01*
X13673666Y16742834D01*
X13673201Y17912292D01*
X13673026Y18165774D01*
X13672644Y18380451D01*
X13671944Y18559849D01*
X13670817Y18707496D01*
X13669151Y18826919D01*
X13666837Y18921646D01*
X13663763Y18995204D01*
X13659819Y19051121D01*
X13654895Y19092924D01*
X13648880Y19124140D01*
X13641664Y19148296D01*
X13633880Y19167293D01*
X13564676Y19271479D01*
X13467337Y19348062D01*
X13347338Y19395180D01*
X13210155Y19410969D01*
X13061264Y19393564D01*
X13009326Y19379868D01*
X12886313Y19326416D01*
X12788631Y19244888D01*
X12710040Y19131921D01*
X12647083Y19018250D01*
X12636500Y17885834D01*
X12625916Y16753417D01*
X12176125Y16747705D01*
X11726333Y16741992D01*
X11726333Y20108334D01*
X12615333Y20108334D01*
X12615333Y19718076D01*
X12737041Y19837901D01*
X12903358Y19978766D01*
X13077403Y20079446D01*
X13264152Y20141788D01*
X13468585Y20167641D01*
X13618950Y20165405D01*
G37*
X13618950Y20165405D02*
X13721177Y20155859D01*
X13822070Y20141358D01*
X13903614Y20124616D01*
X13920242Y20119984D01*
X14046074Y20067197D01*
X14172347Y19989242D01*
X14284618Y19896374D01*
X14364562Y19804523D01*
X14440325Y19695584D01*
X14584170Y19835811D01*
X14754923Y19976265D01*
X14940028Y20077835D01*
X15141575Y20141261D01*
X15361653Y20167283D01*
X15513660Y20164617D01*
X15707687Y20142562D01*
X15871099Y20101689D01*
X16012709Y20038597D01*
X16141329Y19949882D01*
X16197288Y19900723D01*
X16303146Y19785116D01*
X16384581Y19655421D01*
X16449935Y19498201D01*
X16453241Y19488451D01*
X16462310Y19460077D01*
X16470078Y19430811D01*
X16476669Y19397217D01*
X16482207Y19355859D01*
X16486815Y19303302D01*
X16490620Y19236108D01*
X16493743Y19150843D01*
X16496311Y19044070D01*
X16498447Y18912352D01*
X16500276Y18752254D01*
X16501921Y18560340D01*
X16503507Y18333174D01*
X16505158Y18067319D01*
X16505263Y18049875D01*
X16513123Y16742834D01*
X15623282Y16742834D01*
X15616849Y17922875D01*
X15610416Y19102917D01*
X15552236Y19201888D01*
X15500370Y19273604D01*
X15434631Y19326702D01*
X15377070Y19358095D01*
X15307908Y19388935D01*
X15249310Y19404740D01*
X15182803Y19408744D01*
X15107166Y19405345D01*
X14951230Y19380371D01*
X14824122Y19326053D01*
X14721743Y19239659D01*
X14640000Y19118457D01*
X14622009Y19081750D01*
X14611277Y19057865D01*
X14602228Y19034233D01*
X14594696Y19007169D01*
X14588515Y18972989D01*
X14583521Y18928008D01*
X14579548Y18868541D01*
X14576430Y18790902D01*
X14574001Y18691407D01*
X14572096Y18566371D01*
X14570549Y18412108D01*
X14569194Y18224934D01*
X14567867Y18001164D01*
X14567079Y17859375D01*
X14560909Y16742834D01*
X13673666Y16742834D01*
X13673201Y17912292D01*
X13673026Y18165774D01*
X13672644Y18380451D01*
X13671944Y18559849D01*
X13670817Y18707496D01*
X13669151Y18826919D01*
X13666837Y18921646D01*
X13663763Y18995204D01*
X13659819Y19051121D01*
X13654895Y19092924D01*
X13648880Y19124140D01*
X13641664Y19148296D01*
X13633880Y19167293D01*
X13564676Y19271479D01*
X13467337Y19348062D01*
X13347338Y19395180D01*
X13210155Y19410969D01*
X13061264Y19393564D01*
X13009326Y19379868D01*
X12886313Y19326416D01*
X12788631Y19244888D01*
X12710040Y19131921D01*
X12647083Y19018250D01*
X12636500Y17885834D01*
X12625916Y16753417D01*
X12176125Y16747705D01*
X11726333Y16741992D01*
X11726333Y20108334D01*
X12615333Y20108334D01*
X12615333Y19718076D01*
X12737041Y19837901D01*
X12903358Y19978766D01*
X13077403Y20079446D01*
X13264152Y20141788D01*
X13468585Y20167641D01*
X13618950Y20165405D01*
G36*
X434302Y-17787005D02*
G01*
X516920Y-17816784D01*
X586137Y-17872195D01*
X593384Y-17880969D01*
X624943Y-17948524D01*
X637578Y-18035675D01*
X631570Y-18125960D01*
X607201Y-18202916D01*
X587375Y-18232192D01*
X520115Y-18284728D01*
X445891Y-18297461D01*
X397750Y-18288030D01*
X299956Y-18241551D01*
X216892Y-18169667D01*
X156888Y-18082274D01*
X128273Y-17989267D01*
X127000Y-17966399D01*
X145135Y-17892101D01*
X193700Y-17835407D01*
X263926Y-17797922D01*
X347049Y-17781253D01*
X434302Y-17787005D01*
G37*
X434302Y-17787005D02*
X516920Y-17816784D01*
X586137Y-17872195D01*
X593384Y-17880969D01*
X624943Y-17948524D01*
X637578Y-18035675D01*
X631570Y-18125960D01*
X607201Y-18202916D01*
X587375Y-18232192D01*
X520115Y-18284728D01*
X445891Y-18297461D01*
X397750Y-18288030D01*
X299956Y-18241551D01*
X216892Y-18169667D01*
X156888Y-18082274D01*
X128273Y-17989267D01*
X127000Y-17966399D01*
X145135Y-17892101D01*
X193700Y-17835407D01*
X263926Y-17797922D01*
X347049Y-17781253D01*
X434302Y-17787005D01*
G36*
X-1840523Y-17485753D02*
G01*
X-1763607Y-17543716D01*
X-1758469Y-17548787D01*
X-1711943Y-17607472D01*
X-1694377Y-17669334D01*
X-1693334Y-17695337D01*
X-1710013Y-17776530D01*
X-1753983Y-17848186D01*
X-1816144Y-17902474D01*
X-1887394Y-17931563D01*
X-1958632Y-17927622D01*
X-1961935Y-17926453D01*
X-2014462Y-17886385D01*
X-2048879Y-17819205D01*
X-2064756Y-17736267D01*
X-2061664Y-17648923D01*
X-2039171Y-17568527D01*
X-1996847Y-17506431D01*
X-1978407Y-17491860D01*
X-1911379Y-17468661D01*
X-1840523Y-17485753D01*
G37*
X-1840523Y-17485753D02*
X-1763607Y-17543716D01*
X-1758469Y-17548787D01*
X-1711943Y-17607472D01*
X-1694377Y-17669334D01*
X-1693334Y-17695337D01*
X-1710013Y-17776530D01*
X-1753983Y-17848186D01*
X-1816144Y-17902474D01*
X-1887394Y-17931563D01*
X-1958632Y-17927622D01*
X-1961935Y-17926453D01*
X-2014462Y-17886385D01*
X-2048879Y-17819205D01*
X-2064756Y-17736267D01*
X-2061664Y-17648923D01*
X-2039171Y-17568527D01*
X-1996847Y-17506431D01*
X-1978407Y-17491860D01*
X-1911379Y-17468661D01*
X-1840523Y-17485753D01*
G36*
X2881374Y-17471843D02*
G01*
X2940063Y-17520041D01*
X2962956Y-17589854D01*
X2949160Y-17679485D01*
X2928604Y-17730370D01*
X2873288Y-17810855D01*
X2797892Y-17872725D01*
X2712802Y-17910956D01*
X2628404Y-17920523D01*
X2568873Y-17904419D01*
X2514863Y-17855205D01*
X2484338Y-17781436D01*
X2479123Y-17694929D01*
X2501041Y-17607501D01*
X2517976Y-17574652D01*
X2588551Y-17496340D01*
X2680958Y-17453082D01*
X2787783Y-17447056D01*
X2881374Y-17471843D01*
G37*
X2881374Y-17471843D02*
X2940063Y-17520041D01*
X2962956Y-17589854D01*
X2949160Y-17679485D01*
X2928604Y-17730370D01*
X2873288Y-17810855D01*
X2797892Y-17872725D01*
X2712802Y-17910956D01*
X2628404Y-17920523D01*
X2568873Y-17904419D01*
X2514863Y-17855205D01*
X2484338Y-17781436D01*
X2479123Y-17694929D01*
X2501041Y-17607501D01*
X2517976Y-17574652D01*
X2588551Y-17496340D01*
X2680958Y-17453082D01*
X2787783Y-17447056D01*
X2881374Y-17471843D01*
G36*
X4888210Y-16607472D02*
G01*
X4899688Y-16611802D01*
X4962774Y-16663055D01*
X5001178Y-16746220D01*
X5013564Y-16857893D01*
X5011925Y-16897586D01*
X5003040Y-16975293D01*
X4986561Y-17025595D01*
X4956841Y-17063375D01*
X4944946Y-17074109D01*
X4867965Y-17115453D01*
X4784203Y-17118682D01*
X4730750Y-17099189D01*
X4686314Y-17068782D01*
X4634804Y-17026010D01*
X4630208Y-17021790D01*
X4584121Y-16952034D01*
X4571582Y-16865923D01*
X4593115Y-16773588D01*
X4615176Y-16730885D01*
X4669051Y-16671998D01*
X4741837Y-16627898D01*
X4819551Y-16604439D01*
X4888210Y-16607472D01*
G37*
X4888210Y-16607472D02*
X4899688Y-16611802D01*
X4962774Y-16663055D01*
X5001178Y-16746220D01*
X5013564Y-16857893D01*
X5011925Y-16897586D01*
X5003040Y-16975293D01*
X4986561Y-17025595D01*
X4956841Y-17063375D01*
X4944946Y-17074109D01*
X4867965Y-17115453D01*
X4784203Y-17118682D01*
X4730750Y-17099189D01*
X4686314Y-17068782D01*
X4634804Y-17026010D01*
X4630208Y-17021790D01*
X4584121Y-16952034D01*
X4571582Y-16865923D01*
X4593115Y-16773588D01*
X4615176Y-16730885D01*
X4669051Y-16671998D01*
X4741837Y-16627898D01*
X4819551Y-16604439D01*
X4888210Y-16607472D01*
G36*
X-3907145Y-16611238D02*
G01*
X-3865347Y-16624363D01*
X-3782033Y-16671610D01*
X-3737945Y-16734708D01*
X-3733117Y-16813604D01*
X-3735147Y-16823995D01*
X-3774249Y-16918982D01*
X-3840038Y-16992851D01*
X-3923630Y-17040331D01*
X-4016138Y-17056152D01*
X-4098426Y-17039474D01*
X-4154978Y-16997976D01*
X-4205374Y-16928807D01*
X-4240228Y-16846506D01*
X-4248664Y-16806740D01*
X-4251125Y-16746056D01*
X-4232751Y-16703370D01*
X-4202165Y-16671142D01*
X-4118897Y-16621011D01*
X-4016349Y-16600458D01*
X-3907145Y-16611238D01*
G37*
X-3907145Y-16611238D02*
X-3865347Y-16624363D01*
X-3782033Y-16671610D01*
X-3737945Y-16734708D01*
X-3733117Y-16813604D01*
X-3735147Y-16823995D01*
X-3774249Y-16918982D01*
X-3840038Y-16992851D01*
X-3923630Y-17040331D01*
X-4016138Y-17056152D01*
X-4098426Y-17039474D01*
X-4154978Y-16997976D01*
X-4205374Y-16928807D01*
X-4240228Y-16846506D01*
X-4248664Y-16806740D01*
X-4251125Y-16746056D01*
X-4232751Y-16703370D01*
X-4202165Y-16671142D01*
X-4118897Y-16621011D01*
X-4016349Y-16600458D01*
X-3907145Y-16611238D01*
G36*
X-5807088Y-15234541D02*
G01*
X-5771471Y-15247734D01*
X-5694954Y-15295851D01*
X-5638011Y-15362596D01*
X-5610363Y-15435674D01*
X-5609167Y-15452984D01*
X-5627956Y-15520199D01*
X-5682327Y-15568088D01*
X-5769288Y-15594763D01*
X-5842000Y-15599833D01*
X-5928991Y-15594256D01*
X-5989680Y-15575073D01*
X-6019063Y-15555963D01*
X-6062537Y-15499163D01*
X-6071057Y-15431728D01*
X-6047510Y-15362008D01*
X-5994780Y-15298349D01*
X-5915752Y-15249100D01*
X-5912530Y-15247734D01*
X-5855778Y-15229808D01*
X-5807088Y-15234541D01*
G37*
X-5807088Y-15234541D02*
X-5771471Y-15247734D01*
X-5694954Y-15295851D01*
X-5638011Y-15362596D01*
X-5610363Y-15435674D01*
X-5609167Y-15452984D01*
X-5627956Y-15520199D01*
X-5682327Y-15568088D01*
X-5769288Y-15594763D01*
X-5842000Y-15599833D01*
X-5928991Y-15594256D01*
X-5989680Y-15575073D01*
X-6019063Y-15555963D01*
X-6062537Y-15499163D01*
X-6071057Y-15431728D01*
X-6047510Y-15362008D01*
X-5994780Y-15298349D01*
X-5915752Y-15249100D01*
X-5912530Y-15247734D01*
X-5855778Y-15229808D01*
X-5807088Y-15234541D01*
G36*
X6794965Y-15155582D02*
G01*
X6834067Y-15197780D01*
X6859014Y-15266657D01*
X6866345Y-15347935D01*
X6857170Y-15412412D01*
X6813237Y-15504621D01*
X6740314Y-15566577D01*
X6640392Y-15596881D01*
X6590830Y-15599833D01*
X6515998Y-15596049D01*
X6466315Y-15581122D01*
X6424995Y-15549692D01*
X6420755Y-15545513D01*
X6383441Y-15497582D01*
X6375959Y-15449130D01*
X6379428Y-15426233D01*
X6415967Y-15324162D01*
X6476956Y-15238964D01*
X6554761Y-15175610D01*
X6641751Y-15139072D01*
X6730291Y-15134321D01*
X6794965Y-15155582D01*
G37*
X6794965Y-15155582D02*
X6834067Y-15197780D01*
X6859014Y-15266657D01*
X6866345Y-15347935D01*
X6857170Y-15412412D01*
X6813237Y-15504621D01*
X6740314Y-15566577D01*
X6640392Y-15596881D01*
X6590830Y-15599833D01*
X6515998Y-15596049D01*
X6466315Y-15581122D01*
X6424995Y-15549692D01*
X6420755Y-15545513D01*
X6383441Y-15497582D01*
X6375959Y-15449130D01*
X6379428Y-15426233D01*
X6415967Y-15324162D01*
X6476956Y-15238964D01*
X6554761Y-15175610D01*
X6641751Y-15139072D01*
X6730291Y-15134321D01*
X6794965Y-15155582D01*
G36*
X-7126522Y-13306913D02*
G01*
X-7105317Y-13317290D01*
X-7032871Y-13377650D01*
X-6988880Y-13460154D01*
X-6973827Y-13555174D01*
X-6988192Y-13653084D01*
X-7032455Y-13744256D01*
X-7081282Y-13798733D01*
X-7157681Y-13849807D01*
X-7227090Y-13860208D01*
X-7293932Y-13830030D01*
X-7323739Y-13803851D01*
X-7380926Y-13719083D01*
X-7403464Y-13620751D01*
X-7392068Y-13518560D01*
X-7347453Y-13422216D01*
X-7290919Y-13358129D01*
X-7228799Y-13310991D01*
X-7178473Y-13294903D01*
X-7126522Y-13306913D01*
G37*
X-7126522Y-13306913D02*
X-7105317Y-13317290D01*
X-7032871Y-13377650D01*
X-6988880Y-13460154D01*
X-6973827Y-13555174D01*
X-6988192Y-13653084D01*
X-7032455Y-13744256D01*
X-7081282Y-13798733D01*
X-7157681Y-13849807D01*
X-7227090Y-13860208D01*
X-7293932Y-13830030D01*
X-7323739Y-13803851D01*
X-7380926Y-13719083D01*
X-7403464Y-13620751D01*
X-7392068Y-13518560D01*
X-7347453Y-13422216D01*
X-7290919Y-13358129D01*
X-7228799Y-13310991D01*
X-7178473Y-13294903D01*
X-7126522Y-13306913D01*
G36*
X8198884Y-13308524D02*
G01*
X8266565Y-13360984D01*
X8312946Y-13440447D01*
X8334983Y-13535724D01*
X8329631Y-13635621D01*
X8306734Y-13704919D01*
X8252375Y-13783295D01*
X8180504Y-13836992D01*
X8101314Y-13860683D01*
X8028259Y-13850415D01*
X7987413Y-13815246D01*
X7950196Y-13752072D01*
X7923147Y-13675119D01*
X7912805Y-13599206D01*
X7931452Y-13485741D01*
X7985262Y-13392159D01*
X8068642Y-13325363D01*
X8125298Y-13299790D01*
X8167581Y-13297547D01*
X8198884Y-13308524D01*
G37*
X8198884Y-13308524D02*
X8266565Y-13360984D01*
X8312946Y-13440447D01*
X8334983Y-13535724D01*
X8329631Y-13635621D01*
X8306734Y-13704919D01*
X8252375Y-13783295D01*
X8180504Y-13836992D01*
X8101314Y-13860683D01*
X8028259Y-13850415D01*
X7987413Y-13815246D01*
X7950196Y-13752072D01*
X7923147Y-13675119D01*
X7912805Y-13599206D01*
X7931452Y-13485741D01*
X7985262Y-13392159D01*
X8068642Y-13325363D01*
X8125298Y-13299790D01*
X8167581Y-13297547D01*
X8198884Y-13308524D01*
G36*
X-8025830Y-11270337D02*
G01*
X-7936064Y-11306085D01*
X-7874945Y-11371836D01*
X-7862664Y-11396787D01*
X-7845706Y-11487543D01*
X-7866194Y-11576303D01*
X-7919763Y-11654446D01*
X-8002047Y-11713353D01*
X-8028837Y-11724923D01*
X-8088043Y-11743132D01*
X-8135668Y-11742057D01*
X-8194617Y-11720701D01*
X-8202084Y-11717381D01*
X-8298766Y-11657440D01*
X-8360746Y-11584707D01*
X-8388933Y-11506077D01*
X-8384236Y-11428446D01*
X-8347562Y-11358709D01*
X-8279822Y-11303762D01*
X-8181923Y-11270500D01*
X-8142514Y-11265404D01*
X-8025830Y-11270337D01*
G37*
X-8025830Y-11270337D02*
X-7936064Y-11306085D01*
X-7874945Y-11371836D01*
X-7862664Y-11396787D01*
X-7845706Y-11487543D01*
X-7866194Y-11576303D01*
X-7919763Y-11654446D01*
X-8002047Y-11713353D01*
X-8028837Y-11724923D01*
X-8088043Y-11743132D01*
X-8135668Y-11742057D01*
X-8194617Y-11720701D01*
X-8202084Y-11717381D01*
X-8298766Y-11657440D01*
X-8360746Y-11584707D01*
X-8388933Y-11506077D01*
X-8384236Y-11428446D01*
X-8347562Y-11358709D01*
X-8279822Y-11303762D01*
X-8181923Y-11270500D01*
X-8142514Y-11265404D01*
X-8025830Y-11270337D01*
G36*
X9080545Y-11235410D02*
G01*
X9143117Y-11273544D01*
X9180144Y-11330405D01*
X9186333Y-11370129D01*
X9166533Y-11473019D01*
X9112599Y-11566766D01*
X9032725Y-11641779D01*
X8935107Y-11688467D01*
X8909092Y-11694552D01*
X8847126Y-11698421D01*
X8798394Y-11677149D01*
X8776085Y-11659293D01*
X8725133Y-11589518D01*
X8705791Y-11504352D01*
X8716557Y-11414784D01*
X8755929Y-11331798D01*
X8822405Y-11266381D01*
X8830517Y-11261209D01*
X8915149Y-11226458D01*
X9001524Y-11218786D01*
X9080545Y-11235410D01*
G37*
X9080545Y-11235410D02*
X9143117Y-11273544D01*
X9180144Y-11330405D01*
X9186333Y-11370129D01*
X9166533Y-11473019D01*
X9112599Y-11566766D01*
X9032725Y-11641779D01*
X8935107Y-11688467D01*
X8909092Y-11694552D01*
X8847126Y-11698421D01*
X8798394Y-11677149D01*
X8776085Y-11659293D01*
X8725133Y-11589518D01*
X8705791Y-11504352D01*
X8716557Y-11414784D01*
X8755929Y-11331798D01*
X8822405Y-11266381D01*
X8830517Y-11261209D01*
X8915149Y-11226458D01*
X9001524Y-11218786D01*
X9080545Y-11235410D01*
G36*
X620612Y-6864922D02*
G01*
X822378Y-6886495D01*
X1001075Y-6923141D01*
X1026583Y-6930375D01*
X1315461Y-7037249D01*
X1580878Y-7178670D01*
X1821355Y-7353006D01*
X2035413Y-7558625D01*
X2221570Y-7793893D01*
X2378349Y-8057178D01*
X2504268Y-8346849D01*
X2597848Y-8661273D01*
X2598629Y-8664594D01*
X2618387Y-8752742D01*
X2632835Y-8830103D01*
X2642785Y-8906194D01*
X2649046Y-8990534D01*
X2652430Y-9092643D01*
X2653748Y-9222038D01*
X2653884Y-9313333D01*
X2651315Y-9508989D01*
X2641855Y-9678031D01*
X2622739Y-9826243D01*
X2591199Y-9959407D01*
X2544468Y-10083305D01*
X2479779Y-10203720D01*
X2394366Y-10326434D01*
X2285460Y-10457230D01*
X2150295Y-10601890D01*
X1986105Y-10766196D01*
X1934611Y-10816453D01*
X1787361Y-10956356D01*
X1661547Y-11067994D01*
X1551454Y-11155586D01*
X1451366Y-11223348D01*
X1355570Y-11275495D01*
X1258350Y-11316245D01*
X1256115Y-11317059D01*
X1123147Y-11353807D01*
X957600Y-11381008D01*
X768295Y-11397950D01*
X564053Y-11403920D01*
X353697Y-11398207D01*
X296333Y-11394521D01*
X149908Y-11378648D01*
X-15214Y-11352301D01*
X-181902Y-11318769D01*
X-333026Y-11281345D01*
X-404656Y-11259853D01*
X-644123Y-11168926D01*
X-853698Y-11060174D01*
X-1044409Y-10926619D01*
X-1227283Y-10761285D01*
X-1281895Y-10704838D01*
X-1466585Y-10479032D01*
X-1615844Y-10233914D01*
X-1729720Y-9973267D01*
X-1808259Y-9700876D01*
X-1851507Y-9420525D01*
X-1859513Y-9135998D01*
X-1832321Y-8851080D01*
X-1769980Y-8569554D01*
X-1672535Y-8295206D01*
X-1540034Y-8031819D01*
X-1372524Y-7783178D01*
X-1243912Y-7630192D01*
X-1016008Y-7410456D01*
X-766138Y-7223790D01*
X-498220Y-7072469D01*
X-216171Y-6958768D01*
X20884Y-6895618D01*
X205466Y-6868986D01*
X410175Y-6858920D01*
X620612Y-6864922D01*
G37*
X620612Y-6864922D02*
X822378Y-6886495D01*
X1001075Y-6923141D01*
X1026583Y-6930375D01*
X1315461Y-7037249D01*
X1580878Y-7178670D01*
X1821355Y-7353006D01*
X2035413Y-7558625D01*
X2221570Y-7793893D01*
X2378349Y-8057178D01*
X2504268Y-8346849D01*
X2597848Y-8661273D01*
X2598629Y-8664594D01*
X2618387Y-8752742D01*
X2632835Y-8830103D01*
X2642785Y-8906194D01*
X2649046Y-8990534D01*
X2652430Y-9092643D01*
X2653748Y-9222038D01*
X2653884Y-9313333D01*
X2651315Y-9508989D01*
X2641855Y-9678031D01*
X2622739Y-9826243D01*
X2591199Y-9959407D01*
X2544468Y-10083305D01*
X2479779Y-10203720D01*
X2394366Y-10326434D01*
X2285460Y-10457230D01*
X2150295Y-10601890D01*
X1986105Y-10766196D01*
X1934611Y-10816453D01*
X1787361Y-10956356D01*
X1661547Y-11067994D01*
X1551454Y-11155586D01*
X1451366Y-11223348D01*
X1355570Y-11275495D01*
X1258350Y-11316245D01*
X1256115Y-11317059D01*
X1123147Y-11353807D01*
X957600Y-11381008D01*
X768295Y-11397950D01*
X564053Y-11403920D01*
X353697Y-11398207D01*
X296333Y-11394521D01*
X149908Y-11378648D01*
X-15214Y-11352301D01*
X-181902Y-11318769D01*
X-333026Y-11281345D01*
X-404656Y-11259853D01*
X-644123Y-11168926D01*
X-853698Y-11060174D01*
X-1044409Y-10926619D01*
X-1227283Y-10761285D01*
X-1281895Y-10704838D01*
X-1466585Y-10479032D01*
X-1615844Y-10233914D01*
X-1729720Y-9973267D01*
X-1808259Y-9700876D01*
X-1851507Y-9420525D01*
X-1859513Y-9135998D01*
X-1832321Y-8851080D01*
X-1769980Y-8569554D01*
X-1672535Y-8295206D01*
X-1540034Y-8031819D01*
X-1372524Y-7783178D01*
X-1243912Y-7630192D01*
X-1016008Y-7410456D01*
X-766138Y-7223790D01*
X-498220Y-7072469D01*
X-216171Y-6958768D01*
X20884Y-6895618D01*
X205466Y-6868986D01*
X410175Y-6858920D01*
X620612Y-6864922D01*
G36*
X-8342017Y-8931514D02*
G01*
X-8329710Y-8938295D01*
X-8246089Y-9001305D01*
X-8186556Y-9077566D01*
X-8153654Y-9159034D01*
X-8149927Y-9237665D01*
X-8177916Y-9305415D01*
X-8204938Y-9332963D01*
X-8283115Y-9369552D01*
X-8376086Y-9375615D01*
X-8469534Y-9351363D01*
X-8511162Y-9328475D01*
X-8577700Y-9261335D01*
X-8616477Y-9175176D01*
X-8625804Y-9081813D01*
X-8603988Y-8993063D01*
X-8567097Y-8937625D01*
X-8507156Y-8898379D01*
X-8433076Y-8896339D01*
X-8342017Y-8931514D01*
G37*
X-8342017Y-8931514D02*
X-8329710Y-8938295D01*
X-8246089Y-9001305D01*
X-8186556Y-9077566D01*
X-8153654Y-9159034D01*
X-8149927Y-9237665D01*
X-8177916Y-9305415D01*
X-8204938Y-9332963D01*
X-8283115Y-9369552D01*
X-8376086Y-9375615D01*
X-8469534Y-9351363D01*
X-8511162Y-9328475D01*
X-8577700Y-9261335D01*
X-8616477Y-9175176D01*
X-8625804Y-9081813D01*
X-8603988Y-8993063D01*
X-8567097Y-8937625D01*
X-8507156Y-8898379D01*
X-8433076Y-8896339D01*
X-8342017Y-8931514D01*
G36*
X9273711Y-8906388D02*
G01*
X9352716Y-8949167D01*
X9425085Y-9008759D01*
X9472382Y-9068517D01*
X9514785Y-9162624D01*
X9520376Y-9240531D01*
X9489169Y-9306919D01*
X9473045Y-9324878D01*
X9406772Y-9364301D01*
X9321673Y-9379245D01*
X9233736Y-9369319D01*
X9158949Y-9334129D01*
X9157014Y-9332631D01*
X9093478Y-9263917D01*
X9054814Y-9183255D01*
X9040171Y-9098909D01*
X9048700Y-9019145D01*
X9079550Y-8952231D01*
X9131871Y-8906432D01*
X9202548Y-8890000D01*
X9273711Y-8906388D01*
G37*
X9273711Y-8906388D02*
X9352716Y-8949167D01*
X9425085Y-9008759D01*
X9472382Y-9068517D01*
X9514785Y-9162624D01*
X9520376Y-9240531D01*
X9489169Y-9306919D01*
X9473045Y-9324878D01*
X9406772Y-9364301D01*
X9321673Y-9379245D01*
X9233736Y-9369319D01*
X9158949Y-9334129D01*
X9157014Y-9332631D01*
X9093478Y-9263917D01*
X9054814Y-9183255D01*
X9040171Y-9098909D01*
X9048700Y-9019145D01*
X9079550Y-8952231D01*
X9131871Y-8906432D01*
X9202548Y-8890000D01*
X9273711Y-8906388D01*
G36*
X-8051173Y-6718369D02*
G01*
X-7962990Y-6743619D01*
X-7895198Y-6788827D01*
X-7871152Y-6820989D01*
X-7847636Y-6906258D01*
X-7857627Y-6997545D01*
X-7896740Y-7081985D01*
X-7960592Y-7146717D01*
X-7987392Y-7162062D01*
X-8077848Y-7192303D01*
X-8160085Y-7187859D01*
X-8234164Y-7157474D01*
X-8322410Y-7093075D01*
X-8375361Y-7017032D01*
X-8392922Y-6936302D01*
X-8374999Y-6857846D01*
X-8321499Y-6788622D01*
X-8239805Y-6738661D01*
X-8147521Y-6715806D01*
X-8051173Y-6718369D01*
G37*
X-8051173Y-6718369D02*
X-7962990Y-6743619D01*
X-7895198Y-6788827D01*
X-7871152Y-6820989D01*
X-7847636Y-6906258D01*
X-7857627Y-6997545D01*
X-7896740Y-7081985D01*
X-7960592Y-7146717D01*
X-7987392Y-7162062D01*
X-8077848Y-7192303D01*
X-8160085Y-7187859D01*
X-8234164Y-7157474D01*
X-8322410Y-7093075D01*
X-8375361Y-7017032D01*
X-8392922Y-6936302D01*
X-8374999Y-6857846D01*
X-8321499Y-6788622D01*
X-8239805Y-6738661D01*
X-8147521Y-6715806D01*
X-8051173Y-6718369D01*
G36*
X9005576Y-6676007D02*
G01*
X9092212Y-6698556D01*
X9153757Y-6728944D01*
X9199168Y-6763667D01*
X9209679Y-6777405D01*
X9224953Y-6847310D01*
X9208783Y-6927312D01*
X9166350Y-7006285D01*
X9102840Y-7073103D01*
X9058515Y-7101839D01*
X8967258Y-7130146D01*
X8879008Y-7117076D01*
X8845951Y-7101767D01*
X8793486Y-7056659D01*
X8747272Y-6989091D01*
X8715085Y-6914243D01*
X8704698Y-6847294D01*
X8707094Y-6830624D01*
X8745849Y-6755895D01*
X8814015Y-6703330D01*
X8903340Y-6675758D01*
X9005576Y-6676007D01*
G37*
X9005576Y-6676007D02*
X9092212Y-6698556D01*
X9153757Y-6728944D01*
X9199168Y-6763667D01*
X9209679Y-6777405D01*
X9224953Y-6847310D01*
X9208783Y-6927312D01*
X9166350Y-7006285D01*
X9102840Y-7073103D01*
X9058515Y-7101839D01*
X8967258Y-7130146D01*
X8879008Y-7117076D01*
X8845951Y-7101767D01*
X8793486Y-7056659D01*
X8747272Y-6989091D01*
X8715085Y-6914243D01*
X8704698Y-6847294D01*
X8707094Y-6830624D01*
X8745849Y-6755895D01*
X8814015Y-6703330D01*
X8903340Y-6675758D01*
X9005576Y-6676007D01*
G36*
X-7052541Y-4512985D02*
G01*
X-7005308Y-4541027D01*
X-6970597Y-4598348D01*
X-6966593Y-4671533D01*
X-6989800Y-4751496D01*
X-7036726Y-4829153D01*
X-7103874Y-4895419D01*
X-7153614Y-4926541D01*
X-7227941Y-4959811D01*
X-7282472Y-4970666D01*
X-7332217Y-4960781D01*
X-7358294Y-4949410D01*
X-7414915Y-4901142D01*
X-7444442Y-4831171D01*
X-7448185Y-4749185D01*
X-7427454Y-4664869D01*
X-7383558Y-4587912D01*
X-7317807Y-4528001D01*
X-7299929Y-4517753D01*
X-7222442Y-4494895D01*
X-7134063Y-4493773D01*
X-7052541Y-4512985D01*
G37*
X-7052541Y-4512985D02*
X-7005308Y-4541027D01*
X-6970597Y-4598348D01*
X-6966593Y-4671533D01*
X-6989800Y-4751496D01*
X-7036726Y-4829153D01*
X-7103874Y-4895419D01*
X-7153614Y-4926541D01*
X-7227941Y-4959811D01*
X-7282472Y-4970666D01*
X-7332217Y-4960781D01*
X-7358294Y-4949410D01*
X-7414915Y-4901142D01*
X-7444442Y-4831171D01*
X-7448185Y-4749185D01*
X-7427454Y-4664869D01*
X-7383558Y-4587912D01*
X-7317807Y-4528001D01*
X-7299929Y-4517753D01*
X-7222442Y-4494895D01*
X-7134063Y-4493773D01*
X-7052541Y-4512985D01*
G36*
X8105631Y-4538585D02*
G01*
X8167533Y-4590750D01*
X8213273Y-4659220D01*
X8233551Y-4735871D01*
X8233833Y-4745688D01*
X8218371Y-4823686D01*
X8177591Y-4890009D01*
X8119901Y-4940211D01*
X8053710Y-4969844D01*
X7987426Y-4974464D01*
X7929458Y-4949622D01*
X7903299Y-4920480D01*
X7874259Y-4848480D01*
X7865405Y-4761963D01*
X7874742Y-4672940D01*
X7900277Y-4593420D01*
X7940013Y-4535412D01*
X7970530Y-4515662D01*
X8036863Y-4510848D01*
X8105631Y-4538585D01*
G37*
X8105631Y-4538585D02*
X8167533Y-4590750D01*
X8213273Y-4659220D01*
X8233551Y-4735871D01*
X8233833Y-4745688D01*
X8218371Y-4823686D01*
X8177591Y-4890009D01*
X8119901Y-4940211D01*
X8053710Y-4969844D01*
X7987426Y-4974464D01*
X7929458Y-4949622D01*
X7903299Y-4920480D01*
X7874259Y-4848480D01*
X7865405Y-4761963D01*
X7874742Y-4672940D01*
X7900277Y-4593420D01*
X7940013Y-4535412D01*
X7970530Y-4515662D01*
X8036863Y-4510848D01*
X8105631Y-4538585D01*
G36*
X-5769278Y-2648158D02*
G01*
X-5683715Y-2691603D01*
X-5623340Y-2762232D01*
X-5591789Y-2850794D01*
X-5592702Y-2948033D01*
X-5620109Y-3027526D01*
X-5678172Y-3097402D01*
X-5759363Y-3139674D01*
X-5852666Y-3151763D01*
X-5947066Y-3131093D01*
X-5983525Y-3112553D01*
X-6048257Y-3061439D01*
X-6083453Y-2999109D01*
X-6095718Y-2912625D01*
X-6096000Y-2892265D01*
X-6077251Y-2793904D01*
X-6026141Y-2714966D01*
X-5950376Y-2661206D01*
X-5857663Y-2638384D01*
X-5769278Y-2648158D01*
G37*
X-5769278Y-2648158D02*
X-5683715Y-2691603D01*
X-5623340Y-2762232D01*
X-5591789Y-2850794D01*
X-5592702Y-2948033D01*
X-5620109Y-3027526D01*
X-5678172Y-3097402D01*
X-5759363Y-3139674D01*
X-5852666Y-3151763D01*
X-5947066Y-3131093D01*
X-5983525Y-3112553D01*
X-6048257Y-3061439D01*
X-6083453Y-2999109D01*
X-6095718Y-2912625D01*
X-6096000Y-2892265D01*
X-6077251Y-2793904D01*
X-6026141Y-2714966D01*
X-5950376Y-2661206D01*
X-5857663Y-2638384D01*
X-5769278Y-2648158D01*
G36*
X6728175Y-2645257D02*
G01*
X6791877Y-2676442D01*
X6797236Y-2681495D01*
X6843216Y-2754357D01*
X6866000Y-2848252D01*
X6865374Y-2948659D01*
X6841124Y-3041058D01*
X6803421Y-3100709D01*
X6736509Y-3144088D01*
X6654600Y-3151764D01*
X6566080Y-3123327D01*
X6548262Y-3113234D01*
X6464758Y-3043626D01*
X6420929Y-2962274D01*
X6417649Y-2871874D01*
X6444930Y-2794617D01*
X6499257Y-2722825D01*
X6571490Y-2671780D01*
X6651254Y-2644814D01*
X6728175Y-2645257D01*
G37*
X6728175Y-2645257D02*
X6791877Y-2676442D01*
X6797236Y-2681495D01*
X6843216Y-2754357D01*
X6866000Y-2848252D01*
X6865374Y-2948659D01*
X6841124Y-3041058D01*
X6803421Y-3100709D01*
X6736509Y-3144088D01*
X6654600Y-3151764D01*
X6566080Y-3123327D01*
X6548262Y-3113234D01*
X6464758Y-3043626D01*
X6420929Y-2962274D01*
X6417649Y-2871874D01*
X6444930Y-2794617D01*
X6499257Y-2722825D01*
X6571490Y-2671780D01*
X6651254Y-2644814D01*
X6728175Y-2645257D01*
G36*
X4982989Y-1361510D02*
G01*
X5017979Y-1381508D01*
X5086170Y-1447552D01*
X5113864Y-1525451D01*
X5100557Y-1613313D01*
X5087858Y-1642617D01*
X5025453Y-1731138D01*
X4945636Y-1788566D01*
X4856108Y-1811496D01*
X4764568Y-1796524D01*
X4751916Y-1791157D01*
X4668248Y-1737717D01*
X4604130Y-1667777D01*
X4568214Y-1592118D01*
X4563533Y-1556517D01*
X4582476Y-1476157D01*
X4633472Y-1410448D01*
X4707771Y-1362759D01*
X4796623Y-1336460D01*
X4891279Y-1334921D01*
X4982989Y-1361510D01*
G37*
X4982989Y-1361510D02*
X5017979Y-1381508D01*
X5086170Y-1447552D01*
X5113864Y-1525451D01*
X5100557Y-1613313D01*
X5087858Y-1642617D01*
X5025453Y-1731138D01*
X4945636Y-1788566D01*
X4856108Y-1811496D01*
X4764568Y-1796524D01*
X4751916Y-1791157D01*
X4668248Y-1737717D01*
X4604130Y-1667777D01*
X4568214Y-1592118D01*
X4563533Y-1556517D01*
X4582476Y-1476157D01*
X4633472Y-1410448D01*
X4707771Y-1362759D01*
X4796623Y-1336460D01*
X4891279Y-1334921D01*
X4982989Y-1361510D01*
G36*
X-3898232Y-1303960D02*
G01*
X-3816524Y-1332741D01*
X-3758828Y-1377725D01*
X-3748204Y-1393816D01*
X-3727985Y-1451333D01*
X-3733350Y-1512001D01*
X-3760681Y-1581508D01*
X-3821923Y-1663979D01*
X-3909518Y-1716997D01*
X-4014183Y-1735587D01*
X-4076069Y-1729880D01*
X-4122322Y-1706243D01*
X-4167335Y-1661195D01*
X-4229225Y-1570330D01*
X-4252618Y-1485093D01*
X-4237552Y-1409244D01*
X-4184067Y-1346544D01*
X-4163974Y-1332922D01*
X-4084304Y-1302242D01*
X-3991608Y-1293191D01*
X-3898232Y-1303960D01*
G37*
X-3898232Y-1303960D02*
X-3816524Y-1332741D01*
X-3758828Y-1377725D01*
X-3748204Y-1393816D01*
X-3727985Y-1451333D01*
X-3733350Y-1512001D01*
X-3760681Y-1581508D01*
X-3821923Y-1663979D01*
X-3909518Y-1716997D01*
X-4014183Y-1735587D01*
X-4076069Y-1729880D01*
X-4122322Y-1706243D01*
X-4167335Y-1661195D01*
X-4229225Y-1570330D01*
X-4252618Y-1485093D01*
X-4237552Y-1409244D01*
X-4184067Y-1346544D01*
X-4163974Y-1332922D01*
X-4084304Y-1302242D01*
X-3991608Y-1293191D01*
X-3898232Y-1303960D01*
G36*
X-1720531Y-358297D02*
G01*
X-1659294Y-411145D01*
X-1613383Y-488139D01*
X-1589453Y-580211D01*
X-1587500Y-615246D01*
X-1603312Y-709333D01*
X-1645769Y-792270D01*
X-1707405Y-857316D01*
X-1780751Y-897727D01*
X-1858343Y-906763D01*
X-1898908Y-896415D01*
X-1939274Y-861604D01*
X-1976439Y-799026D01*
X-2003701Y-723103D01*
X-2014361Y-648258D01*
X-2014362Y-647882D01*
X-2000143Y-551431D01*
X-1961920Y-463291D01*
X-1906339Y-392643D01*
X-1840049Y-348666D01*
X-1790439Y-338666D01*
X-1720531Y-358297D01*
G37*
X-1720531Y-358297D02*
X-1659294Y-411145D01*
X-1613383Y-488139D01*
X-1589453Y-580211D01*
X-1587500Y-615246D01*
X-1603312Y-709333D01*
X-1645769Y-792270D01*
X-1707405Y-857316D01*
X-1780751Y-897727D01*
X-1858343Y-906763D01*
X-1898908Y-896415D01*
X-1939274Y-861604D01*
X-1976439Y-799026D01*
X-2003701Y-723103D01*
X-2014361Y-648258D01*
X-2014362Y-647882D01*
X-2000143Y-551431D01*
X-1961920Y-463291D01*
X-1906339Y-392643D01*
X-1840049Y-348666D01*
X-1790439Y-338666D01*
X-1720531Y-358297D01*
G36*
X2850724Y-373858D02*
G01*
X2867420Y-388996D01*
X2928056Y-477178D01*
X2953676Y-578479D01*
X2944751Y-682938D01*
X2901750Y-780592D01*
X2845884Y-844733D01*
X2769486Y-895807D01*
X2700077Y-906208D01*
X2633235Y-876030D01*
X2603428Y-849851D01*
X2546241Y-765083D01*
X2523702Y-666751D01*
X2535098Y-564560D01*
X2579714Y-468216D01*
X2636248Y-404129D01*
X2714217Y-352769D01*
X2785140Y-342716D01*
X2850724Y-373858D01*
G37*
X2850724Y-373858D02*
X2867420Y-388996D01*
X2928056Y-477178D01*
X2953676Y-578479D01*
X2944751Y-682938D01*
X2901750Y-780592D01*
X2845884Y-844733D01*
X2769486Y-895807D01*
X2700077Y-906208D01*
X2633235Y-876030D01*
X2603428Y-849851D01*
X2546241Y-765083D01*
X2523702Y-666751D01*
X2535098Y-564560D01*
X2579714Y-468216D01*
X2636248Y-404129D01*
X2714217Y-352769D01*
X2785140Y-342716D01*
X2850724Y-373858D01*
G36*
X445013Y-118841D02*
G01*
X500441Y-140437D01*
X573880Y-194405D01*
X618027Y-274540D01*
X634742Y-384470D01*
X635000Y-402743D01*
X630772Y-474924D01*
X613459Y-524342D01*
X576118Y-570118D01*
X573128Y-573128D01*
X505835Y-621833D01*
X435251Y-631569D01*
X352626Y-603452D01*
X349250Y-601713D01*
X252101Y-536526D01*
X181699Y-459675D01*
X139475Y-377531D01*
X126863Y-296462D01*
X145294Y-222839D01*
X196203Y-163031D01*
X244440Y-135791D01*
X347575Y-108408D01*
X445013Y-118841D01*
G37*
X445013Y-118841D02*
X500441Y-140437D01*
X573880Y-194405D01*
X618027Y-274540D01*
X634742Y-384470D01*
X635000Y-402743D01*
X630772Y-474924D01*
X613459Y-524342D01*
X576118Y-570118D01*
X573128Y-573128D01*
X505835Y-621833D01*
X435251Y-631569D01*
X352626Y-603452D01*
X349250Y-601713D01*
X252101Y-536526D01*
X181699Y-459675D01*
X139475Y-377531D01*
X126863Y-296462D01*
X145294Y-222839D01*
X196203Y-163031D01*
X244440Y-135791D01*
X347575Y-108408D01*
X445013Y-118841D01*
M02*
