G04 #@! TF.GenerationSoftware,KiCad,Pcbnew,5.1.5+dfsg1-2build2*
G04 #@! TF.CreationDate,2021-04-12T21:18:55-04:00*
G04 #@! TF.ProjectId,sheep_tile,73686565-705f-4746-996c-652e6b696361,rev?*
G04 #@! TF.SameCoordinates,Original*
G04 #@! TF.FileFunction,Legend,Top*
G04 #@! TF.FilePolarity,Positive*
%FSLAX46Y46*%
G04 Gerber Fmt 4.6, Leading zero omitted, Abs format (unit mm)*
G04 Created by KiCad (PCBNEW 5.1.5+dfsg1-2build2) date 2021-04-12 21:18:55*
%MOMM*%
%LPD*%
G04 APERTURE LIST*
%ADD10C,0.010000*%
G04 APERTURE END LIST*
D10*
G36*
X-14786434Y18027654D02*
G01*
X-14378560Y18002898D01*
X-13975099Y17951560D01*
X-13573229Y17872570D01*
X-13170128Y17764856D01*
X-12762975Y17627348D01*
X-12348949Y17458976D01*
X-11925228Y17258668D01*
X-11488991Y17025354D01*
X-11037416Y16757964D01*
X-10567681Y16455426D01*
X-10469817Y16389597D01*
X-10227018Y16222708D01*
X-9993989Y16057145D01*
X-9767440Y15890095D01*
X-9544082Y15718741D01*
X-9320624Y15540270D01*
X-9093776Y15351868D01*
X-8860249Y15150718D01*
X-8616753Y14934007D01*
X-8359997Y14698920D01*
X-8086692Y14442642D01*
X-7793547Y14162358D01*
X-7477272Y13855255D01*
X-7270515Y13652500D01*
X-7009668Y13396662D01*
X-6775286Y13168573D01*
X-6564409Y12965547D01*
X-6374081Y12784896D01*
X-6201342Y12623933D01*
X-6043234Y12479971D01*
X-5896799Y12350323D01*
X-5759079Y12232301D01*
X-5627115Y12123217D01*
X-5497949Y12020386D01*
X-5368622Y11921119D01*
X-5344583Y11903036D01*
X-4993974Y11653459D01*
X-4633954Y11424283D01*
X-4262689Y11215160D01*
X-3878346Y11025745D01*
X-3479090Y10855689D01*
X-3063088Y10704647D01*
X-2628506Y10572270D01*
X-2173510Y10458213D01*
X-1696266Y10362128D01*
X-1194941Y10283668D01*
X-667700Y10222486D01*
X-112709Y10178235D01*
X471865Y10150569D01*
X1087856Y10139140D01*
X1737098Y10143601D01*
X2421425Y10163606D01*
X3142671Y10198807D01*
X3534834Y10223129D01*
X3842488Y10243209D01*
X4114415Y10260199D01*
X4357092Y10274344D01*
X4576992Y10285887D01*
X4780593Y10295072D01*
X4974369Y10302143D01*
X5164795Y10307344D01*
X5358348Y10310918D01*
X5561501Y10313109D01*
X5780732Y10314161D01*
X5958417Y10314349D01*
X6304656Y10313086D01*
X6616794Y10309186D01*
X6902999Y10302324D01*
X7171438Y10292178D01*
X7430281Y10278421D01*
X7687696Y10260731D01*
X7951851Y10238781D01*
X8022167Y10232381D01*
X8722247Y10154686D01*
X9388184Y10054095D01*
X10021727Y9930160D01*
X10624624Y9782435D01*
X11198624Y9610470D01*
X11745476Y9413819D01*
X12266927Y9192034D01*
X12477750Y9091788D01*
X12812917Y8920344D01*
X13118897Y8748185D01*
X13403422Y8569729D01*
X13674225Y8379394D01*
X13939039Y8171599D01*
X14205596Y7940761D01*
X14481630Y7681300D01*
X14617355Y7547362D01*
X15063626Y7100994D01*
X15358188Y6945396D01*
X15769897Y6709515D01*
X16147396Y6454209D01*
X16495794Y6175746D01*
X16795562Y5895345D01*
X17135334Y5523387D01*
X17443550Y5123295D01*
X17720135Y4695235D01*
X17965014Y4239374D01*
X18178111Y3755880D01*
X18359352Y3244920D01*
X18508663Y2706662D01*
X18625967Y2141273D01*
X18700050Y1642772D01*
X18717241Y1443655D01*
X18714386Y1276054D01*
X18690095Y1133483D01*
X18642981Y1009457D01*
X18571655Y897493D01*
X18529853Y847723D01*
X18413609Y745101D01*
X18284519Y682071D01*
X18138625Y656837D01*
X18108107Y656166D01*
X17999359Y663514D01*
X17903476Y688228D01*
X17814957Y734315D01*
X17728300Y805782D01*
X17638003Y906634D01*
X17538564Y1040879D01*
X17497865Y1100542D01*
X17447178Y1175200D01*
X17384189Y1266583D01*
X17313250Y1368533D01*
X17238709Y1474892D01*
X17164916Y1579501D01*
X17096220Y1676203D01*
X17036971Y1758837D01*
X16991519Y1821248D01*
X16964212Y1857274D01*
X16959596Y1862666D01*
X16956150Y1854767D01*
X16961482Y1830916D01*
X16968205Y1792350D01*
X16977505Y1716496D01*
X16988928Y1608291D01*
X17002021Y1472672D01*
X17016332Y1314576D01*
X17031408Y1138939D01*
X17046796Y950699D01*
X17062043Y754793D01*
X17070203Y645583D01*
X17105981Y111075D01*
X17132763Y-396483D01*
X17150470Y-874285D01*
X17159027Y-1319524D01*
X17158356Y-1729393D01*
X17148380Y-2101085D01*
X17146787Y-2137834D01*
X17124339Y-2537129D01*
X17093888Y-2902968D01*
X17054192Y-3243682D01*
X17004011Y-3567604D01*
X16942104Y-3883068D01*
X16867230Y-4198405D01*
X16806352Y-4423834D01*
X16716573Y-4755208D01*
X16643483Y-5057460D01*
X16585730Y-5339765D01*
X16541965Y-5611298D01*
X16510837Y-5881236D01*
X16490997Y-6158753D01*
X16481095Y-6453025D01*
X16479356Y-6646334D01*
X16486529Y-7035745D01*
X16510112Y-7399491D01*
X16551859Y-7747455D01*
X16613526Y-8089519D01*
X16696869Y-8435566D01*
X16803644Y-8795479D01*
X16923165Y-9144806D01*
X17037453Y-9474395D01*
X17131074Y-9774144D01*
X17205258Y-10050447D01*
X17261230Y-10309698D01*
X17300218Y-10558289D01*
X17323450Y-10802615D01*
X17332153Y-11049067D01*
X17329209Y-11260150D01*
X17321098Y-11434526D01*
X17308805Y-11580924D01*
X17290732Y-11713622D01*
X17265278Y-11846898D01*
X17261584Y-11863917D01*
X17190839Y-12211923D01*
X17122837Y-12598999D01*
X17057541Y-13025475D01*
X16994917Y-13491684D01*
X16934928Y-13997958D01*
X16877539Y-14544629D01*
X16822714Y-15132029D01*
X16770418Y-15760489D01*
X16720615Y-16430342D01*
X16673269Y-17141920D01*
X16644752Y-17610667D01*
X16608051Y-18235084D01*
X16698161Y-18632174D01*
X16736921Y-18806199D01*
X16765941Y-18945962D01*
X16785994Y-19058210D01*
X16797852Y-19149689D01*
X16802290Y-19227144D01*
X16800079Y-19297321D01*
X16791994Y-19366968D01*
X16786338Y-19401699D01*
X16736861Y-19586516D01*
X16658195Y-19752001D01*
X16554299Y-19893884D01*
X16429133Y-20007898D01*
X16286660Y-20089774D01*
X16130837Y-20135243D01*
X16102098Y-20139184D01*
X16060320Y-20142875D01*
X15980589Y-20148883D01*
X15867206Y-20156920D01*
X15724471Y-20166695D01*
X15556684Y-20177920D01*
X15368146Y-20190307D01*
X15163156Y-20203565D01*
X14946016Y-20217405D01*
X14823759Y-20225112D01*
X14551500Y-20241951D01*
X14318566Y-20255772D01*
X14122066Y-20266692D01*
X13959109Y-20274829D01*
X13826805Y-20280301D01*
X13722260Y-20283226D01*
X13642585Y-20283722D01*
X13584888Y-20281907D01*
X13546278Y-20277899D01*
X13543176Y-20277349D01*
X13369735Y-20224116D01*
X13207372Y-20133822D01*
X13060773Y-20011253D01*
X12934624Y-19861197D01*
X12833613Y-19688438D01*
X12762426Y-19497766D01*
X12755965Y-19473334D01*
X12726549Y-19356917D01*
X12184961Y-19364529D01*
X12016911Y-19366663D01*
X11884897Y-19367549D01*
X11782628Y-19366850D01*
X11703817Y-19364231D01*
X11642175Y-19359352D01*
X11591413Y-19351878D01*
X11545243Y-19341472D01*
X11497375Y-19327796D01*
X11496908Y-19327654D01*
X11323311Y-19253572D01*
X11168457Y-19145098D01*
X11034781Y-19006908D01*
X10924718Y-18843676D01*
X10840702Y-18660076D01*
X10785167Y-18460783D01*
X10760549Y-18250472D01*
X10769282Y-18033816D01*
X10781328Y-17953673D01*
X10805145Y-17849691D01*
X10837899Y-17741549D01*
X10872771Y-17651588D01*
X10875018Y-17646756D01*
X10901766Y-17597153D01*
X10948739Y-17517715D01*
X11012597Y-17413777D01*
X11089999Y-17290674D01*
X11177607Y-17153740D01*
X11272079Y-17008308D01*
X11329213Y-16921393D01*
X11425042Y-16775658D01*
X11515204Y-16637385D01*
X11596541Y-16511507D01*
X11665892Y-16402958D01*
X11720098Y-16316671D01*
X11756000Y-16257580D01*
X11767805Y-16236524D01*
X11804880Y-16144397D01*
X11837736Y-16028294D01*
X11862105Y-15906571D01*
X11873718Y-15797584D01*
X11874133Y-15779269D01*
X11870068Y-15733922D01*
X11856399Y-15683194D01*
X11831469Y-15625003D01*
X11793624Y-15557269D01*
X11741211Y-15477912D01*
X11672575Y-15384851D01*
X11586061Y-15276006D01*
X11480014Y-15149296D01*
X11352782Y-15002641D01*
X11202708Y-14833960D01*
X11028139Y-14641172D01*
X10827420Y-14422197D01*
X10598897Y-14174955D01*
X10595307Y-14171084D01*
X10301761Y-13853273D01*
X10035506Y-13562236D01*
X9793901Y-13294809D01*
X9574307Y-13047827D01*
X9374085Y-12818125D01*
X9190594Y-12602538D01*
X9021196Y-12397904D01*
X8863249Y-12201056D01*
X8714116Y-12008830D01*
X8571156Y-11818063D01*
X8431729Y-11625589D01*
X8293196Y-11428244D01*
X8226783Y-11331651D01*
X8054448Y-11070561D01*
X7884327Y-10795924D01*
X7720566Y-10515304D01*
X7567311Y-10236267D01*
X7428709Y-9966375D01*
X7308907Y-9713195D01*
X7212051Y-9484289D01*
X7206860Y-9470979D01*
X7171929Y-9382725D01*
X7141461Y-9309096D01*
X7119285Y-9259153D01*
X7110372Y-9242659D01*
X7085820Y-9242196D01*
X7029216Y-9253554D01*
X6948544Y-9274798D01*
X6851788Y-9303989D01*
X6833892Y-9309739D01*
X6037305Y-9550747D01*
X5250341Y-9753522D01*
X4467037Y-9919189D01*
X3681429Y-10048875D01*
X2887552Y-10143704D01*
X2097963Y-10203784D01*
X1925007Y-10211199D01*
X1720270Y-10216333D01*
X1491019Y-10219278D01*
X1244520Y-10220124D01*
X988041Y-10218964D01*
X728848Y-10215888D01*
X474209Y-10210989D01*
X231390Y-10204356D01*
X7658Y-10196083D01*
X-189720Y-10186259D01*
X-353476Y-10174978D01*
X-381000Y-10172604D01*
X-593804Y-10152483D01*
X-814524Y-10129775D01*
X-1037073Y-10105242D01*
X-1255366Y-10079648D01*
X-1463319Y-10053755D01*
X-1654845Y-10028327D01*
X-1823861Y-10004127D01*
X-1964281Y-9981918D01*
X-2070019Y-9962463D01*
X-2088865Y-9958442D01*
X-2109184Y-9958634D01*
X-2131348Y-9971690D01*
X-2159305Y-10002584D01*
X-2197004Y-10056288D01*
X-2248393Y-10137775D01*
X-2303464Y-10228726D01*
X-2619972Y-10770258D01*
X-2904351Y-11286461D01*
X-3157289Y-11778744D01*
X-3379477Y-12248515D01*
X-3571605Y-12697185D01*
X-3734361Y-13126162D01*
X-3765313Y-13215162D01*
X-3910973Y-13669962D01*
X-4032165Y-14114080D01*
X-4131497Y-14559518D01*
X-4211575Y-15018279D01*
X-4275005Y-15502366D01*
X-4287767Y-15621000D01*
X-4297469Y-15735922D01*
X-4306309Y-15881404D01*
X-4314200Y-16051536D01*
X-4321057Y-16240404D01*
X-4326794Y-16442098D01*
X-4331327Y-16650705D01*
X-4334569Y-16860315D01*
X-4336435Y-17065014D01*
X-4336839Y-17258891D01*
X-4335697Y-17436034D01*
X-4332923Y-17590532D01*
X-4328430Y-17716472D01*
X-4322134Y-17807944D01*
X-4319702Y-17829140D01*
X-4291371Y-17981720D01*
X-4244057Y-18151567D01*
X-4176222Y-18343086D01*
X-4086326Y-18560681D01*
X-3991239Y-18769820D01*
X-3936048Y-18890712D01*
X-3884681Y-19009669D01*
X-3841214Y-19116771D01*
X-3809725Y-19202097D01*
X-3797794Y-19240500D01*
X-3774255Y-19367650D01*
X-3762264Y-19519367D01*
X-3761863Y-19679480D01*
X-3773091Y-19831816D01*
X-3795981Y-19960167D01*
X-3866796Y-20164837D01*
X-3966557Y-20351494D01*
X-4091044Y-20515731D01*
X-4236037Y-20653141D01*
X-4397317Y-20759320D01*
X-4570664Y-20829861D01*
X-4646083Y-20847807D01*
X-4699184Y-20852280D01*
X-4788491Y-20853448D01*
X-4908023Y-20851566D01*
X-5051804Y-20846889D01*
X-5213853Y-20839672D01*
X-5388194Y-20830169D01*
X-5568847Y-20818636D01*
X-5749833Y-20805327D01*
X-5864831Y-20795844D01*
X-6004078Y-20783818D01*
X-6030935Y-20874701D01*
X-6095258Y-21036184D01*
X-6190124Y-21200096D01*
X-6307285Y-21355670D01*
X-6438491Y-21492141D01*
X-6575491Y-21598741D01*
X-6595088Y-21610924D01*
X-6685553Y-21659314D01*
X-6789400Y-21706321D01*
X-6856776Y-21732086D01*
X-6892364Y-21743517D01*
X-6929118Y-21753249D01*
X-6970044Y-21761270D01*
X-7018155Y-21767567D01*
X-7076457Y-21772129D01*
X-7147962Y-21774942D01*
X-7235678Y-21775996D01*
X-7342614Y-21775277D01*
X-7471779Y-21772773D01*
X-7626184Y-21768472D01*
X-7808838Y-21762361D01*
X-8022748Y-21754429D01*
X-8270926Y-21744663D01*
X-8556380Y-21733050D01*
X-8768922Y-21724275D01*
X-9042387Y-21712931D01*
X-9277034Y-21702907D01*
X-9476337Y-21693665D01*
X-9643772Y-21684667D01*
X-9782813Y-21675376D01*
X-9896934Y-21665253D01*
X-9989610Y-21653760D01*
X-10064316Y-21640360D01*
X-10124525Y-21624515D01*
X-10173714Y-21605687D01*
X-10215356Y-21583339D01*
X-10252925Y-21556932D01*
X-10289897Y-21525928D01*
X-10329747Y-21489791D01*
X-10339106Y-21481225D01*
X-10460355Y-21342685D01*
X-10552426Y-21178947D01*
X-10612725Y-20997755D01*
X-10638663Y-20806855D01*
X-10628183Y-20617423D01*
X-10604644Y-20501507D01*
X-10569138Y-20393194D01*
X-10517238Y-20283136D01*
X-10444517Y-20161987D01*
X-10346546Y-20020397D01*
X-10343251Y-20015847D01*
X-10195585Y-19807140D01*
X-10055082Y-19598872D01*
X-9924598Y-19395845D01*
X-9806995Y-19202859D01*
X-9705129Y-19024716D01*
X-9621861Y-18866216D01*
X-9560049Y-18732161D01*
X-9528626Y-18647834D01*
X-9515593Y-18593707D01*
X-9498237Y-18501750D01*
X-9477123Y-18376181D01*
X-9452816Y-18221219D01*
X-9425879Y-18041084D01*
X-9396879Y-17839995D01*
X-9366379Y-17622171D01*
X-9334944Y-17391831D01*
X-9303139Y-17153195D01*
X-9271529Y-16910481D01*
X-9240678Y-16667910D01*
X-9211152Y-16429699D01*
X-9183514Y-16200069D01*
X-9158331Y-15983239D01*
X-9136165Y-15783427D01*
X-9117583Y-15604854D01*
X-9107916Y-15504584D01*
X-9096212Y-15350345D01*
X-9086529Y-15166204D01*
X-9078867Y-14958413D01*
X-9073228Y-14733227D01*
X-9069612Y-14496900D01*
X-9068021Y-14255686D01*
X-9068454Y-14015839D01*
X-9070913Y-13783613D01*
X-9075399Y-13565261D01*
X-9081911Y-13367038D01*
X-9090452Y-13195198D01*
X-9101021Y-13055995D01*
X-9107606Y-12996334D01*
X-9136678Y-12779749D01*
X-9164792Y-12593570D01*
X-9194116Y-12425985D01*
X-9226816Y-12265179D01*
X-9265061Y-12099342D01*
X-9292367Y-11989367D01*
X-9375772Y-11695892D01*
X-9474511Y-11417863D01*
X-9594143Y-11141230D01*
X-9740227Y-10851940D01*
X-9748087Y-10837334D01*
X-9957758Y-10436836D01*
X-10142809Y-10056973D01*
X-10307682Y-9687600D01*
X-10456820Y-9318569D01*
X-10594664Y-8939734D01*
X-10648148Y-8781636D01*
X-10687679Y-8657095D01*
X-10731949Y-8508692D01*
X-10778993Y-8343884D01*
X-10826845Y-8170125D01*
X-10873540Y-7994873D01*
X-10917111Y-7825582D01*
X-10955594Y-7669709D01*
X-10987022Y-7534710D01*
X-11009431Y-7428040D01*
X-11018091Y-7378351D01*
X-11024381Y-7342539D01*
X-11034397Y-7312296D01*
X-11052977Y-7282571D01*
X-11084964Y-7248314D01*
X-11135195Y-7204473D01*
X-11208512Y-7145996D01*
X-11309755Y-7067834D01*
X-11331935Y-7050810D01*
X-11771160Y-6697785D01*
X-12171183Y-6341655D01*
X-12534347Y-5978834D01*
X-12862998Y-5605734D01*
X-13159478Y-5218767D01*
X-13426132Y-4814346D01*
X-13665303Y-4388884D01*
X-13879336Y-3938794D01*
X-14070574Y-3460488D01*
X-14241361Y-2950378D01*
X-14394041Y-2404878D01*
X-14410850Y-2338493D01*
X-14458951Y-2141542D01*
X-14507579Y-1932013D01*
X-14557622Y-1705638D01*
X-14609967Y-1458148D01*
X-14665502Y-1185276D01*
X-14725113Y-882752D01*
X-14789690Y-546309D01*
X-14849120Y-230610D01*
X-14886275Y-34235D01*
X-14925669Y169572D01*
X-14965523Y371914D01*
X-15004062Y563895D01*
X-15039506Y736615D01*
X-15070079Y881179D01*
X-15083382Y941916D01*
X-15185192Y1381340D01*
X-15294843Y1821762D01*
X-15410972Y2258879D01*
X-15532214Y2688388D01*
X-15657203Y3105985D01*
X-15784576Y3507369D01*
X-15912967Y3888234D01*
X-16041013Y4244277D01*
X-16167347Y4571197D01*
X-16290606Y4864688D01*
X-16406808Y5115134D01*
X-16481907Y5262546D01*
X-16549302Y5379955D01*
X-16616464Y5476878D01*
X-16690865Y5562830D01*
X-16779976Y5647328D01*
X-16891268Y5739890D01*
X-16907374Y5752709D01*
X-17023850Y5843298D01*
X-17159412Y5945732D01*
X-17309153Y6056558D01*
X-17468169Y6172324D01*
X-17631556Y6289576D01*
X-17794407Y6404860D01*
X-17951819Y6514723D01*
X-18098886Y6615713D01*
X-18230704Y6704375D01*
X-18342366Y6777257D01*
X-18428969Y6830905D01*
X-18476542Y6857467D01*
X-18650846Y6925471D01*
X-18854346Y6969701D01*
X-19080628Y6989278D01*
X-19323282Y6983324D01*
X-19367500Y6979539D01*
X-19596239Y6965947D01*
X-19793891Y6972232D01*
X-19967047Y6998972D01*
X-20118916Y7045419D01*
X-20321785Y7146565D01*
X-20509941Y7284367D01*
X-20678347Y7454269D01*
X-20821969Y7651714D01*
X-20859254Y7715250D01*
X-20898813Y7795487D01*
X-20946714Y7906831D01*
X-20999494Y8039735D01*
X-21053694Y8184651D01*
X-21105850Y8332032D01*
X-21152503Y8472330D01*
X-21190190Y8595998D01*
X-21215451Y8693488D01*
X-21217675Y8703899D01*
X-21239354Y8854855D01*
X-21249301Y9029187D01*
X-21248670Y9092688D01*
X-20277066Y9092688D01*
X-20260652Y8974846D01*
X-20223046Y8833205D01*
X-20179832Y8705580D01*
X-20121120Y8547950D01*
X-20070457Y8425323D01*
X-20024091Y8332047D01*
X-19978274Y8262469D01*
X-19929256Y8210935D01*
X-19873286Y8171793D01*
X-19806616Y8139390D01*
X-19803365Y8138025D01*
X-19763790Y8123745D01*
X-19722315Y8115630D01*
X-19669563Y8113445D01*
X-19596157Y8116956D01*
X-19492720Y8125927D01*
X-19457320Y8129364D01*
X-19115261Y8145130D01*
X-18791405Y8123188D01*
X-18484430Y8063390D01*
X-18279922Y7999308D01*
X-18193106Y7965350D01*
X-18107759Y7926494D01*
X-18017804Y7879195D01*
X-17917165Y7819906D01*
X-17799763Y7745080D01*
X-17659521Y7651173D01*
X-17526000Y7559370D01*
X-17219083Y7346687D01*
X-17204027Y7446302D01*
X-17195751Y7503217D01*
X-17183302Y7591518D01*
X-17168153Y7700634D01*
X-17151778Y7819996D01*
X-17145870Y7863416D01*
X-17058221Y8369560D01*
X-16935820Y8853939D01*
X-16779054Y9315591D01*
X-16588312Y9753551D01*
X-16363982Y10166856D01*
X-16106451Y10554541D01*
X-16012771Y10678583D01*
X-15915583Y10795749D01*
X-15792654Y10932057D01*
X-15651158Y11080030D01*
X-15498269Y11232188D01*
X-15385110Y11339411D01*
X-14134696Y11339411D01*
X-13814223Y11352131D01*
X-13669475Y11360487D01*
X-13523126Y11373495D01*
X-13390116Y11389611D01*
X-13290498Y11406236D01*
X-12941119Y11497412D01*
X-12609502Y11624401D01*
X-12299146Y11785520D01*
X-12013552Y11979087D01*
X-11890549Y12079343D01*
X-11802237Y12159216D01*
X-11724906Y12235929D01*
X-11663382Y12303994D01*
X-11622489Y12357922D01*
X-11607051Y12392223D01*
X-11609249Y12399387D01*
X-11638961Y12407632D01*
X-11703504Y12412940D01*
X-11795491Y12415504D01*
X-11907537Y12415519D01*
X-12032255Y12413180D01*
X-12162258Y12408681D01*
X-12290160Y12402216D01*
X-12408576Y12393980D01*
X-12510118Y12384166D01*
X-12583146Y12373757D01*
X-12720061Y12346604D01*
X-12872438Y12312397D01*
X-13034470Y12272819D01*
X-13200350Y12229556D01*
X-13364272Y12184290D01*
X-13520429Y12138706D01*
X-13663014Y12094489D01*
X-13786221Y12053321D01*
X-13884243Y12016888D01*
X-13951273Y11986873D01*
X-13978136Y11969173D01*
X-13995427Y11933852D01*
X-14010971Y11871764D01*
X-14018867Y11817970D01*
X-14031394Y11736962D01*
X-14052721Y11635466D01*
X-14078614Y11533271D01*
X-14083239Y11516997D01*
X-14134696Y11339411D01*
X-15385110Y11339411D01*
X-15341162Y11381053D01*
X-15322113Y11398573D01*
X-15174755Y11559541D01*
X-15066637Y11736050D01*
X-14998062Y11927365D01*
X-14969328Y12132752D01*
X-14970960Y12256884D01*
X-14999515Y12433200D01*
X-15060493Y12582638D01*
X-15154210Y12705531D01*
X-15280987Y12802209D01*
X-15441142Y12873007D01*
X-15599833Y12912384D01*
X-15710572Y12927372D01*
X-15816269Y12929717D01*
X-15923725Y12917782D01*
X-16039741Y12889928D01*
X-16171118Y12844515D01*
X-16324657Y12779906D01*
X-16507159Y12694462D01*
X-16510000Y12693087D01*
X-16765489Y12576893D01*
X-16998106Y12488022D01*
X-17215584Y12424547D01*
X-17425652Y12384541D01*
X-17636044Y12366076D01*
X-17822333Y12365926D01*
X-17970536Y12374439D01*
X-18093633Y12390900D01*
X-18208641Y12419063D01*
X-18332578Y12462680D01*
X-18416069Y12496882D01*
X-18426113Y12492242D01*
X-18444221Y12471649D01*
X-18471507Y12433207D01*
X-18509085Y12375020D01*
X-18558069Y12295194D01*
X-18619574Y12191833D01*
X-18694713Y12063042D01*
X-18784601Y11906924D01*
X-18890351Y11721586D01*
X-19013079Y11505131D01*
X-19153898Y11255664D01*
X-19313923Y10971289D01*
X-19336819Y10930547D01*
X-19471374Y10690828D01*
X-19600305Y10460642D01*
X-19722048Y10242806D01*
X-19835043Y10040137D01*
X-19937726Y9855453D01*
X-20028537Y9691570D01*
X-20105912Y9551308D01*
X-20168290Y9437483D01*
X-20214108Y9352912D01*
X-20241805Y9300413D01*
X-20249598Y9284194D01*
X-20273108Y9193535D01*
X-20277066Y9092688D01*
X-21248670Y9092688D01*
X-21247508Y9209592D01*
X-21233964Y9378767D01*
X-21218097Y9478267D01*
X-21192539Y9581457D01*
X-21156735Y9698655D01*
X-21118183Y9805433D01*
X-21116038Y9810750D01*
X-21095530Y9854139D01*
X-21055776Y9931427D01*
X-20998388Y10039674D01*
X-20924979Y10175940D01*
X-20837160Y10337286D01*
X-20736543Y10520771D01*
X-20624740Y10723457D01*
X-20503362Y10942402D01*
X-20374023Y11174668D01*
X-20238333Y11417315D01*
X-20101590Y11660853D01*
X-19155967Y13341622D01*
X-19218120Y13535653D01*
X-19293755Y13835977D01*
X-19335637Y14153720D01*
X-19343426Y14460719D01*
X-18369235Y14460719D01*
X-18365321Y14265903D01*
X-18340850Y14081649D01*
X-18296431Y13914335D01*
X-18232671Y13770340D01*
X-18150178Y13656039D01*
X-18116156Y13623511D01*
X-18003104Y13552845D01*
X-17865651Y13513838D01*
X-17703290Y13506565D01*
X-17515514Y13531102D01*
X-17301815Y13587523D01*
X-17061685Y13675905D01*
X-16794618Y13796322D01*
X-16727356Y13829546D01*
X-16526626Y13922926D01*
X-16344603Y13990554D01*
X-16169281Y14035810D01*
X-15988654Y14062076D01*
X-15873111Y14070109D01*
X-15671753Y14072136D01*
X-15492655Y14056697D01*
X-15318572Y14021546D01*
X-15176500Y13979437D01*
X-14930042Y13876670D01*
X-14705824Y13739363D01*
X-14507464Y13569945D01*
X-14413697Y13467539D01*
X-14356481Y13394336D01*
X-14298085Y13311357D01*
X-14246248Y13230446D01*
X-14208710Y13163445D01*
X-14196267Y13134837D01*
X-14174936Y13134138D01*
X-14120691Y13145563D01*
X-14040582Y13167273D01*
X-13941662Y13197431D01*
X-13883876Y13216259D01*
X-13422022Y13356118D01*
X-12981692Y13460884D01*
X-12561148Y13530836D01*
X-12158653Y13566252D01*
X-11772472Y13567410D01*
X-11711198Y13564384D01*
X-11461526Y13542418D01*
X-11249040Y13506530D01*
X-11070644Y13455811D01*
X-10923238Y13389348D01*
X-10803726Y13306230D01*
X-10788881Y13293064D01*
X-10661925Y13150125D01*
X-10571475Y12986439D01*
X-10517237Y12801301D01*
X-10498919Y12594005D01*
X-10498918Y12593322D01*
X-10518863Y12383165D01*
X-10577636Y12167262D01*
X-10672669Y11948725D01*
X-10801392Y11730668D01*
X-10961237Y11516203D01*
X-11149636Y11308441D01*
X-11364021Y11110496D01*
X-11601822Y10925479D01*
X-11860471Y10756503D01*
X-12137400Y10606680D01*
X-12139083Y10605859D01*
X-12518728Y10444269D01*
X-12913707Y10322096D01*
X-13323577Y10239477D01*
X-13358642Y10234346D01*
X-13538751Y10215575D01*
X-13744717Y10205535D01*
X-13965888Y10203861D01*
X-14191613Y10210189D01*
X-14411242Y10224154D01*
X-14614125Y10245391D01*
X-14789610Y10273536D01*
X-14843514Y10285169D01*
X-14923278Y10303884D01*
X-15103808Y10110234D01*
X-15327134Y9848669D01*
X-15520722Y9572799D01*
X-15693723Y9269669D01*
X-15855167Y8924526D01*
X-15987509Y8568971D01*
X-16091990Y8197891D01*
X-16169850Y7806172D01*
X-16222330Y7388701D01*
X-16249141Y6980490D01*
X-16262570Y6647896D01*
X-16093423Y6483073D01*
X-15989173Y6374247D01*
X-15893637Y6257775D01*
X-15802111Y6126585D01*
X-15709895Y5973609D01*
X-15612285Y5791777D01*
X-15547307Y5662083D01*
X-15418939Y5385024D01*
X-15286704Y5070178D01*
X-15151930Y4721770D01*
X-15015945Y4344028D01*
X-14880076Y3941178D01*
X-14745654Y3517445D01*
X-14614005Y3077056D01*
X-14486459Y2624236D01*
X-14364342Y2163213D01*
X-14248985Y1698212D01*
X-14141715Y1233459D01*
X-14110308Y1090083D01*
X-14082215Y957146D01*
X-14048311Y791837D01*
X-14010436Y603423D01*
X-13970431Y401169D01*
X-13930135Y194340D01*
X-13891390Y-7798D01*
X-13874859Y-95250D01*
X-13805634Y-460319D01*
X-13742291Y-787550D01*
X-13683902Y-1080885D01*
X-13629537Y-1344268D01*
X-13578267Y-1581641D01*
X-13529164Y-1796949D01*
X-13481298Y-1994135D01*
X-13433741Y-2177141D01*
X-13385564Y-2349911D01*
X-13335837Y-2516387D01*
X-13283633Y-2680514D01*
X-13228021Y-2846235D01*
X-13224148Y-2857500D01*
X-13056731Y-3300590D01*
X-12869423Y-3711686D01*
X-12658349Y-4096841D01*
X-12419631Y-4462105D01*
X-12149393Y-4813532D01*
X-11843761Y-5157173D01*
X-11583897Y-5418323D01*
X-11490299Y-5507812D01*
X-11407529Y-5585920D01*
X-11340213Y-5648364D01*
X-11292976Y-5690865D01*
X-11270446Y-5709141D01*
X-11269251Y-5709473D01*
X-11268807Y-5687296D01*
X-11272536Y-5632822D01*
X-11279697Y-5555798D01*
X-11284154Y-5513514D01*
X-11290898Y-5429401D01*
X-11297094Y-5309359D01*
X-11302671Y-5159787D01*
X-11307555Y-4987087D01*
X-11311675Y-4797660D01*
X-11314957Y-4597906D01*
X-11317330Y-4394226D01*
X-11318720Y-4193021D01*
X-11319055Y-4000692D01*
X-11318262Y-3823640D01*
X-11316269Y-3668266D01*
X-11313004Y-3540969D01*
X-11308393Y-3448152D01*
X-11307675Y-3438745D01*
X-11296132Y-3316686D01*
X-11282920Y-3226274D01*
X-11265837Y-3156828D01*
X-11242681Y-3097664D01*
X-11233503Y-3078911D01*
X-11151121Y-2955544D01*
X-11050666Y-2866195D01*
X-10937796Y-2811711D01*
X-10818168Y-2792939D01*
X-10697437Y-2810723D01*
X-10581262Y-2865910D01*
X-10475298Y-2959345D01*
X-10470550Y-2964825D01*
X-10434046Y-3009498D01*
X-10404625Y-3052725D01*
X-10381627Y-3099443D01*
X-10364394Y-3154587D01*
X-10352268Y-3223091D01*
X-10344589Y-3309893D01*
X-10340700Y-3419925D01*
X-10339942Y-3558125D01*
X-10341657Y-3729427D01*
X-10344634Y-3908499D01*
X-10346312Y-4472065D01*
X-10329681Y-5008124D01*
X-10293758Y-5527792D01*
X-10237561Y-6042188D01*
X-10160107Y-6562428D01*
X-10064323Y-7080250D01*
X-9937176Y-7648459D01*
X-9789614Y-8186132D01*
X-9618713Y-8701282D01*
X-9421549Y-9201926D01*
X-9195197Y-9696078D01*
X-8936733Y-10191752D01*
X-8914309Y-10232202D01*
X-8706236Y-10647695D01*
X-8528215Y-11092662D01*
X-8380419Y-11566587D01*
X-8263022Y-12068953D01*
X-8223000Y-12287250D01*
X-8194452Y-12459558D01*
X-8170516Y-12614225D01*
X-8150793Y-12757277D01*
X-8134883Y-12894744D01*
X-8122387Y-13032654D01*
X-8112905Y-13177034D01*
X-8106037Y-13333912D01*
X-8101383Y-13509316D01*
X-8098545Y-13709275D01*
X-8097123Y-13939816D01*
X-8096718Y-14192250D01*
X-8097223Y-14439893D01*
X-8099106Y-14668307D01*
X-8102750Y-14881955D01*
X-8108536Y-15085299D01*
X-8116847Y-15282802D01*
X-8128064Y-15478925D01*
X-8142570Y-15678132D01*
X-8160745Y-15884885D01*
X-8182972Y-16103646D01*
X-8209633Y-16338877D01*
X-8241109Y-16595042D01*
X-8277783Y-16876602D01*
X-8320036Y-17188020D01*
X-8368249Y-17533758D01*
X-8404612Y-17790584D01*
X-8440990Y-18045160D01*
X-8472469Y-18261903D01*
X-8499846Y-18444929D01*
X-8523917Y-18598354D01*
X-8545480Y-18726294D01*
X-8565329Y-18832864D01*
X-8584262Y-18922180D01*
X-8603075Y-18998359D01*
X-8622565Y-19065515D01*
X-8643527Y-19127764D01*
X-8666759Y-19189223D01*
X-8683135Y-19229917D01*
X-8742468Y-19362634D01*
X-8821630Y-19521391D01*
X-8915828Y-19697792D01*
X-9020264Y-19883441D01*
X-9130145Y-20069945D01*
X-9240675Y-20248907D01*
X-9347058Y-20411933D01*
X-9411592Y-20505209D01*
X-9445497Y-20552834D01*
X-9268290Y-20554554D01*
X-9207891Y-20555858D01*
X-9110907Y-20558849D01*
X-8983043Y-20563311D01*
X-8830004Y-20569030D01*
X-8657495Y-20575790D01*
X-8471221Y-20583377D01*
X-8276887Y-20591577D01*
X-8223250Y-20593890D01*
X-7978212Y-20604629D01*
X-7771920Y-20613744D01*
X-7600810Y-20621122D01*
X-7461321Y-20626649D01*
X-7349892Y-20630212D01*
X-7262961Y-20631696D01*
X-7196966Y-20630988D01*
X-7148346Y-20627975D01*
X-7113538Y-20622541D01*
X-7088981Y-20614575D01*
X-7071113Y-20603962D01*
X-7056373Y-20590589D01*
X-7041198Y-20574341D01*
X-7022514Y-20555557D01*
X-6934666Y-20473614D01*
X-7022094Y-20253932D01*
X-7122301Y-19966549D01*
X-7202858Y-19661982D01*
X-7242148Y-19462750D01*
X-7257295Y-19334716D01*
X-7266561Y-19168883D01*
X-7270198Y-18969343D01*
X-7269956Y-18937504D01*
X-6302149Y-18937504D01*
X-6300327Y-19022975D01*
X-6295975Y-19096222D01*
X-6289209Y-19161528D01*
X-6287170Y-19177000D01*
X-6270695Y-19283354D01*
X-6251216Y-19387943D01*
X-6230659Y-19482479D01*
X-6210952Y-19558674D01*
X-6194023Y-19608240D01*
X-6183385Y-19623230D01*
X-6147325Y-19626497D01*
X-6075853Y-19631830D01*
X-5975816Y-19638795D01*
X-5854062Y-19646958D01*
X-5717439Y-19655886D01*
X-5572794Y-19665144D01*
X-5426975Y-19674301D01*
X-5286829Y-19682921D01*
X-5159203Y-19690571D01*
X-5050945Y-19696818D01*
X-4968903Y-19701229D01*
X-4919924Y-19703368D01*
X-4916446Y-19703455D01*
X-4841531Y-19703086D01*
X-4796362Y-19695751D01*
X-4768488Y-19677906D01*
X-4752235Y-19656707D01*
X-4741494Y-19636857D01*
X-4737460Y-19614299D01*
X-4742077Y-19582947D01*
X-4757287Y-19536720D01*
X-4785034Y-19469531D01*
X-4827261Y-19375298D01*
X-4875816Y-19269769D01*
X-5021345Y-18935849D01*
X-5136723Y-18628708D01*
X-5222717Y-18346209D01*
X-5252879Y-18222791D01*
X-5264041Y-18171811D01*
X-5273377Y-18124427D01*
X-5281046Y-18076432D01*
X-5287207Y-18023620D01*
X-5292021Y-17961786D01*
X-5295647Y-17886724D01*
X-5298244Y-17794228D01*
X-5299972Y-17680093D01*
X-5300991Y-17540112D01*
X-5301460Y-17370079D01*
X-5301539Y-17165789D01*
X-5301404Y-16943917D01*
X-5300810Y-16665158D01*
X-5299286Y-16422890D01*
X-5296498Y-16211276D01*
X-5292113Y-16024478D01*
X-5285797Y-15856658D01*
X-5277219Y-15701978D01*
X-5266045Y-15554601D01*
X-5251943Y-15408688D01*
X-5234578Y-15258403D01*
X-5213618Y-15097908D01*
X-5188731Y-14921363D01*
X-5184292Y-14890750D01*
X-5091285Y-14342308D01*
X-4972271Y-13800777D01*
X-4825886Y-13262460D01*
X-4650762Y-12723660D01*
X-4445534Y-12180679D01*
X-4208836Y-11629822D01*
X-3939304Y-11067391D01*
X-3635570Y-10489690D01*
X-3410476Y-10089157D01*
X-3349033Y-9981723D01*
X-3295658Y-9887009D01*
X-3253693Y-9811058D01*
X-3226479Y-9759915D01*
X-3217333Y-9739805D01*
X-3226434Y-9732629D01*
X-3256254Y-9721223D01*
X-3310572Y-9704507D01*
X-3393165Y-9681401D01*
X-3507811Y-9650824D01*
X-3658287Y-9611697D01*
X-3729397Y-9593400D01*
X-3748441Y-9598189D01*
X-3773229Y-9624364D01*
X-3806706Y-9676422D01*
X-3851813Y-9758862D01*
X-3901875Y-9856932D01*
X-3957956Y-9965084D01*
X-4029605Y-10097615D01*
X-4110306Y-10242789D01*
X-4193542Y-10388867D01*
X-4264374Y-10509954D01*
X-4384029Y-10718056D01*
X-4509786Y-10948648D01*
X-4636946Y-11192316D01*
X-4760813Y-11439645D01*
X-4876687Y-11681223D01*
X-4979872Y-11907635D01*
X-5065668Y-12109466D01*
X-5078303Y-12140948D01*
X-5306404Y-12757940D01*
X-5510605Y-13400838D01*
X-5691203Y-14071116D01*
X-5848498Y-14770246D01*
X-5982789Y-15499702D01*
X-6094375Y-16260956D01*
X-6183555Y-17055482D01*
X-6250629Y-17884754D01*
X-6253473Y-17928167D01*
X-6269259Y-18176911D01*
X-6281822Y-18387737D01*
X-6291277Y-18564927D01*
X-6297739Y-18712763D01*
X-6301324Y-18835528D01*
X-6302149Y-18937504D01*
X-7269956Y-18937504D01*
X-7268456Y-18740184D01*
X-7261586Y-18485495D01*
X-7249838Y-18209366D01*
X-7233463Y-17915886D01*
X-7212711Y-17609146D01*
X-7187834Y-17293233D01*
X-7159081Y-16972238D01*
X-7126703Y-16650250D01*
X-7090951Y-16331359D01*
X-7052075Y-16019653D01*
X-7014530Y-15748000D01*
X-6898725Y-15027547D01*
X-6765203Y-14340648D01*
X-6612709Y-13681853D01*
X-6439987Y-13045712D01*
X-6255749Y-12456584D01*
X-6103541Y-12018425D01*
X-5948816Y-11612102D01*
X-5786817Y-11227178D01*
X-5612790Y-10853215D01*
X-5421980Y-10479775D01*
X-5209631Y-10096420D01*
X-5077064Y-9869355D01*
X-4958985Y-9667909D01*
X-4859867Y-9492607D01*
X-4775032Y-9334474D01*
X-4699803Y-9184535D01*
X-4629502Y-9033816D01*
X-4565965Y-8888642D01*
X-4526345Y-8790664D01*
X-4480889Y-8670056D01*
X-4432760Y-8536103D01*
X-4385120Y-8398092D01*
X-4341131Y-8265309D01*
X-4303956Y-8147041D01*
X-4276757Y-8052575D01*
X-4265494Y-8006292D01*
X-4253668Y-7959730D01*
X-4243939Y-7937758D01*
X-4243198Y-7937500D01*
X-4222527Y-7946381D01*
X-4170386Y-7970953D01*
X-4093237Y-8008111D01*
X-3997540Y-8054749D01*
X-3922088Y-8091813D01*
X-3804624Y-8149158D01*
X-3688969Y-8204673D01*
X-3585438Y-8253472D01*
X-3504348Y-8290667D01*
X-3475633Y-8303305D01*
X-3405601Y-8334246D01*
X-3366800Y-8356928D01*
X-3351513Y-8379675D01*
X-3352023Y-8410811D01*
X-3355860Y-8432504D01*
X-3369372Y-8504524D01*
X-3009970Y-8590803D01*
X-2442328Y-8715388D01*
X-1849780Y-8822348D01*
X-1228265Y-8912301D01*
X-573725Y-8985863D01*
X-179916Y-9021054D01*
X-59990Y-9028607D01*
X95418Y-9034952D01*
X280049Y-9040089D01*
X487645Y-9044017D01*
X711949Y-9046734D01*
X946703Y-9048241D01*
X1185650Y-9048536D01*
X1422532Y-9047619D01*
X1651091Y-9045487D01*
X1865070Y-9042142D01*
X2058211Y-9037581D01*
X2224257Y-9031804D01*
X2356950Y-9024810D01*
X2402417Y-9021410D01*
X3075270Y-8955247D01*
X3715615Y-8872643D01*
X3750028Y-8867020D01*
X8058244Y-8867020D01*
X8059369Y-8899334D01*
X8075443Y-8950179D01*
X8106918Y-9026034D01*
X8154246Y-9133377D01*
X8163619Y-9154584D01*
X8334426Y-9512365D01*
X8537802Y-9887200D01*
X8770405Y-10273728D01*
X9028890Y-10666589D01*
X9309914Y-11060421D01*
X9540874Y-11362635D01*
X9696034Y-11557488D01*
X9853306Y-11750181D01*
X10016288Y-11944825D01*
X10188583Y-12145531D01*
X10373792Y-12356408D01*
X10575517Y-12581568D01*
X10797357Y-12825121D01*
X11042915Y-13091177D01*
X11250304Y-13313834D01*
X11482880Y-13563618D01*
X11687846Y-13785910D01*
X11867334Y-13983338D01*
X12023479Y-14158531D01*
X12158414Y-14314119D01*
X12274274Y-14452730D01*
X12373193Y-14576994D01*
X12457303Y-14689540D01*
X12528740Y-14792998D01*
X12589637Y-14889995D01*
X12642128Y-14983162D01*
X12688347Y-15075127D01*
X12699939Y-15099902D01*
X12755893Y-15230192D01*
X12794428Y-15345769D01*
X12819622Y-15463133D01*
X12835550Y-15598786D01*
X12840771Y-15670035D01*
X12840025Y-15931549D01*
X12807096Y-16204376D01*
X12744263Y-16475241D01*
X12662029Y-16711232D01*
X12636224Y-16770138D01*
X12605077Y-16833530D01*
X12566246Y-16905224D01*
X12517391Y-16989039D01*
X12456171Y-17088791D01*
X12380245Y-17208297D01*
X12287272Y-17351374D01*
X12174912Y-17521841D01*
X12046120Y-17715567D01*
X11962872Y-17841680D01*
X11888631Y-17956556D01*
X11826329Y-18055457D01*
X11778902Y-18133648D01*
X11749282Y-18186392D01*
X11740404Y-18208951D01*
X11740475Y-18209091D01*
X11764898Y-18215389D01*
X11822553Y-18218578D01*
X11904437Y-18218428D01*
X11987739Y-18215433D01*
X12087675Y-18210847D01*
X12217682Y-18205529D01*
X12365514Y-18199943D01*
X12518926Y-18194555D01*
X12640072Y-18190619D01*
X13056393Y-18177671D01*
X13374846Y-17698377D01*
X13461730Y-17566387D01*
X13542852Y-17440848D01*
X13614576Y-17327564D01*
X13673271Y-17232339D01*
X13715303Y-17160977D01*
X13736296Y-17121014D01*
X13776412Y-17012578D01*
X13801572Y-16899691D01*
X13812271Y-16774205D01*
X13809002Y-16627970D01*
X13792258Y-16452839D01*
X13781709Y-16371491D01*
X13715911Y-15939360D01*
X13640406Y-15528965D01*
X13555973Y-15142896D01*
X13463390Y-14783746D01*
X13363438Y-14454106D01*
X13256893Y-14156566D01*
X13144536Y-13893719D01*
X13027144Y-13668156D01*
X12918970Y-13500734D01*
X12869945Y-13437568D01*
X12794743Y-13346539D01*
X12696102Y-13230703D01*
X12576762Y-13093115D01*
X12439462Y-12936832D01*
X12286940Y-12764910D01*
X12121935Y-12580404D01*
X11947185Y-12386371D01*
X11765431Y-12185866D01*
X11579410Y-11981945D01*
X11391862Y-11777664D01*
X11205525Y-11576079D01*
X11023139Y-11380246D01*
X10917706Y-11267804D01*
X10636851Y-10973469D01*
X10377537Y-10711046D01*
X10136883Y-10477870D01*
X9912012Y-10271272D01*
X9700041Y-10088588D01*
X9498093Y-9927150D01*
X9355667Y-9821416D01*
X9252273Y-9746172D01*
X9147129Y-9667910D01*
X9052064Y-9595537D01*
X8978907Y-9537960D01*
X8974667Y-9534514D01*
X8905101Y-9474021D01*
X8815412Y-9390533D01*
X8713358Y-9291832D01*
X8606695Y-9185701D01*
X8503179Y-9079920D01*
X8410568Y-8982271D01*
X8336618Y-8900536D01*
X8303374Y-8861056D01*
X8237685Y-8779194D01*
X8140051Y-8816481D01*
X8099037Y-8832072D01*
X8071617Y-8846759D01*
X8058244Y-8867020D01*
X3750028Y-8867020D01*
X4330524Y-8772170D01*
X4927071Y-8652400D01*
X5512328Y-8511905D01*
X6093369Y-8349258D01*
X6677267Y-8163031D01*
X6709834Y-8151999D01*
X6863552Y-8098967D01*
X7016405Y-8044777D01*
X7162840Y-7991533D01*
X7297306Y-7941340D01*
X7414254Y-7896302D01*
X7508131Y-7858523D01*
X7573388Y-7830109D01*
X7604472Y-7813164D01*
X7605129Y-7812558D01*
X7604133Y-7787418D01*
X7588079Y-7732832D01*
X7559887Y-7657680D01*
X7534133Y-7596772D01*
X7417032Y-7311736D01*
X7305834Y-7003034D01*
X7204265Y-6683006D01*
X7116049Y-6363995D01*
X7044912Y-6058341D01*
X7004432Y-5841781D01*
X6978450Y-5682812D01*
X7151388Y-5460861D01*
X7270047Y-5303279D01*
X7394986Y-5128104D01*
X7517617Y-4947933D01*
X7629357Y-4775363D01*
X7717209Y-4630614D01*
X7757788Y-4563302D01*
X7790958Y-4513026D01*
X7810746Y-4488717D01*
X7812755Y-4487739D01*
X7819800Y-4507134D01*
X7828089Y-4559518D01*
X7836318Y-4635627D01*
X7840263Y-4683125D01*
X7884164Y-5109787D01*
X7951136Y-5538347D01*
X8038993Y-5958328D01*
X8145548Y-6359251D01*
X8266196Y-6724082D01*
X8329166Y-6881797D01*
X8407726Y-7058094D01*
X8496051Y-7241315D01*
X8588314Y-7419804D01*
X8678689Y-7581902D01*
X8761349Y-7715951D01*
X8763616Y-7719369D01*
X9005085Y-8047203D01*
X9274213Y-8345063D01*
X9574432Y-8616460D01*
X9830974Y-8811037D01*
X9998441Y-8934013D01*
X10175697Y-9074417D01*
X10364179Y-9233674D01*
X10565322Y-9413210D01*
X10780562Y-9614453D01*
X11011337Y-9838827D01*
X11259083Y-10087760D01*
X11525235Y-10362677D01*
X11811230Y-10665005D01*
X12118504Y-10996170D01*
X12448494Y-11357598D01*
X12802635Y-11750716D01*
X12891771Y-11850372D01*
X13014850Y-11988294D01*
X13133201Y-12121174D01*
X13242824Y-12244505D01*
X13339722Y-12353776D01*
X13419893Y-12444479D01*
X13479340Y-12512104D01*
X13511272Y-12548872D01*
X13699075Y-12795717D01*
X13874498Y-13082959D01*
X14037507Y-13410505D01*
X14188069Y-13778258D01*
X14326150Y-14186125D01*
X14451717Y-14634009D01*
X14564737Y-15121817D01*
X14665177Y-15649454D01*
X14721939Y-16002000D01*
X14760088Y-16288334D01*
X14782579Y-16541464D01*
X14789224Y-16767593D01*
X14779839Y-16972920D01*
X14754238Y-17163647D01*
X14712235Y-17345975D01*
X14678448Y-17455816D01*
X14648464Y-17539922D01*
X14614728Y-17622647D01*
X14574614Y-17708629D01*
X14525495Y-17802509D01*
X14464744Y-17908923D01*
X14389734Y-18032510D01*
X14297838Y-18177909D01*
X14186430Y-18349758D01*
X14083523Y-18506317D01*
X13990730Y-18647473D01*
X13905872Y-18777660D01*
X13831673Y-18892612D01*
X13770858Y-18988062D01*
X13726152Y-19059743D01*
X13700280Y-19103389D01*
X13694834Y-19114932D01*
X13713809Y-19126274D01*
X13762084Y-19132977D01*
X13795375Y-19133812D01*
X13845162Y-19132215D01*
X13928411Y-19128180D01*
X14040035Y-19122043D01*
X14174948Y-19114141D01*
X14328061Y-19104810D01*
X14494287Y-19094385D01*
X14668538Y-19083202D01*
X14845728Y-19071599D01*
X15020769Y-19059910D01*
X15188572Y-19048472D01*
X15344052Y-19037620D01*
X15482119Y-19027692D01*
X15597688Y-19019022D01*
X15685670Y-19011947D01*
X15740978Y-19006803D01*
X15758588Y-19004134D01*
X15757436Y-18981317D01*
X15748082Y-18924500D01*
X15731898Y-18840919D01*
X15710253Y-18737813D01*
X15695444Y-18670611D01*
X15622826Y-18346562D01*
X15653478Y-17814573D01*
X15696888Y-17095551D01*
X15741957Y-16417362D01*
X15788841Y-15778535D01*
X15837698Y-15177594D01*
X15888685Y-14613068D01*
X15941957Y-14083482D01*
X15997673Y-13587365D01*
X16055988Y-13123242D01*
X16117060Y-12689641D01*
X16181045Y-12285089D01*
X16248100Y-11908112D01*
X16318383Y-11557237D01*
X16320688Y-11546417D01*
X16340103Y-11447000D01*
X16352314Y-11358230D01*
X16358263Y-11266487D01*
X16358892Y-11158151D01*
X16355796Y-11038417D01*
X16348225Y-10890784D01*
X16334977Y-10748488D01*
X16314727Y-10606142D01*
X16286150Y-10458360D01*
X16247922Y-10299755D01*
X16198718Y-10124941D01*
X16137213Y-9928531D01*
X16062082Y-9705139D01*
X15972001Y-9449379D01*
X15949751Y-9387417D01*
X15791681Y-8890015D01*
X15666952Y-8370473D01*
X15575981Y-7833259D01*
X15519182Y-7282841D01*
X15496971Y-6723687D01*
X15509763Y-6160264D01*
X15557974Y-5597041D01*
X15580799Y-5418667D01*
X15633981Y-5089480D01*
X15704916Y-4737118D01*
X15790626Y-4375316D01*
X15873861Y-4067168D01*
X15938246Y-3833416D01*
X15992336Y-3615237D01*
X16037307Y-3404788D01*
X16074333Y-3194227D01*
X16104589Y-2975709D01*
X16129248Y-2741393D01*
X16149487Y-2483436D01*
X16166478Y-2193995D01*
X16172318Y-2074334D01*
X16182038Y-1759881D01*
X16183890Y-1408013D01*
X16178045Y-1022877D01*
X16164672Y-608623D01*
X16143942Y-169397D01*
X16116026Y290652D01*
X16081094Y767376D01*
X16039318Y1256628D01*
X16032224Y1333500D01*
X15963667Y1923435D01*
X15869479Y2489339D01*
X15747507Y3042406D01*
X15731435Y3100916D01*
X17335500Y3100916D01*
X17346084Y3090333D01*
X17356667Y3100916D01*
X17346084Y3111500D01*
X17335500Y3100916D01*
X15731435Y3100916D01*
X15600454Y3577720D01*
X15555015Y3740993D01*
X15527221Y3874409D01*
X15516522Y3986335D01*
X15522368Y4085139D01*
X15544210Y4179188D01*
X15558282Y4219981D01*
X15615725Y4327685D01*
X15698573Y4424210D01*
X15795464Y4498034D01*
X15863374Y4529322D01*
X15975576Y4547420D01*
X16096112Y4536218D01*
X16205466Y4498000D01*
X16224689Y4487062D01*
X16262248Y4456984D01*
X16316302Y4402518D01*
X16388021Y4322245D01*
X16478575Y4214748D01*
X16589134Y4078607D01*
X16720868Y3912404D01*
X16874948Y3714721D01*
X17052544Y3484140D01*
X17058720Y3476082D01*
X17138212Y3373252D01*
X17208867Y3283544D01*
X17266755Y3211810D01*
X17307947Y3162899D01*
X17328513Y3141664D01*
X17329978Y3141256D01*
X17326029Y3163066D01*
X17308589Y3214785D01*
X17280837Y3287406D01*
X17262388Y3332850D01*
X17061673Y3763857D01*
X16826593Y4170356D01*
X16557499Y4551821D01*
X16254739Y4907725D01*
X16129000Y5038096D01*
X15902050Y5253570D01*
X15677510Y5440805D01*
X15443820Y5608175D01*
X15189422Y5764054D01*
X14946994Y5894422D01*
X14780620Y5984659D01*
X14632553Y6077819D01*
X14493628Y6181019D01*
X14354679Y6301377D01*
X14206543Y6446011D01*
X14118167Y6538130D01*
X13782029Y6875336D01*
X13441075Y7177077D01*
X13087591Y7448969D01*
X12713863Y7696631D01*
X12312179Y7925677D01*
X11990917Y8087199D01*
X11580874Y8270009D01*
X11153101Y8434632D01*
X10704698Y8581746D01*
X10232763Y8712028D01*
X9734397Y8826158D01*
X9206698Y8924812D01*
X8646767Y9008669D01*
X8051702Y9078407D01*
X7556500Y9123829D01*
X7474095Y9129028D01*
X7355392Y9134362D01*
X7206425Y9139664D01*
X7033228Y9144764D01*
X6841837Y9149494D01*
X6638284Y9153685D01*
X6428604Y9157168D01*
X6307667Y9158783D01*
X5990080Y9161741D01*
X5698482Y9162373D01*
X5424352Y9160425D01*
X5159166Y9155646D01*
X4894404Y9147781D01*
X4621544Y9136580D01*
X4332063Y9121788D01*
X4017441Y9103154D01*
X3672417Y9080645D01*
X3349679Y9059399D01*
X3061070Y9041758D01*
X2798560Y9027484D01*
X2554121Y9016338D01*
X2319723Y9008084D01*
X2087336Y9002482D01*
X1848931Y8999296D01*
X1596478Y8998287D01*
X1321949Y8999217D01*
X1017312Y9001848D01*
X1014408Y9001878D01*
X743996Y9005016D01*
X509717Y9008492D01*
X305373Y9012622D01*
X124764Y9017725D01*
X-38310Y9024116D01*
X-190048Y9032113D01*
X-336649Y9042033D01*
X-484313Y9054194D01*
X-639240Y9068912D01*
X-807629Y9086505D01*
X-953309Y9102539D01*
X-1604857Y9190195D01*
X-2224781Y9304338D01*
X-2815048Y9445692D01*
X-3377625Y9614979D01*
X-3914476Y9812922D01*
X-4427570Y10040245D01*
X-4918871Y10297668D01*
X-5390346Y10585917D01*
X-5829851Y10895094D01*
X-5953878Y10989315D01*
X-6074455Y11083406D01*
X-6194300Y11179835D01*
X-6316131Y11281067D01*
X-6442665Y11389572D01*
X-6576622Y11507817D01*
X-6720719Y11638268D01*
X-6877675Y11783393D01*
X-7050207Y11945660D01*
X-7241034Y12127536D01*
X-7452873Y12331488D01*
X-7688444Y12559984D01*
X-7950463Y12815491D01*
X-8016369Y12879916D01*
X-8289172Y13145864D01*
X-8535945Y13384483D01*
X-8760132Y13598838D01*
X-8965177Y13791990D01*
X-9154522Y13967000D01*
X-9331610Y14126930D01*
X-9499885Y14274843D01*
X-9662789Y14413800D01*
X-9823767Y14546864D01*
X-9986261Y14677095D01*
X-10153713Y14807557D01*
X-10329569Y14941310D01*
X-10361083Y14964998D01*
X-10849088Y15318342D01*
X-11321410Y15633823D01*
X-11779690Y15912207D01*
X-12225571Y16154256D01*
X-12660693Y16360734D01*
X-13086699Y16532407D01*
X-13505230Y16670037D01*
X-13917929Y16774388D01*
X-14326435Y16846224D01*
X-14433084Y16859778D01*
X-14854480Y16889441D01*
X-15268216Y16879562D01*
X-15672020Y16830796D01*
X-16063622Y16743802D01*
X-16440753Y16619236D01*
X-16801141Y16457753D01*
X-17142515Y16260011D01*
X-17462607Y16026667D01*
X-17541287Y15960914D01*
X-17709443Y15804087D01*
X-17867842Y15632660D01*
X-18010318Y15454588D01*
X-18130704Y15277824D01*
X-18222831Y15110323D01*
X-18251567Y15044769D01*
X-18312966Y14856530D01*
X-18351986Y14659720D01*
X-18369235Y14460719D01*
X-19343426Y14460719D01*
X-19343941Y14480982D01*
X-19318841Y14809863D01*
X-19260510Y15132461D01*
X-19176593Y15419916D01*
X-19049586Y15720218D01*
X-18883618Y16013659D01*
X-18681860Y16297500D01*
X-18447482Y16569002D01*
X-18183655Y16825425D01*
X-17893550Y17064029D01*
X-17580338Y17282076D01*
X-17247190Y17476825D01*
X-16897276Y17645538D01*
X-16533769Y17785474D01*
X-16383000Y17833457D01*
X-16034304Y17923702D01*
X-15682080Y17985842D01*
X-15317046Y18021005D01*
X-14929917Y18030321D01*
X-14786434Y18027654D01*
G37*
X-14786434Y18027654D02*
X-14378560Y18002898D01*
X-13975099Y17951560D01*
X-13573229Y17872570D01*
X-13170128Y17764856D01*
X-12762975Y17627348D01*
X-12348949Y17458976D01*
X-11925228Y17258668D01*
X-11488991Y17025354D01*
X-11037416Y16757964D01*
X-10567681Y16455426D01*
X-10469817Y16389597D01*
X-10227018Y16222708D01*
X-9993989Y16057145D01*
X-9767440Y15890095D01*
X-9544082Y15718741D01*
X-9320624Y15540270D01*
X-9093776Y15351868D01*
X-8860249Y15150718D01*
X-8616753Y14934007D01*
X-8359997Y14698920D01*
X-8086692Y14442642D01*
X-7793547Y14162358D01*
X-7477272Y13855255D01*
X-7270515Y13652500D01*
X-7009668Y13396662D01*
X-6775286Y13168573D01*
X-6564409Y12965547D01*
X-6374081Y12784896D01*
X-6201342Y12623933D01*
X-6043234Y12479971D01*
X-5896799Y12350323D01*
X-5759079Y12232301D01*
X-5627115Y12123217D01*
X-5497949Y12020386D01*
X-5368622Y11921119D01*
X-5344583Y11903036D01*
X-4993974Y11653459D01*
X-4633954Y11424283D01*
X-4262689Y11215160D01*
X-3878346Y11025745D01*
X-3479090Y10855689D01*
X-3063088Y10704647D01*
X-2628506Y10572270D01*
X-2173510Y10458213D01*
X-1696266Y10362128D01*
X-1194941Y10283668D01*
X-667700Y10222486D01*
X-112709Y10178235D01*
X471865Y10150569D01*
X1087856Y10139140D01*
X1737098Y10143601D01*
X2421425Y10163606D01*
X3142671Y10198807D01*
X3534834Y10223129D01*
X3842488Y10243209D01*
X4114415Y10260199D01*
X4357092Y10274344D01*
X4576992Y10285887D01*
X4780593Y10295072D01*
X4974369Y10302143D01*
X5164795Y10307344D01*
X5358348Y10310918D01*
X5561501Y10313109D01*
X5780732Y10314161D01*
X5958417Y10314349D01*
X6304656Y10313086D01*
X6616794Y10309186D01*
X6902999Y10302324D01*
X7171438Y10292178D01*
X7430281Y10278421D01*
X7687696Y10260731D01*
X7951851Y10238781D01*
X8022167Y10232381D01*
X8722247Y10154686D01*
X9388184Y10054095D01*
X10021727Y9930160D01*
X10624624Y9782435D01*
X11198624Y9610470D01*
X11745476Y9413819D01*
X12266927Y9192034D01*
X12477750Y9091788D01*
X12812917Y8920344D01*
X13118897Y8748185D01*
X13403422Y8569729D01*
X13674225Y8379394D01*
X13939039Y8171599D01*
X14205596Y7940761D01*
X14481630Y7681300D01*
X14617355Y7547362D01*
X15063626Y7100994D01*
X15358188Y6945396D01*
X15769897Y6709515D01*
X16147396Y6454209D01*
X16495794Y6175746D01*
X16795562Y5895345D01*
X17135334Y5523387D01*
X17443550Y5123295D01*
X17720135Y4695235D01*
X17965014Y4239374D01*
X18178111Y3755880D01*
X18359352Y3244920D01*
X18508663Y2706662D01*
X18625967Y2141273D01*
X18700050Y1642772D01*
X18717241Y1443655D01*
X18714386Y1276054D01*
X18690095Y1133483D01*
X18642981Y1009457D01*
X18571655Y897493D01*
X18529853Y847723D01*
X18413609Y745101D01*
X18284519Y682071D01*
X18138625Y656837D01*
X18108107Y656166D01*
X17999359Y663514D01*
X17903476Y688228D01*
X17814957Y734315D01*
X17728300Y805782D01*
X17638003Y906634D01*
X17538564Y1040879D01*
X17497865Y1100542D01*
X17447178Y1175200D01*
X17384189Y1266583D01*
X17313250Y1368533D01*
X17238709Y1474892D01*
X17164916Y1579501D01*
X17096220Y1676203D01*
X17036971Y1758837D01*
X16991519Y1821248D01*
X16964212Y1857274D01*
X16959596Y1862666D01*
X16956150Y1854767D01*
X16961482Y1830916D01*
X16968205Y1792350D01*
X16977505Y1716496D01*
X16988928Y1608291D01*
X17002021Y1472672D01*
X17016332Y1314576D01*
X17031408Y1138939D01*
X17046796Y950699D01*
X17062043Y754793D01*
X17070203Y645583D01*
X17105981Y111075D01*
X17132763Y-396483D01*
X17150470Y-874285D01*
X17159027Y-1319524D01*
X17158356Y-1729393D01*
X17148380Y-2101085D01*
X17146787Y-2137834D01*
X17124339Y-2537129D01*
X17093888Y-2902968D01*
X17054192Y-3243682D01*
X17004011Y-3567604D01*
X16942104Y-3883068D01*
X16867230Y-4198405D01*
X16806352Y-4423834D01*
X16716573Y-4755208D01*
X16643483Y-5057460D01*
X16585730Y-5339765D01*
X16541965Y-5611298D01*
X16510837Y-5881236D01*
X16490997Y-6158753D01*
X16481095Y-6453025D01*
X16479356Y-6646334D01*
X16486529Y-7035745D01*
X16510112Y-7399491D01*
X16551859Y-7747455D01*
X16613526Y-8089519D01*
X16696869Y-8435566D01*
X16803644Y-8795479D01*
X16923165Y-9144806D01*
X17037453Y-9474395D01*
X17131074Y-9774144D01*
X17205258Y-10050447D01*
X17261230Y-10309698D01*
X17300218Y-10558289D01*
X17323450Y-10802615D01*
X17332153Y-11049067D01*
X17329209Y-11260150D01*
X17321098Y-11434526D01*
X17308805Y-11580924D01*
X17290732Y-11713622D01*
X17265278Y-11846898D01*
X17261584Y-11863917D01*
X17190839Y-12211923D01*
X17122837Y-12598999D01*
X17057541Y-13025475D01*
X16994917Y-13491684D01*
X16934928Y-13997958D01*
X16877539Y-14544629D01*
X16822714Y-15132029D01*
X16770418Y-15760489D01*
X16720615Y-16430342D01*
X16673269Y-17141920D01*
X16644752Y-17610667D01*
X16608051Y-18235084D01*
X16698161Y-18632174D01*
X16736921Y-18806199D01*
X16765941Y-18945962D01*
X16785994Y-19058210D01*
X16797852Y-19149689D01*
X16802290Y-19227144D01*
X16800079Y-19297321D01*
X16791994Y-19366968D01*
X16786338Y-19401699D01*
X16736861Y-19586516D01*
X16658195Y-19752001D01*
X16554299Y-19893884D01*
X16429133Y-20007898D01*
X16286660Y-20089774D01*
X16130837Y-20135243D01*
X16102098Y-20139184D01*
X16060320Y-20142875D01*
X15980589Y-20148883D01*
X15867206Y-20156920D01*
X15724471Y-20166695D01*
X15556684Y-20177920D01*
X15368146Y-20190307D01*
X15163156Y-20203565D01*
X14946016Y-20217405D01*
X14823759Y-20225112D01*
X14551500Y-20241951D01*
X14318566Y-20255772D01*
X14122066Y-20266692D01*
X13959109Y-20274829D01*
X13826805Y-20280301D01*
X13722260Y-20283226D01*
X13642585Y-20283722D01*
X13584888Y-20281907D01*
X13546278Y-20277899D01*
X13543176Y-20277349D01*
X13369735Y-20224116D01*
X13207372Y-20133822D01*
X13060773Y-20011253D01*
X12934624Y-19861197D01*
X12833613Y-19688438D01*
X12762426Y-19497766D01*
X12755965Y-19473334D01*
X12726549Y-19356917D01*
X12184961Y-19364529D01*
X12016911Y-19366663D01*
X11884897Y-19367549D01*
X11782628Y-19366850D01*
X11703817Y-19364231D01*
X11642175Y-19359352D01*
X11591413Y-19351878D01*
X11545243Y-19341472D01*
X11497375Y-19327796D01*
X11496908Y-19327654D01*
X11323311Y-19253572D01*
X11168457Y-19145098D01*
X11034781Y-19006908D01*
X10924718Y-18843676D01*
X10840702Y-18660076D01*
X10785167Y-18460783D01*
X10760549Y-18250472D01*
X10769282Y-18033816D01*
X10781328Y-17953673D01*
X10805145Y-17849691D01*
X10837899Y-17741549D01*
X10872771Y-17651588D01*
X10875018Y-17646756D01*
X10901766Y-17597153D01*
X10948739Y-17517715D01*
X11012597Y-17413777D01*
X11089999Y-17290674D01*
X11177607Y-17153740D01*
X11272079Y-17008308D01*
X11329213Y-16921393D01*
X11425042Y-16775658D01*
X11515204Y-16637385D01*
X11596541Y-16511507D01*
X11665892Y-16402958D01*
X11720098Y-16316671D01*
X11756000Y-16257580D01*
X11767805Y-16236524D01*
X11804880Y-16144397D01*
X11837736Y-16028294D01*
X11862105Y-15906571D01*
X11873718Y-15797584D01*
X11874133Y-15779269D01*
X11870068Y-15733922D01*
X11856399Y-15683194D01*
X11831469Y-15625003D01*
X11793624Y-15557269D01*
X11741211Y-15477912D01*
X11672575Y-15384851D01*
X11586061Y-15276006D01*
X11480014Y-15149296D01*
X11352782Y-15002641D01*
X11202708Y-14833960D01*
X11028139Y-14641172D01*
X10827420Y-14422197D01*
X10598897Y-14174955D01*
X10595307Y-14171084D01*
X10301761Y-13853273D01*
X10035506Y-13562236D01*
X9793901Y-13294809D01*
X9574307Y-13047827D01*
X9374085Y-12818125D01*
X9190594Y-12602538D01*
X9021196Y-12397904D01*
X8863249Y-12201056D01*
X8714116Y-12008830D01*
X8571156Y-11818063D01*
X8431729Y-11625589D01*
X8293196Y-11428244D01*
X8226783Y-11331651D01*
X8054448Y-11070561D01*
X7884327Y-10795924D01*
X7720566Y-10515304D01*
X7567311Y-10236267D01*
X7428709Y-9966375D01*
X7308907Y-9713195D01*
X7212051Y-9484289D01*
X7206860Y-9470979D01*
X7171929Y-9382725D01*
X7141461Y-9309096D01*
X7119285Y-9259153D01*
X7110372Y-9242659D01*
X7085820Y-9242196D01*
X7029216Y-9253554D01*
X6948544Y-9274798D01*
X6851788Y-9303989D01*
X6833892Y-9309739D01*
X6037305Y-9550747D01*
X5250341Y-9753522D01*
X4467037Y-9919189D01*
X3681429Y-10048875D01*
X2887552Y-10143704D01*
X2097963Y-10203784D01*
X1925007Y-10211199D01*
X1720270Y-10216333D01*
X1491019Y-10219278D01*
X1244520Y-10220124D01*
X988041Y-10218964D01*
X728848Y-10215888D01*
X474209Y-10210989D01*
X231390Y-10204356D01*
X7658Y-10196083D01*
X-189720Y-10186259D01*
X-353476Y-10174978D01*
X-381000Y-10172604D01*
X-593804Y-10152483D01*
X-814524Y-10129775D01*
X-1037073Y-10105242D01*
X-1255366Y-10079648D01*
X-1463319Y-10053755D01*
X-1654845Y-10028327D01*
X-1823861Y-10004127D01*
X-1964281Y-9981918D01*
X-2070019Y-9962463D01*
X-2088865Y-9958442D01*
X-2109184Y-9958634D01*
X-2131348Y-9971690D01*
X-2159305Y-10002584D01*
X-2197004Y-10056288D01*
X-2248393Y-10137775D01*
X-2303464Y-10228726D01*
X-2619972Y-10770258D01*
X-2904351Y-11286461D01*
X-3157289Y-11778744D01*
X-3379477Y-12248515D01*
X-3571605Y-12697185D01*
X-3734361Y-13126162D01*
X-3765313Y-13215162D01*
X-3910973Y-13669962D01*
X-4032165Y-14114080D01*
X-4131497Y-14559518D01*
X-4211575Y-15018279D01*
X-4275005Y-15502366D01*
X-4287767Y-15621000D01*
X-4297469Y-15735922D01*
X-4306309Y-15881404D01*
X-4314200Y-16051536D01*
X-4321057Y-16240404D01*
X-4326794Y-16442098D01*
X-4331327Y-16650705D01*
X-4334569Y-16860315D01*
X-4336435Y-17065014D01*
X-4336839Y-17258891D01*
X-4335697Y-17436034D01*
X-4332923Y-17590532D01*
X-4328430Y-17716472D01*
X-4322134Y-17807944D01*
X-4319702Y-17829140D01*
X-4291371Y-17981720D01*
X-4244057Y-18151567D01*
X-4176222Y-18343086D01*
X-4086326Y-18560681D01*
X-3991239Y-18769820D01*
X-3936048Y-18890712D01*
X-3884681Y-19009669D01*
X-3841214Y-19116771D01*
X-3809725Y-19202097D01*
X-3797794Y-19240500D01*
X-3774255Y-19367650D01*
X-3762264Y-19519367D01*
X-3761863Y-19679480D01*
X-3773091Y-19831816D01*
X-3795981Y-19960167D01*
X-3866796Y-20164837D01*
X-3966557Y-20351494D01*
X-4091044Y-20515731D01*
X-4236037Y-20653141D01*
X-4397317Y-20759320D01*
X-4570664Y-20829861D01*
X-4646083Y-20847807D01*
X-4699184Y-20852280D01*
X-4788491Y-20853448D01*
X-4908023Y-20851566D01*
X-5051804Y-20846889D01*
X-5213853Y-20839672D01*
X-5388194Y-20830169D01*
X-5568847Y-20818636D01*
X-5749833Y-20805327D01*
X-5864831Y-20795844D01*
X-6004078Y-20783818D01*
X-6030935Y-20874701D01*
X-6095258Y-21036184D01*
X-6190124Y-21200096D01*
X-6307285Y-21355670D01*
X-6438491Y-21492141D01*
X-6575491Y-21598741D01*
X-6595088Y-21610924D01*
X-6685553Y-21659314D01*
X-6789400Y-21706321D01*
X-6856776Y-21732086D01*
X-6892364Y-21743517D01*
X-6929118Y-21753249D01*
X-6970044Y-21761270D01*
X-7018155Y-21767567D01*
X-7076457Y-21772129D01*
X-7147962Y-21774942D01*
X-7235678Y-21775996D01*
X-7342614Y-21775277D01*
X-7471779Y-21772773D01*
X-7626184Y-21768472D01*
X-7808838Y-21762361D01*
X-8022748Y-21754429D01*
X-8270926Y-21744663D01*
X-8556380Y-21733050D01*
X-8768922Y-21724275D01*
X-9042387Y-21712931D01*
X-9277034Y-21702907D01*
X-9476337Y-21693665D01*
X-9643772Y-21684667D01*
X-9782813Y-21675376D01*
X-9896934Y-21665253D01*
X-9989610Y-21653760D01*
X-10064316Y-21640360D01*
X-10124525Y-21624515D01*
X-10173714Y-21605687D01*
X-10215356Y-21583339D01*
X-10252925Y-21556932D01*
X-10289897Y-21525928D01*
X-10329747Y-21489791D01*
X-10339106Y-21481225D01*
X-10460355Y-21342685D01*
X-10552426Y-21178947D01*
X-10612725Y-20997755D01*
X-10638663Y-20806855D01*
X-10628183Y-20617423D01*
X-10604644Y-20501507D01*
X-10569138Y-20393194D01*
X-10517238Y-20283136D01*
X-10444517Y-20161987D01*
X-10346546Y-20020397D01*
X-10343251Y-20015847D01*
X-10195585Y-19807140D01*
X-10055082Y-19598872D01*
X-9924598Y-19395845D01*
X-9806995Y-19202859D01*
X-9705129Y-19024716D01*
X-9621861Y-18866216D01*
X-9560049Y-18732161D01*
X-9528626Y-18647834D01*
X-9515593Y-18593707D01*
X-9498237Y-18501750D01*
X-9477123Y-18376181D01*
X-9452816Y-18221219D01*
X-9425879Y-18041084D01*
X-9396879Y-17839995D01*
X-9366379Y-17622171D01*
X-9334944Y-17391831D01*
X-9303139Y-17153195D01*
X-9271529Y-16910481D01*
X-9240678Y-16667910D01*
X-9211152Y-16429699D01*
X-9183514Y-16200069D01*
X-9158331Y-15983239D01*
X-9136165Y-15783427D01*
X-9117583Y-15604854D01*
X-9107916Y-15504584D01*
X-9096212Y-15350345D01*
X-9086529Y-15166204D01*
X-9078867Y-14958413D01*
X-9073228Y-14733227D01*
X-9069612Y-14496900D01*
X-9068021Y-14255686D01*
X-9068454Y-14015839D01*
X-9070913Y-13783613D01*
X-9075399Y-13565261D01*
X-9081911Y-13367038D01*
X-9090452Y-13195198D01*
X-9101021Y-13055995D01*
X-9107606Y-12996334D01*
X-9136678Y-12779749D01*
X-9164792Y-12593570D01*
X-9194116Y-12425985D01*
X-9226816Y-12265179D01*
X-9265061Y-12099342D01*
X-9292367Y-11989367D01*
X-9375772Y-11695892D01*
X-9474511Y-11417863D01*
X-9594143Y-11141230D01*
X-9740227Y-10851940D01*
X-9748087Y-10837334D01*
X-9957758Y-10436836D01*
X-10142809Y-10056973D01*
X-10307682Y-9687600D01*
X-10456820Y-9318569D01*
X-10594664Y-8939734D01*
X-10648148Y-8781636D01*
X-10687679Y-8657095D01*
X-10731949Y-8508692D01*
X-10778993Y-8343884D01*
X-10826845Y-8170125D01*
X-10873540Y-7994873D01*
X-10917111Y-7825582D01*
X-10955594Y-7669709D01*
X-10987022Y-7534710D01*
X-11009431Y-7428040D01*
X-11018091Y-7378351D01*
X-11024381Y-7342539D01*
X-11034397Y-7312296D01*
X-11052977Y-7282571D01*
X-11084964Y-7248314D01*
X-11135195Y-7204473D01*
X-11208512Y-7145996D01*
X-11309755Y-7067834D01*
X-11331935Y-7050810D01*
X-11771160Y-6697785D01*
X-12171183Y-6341655D01*
X-12534347Y-5978834D01*
X-12862998Y-5605734D01*
X-13159478Y-5218767D01*
X-13426132Y-4814346D01*
X-13665303Y-4388884D01*
X-13879336Y-3938794D01*
X-14070574Y-3460488D01*
X-14241361Y-2950378D01*
X-14394041Y-2404878D01*
X-14410850Y-2338493D01*
X-14458951Y-2141542D01*
X-14507579Y-1932013D01*
X-14557622Y-1705638D01*
X-14609967Y-1458148D01*
X-14665502Y-1185276D01*
X-14725113Y-882752D01*
X-14789690Y-546309D01*
X-14849120Y-230610D01*
X-14886275Y-34235D01*
X-14925669Y169572D01*
X-14965523Y371914D01*
X-15004062Y563895D01*
X-15039506Y736615D01*
X-15070079Y881179D01*
X-15083382Y941916D01*
X-15185192Y1381340D01*
X-15294843Y1821762D01*
X-15410972Y2258879D01*
X-15532214Y2688388D01*
X-15657203Y3105985D01*
X-15784576Y3507369D01*
X-15912967Y3888234D01*
X-16041013Y4244277D01*
X-16167347Y4571197D01*
X-16290606Y4864688D01*
X-16406808Y5115134D01*
X-16481907Y5262546D01*
X-16549302Y5379955D01*
X-16616464Y5476878D01*
X-16690865Y5562830D01*
X-16779976Y5647328D01*
X-16891268Y5739890D01*
X-16907374Y5752709D01*
X-17023850Y5843298D01*
X-17159412Y5945732D01*
X-17309153Y6056558D01*
X-17468169Y6172324D01*
X-17631556Y6289576D01*
X-17794407Y6404860D01*
X-17951819Y6514723D01*
X-18098886Y6615713D01*
X-18230704Y6704375D01*
X-18342366Y6777257D01*
X-18428969Y6830905D01*
X-18476542Y6857467D01*
X-18650846Y6925471D01*
X-18854346Y6969701D01*
X-19080628Y6989278D01*
X-19323282Y6983324D01*
X-19367500Y6979539D01*
X-19596239Y6965947D01*
X-19793891Y6972232D01*
X-19967047Y6998972D01*
X-20118916Y7045419D01*
X-20321785Y7146565D01*
X-20509941Y7284367D01*
X-20678347Y7454269D01*
X-20821969Y7651714D01*
X-20859254Y7715250D01*
X-20898813Y7795487D01*
X-20946714Y7906831D01*
X-20999494Y8039735D01*
X-21053694Y8184651D01*
X-21105850Y8332032D01*
X-21152503Y8472330D01*
X-21190190Y8595998D01*
X-21215451Y8693488D01*
X-21217675Y8703899D01*
X-21239354Y8854855D01*
X-21249301Y9029187D01*
X-21248670Y9092688D01*
X-20277066Y9092688D01*
X-20260652Y8974846D01*
X-20223046Y8833205D01*
X-20179832Y8705580D01*
X-20121120Y8547950D01*
X-20070457Y8425323D01*
X-20024091Y8332047D01*
X-19978274Y8262469D01*
X-19929256Y8210935D01*
X-19873286Y8171793D01*
X-19806616Y8139390D01*
X-19803365Y8138025D01*
X-19763790Y8123745D01*
X-19722315Y8115630D01*
X-19669563Y8113445D01*
X-19596157Y8116956D01*
X-19492720Y8125927D01*
X-19457320Y8129364D01*
X-19115261Y8145130D01*
X-18791405Y8123188D01*
X-18484430Y8063390D01*
X-18279922Y7999308D01*
X-18193106Y7965350D01*
X-18107759Y7926494D01*
X-18017804Y7879195D01*
X-17917165Y7819906D01*
X-17799763Y7745080D01*
X-17659521Y7651173D01*
X-17526000Y7559370D01*
X-17219083Y7346687D01*
X-17204027Y7446302D01*
X-17195751Y7503217D01*
X-17183302Y7591518D01*
X-17168153Y7700634D01*
X-17151778Y7819996D01*
X-17145870Y7863416D01*
X-17058221Y8369560D01*
X-16935820Y8853939D01*
X-16779054Y9315591D01*
X-16588312Y9753551D01*
X-16363982Y10166856D01*
X-16106451Y10554541D01*
X-16012771Y10678583D01*
X-15915583Y10795749D01*
X-15792654Y10932057D01*
X-15651158Y11080030D01*
X-15498269Y11232188D01*
X-15385110Y11339411D01*
X-14134696Y11339411D01*
X-13814223Y11352131D01*
X-13669475Y11360487D01*
X-13523126Y11373495D01*
X-13390116Y11389611D01*
X-13290498Y11406236D01*
X-12941119Y11497412D01*
X-12609502Y11624401D01*
X-12299146Y11785520D01*
X-12013552Y11979087D01*
X-11890549Y12079343D01*
X-11802237Y12159216D01*
X-11724906Y12235929D01*
X-11663382Y12303994D01*
X-11622489Y12357922D01*
X-11607051Y12392223D01*
X-11609249Y12399387D01*
X-11638961Y12407632D01*
X-11703504Y12412940D01*
X-11795491Y12415504D01*
X-11907537Y12415519D01*
X-12032255Y12413180D01*
X-12162258Y12408681D01*
X-12290160Y12402216D01*
X-12408576Y12393980D01*
X-12510118Y12384166D01*
X-12583146Y12373757D01*
X-12720061Y12346604D01*
X-12872438Y12312397D01*
X-13034470Y12272819D01*
X-13200350Y12229556D01*
X-13364272Y12184290D01*
X-13520429Y12138706D01*
X-13663014Y12094489D01*
X-13786221Y12053321D01*
X-13884243Y12016888D01*
X-13951273Y11986873D01*
X-13978136Y11969173D01*
X-13995427Y11933852D01*
X-14010971Y11871764D01*
X-14018867Y11817970D01*
X-14031394Y11736962D01*
X-14052721Y11635466D01*
X-14078614Y11533271D01*
X-14083239Y11516997D01*
X-14134696Y11339411D01*
X-15385110Y11339411D01*
X-15341162Y11381053D01*
X-15322113Y11398573D01*
X-15174755Y11559541D01*
X-15066637Y11736050D01*
X-14998062Y11927365D01*
X-14969328Y12132752D01*
X-14970960Y12256884D01*
X-14999515Y12433200D01*
X-15060493Y12582638D01*
X-15154210Y12705531D01*
X-15280987Y12802209D01*
X-15441142Y12873007D01*
X-15599833Y12912384D01*
X-15710572Y12927372D01*
X-15816269Y12929717D01*
X-15923725Y12917782D01*
X-16039741Y12889928D01*
X-16171118Y12844515D01*
X-16324657Y12779906D01*
X-16507159Y12694462D01*
X-16510000Y12693087D01*
X-16765489Y12576893D01*
X-16998106Y12488022D01*
X-17215584Y12424547D01*
X-17425652Y12384541D01*
X-17636044Y12366076D01*
X-17822333Y12365926D01*
X-17970536Y12374439D01*
X-18093633Y12390900D01*
X-18208641Y12419063D01*
X-18332578Y12462680D01*
X-18416069Y12496882D01*
X-18426113Y12492242D01*
X-18444221Y12471649D01*
X-18471507Y12433207D01*
X-18509085Y12375020D01*
X-18558069Y12295194D01*
X-18619574Y12191833D01*
X-18694713Y12063042D01*
X-18784601Y11906924D01*
X-18890351Y11721586D01*
X-19013079Y11505131D01*
X-19153898Y11255664D01*
X-19313923Y10971289D01*
X-19336819Y10930547D01*
X-19471374Y10690828D01*
X-19600305Y10460642D01*
X-19722048Y10242806D01*
X-19835043Y10040137D01*
X-19937726Y9855453D01*
X-20028537Y9691570D01*
X-20105912Y9551308D01*
X-20168290Y9437483D01*
X-20214108Y9352912D01*
X-20241805Y9300413D01*
X-20249598Y9284194D01*
X-20273108Y9193535D01*
X-20277066Y9092688D01*
X-21248670Y9092688D01*
X-21247508Y9209592D01*
X-21233964Y9378767D01*
X-21218097Y9478267D01*
X-21192539Y9581457D01*
X-21156735Y9698655D01*
X-21118183Y9805433D01*
X-21116038Y9810750D01*
X-21095530Y9854139D01*
X-21055776Y9931427D01*
X-20998388Y10039674D01*
X-20924979Y10175940D01*
X-20837160Y10337286D01*
X-20736543Y10520771D01*
X-20624740Y10723457D01*
X-20503362Y10942402D01*
X-20374023Y11174668D01*
X-20238333Y11417315D01*
X-20101590Y11660853D01*
X-19155967Y13341622D01*
X-19218120Y13535653D01*
X-19293755Y13835977D01*
X-19335637Y14153720D01*
X-19343426Y14460719D01*
X-18369235Y14460719D01*
X-18365321Y14265903D01*
X-18340850Y14081649D01*
X-18296431Y13914335D01*
X-18232671Y13770340D01*
X-18150178Y13656039D01*
X-18116156Y13623511D01*
X-18003104Y13552845D01*
X-17865651Y13513838D01*
X-17703290Y13506565D01*
X-17515514Y13531102D01*
X-17301815Y13587523D01*
X-17061685Y13675905D01*
X-16794618Y13796322D01*
X-16727356Y13829546D01*
X-16526626Y13922926D01*
X-16344603Y13990554D01*
X-16169281Y14035810D01*
X-15988654Y14062076D01*
X-15873111Y14070109D01*
X-15671753Y14072136D01*
X-15492655Y14056697D01*
X-15318572Y14021546D01*
X-15176500Y13979437D01*
X-14930042Y13876670D01*
X-14705824Y13739363D01*
X-14507464Y13569945D01*
X-14413697Y13467539D01*
X-14356481Y13394336D01*
X-14298085Y13311357D01*
X-14246248Y13230446D01*
X-14208710Y13163445D01*
X-14196267Y13134837D01*
X-14174936Y13134138D01*
X-14120691Y13145563D01*
X-14040582Y13167273D01*
X-13941662Y13197431D01*
X-13883876Y13216259D01*
X-13422022Y13356118D01*
X-12981692Y13460884D01*
X-12561148Y13530836D01*
X-12158653Y13566252D01*
X-11772472Y13567410D01*
X-11711198Y13564384D01*
X-11461526Y13542418D01*
X-11249040Y13506530D01*
X-11070644Y13455811D01*
X-10923238Y13389348D01*
X-10803726Y13306230D01*
X-10788881Y13293064D01*
X-10661925Y13150125D01*
X-10571475Y12986439D01*
X-10517237Y12801301D01*
X-10498919Y12594005D01*
X-10498918Y12593322D01*
X-10518863Y12383165D01*
X-10577636Y12167262D01*
X-10672669Y11948725D01*
X-10801392Y11730668D01*
X-10961237Y11516203D01*
X-11149636Y11308441D01*
X-11364021Y11110496D01*
X-11601822Y10925479D01*
X-11860471Y10756503D01*
X-12137400Y10606680D01*
X-12139083Y10605859D01*
X-12518728Y10444269D01*
X-12913707Y10322096D01*
X-13323577Y10239477D01*
X-13358642Y10234346D01*
X-13538751Y10215575D01*
X-13744717Y10205535D01*
X-13965888Y10203861D01*
X-14191613Y10210189D01*
X-14411242Y10224154D01*
X-14614125Y10245391D01*
X-14789610Y10273536D01*
X-14843514Y10285169D01*
X-14923278Y10303884D01*
X-15103808Y10110234D01*
X-15327134Y9848669D01*
X-15520722Y9572799D01*
X-15693723Y9269669D01*
X-15855167Y8924526D01*
X-15987509Y8568971D01*
X-16091990Y8197891D01*
X-16169850Y7806172D01*
X-16222330Y7388701D01*
X-16249141Y6980490D01*
X-16262570Y6647896D01*
X-16093423Y6483073D01*
X-15989173Y6374247D01*
X-15893637Y6257775D01*
X-15802111Y6126585D01*
X-15709895Y5973609D01*
X-15612285Y5791777D01*
X-15547307Y5662083D01*
X-15418939Y5385024D01*
X-15286704Y5070178D01*
X-15151930Y4721770D01*
X-15015945Y4344028D01*
X-14880076Y3941178D01*
X-14745654Y3517445D01*
X-14614005Y3077056D01*
X-14486459Y2624236D01*
X-14364342Y2163213D01*
X-14248985Y1698212D01*
X-14141715Y1233459D01*
X-14110308Y1090083D01*
X-14082215Y957146D01*
X-14048311Y791837D01*
X-14010436Y603423D01*
X-13970431Y401169D01*
X-13930135Y194340D01*
X-13891390Y-7798D01*
X-13874859Y-95250D01*
X-13805634Y-460319D01*
X-13742291Y-787550D01*
X-13683902Y-1080885D01*
X-13629537Y-1344268D01*
X-13578267Y-1581641D01*
X-13529164Y-1796949D01*
X-13481298Y-1994135D01*
X-13433741Y-2177141D01*
X-13385564Y-2349911D01*
X-13335837Y-2516387D01*
X-13283633Y-2680514D01*
X-13228021Y-2846235D01*
X-13224148Y-2857500D01*
X-13056731Y-3300590D01*
X-12869423Y-3711686D01*
X-12658349Y-4096841D01*
X-12419631Y-4462105D01*
X-12149393Y-4813532D01*
X-11843761Y-5157173D01*
X-11583897Y-5418323D01*
X-11490299Y-5507812D01*
X-11407529Y-5585920D01*
X-11340213Y-5648364D01*
X-11292976Y-5690865D01*
X-11270446Y-5709141D01*
X-11269251Y-5709473D01*
X-11268807Y-5687296D01*
X-11272536Y-5632822D01*
X-11279697Y-5555798D01*
X-11284154Y-5513514D01*
X-11290898Y-5429401D01*
X-11297094Y-5309359D01*
X-11302671Y-5159787D01*
X-11307555Y-4987087D01*
X-11311675Y-4797660D01*
X-11314957Y-4597906D01*
X-11317330Y-4394226D01*
X-11318720Y-4193021D01*
X-11319055Y-4000692D01*
X-11318262Y-3823640D01*
X-11316269Y-3668266D01*
X-11313004Y-3540969D01*
X-11308393Y-3448152D01*
X-11307675Y-3438745D01*
X-11296132Y-3316686D01*
X-11282920Y-3226274D01*
X-11265837Y-3156828D01*
X-11242681Y-3097664D01*
X-11233503Y-3078911D01*
X-11151121Y-2955544D01*
X-11050666Y-2866195D01*
X-10937796Y-2811711D01*
X-10818168Y-2792939D01*
X-10697437Y-2810723D01*
X-10581262Y-2865910D01*
X-10475298Y-2959345D01*
X-10470550Y-2964825D01*
X-10434046Y-3009498D01*
X-10404625Y-3052725D01*
X-10381627Y-3099443D01*
X-10364394Y-3154587D01*
X-10352268Y-3223091D01*
X-10344589Y-3309893D01*
X-10340700Y-3419925D01*
X-10339942Y-3558125D01*
X-10341657Y-3729427D01*
X-10344634Y-3908499D01*
X-10346312Y-4472065D01*
X-10329681Y-5008124D01*
X-10293758Y-5527792D01*
X-10237561Y-6042188D01*
X-10160107Y-6562428D01*
X-10064323Y-7080250D01*
X-9937176Y-7648459D01*
X-9789614Y-8186132D01*
X-9618713Y-8701282D01*
X-9421549Y-9201926D01*
X-9195197Y-9696078D01*
X-8936733Y-10191752D01*
X-8914309Y-10232202D01*
X-8706236Y-10647695D01*
X-8528215Y-11092662D01*
X-8380419Y-11566587D01*
X-8263022Y-12068953D01*
X-8223000Y-12287250D01*
X-8194452Y-12459558D01*
X-8170516Y-12614225D01*
X-8150793Y-12757277D01*
X-8134883Y-12894744D01*
X-8122387Y-13032654D01*
X-8112905Y-13177034D01*
X-8106037Y-13333912D01*
X-8101383Y-13509316D01*
X-8098545Y-13709275D01*
X-8097123Y-13939816D01*
X-8096718Y-14192250D01*
X-8097223Y-14439893D01*
X-8099106Y-14668307D01*
X-8102750Y-14881955D01*
X-8108536Y-15085299D01*
X-8116847Y-15282802D01*
X-8128064Y-15478925D01*
X-8142570Y-15678132D01*
X-8160745Y-15884885D01*
X-8182972Y-16103646D01*
X-8209633Y-16338877D01*
X-8241109Y-16595042D01*
X-8277783Y-16876602D01*
X-8320036Y-17188020D01*
X-8368249Y-17533758D01*
X-8404612Y-17790584D01*
X-8440990Y-18045160D01*
X-8472469Y-18261903D01*
X-8499846Y-18444929D01*
X-8523917Y-18598354D01*
X-8545480Y-18726294D01*
X-8565329Y-18832864D01*
X-8584262Y-18922180D01*
X-8603075Y-18998359D01*
X-8622565Y-19065515D01*
X-8643527Y-19127764D01*
X-8666759Y-19189223D01*
X-8683135Y-19229917D01*
X-8742468Y-19362634D01*
X-8821630Y-19521391D01*
X-8915828Y-19697792D01*
X-9020264Y-19883441D01*
X-9130145Y-20069945D01*
X-9240675Y-20248907D01*
X-9347058Y-20411933D01*
X-9411592Y-20505209D01*
X-9445497Y-20552834D01*
X-9268290Y-20554554D01*
X-9207891Y-20555858D01*
X-9110907Y-20558849D01*
X-8983043Y-20563311D01*
X-8830004Y-20569030D01*
X-8657495Y-20575790D01*
X-8471221Y-20583377D01*
X-8276887Y-20591577D01*
X-8223250Y-20593890D01*
X-7978212Y-20604629D01*
X-7771920Y-20613744D01*
X-7600810Y-20621122D01*
X-7461321Y-20626649D01*
X-7349892Y-20630212D01*
X-7262961Y-20631696D01*
X-7196966Y-20630988D01*
X-7148346Y-20627975D01*
X-7113538Y-20622541D01*
X-7088981Y-20614575D01*
X-7071113Y-20603962D01*
X-7056373Y-20590589D01*
X-7041198Y-20574341D01*
X-7022514Y-20555557D01*
X-6934666Y-20473614D01*
X-7022094Y-20253932D01*
X-7122301Y-19966549D01*
X-7202858Y-19661982D01*
X-7242148Y-19462750D01*
X-7257295Y-19334716D01*
X-7266561Y-19168883D01*
X-7270198Y-18969343D01*
X-7269956Y-18937504D01*
X-6302149Y-18937504D01*
X-6300327Y-19022975D01*
X-6295975Y-19096222D01*
X-6289209Y-19161528D01*
X-6287170Y-19177000D01*
X-6270695Y-19283354D01*
X-6251216Y-19387943D01*
X-6230659Y-19482479D01*
X-6210952Y-19558674D01*
X-6194023Y-19608240D01*
X-6183385Y-19623230D01*
X-6147325Y-19626497D01*
X-6075853Y-19631830D01*
X-5975816Y-19638795D01*
X-5854062Y-19646958D01*
X-5717439Y-19655886D01*
X-5572794Y-19665144D01*
X-5426975Y-19674301D01*
X-5286829Y-19682921D01*
X-5159203Y-19690571D01*
X-5050945Y-19696818D01*
X-4968903Y-19701229D01*
X-4919924Y-19703368D01*
X-4916446Y-19703455D01*
X-4841531Y-19703086D01*
X-4796362Y-19695751D01*
X-4768488Y-19677906D01*
X-4752235Y-19656707D01*
X-4741494Y-19636857D01*
X-4737460Y-19614299D01*
X-4742077Y-19582947D01*
X-4757287Y-19536720D01*
X-4785034Y-19469531D01*
X-4827261Y-19375298D01*
X-4875816Y-19269769D01*
X-5021345Y-18935849D01*
X-5136723Y-18628708D01*
X-5222717Y-18346209D01*
X-5252879Y-18222791D01*
X-5264041Y-18171811D01*
X-5273377Y-18124427D01*
X-5281046Y-18076432D01*
X-5287207Y-18023620D01*
X-5292021Y-17961786D01*
X-5295647Y-17886724D01*
X-5298244Y-17794228D01*
X-5299972Y-17680093D01*
X-5300991Y-17540112D01*
X-5301460Y-17370079D01*
X-5301539Y-17165789D01*
X-5301404Y-16943917D01*
X-5300810Y-16665158D01*
X-5299286Y-16422890D01*
X-5296498Y-16211276D01*
X-5292113Y-16024478D01*
X-5285797Y-15856658D01*
X-5277219Y-15701978D01*
X-5266045Y-15554601D01*
X-5251943Y-15408688D01*
X-5234578Y-15258403D01*
X-5213618Y-15097908D01*
X-5188731Y-14921363D01*
X-5184292Y-14890750D01*
X-5091285Y-14342308D01*
X-4972271Y-13800777D01*
X-4825886Y-13262460D01*
X-4650762Y-12723660D01*
X-4445534Y-12180679D01*
X-4208836Y-11629822D01*
X-3939304Y-11067391D01*
X-3635570Y-10489690D01*
X-3410476Y-10089157D01*
X-3349033Y-9981723D01*
X-3295658Y-9887009D01*
X-3253693Y-9811058D01*
X-3226479Y-9759915D01*
X-3217333Y-9739805D01*
X-3226434Y-9732629D01*
X-3256254Y-9721223D01*
X-3310572Y-9704507D01*
X-3393165Y-9681401D01*
X-3507811Y-9650824D01*
X-3658287Y-9611697D01*
X-3729397Y-9593400D01*
X-3748441Y-9598189D01*
X-3773229Y-9624364D01*
X-3806706Y-9676422D01*
X-3851813Y-9758862D01*
X-3901875Y-9856932D01*
X-3957956Y-9965084D01*
X-4029605Y-10097615D01*
X-4110306Y-10242789D01*
X-4193542Y-10388867D01*
X-4264374Y-10509954D01*
X-4384029Y-10718056D01*
X-4509786Y-10948648D01*
X-4636946Y-11192316D01*
X-4760813Y-11439645D01*
X-4876687Y-11681223D01*
X-4979872Y-11907635D01*
X-5065668Y-12109466D01*
X-5078303Y-12140948D01*
X-5306404Y-12757940D01*
X-5510605Y-13400838D01*
X-5691203Y-14071116D01*
X-5848498Y-14770246D01*
X-5982789Y-15499702D01*
X-6094375Y-16260956D01*
X-6183555Y-17055482D01*
X-6250629Y-17884754D01*
X-6253473Y-17928167D01*
X-6269259Y-18176911D01*
X-6281822Y-18387737D01*
X-6291277Y-18564927D01*
X-6297739Y-18712763D01*
X-6301324Y-18835528D01*
X-6302149Y-18937504D01*
X-7269956Y-18937504D01*
X-7268456Y-18740184D01*
X-7261586Y-18485495D01*
X-7249838Y-18209366D01*
X-7233463Y-17915886D01*
X-7212711Y-17609146D01*
X-7187834Y-17293233D01*
X-7159081Y-16972238D01*
X-7126703Y-16650250D01*
X-7090951Y-16331359D01*
X-7052075Y-16019653D01*
X-7014530Y-15748000D01*
X-6898725Y-15027547D01*
X-6765203Y-14340648D01*
X-6612709Y-13681853D01*
X-6439987Y-13045712D01*
X-6255749Y-12456584D01*
X-6103541Y-12018425D01*
X-5948816Y-11612102D01*
X-5786817Y-11227178D01*
X-5612790Y-10853215D01*
X-5421980Y-10479775D01*
X-5209631Y-10096420D01*
X-5077064Y-9869355D01*
X-4958985Y-9667909D01*
X-4859867Y-9492607D01*
X-4775032Y-9334474D01*
X-4699803Y-9184535D01*
X-4629502Y-9033816D01*
X-4565965Y-8888642D01*
X-4526345Y-8790664D01*
X-4480889Y-8670056D01*
X-4432760Y-8536103D01*
X-4385120Y-8398092D01*
X-4341131Y-8265309D01*
X-4303956Y-8147041D01*
X-4276757Y-8052575D01*
X-4265494Y-8006292D01*
X-4253668Y-7959730D01*
X-4243939Y-7937758D01*
X-4243198Y-7937500D01*
X-4222527Y-7946381D01*
X-4170386Y-7970953D01*
X-4093237Y-8008111D01*
X-3997540Y-8054749D01*
X-3922088Y-8091813D01*
X-3804624Y-8149158D01*
X-3688969Y-8204673D01*
X-3585438Y-8253472D01*
X-3504348Y-8290667D01*
X-3475633Y-8303305D01*
X-3405601Y-8334246D01*
X-3366800Y-8356928D01*
X-3351513Y-8379675D01*
X-3352023Y-8410811D01*
X-3355860Y-8432504D01*
X-3369372Y-8504524D01*
X-3009970Y-8590803D01*
X-2442328Y-8715388D01*
X-1849780Y-8822348D01*
X-1228265Y-8912301D01*
X-573725Y-8985863D01*
X-179916Y-9021054D01*
X-59990Y-9028607D01*
X95418Y-9034952D01*
X280049Y-9040089D01*
X487645Y-9044017D01*
X711949Y-9046734D01*
X946703Y-9048241D01*
X1185650Y-9048536D01*
X1422532Y-9047619D01*
X1651091Y-9045487D01*
X1865070Y-9042142D01*
X2058211Y-9037581D01*
X2224257Y-9031804D01*
X2356950Y-9024810D01*
X2402417Y-9021410D01*
X3075270Y-8955247D01*
X3715615Y-8872643D01*
X3750028Y-8867020D01*
X8058244Y-8867020D01*
X8059369Y-8899334D01*
X8075443Y-8950179D01*
X8106918Y-9026034D01*
X8154246Y-9133377D01*
X8163619Y-9154584D01*
X8334426Y-9512365D01*
X8537802Y-9887200D01*
X8770405Y-10273728D01*
X9028890Y-10666589D01*
X9309914Y-11060421D01*
X9540874Y-11362635D01*
X9696034Y-11557488D01*
X9853306Y-11750181D01*
X10016288Y-11944825D01*
X10188583Y-12145531D01*
X10373792Y-12356408D01*
X10575517Y-12581568D01*
X10797357Y-12825121D01*
X11042915Y-13091177D01*
X11250304Y-13313834D01*
X11482880Y-13563618D01*
X11687846Y-13785910D01*
X11867334Y-13983338D01*
X12023479Y-14158531D01*
X12158414Y-14314119D01*
X12274274Y-14452730D01*
X12373193Y-14576994D01*
X12457303Y-14689540D01*
X12528740Y-14792998D01*
X12589637Y-14889995D01*
X12642128Y-14983162D01*
X12688347Y-15075127D01*
X12699939Y-15099902D01*
X12755893Y-15230192D01*
X12794428Y-15345769D01*
X12819622Y-15463133D01*
X12835550Y-15598786D01*
X12840771Y-15670035D01*
X12840025Y-15931549D01*
X12807096Y-16204376D01*
X12744263Y-16475241D01*
X12662029Y-16711232D01*
X12636224Y-16770138D01*
X12605077Y-16833530D01*
X12566246Y-16905224D01*
X12517391Y-16989039D01*
X12456171Y-17088791D01*
X12380245Y-17208297D01*
X12287272Y-17351374D01*
X12174912Y-17521841D01*
X12046120Y-17715567D01*
X11962872Y-17841680D01*
X11888631Y-17956556D01*
X11826329Y-18055457D01*
X11778902Y-18133648D01*
X11749282Y-18186392D01*
X11740404Y-18208951D01*
X11740475Y-18209091D01*
X11764898Y-18215389D01*
X11822553Y-18218578D01*
X11904437Y-18218428D01*
X11987739Y-18215433D01*
X12087675Y-18210847D01*
X12217682Y-18205529D01*
X12365514Y-18199943D01*
X12518926Y-18194555D01*
X12640072Y-18190619D01*
X13056393Y-18177671D01*
X13374846Y-17698377D01*
X13461730Y-17566387D01*
X13542852Y-17440848D01*
X13614576Y-17327564D01*
X13673271Y-17232339D01*
X13715303Y-17160977D01*
X13736296Y-17121014D01*
X13776412Y-17012578D01*
X13801572Y-16899691D01*
X13812271Y-16774205D01*
X13809002Y-16627970D01*
X13792258Y-16452839D01*
X13781709Y-16371491D01*
X13715911Y-15939360D01*
X13640406Y-15528965D01*
X13555973Y-15142896D01*
X13463390Y-14783746D01*
X13363438Y-14454106D01*
X13256893Y-14156566D01*
X13144536Y-13893719D01*
X13027144Y-13668156D01*
X12918970Y-13500734D01*
X12869945Y-13437568D01*
X12794743Y-13346539D01*
X12696102Y-13230703D01*
X12576762Y-13093115D01*
X12439462Y-12936832D01*
X12286940Y-12764910D01*
X12121935Y-12580404D01*
X11947185Y-12386371D01*
X11765431Y-12185866D01*
X11579410Y-11981945D01*
X11391862Y-11777664D01*
X11205525Y-11576079D01*
X11023139Y-11380246D01*
X10917706Y-11267804D01*
X10636851Y-10973469D01*
X10377537Y-10711046D01*
X10136883Y-10477870D01*
X9912012Y-10271272D01*
X9700041Y-10088588D01*
X9498093Y-9927150D01*
X9355667Y-9821416D01*
X9252273Y-9746172D01*
X9147129Y-9667910D01*
X9052064Y-9595537D01*
X8978907Y-9537960D01*
X8974667Y-9534514D01*
X8905101Y-9474021D01*
X8815412Y-9390533D01*
X8713358Y-9291832D01*
X8606695Y-9185701D01*
X8503179Y-9079920D01*
X8410568Y-8982271D01*
X8336618Y-8900536D01*
X8303374Y-8861056D01*
X8237685Y-8779194D01*
X8140051Y-8816481D01*
X8099037Y-8832072D01*
X8071617Y-8846759D01*
X8058244Y-8867020D01*
X3750028Y-8867020D01*
X4330524Y-8772170D01*
X4927071Y-8652400D01*
X5512328Y-8511905D01*
X6093369Y-8349258D01*
X6677267Y-8163031D01*
X6709834Y-8151999D01*
X6863552Y-8098967D01*
X7016405Y-8044777D01*
X7162840Y-7991533D01*
X7297306Y-7941340D01*
X7414254Y-7896302D01*
X7508131Y-7858523D01*
X7573388Y-7830109D01*
X7604472Y-7813164D01*
X7605129Y-7812558D01*
X7604133Y-7787418D01*
X7588079Y-7732832D01*
X7559887Y-7657680D01*
X7534133Y-7596772D01*
X7417032Y-7311736D01*
X7305834Y-7003034D01*
X7204265Y-6683006D01*
X7116049Y-6363995D01*
X7044912Y-6058341D01*
X7004432Y-5841781D01*
X6978450Y-5682812D01*
X7151388Y-5460861D01*
X7270047Y-5303279D01*
X7394986Y-5128104D01*
X7517617Y-4947933D01*
X7629357Y-4775363D01*
X7717209Y-4630614D01*
X7757788Y-4563302D01*
X7790958Y-4513026D01*
X7810746Y-4488717D01*
X7812755Y-4487739D01*
X7819800Y-4507134D01*
X7828089Y-4559518D01*
X7836318Y-4635627D01*
X7840263Y-4683125D01*
X7884164Y-5109787D01*
X7951136Y-5538347D01*
X8038993Y-5958328D01*
X8145548Y-6359251D01*
X8266196Y-6724082D01*
X8329166Y-6881797D01*
X8407726Y-7058094D01*
X8496051Y-7241315D01*
X8588314Y-7419804D01*
X8678689Y-7581902D01*
X8761349Y-7715951D01*
X8763616Y-7719369D01*
X9005085Y-8047203D01*
X9274213Y-8345063D01*
X9574432Y-8616460D01*
X9830974Y-8811037D01*
X9998441Y-8934013D01*
X10175697Y-9074417D01*
X10364179Y-9233674D01*
X10565322Y-9413210D01*
X10780562Y-9614453D01*
X11011337Y-9838827D01*
X11259083Y-10087760D01*
X11525235Y-10362677D01*
X11811230Y-10665005D01*
X12118504Y-10996170D01*
X12448494Y-11357598D01*
X12802635Y-11750716D01*
X12891771Y-11850372D01*
X13014850Y-11988294D01*
X13133201Y-12121174D01*
X13242824Y-12244505D01*
X13339722Y-12353776D01*
X13419893Y-12444479D01*
X13479340Y-12512104D01*
X13511272Y-12548872D01*
X13699075Y-12795717D01*
X13874498Y-13082959D01*
X14037507Y-13410505D01*
X14188069Y-13778258D01*
X14326150Y-14186125D01*
X14451717Y-14634009D01*
X14564737Y-15121817D01*
X14665177Y-15649454D01*
X14721939Y-16002000D01*
X14760088Y-16288334D01*
X14782579Y-16541464D01*
X14789224Y-16767593D01*
X14779839Y-16972920D01*
X14754238Y-17163647D01*
X14712235Y-17345975D01*
X14678448Y-17455816D01*
X14648464Y-17539922D01*
X14614728Y-17622647D01*
X14574614Y-17708629D01*
X14525495Y-17802509D01*
X14464744Y-17908923D01*
X14389734Y-18032510D01*
X14297838Y-18177909D01*
X14186430Y-18349758D01*
X14083523Y-18506317D01*
X13990730Y-18647473D01*
X13905872Y-18777660D01*
X13831673Y-18892612D01*
X13770858Y-18988062D01*
X13726152Y-19059743D01*
X13700280Y-19103389D01*
X13694834Y-19114932D01*
X13713809Y-19126274D01*
X13762084Y-19132977D01*
X13795375Y-19133812D01*
X13845162Y-19132215D01*
X13928411Y-19128180D01*
X14040035Y-19122043D01*
X14174948Y-19114141D01*
X14328061Y-19104810D01*
X14494287Y-19094385D01*
X14668538Y-19083202D01*
X14845728Y-19071599D01*
X15020769Y-19059910D01*
X15188572Y-19048472D01*
X15344052Y-19037620D01*
X15482119Y-19027692D01*
X15597688Y-19019022D01*
X15685670Y-19011947D01*
X15740978Y-19006803D01*
X15758588Y-19004134D01*
X15757436Y-18981317D01*
X15748082Y-18924500D01*
X15731898Y-18840919D01*
X15710253Y-18737813D01*
X15695444Y-18670611D01*
X15622826Y-18346562D01*
X15653478Y-17814573D01*
X15696888Y-17095551D01*
X15741957Y-16417362D01*
X15788841Y-15778535D01*
X15837698Y-15177594D01*
X15888685Y-14613068D01*
X15941957Y-14083482D01*
X15997673Y-13587365D01*
X16055988Y-13123242D01*
X16117060Y-12689641D01*
X16181045Y-12285089D01*
X16248100Y-11908112D01*
X16318383Y-11557237D01*
X16320688Y-11546417D01*
X16340103Y-11447000D01*
X16352314Y-11358230D01*
X16358263Y-11266487D01*
X16358892Y-11158151D01*
X16355796Y-11038417D01*
X16348225Y-10890784D01*
X16334977Y-10748488D01*
X16314727Y-10606142D01*
X16286150Y-10458360D01*
X16247922Y-10299755D01*
X16198718Y-10124941D01*
X16137213Y-9928531D01*
X16062082Y-9705139D01*
X15972001Y-9449379D01*
X15949751Y-9387417D01*
X15791681Y-8890015D01*
X15666952Y-8370473D01*
X15575981Y-7833259D01*
X15519182Y-7282841D01*
X15496971Y-6723687D01*
X15509763Y-6160264D01*
X15557974Y-5597041D01*
X15580799Y-5418667D01*
X15633981Y-5089480D01*
X15704916Y-4737118D01*
X15790626Y-4375316D01*
X15873861Y-4067168D01*
X15938246Y-3833416D01*
X15992336Y-3615237D01*
X16037307Y-3404788D01*
X16074333Y-3194227D01*
X16104589Y-2975709D01*
X16129248Y-2741393D01*
X16149487Y-2483436D01*
X16166478Y-2193995D01*
X16172318Y-2074334D01*
X16182038Y-1759881D01*
X16183890Y-1408013D01*
X16178045Y-1022877D01*
X16164672Y-608623D01*
X16143942Y-169397D01*
X16116026Y290652D01*
X16081094Y767376D01*
X16039318Y1256628D01*
X16032224Y1333500D01*
X15963667Y1923435D01*
X15869479Y2489339D01*
X15747507Y3042406D01*
X15731435Y3100916D01*
X17335500Y3100916D01*
X17346084Y3090333D01*
X17356667Y3100916D01*
X17346084Y3111500D01*
X17335500Y3100916D01*
X15731435Y3100916D01*
X15600454Y3577720D01*
X15555015Y3740993D01*
X15527221Y3874409D01*
X15516522Y3986335D01*
X15522368Y4085139D01*
X15544210Y4179188D01*
X15558282Y4219981D01*
X15615725Y4327685D01*
X15698573Y4424210D01*
X15795464Y4498034D01*
X15863374Y4529322D01*
X15975576Y4547420D01*
X16096112Y4536218D01*
X16205466Y4498000D01*
X16224689Y4487062D01*
X16262248Y4456984D01*
X16316302Y4402518D01*
X16388021Y4322245D01*
X16478575Y4214748D01*
X16589134Y4078607D01*
X16720868Y3912404D01*
X16874948Y3714721D01*
X17052544Y3484140D01*
X17058720Y3476082D01*
X17138212Y3373252D01*
X17208867Y3283544D01*
X17266755Y3211810D01*
X17307947Y3162899D01*
X17328513Y3141664D01*
X17329978Y3141256D01*
X17326029Y3163066D01*
X17308589Y3214785D01*
X17280837Y3287406D01*
X17262388Y3332850D01*
X17061673Y3763857D01*
X16826593Y4170356D01*
X16557499Y4551821D01*
X16254739Y4907725D01*
X16129000Y5038096D01*
X15902050Y5253570D01*
X15677510Y5440805D01*
X15443820Y5608175D01*
X15189422Y5764054D01*
X14946994Y5894422D01*
X14780620Y5984659D01*
X14632553Y6077819D01*
X14493628Y6181019D01*
X14354679Y6301377D01*
X14206543Y6446011D01*
X14118167Y6538130D01*
X13782029Y6875336D01*
X13441075Y7177077D01*
X13087591Y7448969D01*
X12713863Y7696631D01*
X12312179Y7925677D01*
X11990917Y8087199D01*
X11580874Y8270009D01*
X11153101Y8434632D01*
X10704698Y8581746D01*
X10232763Y8712028D01*
X9734397Y8826158D01*
X9206698Y8924812D01*
X8646767Y9008669D01*
X8051702Y9078407D01*
X7556500Y9123829D01*
X7474095Y9129028D01*
X7355392Y9134362D01*
X7206425Y9139664D01*
X7033228Y9144764D01*
X6841837Y9149494D01*
X6638284Y9153685D01*
X6428604Y9157168D01*
X6307667Y9158783D01*
X5990080Y9161741D01*
X5698482Y9162373D01*
X5424352Y9160425D01*
X5159166Y9155646D01*
X4894404Y9147781D01*
X4621544Y9136580D01*
X4332063Y9121788D01*
X4017441Y9103154D01*
X3672417Y9080645D01*
X3349679Y9059399D01*
X3061070Y9041758D01*
X2798560Y9027484D01*
X2554121Y9016338D01*
X2319723Y9008084D01*
X2087336Y9002482D01*
X1848931Y8999296D01*
X1596478Y8998287D01*
X1321949Y8999217D01*
X1017312Y9001848D01*
X1014408Y9001878D01*
X743996Y9005016D01*
X509717Y9008492D01*
X305373Y9012622D01*
X124764Y9017725D01*
X-38310Y9024116D01*
X-190048Y9032113D01*
X-336649Y9042033D01*
X-484313Y9054194D01*
X-639240Y9068912D01*
X-807629Y9086505D01*
X-953309Y9102539D01*
X-1604857Y9190195D01*
X-2224781Y9304338D01*
X-2815048Y9445692D01*
X-3377625Y9614979D01*
X-3914476Y9812922D01*
X-4427570Y10040245D01*
X-4918871Y10297668D01*
X-5390346Y10585917D01*
X-5829851Y10895094D01*
X-5953878Y10989315D01*
X-6074455Y11083406D01*
X-6194300Y11179835D01*
X-6316131Y11281067D01*
X-6442665Y11389572D01*
X-6576622Y11507817D01*
X-6720719Y11638268D01*
X-6877675Y11783393D01*
X-7050207Y11945660D01*
X-7241034Y12127536D01*
X-7452873Y12331488D01*
X-7688444Y12559984D01*
X-7950463Y12815491D01*
X-8016369Y12879916D01*
X-8289172Y13145864D01*
X-8535945Y13384483D01*
X-8760132Y13598838D01*
X-8965177Y13791990D01*
X-9154522Y13967000D01*
X-9331610Y14126930D01*
X-9499885Y14274843D01*
X-9662789Y14413800D01*
X-9823767Y14546864D01*
X-9986261Y14677095D01*
X-10153713Y14807557D01*
X-10329569Y14941310D01*
X-10361083Y14964998D01*
X-10849088Y15318342D01*
X-11321410Y15633823D01*
X-11779690Y15912207D01*
X-12225571Y16154256D01*
X-12660693Y16360734D01*
X-13086699Y16532407D01*
X-13505230Y16670037D01*
X-13917929Y16774388D01*
X-14326435Y16846224D01*
X-14433084Y16859778D01*
X-14854480Y16889441D01*
X-15268216Y16879562D01*
X-15672020Y16830796D01*
X-16063622Y16743802D01*
X-16440753Y16619236D01*
X-16801141Y16457753D01*
X-17142515Y16260011D01*
X-17462607Y16026667D01*
X-17541287Y15960914D01*
X-17709443Y15804087D01*
X-17867842Y15632660D01*
X-18010318Y15454588D01*
X-18130704Y15277824D01*
X-18222831Y15110323D01*
X-18251567Y15044769D01*
X-18312966Y14856530D01*
X-18351986Y14659720D01*
X-18369235Y14460719D01*
X-19343426Y14460719D01*
X-19343941Y14480982D01*
X-19318841Y14809863D01*
X-19260510Y15132461D01*
X-19176593Y15419916D01*
X-19049586Y15720218D01*
X-18883618Y16013659D01*
X-18681860Y16297500D01*
X-18447482Y16569002D01*
X-18183655Y16825425D01*
X-17893550Y17064029D01*
X-17580338Y17282076D01*
X-17247190Y17476825D01*
X-16897276Y17645538D01*
X-16533769Y17785474D01*
X-16383000Y17833457D01*
X-16034304Y17923702D01*
X-15682080Y17985842D01*
X-15317046Y18021005D01*
X-14929917Y18030321D01*
X-14786434Y18027654D01*
M02*
