G04 #@! TF.GenerationSoftware,KiCad,Pcbnew,5.1.5+dfsg1-2build2*
G04 #@! TF.CreationDate,2021-04-12T21:18:55-04:00*
G04 #@! TF.ProjectId,sheep_tile,73686565-705f-4746-996c-652e6b696361,rev?*
G04 #@! TF.SameCoordinates,Original*
G04 #@! TF.FileFunction,Copper,L1,Top*
G04 #@! TF.FilePolarity,Positive*
%FSLAX46Y46*%
G04 Gerber Fmt 4.6, Leading zero omitted, Abs format (unit mm)*
G04 Created by KiCad (PCBNEW 5.1.5+dfsg1-2build2) date 2021-04-12 21:18:55*
%MOMM*%
%LPD*%
G04 APERTURE LIST*
%ADD10C,0.010000*%
G04 APERTURE END LIST*
D10*
G36*
X-14900293Y18030160D02*
G01*
X-14686098Y18023868D01*
X-14476156Y18012478D01*
X-14281983Y17996344D01*
X-14115102Y17975824D01*
X-14096673Y17972958D01*
X-13665885Y17889759D01*
X-13235362Y17777507D01*
X-12802874Y17635137D01*
X-12366190Y17461579D01*
X-11923080Y17255766D01*
X-11471315Y17016630D01*
X-11008663Y16743105D01*
X-10532894Y16434121D01*
X-10041779Y16088611D01*
X-9823713Y15927337D01*
X-9615881Y15769305D01*
X-9413667Y15610845D01*
X-9213606Y15448874D01*
X-9012237Y15280310D01*
X-8806096Y15102070D01*
X-8591721Y14911072D01*
X-8365647Y14704232D01*
X-8124412Y14478470D01*
X-7864553Y14230701D01*
X-7582606Y13957844D01*
X-7296716Y13678062D01*
X-7055778Y13441661D01*
X-6841568Y13232527D01*
X-6651033Y13047842D01*
X-6481120Y12884787D01*
X-6328776Y12740544D01*
X-6190948Y12612293D01*
X-6064583Y12497216D01*
X-5946628Y12392495D01*
X-5834029Y12295309D01*
X-5723735Y12202841D01*
X-5612691Y12112272D01*
X-5524500Y12041851D01*
X-5135967Y11750583D01*
X-4739718Y11487097D01*
X-4332696Y11250323D01*
X-3911844Y11039188D01*
X-3474106Y10852622D01*
X-3016425Y10689555D01*
X-2535745Y10548914D01*
X-2029008Y10429629D01*
X-1493159Y10330628D01*
X-925141Y10250841D01*
X-321897Y10189197D01*
X-211666Y10180130D01*
X-125773Y10174749D01*
X-4140Y10169197D01*
X146639Y10163673D01*
X319972Y10158374D01*
X509265Y10153501D01*
X707926Y10149251D01*
X909362Y10145824D01*
X941917Y10145358D01*
X1261829Y10142152D01*
X1563353Y10141933D01*
X1854846Y10144954D01*
X2144664Y10151464D01*
X2441165Y10161715D01*
X2752704Y10175957D01*
X3087640Y10194441D01*
X3454327Y10217417D01*
X3545417Y10223456D01*
X4001030Y10252575D01*
X4419929Y10276380D01*
X4807377Y10295015D01*
X5168641Y10308624D01*
X5508985Y10317349D01*
X5833674Y10321336D01*
X6147974Y10320728D01*
X6457149Y10315668D01*
X6684689Y10309177D01*
X7248980Y10285108D01*
X7777666Y10251486D01*
X8276552Y10207554D01*
X8751443Y10152556D01*
X9208143Y10085732D01*
X9652458Y10006327D01*
X10090192Y9913581D01*
X10519834Y9808640D01*
X11133676Y9631011D01*
X11718051Y9424803D01*
X12272434Y9190279D01*
X12796297Y8927699D01*
X13289116Y8637325D01*
X13750366Y8319421D01*
X14149917Y7999822D01*
X14221468Y7935788D01*
X14315020Y7848253D01*
X14423267Y7744265D01*
X14538906Y7630872D01*
X14654631Y7515122D01*
X14700250Y7468781D01*
X15060084Y7101416D01*
X15356417Y6945608D01*
X15768181Y6710885D01*
X16145776Y6456515D01*
X16494598Y6177911D01*
X16820042Y5870483D01*
X17127506Y5529641D01*
X17346956Y5252770D01*
X17629402Y4842720D01*
X17881560Y4403533D01*
X18103166Y3935917D01*
X18293955Y3440581D01*
X18453663Y2918230D01*
X18582025Y2369574D01*
X18678778Y1795320D01*
X18700193Y1629833D01*
X18715326Y1483583D01*
X18720855Y1369682D01*
X18717060Y1279317D01*
X18712381Y1243968D01*
X18667172Y1073453D01*
X18593322Y927655D01*
X18494215Y809829D01*
X18373234Y723232D01*
X18233760Y671122D01*
X18102112Y656373D01*
X17994845Y663893D01*
X17899616Y689442D01*
X17811052Y736970D01*
X17723778Y810428D01*
X17632422Y913764D01*
X17531612Y1050929D01*
X17497865Y1100542D01*
X17449421Y1171872D01*
X17387901Y1261117D01*
X17317760Y1361959D01*
X17243451Y1468081D01*
X17169429Y1573168D01*
X17100147Y1670903D01*
X17040060Y1754969D01*
X16993621Y1819048D01*
X16965284Y1856826D01*
X16960505Y1862623D01*
X16957511Y1853388D01*
X16963289Y1820290D01*
X16968658Y1784341D01*
X16976895Y1713064D01*
X16987297Y1613313D01*
X16999161Y1491942D01*
X17011784Y1355804D01*
X17017558Y1291166D01*
X17073064Y603140D01*
X17114599Y-45223D01*
X17142167Y-654218D01*
X17155773Y-1224142D01*
X17155421Y-1755290D01*
X17141115Y-2247960D01*
X17112861Y-2702447D01*
X17080478Y-3036457D01*
X17056745Y-3232212D01*
X17031565Y-3412217D01*
X17003322Y-3584221D01*
X16970398Y-3755973D01*
X16931179Y-3935223D01*
X16884047Y-4129718D01*
X16827386Y-4347209D01*
X16759579Y-4595445D01*
X16742527Y-4656667D01*
X16650336Y-5018076D01*
X16579702Y-5369073D01*
X16529098Y-5721116D01*
X16496997Y-6085664D01*
X16481873Y-6474173D01*
X16480279Y-6625167D01*
X16486165Y-7013981D01*
X16508031Y-7375987D01*
X16547620Y-7721102D01*
X16606674Y-8059241D01*
X16686935Y-8400323D01*
X16790145Y-8754262D01*
X16918045Y-9130976D01*
X16922739Y-9144000D01*
X17023061Y-9430703D01*
X17105845Y-9688112D01*
X17173180Y-9924439D01*
X17227156Y-10147900D01*
X17269862Y-10366707D01*
X17303387Y-10589075D01*
X17315594Y-10688650D01*
X17328212Y-10848823D01*
X17333062Y-11031626D01*
X17330602Y-11225208D01*
X17321288Y-11417718D01*
X17305578Y-11597304D01*
X17283930Y-11752116D01*
X17272271Y-11811000D01*
X17214323Y-12083582D01*
X17160564Y-12364075D01*
X17110215Y-12657726D01*
X17062501Y-12969783D01*
X17016644Y-13305490D01*
X16971867Y-13670094D01*
X16927393Y-14068841D01*
X16902365Y-14308667D01*
X16869646Y-14642466D01*
X16836049Y-15010192D01*
X16802224Y-15403464D01*
X16768820Y-15813902D01*
X16736486Y-16233128D01*
X16705872Y-16652761D01*
X16677626Y-17064421D01*
X16652397Y-17459730D01*
X16634033Y-17772652D01*
X16607770Y-18241553D01*
X16701482Y-18640485D01*
X16736112Y-18791336D01*
X16761149Y-18910308D01*
X16777964Y-19006413D01*
X16787931Y-19088658D01*
X16792422Y-19166055D01*
X16792901Y-19240500D01*
X16773666Y-19440047D01*
X16722613Y-19622145D01*
X16642633Y-19783056D01*
X16536619Y-19919042D01*
X16407465Y-20026365D01*
X16258064Y-20101285D01*
X16097250Y-20139379D01*
X16056414Y-20143075D01*
X15977602Y-20149081D01*
X15865092Y-20157109D01*
X15723163Y-20166871D01*
X15556093Y-20178079D01*
X15368160Y-20190443D01*
X15163641Y-20203675D01*
X14946815Y-20217487D01*
X14823759Y-20225233D01*
X14551456Y-20242047D01*
X14318481Y-20255845D01*
X14121946Y-20266746D01*
X13958960Y-20274866D01*
X13826636Y-20280324D01*
X13722084Y-20283237D01*
X13642415Y-20283722D01*
X13584740Y-20281898D01*
X13546170Y-20277881D01*
X13543176Y-20277349D01*
X13368615Y-20223859D01*
X13205847Y-20133192D01*
X13059271Y-20009855D01*
X12933287Y-19858355D01*
X12832294Y-19683197D01*
X12760691Y-19488888D01*
X12755929Y-19470967D01*
X12726561Y-19356917D01*
X12178822Y-19363915D01*
X12008665Y-19365821D01*
X11874758Y-19366473D01*
X11771028Y-19365568D01*
X11691402Y-19362801D01*
X11629807Y-19357870D01*
X11580171Y-19350470D01*
X11536421Y-19340297D01*
X11501878Y-19330054D01*
X11323621Y-19252367D01*
X11166125Y-19141142D01*
X11031452Y-19000823D01*
X10921668Y-18835851D01*
X10838834Y-18650671D01*
X10785015Y-18449724D01*
X10762273Y-18237453D01*
X10772673Y-18018302D01*
X10807697Y-17835343D01*
X10823007Y-17780411D01*
X10840813Y-17727594D01*
X10863556Y-17672622D01*
X10893680Y-17611226D01*
X10933627Y-17539138D01*
X10985840Y-17452089D01*
X11052763Y-17345808D01*
X11136838Y-17216028D01*
X11240507Y-17058479D01*
X11326456Y-16928764D01*
X11421784Y-16784396D01*
X11511733Y-16646774D01*
X11593010Y-16521042D01*
X11662324Y-16412343D01*
X11716384Y-16325820D01*
X11751897Y-16266617D01*
X11762014Y-16248191D01*
X11804733Y-16142677D01*
X11840817Y-16014751D01*
X11865524Y-15884295D01*
X11874133Y-15778295D01*
X11868461Y-15728686D01*
X11850011Y-15670692D01*
X11817218Y-15602335D01*
X11768518Y-15521638D01*
X11702346Y-15426624D01*
X11617138Y-15315316D01*
X11511329Y-15185736D01*
X11383357Y-15035908D01*
X11231655Y-14863853D01*
X11054660Y-14667596D01*
X10850808Y-14445158D01*
X10636083Y-14213417D01*
X10369834Y-13926422D01*
X10130305Y-13666333D01*
X9914599Y-13429802D01*
X9719822Y-13213485D01*
X9543076Y-13014034D01*
X9381468Y-12828106D01*
X9232101Y-12652352D01*
X9092081Y-12483429D01*
X8958511Y-12317990D01*
X8828496Y-12152688D01*
X8699141Y-11984179D01*
X8645507Y-11913232D01*
X8360147Y-11520626D01*
X8093894Y-11126920D01*
X7849522Y-10736829D01*
X7629805Y-10355064D01*
X7437520Y-9986340D01*
X7275441Y-9635368D01*
X7208198Y-9472084D01*
X7172721Y-9383726D01*
X7141872Y-9309972D01*
X7119485Y-9259811D01*
X7110433Y-9242928D01*
X7086645Y-9243436D01*
X7029276Y-9255484D01*
X6944950Y-9277358D01*
X6840291Y-9307347D01*
X6728328Y-9341710D01*
X6141904Y-9519170D01*
X5577102Y-9673117D01*
X5023887Y-9805566D01*
X4472221Y-9918533D01*
X3912068Y-10014032D01*
X3333391Y-10094080D01*
X2726154Y-10160691D01*
X2582334Y-10174238D01*
X2444747Y-10184301D01*
X2271345Y-10192961D01*
X2068456Y-10200192D01*
X1842406Y-10205969D01*
X1599525Y-10210268D01*
X1346139Y-10213064D01*
X1088576Y-10214332D01*
X833163Y-10214049D01*
X586229Y-10212188D01*
X354101Y-10208727D01*
X143106Y-10203639D01*
X-40427Y-10196901D01*
X-190171Y-10188488D01*
X-232833Y-10185193D01*
X-530141Y-10158437D01*
X-824783Y-10128807D01*
X-1110425Y-10097085D01*
X-1380732Y-10064056D01*
X-1629370Y-10030503D01*
X-1850006Y-9997209D01*
X-2036306Y-9964958D01*
X-2077537Y-9956999D01*
X-2101843Y-9954891D01*
X-2124176Y-9962879D01*
X-2149355Y-9986451D01*
X-2182197Y-10031095D01*
X-2227522Y-10102300D01*
X-2277911Y-10185235D01*
X-2583008Y-10703371D01*
X-2858294Y-11196877D01*
X-3105219Y-11669668D01*
X-3325233Y-12125659D01*
X-3519788Y-12568766D01*
X-3690332Y-13002903D01*
X-3838316Y-13431986D01*
X-3965191Y-13859931D01*
X-4072407Y-14290651D01*
X-4161415Y-14728063D01*
X-4233664Y-15176081D01*
X-4287597Y-15610417D01*
X-4297281Y-15721622D01*
X-4306116Y-15864065D01*
X-4314018Y-16031828D01*
X-4320901Y-16218995D01*
X-4326679Y-16419647D01*
X-4331267Y-16627869D01*
X-4334579Y-16837742D01*
X-4336529Y-17043350D01*
X-4337033Y-17238775D01*
X-4336004Y-17418100D01*
X-4333356Y-17575409D01*
X-4329006Y-17704783D01*
X-4322865Y-17800306D01*
X-4319684Y-17829273D01*
X-4291344Y-17981860D01*
X-4243997Y-18151763D01*
X-4176110Y-18343375D01*
X-4086148Y-18561088D01*
X-3991239Y-18769820D01*
X-3915495Y-18934820D01*
X-3857944Y-19071261D01*
X-3816243Y-19187601D01*
X-3788046Y-19292297D01*
X-3771008Y-19393807D01*
X-3762784Y-19500590D01*
X-3760971Y-19600334D01*
X-3769425Y-19788279D01*
X-3797442Y-19954194D01*
X-3849005Y-20115411D01*
X-3911768Y-20256500D01*
X-3991562Y-20389246D01*
X-4096299Y-20519772D01*
X-4215079Y-20636479D01*
X-4337003Y-20727767D01*
X-4375565Y-20750069D01*
X-4453446Y-20788102D01*
X-4529999Y-20816838D01*
X-4611836Y-20836955D01*
X-4705568Y-20849128D01*
X-4817805Y-20854037D01*
X-4955158Y-20852356D01*
X-5124237Y-20844764D01*
X-5235707Y-20838153D01*
X-5383075Y-20828784D01*
X-5526033Y-20819467D01*
X-5655728Y-20810799D01*
X-5763306Y-20803371D01*
X-5839914Y-20797779D01*
X-5854356Y-20796644D01*
X-6004295Y-20784539D01*
X-6031043Y-20875061D01*
X-6108464Y-21067229D01*
X-6221146Y-21249112D01*
X-6362743Y-21414338D01*
X-6526913Y-21556535D01*
X-6707310Y-21669329D01*
X-6897590Y-21746351D01*
X-6898883Y-21746731D01*
X-6931917Y-21755422D01*
X-6968942Y-21762654D01*
X-7012930Y-21768393D01*
X-7066851Y-21772603D01*
X-7133678Y-21775247D01*
X-7216383Y-21776291D01*
X-7317935Y-21775698D01*
X-7441307Y-21773433D01*
X-7589471Y-21769460D01*
X-7765397Y-21763744D01*
X-7972058Y-21756249D01*
X-8212424Y-21746939D01*
X-8489467Y-21735778D01*
X-8768922Y-21724275D01*
X-9042387Y-21712931D01*
X-9277034Y-21702907D01*
X-9476337Y-21693665D01*
X-9643772Y-21684667D01*
X-9782813Y-21675376D01*
X-9896934Y-21665253D01*
X-9989610Y-21653760D01*
X-10064316Y-21640360D01*
X-10124525Y-21624515D01*
X-10173714Y-21605687D01*
X-10215356Y-21583339D01*
X-10252925Y-21556932D01*
X-10289897Y-21525928D01*
X-10329747Y-21489791D01*
X-10339106Y-21481225D01*
X-10460355Y-21342685D01*
X-10552426Y-21178947D01*
X-10612725Y-20997755D01*
X-10638663Y-20806855D01*
X-10628183Y-20617423D01*
X-10601037Y-20488351D01*
X-10558729Y-20367766D01*
X-10496335Y-20245018D01*
X-10408935Y-20109456D01*
X-10365120Y-20048234D01*
X-10223962Y-19850327D01*
X-10087229Y-19649050D01*
X-9957993Y-19449544D01*
X-9839327Y-19256952D01*
X-9734304Y-19076413D01*
X-9645995Y-18913072D01*
X-9577473Y-18772067D01*
X-9531812Y-18658543D01*
X-9528278Y-18647834D01*
X-9519546Y-18608788D01*
X-9505907Y-18532518D01*
X-9488044Y-18423761D01*
X-9466641Y-18287256D01*
X-9442379Y-18127740D01*
X-9415942Y-17949951D01*
X-9388013Y-17758627D01*
X-9359274Y-17558507D01*
X-9330407Y-17354328D01*
X-9302097Y-17150829D01*
X-9275024Y-16952747D01*
X-9249873Y-16764820D01*
X-9227326Y-16591787D01*
X-9208066Y-16438385D01*
X-9198854Y-16361834D01*
X-9168164Y-16097540D01*
X-9142731Y-15867012D01*
X-9122073Y-15662073D01*
X-9105706Y-15474547D01*
X-9093145Y-15296255D01*
X-9083906Y-15119023D01*
X-9077507Y-14934673D01*
X-9073463Y-14735029D01*
X-9071290Y-14511913D01*
X-9070505Y-14257151D01*
X-9070470Y-14192250D01*
X-9070959Y-13925779D01*
X-9072844Y-13695590D01*
X-9076581Y-13495642D01*
X-9082626Y-13319894D01*
X-9091435Y-13162305D01*
X-9103466Y-13016834D01*
X-9119173Y-12877441D01*
X-9139015Y-12738084D01*
X-9163446Y-12592722D01*
X-9192924Y-12435315D01*
X-9209589Y-12350750D01*
X-9273058Y-12058566D01*
X-9342098Y-11796744D01*
X-9420984Y-11553333D01*
X-9513989Y-11316383D01*
X-9625385Y-11073942D01*
X-9758312Y-10816167D01*
X-9989560Y-10370998D01*
X-10193132Y-9944985D01*
X-10372972Y-9529136D01*
X-10533026Y-9114460D01*
X-10639104Y-8808932D01*
X-10683909Y-8667881D01*
X-10733125Y-8502737D01*
X-10784505Y-8321985D01*
X-10835805Y-8134108D01*
X-10884779Y-7947590D01*
X-10929182Y-7770915D01*
X-10966768Y-7612566D01*
X-10995292Y-7481028D01*
X-11007146Y-7418368D01*
X-11022660Y-7338522D01*
X-11039839Y-7287239D01*
X-11065893Y-7251115D01*
X-11108035Y-7216744D01*
X-11120334Y-7207979D01*
X-11462515Y-6952532D01*
X-11802642Y-6671700D01*
X-12133426Y-6372465D01*
X-12447581Y-6061814D01*
X-12737819Y-5746730D01*
X-12996853Y-5434200D01*
X-13068043Y-5341109D01*
X-13368739Y-4904808D01*
X-13637529Y-4441808D01*
X-13872855Y-3954926D01*
X-13985496Y-3683000D01*
X-14063941Y-3476389D01*
X-14137893Y-3268486D01*
X-14208276Y-3055605D01*
X-14276017Y-2834057D01*
X-14342043Y-2600154D01*
X-14407279Y-2350210D01*
X-14472652Y-2080536D01*
X-14539087Y-1787444D01*
X-14607511Y-1467247D01*
X-14678850Y-1116258D01*
X-14754030Y-730788D01*
X-14833977Y-307149D01*
X-14835989Y-296334D01*
X-14876099Y-82024D01*
X-8992998Y-82024D01*
X-8989004Y-335656D01*
X-8979355Y-570047D01*
X-8965139Y-762000D01*
X-8887223Y-1367783D01*
X-8770400Y-1963329D01*
X-8615871Y-2546756D01*
X-8424837Y-3116184D01*
X-8198500Y-3669732D01*
X-7938060Y-4205519D01*
X-7644719Y-4721665D01*
X-7319679Y-5216288D01*
X-6964140Y-5687509D01*
X-6579305Y-6133445D01*
X-6166373Y-6552218D01*
X-5726548Y-6941945D01*
X-5261029Y-7300746D01*
X-4771018Y-7626740D01*
X-4466166Y-7805578D01*
X-4081126Y-8012719D01*
X-3716334Y-8192112D01*
X-3363425Y-8347206D01*
X-3014033Y-8481450D01*
X-2659792Y-8598293D01*
X-2296619Y-8700081D01*
X-1715779Y-8831200D01*
X-1141832Y-8922418D01*
X-569224Y-8974298D01*
X7598Y-8987400D01*
X412750Y-8974027D01*
X1045222Y-8919050D01*
X1664441Y-8824790D01*
X2269263Y-8691674D01*
X2858549Y-8520125D01*
X3431156Y-8310569D01*
X3985942Y-8063430D01*
X4521767Y-7779134D01*
X5037488Y-7458105D01*
X5531964Y-7100767D01*
X5609167Y-7040145D01*
X5720795Y-6946843D01*
X5854366Y-6827613D01*
X6004041Y-6688296D01*
X6163980Y-6534732D01*
X6328342Y-6372762D01*
X6491289Y-6208227D01*
X6646979Y-6046968D01*
X6789574Y-5894824D01*
X6913233Y-5757638D01*
X7012115Y-5641249D01*
X7029381Y-5619750D01*
X7392925Y-5131003D01*
X7716340Y-4631601D01*
X8001112Y-4118664D01*
X8248727Y-3589306D01*
X8460670Y-3040645D01*
X8621735Y-2529417D01*
X8731962Y-2112240D01*
X8819325Y-1715047D01*
X8886119Y-1323803D01*
X8934635Y-924475D01*
X8967165Y-503031D01*
X8974032Y-372662D01*
X8982066Y237081D01*
X8948515Y848543D01*
X8873758Y1457859D01*
X8758175Y2061165D01*
X8719424Y2224930D01*
X8600737Y2660804D01*
X8463111Y3078388D01*
X8303449Y3484549D01*
X8118653Y3886154D01*
X7905624Y4290070D01*
X7661265Y4703166D01*
X7459973Y5016500D01*
X7115963Y5497888D01*
X6738820Y5954502D01*
X6330712Y6384939D01*
X5893806Y6787790D01*
X5430269Y7161651D01*
X4942268Y7505117D01*
X4431972Y7816780D01*
X3901547Y8095236D01*
X3353160Y8339079D01*
X2788978Y8546903D01*
X2211170Y8717302D01*
X1621902Y8848871D01*
X1524000Y8866701D01*
X1097519Y8928651D01*
X645561Y8969830D01*
X179644Y8990053D01*
X-288717Y8989132D01*
X-748005Y8966881D01*
X-1186706Y8923114D01*
X-1269871Y8911916D01*
X-1858250Y8807924D01*
X-2435925Y8663992D01*
X-3001094Y8481567D01*
X-3551953Y8262097D01*
X-4086701Y8007029D01*
X-4603535Y7717810D01*
X-5100651Y7395887D01*
X-5576247Y7042708D01*
X-6028522Y6659719D01*
X-6455671Y6248369D01*
X-6855892Y5810103D01*
X-7227383Y5346370D01*
X-7568341Y4858616D01*
X-7876964Y4348289D01*
X-8151448Y3816836D01*
X-8389991Y3265704D01*
X-8429013Y3164416D01*
X-8531611Y2870753D01*
X-8630128Y2545867D01*
X-8721828Y2200848D01*
X-8803975Y1846785D01*
X-8873834Y1494768D01*
X-8928668Y1155887D01*
X-8934050Y1117064D01*
X-8955798Y920523D01*
X-8972736Y692124D01*
X-8984694Y442086D01*
X-8991505Y180630D01*
X-8992998Y-82024D01*
X-14876099Y-82024D01*
X-14886206Y-28022D01*
X-14930789Y206033D01*
X-14971319Y413290D01*
X-15009379Y601206D01*
X-15046554Y777239D01*
X-15084424Y948846D01*
X-15124574Y1123484D01*
X-15168587Y1308611D01*
X-15218044Y1511685D01*
X-15230411Y1561939D01*
X-15329162Y1950768D01*
X-15432231Y2334299D01*
X-15538626Y2709774D01*
X-15647359Y3074433D01*
X-15757440Y3425519D01*
X-15867879Y3760273D01*
X-15977687Y4075935D01*
X-16085874Y4369748D01*
X-16191451Y4638952D01*
X-16293427Y4880789D01*
X-16390815Y5092500D01*
X-16482623Y5271326D01*
X-16567862Y5414509D01*
X-16645543Y5519291D01*
X-16652965Y5527669D01*
X-16714567Y5588106D01*
X-16807946Y5669067D01*
X-16929499Y5767835D01*
X-17075619Y5881693D01*
X-17242702Y6007924D01*
X-17427143Y6143811D01*
X-17625336Y6286637D01*
X-17833677Y6433685D01*
X-18048560Y6582237D01*
X-18086916Y6608423D01*
X-18227686Y6703200D01*
X-18341139Y6776526D01*
X-18433987Y6832136D01*
X-18512937Y6873768D01*
X-18584700Y6905158D01*
X-18655985Y6930041D01*
X-18674730Y6935746D01*
X-18791688Y6961251D01*
X-18936927Y6978798D01*
X-19097000Y6987535D01*
X-19258457Y6986613D01*
X-19367500Y6979539D01*
X-19603554Y6966610D01*
X-19812672Y6974640D01*
X-19991006Y7003339D01*
X-20091326Y7033978D01*
X-20309151Y7139492D01*
X-20505619Y7281023D01*
X-20678910Y7457031D01*
X-20814487Y7645156D01*
X-20863000Y7734028D01*
X-20919252Y7854266D01*
X-20979654Y7996447D01*
X-21040618Y8151148D01*
X-21098555Y8308946D01*
X-21149875Y8460419D01*
X-21190989Y8596142D01*
X-21217738Y8703899D01*
X-21248439Y8939624D01*
X-21249075Y9189783D01*
X-21220793Y9440730D01*
X-21164741Y9678821D01*
X-21126349Y9789583D01*
X-21107555Y9829640D01*
X-21069498Y9903671D01*
X-21013753Y10008805D01*
X-20941897Y10142167D01*
X-20855504Y10300884D01*
X-20756151Y10482082D01*
X-20645413Y10682889D01*
X-20524867Y10900430D01*
X-20396088Y11131833D01*
X-20260652Y11374223D01*
X-20120135Y11624728D01*
X-20112042Y11639126D01*
X-19155608Y13340502D01*
X-19217941Y13535093D01*
X-19294465Y13839275D01*
X-19336023Y14158778D01*
X-19343283Y14486536D01*
X-19316914Y14815483D01*
X-19257584Y15138554D01*
X-19165963Y15448683D01*
X-19042719Y15738805D01*
X-19002043Y15816575D01*
X-18825448Y16101123D01*
X-18610821Y16380933D01*
X-18362464Y16651488D01*
X-18084676Y16908273D01*
X-17781759Y17146770D01*
X-17642416Y17244218D01*
X-17304563Y17448363D01*
X-16938377Y17626020D01*
X-16550232Y17774946D01*
X-16146500Y17892898D01*
X-15733551Y17977634D01*
X-15453184Y18014883D01*
X-15295355Y18026024D01*
X-15107218Y18030997D01*
X-14900293Y18030160D01*
G37*
X-14900293Y18030160D02*
X-14686098Y18023868D01*
X-14476156Y18012478D01*
X-14281983Y17996344D01*
X-14115102Y17975824D01*
X-14096673Y17972958D01*
X-13665885Y17889759D01*
X-13235362Y17777507D01*
X-12802874Y17635137D01*
X-12366190Y17461579D01*
X-11923080Y17255766D01*
X-11471315Y17016630D01*
X-11008663Y16743105D01*
X-10532894Y16434121D01*
X-10041779Y16088611D01*
X-9823713Y15927337D01*
X-9615881Y15769305D01*
X-9413667Y15610845D01*
X-9213606Y15448874D01*
X-9012237Y15280310D01*
X-8806096Y15102070D01*
X-8591721Y14911072D01*
X-8365647Y14704232D01*
X-8124412Y14478470D01*
X-7864553Y14230701D01*
X-7582606Y13957844D01*
X-7296716Y13678062D01*
X-7055778Y13441661D01*
X-6841568Y13232527D01*
X-6651033Y13047842D01*
X-6481120Y12884787D01*
X-6328776Y12740544D01*
X-6190948Y12612293D01*
X-6064583Y12497216D01*
X-5946628Y12392495D01*
X-5834029Y12295309D01*
X-5723735Y12202841D01*
X-5612691Y12112272D01*
X-5524500Y12041851D01*
X-5135967Y11750583D01*
X-4739718Y11487097D01*
X-4332696Y11250323D01*
X-3911844Y11039188D01*
X-3474106Y10852622D01*
X-3016425Y10689555D01*
X-2535745Y10548914D01*
X-2029008Y10429629D01*
X-1493159Y10330628D01*
X-925141Y10250841D01*
X-321897Y10189197D01*
X-211666Y10180130D01*
X-125773Y10174749D01*
X-4140Y10169197D01*
X146639Y10163673D01*
X319972Y10158374D01*
X509265Y10153501D01*
X707926Y10149251D01*
X909362Y10145824D01*
X941917Y10145358D01*
X1261829Y10142152D01*
X1563353Y10141933D01*
X1854846Y10144954D01*
X2144664Y10151464D01*
X2441165Y10161715D01*
X2752704Y10175957D01*
X3087640Y10194441D01*
X3454327Y10217417D01*
X3545417Y10223456D01*
X4001030Y10252575D01*
X4419929Y10276380D01*
X4807377Y10295015D01*
X5168641Y10308624D01*
X5508985Y10317349D01*
X5833674Y10321336D01*
X6147974Y10320728D01*
X6457149Y10315668D01*
X6684689Y10309177D01*
X7248980Y10285108D01*
X7777666Y10251486D01*
X8276552Y10207554D01*
X8751443Y10152556D01*
X9208143Y10085732D01*
X9652458Y10006327D01*
X10090192Y9913581D01*
X10519834Y9808640D01*
X11133676Y9631011D01*
X11718051Y9424803D01*
X12272434Y9190279D01*
X12796297Y8927699D01*
X13289116Y8637325D01*
X13750366Y8319421D01*
X14149917Y7999822D01*
X14221468Y7935788D01*
X14315020Y7848253D01*
X14423267Y7744265D01*
X14538906Y7630872D01*
X14654631Y7515122D01*
X14700250Y7468781D01*
X15060084Y7101416D01*
X15356417Y6945608D01*
X15768181Y6710885D01*
X16145776Y6456515D01*
X16494598Y6177911D01*
X16820042Y5870483D01*
X17127506Y5529641D01*
X17346956Y5252770D01*
X17629402Y4842720D01*
X17881560Y4403533D01*
X18103166Y3935917D01*
X18293955Y3440581D01*
X18453663Y2918230D01*
X18582025Y2369574D01*
X18678778Y1795320D01*
X18700193Y1629833D01*
X18715326Y1483583D01*
X18720855Y1369682D01*
X18717060Y1279317D01*
X18712381Y1243968D01*
X18667172Y1073453D01*
X18593322Y927655D01*
X18494215Y809829D01*
X18373234Y723232D01*
X18233760Y671122D01*
X18102112Y656373D01*
X17994845Y663893D01*
X17899616Y689442D01*
X17811052Y736970D01*
X17723778Y810428D01*
X17632422Y913764D01*
X17531612Y1050929D01*
X17497865Y1100542D01*
X17449421Y1171872D01*
X17387901Y1261117D01*
X17317760Y1361959D01*
X17243451Y1468081D01*
X17169429Y1573168D01*
X17100147Y1670903D01*
X17040060Y1754969D01*
X16993621Y1819048D01*
X16965284Y1856826D01*
X16960505Y1862623D01*
X16957511Y1853388D01*
X16963289Y1820290D01*
X16968658Y1784341D01*
X16976895Y1713064D01*
X16987297Y1613313D01*
X16999161Y1491942D01*
X17011784Y1355804D01*
X17017558Y1291166D01*
X17073064Y603140D01*
X17114599Y-45223D01*
X17142167Y-654218D01*
X17155773Y-1224142D01*
X17155421Y-1755290D01*
X17141115Y-2247960D01*
X17112861Y-2702447D01*
X17080478Y-3036457D01*
X17056745Y-3232212D01*
X17031565Y-3412217D01*
X17003322Y-3584221D01*
X16970398Y-3755973D01*
X16931179Y-3935223D01*
X16884047Y-4129718D01*
X16827386Y-4347209D01*
X16759579Y-4595445D01*
X16742527Y-4656667D01*
X16650336Y-5018076D01*
X16579702Y-5369073D01*
X16529098Y-5721116D01*
X16496997Y-6085664D01*
X16481873Y-6474173D01*
X16480279Y-6625167D01*
X16486165Y-7013981D01*
X16508031Y-7375987D01*
X16547620Y-7721102D01*
X16606674Y-8059241D01*
X16686935Y-8400323D01*
X16790145Y-8754262D01*
X16918045Y-9130976D01*
X16922739Y-9144000D01*
X17023061Y-9430703D01*
X17105845Y-9688112D01*
X17173180Y-9924439D01*
X17227156Y-10147900D01*
X17269862Y-10366707D01*
X17303387Y-10589075D01*
X17315594Y-10688650D01*
X17328212Y-10848823D01*
X17333062Y-11031626D01*
X17330602Y-11225208D01*
X17321288Y-11417718D01*
X17305578Y-11597304D01*
X17283930Y-11752116D01*
X17272271Y-11811000D01*
X17214323Y-12083582D01*
X17160564Y-12364075D01*
X17110215Y-12657726D01*
X17062501Y-12969783D01*
X17016644Y-13305490D01*
X16971867Y-13670094D01*
X16927393Y-14068841D01*
X16902365Y-14308667D01*
X16869646Y-14642466D01*
X16836049Y-15010192D01*
X16802224Y-15403464D01*
X16768820Y-15813902D01*
X16736486Y-16233128D01*
X16705872Y-16652761D01*
X16677626Y-17064421D01*
X16652397Y-17459730D01*
X16634033Y-17772652D01*
X16607770Y-18241553D01*
X16701482Y-18640485D01*
X16736112Y-18791336D01*
X16761149Y-18910308D01*
X16777964Y-19006413D01*
X16787931Y-19088658D01*
X16792422Y-19166055D01*
X16792901Y-19240500D01*
X16773666Y-19440047D01*
X16722613Y-19622145D01*
X16642633Y-19783056D01*
X16536619Y-19919042D01*
X16407465Y-20026365D01*
X16258064Y-20101285D01*
X16097250Y-20139379D01*
X16056414Y-20143075D01*
X15977602Y-20149081D01*
X15865092Y-20157109D01*
X15723163Y-20166871D01*
X15556093Y-20178079D01*
X15368160Y-20190443D01*
X15163641Y-20203675D01*
X14946815Y-20217487D01*
X14823759Y-20225233D01*
X14551456Y-20242047D01*
X14318481Y-20255845D01*
X14121946Y-20266746D01*
X13958960Y-20274866D01*
X13826636Y-20280324D01*
X13722084Y-20283237D01*
X13642415Y-20283722D01*
X13584740Y-20281898D01*
X13546170Y-20277881D01*
X13543176Y-20277349D01*
X13368615Y-20223859D01*
X13205847Y-20133192D01*
X13059271Y-20009855D01*
X12933287Y-19858355D01*
X12832294Y-19683197D01*
X12760691Y-19488888D01*
X12755929Y-19470967D01*
X12726561Y-19356917D01*
X12178822Y-19363915D01*
X12008665Y-19365821D01*
X11874758Y-19366473D01*
X11771028Y-19365568D01*
X11691402Y-19362801D01*
X11629807Y-19357870D01*
X11580171Y-19350470D01*
X11536421Y-19340297D01*
X11501878Y-19330054D01*
X11323621Y-19252367D01*
X11166125Y-19141142D01*
X11031452Y-19000823D01*
X10921668Y-18835851D01*
X10838834Y-18650671D01*
X10785015Y-18449724D01*
X10762273Y-18237453D01*
X10772673Y-18018302D01*
X10807697Y-17835343D01*
X10823007Y-17780411D01*
X10840813Y-17727594D01*
X10863556Y-17672622D01*
X10893680Y-17611226D01*
X10933627Y-17539138D01*
X10985840Y-17452089D01*
X11052763Y-17345808D01*
X11136838Y-17216028D01*
X11240507Y-17058479D01*
X11326456Y-16928764D01*
X11421784Y-16784396D01*
X11511733Y-16646774D01*
X11593010Y-16521042D01*
X11662324Y-16412343D01*
X11716384Y-16325820D01*
X11751897Y-16266617D01*
X11762014Y-16248191D01*
X11804733Y-16142677D01*
X11840817Y-16014751D01*
X11865524Y-15884295D01*
X11874133Y-15778295D01*
X11868461Y-15728686D01*
X11850011Y-15670692D01*
X11817218Y-15602335D01*
X11768518Y-15521638D01*
X11702346Y-15426624D01*
X11617138Y-15315316D01*
X11511329Y-15185736D01*
X11383357Y-15035908D01*
X11231655Y-14863853D01*
X11054660Y-14667596D01*
X10850808Y-14445158D01*
X10636083Y-14213417D01*
X10369834Y-13926422D01*
X10130305Y-13666333D01*
X9914599Y-13429802D01*
X9719822Y-13213485D01*
X9543076Y-13014034D01*
X9381468Y-12828106D01*
X9232101Y-12652352D01*
X9092081Y-12483429D01*
X8958511Y-12317990D01*
X8828496Y-12152688D01*
X8699141Y-11984179D01*
X8645507Y-11913232D01*
X8360147Y-11520626D01*
X8093894Y-11126920D01*
X7849522Y-10736829D01*
X7629805Y-10355064D01*
X7437520Y-9986340D01*
X7275441Y-9635368D01*
X7208198Y-9472084D01*
X7172721Y-9383726D01*
X7141872Y-9309972D01*
X7119485Y-9259811D01*
X7110433Y-9242928D01*
X7086645Y-9243436D01*
X7029276Y-9255484D01*
X6944950Y-9277358D01*
X6840291Y-9307347D01*
X6728328Y-9341710D01*
X6141904Y-9519170D01*
X5577102Y-9673117D01*
X5023887Y-9805566D01*
X4472221Y-9918533D01*
X3912068Y-10014032D01*
X3333391Y-10094080D01*
X2726154Y-10160691D01*
X2582334Y-10174238D01*
X2444747Y-10184301D01*
X2271345Y-10192961D01*
X2068456Y-10200192D01*
X1842406Y-10205969D01*
X1599525Y-10210268D01*
X1346139Y-10213064D01*
X1088576Y-10214332D01*
X833163Y-10214049D01*
X586229Y-10212188D01*
X354101Y-10208727D01*
X143106Y-10203639D01*
X-40427Y-10196901D01*
X-190171Y-10188488D01*
X-232833Y-10185193D01*
X-530141Y-10158437D01*
X-824783Y-10128807D01*
X-1110425Y-10097085D01*
X-1380732Y-10064056D01*
X-1629370Y-10030503D01*
X-1850006Y-9997209D01*
X-2036306Y-9964958D01*
X-2077537Y-9956999D01*
X-2101843Y-9954891D01*
X-2124176Y-9962879D01*
X-2149355Y-9986451D01*
X-2182197Y-10031095D01*
X-2227522Y-10102300D01*
X-2277911Y-10185235D01*
X-2583008Y-10703371D01*
X-2858294Y-11196877D01*
X-3105219Y-11669668D01*
X-3325233Y-12125659D01*
X-3519788Y-12568766D01*
X-3690332Y-13002903D01*
X-3838316Y-13431986D01*
X-3965191Y-13859931D01*
X-4072407Y-14290651D01*
X-4161415Y-14728063D01*
X-4233664Y-15176081D01*
X-4287597Y-15610417D01*
X-4297281Y-15721622D01*
X-4306116Y-15864065D01*
X-4314018Y-16031828D01*
X-4320901Y-16218995D01*
X-4326679Y-16419647D01*
X-4331267Y-16627869D01*
X-4334579Y-16837742D01*
X-4336529Y-17043350D01*
X-4337033Y-17238775D01*
X-4336004Y-17418100D01*
X-4333356Y-17575409D01*
X-4329006Y-17704783D01*
X-4322865Y-17800306D01*
X-4319684Y-17829273D01*
X-4291344Y-17981860D01*
X-4243997Y-18151763D01*
X-4176110Y-18343375D01*
X-4086148Y-18561088D01*
X-3991239Y-18769820D01*
X-3915495Y-18934820D01*
X-3857944Y-19071261D01*
X-3816243Y-19187601D01*
X-3788046Y-19292297D01*
X-3771008Y-19393807D01*
X-3762784Y-19500590D01*
X-3760971Y-19600334D01*
X-3769425Y-19788279D01*
X-3797442Y-19954194D01*
X-3849005Y-20115411D01*
X-3911768Y-20256500D01*
X-3991562Y-20389246D01*
X-4096299Y-20519772D01*
X-4215079Y-20636479D01*
X-4337003Y-20727767D01*
X-4375565Y-20750069D01*
X-4453446Y-20788102D01*
X-4529999Y-20816838D01*
X-4611836Y-20836955D01*
X-4705568Y-20849128D01*
X-4817805Y-20854037D01*
X-4955158Y-20852356D01*
X-5124237Y-20844764D01*
X-5235707Y-20838153D01*
X-5383075Y-20828784D01*
X-5526033Y-20819467D01*
X-5655728Y-20810799D01*
X-5763306Y-20803371D01*
X-5839914Y-20797779D01*
X-5854356Y-20796644D01*
X-6004295Y-20784539D01*
X-6031043Y-20875061D01*
X-6108464Y-21067229D01*
X-6221146Y-21249112D01*
X-6362743Y-21414338D01*
X-6526913Y-21556535D01*
X-6707310Y-21669329D01*
X-6897590Y-21746351D01*
X-6898883Y-21746731D01*
X-6931917Y-21755422D01*
X-6968942Y-21762654D01*
X-7012930Y-21768393D01*
X-7066851Y-21772603D01*
X-7133678Y-21775247D01*
X-7216383Y-21776291D01*
X-7317935Y-21775698D01*
X-7441307Y-21773433D01*
X-7589471Y-21769460D01*
X-7765397Y-21763744D01*
X-7972058Y-21756249D01*
X-8212424Y-21746939D01*
X-8489467Y-21735778D01*
X-8768922Y-21724275D01*
X-9042387Y-21712931D01*
X-9277034Y-21702907D01*
X-9476337Y-21693665D01*
X-9643772Y-21684667D01*
X-9782813Y-21675376D01*
X-9896934Y-21665253D01*
X-9989610Y-21653760D01*
X-10064316Y-21640360D01*
X-10124525Y-21624515D01*
X-10173714Y-21605687D01*
X-10215356Y-21583339D01*
X-10252925Y-21556932D01*
X-10289897Y-21525928D01*
X-10329747Y-21489791D01*
X-10339106Y-21481225D01*
X-10460355Y-21342685D01*
X-10552426Y-21178947D01*
X-10612725Y-20997755D01*
X-10638663Y-20806855D01*
X-10628183Y-20617423D01*
X-10601037Y-20488351D01*
X-10558729Y-20367766D01*
X-10496335Y-20245018D01*
X-10408935Y-20109456D01*
X-10365120Y-20048234D01*
X-10223962Y-19850327D01*
X-10087229Y-19649050D01*
X-9957993Y-19449544D01*
X-9839327Y-19256952D01*
X-9734304Y-19076413D01*
X-9645995Y-18913072D01*
X-9577473Y-18772067D01*
X-9531812Y-18658543D01*
X-9528278Y-18647834D01*
X-9519546Y-18608788D01*
X-9505907Y-18532518D01*
X-9488044Y-18423761D01*
X-9466641Y-18287256D01*
X-9442379Y-18127740D01*
X-9415942Y-17949951D01*
X-9388013Y-17758627D01*
X-9359274Y-17558507D01*
X-9330407Y-17354328D01*
X-9302097Y-17150829D01*
X-9275024Y-16952747D01*
X-9249873Y-16764820D01*
X-9227326Y-16591787D01*
X-9208066Y-16438385D01*
X-9198854Y-16361834D01*
X-9168164Y-16097540D01*
X-9142731Y-15867012D01*
X-9122073Y-15662073D01*
X-9105706Y-15474547D01*
X-9093145Y-15296255D01*
X-9083906Y-15119023D01*
X-9077507Y-14934673D01*
X-9073463Y-14735029D01*
X-9071290Y-14511913D01*
X-9070505Y-14257151D01*
X-9070470Y-14192250D01*
X-9070959Y-13925779D01*
X-9072844Y-13695590D01*
X-9076581Y-13495642D01*
X-9082626Y-13319894D01*
X-9091435Y-13162305D01*
X-9103466Y-13016834D01*
X-9119173Y-12877441D01*
X-9139015Y-12738084D01*
X-9163446Y-12592722D01*
X-9192924Y-12435315D01*
X-9209589Y-12350750D01*
X-9273058Y-12058566D01*
X-9342098Y-11796744D01*
X-9420984Y-11553333D01*
X-9513989Y-11316383D01*
X-9625385Y-11073942D01*
X-9758312Y-10816167D01*
X-9989560Y-10370998D01*
X-10193132Y-9944985D01*
X-10372972Y-9529136D01*
X-10533026Y-9114460D01*
X-10639104Y-8808932D01*
X-10683909Y-8667881D01*
X-10733125Y-8502737D01*
X-10784505Y-8321985D01*
X-10835805Y-8134108D01*
X-10884779Y-7947590D01*
X-10929182Y-7770915D01*
X-10966768Y-7612566D01*
X-10995292Y-7481028D01*
X-11007146Y-7418368D01*
X-11022660Y-7338522D01*
X-11039839Y-7287239D01*
X-11065893Y-7251115D01*
X-11108035Y-7216744D01*
X-11120334Y-7207979D01*
X-11462515Y-6952532D01*
X-11802642Y-6671700D01*
X-12133426Y-6372465D01*
X-12447581Y-6061814D01*
X-12737819Y-5746730D01*
X-12996853Y-5434200D01*
X-13068043Y-5341109D01*
X-13368739Y-4904808D01*
X-13637529Y-4441808D01*
X-13872855Y-3954926D01*
X-13985496Y-3683000D01*
X-14063941Y-3476389D01*
X-14137893Y-3268486D01*
X-14208276Y-3055605D01*
X-14276017Y-2834057D01*
X-14342043Y-2600154D01*
X-14407279Y-2350210D01*
X-14472652Y-2080536D01*
X-14539087Y-1787444D01*
X-14607511Y-1467247D01*
X-14678850Y-1116258D01*
X-14754030Y-730788D01*
X-14833977Y-307149D01*
X-14835989Y-296334D01*
X-14876099Y-82024D01*
X-8992998Y-82024D01*
X-8989004Y-335656D01*
X-8979355Y-570047D01*
X-8965139Y-762000D01*
X-8887223Y-1367783D01*
X-8770400Y-1963329D01*
X-8615871Y-2546756D01*
X-8424837Y-3116184D01*
X-8198500Y-3669732D01*
X-7938060Y-4205519D01*
X-7644719Y-4721665D01*
X-7319679Y-5216288D01*
X-6964140Y-5687509D01*
X-6579305Y-6133445D01*
X-6166373Y-6552218D01*
X-5726548Y-6941945D01*
X-5261029Y-7300746D01*
X-4771018Y-7626740D01*
X-4466166Y-7805578D01*
X-4081126Y-8012719D01*
X-3716334Y-8192112D01*
X-3363425Y-8347206D01*
X-3014033Y-8481450D01*
X-2659792Y-8598293D01*
X-2296619Y-8700081D01*
X-1715779Y-8831200D01*
X-1141832Y-8922418D01*
X-569224Y-8974298D01*
X7598Y-8987400D01*
X412750Y-8974027D01*
X1045222Y-8919050D01*
X1664441Y-8824790D01*
X2269263Y-8691674D01*
X2858549Y-8520125D01*
X3431156Y-8310569D01*
X3985942Y-8063430D01*
X4521767Y-7779134D01*
X5037488Y-7458105D01*
X5531964Y-7100767D01*
X5609167Y-7040145D01*
X5720795Y-6946843D01*
X5854366Y-6827613D01*
X6004041Y-6688296D01*
X6163980Y-6534732D01*
X6328342Y-6372762D01*
X6491289Y-6208227D01*
X6646979Y-6046968D01*
X6789574Y-5894824D01*
X6913233Y-5757638D01*
X7012115Y-5641249D01*
X7029381Y-5619750D01*
X7392925Y-5131003D01*
X7716340Y-4631601D01*
X8001112Y-4118664D01*
X8248727Y-3589306D01*
X8460670Y-3040645D01*
X8621735Y-2529417D01*
X8731962Y-2112240D01*
X8819325Y-1715047D01*
X8886119Y-1323803D01*
X8934635Y-924475D01*
X8967165Y-503031D01*
X8974032Y-372662D01*
X8982066Y237081D01*
X8948515Y848543D01*
X8873758Y1457859D01*
X8758175Y2061165D01*
X8719424Y2224930D01*
X8600737Y2660804D01*
X8463111Y3078388D01*
X8303449Y3484549D01*
X8118653Y3886154D01*
X7905624Y4290070D01*
X7661265Y4703166D01*
X7459973Y5016500D01*
X7115963Y5497888D01*
X6738820Y5954502D01*
X6330712Y6384939D01*
X5893806Y6787790D01*
X5430269Y7161651D01*
X4942268Y7505117D01*
X4431972Y7816780D01*
X3901547Y8095236D01*
X3353160Y8339079D01*
X2788978Y8546903D01*
X2211170Y8717302D01*
X1621902Y8848871D01*
X1524000Y8866701D01*
X1097519Y8928651D01*
X645561Y8969830D01*
X179644Y8990053D01*
X-288717Y8989132D01*
X-748005Y8966881D01*
X-1186706Y8923114D01*
X-1269871Y8911916D01*
X-1858250Y8807924D01*
X-2435925Y8663992D01*
X-3001094Y8481567D01*
X-3551953Y8262097D01*
X-4086701Y8007029D01*
X-4603535Y7717810D01*
X-5100651Y7395887D01*
X-5576247Y7042708D01*
X-6028522Y6659719D01*
X-6455671Y6248369D01*
X-6855892Y5810103D01*
X-7227383Y5346370D01*
X-7568341Y4858616D01*
X-7876964Y4348289D01*
X-8151448Y3816836D01*
X-8389991Y3265704D01*
X-8429013Y3164416D01*
X-8531611Y2870753D01*
X-8630128Y2545867D01*
X-8721828Y2200848D01*
X-8803975Y1846785D01*
X-8873834Y1494768D01*
X-8928668Y1155887D01*
X-8934050Y1117064D01*
X-8955798Y920523D01*
X-8972736Y692124D01*
X-8984694Y442086D01*
X-8991505Y180630D01*
X-8992998Y-82024D01*
X-14876099Y-82024D01*
X-14886206Y-28022D01*
X-14930789Y206033D01*
X-14971319Y413290D01*
X-15009379Y601206D01*
X-15046554Y777239D01*
X-15084424Y948846D01*
X-15124574Y1123484D01*
X-15168587Y1308611D01*
X-15218044Y1511685D01*
X-15230411Y1561939D01*
X-15329162Y1950768D01*
X-15432231Y2334299D01*
X-15538626Y2709774D01*
X-15647359Y3074433D01*
X-15757440Y3425519D01*
X-15867879Y3760273D01*
X-15977687Y4075935D01*
X-16085874Y4369748D01*
X-16191451Y4638952D01*
X-16293427Y4880789D01*
X-16390815Y5092500D01*
X-16482623Y5271326D01*
X-16567862Y5414509D01*
X-16645543Y5519291D01*
X-16652965Y5527669D01*
X-16714567Y5588106D01*
X-16807946Y5669067D01*
X-16929499Y5767835D01*
X-17075619Y5881693D01*
X-17242702Y6007924D01*
X-17427143Y6143811D01*
X-17625336Y6286637D01*
X-17833677Y6433685D01*
X-18048560Y6582237D01*
X-18086916Y6608423D01*
X-18227686Y6703200D01*
X-18341139Y6776526D01*
X-18433987Y6832136D01*
X-18512937Y6873768D01*
X-18584700Y6905158D01*
X-18655985Y6930041D01*
X-18674730Y6935746D01*
X-18791688Y6961251D01*
X-18936927Y6978798D01*
X-19097000Y6987535D01*
X-19258457Y6986613D01*
X-19367500Y6979539D01*
X-19603554Y6966610D01*
X-19812672Y6974640D01*
X-19991006Y7003339D01*
X-20091326Y7033978D01*
X-20309151Y7139492D01*
X-20505619Y7281023D01*
X-20678910Y7457031D01*
X-20814487Y7645156D01*
X-20863000Y7734028D01*
X-20919252Y7854266D01*
X-20979654Y7996447D01*
X-21040618Y8151148D01*
X-21098555Y8308946D01*
X-21149875Y8460419D01*
X-21190989Y8596142D01*
X-21217738Y8703899D01*
X-21248439Y8939624D01*
X-21249075Y9189783D01*
X-21220793Y9440730D01*
X-21164741Y9678821D01*
X-21126349Y9789583D01*
X-21107555Y9829640D01*
X-21069498Y9903671D01*
X-21013753Y10008805D01*
X-20941897Y10142167D01*
X-20855504Y10300884D01*
X-20756151Y10482082D01*
X-20645413Y10682889D01*
X-20524867Y10900430D01*
X-20396088Y11131833D01*
X-20260652Y11374223D01*
X-20120135Y11624728D01*
X-20112042Y11639126D01*
X-19155608Y13340502D01*
X-19217941Y13535093D01*
X-19294465Y13839275D01*
X-19336023Y14158778D01*
X-19343283Y14486536D01*
X-19316914Y14815483D01*
X-19257584Y15138554D01*
X-19165963Y15448683D01*
X-19042719Y15738805D01*
X-19002043Y15816575D01*
X-18825448Y16101123D01*
X-18610821Y16380933D01*
X-18362464Y16651488D01*
X-18084676Y16908273D01*
X-17781759Y17146770D01*
X-17642416Y17244218D01*
X-17304563Y17448363D01*
X-16938377Y17626020D01*
X-16550232Y17774946D01*
X-16146500Y17892898D01*
X-15733551Y17977634D01*
X-15453184Y18014883D01*
X-15295355Y18026024D01*
X-15107218Y18030997D01*
X-14900293Y18030160D01*
M02*
