<?xml version="1.0" encoding="UTF-8" standalone="no"?>
<svg
   xmlns:dc="http://purl.org/dc/elements/1.1/"
   xmlns:cc="http://creativecommons.org/ns#"
   xmlns:rdf="http://www.w3.org/1999/02/22-rdf-syntax-ns#"
   xmlns:svg="http://www.w3.org/2000/svg"
   xmlns="http://www.w3.org/2000/svg"
   xmlns:sodipodi="http://sodipodi.sourceforge.net/DTD/sodipodi-0.dtd"
   xmlns:inkscape="http://www.inkscape.org/namespaces/inkscape"
   width="100.0mm"
   height="100.0mm"
   viewBox="0 0 100.0 100.0"
   version="1.1"
   id="svg8"
   sodipodi:docname="wheat_tile.svg"
   inkscape:version="1.0.2 (394de47547, 2021-03-26)">
  <defs
     id="defs2" />
  <sodipodi:namedview
     id="base"
     pagecolor="#ffffff"
     bordercolor="#666666"
     borderopacity="1.0"
     inkscape:pageopacity="0.0"
     inkscape:pageshadow="2"
     inkscape:zoom="5.0403125"
     inkscape:cx="150.7843"
     inkscape:cy="181.04036"
     inkscape:document-units="mm"
     inkscape:current-layer="g842"
     inkscape:document-rotation="0"
     showgrid="false"
     inkscape:window-width="2155"
     inkscape:window-height="2096"
     inkscape:window-x="1685"
     inkscape:window-y="27"
     inkscape:window-maximized="0" />
  <metadata
     id="metadata5">
    <rdf:RDF>
      <cc:Work
         rdf:about="">
        <dc:format>image/svg+xml</dc:format>
        <dc:type
           rdf:resource="http://purl.org/dc/dcmitype/StillImage" />
        <dc:title />
      </cc:Work>
    </rdf:RDF>
  </metadata>
  <g
     inkscape:label="[fixed] BG"
     inkscape:groupmode="layer"
     sodipodi:insensitive="true"
     id="g838"
     style="display:inline">
    <rect
       x="0"
       y="0"
       width="100"
       height="100"
       style="fill:#ffffff;fill-opacity:1;stroke:none"
       id="rect836" />
  </g>
  <g
     inkscape:label="Edge.Cuts"
     inkscape:groupmode="layer"
     id="g840"
     style="display:inline">
    <path
       id="path864"
       style="fill:none;stroke:#000600;stroke-width:0.104494;stroke-opacity:1"
       d="M 64.9801 75.9228 L 35.0404 75.9346 L 20.0603 50.012 L 35.0199 24.0776 L 64.9596 24.0658 L 79.9397 49.9884 L 64.9801 75.9228" />
    <path
       id="path867"
       style="fill:none;stroke:#000600;stroke-width:0.0889503;stroke-opacity:1"
       d="M 58.0055 50.0002 L 57.9957 50.3971 L 57.9664 50.7914 L 57.9178 51.1823 L 57.8503 51.5693 L 57.7641 51.9515 L 57.6595 52.3285 L 57.5367 52.6994 L 57.3961 53.0638 L 57.2379 53.4208 L 57.0624 53.7699 L 56.8699 54.1104 L 56.6605 54.4416 L 56.4346 54.763 L 56.1926 55.0737 L 55.9345 55.3733 L 55.6608 55.6609 L 55.3731 55.9347 L 55.0736 56.1927 L 54.7628 56.4348 L 54.4415 56.6607 L 54.1102 56.87 L 53.7697 57.0626 L 53.4206 57.2381 L 53.0636 57.3963 L 52.6993 57.5369 L 52.3283 57.6597 L 51.9514 57.7643 L 51.5691 57.8505 L 51.1822 57.918 L 50.7912 57.9665 L 50.397 57.9959 L 50 58.0057 L 49.603 57.9959 L 49.2088 57.9665 L 48.8178 57.918 L 48.4309 57.8505 L 48.0486 57.7643 L 47.6717 57.6597 L 47.3007 57.5369 L 46.9364 57.3963 L 46.5794 57.2381 L 46.2303 57.0626 L 45.8898 56.87 L 45.5585 56.6607 L 45.2372 56.4348 L 44.9264 56.1927 L 44.6269 55.9347 L 44.3392 55.6609 L 44.0655 55.3733 L 43.8074 55.0737 L 43.5654 54.763 L 43.3395 54.4416 L 43.1301 54.1104 L 42.9376 53.7699 L 42.7621 53.4208 L 42.6039 53.0638 L 42.4633 52.6994 L 42.3405 52.3285 L 42.2359 51.9515 L 42.1497 51.5693 L 42.0822 51.1823 L 42.0336 50.7914 L 42.0043 50.3971 L 41.9945 50.0002 L 42.0049 49.5882 L 42.0358 49.1817 L 42.0867 48.781 L 42.1571 48.3868 L 42.2465 47.9995 L 42.3544 47.6196 L 42.4802 47.2476 L 42.6236 46.8841 L 42.7839 46.5294 L 42.9607 46.1843 L 43.1535 45.849 L 43.3617 45.5242 L 43.5849 45.2103 L 43.8225 44.9079 L 44.0742 44.6174 L 44.3392 44.3394 L 44.6173 44.0743 L 44.9077 43.8227 L 45.2102 43.5851 L 45.524 43.3619 L 45.8488 43.1536 L 46.1841 42.9609 L 46.5293 42.7841 L 46.8839 42.6238 L 47.2474 42.4804 L 47.6194 42.3546 L 47.9993 42.2467 L 48.3866 42.1573 L 48.7808 42.0869 L 49.1815 42.036 L 49.588 42.0051 L 50 41.9947 L 50.412 42.0051 L 50.8185 42.036 L 51.2192 42.0869 L 51.6134 42.1573 L 52.0007 42.2467 L 52.3806 42.3546 L 52.7526 42.4804 L 53.1161 42.6238 L 53.4707 42.7841 L 53.8159 42.9609 L 54.1512 43.1536 L 54.476 43.3619 L 54.7898 43.5851 L 55.0923 43.8227 L 55.3827 44.0743 L 55.6608 44.3394 L 55.9258 44.6174 L 56.1775 44.9079 L 56.4151 45.2103 L 56.6383 45.5242 L 56.8465 45.849 L 57.0393 46.1843 L 57.2161 46.5294 L 57.3764 46.8841 L 57.5198 47.2476 L 57.6456 47.6196 L 57.7535 47.9995 L 57.8429 48.3868 L 57.9133 48.781 L 57.9642 49.1817 L 57.9951 49.5882 L 58.0055 50.0002 L 58.0055 50.0002" />
  </g>
  <g
     inkscape:label="B.Cu"
     inkscape:groupmode="layer"
     id="g842"
     style="display:none">
    <path
       id="path912"
       style="display:inline;fill:#000000;fill-opacity:1;stroke:none;stroke-width:0.394938;stroke-opacity:1"
       d="m 243.33594,94.738281 c -36.26477,0.01474 -72.52821,0.03011 -108.79297,0.04492 -18.12008,31.414869 -36.24125,62.829279 -54.361329,94.244139 18.144684,31.39764 36.288909,62.79572 54.433589,94.19336 36.26477,-0.0174 72.53016,-0.0335 108.79493,-0.0508 18.12008,-31.41486 36.24125,-62.83123 54.36132,-94.24609 -18.14468,-31.39518 -36.29085,-62.79037 -54.43554,-94.185551 z m -53.75977,60.195309 c 11.32973,0.15667 22.32168,6.31589 28.25977,16.01368 8.32465,12.77751 6.35513,31.01922 -4.4668,41.7539 -10.21969,10.87541 -27.85926,13.50379 -40.80664,6.08203 -13.00567,-6.87775 -20.19472,-22.80958 -16.83203,-37.11718 2.98045,-14.65564 16.62603,-26.20166 31.57812,-26.6836 0.75693,-0.0436 1.51227,-0.0593 2.26758,-0.0488 z"
       transform="scale(0.26458333)" />
  </g>
  <g
     inkscape:label="B.Mask-disabled"
     inkscape:groupmode="layer"
     id="g844"
     style="display:inline" />
  <g
     inkscape:label="B.SilkS"
     inkscape:groupmode="layer"
     id="g846"
     style="display:none">
    <text
       xml:space="preserve"
       style="font-style:normal;font-weight:normal;font-size:7.05556px;line-height:1.25;font-family:sans-serif;letter-spacing:0px;word-spacing:0px;display:inline;fill:#000000;fill-opacity:1;stroke:none;stroke-width:0.264583"
       x="-54.994514"
       y="35.143505"
       id="text847"
       transform="scale(-1,1)"><tspan
         sodipodi:role="line"
         id="tspan845"
         x="-54.994514"
         y="35.143505"
         style="font-style:normal;font-variant:normal;font-weight:normal;font-stretch:normal;font-size:7.05556px;font-family:FreeSans;-inkscape-font-specification:FreeSans;stroke-width:0.264583">EX</tspan></text>
  </g>
  <g
     inkscape:label="F.Cu"
     inkscape:groupmode="layer"
     id="g848"
     style="display:inline">
    <g
       id="g30"
       transform="matrix(0.872829,-0.42116044,0.42116044,0.872829,43.370839,44.78055)">
      <path
         style="fill:#030104"
         d="M 21.184,2.555 C 21.872,3.757 21.309,4.217 20.748,4.532 20.187,4.846 19.513,4.957 18.827,3.758 18.136,2.556 18.11,0 18.11,0 c 0,0 2.384,1.354 3.074,2.555 z"
         id="path2" />
      <path
         style="fill:#030104"
         d="m 24.16,6.004 c -0.595,1.251 -1.292,1.053 -1.87,0.775 -0.581,-0.283 -1.056,-0.773 -0.467,-2.02 0.595,-1.254 2.674,-2.736 2.674,-2.736 0,0 0.254,2.731 -0.337,3.981 z"
         id="path4" />
      <path
         style="fill:#030104"
         d="m 24.564,10.728 c -0.897,1.056 -1.521,0.685 -2.006,0.267 -0.487,-0.421 -0.82,-1.018 0.07,-2.071 0.895,-1.06 3.291,-1.954 3.291,-1.954 0,0 -0.461,2.702 -1.355,3.758 z"
         id="path6" />
      <path
         style="fill:#030104"
         d="m 20.565,9.336 c 1.229,0.716 0.978,1.396 0.65,1.949 -0.329,0.554 -0.863,0.984 -2.09,0.271 -1.232,-0.715 -2.59,-2.946 -2.59,-2.946 0,0 2.798,0.012 4.03,0.726 z"
         id="path8" />
      <path
         style="fill:#030104"
         d="m 22.944,15.583 c -1.202,0.688 -1.662,0.128 -1.979,-0.431 -0.315,-0.561 -0.426,-1.237 0.771,-1.925 1.201,-0.691 3.759,-0.721 3.759,-0.721 0,0 -1.35,2.387 -2.551,3.077 z"
         id="path10" />
      <path
         style="fill:#030104"
         d="m 19.835,13.057 c 0.88,1.121 0.393,1.659 -0.114,2.052 -0.509,0.396 -1.169,0.596 -2.045,-0.521 -0.878,-1.121 -1.312,-3.695 -1.312,-3.695 0,0 2.592,1.047 3.471,2.164 z"
         id="path12" />
      <path
         style="fill:#030104"
         d="m 20.428,19.678 c -1.366,0.24 -1.607,-0.443 -1.716,-1.076 -0.108,-0.636 0.015,-1.307 1.372,-1.55 1.367,-0.243 3.783,0.597 3.783,0.597 0,0 -2.081,1.785 -3.439,2.029 z"
         id="path14" />
      <path
         style="fill:#030104"
         d="m 18.198,16.285 c 0.601,1.292 0,1.704 -0.584,1.971 -0.587,0.266 -1.271,0.311 -1.866,-0.975 -0.601,-1.293 -0.432,-3.9 -0.432,-3.9 0,0 2.286,1.614 2.882,2.904 z"
         id="path16" />
      <path
         style="fill:#030104"
         d="m 15.474,18.787 c 0.245,1.4 -0.438,1.645 -1.07,1.753 -0.636,0.103 -1.312,-0.028 -1.555,-1.424 -0.245,-1.404 0.587,-3.88 0.587,-3.88 0,0 1.792,2.149 2.038,3.551 z"
         id="path18" />
      <path
         style="fill:#030104"
         d="m 16.792,22.827 c -1.409,-0.209 -1.424,-0.937 -1.327,-1.57 0.104,-0.638 0.44,-1.234 1.843,-1.024 1.409,0.211 3.496,1.783 3.496,1.783 0,0 -2.607,1.021 -4.012,0.811 z"
         id="path20" />
      <path
         style="fill:#030104"
         d="m 12.398,21.047 c 0.102,1.42 -0.603,1.594 -1.244,1.637 -0.643,0.037 -1.3,-0.164 -1.403,-1.576 -0.098,-1.422 0.983,-3.799 0.983,-3.799 0,0 1.565,2.321 1.664,3.738 z"
         id="path22" />
      <path
         style="fill:#030104"
         d="m 12.762,25.197 c -1.344,-0.477 -1.221,-1.192 -1.001,-1.796 0.221,-0.606 0.668,-1.127 2.005,-0.654 1.342,0.477 3.088,2.419 3.088,2.419 0,0 -2.754,0.504 -4.092,0.031 z"
         id="path24" />
      <path
         style="fill:#030104"
         d="m 20.163,5.464 c 1.366,0.37 1.298,1.096 1.126,1.712 -0.174,0.621 -0.579,1.175 -1.939,0.806 -1.371,-0.37 -3.243,-2.17 -3.243,-2.17 0,0 2.691,-0.717 4.056,-0.348 z"
         id="path26" />
      <path
         style="fill:#030104"
         d="m 10.638,23.44 c 0,0 -6.453,2.538 -10.479,1.634 C -0.157,25.45 0.605,26 0.605,26 c 0,0 5.86,0.091 10.033,-2.56 z"
         id="path28" />
    </g>
    <g
       id="g962"
       transform="matrix(-0.872829,-0.42116044,-0.42116044,0.872829,56.394875,44.78055)">
      <path
         style="fill:#030104"
         d="M 21.184,2.555 C 21.872,3.757 21.309,4.217 20.748,4.532 20.187,4.846 19.513,4.957 18.827,3.758 18.136,2.556 18.11,0 18.11,0 c 0,0 2.384,1.354 3.074,2.555 z"
         id="path934" />
      <path
         style="fill:#030104"
         d="m 24.16,6.004 c -0.595,1.251 -1.292,1.053 -1.87,0.775 -0.581,-0.283 -1.056,-0.773 -0.467,-2.02 0.595,-1.254 2.674,-2.736 2.674,-2.736 0,0 0.254,2.731 -0.337,3.981 z"
         id="path936" />
      <path
         style="fill:#030104"
         d="m 24.564,10.728 c -0.897,1.056 -1.521,0.685 -2.006,0.267 -0.487,-0.421 -0.82,-1.018 0.07,-2.071 0.895,-1.06 3.291,-1.954 3.291,-1.954 0,0 -0.461,2.702 -1.355,3.758 z"
         id="path938" />
      <path
         style="fill:#030104"
         d="m 20.565,9.336 c 1.229,0.716 0.978,1.396 0.65,1.949 -0.329,0.554 -0.863,0.984 -2.09,0.271 -1.232,-0.715 -2.59,-2.946 -2.59,-2.946 0,0 2.798,0.012 4.03,0.726 z"
         id="path940" />
      <path
         style="fill:#030104"
         d="m 22.944,15.583 c -1.202,0.688 -1.662,0.128 -1.979,-0.431 -0.315,-0.561 -0.426,-1.237 0.771,-1.925 1.201,-0.691 3.759,-0.721 3.759,-0.721 0,0 -1.35,2.387 -2.551,3.077 z"
         id="path942" />
      <path
         style="fill:#030104"
         d="m 19.835,13.057 c 0.88,1.121 0.393,1.659 -0.114,2.052 -0.509,0.396 -1.169,0.596 -2.045,-0.521 -0.878,-1.121 -1.312,-3.695 -1.312,-3.695 0,0 2.592,1.047 3.471,2.164 z"
         id="path944" />
      <path
         style="fill:#030104"
         d="m 20.428,19.678 c -1.366,0.24 -1.607,-0.443 -1.716,-1.076 -0.108,-0.636 0.015,-1.307 1.372,-1.55 1.367,-0.243 3.783,0.597 3.783,0.597 0,0 -2.081,1.785 -3.439,2.029 z"
         id="path946" />
      <path
         style="fill:#030104"
         d="m 18.198,16.285 c 0.601,1.292 0,1.704 -0.584,1.971 -0.587,0.266 -1.271,0.311 -1.866,-0.975 -0.601,-1.293 -0.432,-3.9 -0.432,-3.9 0,0 2.286,1.614 2.882,2.904 z"
         id="path948" />
      <path
         style="fill:#030104"
         d="m 15.474,18.787 c 0.245,1.4 -0.438,1.645 -1.07,1.753 -0.636,0.103 -1.312,-0.028 -1.555,-1.424 -0.245,-1.404 0.587,-3.88 0.587,-3.88 0,0 1.792,2.149 2.038,3.551 z"
         id="path950" />
      <path
         style="fill:#030104"
         d="m 16.792,22.827 c -1.409,-0.209 -1.424,-0.937 -1.327,-1.57 0.104,-0.638 0.44,-1.234 1.843,-1.024 1.409,0.211 3.496,1.783 3.496,1.783 0,0 -2.607,1.021 -4.012,0.811 z"
         id="path952" />
      <path
         style="fill:#030104"
         d="m 12.398,21.047 c 0.102,1.42 -0.603,1.594 -1.244,1.637 -0.643,0.037 -1.3,-0.164 -1.403,-1.576 -0.098,-1.422 0.983,-3.799 0.983,-3.799 0,0 1.565,2.321 1.664,3.738 z"
         id="path954" />
      <path
         style="fill:#030104"
         d="m 12.762,25.197 c -1.344,-0.477 -1.221,-1.192 -1.001,-1.796 0.221,-0.606 0.668,-1.127 2.005,-0.654 1.342,0.477 3.088,2.419 3.088,2.419 0,0 -2.754,0.504 -4.092,0.031 z"
         id="path956" />
      <path
         style="fill:#030104"
         d="m 20.163,5.464 c 1.366,0.37 1.298,1.096 1.126,1.712 -0.174,0.621 -0.579,1.175 -1.939,0.806 -1.371,-0.37 -3.243,-2.17 -3.243,-2.17 0,0 2.691,-0.717 4.056,-0.348 z"
         id="path958" />
      <path
         style="fill:#030104"
         d="m 10.638,23.44 c 0,0 -6.453,2.538 -10.479,1.634 C -0.157,25.45 0.605,26 0.605,26 c 0,0 5.86,0.091 10.033,-2.56 z"
         id="path960" />
    </g>
  </g>
  <g
     inkscape:label="F.Mask-disabled"
     inkscape:groupmode="layer"
     id="g850" />
  <g
     inkscape:label="F.SilkS"
     inkscape:groupmode="layer"
     id="g852"
     style="display:inline">
    <g
       id="g992"
       transform="matrix(0.87282901,-0.42116044,0.42116044,0.87282901,43.370839,44.780549)"
       style="display:inline;fill:none;stroke:#515151;stroke-width:0.309557;stroke-miterlimit:4;stroke-dasharray:none;stroke-opacity:1">
      <path
         style="fill:none;stroke:#515151;stroke-width:0.309557;stroke-miterlimit:4;stroke-dasharray:none;stroke-opacity:1"
         d="M 21.184,2.555 C 21.872,3.757 21.309,4.217 20.748,4.532 20.187,4.846 19.513,4.957 18.827,3.758 18.136,2.556 18.11,0 18.11,0 c 0,0 2.384,1.354 3.074,2.555 z"
         id="path964" />
      <path
         style="fill:none;stroke:#515151;stroke-width:0.309557;stroke-miterlimit:4;stroke-dasharray:none;stroke-opacity:1"
         d="m 24.16,6.004 c -0.595,1.251 -1.292,1.053 -1.87,0.775 -0.581,-0.283 -1.056,-0.773 -0.467,-2.02 0.595,-1.254 2.674,-2.736 2.674,-2.736 0,0 0.254,2.731 -0.337,3.981 z"
         id="path966" />
      <path
         style="fill:none;stroke:#515151;stroke-width:0.309557;stroke-miterlimit:4;stroke-dasharray:none;stroke-opacity:1"
         d="m 24.564,10.728 c -0.897,1.056 -1.521,0.685 -2.006,0.267 -0.487,-0.421 -0.82,-1.018 0.07,-2.071 0.895,-1.06 3.291,-1.954 3.291,-1.954 0,0 -0.461,2.702 -1.355,3.758 z"
         id="path968" />
      <path
         style="fill:none;stroke:#515151;stroke-width:0.309557;stroke-miterlimit:4;stroke-dasharray:none;stroke-opacity:1"
         d="m 20.565,9.336 c 1.229,0.716 0.978,1.396 0.65,1.949 -0.329,0.554 -0.863,0.984 -2.09,0.271 -1.232,-0.715 -2.59,-2.946 -2.59,-2.946 0,0 2.798,0.012 4.03,0.726 z"
         id="path970" />
      <path
         style="fill:none;stroke:#515151;stroke-width:0.309557;stroke-miterlimit:4;stroke-dasharray:none;stroke-opacity:1"
         d="m 22.944,15.583 c -1.202,0.688 -1.662,0.128 -1.979,-0.431 -0.315,-0.561 -0.426,-1.237 0.771,-1.925 1.201,-0.691 3.759,-0.721 3.759,-0.721 0,0 -1.35,2.387 -2.551,3.077 z"
         id="path972" />
      <path
         style="fill:none;stroke:#515151;stroke-width:0.309557;stroke-miterlimit:4;stroke-dasharray:none;stroke-opacity:1"
         d="m 19.835,13.057 c 0.88,1.121 0.393,1.659 -0.114,2.052 -0.509,0.396 -1.169,0.596 -2.045,-0.521 -0.878,-1.121 -1.312,-3.695 -1.312,-3.695 0,0 2.592,1.047 3.471,2.164 z"
         id="path974" />
      <path
         style="fill:none;stroke:#515151;stroke-width:0.309557;stroke-miterlimit:4;stroke-dasharray:none;stroke-opacity:1"
         d="m 20.428,19.678 c -1.366,0.24 -1.607,-0.443 -1.716,-1.076 -0.108,-0.636 0.015,-1.307 1.372,-1.55 1.367,-0.243 3.783,0.597 3.783,0.597 0,0 -2.081,1.785 -3.439,2.029 z"
         id="path976" />
      <path
         style="fill:none;stroke:#515151;stroke-width:0.309557;stroke-miterlimit:4;stroke-dasharray:none;stroke-opacity:1"
         d="m 18.198,16.285 c 0.601,1.292 0,1.704 -0.584,1.971 -0.587,0.266 -1.271,0.311 -1.866,-0.975 -0.601,-1.293 -0.432,-3.9 -0.432,-3.9 0,0 2.286,1.614 2.882,2.904 z"
         id="path978" />
      <path
         style="fill:none;stroke:#515151;stroke-width:0.309557;stroke-miterlimit:4;stroke-dasharray:none;stroke-opacity:1"
         d="m 15.474,18.787 c 0.245,1.4 -0.438,1.645 -1.07,1.753 -0.636,0.103 -1.312,-0.028 -1.555,-1.424 -0.245,-1.404 0.587,-3.88 0.587,-3.88 0,0 1.792,2.149 2.038,3.551 z"
         id="path980" />
      <path
         style="fill:none;stroke:#515151;stroke-width:0.309557;stroke-miterlimit:4;stroke-dasharray:none;stroke-opacity:1"
         d="m 16.792,22.827 c -1.409,-0.209 -1.424,-0.937 -1.327,-1.57 0.104,-0.638 0.44,-1.234 1.843,-1.024 1.409,0.211 3.496,1.783 3.496,1.783 0,0 -2.607,1.021 -4.012,0.811 z"
         id="path982" />
      <path
         style="fill:none;stroke:#515151;stroke-width:0.309557;stroke-miterlimit:4;stroke-dasharray:none;stroke-opacity:1"
         d="m 12.398,21.047 c 0.102,1.42 -0.603,1.594 -1.244,1.637 -0.643,0.037 -1.3,-0.164 -1.403,-1.576 -0.098,-1.422 0.983,-3.799 0.983,-3.799 0,0 1.565,2.321 1.664,3.738 z"
         id="path984" />
      <path
         style="fill:none;stroke:#515151;stroke-width:0.309557;stroke-miterlimit:4;stroke-dasharray:none;stroke-opacity:1"
         d="m 12.762,25.197 c -1.344,-0.477 -1.221,-1.192 -1.001,-1.796 0.221,-0.606 0.668,-1.127 2.005,-0.654 1.342,0.477 3.088,2.419 3.088,2.419 0,0 -2.754,0.504 -4.092,0.031 z"
         id="path986" />
      <path
         style="fill:none;stroke:#515151;stroke-width:0.309557;stroke-miterlimit:4;stroke-dasharray:none;stroke-opacity:1"
         d="m 20.163,5.464 c 1.366,0.37 1.298,1.096 1.126,1.712 -0.174,0.621 -0.579,1.175 -1.939,0.806 -1.371,-0.37 -3.243,-2.17 -3.243,-2.17 0,0 2.691,-0.717 4.056,-0.348 z"
         id="path988" />
      <path
         style="fill:none;stroke:#515151;stroke-width:0.309557;stroke-miterlimit:4;stroke-dasharray:none;stroke-opacity:1"
         d="m 10.638,23.44 c 0,0 -6.453,2.538 -10.479,1.634 C -0.157,25.45 0.605,26 0.605,26 c 0,0 5.86,0.091 10.033,-2.56 z"
         id="path990" />
    </g>
    <g
       id="g1022"
       transform="matrix(-0.87282901,-0.42116044,-0.42116044,0.87282901,56.394874,44.780549)"
       style="display:inline;fill:none;stroke:#515151;stroke-width:0.309557;stroke-miterlimit:4;stroke-dasharray:none;stroke-opacity:1">
      <path
         style="fill:none;stroke:#515151;stroke-width:0.309557;stroke-miterlimit:4;stroke-dasharray:none;stroke-opacity:1"
         d="M 21.184,2.555 C 21.872,3.757 21.309,4.217 20.748,4.532 20.187,4.846 19.513,4.957 18.827,3.758 18.136,2.556 18.11,0 18.11,0 c 0,0 2.384,1.354 3.074,2.555 z"
         id="path994" />
      <path
         style="fill:none;stroke:#515151;stroke-width:0.309557;stroke-miterlimit:4;stroke-dasharray:none;stroke-opacity:1"
         d="m 24.16,6.004 c -0.595,1.251 -1.292,1.053 -1.87,0.775 -0.581,-0.283 -1.056,-0.773 -0.467,-2.02 0.595,-1.254 2.674,-2.736 2.674,-2.736 0,0 0.254,2.731 -0.337,3.981 z"
         id="path996" />
      <path
         style="fill:none;stroke:#515151;stroke-width:0.309557;stroke-miterlimit:4;stroke-dasharray:none;stroke-opacity:1"
         d="m 24.564,10.728 c -0.897,1.056 -1.521,0.685 -2.006,0.267 -0.487,-0.421 -0.82,-1.018 0.07,-2.071 0.895,-1.06 3.291,-1.954 3.291,-1.954 0,0 -0.461,2.702 -1.355,3.758 z"
         id="path998" />
      <path
         style="fill:none;stroke:#515151;stroke-width:0.309557;stroke-miterlimit:4;stroke-dasharray:none;stroke-opacity:1"
         d="m 20.565,9.336 c 1.229,0.716 0.978,1.396 0.65,1.949 -0.329,0.554 -0.863,0.984 -2.09,0.271 -1.232,-0.715 -2.59,-2.946 -2.59,-2.946 0,0 2.798,0.012 4.03,0.726 z"
         id="path1000" />
      <path
         style="fill:none;stroke:#515151;stroke-width:0.309557;stroke-miterlimit:4;stroke-dasharray:none;stroke-opacity:1"
         d="m 22.944,15.583 c -1.202,0.688 -1.662,0.128 -1.979,-0.431 -0.315,-0.561 -0.426,-1.237 0.771,-1.925 1.201,-0.691 3.759,-0.721 3.759,-0.721 0,0 -1.35,2.387 -2.551,3.077 z"
         id="path1002" />
      <path
         style="fill:none;stroke:#515151;stroke-width:0.309557;stroke-miterlimit:4;stroke-dasharray:none;stroke-opacity:1"
         d="m 19.835,13.057 c 0.88,1.121 0.393,1.659 -0.114,2.052 -0.509,0.396 -1.169,0.596 -2.045,-0.521 -0.878,-1.121 -1.312,-3.695 -1.312,-3.695 0,0 2.592,1.047 3.471,2.164 z"
         id="path1004" />
      <path
         style="fill:none;stroke:#515151;stroke-width:0.309557;stroke-miterlimit:4;stroke-dasharray:none;stroke-opacity:1"
         d="m 20.428,19.678 c -1.366,0.24 -1.607,-0.443 -1.716,-1.076 -0.108,-0.636 0.015,-1.307 1.372,-1.55 1.367,-0.243 3.783,0.597 3.783,0.597 0,0 -2.081,1.785 -3.439,2.029 z"
         id="path1006" />
      <path
         style="fill:none;stroke:#515151;stroke-width:0.309557;stroke-miterlimit:4;stroke-dasharray:none;stroke-opacity:1"
         d="m 18.198,16.285 c 0.601,1.292 0,1.704 -0.584,1.971 -0.587,0.266 -1.271,0.311 -1.866,-0.975 -0.601,-1.293 -0.432,-3.9 -0.432,-3.9 0,0 2.286,1.614 2.882,2.904 z"
         id="path1008" />
      <path
         style="fill:none;stroke:#515151;stroke-width:0.309557;stroke-miterlimit:4;stroke-dasharray:none;stroke-opacity:1"
         d="m 15.474,18.787 c 0.245,1.4 -0.438,1.645 -1.07,1.753 -0.636,0.103 -1.312,-0.028 -1.555,-1.424 -0.245,-1.404 0.587,-3.88 0.587,-3.88 0,0 1.792,2.149 2.038,3.551 z"
         id="path1010" />
      <path
         style="fill:none;stroke:#515151;stroke-width:0.309557;stroke-miterlimit:4;stroke-dasharray:none;stroke-opacity:1"
         d="m 16.792,22.827 c -1.409,-0.209 -1.424,-0.937 -1.327,-1.57 0.104,-0.638 0.44,-1.234 1.843,-1.024 1.409,0.211 3.496,1.783 3.496,1.783 0,0 -2.607,1.021 -4.012,0.811 z"
         id="path1012" />
      <path
         style="fill:none;stroke:#515151;stroke-width:0.309557;stroke-miterlimit:4;stroke-dasharray:none;stroke-opacity:1"
         d="m 12.398,21.047 c 0.102,1.42 -0.603,1.594 -1.244,1.637 -0.643,0.037 -1.3,-0.164 -1.403,-1.576 -0.098,-1.422 0.983,-3.799 0.983,-3.799 0,0 1.565,2.321 1.664,3.738 z"
         id="path1014" />
      <path
         style="fill:none;stroke:#515151;stroke-width:0.309557;stroke-miterlimit:4;stroke-dasharray:none;stroke-opacity:1"
         d="m 12.762,25.197 c -1.344,-0.477 -1.221,-1.192 -1.001,-1.796 0.221,-0.606 0.668,-1.127 2.005,-0.654 1.342,0.477 3.088,2.419 3.088,2.419 0,0 -2.754,0.504 -4.092,0.031 z"
         id="path1016" />
      <path
         style="fill:none;stroke:#515151;stroke-width:0.309557;stroke-miterlimit:4;stroke-dasharray:none;stroke-opacity:1"
         d="m 20.163,5.464 c 1.366,0.37 1.298,1.096 1.126,1.712 -0.174,0.621 -0.579,1.175 -1.939,0.806 -1.371,-0.37 -3.243,-2.17 -3.243,-2.17 0,0 2.691,-0.717 4.056,-0.348 z"
         id="path1018" />
      <path
         style="fill:none;stroke:#515151;stroke-width:0.309557;stroke-miterlimit:4;stroke-dasharray:none;stroke-opacity:1"
         d="m 10.638,23.44 c 0,0 -6.453,2.538 -10.479,1.634 C -0.157,25.45 0.605,26 0.605,26 c 0,0 5.86,0.091 10.033,-2.56 z"
         id="path1020" />
    </g>
  </g>
</svg>
