G04 #@! TF.GenerationSoftware,KiCad,Pcbnew,5.1.5+dfsg1-2build2*
G04 #@! TF.CreationDate,2021-04-24T09:37:44-04:00*
G04 #@! TF.ProjectId,10,31302e6b-6963-4616-945f-706362585858,rev?*
G04 #@! TF.SameCoordinates,Original*
G04 #@! TF.FileFunction,Legend,Top*
G04 #@! TF.FilePolarity,Positive*
%FSLAX46Y46*%
G04 Gerber Fmt 4.6, Leading zero omitted, Abs format (unit mm)*
G04 Created by KiCad (PCBNEW 5.1.5+dfsg1-2build2) date 2021-04-24 09:37:44*
%MOMM*%
%LPD*%
G04 APERTURE LIST*
%ADD10C,0.010000*%
G04 APERTURE END LIST*
D10*
G36*
X-2539161Y-2530912D02*
G01*
X-2471909Y-2536921D01*
X-2420041Y-2550288D01*
X-2370107Y-2573707D01*
X-2345985Y-2587476D01*
X-2218597Y-2684397D01*
X-2123189Y-2802844D01*
X-2060841Y-2936568D01*
X-2032630Y-3079317D01*
X-2039637Y-3224842D01*
X-2082940Y-3366890D01*
X-2163618Y-3499213D01*
X-2184334Y-3523961D01*
X-2276163Y-3613306D01*
X-2372270Y-3672039D01*
X-2484791Y-3705675D01*
X-2614083Y-3719234D01*
X-2711254Y-3721154D01*
X-2782011Y-3714899D01*
X-2841838Y-3698330D01*
X-2878666Y-3682671D01*
X-3011679Y-3599789D01*
X-3115646Y-3492299D01*
X-3189301Y-3366574D01*
X-3231379Y-3228989D01*
X-3240616Y-3085916D01*
X-3215745Y-2943729D01*
X-3155502Y-2808802D01*
X-3073300Y-2702248D01*
X-2987341Y-2623069D01*
X-2903311Y-2571374D01*
X-2808549Y-2542170D01*
X-2690391Y-2530467D01*
X-2635250Y-2529569D01*
X-2539161Y-2530912D01*
G37*
X-2539161Y-2530912D02*
X-2471909Y-2536921D01*
X-2420041Y-2550288D01*
X-2370107Y-2573707D01*
X-2345985Y-2587476D01*
X-2218597Y-2684397D01*
X-2123189Y-2802844D01*
X-2060841Y-2936568D01*
X-2032630Y-3079317D01*
X-2039637Y-3224842D01*
X-2082940Y-3366890D01*
X-2163618Y-3499213D01*
X-2184334Y-3523961D01*
X-2276163Y-3613306D01*
X-2372270Y-3672039D01*
X-2484791Y-3705675D01*
X-2614083Y-3719234D01*
X-2711254Y-3721154D01*
X-2782011Y-3714899D01*
X-2841838Y-3698330D01*
X-2878666Y-3682671D01*
X-3011679Y-3599789D01*
X-3115646Y-3492299D01*
X-3189301Y-3366574D01*
X-3231379Y-3228989D01*
X-3240616Y-3085916D01*
X-3215745Y-2943729D01*
X-3155502Y-2808802D01*
X-3073300Y-2702248D01*
X-2987341Y-2623069D01*
X-2903311Y-2571374D01*
X-2808549Y-2542170D01*
X-2690391Y-2530467D01*
X-2635250Y-2529569D01*
X-2539161Y-2530912D01*
G36*
X-951661Y-2530912D02*
G01*
X-884409Y-2536921D01*
X-832541Y-2550288D01*
X-782607Y-2573707D01*
X-758485Y-2587476D01*
X-631097Y-2684397D01*
X-535689Y-2802844D01*
X-473341Y-2936568D01*
X-445130Y-3079317D01*
X-452137Y-3224842D01*
X-495440Y-3366890D01*
X-576118Y-3499213D01*
X-596834Y-3523961D01*
X-688681Y-3613292D01*
X-784910Y-3672072D01*
X-897642Y-3705815D01*
X-1026583Y-3719500D01*
X-1120200Y-3721825D01*
X-1187881Y-3716528D01*
X-1245708Y-3701113D01*
X-1302193Y-3676732D01*
X-1440396Y-3589464D01*
X-1545066Y-3476921D01*
X-1614674Y-3341539D01*
X-1647693Y-3185754D01*
X-1650328Y-3122084D01*
X-1635158Y-2969944D01*
X-1587822Y-2839844D01*
X-1504708Y-2722571D01*
X-1485800Y-2702248D01*
X-1399841Y-2623069D01*
X-1315811Y-2571374D01*
X-1221049Y-2542170D01*
X-1102891Y-2530467D01*
X-1047750Y-2529569D01*
X-951661Y-2530912D01*
G37*
X-951661Y-2530912D02*
X-884409Y-2536921D01*
X-832541Y-2550288D01*
X-782607Y-2573707D01*
X-758485Y-2587476D01*
X-631097Y-2684397D01*
X-535689Y-2802844D01*
X-473341Y-2936568D01*
X-445130Y-3079317D01*
X-452137Y-3224842D01*
X-495440Y-3366890D01*
X-576118Y-3499213D01*
X-596834Y-3523961D01*
X-688681Y-3613292D01*
X-784910Y-3672072D01*
X-897642Y-3705815D01*
X-1026583Y-3719500D01*
X-1120200Y-3721825D01*
X-1187881Y-3716528D01*
X-1245708Y-3701113D01*
X-1302193Y-3676732D01*
X-1440396Y-3589464D01*
X-1545066Y-3476921D01*
X-1614674Y-3341539D01*
X-1647693Y-3185754D01*
X-1650328Y-3122084D01*
X-1635158Y-2969944D01*
X-1587822Y-2839844D01*
X-1504708Y-2722571D01*
X-1485800Y-2702248D01*
X-1399841Y-2623069D01*
X-1315811Y-2571374D01*
X-1221049Y-2542170D01*
X-1102891Y-2530467D01*
X-1047750Y-2529569D01*
X-951661Y-2530912D01*
G36*
X635839Y-2530912D02*
G01*
X703091Y-2536921D01*
X754959Y-2550288D01*
X804893Y-2573707D01*
X829015Y-2587476D01*
X956403Y-2684397D01*
X1051811Y-2802844D01*
X1114159Y-2936568D01*
X1142370Y-3079317D01*
X1135363Y-3224842D01*
X1092060Y-3366890D01*
X1011382Y-3499213D01*
X990666Y-3523961D01*
X898819Y-3613292D01*
X802590Y-3672072D01*
X689858Y-3705815D01*
X560917Y-3719500D01*
X467300Y-3721825D01*
X399619Y-3716528D01*
X341792Y-3701113D01*
X285307Y-3676732D01*
X147104Y-3589464D01*
X42434Y-3476921D01*
X-27174Y-3341539D01*
X-60193Y-3185754D01*
X-62828Y-3122084D01*
X-47658Y-2969944D01*
X-322Y-2839844D01*
X82792Y-2722571D01*
X101700Y-2702248D01*
X187659Y-2623069D01*
X271689Y-2571374D01*
X366451Y-2542170D01*
X484609Y-2530467D01*
X539750Y-2529569D01*
X635839Y-2530912D01*
G37*
X635839Y-2530912D02*
X703091Y-2536921D01*
X754959Y-2550288D01*
X804893Y-2573707D01*
X829015Y-2587476D01*
X956403Y-2684397D01*
X1051811Y-2802844D01*
X1114159Y-2936568D01*
X1142370Y-3079317D01*
X1135363Y-3224842D01*
X1092060Y-3366890D01*
X1011382Y-3499213D01*
X990666Y-3523961D01*
X898819Y-3613292D01*
X802590Y-3672072D01*
X689858Y-3705815D01*
X560917Y-3719500D01*
X467300Y-3721825D01*
X399619Y-3716528D01*
X341792Y-3701113D01*
X285307Y-3676732D01*
X147104Y-3589464D01*
X42434Y-3476921D01*
X-27174Y-3341539D01*
X-60193Y-3185754D01*
X-62828Y-3122084D01*
X-47658Y-2969944D01*
X-322Y-2839844D01*
X82792Y-2722571D01*
X101700Y-2702248D01*
X187659Y-2623069D01*
X271689Y-2571374D01*
X366451Y-2542170D01*
X484609Y-2530467D01*
X539750Y-2529569D01*
X635839Y-2530912D01*
G36*
X960234Y3566685D02*
G01*
X1173073Y3525065D01*
X1364345Y3453487D01*
X1540213Y3349658D01*
X1703778Y3214192D01*
X1861735Y3035886D01*
X1997723Y2821849D01*
X2111600Y2572626D01*
X2203224Y2288759D01*
X2272452Y1970792D01*
X2319142Y1619267D01*
X2343151Y1234728D01*
X2344337Y817718D01*
X2343236Y775676D01*
X2332815Y525645D01*
X2316148Y307613D01*
X2291976Y111539D01*
X2259037Y-72615D01*
X2216073Y-254890D01*
X2211980Y-270390D01*
X2120920Y-551941D01*
X2006425Y-802384D01*
X1869625Y-1020446D01*
X1711650Y-1204859D01*
X1533628Y-1354350D01*
X1336692Y-1467650D01*
X1121969Y-1543488D01*
X1068917Y-1555764D01*
X932057Y-1575777D01*
X774531Y-1585066D01*
X611151Y-1583825D01*
X456730Y-1572250D01*
X326082Y-1550534D01*
X306917Y-1545746D01*
X170375Y-1505497D01*
X59532Y-1462340D01*
X-42028Y-1409043D01*
X-127407Y-1354390D01*
X-298861Y-1214677D01*
X-449910Y-1041825D01*
X-581070Y-834827D01*
X-692861Y-592679D01*
X-785800Y-314375D01*
X-860405Y1089D01*
X-879760Y105833D01*
X-893418Y209475D01*
X-905118Y346979D01*
X-914682Y509912D01*
X-921930Y689841D01*
X-926685Y878332D01*
X-928768Y1066951D01*
X-928559Y1116110D01*
X-279058Y1116110D01*
X-274624Y722266D01*
X-272473Y663504D01*
X-249154Y321177D01*
X-207780Y17083D01*
X-148304Y-248859D01*
X-70681Y-476728D01*
X25137Y-666606D01*
X139197Y-818571D01*
X271546Y-932704D01*
X422229Y-1009086D01*
X591294Y-1047794D01*
X730250Y-1052149D01*
X847441Y-1041849D01*
X944680Y-1019333D01*
X1031290Y-985462D01*
X1174044Y-900362D01*
X1298694Y-781406D01*
X1405836Y-627504D01*
X1496068Y-437563D01*
X1569985Y-210491D01*
X1628184Y54802D01*
X1640908Y130765D01*
X1656122Y254201D01*
X1668804Y410289D01*
X1678730Y589411D01*
X1685674Y781948D01*
X1689414Y978283D01*
X1689725Y1168796D01*
X1686383Y1343871D01*
X1679164Y1493888D01*
X1674103Y1555750D01*
X1635043Y1861787D01*
X1580931Y2129259D01*
X1511319Y2359339D01*
X1425757Y2553196D01*
X1323797Y2712001D01*
X1204989Y2836926D01*
X1172982Y2862711D01*
X1038888Y2945384D01*
X894225Y2994081D01*
X728839Y3012001D01*
X698500Y3012220D01*
X518135Y2992129D01*
X355950Y2933937D01*
X212011Y2837804D01*
X86386Y2703893D01*
X-20860Y2532364D01*
X-109659Y2323380D01*
X-179946Y2077101D01*
X-231652Y1793689D01*
X-264712Y1473305D01*
X-279058Y1116110D01*
X-928559Y1116110D01*
X-928000Y1247266D01*
X-924203Y1410844D01*
X-917199Y1549249D01*
X-911669Y1613971D01*
X-863075Y1965063D01*
X-793847Y2279832D01*
X-703619Y2559124D01*
X-592020Y2803785D01*
X-458682Y3014660D01*
X-303237Y3192596D01*
X-175916Y3301929D01*
X-13453Y3411604D01*
X148373Y3491246D01*
X319404Y3543917D01*
X509482Y3572681D01*
X719667Y3580643D01*
X960234Y3566685D01*
G37*
X960234Y3566685D02*
X1173073Y3525065D01*
X1364345Y3453487D01*
X1540213Y3349658D01*
X1703778Y3214192D01*
X1861735Y3035886D01*
X1997723Y2821849D01*
X2111600Y2572626D01*
X2203224Y2288759D01*
X2272452Y1970792D01*
X2319142Y1619267D01*
X2343151Y1234728D01*
X2344337Y817718D01*
X2343236Y775676D01*
X2332815Y525645D01*
X2316148Y307613D01*
X2291976Y111539D01*
X2259037Y-72615D01*
X2216073Y-254890D01*
X2211980Y-270390D01*
X2120920Y-551941D01*
X2006425Y-802384D01*
X1869625Y-1020446D01*
X1711650Y-1204859D01*
X1533628Y-1354350D01*
X1336692Y-1467650D01*
X1121969Y-1543488D01*
X1068917Y-1555764D01*
X932057Y-1575777D01*
X774531Y-1585066D01*
X611151Y-1583825D01*
X456730Y-1572250D01*
X326082Y-1550534D01*
X306917Y-1545746D01*
X170375Y-1505497D01*
X59532Y-1462340D01*
X-42028Y-1409043D01*
X-127407Y-1354390D01*
X-298861Y-1214677D01*
X-449910Y-1041825D01*
X-581070Y-834827D01*
X-692861Y-592679D01*
X-785800Y-314375D01*
X-860405Y1089D01*
X-879760Y105833D01*
X-893418Y209475D01*
X-905118Y346979D01*
X-914682Y509912D01*
X-921930Y689841D01*
X-926685Y878332D01*
X-928768Y1066951D01*
X-928559Y1116110D01*
X-279058Y1116110D01*
X-274624Y722266D01*
X-272473Y663504D01*
X-249154Y321177D01*
X-207780Y17083D01*
X-148304Y-248859D01*
X-70681Y-476728D01*
X25137Y-666606D01*
X139197Y-818571D01*
X271546Y-932704D01*
X422229Y-1009086D01*
X591294Y-1047794D01*
X730250Y-1052149D01*
X847441Y-1041849D01*
X944680Y-1019333D01*
X1031290Y-985462D01*
X1174044Y-900362D01*
X1298694Y-781406D01*
X1405836Y-627504D01*
X1496068Y-437563D01*
X1569985Y-210491D01*
X1628184Y54802D01*
X1640908Y130765D01*
X1656122Y254201D01*
X1668804Y410289D01*
X1678730Y589411D01*
X1685674Y781948D01*
X1689414Y978283D01*
X1689725Y1168796D01*
X1686383Y1343871D01*
X1679164Y1493888D01*
X1674103Y1555750D01*
X1635043Y1861787D01*
X1580931Y2129259D01*
X1511319Y2359339D01*
X1425757Y2553196D01*
X1323797Y2712001D01*
X1204989Y2836926D01*
X1172982Y2862711D01*
X1038888Y2945384D01*
X894225Y2994081D01*
X728839Y3012001D01*
X698500Y3012220D01*
X518135Y2992129D01*
X355950Y2933937D01*
X212011Y2837804D01*
X86386Y2703893D01*
X-20860Y2532364D01*
X-109659Y2323380D01*
X-179946Y2077101D01*
X-231652Y1793689D01*
X-264712Y1473305D01*
X-279058Y1116110D01*
X-928559Y1116110D01*
X-928000Y1247266D01*
X-924203Y1410844D01*
X-917199Y1549249D01*
X-911669Y1613971D01*
X-863075Y1965063D01*
X-793847Y2279832D01*
X-703619Y2559124D01*
X-592020Y2803785D01*
X-458682Y3014660D01*
X-303237Y3192596D01*
X-175916Y3301929D01*
X-13453Y3411604D01*
X148373Y3491246D01*
X319404Y3543917D01*
X509482Y3572681D01*
X719667Y3580643D01*
X960234Y3566685D01*
G36*
X-2709333Y-1439334D02*
G01*
X-3344333Y-1439334D01*
X-3344333Y2137833D01*
X-4445000Y2137833D01*
X-4445000Y2603500D01*
X-4389451Y2603500D01*
X-4332167Y2608690D01*
X-4244591Y2622732D01*
X-4137272Y2643330D01*
X-4020758Y2668190D01*
X-3905596Y2695017D01*
X-3802337Y2721516D01*
X-3721526Y2745393D01*
X-3696272Y2754296D01*
X-3571033Y2815589D01*
X-3466923Y2898369D01*
X-3377122Y3009509D01*
X-3294812Y3155876D01*
X-3292068Y3161544D01*
X-3247059Y3260164D01*
X-3205419Y3360544D01*
X-3173662Y3446623D01*
X-3164271Y3476625D01*
X-3129663Y3598333D01*
X-2709333Y3598333D01*
X-2709333Y-1439334D01*
G37*
X-2709333Y-1439334D02*
X-3344333Y-1439334D01*
X-3344333Y2137833D01*
X-4445000Y2137833D01*
X-4445000Y2603500D01*
X-4389451Y2603500D01*
X-4332167Y2608690D01*
X-4244591Y2622732D01*
X-4137272Y2643330D01*
X-4020758Y2668190D01*
X-3905596Y2695017D01*
X-3802337Y2721516D01*
X-3721526Y2745393D01*
X-3696272Y2754296D01*
X-3571033Y2815589D01*
X-3466923Y2898369D01*
X-3377122Y3009509D01*
X-3294812Y3155876D01*
X-3292068Y3161544D01*
X-3247059Y3260164D01*
X-3205419Y3360544D01*
X-3173662Y3446623D01*
X-3164271Y3476625D01*
X-3129663Y3598333D01*
X-2709333Y3598333D01*
X-2709333Y-1439334D01*
M02*
