<?xml version="1.0" encoding="UTF-8" standalone="no"?>
<svg
   xmlns:dc="http://purl.org/dc/elements/1.1/"
   xmlns:cc="http://creativecommons.org/ns#"
   xmlns:rdf="http://www.w3.org/1999/02/22-rdf-syntax-ns#"
   xmlns:svg="http://www.w3.org/2000/svg"
   xmlns="http://www.w3.org/2000/svg"
   xmlns:sodipodi="http://sodipodi.sourceforge.net/DTD/sodipodi-0.dtd"
   xmlns:inkscape="http://www.inkscape.org/namespaces/inkscape"
   width="100.0mm"
   height="100.0mm"
   viewBox="0 0 100.0 100.0"
   version="1.1"
   id="svg8"
   sodipodi:docname="ocean_tile_sheep.svg"
   inkscape:version="1.0.2 (394de47547, 2021-03-26)">
  <defs
     id="defs2" />
  <sodipodi:namedview
     id="base"
     pagecolor="#ffffff"
     bordercolor="#666666"
     borderopacity="1.0"
     inkscape:pageopacity="0.0"
     inkscape:pageshadow="2"
     inkscape:zoom="2.492375"
     inkscape:cx="188.97638"
     inkscape:cy="188.97638"
     inkscape:document-units="mm"
     inkscape:current-layer="g852"
     inkscape:document-rotation="0"
     showgrid="false"
     inkscape:window-width="1884"
     inkscape:window-height="2096"
     inkscape:window-x="1956"
     inkscape:window-y="27"
     inkscape:window-maximized="0" />
  <metadata
     id="metadata5">
    <rdf:RDF>
      <cc:Work
         rdf:about="">
        <dc:format>image/svg+xml</dc:format>
        <dc:type
           rdf:resource="http://purl.org/dc/dcmitype/StillImage" />
        <dc:title></dc:title>
      </cc:Work>
    </rdf:RDF>
  </metadata>
  <g
     inkscape:label="[fixed] BG"
     inkscape:groupmode="layer"
     sodipodi:insensitive="true"
     id="g838"
     style="display:inline">
    <rect
       x="0"
       y="0"
       width="100"
       height="100"
       style="fill:#ffffff;fill-opacity:1;stroke:none"
       id="rect836" />
  </g>
  <g
     inkscape:label="Edge.Cuts"
     inkscape:groupmode="layer"
     id="g840"
     style="display:inline">
    <path
       id="path864"
       style="fill:none;stroke:#000600;stroke-width:0.104494;stroke-opacity:1"
       d="M 64.9801 75.9228 L 35.0404 75.9346 L 20.0603 50.012 L 35.0199 24.0776 L 64.9596 24.0658 L 79.9397 49.9884 L 64.9801 75.9228" />
    <g
       id="g12"
       transform="matrix(0.06155521,0,0,0.06155521,32.937862,26.940854)">
      <g
         id="g10" />
    </g>
  </g>
  <g
     inkscape:label="B.Cu"
     inkscape:groupmode="layer"
     id="g842"
     style="display:inline">
    <path
       d="m 164.53497,319.42382 c -9.717,0 -18.94,-4.233 -25.305,-11.614 -1.709,-1.982 -4.198,-3.123 -6.816,-3.123 -2.618,0 -5.106,1.14 -6.816,3.123 -6.363,7.38 -15.586,11.613 -25.304,11.613 -9.717997,0 -18.939997,-4.233 -25.304997,-11.614 -1.709,-1.982 -4.198,-3.123 -6.816,-3.123 -2.618,0 -5.106,1.14 -6.816,3.123 -6.36299,7.38 -15.58599,11.613 -25.30399,11.613 -9.718001,0 -18.940003,-4.233 -25.304003,-11.613 -1.7100002,-1.983 -4.1980002,-3.123 -6.8160002,-3.123 -2.618,0 -5.106,1.14 -6.816,3.123 -6.364,7.381 -15.5869998,11.614 -25.3049998,11.614 -9.718,0 -18.94,-4.233 -25.304,-11.613 -1.71,-1.983 -4.198,-3.123 -6.816,-3.123 -2.618,0 -5.105999,1.14 -6.815999,3.123 -6.364,7.382 -15.587,11.614 -25.304001,11.614 -4.971,0 -9,4.029 -9,9 0,4.971 4.029,9 9,9 10.469001,0 20.558001,-3.195 29.029,-9 1.055,-0.723 2.09,-1.48 3.092,-2.283 1.002,0.803 2.037,1.56 3.092,2.283 8.47,5.805 18.56,9 29.028,9 10.468,0 20.5579998,-3.195 29.02899975,-9 1.05500005,-0.723 2.09000005,-1.48 3.09200005,-2.283 1.002,0.803 2.037,1.56 3.092,2.283 8.4700002,5.805 18.5600022,9 29.0280032,9 10.468,0 20.55799,-3.195 29.02799,-9 1.055,-0.723 2.089,-1.48 3.092,-2.283 1.002,0.803 2.037,1.56 3.092,2.283 8.47,5.805 18.56,9 29.028997,9 10.469,0 20.558,-3.195 29.028,-9 1.055,-0.723 2.089,-1.48 3.092,-2.283 1.002,0.803 2.037,1.56 3.092,2.283 8.47,5.805 18.56,9 29.029,9 4.971,0 9,-4.029 9,-9 0,-4.971 -4.03,-9 -9.001,-9 z"
       id="path937"
       style="display:inline;fill:#0f3dd1;fill-opacity:1"
       transform="matrix(0.06155521,0,0,0.06155521,32.937863,26.940854)" />
    <path
       d="m 252.51396,146.09529 c -9.717,0 -18.94,-4.233 -25.305,-11.614 -1.709,-1.982 -4.198,-3.123 -6.816,-3.123 -2.618,0 -5.106,1.14 -6.816,3.123 -6.363,7.38 -15.586,11.613 -25.304,11.613 -9.718,0 -18.94,-4.233 -25.305,-11.614 -1.709,-1.982 -4.198,-3.123 -6.816,-3.123 -2.618,0 -5.106,1.14 -6.816,3.123 -6.363,7.38 -15.586,11.613 -25.30399,11.613 -9.718,0 -18.94,-4.233 -25.303998,-11.613 -1.71,-1.983 -4.198,-3.123 -6.816,-3.123 -2.618,0 -5.105996,1.14 -6.815996,3.123 -6.364,7.381 -15.587005,11.614 -25.305005,11.614 -9.718,0 -18.94,-4.233 -25.304,-11.613 -1.71,-1.983 -4.198,-3.123 -6.816,-3.123 -2.618,0 -5.106,1.14 -6.816,3.123 -6.364,7.381 -15.5869996,11.614 -25.3039994,11.614 -4.971,0 -8.9999996,4.029 -8.9999996,9.00001 0,4.971 4.0289996,9 8.9999996,9 10.4689998,0 20.5579994,-3.195 29.0289994,-9 1.055,-0.723 2.089,-1.48 3.092,-2.283 1.002,0.803 2.037,1.56 3.092,2.283 8.47,5.805 18.56,9 29.028,9 10.468,0 20.558005,-3.195 29.029001,-9 1.055,-0.723 2.089,-1.48 3.092,-2.283 1.002,0.803 2.037,1.56 3.092,2.283 8.469998,5.805 18.559998,9 29.027998,9 10.46799,0 20.55799,-3.195 29.02799,-9 1.055,-0.723 2.089,-1.48 3.092,-2.283 1.002,0.803 2.037,1.56 3.092,2.283 8.471,5.805 18.56,9 29.029,9 10.469,0 20.558,-3.195 29.028,-9 1.055,-0.723 2.089,-1.48 3.092,-2.283 1.002,0.803 2.037,1.56 3.092,2.283 8.471,5.805 18.56,9 29.029,9 4.971,0 9,-4.029 9,-9 0,-4.97001 -4.03,-9.00001 -9.001,-9.00001 z"
       id="path939"
       style="display:inline;fill:#0f3dd1;fill-opacity:1"
       transform="matrix(0.06155521,0,0,0.06155521,32.937863,26.940854)" />
    <path
       d="m 282.43673,255.35288 c 10.469,0 20.558,-3.195 29.029,-9 1.055,-0.723 2.089,-1.48 3.092,-2.283 1.002,0.803 2.037,1.56 3.092,2.283 8.47,5.805 18.56,9 29.028,9 10.468,0 20.558,-3.195 29.029,-9 1.055,-0.723 2.089,-1.48 3.092,-2.283 1.002,0.803 2.037,1.56 3.092,2.283 8.47,5.805 18.56,9 29.028,9 10.468,0 20.558,-3.195 29.028,-9 1.055,-0.723 2.089,-1.48 3.092,-2.283 1.002,0.803 2.037,1.56 3.092,2.283 8.471,5.805 18.56,9 29.029,9 10.469,0 20.558,-3.195 29.028,-9 1.055,-0.723 2.089,-1.48 3.092,-2.283 1.002,0.803 2.037,1.56 3.092,2.283 8.471,5.805 18.56,9 29.029,9 4.971,0 9,-4.029 9,-9 0,-4.971 -4.029,-9 -9,-9 -9.717,0 -18.94,-4.233 -25.305,-11.614 -1.709,-1.982 -4.198,-3.123 -6.816,-3.123 -2.618,0 -5.106,1.14 -6.816,3.123 -6.363,7.38 -15.586,11.613 -25.304,11.613 -9.718,0 -18.94,-4.233 -25.305,-11.614 -1.709,-1.982 -4.198,-3.123 -6.816,-3.123 -2.618,0 -5.106,1.14 -6.816,3.123 -6.363,7.38 -15.586,11.613 -25.304,11.613 -9.718,0 -18.94,-4.233 -25.304,-11.613 -1.71,-1.983 -4.198,-3.123 -6.816,-3.123 -2.618,0 -5.106,1.14 -6.816,3.123 -6.364,7.381 -15.587,11.614 -25.305,11.614 -9.718,0 -18.941,-4.232 -25.304,-11.612 -1.71,-1.983 -4.198,-3.123 -6.816,-3.123 -2.618,0 -5.106,1.14 -6.816,3.123 -6.365,7.381 -15.588,11.613 -25.305,11.613 -4.971,0 -9,4.029 -9,9 0,4.971 4.029,9 9,9 z"
       id="path941"
       style="display:inline;fill:#0f3dd1;fill-opacity:1"
       transform="matrix(0.06155521,0,0,0.06155521,32.937863,26.940854)" />
    <path
       d="m 665.27864,409.56181 c -9.71701,0 -18.94001,-4.233 -25.30501,-11.614 -1.709,-1.982 -4.198,-3.123 -6.81599,-3.123 -2.618,0 -5.106,1.14 -6.816,3.123 -6.36301,7.38 -15.58601,11.613 -25.30401,11.613 -9.718,0 -18.94,-4.233 -25.30499,-11.614 -1.709,-1.982 -4.198,-3.123 -6.816,-3.123 -2.61801,0 -5.106,1.14 -6.81601,3.123 -6.36299,7.38 -15.586,11.613 -25.304,11.613 -9.71799,0 -18.94,-4.233 -25.304,-11.613 -1.71,-1.983 -4.198,-3.123 -6.81599,-3.123 -2.61801,0 -5.106,1.14 -6.81601,3.123 -6.36399,7.381 -15.587,11.614 -25.305,11.614 -9.71799,0 -18.93999,-4.233 -25.30399,-11.613 -1.71,-1.983 -4.198,-3.123 -6.81601,-3.123 -2.618,0 -5.106,1.14 -6.81599,3.123 -6.364,7.382 -15.587,11.614 -25.304,11.614 -4.971,0 -9,4.029 -9,9 0,4.971 4.029,9 9,9 10.469,0 20.55799,-3.195 29.02899,-9 1.055,-0.723 2.09,-1.48 3.092,-2.283 1.002,0.803 2.03701,1.56 3.092,2.283 8.47,5.805 18.56,9 29.028,9 10.468,0 20.55801,-3.195 29.02901,-9 1.05499,-0.723 2.08999,-1.48 3.09199,-2.283 1.002,0.803 2.037,1.56 3.092,2.283 8.47,5.805 18.56001,9 29.02801,9 10.46799,0 20.558,-3.195 29.028,-9 1.05499,-0.723 2.089,-1.48 3.092,-2.283 1.002,0.803 2.037,1.56 3.09199,2.283 8.47,5.805 18.56001,9 29.02901,9 10.469,0 20.55799,-3.195 29.028,-9 1.05499,-0.723 2.089,-1.48 3.09199,-2.283 1.002,0.803 2.037,1.56 3.09201,2.283 8.46999,5.805 18.56,9 29.02899,9 4.97101,0 9,-4.029 9,-9 0,-4.971 -4.03,-9 -9.00099,-9 z"
       id="path943"
       style="display:inline;stroke-width:1;fill:#0f3dd1;fill-opacity:1"
       transform="matrix(0.06155521,0,0,0.06155521,32.937863,26.940854)" />
    <path
       d="m 247.41612,490.28892 c -9.71701,0 -18.94001,-4.233 -25.30501,-11.614 -1.709,-1.982 -4.198,-3.123 -6.81599,-3.123 -2.618,0 -5.106,1.14 -6.816,3.123 -6.36301,7.38 -15.58601,11.613 -25.30401,11.613 -9.718,0 -18.94,-4.233 -25.30499,-11.614 -1.709,-1.982 -4.198,-3.123 -6.816,-3.123 -2.61801,0 -5.106,1.14 -6.81601,3.123 -6.36299,7.38 -15.586,11.613 -25.30399,11.613 -9.71799,0 -18.940001,-4.233 -25.304003,-11.613 -1.71,-1.983 -4.198,-3.123 -6.81599,-3.123 -2.61801,0 -5.106,1.14 -6.81601,3.123 -6.36399,7.381 -15.587,11.614 -25.305,11.614 -9.71799,0 -18.93999,-4.233 -25.30399,-11.613 -1.71,-1.983 -4.198,-3.123 -6.81601,-3.123 -2.618,0 -5.106,1.14 -6.81599,3.123 -6.3639999,7.382 -15.58699986,11.614 -25.3039999,11.614 -4.9710001,0 -9.0000001,4.029 -9.0000001,9 0,4.971 4.029,9 9.0000001,9 10.46900004,0 20.5579899,-3.195 29.0289899,-9 1.055,-0.723 2.09,-1.48 3.092,-2.283 1.002,0.803 2.03701,1.56 3.092,2.283 8.47,5.805 18.56,9 29.028,9 10.468,0 20.55801,-3.195 29.02901,-9 1.05499,-0.723 2.08999,-1.48 3.09199,-2.283 1.002,0.803 2.037,1.56 3.092,2.283 8.470002,5.805 18.560013,9 29.028013,9 10.46798,0 20.55799,-3.195 29.02799,-9 1.05499,-0.723 2.089,-1.48 3.092,-2.283 1.002,0.803 2.037,1.56 3.09199,2.283 8.47,5.805 18.56001,9 29.02901,9 10.469,0 20.55799,-3.195 29.028,-9 1.05499,-0.723 2.089,-1.48 3.09199,-2.283 1.002,0.803 2.037,1.56 3.09201,2.283 8.46999,5.805 18.56,9 29.02899,9 4.97101,0 9,-4.029 9,-9 0,-4.971 -4.03,-9 -9.00099,-9 z"
       id="path945"
       style="display:inline;stroke-width:1;fill:#0f3dd1;fill-opacity:1"
       transform="matrix(0.06155521,0,0,0.06155521,32.937863,26.940854)" />
    <path
       d="m 540.5812,592.69135 c -9.71701,0 -18.94001,-4.233 -25.30501,-11.614 -1.709,-1.982 -4.198,-3.123 -6.81599,-3.123 -2.618,0 -5.106,1.14 -6.816,3.123 -6.36301,7.38 -15.58601,11.613 -25.30401,11.613 -9.718,0 -18.94,-4.233 -25.30499,-11.614 -1.709,-1.982 -4.198,-3.123 -6.816,-3.123 -2.61801,0 -5.106,1.14 -6.81601,3.123 -6.36299,7.38 -15.586,11.613 -25.304,11.613 -9.71799,0 -18.94,-4.233 -25.304,-11.613 -1.71,-1.983 -4.198,-3.123 -6.81599,-3.123 -2.61801,0 -5.106,1.14 -6.81601,3.123 -6.36399,7.381 -15.587,11.614 -25.305,11.614 -9.71799,0 -18.93999,-4.233 -25.30399,-11.613 -1.71,-1.983 -4.198,-3.123 -6.81601,-3.123 -2.618,0 -5.106,1.14 -6.81599,3.123 -6.364,7.382 -15.587,11.614 -25.304,11.614 -4.971,0 -9,4.029 -9,9 0,4.971 4.029,9 9,9 10.469,0 20.55799,-3.195 29.02899,-9 1.055,-0.723 2.09,-1.48 3.092,-2.283 1.002,0.803 2.03701,1.56 3.092,2.283 8.47,5.805 18.56,9 29.028,9 10.468,0 20.55801,-3.195 29.02901,-9 1.05499,-0.723 2.08999,-1.48 3.09199,-2.283 1.002,0.803 2.037,1.56 3.092,2.283 8.47,5.805 18.56001,9 29.02801,9 10.46799,0 20.558,-3.195 29.028,-9 1.05499,-0.723 2.089,-1.48 3.092,-2.283 1.002,0.803 2.037,1.56 3.09199,2.283 8.47,5.805 18.56001,9 29.02901,9 10.469,0 20.55799,-3.195 29.028,-9 1.05499,-0.723 2.089,-1.48 3.09199,-2.283 1.002,0.803 2.037,1.56 3.09201,2.283 8.46999,5.805 18.56,9 29.02899,9 4.97101,0 9,-4.029 9,-9 0,-4.971 -4.03,-9 -9.00099,-9 z"
       id="path947"
       style="display:inline;stroke-width:1;fill:#0f3dd1;fill-opacity:1"
       transform="matrix(0.06155521,0,0,0.06155521,32.937863,26.940854)" />
    <path
       d="m 318.88223,701.38976 c -9.71701,0 -18.94001,-4.233 -25.30501,-11.614 -1.709,-1.982 -4.198,-3.123 -6.81599,-3.123 -2.618,0 -5.106,1.14 -6.816,3.123 -6.36301,7.38 -15.58601,11.613 -25.30401,11.613 -9.718,0 -18.94,-4.233 -25.30499,-11.614 -1.709,-1.982 -4.198,-3.123 -6.816,-3.123 -2.61801,0 -5.106,1.14 -6.81601,3.123 -6.36299,7.38 -15.586,11.613 -25.304,11.613 -9.71799,0 -18.94,-4.233 -25.304,-11.613 -1.71,-1.983 -4.198,-3.123 -6.81599,-3.123 -2.61801,0 -5.106,1.14 -6.81601,3.123 -6.36399,7.381 -15.587,11.614 -25.305,11.614 -9.71799,0 -18.93999,-4.233 -25.30399,-11.613 -1.710002,-1.983 -4.198002,-3.123 -6.816012,-3.123 -2.618,0 -5.106,1.14 -6.81599,3.123 -6.364,7.382 -15.587,11.614 -25.304,11.614 -4.971,0 -9,4.029 -9,9 0,4.971 4.029,9 9,9 10.469,0 20.55799,-3.195 29.02899,-9 1.055,-0.723 2.09,-1.48 3.092,-2.283 1.002,0.803 2.03701,1.56 3.092,2.283 8.470002,5.805 18.560002,9 29.028002,9 10.468,0 20.55801,-3.195 29.02901,-9 1.05499,-0.723 2.08999,-1.48 3.09199,-2.283 1.002,0.803 2.037,1.56 3.092,2.283 8.47,5.805 18.56001,9 29.02801,9 10.46799,0 20.558,-3.195 29.028,-9 1.05499,-0.723 2.089,-1.48 3.092,-2.283 1.002,0.803 2.037,1.56 3.09199,2.283 8.47,5.805 18.56001,9 29.02901,9 10.469,0 20.55799,-3.195 29.028,-9 1.05499,-0.723 2.089,-1.48 3.09199,-2.283 1.002,0.803 2.037,1.56 3.09201,2.283 8.46999,5.805 18.56,9 29.02899,9 4.97101,0 9,-4.029 9,-9 0,-4.971 -4.03,-9 -9.00099,-9 z"
       id="path949"
       style="display:inline;stroke-width:1;fill:#0f3dd1;fill-opacity:1"
       transform="matrix(0.06155521,0,0,0.06155521,32.937863,26.940854)" />
    <path
       d="m 64.356423,29.583777 c -0.598132,0 -1.165856,-0.260564 -1.557655,-0.714903 -0.105198,-0.122002 -0.258409,-0.192237 -0.41956,-0.192237 -0.161152,0 -0.314301,0.07017 -0.41956,0.192237 -0.391676,0.454278 -0.9594,0.714841 -1.557593,0.714841 -0.598194,0 -1.165856,-0.260563 -1.557655,-0.714902 -0.105198,-0.122003 -0.258409,-0.192237 -0.41956,-0.192237 -0.161152,0 -0.314301,0.07017 -0.419561,0.192237 -0.391675,0.454277 -0.959399,0.71484 -1.557592,0.71484 -0.598194,0 -1.165856,-0.260563 -1.557593,-0.71484 -0.105259,-0.122064 -0.258409,-0.192237 -0.41956,-0.192237 -0.161152,0 -0.314301,0.07017 -0.41956,0.192237 -0.391738,0.454339 -0.959462,0.714902 -1.557655,0.714902 -0.598194,0 -1.165856,-0.260563 -1.557593,-0.714841 -0.10526,-0.122064 -0.258409,-0.192237 -0.419561,-0.192237 -0.161151,0 -0.3143,0.07017 -0.41956,0.192237 -0.391737,0.454339 -0.959461,0.714903 -1.557593,0.714903 -0.305991,0 -0.553997,0.248006 -0.553997,0.553997 0,0.305991 0.248006,0.553997 0.553997,0.553997 0.644422,0 1.265452,-0.196669 1.786886,-0.553997 0.06494,-0.0445 0.128589,-0.0911 0.190329,-0.14053 0.06168,0.04943 0.125388,0.09603 0.190329,0.14053 0.521372,0.357328 1.142464,0.553997 1.786824,0.553997 0.64436,0 1.265453,-0.196669 1.786887,-0.553997 0.06494,-0.0445 0.128588,-0.0911 0.190328,-0.14053 0.06168,0.04943 0.125388,0.09603 0.190329,0.14053 0.521373,0.357328 1.142465,0.553997 1.786825,0.553997 0.644359,0 1.265451,-0.196669 1.786824,-0.553997 0.06494,-0.0445 0.128588,-0.0911 0.190328,-0.14053 0.06168,0.04943 0.125388,0.09603 0.190329,0.14053 0.521434,0.357328 1.142465,0.553997 1.786886,0.553997 0.644422,0 1.265452,-0.196669 1.786825,-0.553997 0.06494,-0.0445 0.128589,-0.0911 0.190328,-0.14053 0.06168,0.04943 0.125388,0.09603 0.190329,0.14053 0.521434,0.357328 1.142465,0.553997 1.786886,0.553997 0.305991,0 0.553997,-0.248006 0.553997,-0.553997 0,-0.30593 -0.248067,-0.553997 -0.554058,-0.553997 z"
       id="path1015"
       style="display:inline;fill:#0f3dd1;fill-opacity:1;stroke-width:0.0615552" />
  </g>
  <g
     inkscape:label="B.Mask-disabled"
     inkscape:groupmode="layer"
     id="g844"
     style="display:inline" />
  <g
     inkscape:label="B.SilkS-disabled"
     inkscape:groupmode="layer"
     id="g846"
     style="display:inline" />
  <g
     inkscape:label="F.Cu"
     inkscape:groupmode="layer"
     id="g848"
     style="display:none">
    <path
       d="m 164.53497,319.42382 c -9.717,0 -18.94,-4.233 -25.305,-11.614 -1.709,-1.982 -4.198,-3.123 -6.816,-3.123 -2.618,0 -5.106,1.14 -6.816,3.123 -6.363,7.38 -15.586,11.613 -25.304,11.613 -9.717997,0 -18.939997,-4.233 -25.304997,-11.614 -1.709,-1.982 -4.198,-3.123 -6.816,-3.123 -2.618,0 -5.106,1.14 -6.816,3.123 -6.36299,7.38 -15.58599,11.613 -25.30399,11.613 -9.718001,0 -18.940003,-4.233 -25.304003,-11.613 -1.7100002,-1.983 -4.1980002,-3.123 -6.8160002,-3.123 -2.618,0 -5.106,1.14 -6.816,3.123 -6.364,7.381 -15.5869998,11.614 -25.3049998,11.614 -9.718,0 -18.94,-4.233 -25.304,-11.613 -1.71,-1.983 -4.198,-3.123 -6.816,-3.123 -2.618,0 -5.105999,1.14 -6.815999,3.123 -6.364,7.382 -15.587,11.614 -25.304001,11.614 -4.971,0 -9,4.029 -9,9 0,4.971 4.029,9 9,9 10.469001,0 20.558001,-3.195 29.029,-9 1.055,-0.723 2.09,-1.48 3.092,-2.283 1.002,0.803 2.037,1.56 3.092,2.283 8.47,5.805 18.56,9 29.028,9 10.468,0 20.5579998,-3.195 29.02899975,-9 1.05500005,-0.723 2.09000005,-1.48 3.09200005,-2.283 1.002,0.803 2.037,1.56 3.092,2.283 8.4700002,5.805 18.5600022,9 29.0280032,9 10.468,0 20.55799,-3.195 29.02799,-9 1.055,-0.723 2.089,-1.48 3.092,-2.283 1.002,0.803 2.037,1.56 3.092,2.283 8.47,5.805 18.56,9 29.028997,9 10.469,0 20.558,-3.195 29.028,-9 1.055,-0.723 2.089,-1.48 3.092,-2.283 1.002,0.803 2.037,1.56 3.092,2.283 8.47,5.805 18.56,9 29.029,9 4.971,0 9,-4.029 9,-9 0,-4.971 -4.03,-9 -9.001,-9 z"
       id="path2"
       style="display:inline;fill:#0f3dd1;fill-opacity:1"
       transform="matrix(0.06155521,0,0,0.06155521,32.937863,26.940854)" />
    <path
       d="m 252.51396,146.09529 c -9.717,0 -18.94,-4.233 -25.305,-11.614 -1.709,-1.982 -4.198,-3.123 -6.816,-3.123 -2.618,0 -5.106,1.14 -6.816,3.123 -6.363,7.38 -15.586,11.613 -25.304,11.613 -9.718,0 -18.94,-4.233 -25.305,-11.614 -1.709,-1.982 -4.198,-3.123 -6.816,-3.123 -2.618,0 -5.106,1.14 -6.816,3.123 -6.363,7.38 -15.586,11.613 -25.30399,11.613 -9.718,0 -18.94,-4.233 -25.303998,-11.613 -1.71,-1.983 -4.198,-3.123 -6.816,-3.123 -2.618,0 -5.105996,1.14 -6.815996,3.123 -6.364,7.381 -15.587005,11.614 -25.305005,11.614 -9.718,0 -18.94,-4.233 -25.304,-11.613 -1.71,-1.983 -4.198,-3.123 -6.816,-3.123 -2.618,0 -5.106,1.14 -6.816,3.123 -6.364,7.381 -15.5869996,11.614 -25.3039994,11.614 -4.971,0 -8.9999996,4.029 -8.9999996,9.00001 0,4.971 4.0289996,9 8.9999996,9 10.4689998,0 20.5579994,-3.195 29.0289994,-9 1.055,-0.723 2.089,-1.48 3.092,-2.283 1.002,0.803 2.037,1.56 3.092,2.283 8.47,5.805 18.56,9 29.028,9 10.468,0 20.558005,-3.195 29.029001,-9 1.055,-0.723 2.089,-1.48 3.092,-2.283 1.002,0.803 2.037,1.56 3.092,2.283 8.469998,5.805 18.559998,9 29.027998,9 10.46799,0 20.55799,-3.195 29.02799,-9 1.055,-0.723 2.089,-1.48 3.092,-2.283 1.002,0.803 2.037,1.56 3.092,2.283 8.471,5.805 18.56,9 29.029,9 10.469,0 20.558,-3.195 29.028,-9 1.055,-0.723 2.089,-1.48 3.092,-2.283 1.002,0.803 2.037,1.56 3.092,2.283 8.471,5.805 18.56,9 29.029,9 4.971,0 9,-4.029 9,-9 0,-4.97001 -4.03,-9.00001 -9.001,-9.00001 z"
       id="path4"
       style="display:inline;fill:#0f3dd1;fill-opacity:1"
       transform="matrix(0.06155521,0,0,0.06155521,32.937863,26.940854)" />
    <path
       d="m 282.43673,255.35288 c 10.469,0 20.558,-3.195 29.029,-9 1.055,-0.723 2.089,-1.48 3.092,-2.283 1.002,0.803 2.037,1.56 3.092,2.283 8.47,5.805 18.56,9 29.028,9 10.468,0 20.558,-3.195 29.029,-9 1.055,-0.723 2.089,-1.48 3.092,-2.283 1.002,0.803 2.037,1.56 3.092,2.283 8.47,5.805 18.56,9 29.028,9 10.468,0 20.558,-3.195 29.028,-9 1.055,-0.723 2.089,-1.48 3.092,-2.283 1.002,0.803 2.037,1.56 3.092,2.283 8.471,5.805 18.56,9 29.029,9 10.469,0 20.558,-3.195 29.028,-9 1.055,-0.723 2.089,-1.48 3.092,-2.283 1.002,0.803 2.037,1.56 3.092,2.283 8.471,5.805 18.56,9 29.029,9 4.971,0 9,-4.029 9,-9 0,-4.971 -4.029,-9 -9,-9 -9.717,0 -18.94,-4.233 -25.305,-11.614 -1.709,-1.982 -4.198,-3.123 -6.816,-3.123 -2.618,0 -5.106,1.14 -6.816,3.123 -6.363,7.38 -15.586,11.613 -25.304,11.613 -9.718,0 -18.94,-4.233 -25.305,-11.614 -1.709,-1.982 -4.198,-3.123 -6.816,-3.123 -2.618,0 -5.106,1.14 -6.816,3.123 -6.363,7.38 -15.586,11.613 -25.304,11.613 -9.718,0 -18.94,-4.233 -25.304,-11.613 -1.71,-1.983 -4.198,-3.123 -6.816,-3.123 -2.618,0 -5.106,1.14 -6.816,3.123 -6.364,7.381 -15.587,11.614 -25.305,11.614 -9.718,0 -18.941,-4.232 -25.304,-11.612 -1.71,-1.983 -4.198,-3.123 -6.816,-3.123 -2.618,0 -5.106,1.14 -6.816,3.123 -6.365,7.381 -15.588,11.613 -25.305,11.613 -4.971,0 -9,4.029 -9,9 0,4.971 4.029,9 9,9 z"
       id="path6"
       style="display:inline;fill:#0f3dd1;fill-opacity:1"
       transform="matrix(0.06155521,0,0,0.06155521,32.937863,26.940854)" />
    <path
       d="m 665.27864,409.56181 c -9.71701,0 -18.94001,-4.233 -25.30501,-11.614 -1.709,-1.982 -4.198,-3.123 -6.81599,-3.123 -2.618,0 -5.106,1.14 -6.816,3.123 -6.36301,7.38 -15.58601,11.613 -25.30401,11.613 -9.718,0 -18.94,-4.233 -25.30499,-11.614 -1.709,-1.982 -4.198,-3.123 -6.816,-3.123 -2.61801,0 -5.106,1.14 -6.81601,3.123 -6.36299,7.38 -15.586,11.613 -25.304,11.613 -9.71799,0 -18.94,-4.233 -25.304,-11.613 -1.71,-1.983 -4.198,-3.123 -6.81599,-3.123 -2.61801,0 -5.106,1.14 -6.81601,3.123 -6.36399,7.381 -15.587,11.614 -25.305,11.614 -9.71799,0 -18.93999,-4.233 -25.30399,-11.613 -1.71,-1.983 -4.198,-3.123 -6.81601,-3.123 -2.618,0 -5.106,1.14 -6.81599,3.123 -6.364,7.382 -15.587,11.614 -25.304,11.614 -4.971,0 -9,4.029 -9,9 0,4.971 4.029,9 9,9 10.469,0 20.55799,-3.195 29.02899,-9 1.055,-0.723 2.09,-1.48 3.092,-2.283 1.002,0.803 2.03701,1.56 3.092,2.283 8.47,5.805 18.56,9 29.028,9 10.468,0 20.55801,-3.195 29.02901,-9 1.05499,-0.723 2.08999,-1.48 3.09199,-2.283 1.002,0.803 2.037,1.56 3.092,2.283 8.47,5.805 18.56001,9 29.02801,9 10.46799,0 20.558,-3.195 29.028,-9 1.05499,-0.723 2.089,-1.48 3.092,-2.283 1.002,0.803 2.037,1.56 3.09199,2.283 8.47,5.805 18.56001,9 29.02901,9 10.469,0 20.55799,-3.195 29.028,-9 1.05499,-0.723 2.089,-1.48 3.09199,-2.283 1.002,0.803 2.037,1.56 3.09201,2.283 8.46999,5.805 18.56,9 29.02899,9 4.97101,0 9,-4.029 9,-9 0,-4.971 -4.03,-9 -9.00099,-9 z"
       id="path2-6"
       style="display:inline;fill:#0f3dd1;fill-opacity:1;stroke-width:1"
       transform="matrix(0.06155521,0,0,0.06155521,32.937863,26.940854)" />
    <path
       d="m 247.41612,490.28892 c -9.71701,0 -18.94001,-4.233 -25.30501,-11.614 -1.709,-1.982 -4.198,-3.123 -6.81599,-3.123 -2.618,0 -5.106,1.14 -6.816,3.123 -6.36301,7.38 -15.58601,11.613 -25.30401,11.613 -9.718,0 -18.94,-4.233 -25.30499,-11.614 -1.709,-1.982 -4.198,-3.123 -6.816,-3.123 -2.61801,0 -5.106,1.14 -6.81601,3.123 -6.36299,7.38 -15.586,11.613 -25.30399,11.613 -9.71799,0 -18.940001,-4.233 -25.304003,-11.613 -1.71,-1.983 -4.198,-3.123 -6.81599,-3.123 -2.61801,0 -5.106,1.14 -6.81601,3.123 -6.36399,7.381 -15.587,11.614 -25.305,11.614 -9.71799,0 -18.93999,-4.233 -25.30399,-11.613 -1.71,-1.983 -4.198,-3.123 -6.81601,-3.123 -2.618,0 -5.106,1.14 -6.81599,3.123 -6.3639999,7.382 -15.58699986,11.614 -25.3039999,11.614 -4.9710001,0 -9.0000001,4.029 -9.0000001,9 0,4.971 4.029,9 9.0000001,9 10.46900004,0 20.5579899,-3.195 29.0289899,-9 1.055,-0.723 2.09,-1.48 3.092,-2.283 1.002,0.803 2.03701,1.56 3.092,2.283 8.47,5.805 18.56,9 29.028,9 10.468,0 20.55801,-3.195 29.02901,-9 1.05499,-0.723 2.08999,-1.48 3.09199,-2.283 1.002,0.803 2.037,1.56 3.092,2.283 8.470002,5.805 18.560013,9 29.028013,9 10.46798,0 20.55799,-3.195 29.02799,-9 1.05499,-0.723 2.089,-1.48 3.092,-2.283 1.002,0.803 2.037,1.56 3.09199,2.283 8.47,5.805 18.56001,9 29.02901,9 10.469,0 20.55799,-3.195 29.028,-9 1.05499,-0.723 2.089,-1.48 3.09199,-2.283 1.002,0.803 2.037,1.56 3.09201,2.283 8.46999,5.805 18.56,9 29.02899,9 4.97101,0 9,-4.029 9,-9 0,-4.971 -4.03,-9 -9.00099,-9 z"
       id="path2-7"
       style="display:inline;fill:#0f3dd1;fill-opacity:1;stroke-width:1"
       transform="matrix(0.06155521,0,0,0.06155521,32.937863,26.940854)" />
    <path
       d="m 540.5812,592.69135 c -9.71701,0 -18.94001,-4.233 -25.30501,-11.614 -1.709,-1.982 -4.198,-3.123 -6.81599,-3.123 -2.618,0 -5.106,1.14 -6.816,3.123 -6.36301,7.38 -15.58601,11.613 -25.30401,11.613 -9.718,0 -18.94,-4.233 -25.30499,-11.614 -1.709,-1.982 -4.198,-3.123 -6.816,-3.123 -2.61801,0 -5.106,1.14 -6.81601,3.123 -6.36299,7.38 -15.586,11.613 -25.304,11.613 -9.71799,0 -18.94,-4.233 -25.304,-11.613 -1.71,-1.983 -4.198,-3.123 -6.81599,-3.123 -2.61801,0 -5.106,1.14 -6.81601,3.123 -6.36399,7.381 -15.587,11.614 -25.305,11.614 -9.71799,0 -18.93999,-4.233 -25.30399,-11.613 -1.71,-1.983 -4.198,-3.123 -6.81601,-3.123 -2.618,0 -5.106,1.14 -6.81599,3.123 -6.364,7.382 -15.587,11.614 -25.304,11.614 -4.971,0 -9,4.029 -9,9 0,4.971 4.029,9 9,9 10.469,0 20.55799,-3.195 29.02899,-9 1.055,-0.723 2.09,-1.48 3.092,-2.283 1.002,0.803 2.03701,1.56 3.092,2.283 8.47,5.805 18.56,9 29.028,9 10.468,0 20.55801,-3.195 29.02901,-9 1.05499,-0.723 2.08999,-1.48 3.09199,-2.283 1.002,0.803 2.037,1.56 3.092,2.283 8.47,5.805 18.56001,9 29.02801,9 10.46799,0 20.558,-3.195 29.028,-9 1.05499,-0.723 2.089,-1.48 3.092,-2.283 1.002,0.803 2.037,1.56 3.09199,2.283 8.47,5.805 18.56001,9 29.02901,9 10.469,0 20.55799,-3.195 29.028,-9 1.05499,-0.723 2.089,-1.48 3.09199,-2.283 1.002,0.803 2.037,1.56 3.09201,2.283 8.46999,5.805 18.56,9 29.02899,9 4.97101,0 9,-4.029 9,-9 0,-4.971 -4.03,-9 -9.00099,-9 z"
       id="path2-5"
       style="display:inline;fill:#0f3dd1;fill-opacity:1;stroke-width:1"
       transform="matrix(0.06155521,0,0,0.06155521,32.937863,26.940854)" />
    <path
       d="m 318.88223,701.38976 c -9.71701,0 -18.94001,-4.233 -25.30501,-11.614 -1.709,-1.982 -4.198,-3.123 -6.81599,-3.123 -2.618,0 -5.106,1.14 -6.816,3.123 -6.36301,7.38 -15.58601,11.613 -25.30401,11.613 -9.718,0 -18.94,-4.233 -25.30499,-11.614 -1.709,-1.982 -4.198,-3.123 -6.816,-3.123 -2.61801,0 -5.106,1.14 -6.81601,3.123 -6.36299,7.38 -15.586,11.613 -25.304,11.613 -9.71799,0 -18.94,-4.233 -25.304,-11.613 -1.71,-1.983 -4.198,-3.123 -6.81599,-3.123 -2.61801,0 -5.106,1.14 -6.81601,3.123 -6.36399,7.381 -15.587,11.614 -25.305,11.614 -9.71799,0 -18.93999,-4.233 -25.30399,-11.613 -1.710002,-1.983 -4.198002,-3.123 -6.816012,-3.123 -2.618,0 -5.106,1.14 -6.81599,3.123 -6.364,7.382 -15.587,11.614 -25.304,11.614 -4.971,0 -9,4.029 -9,9 0,4.971 4.029,9 9,9 10.469,0 20.55799,-3.195 29.02899,-9 1.055,-0.723 2.09,-1.48 3.092,-2.283 1.002,0.803 2.03701,1.56 3.092,2.283 8.470002,5.805 18.560002,9 29.028002,9 10.468,0 20.55801,-3.195 29.02901,-9 1.05499,-0.723 2.08999,-1.48 3.09199,-2.283 1.002,0.803 2.037,1.56 3.092,2.283 8.47,5.805 18.56001,9 29.02801,9 10.46799,0 20.558,-3.195 29.028,-9 1.05499,-0.723 2.089,-1.48 3.092,-2.283 1.002,0.803 2.037,1.56 3.09199,2.283 8.47,5.805 18.56001,9 29.02901,9 10.469,0 20.55799,-3.195 29.028,-9 1.05499,-0.723 2.089,-1.48 3.09199,-2.283 1.002,0.803 2.037,1.56 3.09201,2.283 8.46999,5.805 18.56,9 29.02899,9 4.97101,0 9,-4.029 9,-9 0,-4.971 -4.03,-9 -9.00099,-9 z"
       id="path2-3"
       style="display:inline;fill:#0f3dd1;fill-opacity:1;stroke-width:1"
       transform="matrix(0.06155521,0,0,0.06155521,32.937863,26.940854)" />
  </g>
  <g
     inkscape:label="F.Mask"
     inkscape:groupmode="layer"
     id="g850">
    <path
       id="path1002"
       style="display:inline;fill:#908428;fill-opacity:1;stroke:none;stroke-width:0.394938;stroke-opacity:1"
       d="M 245.51562 90.957031 L 132.35938 91.001953 L 113.33789 123.97656 C 114.0471 124.09305 114.72888 124.23242 115.57617 124.23242 C 116.81296 124.23242 117.88524 124.09997 118.84375 123.85938 C 119.80226 123.61878 120.64599 123.26853 121.42773 122.83594 C 122.99122 121.97076 124.30408 120.77116 125.76953 119.42969 C 126.58096 118.68696 127.41978 117.91901 128.33398 117.18555 C 129.24819 116.45208 130.23738 115.75307 131.35156 115.14648 C 132.46575 114.5399 133.70386 114.02616 135.11523 113.66406 C 136.52661 113.30196 138.11026 113.0918 139.91602 113.0918 C 141.72165 113.0918 143.30749 113.30196 144.71875 113.66406 C 146.13001 114.02617 147.36833 114.53987 148.48242 115.14648 C 149.59652 115.7531 150.58585 116.45201 151.5 117.18555 C 152.41415 117.91908 153.25303 118.68684 154.06445 119.42969 C 155.52966 120.77092 156.8391 121.97082 158.40234 122.83594 C 159.18397 123.26849 160.02989 123.61878 160.98828 123.85938 C 161.94667 124.09997 163.0192 124.23242 164.25586 124.23242 C 165.49277 124.23242 166.56486 124.09997 167.52344 123.85938 C 168.48202 123.61878 169.32565 123.26853 170.10742 122.83594 C 171.67097 121.97076 172.98377 120.77116 174.44922 119.42969 C 175.26064 118.68696 176.09947 117.91901 177.01367 117.18555 C 177.92788 116.45208 178.91706 115.75307 180.03125 115.14648 C 181.14544 114.5399 182.38355 114.02616 183.79492 113.66406 C 185.20629 113.30196 186.78994 113.0918 188.5957 113.0918 C 190.40158 113.0918 191.98704 113.30196 193.39844 113.66406 C 194.80984 114.02616 196.04792 114.5399 197.16211 115.14648 C 198.2763 115.75307 199.26545 116.45208 200.17969 117.18555 C 201.09392 117.91901 201.93259 118.68696 202.74414 119.42969 C 204.20959 120.77116 205.52233 121.97076 207.08594 122.83594 C 207.86774 123.26853 208.71136 123.61878 209.66992 123.85938 C 210.62848 124.09997 211.70072 124.23242 212.9375 124.23242 C 214.17453 124.23242 215.24838 124.09997 216.20703 123.85938 C 217.16568 123.61878 218.00921 123.26853 218.79102 122.83594 C 220.35463 121.97076 221.66736 120.77116 223.13281 119.42969 C 223.94436 118.68696 224.78299 117.91901 225.69727 117.18555 C 226.61155 116.45208 227.6006 115.75307 228.71484 115.14648 C 229.82909 114.5399 231.06707 114.02616 232.47852 113.66406 C 233.88996 113.30196 235.47537 113.0918 237.28125 113.0918 C 239.08713 113.0918 240.67058 113.30196 242.08203 113.66406 C 243.49348 114.02616 244.73341 114.5399 245.84766 115.14648 C 246.9619 115.75307 247.95095 116.45208 248.86523 117.18555 C 249.77952 117.91901 250.61814 118.68696 251.42969 119.42969 C 252.89514 120.77116 254.20598 121.97076 255.76953 122.83594 C 256.55131 123.26853 257.39689 123.61878 258.35547 123.85938 C 259.31405 124.09997 260.38614 124.23242 261.62305 124.23242 C 262.73159 124.23242 263.67193 124.09364 264.55273 123.89844 L 245.51562 90.957031 z "
       transform="scale(0.26458333)" />
  </g>
  <g
     inkscape:label="F.SilkS"
     inkscape:groupmode="layer"
     id="g852"
     style="display:inline">
    <text
       xml:space="preserve"
       style="font-style:normal;font-weight:normal;font-size:12.7px;line-height:1.25;font-family:sans-serif;text-align:center;letter-spacing:0px;word-spacing:0px;text-anchor:middle;fill:#000000;fill-opacity:1;stroke:none;stroke-width:0.264583"
       x="51.053726"
       y="55.131474"
       id="text1009"><tspan
         sodipodi:role="line"
         id="tspan1007"
         x="51.053726"
         y="55.131474"
         style="font-style:normal;font-variant:normal;font-weight:600;font-stretch:normal;font-size:12.7px;font-family:FreeSans;-inkscape-font-specification:'FreeSans Semi-Bold';text-align:center;text-anchor:middle;stroke-width:0.264583">2:1</tspan></text>
    <path
       style="fill:none;stroke:#000000;stroke-width:1;stroke-linecap:butt;stroke-linejoin:miter;stroke-opacity:1;stroke-miterlimit:4;stroke-dasharray:4,1;stroke-dashoffset:0"
       d="m 31.931596,34.218787 c 3.374544,8.018272 9.157097,12.797734 9.157097,12.797734"
       id="path1011" />
    <path
       style="fill:none;stroke:#000000;stroke-width:1;stroke-linecap:butt;stroke-linejoin:miter;stroke-miterlimit:4;stroke-dasharray:4, 1;stroke-dashoffset:0;stroke-opacity:1"
       d="M 68.467074,34.218787 C 65.09253,42.237059 59.309977,47.016521 59.309977,47.016521"
       id="path1013" />
    <path
       d="m 57.44224,61.049691 a 0.54822993,0.54822993 0 0 1 -0.179568,-0.114058 c -0.87211,-0.84315 -2.40755,-1.182554 -4.69407,-1.037457 -2.914604,0.184793 -3.605226,-0.394399 -4.561268,-1.196038 -0.418089,-0.350385 -0.891903,-0.747845 -1.61062,-1.125057 -1.739191,-0.912898 -2.903157,-0.219309 -3.275796,0.274999 a 0.92680857,0.92680857 0 0 0 -0.157972,0.804207 0.79753456,0.79753456 0 0 0 0.05153,0.134912 l -0.777078,1.169478 a 0.58997536,0.58997536 0 0 0 -0.05436,0.579259 c 0.02079,0.04612 0.04228,0.09598 0.06394,0.148196 a 0.59094308,0.59094308 0 0 0 0.614001,0.358223 c 0.18984,-0.02251 0.348579,-0.0052 0.459133,0.04974 0.121299,0.06044 0.607895,0.355617 0.718682,0.439675 0.193911,0.147229 0.582534,1.153256 0.756056,1.957167 0.249439,1.155389 0.402772,1.862025 1.619801,2.59889 a 3.7426395,3.7426395 0 0 0 0.54492,1.268914 c 0.459874,0.670136 0.261789,1.799164 0.143496,2.473764 -0.01668,0.09477 -0.03232,0.184263 -0.04421,0.261486 -0.01262,0.08159 -0.198181,0.347042 -0.397099,0.568145 -0.0015,0.0015 -0.0022,0.003 -0.0037,0.0037 a 0.31991481,0.31991481 0 0 0 0.232454,0.527607 l 1.154024,0.03816 q 0.0037,0 0.0067,0 c 0.0044,0 0.009,0 0.01335,-3.76e-4 a 0.52854184,0.52854184 0 0 0 0.421055,-0.273833 0.44575176,0.44575176 0 0 0 0.03232,-0.07902 l 0.50388,0.02627 c 0.0037,0 0.0067,2.5e-4 0.01048,2.5e-4 0.0044,0 0.009,0 0.01336,-5.01e-4 a 0.44381631,0.44381631 0 0 0 0.355522,-0.664055 l -0.0074,-0.01292 c -0.07488,-0.129835 -0.167983,-0.291412 -0.174388,-0.414118 -0.06177,-1.178111 0.233921,-1.827753 0.920499,-2.775248 a 9.2825687,9.2825687 0 0 0 1.360714,0.09974 8.8429564,8.8429564 0 0 0 2.518411,-0.360392 c 0.31471,0.720784 0.984005,1.324574 1.483177,1.774699 0.214099,0.193044 0.480058,0.43287 0.512861,0.52013 a 0.32368558,0.32368558 0 0 1 -0.06546,0.238993 l -0.310843,0.397638 a 0.41284928,0.41284928 0 0 0 0.324356,0.667087 q 0.01048,0 0.02111,-5.01e-4 l 0.391026,-0.01004 a 0.42045756,0.42045756 0 0 0 0.04051,0.115828 0.40794394,0.40794394 0 0 0 0.364327,0.221539 c 0.0081,0 0.01631,-2.52e-4 0.0245,-7.39e-4 l 0.967112,-0.05165 a 0.32368558,0.32368558 0 0 0 0.294194,-0.407107 l -0.07092,-0.263922 c 0.01446,-0.233988 0.109216,-1.685164 0.270062,-2.243974 0.07929,-0.275301 0.03284,-0.603989 -0.13802,-0.977096 -0.237191,-0.518131 -0.253375,-1.117051 -0.0456,-1.686472 0.162211,-0.444516 0.186868,-1.057214 0.08208,-2.048892 -0.0067,-0.06237 -0.01402,-0.122537 -0.02258,-0.181164 0.09751,0.112951 0.19638,0.231383 0.285278,0.344939 a 0.25534454,0.25534454 0 0 0 0.454561,-0.187539 c -0.156844,-1.305438 -1.058496,-1.79971 -1.438835,-1.951641 z M 43.828088,60.926623 c -0.137916,-0.08312 -0.267558,-0.158005 -0.329492,-0.188868 -0.183166,-0.09134 -0.413783,-0.121238 -0.685046,-0.08904 a 0.18933937,0.18933937 0 0 1 -0.196713,-0.113958 c -0.02312,-0.0558 -0.04621,-0.109385 -0.06864,-0.159208 a 0.18817144,0.18817144 0 0 1 0.01745,-0.185597 c 0.0013,-0.0015 0.0024,-0.0037 0.0036,-0.0052 l 0.734367,-1.105073 c 0.226913,0.104116 0.520032,0.07343 0.896274,-0.09457 a 0.53638371,0.53638371 0 0 1 0.307735,-0.04428 c 0.23549,0.04008 0.252441,0.16602 0.259683,0.219738 a 0.35088184,0.35088184 0 0 1 -0.149797,0.327264 c -0.467041,0.329521 -0.7355,0.822826 -0.789459,1.438859 z m 4.991231,8.910067 c 0.01144,0.218468 0.131142,0.426161 0.227317,0.593074 l 0.0074,0.01284 a 0.04094456,0.04094456 0 0 1 6.27e-4,0.04147 0.04184554,0.04184554 0 0 1 -0.02856,0.02207 l -0.585967,-0.03055 a 0.70336543,0.70336543 0 0 1 -0.04841,-0.297427 c 0.02864,-0.524669 0.104714,-1.918385 0.854766,-2.936861 a 2.7199599,2.7199599 0 0 0 0.21066,-0.33316 c 0.06465,0.01601 0.147326,0.03506 0.245834,0.05528 -0.651007,0.928448 -0.947666,1.651696 -0.883659,2.873231 z m 7.695042,0.126802 -0.54326,0.01394 c -0.0022,0 -0.0044,0 -0.0059,2.51e-4 a 0.01031123,0.01031123 0 0 1 -0.01196,-0.0067 0.01001089,0.01001089 0 0 1 0.0015,-0.01335 l 0.310909,-0.397668 a 0.72625701,0.72625701 0 0 0 0.145791,-0.546492 c -0.02782,-0.196513 -0.227583,-0.384215 -0.640698,-0.756621 -0.462574,-0.417122 -1.080776,-0.974661 -1.368425,-1.601742 0.03025,-0.01063 0.06037,-0.02074 0.09073,-0.03173 a 1.9326365,1.9326365 0 0 0 0.475179,0.374141 c 0.330593,0.186099 0.979599,0.808081 1.256767,1.07367 0.09581,0.0918 0.139186,0.133245 0.163849,0.153931 0.197385,0.165783 0.363198,0.603591 0.44355,1.171277 a 0.32405264,0.32405264 0 0 1 -0.0648,0.243598 z m 1.373731,-7.992962 a 0.20021789,0.20021789 0 0 0 -0.331964,0.208556 3.4149497,3.4149497 0 0 1 0.209228,0.888302 c 0.09781,0.926906 0.07985,1.48598 -0.06007,1.869435 -0.244136,0.669028 -0.223575,1.375894 0.05771,1.990465 0.12988,0.283641 0.169318,0.518899 0.117296,0.69956 -0.186638,0.648106 -0.282975,2.294032 -0.286976,2.363773 a 0.20021789,0.20021789 0 0 0 0.0067,0.06339 l 0.05476,0.203857 -0.872116,0.04671 a 0.01027785,0.01027785 0 0 1 -0.01196,-0.0067 0.01001089,0.01001089 0 0 1 0.0015,-0.01335 l 0.310872,-0.397667 a 0.72625701,0.72625701 0 0 0 0.145791,-0.546493 c -0.06834,-0.482795 -0.224874,-1.121219 -0.582535,-1.421545 -0.01564,-0.01314 -0.07812,-0.07299 -0.144285,-0.136419 -0.312474,-0.299426 -0.962684,-0.922537 -1.337386,-1.133463 -1.414638,-0.796236 -0.663353,-3.143825 -0.655574,-3.167182 a 0.20028106,0.20028106 0 0 0 -0.380415,-0.125437 5.2851182,5.2851182 0 0 0 -0.227951,1.429155 c -0.0084,0.597746 0.108721,1.10353 0.343411,1.502268 -2.071122,0.718311 -4.001028,0.387417 -4.625702,0.245767 a 2.1783371,2.1783371 0 0 0 0.03425,-1.24876 2.3995445,2.3995445 0 0 0 -0.412989,-0.848125 0.20021789,0.20021789 0 0 0 -0.308932,0.254748 c 0.03638,0.04465 0.881926,1.106135 -0.0067,2.312511 -0.820894,1.114549 -0.901748,2.595157 -0.932175,3.152498 a 1.1045354,1.1045354 0 0 0 0.14365,0.608032 0.13347858,0.13347858 0 0 1 -0.09097,0.0687 l -0.972388,-0.0321 c 0.145459,-0.175325 0.352813,-0.453327 0.382214,-0.644033 0.01122,-0.07306 0.0259,-0.156573 0.04288,-0.253242 0.128905,-0.734798 0.344672,-1.964606 -0.207656,-2.769514 -0.717449,-1.045738 -0.587311,-2.384798 -0.585909,-2.397979 a 0.20021789,0.20021789 0 1 0 -0.398134,-0.04251 4.2789231,4.2789231 0 0 0 0.01646,0.85893 c -0.796502,-0.573156 -0.918868,-1.13874 -1.135904,-2.144161 a 9.4411413,9.4411413 0 0 0 -0.370737,-1.238716 c -0.289516,-0.767034 -0.47385,-0.906987 -0.534482,-0.953008 -0.01585,-0.01203 -0.0373,-0.02716 -0.06283,-0.0445 -0.0029,-0.570322 0.186469,-1.009229 0.56378,-1.307024 a 2.2770113,2.2770113 0 0 0 0.414752,0.03926 c 0.53318,0 0.895207,-0.200019 1.047802,-0.304504 0.218807,-0.149828 0.363735,-0.334791 0.387993,-0.494869 a 0.30883608,0.30883608 0 0 0 -0.212432,-0.343241 c -0.434972,-0.128706 -1.026016,0.02052 -1.330013,0.116795 -0.0963,-0.174189 -0.274432,-0.291847 -0.51486,-0.332865 a 0.93435011,0.93435011 0 0 0 -0.538185,0.07343 c -0.343975,0.153502 -0.503281,0.125902 -0.567619,0.09577 -0.02092,-0.0097 -0.08463,-0.03956 -0.120931,-0.167879 a 0.52420379,0.52420379 0 0 1 0.0925,-0.454161 c 0.301696,-0.400436 1.268849,-0.949304 2.769914,-0.161444 0.680506,0.357056 1.117148,0.723323 1.539406,1.077338 0.988676,0.829004 1.76943,1.483715 4.843905,1.288803 2.167658,-0.137517 3.60392,0.165311 4.390348,0.925741 a 0.94736427,0.94736427 0 0 0 0.309404,0.198085 1.8794452,1.8794452 0 0 1 1.037959,1.032121 c -0.232816,-0.26349 -0.430834,-0.469715 -0.443542,-0.483094 z M 45.107146,59.501711 a 0.73279746,0.73279746 0 0 0 0.0598,-0.22745 c 0.254444,-0.08456 0.697225,-0.197214 1.023514,-0.152602 -0.128841,0.156572 -0.510556,0.40918 -1.083313,0.380052 z"
       id="path1580"
       style="stroke-width:0.0333696" />
  </g>
</svg>
