G04 #@! TF.GenerationSoftware,KiCad,Pcbnew,5.1.5+dfsg1-2build2*
G04 #@! TF.CreationDate,2021-04-24T08:58:05-04:00*
G04 #@! TF.ProjectId,5,352e6b69-6361-4645-9f70-636258585858,rev?*
G04 #@! TF.SameCoordinates,Original*
G04 #@! TF.FileFunction,Profile,NP*
%FSLAX46Y46*%
G04 Gerber Fmt 4.6, Leading zero omitted, Abs format (unit mm)*
G04 Created by KiCad (PCBNEW 5.1.5+dfsg1-2build2) date 2021-04-24 08:58:05*
%MOMM*%
%LPD*%
G04 APERTURE LIST*
%ADD10C,0.100000*%
G04 APERTURE END LIST*
D10*
X5911300Y1049800D02*
X5902800Y704600D01*
X5902800Y704600D02*
X5877400Y361800D01*
X5877400Y361800D02*
X5835100Y21900D01*
X5835100Y21900D02*
X5776400Y-314700D01*
X5776400Y-314700D02*
X5701400Y-647000D01*
X5701400Y-647000D02*
X5610500Y-974800D01*
X5610500Y-974800D02*
X5503700Y-1297400D01*
X5503700Y-1297400D02*
X5381400Y-1614200D01*
X5381400Y-1614200D02*
X5243900Y-1924700D01*
X5243900Y-1924700D02*
X5091300Y-2228200D01*
X5091300Y-2228200D02*
X4923900Y-2524300D01*
X4923900Y-2524300D02*
X4741800Y-2812300D01*
X4741800Y-2812300D02*
X4545400Y-3091800D01*
X4545400Y-3091800D02*
X4334900Y-3362000D01*
X4334900Y-3362000D02*
X4110500Y-3622500D01*
X4110500Y-3622500D02*
X3872500Y-3872600D01*
X3872500Y-3872600D02*
X3622300Y-4110700D01*
X3622300Y-4110700D02*
X3361900Y-4335000D01*
X3361900Y-4335000D02*
X3091600Y-4545500D01*
X3091600Y-4545500D02*
X2812200Y-4742000D01*
X2812200Y-4742000D02*
X2524100Y-4924000D01*
X2524100Y-4924000D02*
X2228000Y-5091500D01*
X2228000Y-5091500D02*
X1924500Y-5244100D01*
X1924500Y-5244100D02*
X1614000Y-5381600D01*
X1614000Y-5381600D02*
X1297300Y-5503900D01*
X1297300Y-5503900D02*
X974600Y-5610700D01*
X974600Y-5610700D02*
X646900Y-5701600D01*
X646900Y-5701600D02*
X314500Y-5776600D01*
X314500Y-5776600D02*
X-22000Y-5835300D01*
X-22000Y-5835300D02*
X-362000Y-5877500D01*
X-362000Y-5877500D02*
X-704700Y-5903000D01*
X-704700Y-5903000D02*
X-1050000Y-5911500D01*
X-1050000Y-5911500D02*
X-1395200Y-5903000D01*
X-1395200Y-5903000D02*
X-1738000Y-5877500D01*
X-1738000Y-5877500D02*
X-2078000Y-5835300D01*
X-2078000Y-5835300D02*
X-2414400Y-5776600D01*
X-2414400Y-5776600D02*
X-2746800Y-5701600D01*
X-2746800Y-5701600D02*
X-3074600Y-5610700D01*
X-3074600Y-5610700D02*
X-3397200Y-5503900D01*
X-3397200Y-5503900D02*
X-3714000Y-5381600D01*
X-3714000Y-5381600D02*
X-4024400Y-5244100D01*
X-4024400Y-5244100D02*
X-4328000Y-5091500D01*
X-4328000Y-5091500D02*
X-4624100Y-4924000D01*
X-4624100Y-4924000D02*
X-4912200Y-4742000D01*
X-4912200Y-4742000D02*
X-5191500Y-4545500D01*
X-5191500Y-4545500D02*
X-5461800Y-4335000D01*
X-5461800Y-4335000D02*
X-5722200Y-4110700D01*
X-5722200Y-4110700D02*
X-5972400Y-3872600D01*
X-5972400Y-3872600D02*
X-6210400Y-3622500D01*
X-6210400Y-3622500D02*
X-6434900Y-3362000D01*
X-6434900Y-3362000D02*
X-6645300Y-3091800D01*
X-6645300Y-3091800D02*
X-6841700Y-2812300D01*
X-6841700Y-2812300D02*
X-7023800Y-2524300D01*
X-7023800Y-2524300D02*
X-7191200Y-2228200D01*
X-7191200Y-2228200D02*
X-7343800Y-1924700D01*
X-7343800Y-1924700D02*
X-7481400Y-1614200D01*
X-7481400Y-1614200D02*
X-7603600Y-1297400D01*
X-7603600Y-1297400D02*
X-7710400Y-974800D01*
X-7710400Y-974800D02*
X-7801400Y-647000D01*
X-7801400Y-647000D02*
X-7876300Y-314700D01*
X-7876300Y-314700D02*
X-7935000Y21900D01*
X-7935000Y21900D02*
X-7977300Y361800D01*
X-7977300Y361800D02*
X-8002800Y704600D01*
X-8002800Y704600D02*
X-8011300Y1049800D01*
X-8011300Y1049800D02*
X-8002300Y1408000D01*
X-8002300Y1408000D02*
X-7975400Y1761500D01*
X-7975400Y1761500D02*
X-7931200Y2110000D01*
X-7931200Y2110000D02*
X-7869900Y2452700D01*
X-7869900Y2452700D02*
X-7792200Y2789500D01*
X-7792200Y2789500D02*
X-7698400Y3119900D01*
X-7698400Y3119900D02*
X-7589000Y3443400D01*
X-7589000Y3443400D02*
X-7464300Y3759400D01*
X-7464300Y3759400D02*
X-7324900Y4067900D01*
X-7324900Y4067900D02*
X-7171100Y4368000D01*
X-7171100Y4368000D02*
X-7003500Y4659500D01*
X-7003500Y4659500D02*
X-6822400Y4942000D01*
X-6822400Y4942000D02*
X-6628400Y5214900D01*
X-6628400Y5214900D02*
X-6421700Y5477900D01*
X-6421700Y5477900D02*
X-6202900Y5730500D01*
X-6202900Y5730500D02*
X-5972400Y5972200D01*
X-5972400Y5972200D02*
X-5730600Y6202700D01*
X-5730600Y6202700D02*
X-5478100Y6421500D01*
X-5478100Y6421500D02*
X-5215000Y6628100D01*
X-5215000Y6628100D02*
X-4942200Y6822200D01*
X-4942200Y6822200D02*
X-4659700Y7003400D01*
X-4659700Y7003400D02*
X-4368200Y7170900D01*
X-4368200Y7170900D02*
X-4068000Y7324700D01*
X-4068000Y7324700D02*
X-3759700Y7464100D01*
X-3759700Y7464100D02*
X-3443600Y7588800D01*
X-3443600Y7588800D02*
X-3120100Y7698100D01*
X-3120100Y7698100D02*
X-2789700Y7792000D01*
X-2789700Y7792000D02*
X-2453000Y7869700D01*
X-2453000Y7869700D02*
X-2110200Y7930900D01*
X-2110200Y7930900D02*
X-1761700Y7975200D01*
X-1761700Y7975200D02*
X-1408300Y8002100D01*
X-1408300Y8002100D02*
X-1050000Y8011100D01*
X-1050000Y8011100D02*
X-691700Y8002100D01*
X-691700Y8002100D02*
X-338300Y7975200D01*
X-338300Y7975200D02*
X10200Y7930900D01*
X10200Y7930900D02*
X353000Y7869700D01*
X353000Y7869700D02*
X689800Y7792000D01*
X689800Y7792000D02*
X1020100Y7698100D01*
X1020100Y7698100D02*
X1343600Y7588800D01*
X1343600Y7588800D02*
X1659700Y7464100D01*
X1659700Y7464100D02*
X1968000Y7324700D01*
X1968000Y7324700D02*
X2268200Y7170900D01*
X2268200Y7170900D02*
X2559800Y7003400D01*
X2559800Y7003400D02*
X2842200Y6822200D01*
X2842200Y6822200D02*
X3115100Y6628100D01*
X3115100Y6628100D02*
X3378100Y6421500D01*
X3378100Y6421500D02*
X3630600Y6202700D01*
X3630600Y6202700D02*
X3872500Y5972200D01*
X3872500Y5972200D02*
X4102900Y5730500D01*
X4102900Y5730500D02*
X4321800Y5477900D01*
X4321800Y5477900D02*
X4528400Y5214900D01*
X4528400Y5214900D02*
X4722500Y4942000D01*
X4722500Y4942000D02*
X4903500Y4659500D01*
X4903500Y4659500D02*
X5071200Y4368000D01*
X5071200Y4368000D02*
X5224900Y4067900D01*
X5224900Y4067900D02*
X5364300Y3759400D01*
X5364300Y3759400D02*
X5489000Y3443400D01*
X5489000Y3443400D02*
X5598400Y3119900D01*
X5598400Y3119900D02*
X5692200Y2789500D01*
X5692200Y2789500D02*
X5769900Y2452700D01*
X5769900Y2452700D02*
X5831200Y2110000D01*
X5831200Y2110000D02*
X5875400Y1761500D01*
X5875400Y1761500D02*
X5902300Y1408000D01*
X5902300Y1408000D02*
X5911300Y1049800D01*
X5911300Y1049800D02*
X5911300Y1049800D01*
X5911300Y1049800D02*
X5911300Y1049800D01*
M02*
