G04 #@! TF.GenerationSoftware,KiCad,Pcbnew,5.1.5+dfsg1-2build2*
G04 #@! TF.CreationDate,2021-04-24T08:58:05-04:00*
G04 #@! TF.ProjectId,5,352e6b69-6361-4645-9f70-636258585858,rev?*
G04 #@! TF.SameCoordinates,Original*
G04 #@! TF.FileFunction,Legend,Top*
G04 #@! TF.FilePolarity,Positive*
%FSLAX46Y46*%
G04 Gerber Fmt 4.6, Leading zero omitted, Abs format (unit mm)*
G04 Created by KiCad (PCBNEW 5.1.5+dfsg1-2build2) date 2021-04-24 08:58:05*
%MOMM*%
%LPD*%
G04 APERTURE LIST*
%ADD10C,0.010000*%
G04 APERTURE END LIST*
D10*
G36*
X-3325321Y-2526503D02*
G01*
X-3173849Y-2575925D01*
X-3158062Y-2583562D01*
X-3022388Y-2670770D01*
X-2923003Y-2779296D01*
X-2859076Y-2910503D01*
X-2829775Y-3065750D01*
X-2827551Y-3124730D01*
X-2830608Y-3217958D01*
X-2843909Y-3290315D01*
X-2872274Y-3362915D01*
X-2890214Y-3399292D01*
X-2967086Y-3513036D01*
X-3068495Y-3610196D01*
X-3182595Y-3680473D01*
X-3237688Y-3701423D01*
X-3339494Y-3719338D01*
X-3459631Y-3722108D01*
X-3577119Y-3710255D01*
X-3653677Y-3691104D01*
X-3770308Y-3629387D01*
X-3876919Y-3534065D01*
X-3963902Y-3413859D01*
X-3968949Y-3404845D01*
X-4001755Y-3339410D01*
X-4020644Y-3281159D01*
X-4029274Y-3213515D01*
X-4031300Y-3122084D01*
X-4029181Y-3029134D01*
X-4020385Y-2961833D01*
X-4001258Y-2903601D01*
X-3968949Y-2839322D01*
X-3874809Y-2708227D01*
X-3757550Y-2609560D01*
X-3622998Y-2545159D01*
X-3476979Y-2516861D01*
X-3325321Y-2526503D01*
G37*
X-3325321Y-2526503D02*
X-3173849Y-2575925D01*
X-3158062Y-2583562D01*
X-3022388Y-2670770D01*
X-2923003Y-2779296D01*
X-2859076Y-2910503D01*
X-2829775Y-3065750D01*
X-2827551Y-3124730D01*
X-2830608Y-3217958D01*
X-2843909Y-3290315D01*
X-2872274Y-3362915D01*
X-2890214Y-3399292D01*
X-2967086Y-3513036D01*
X-3068495Y-3610196D01*
X-3182595Y-3680473D01*
X-3237688Y-3701423D01*
X-3339494Y-3719338D01*
X-3459631Y-3722108D01*
X-3577119Y-3710255D01*
X-3653677Y-3691104D01*
X-3770308Y-3629387D01*
X-3876919Y-3534065D01*
X-3963902Y-3413859D01*
X-3968949Y-3404845D01*
X-4001755Y-3339410D01*
X-4020644Y-3281159D01*
X-4029274Y-3213515D01*
X-4031300Y-3122084D01*
X-4029181Y-3029134D01*
X-4020385Y-2961833D01*
X-4001258Y-2903601D01*
X-3968949Y-2839322D01*
X-3874809Y-2708227D01*
X-3757550Y-2609560D01*
X-3622998Y-2545159D01*
X-3476979Y-2516861D01*
X-3325321Y-2526503D01*
G36*
X-1738027Y-2526482D02*
G01*
X-1586536Y-2575840D01*
X-1570492Y-2583597D01*
X-1435300Y-2671373D01*
X-1335695Y-2781977D01*
X-1271452Y-2915773D01*
X-1242351Y-3073124D01*
X-1240441Y-3124730D01*
X-1243183Y-3217480D01*
X-1256069Y-3289234D01*
X-1283858Y-3360984D01*
X-1302714Y-3399292D01*
X-1379586Y-3513036D01*
X-1480995Y-3610196D01*
X-1595095Y-3680473D01*
X-1650188Y-3701423D01*
X-1751994Y-3719338D01*
X-1872131Y-3722108D01*
X-1989619Y-3710255D01*
X-2066177Y-3691104D01*
X-2182699Y-3629451D01*
X-2289453Y-3534122D01*
X-2376890Y-3413772D01*
X-2381924Y-3404845D01*
X-2414797Y-3340034D01*
X-2433712Y-3282893D01*
X-2442286Y-3216976D01*
X-2444137Y-3125838D01*
X-2444124Y-3122084D01*
X-2441587Y-3028628D01*
X-2432330Y-2960721D01*
X-2412648Y-2901685D01*
X-2381299Y-2839322D01*
X-2287349Y-2708281D01*
X-2170203Y-2609633D01*
X-2035705Y-2545222D01*
X-1889698Y-2516891D01*
X-1738027Y-2526482D01*
G37*
X-1738027Y-2526482D02*
X-1586536Y-2575840D01*
X-1570492Y-2583597D01*
X-1435300Y-2671373D01*
X-1335695Y-2781977D01*
X-1271452Y-2915773D01*
X-1242351Y-3073124D01*
X-1240441Y-3124730D01*
X-1243183Y-3217480D01*
X-1256069Y-3289234D01*
X-1283858Y-3360984D01*
X-1302714Y-3399292D01*
X-1379586Y-3513036D01*
X-1480995Y-3610196D01*
X-1595095Y-3680473D01*
X-1650188Y-3701423D01*
X-1751994Y-3719338D01*
X-1872131Y-3722108D01*
X-1989619Y-3710255D01*
X-2066177Y-3691104D01*
X-2182699Y-3629451D01*
X-2289453Y-3534122D01*
X-2376890Y-3413772D01*
X-2381924Y-3404845D01*
X-2414797Y-3340034D01*
X-2433712Y-3282893D01*
X-2442286Y-3216976D01*
X-2444137Y-3125838D01*
X-2444124Y-3122084D01*
X-2441587Y-3028628D01*
X-2432330Y-2960721D01*
X-2412648Y-2901685D01*
X-2381299Y-2839322D01*
X-2287349Y-2708281D01*
X-2170203Y-2609633D01*
X-2035705Y-2545222D01*
X-1889698Y-2516891D01*
X-1738027Y-2526482D01*
G36*
X-149454Y-2526648D02*
G01*
X2080Y-2576362D01*
X17008Y-2583597D01*
X152200Y-2671373D01*
X251805Y-2781977D01*
X316048Y-2915773D01*
X345149Y-3073124D01*
X347059Y-3124730D01*
X344317Y-3217480D01*
X331431Y-3289234D01*
X303642Y-3360984D01*
X284786Y-3399292D01*
X207914Y-3513036D01*
X106505Y-3610196D01*
X-7595Y-3680473D01*
X-62688Y-3701423D01*
X-164494Y-3719338D01*
X-284631Y-3722108D01*
X-402119Y-3710255D01*
X-478677Y-3691104D01*
X-589995Y-3632756D01*
X-694375Y-3543711D01*
X-779384Y-3435245D01*
X-799479Y-3400168D01*
X-830190Y-3334034D01*
X-847679Y-3271410D01*
X-855396Y-3195575D01*
X-856841Y-3122084D01*
X-855019Y-3029665D01*
X-846593Y-2963003D01*
X-827927Y-2905626D01*
X-795386Y-2841060D01*
X-794424Y-2839322D01*
X-699649Y-2708004D01*
X-582007Y-2609263D01*
X-447255Y-2544913D01*
X-301151Y-2516770D01*
X-149454Y-2526648D01*
G37*
X-149454Y-2526648D02*
X2080Y-2576362D01*
X17008Y-2583597D01*
X152200Y-2671373D01*
X251805Y-2781977D01*
X316048Y-2915773D01*
X345149Y-3073124D01*
X347059Y-3124730D01*
X344317Y-3217480D01*
X331431Y-3289234D01*
X303642Y-3360984D01*
X284786Y-3399292D01*
X207914Y-3513036D01*
X106505Y-3610196D01*
X-7595Y-3680473D01*
X-62688Y-3701423D01*
X-164494Y-3719338D01*
X-284631Y-3722108D01*
X-402119Y-3710255D01*
X-478677Y-3691104D01*
X-589995Y-3632756D01*
X-694375Y-3543711D01*
X-779384Y-3435245D01*
X-799479Y-3400168D01*
X-830190Y-3334034D01*
X-847679Y-3271410D01*
X-855396Y-3195575D01*
X-856841Y-3122084D01*
X-855019Y-3029665D01*
X-846593Y-2963003D01*
X-827927Y-2905626D01*
X-795386Y-2841060D01*
X-794424Y-2839322D01*
X-699649Y-2708004D01*
X-582007Y-2609263D01*
X-447255Y-2544913D01*
X-301151Y-2516770D01*
X-149454Y-2526648D01*
G36*
X1438046Y-2526648D02*
G01*
X1589580Y-2576362D01*
X1604508Y-2583597D01*
X1739700Y-2671373D01*
X1839305Y-2781977D01*
X1903548Y-2915773D01*
X1932649Y-3073124D01*
X1934559Y-3124730D01*
X1931817Y-3217480D01*
X1918931Y-3289234D01*
X1891142Y-3360984D01*
X1872286Y-3399292D01*
X1795414Y-3513036D01*
X1694005Y-3610196D01*
X1579905Y-3680473D01*
X1524812Y-3701423D01*
X1423006Y-3719338D01*
X1302869Y-3722108D01*
X1185381Y-3710255D01*
X1108823Y-3691104D01*
X997505Y-3632756D01*
X893125Y-3543711D01*
X808116Y-3435245D01*
X788021Y-3400168D01*
X757310Y-3334034D01*
X739821Y-3271410D01*
X732104Y-3195575D01*
X730659Y-3122084D01*
X732481Y-3029665D01*
X740907Y-2963003D01*
X759573Y-2905626D01*
X792114Y-2841060D01*
X793076Y-2839322D01*
X887851Y-2708004D01*
X1005493Y-2609263D01*
X1140245Y-2544913D01*
X1286349Y-2516770D01*
X1438046Y-2526648D01*
G37*
X1438046Y-2526648D02*
X1589580Y-2576362D01*
X1604508Y-2583597D01*
X1739700Y-2671373D01*
X1839305Y-2781977D01*
X1903548Y-2915773D01*
X1932649Y-3073124D01*
X1934559Y-3124730D01*
X1931817Y-3217480D01*
X1918931Y-3289234D01*
X1891142Y-3360984D01*
X1872286Y-3399292D01*
X1795414Y-3513036D01*
X1694005Y-3610196D01*
X1579905Y-3680473D01*
X1524812Y-3701423D01*
X1423006Y-3719338D01*
X1302869Y-3722108D01*
X1185381Y-3710255D01*
X1108823Y-3691104D01*
X997505Y-3632756D01*
X893125Y-3543711D01*
X808116Y-3435245D01*
X788021Y-3400168D01*
X757310Y-3334034D01*
X739821Y-3271410D01*
X732104Y-3195575D01*
X730659Y-3122084D01*
X732481Y-3029665D01*
X740907Y-2963003D01*
X759573Y-2905626D01*
X792114Y-2841060D01*
X793076Y-2839322D01*
X887851Y-2708004D01*
X1005493Y-2609263D01*
X1140245Y-2544913D01*
X1286349Y-2516770D01*
X1438046Y-2526648D01*
G36*
X381000Y2963333D02*
G01*
X-656166Y2963333D01*
X-861199Y2963192D01*
X-1052775Y2962786D01*
X-1226847Y2962145D01*
X-1379367Y2961295D01*
X-1506287Y2960265D01*
X-1603557Y2959082D01*
X-1667131Y2957775D01*
X-1692959Y2956371D01*
X-1693333Y2956179D01*
X-1696230Y2934263D01*
X-1704443Y2875504D01*
X-1717251Y2784958D01*
X-1733938Y2667685D01*
X-1753783Y2528741D01*
X-1776067Y2373183D01*
X-1788596Y2285913D01*
X-1811620Y2123565D01*
X-1832104Y1975076D01*
X-1849395Y1845514D01*
X-1862838Y1739949D01*
X-1871780Y1663449D01*
X-1875566Y1621084D01*
X-1875262Y1614207D01*
X-1854081Y1619368D01*
X-1809947Y1642181D01*
X-1781940Y1659096D01*
X-1674911Y1717144D01*
X-1543447Y1774155D01*
X-1404998Y1822965D01*
X-1331983Y1843775D01*
X-1228031Y1861422D01*
X-1095318Y1870774D01*
X-946533Y1872124D01*
X-794370Y1865766D01*
X-651518Y1851991D01*
X-530669Y1831094D01*
X-504962Y1824678D01*
X-266796Y1739058D01*
X-50266Y1618252D01*
X142141Y1464832D01*
X307939Y1281364D01*
X444642Y1070420D01*
X549762Y834568D01*
X595139Y687916D01*
X619178Y562180D01*
X634800Y408006D01*
X641855Y238477D01*
X640189Y66674D01*
X629652Y-94320D01*
X610092Y-231425D01*
X606015Y-250720D01*
X532198Y-504842D01*
X429312Y-731438D01*
X294068Y-936561D01*
X138501Y-1111250D01*
X-44949Y-1272782D01*
X-234862Y-1398205D01*
X-436985Y-1489721D01*
X-657067Y-1549535D01*
X-900856Y-1579848D01*
X-1096759Y-1584618D01*
X-1203984Y-1582832D01*
X-1299910Y-1580073D01*
X-1374350Y-1576710D01*
X-1417117Y-1573113D01*
X-1418166Y-1572946D01*
X-1521972Y-1551536D01*
X-1643260Y-1520243D01*
X-1765453Y-1483864D01*
X-1871969Y-1447193D01*
X-1919326Y-1427993D01*
X-2105433Y-1322979D01*
X-2273718Y-1182064D01*
X-2421577Y-1008851D01*
X-2546404Y-806942D01*
X-2645595Y-579940D01*
X-2716545Y-331448D01*
X-2718402Y-322792D01*
X-2746497Y-190500D01*
X-2102201Y-190500D01*
X-2075280Y-280459D01*
X-2012005Y-441276D01*
X-1923582Y-594199D01*
X-1816891Y-730221D01*
X-1698815Y-840332D01*
X-1598126Y-905072D01*
X-1470904Y-960173D01*
X-1340671Y-994961D01*
X-1193568Y-1012357D01*
X-1072649Y-1015749D01*
X-852377Y-998120D01*
X-653342Y-945401D01*
X-477379Y-858680D01*
X-326324Y-739044D01*
X-202012Y-587580D01*
X-128740Y-456549D01*
X-90986Y-366815D01*
X-57038Y-270573D01*
X-40161Y-211667D01*
X-23503Y-108306D01*
X-14753Y22123D01*
X-13737Y165131D01*
X-20283Y306231D01*
X-34218Y430936D01*
X-48660Y502172D01*
X-123449Y709802D01*
X-229334Y890342D01*
X-363561Y1041651D01*
X-523377Y1161589D01*
X-706029Y1248018D01*
X-908762Y1298795D01*
X-1091082Y1312333D01*
X-1298773Y1294008D01*
X-1490087Y1238099D01*
X-1668370Y1143207D01*
X-1836974Y1007932D01*
X-1850538Y994942D01*
X-2003455Y846666D01*
X-2292894Y846666D01*
X-2408397Y846884D01*
X-2488140Y848261D01*
X-2538697Y851885D01*
X-2566641Y858843D01*
X-2578545Y870222D01*
X-2580984Y887110D01*
X-2580825Y894291D01*
X-2577708Y923185D01*
X-2569235Y990300D01*
X-2555904Y1091932D01*
X-2538217Y1224377D01*
X-2516674Y1383930D01*
X-2491777Y1566887D01*
X-2464024Y1769543D01*
X-2433918Y1988194D01*
X-2401959Y2219135D01*
X-2395616Y2264833D01*
X-2211916Y3587750D01*
X-915458Y3593204D01*
X381000Y3598659D01*
X381000Y2963333D01*
G37*
X381000Y2963333D02*
X-656166Y2963333D01*
X-861199Y2963192D01*
X-1052775Y2962786D01*
X-1226847Y2962145D01*
X-1379367Y2961295D01*
X-1506287Y2960265D01*
X-1603557Y2959082D01*
X-1667131Y2957775D01*
X-1692959Y2956371D01*
X-1693333Y2956179D01*
X-1696230Y2934263D01*
X-1704443Y2875504D01*
X-1717251Y2784958D01*
X-1733938Y2667685D01*
X-1753783Y2528741D01*
X-1776067Y2373183D01*
X-1788596Y2285913D01*
X-1811620Y2123565D01*
X-1832104Y1975076D01*
X-1849395Y1845514D01*
X-1862838Y1739949D01*
X-1871780Y1663449D01*
X-1875566Y1621084D01*
X-1875262Y1614207D01*
X-1854081Y1619368D01*
X-1809947Y1642181D01*
X-1781940Y1659096D01*
X-1674911Y1717144D01*
X-1543447Y1774155D01*
X-1404998Y1822965D01*
X-1331983Y1843775D01*
X-1228031Y1861422D01*
X-1095318Y1870774D01*
X-946533Y1872124D01*
X-794370Y1865766D01*
X-651518Y1851991D01*
X-530669Y1831094D01*
X-504962Y1824678D01*
X-266796Y1739058D01*
X-50266Y1618252D01*
X142141Y1464832D01*
X307939Y1281364D01*
X444642Y1070420D01*
X549762Y834568D01*
X595139Y687916D01*
X619178Y562180D01*
X634800Y408006D01*
X641855Y238477D01*
X640189Y66674D01*
X629652Y-94320D01*
X610092Y-231425D01*
X606015Y-250720D01*
X532198Y-504842D01*
X429312Y-731438D01*
X294068Y-936561D01*
X138501Y-1111250D01*
X-44949Y-1272782D01*
X-234862Y-1398205D01*
X-436985Y-1489721D01*
X-657067Y-1549535D01*
X-900856Y-1579848D01*
X-1096759Y-1584618D01*
X-1203984Y-1582832D01*
X-1299910Y-1580073D01*
X-1374350Y-1576710D01*
X-1417117Y-1573113D01*
X-1418166Y-1572946D01*
X-1521972Y-1551536D01*
X-1643260Y-1520243D01*
X-1765453Y-1483864D01*
X-1871969Y-1447193D01*
X-1919326Y-1427993D01*
X-2105433Y-1322979D01*
X-2273718Y-1182064D01*
X-2421577Y-1008851D01*
X-2546404Y-806942D01*
X-2645595Y-579940D01*
X-2716545Y-331448D01*
X-2718402Y-322792D01*
X-2746497Y-190500D01*
X-2102201Y-190500D01*
X-2075280Y-280459D01*
X-2012005Y-441276D01*
X-1923582Y-594199D01*
X-1816891Y-730221D01*
X-1698815Y-840332D01*
X-1598126Y-905072D01*
X-1470904Y-960173D01*
X-1340671Y-994961D01*
X-1193568Y-1012357D01*
X-1072649Y-1015749D01*
X-852377Y-998120D01*
X-653342Y-945401D01*
X-477379Y-858680D01*
X-326324Y-739044D01*
X-202012Y-587580D01*
X-128740Y-456549D01*
X-90986Y-366815D01*
X-57038Y-270573D01*
X-40161Y-211667D01*
X-23503Y-108306D01*
X-14753Y22123D01*
X-13737Y165131D01*
X-20283Y306231D01*
X-34218Y430936D01*
X-48660Y502172D01*
X-123449Y709802D01*
X-229334Y890342D01*
X-363561Y1041651D01*
X-523377Y1161589D01*
X-706029Y1248018D01*
X-908762Y1298795D01*
X-1091082Y1312333D01*
X-1298773Y1294008D01*
X-1490087Y1238099D01*
X-1668370Y1143207D01*
X-1836974Y1007932D01*
X-1850538Y994942D01*
X-2003455Y846666D01*
X-2292894Y846666D01*
X-2408397Y846884D01*
X-2488140Y848261D01*
X-2538697Y851885D01*
X-2566641Y858843D01*
X-2578545Y870222D01*
X-2580984Y887110D01*
X-2580825Y894291D01*
X-2577708Y923185D01*
X-2569235Y990300D01*
X-2555904Y1091932D01*
X-2538217Y1224377D01*
X-2516674Y1383930D01*
X-2491777Y1566887D01*
X-2464024Y1769543D01*
X-2433918Y1988194D01*
X-2401959Y2219135D01*
X-2395616Y2264833D01*
X-2211916Y3587750D01*
X-915458Y3593204D01*
X381000Y3598659D01*
X381000Y2963333D01*
M02*
