G04 #@! TF.GenerationSoftware,KiCad,Pcbnew,5.1.5+dfsg1-2build2*
G04 #@! TF.CreationDate,2021-04-24T08:30:23-04:00*
G04 #@! TF.ProjectId,longest_road_card,6c6f6e67-6573-4745-9f72-6f61645f6361,rev?*
G04 #@! TF.SameCoordinates,Original*
G04 #@! TF.FileFunction,Copper,L1,Top*
G04 #@! TF.FilePolarity,Positive*
%FSLAX46Y46*%
G04 Gerber Fmt 4.6, Leading zero omitted, Abs format (unit mm)*
G04 Created by KiCad (PCBNEW 5.1.5+dfsg1-2build2) date 2021-04-24 08:30:23*
%MOMM*%
%LPD*%
G04 APERTURE LIST*
%ADD10C,0.010000*%
G04 APERTURE END LIST*
D10*
G36*
X24158395Y23959976D02*
G01*
X24327521Y23922561D01*
X24467683Y23863248D01*
X24581946Y23780848D01*
X24673376Y23674167D01*
X24725971Y23583318D01*
X24774728Y23484417D01*
X24781462Y0D01*
X24781748Y-998279D01*
X24782033Y-1986866D01*
X24782316Y-2964893D01*
X24782597Y-3931494D01*
X24782875Y-4885801D01*
X24783150Y-5826946D01*
X24783423Y-6754064D01*
X24783692Y-7666285D01*
X24783957Y-8562744D01*
X24784218Y-9442573D01*
X24784475Y-10304905D01*
X24784728Y-11148872D01*
X24784976Y-11973608D01*
X24785219Y-12778245D01*
X24785457Y-13561916D01*
X24785689Y-14323754D01*
X24785916Y-15062892D01*
X24786136Y-15778462D01*
X24786350Y-16469597D01*
X24786558Y-17135431D01*
X24786758Y-17775096D01*
X24786952Y-18387724D01*
X24787138Y-18972448D01*
X24787316Y-19528403D01*
X24787487Y-20054719D01*
X24787649Y-20550530D01*
X24787803Y-21014969D01*
X24787948Y-21447168D01*
X24788084Y-21846261D01*
X24788210Y-22211380D01*
X24788327Y-22541657D01*
X24788435Y-22836227D01*
X24788532Y-23094221D01*
X24788619Y-23314773D01*
X24788695Y-23497014D01*
X24788760Y-23640079D01*
X24788814Y-23743099D01*
X24788856Y-23805208D01*
X24788877Y-23823083D01*
X24787014Y-23994166D01*
X24779896Y-24131012D01*
X24766386Y-24241514D01*
X24745346Y-24333567D01*
X24715640Y-24415067D01*
X24698232Y-24452229D01*
X24619911Y-24566388D01*
X24510291Y-24665351D01*
X24413525Y-24723672D01*
X24309916Y-24774556D01*
X836083Y-24779799D01*
X-161615Y-24780030D01*
X-1149514Y-24780274D01*
X-2126750Y-24780533D01*
X-3092459Y-24780804D01*
X-4045776Y-24781088D01*
X-4985837Y-24781383D01*
X-5911778Y-24781690D01*
X-6822735Y-24782008D01*
X-7717842Y-24782336D01*
X-8596236Y-24782674D01*
X-9457053Y-24783020D01*
X-10299428Y-24783376D01*
X-11122497Y-24783740D01*
X-11925396Y-24784111D01*
X-12707260Y-24784490D01*
X-13467225Y-24784875D01*
X-14204427Y-24785267D01*
X-14918001Y-24785664D01*
X-15607083Y-24786065D01*
X-16270809Y-24786472D01*
X-16908315Y-24786882D01*
X-17518735Y-24787296D01*
X-18101207Y-24787713D01*
X-18654865Y-24788132D01*
X-19178846Y-24788553D01*
X-19672285Y-24788976D01*
X-20134317Y-24789399D01*
X-20564079Y-24789823D01*
X-20960705Y-24790246D01*
X-21323333Y-24790669D01*
X-21651097Y-24791090D01*
X-21943133Y-24791510D01*
X-22198577Y-24791927D01*
X-22416565Y-24792342D01*
X-22596232Y-24792753D01*
X-22736714Y-24793160D01*
X-22837146Y-24793563D01*
X-22896665Y-24793961D01*
X-22912917Y-24794214D01*
X-23030630Y-24796406D01*
X-23146134Y-24795544D01*
X-23245943Y-24791904D01*
X-23315084Y-24785971D01*
X-23502805Y-24743409D01*
X-23660583Y-24671455D01*
X-23788007Y-24570373D01*
X-23884666Y-24440428D01*
X-23901899Y-24407715D01*
X-23950084Y-24309916D01*
X-23954300Y-910166D01*
X-23954491Y86251D01*
X-23954701Y1072959D01*
X-23954931Y2049088D01*
X-23955179Y3013771D01*
X-23955445Y3966140D01*
X-23955729Y4905325D01*
X-23956030Y5830460D01*
X-23956347Y6740674D01*
X-23956679Y7635101D01*
X-23957027Y8512872D01*
X-23957389Y9373119D01*
X-23957765Y10214972D01*
X-23958154Y11037565D01*
X-23958555Y11840028D01*
X-23958969Y12621494D01*
X-23959394Y13381094D01*
X-23959830Y14117959D01*
X-23960277Y14831222D01*
X-23960733Y15520014D01*
X-23961197Y16183467D01*
X-23961671Y16820712D01*
X-23962152Y17430882D01*
X-23962640Y18013107D01*
X-23963136Y18566520D01*
X-23963637Y19090253D01*
X-23964143Y19583436D01*
X-23964655Y20045202D01*
X-23965170Y20474683D01*
X-23965689Y20871009D01*
X-23966212Y21233314D01*
X-23966736Y21560727D01*
X-23967263Y21852383D01*
X-23967790Y22107411D01*
X-23968319Y22324943D01*
X-23968847Y22504112D01*
X-23969375Y22644049D01*
X-23969901Y22743885D01*
X-23970426Y22802753D01*
X-23970725Y22817667D01*
X-23975059Y23023344D01*
X-23970739Y23194069D01*
X-23956937Y23336494D01*
X-23932828Y23457268D01*
X-23897585Y23563044D01*
X-23870790Y23622000D01*
X-23784725Y23754678D01*
X-23675350Y23852872D01*
X-23539323Y23919428D01*
X-23510732Y23928570D01*
X-23502206Y23930245D01*
X-23487621Y23931862D01*
X-23466257Y23933421D01*
X-23437391Y23934925D01*
X-23400302Y23936374D01*
X-23354269Y23937768D01*
X-23298571Y23939110D01*
X-23232485Y23940399D01*
X-23155290Y23941638D01*
X-23066265Y23942826D01*
X-22964688Y23943965D01*
X-22849837Y23945056D01*
X-22720992Y23946100D01*
X-22577431Y23947098D01*
X-22418432Y23948050D01*
X-22243274Y23948958D01*
X-22051235Y23949823D01*
X-21841594Y23950646D01*
X-21613629Y23951427D01*
X-21366619Y23952168D01*
X-21099842Y23952870D01*
X-20812577Y23953533D01*
X-20504102Y23954159D01*
X-20173697Y23954749D01*
X-19820638Y23955303D01*
X-19444206Y23955823D01*
X-19043678Y23956309D01*
X-18618332Y23956762D01*
X-18167449Y23957184D01*
X-17690305Y23957576D01*
X-17186179Y23957938D01*
X-16654351Y23958271D01*
X-16094097Y23958577D01*
X-15504698Y23958856D01*
X-14885432Y23959110D01*
X-14235576Y23959339D01*
X-13554410Y23959544D01*
X-12841211Y23959726D01*
X-12095260Y23959887D01*
X-11315833Y23960027D01*
X-10502210Y23960147D01*
X-9653669Y23960248D01*
X-8769488Y23960332D01*
X-7848947Y23960398D01*
X-6891323Y23960449D01*
X-5895895Y23960485D01*
X-4861941Y23960507D01*
X-3788741Y23960516D01*
X-2675573Y23960513D01*
X-1521714Y23960499D01*
X-326444Y23960475D01*
X13132Y23960467D01*
X1009668Y23960454D01*
X1996436Y23960467D01*
X2972569Y23960504D01*
X3937201Y23960566D01*
X4889467Y23960651D01*
X5828499Y23960759D01*
X6753431Y23960890D01*
X7663398Y23961043D01*
X8557532Y23961218D01*
X9434967Y23961414D01*
X10294838Y23961631D01*
X11136277Y23961868D01*
X11958418Y23962124D01*
X12760396Y23962400D01*
X13541343Y23962695D01*
X14300394Y23963008D01*
X15036681Y23963339D01*
X15749340Y23963687D01*
X16437503Y23964052D01*
X17100304Y23964434D01*
X17736877Y23964831D01*
X18346355Y23965243D01*
X18927873Y23965670D01*
X19480563Y23966112D01*
X20003560Y23966568D01*
X20495997Y23967036D01*
X20957008Y23967518D01*
X21385726Y23968012D01*
X21781286Y23968518D01*
X22142821Y23969036D01*
X22469464Y23969564D01*
X22760349Y23970103D01*
X23014610Y23970652D01*
X23231381Y23971210D01*
X23409796Y23971778D01*
X23548987Y23972353D01*
X23648088Y23972937D01*
X23706235Y23973528D01*
X23720982Y23973880D01*
X23957237Y23976685D01*
X24158395Y23959976D01*
G37*
X24158395Y23959976D02*
X24327521Y23922561D01*
X24467683Y23863248D01*
X24581946Y23780848D01*
X24673376Y23674167D01*
X24725971Y23583318D01*
X24774728Y23484417D01*
X24781462Y0D01*
X24781748Y-998279D01*
X24782033Y-1986866D01*
X24782316Y-2964893D01*
X24782597Y-3931494D01*
X24782875Y-4885801D01*
X24783150Y-5826946D01*
X24783423Y-6754064D01*
X24783692Y-7666285D01*
X24783957Y-8562744D01*
X24784218Y-9442573D01*
X24784475Y-10304905D01*
X24784728Y-11148872D01*
X24784976Y-11973608D01*
X24785219Y-12778245D01*
X24785457Y-13561916D01*
X24785689Y-14323754D01*
X24785916Y-15062892D01*
X24786136Y-15778462D01*
X24786350Y-16469597D01*
X24786558Y-17135431D01*
X24786758Y-17775096D01*
X24786952Y-18387724D01*
X24787138Y-18972448D01*
X24787316Y-19528403D01*
X24787487Y-20054719D01*
X24787649Y-20550530D01*
X24787803Y-21014969D01*
X24787948Y-21447168D01*
X24788084Y-21846261D01*
X24788210Y-22211380D01*
X24788327Y-22541657D01*
X24788435Y-22836227D01*
X24788532Y-23094221D01*
X24788619Y-23314773D01*
X24788695Y-23497014D01*
X24788760Y-23640079D01*
X24788814Y-23743099D01*
X24788856Y-23805208D01*
X24788877Y-23823083D01*
X24787014Y-23994166D01*
X24779896Y-24131012D01*
X24766386Y-24241514D01*
X24745346Y-24333567D01*
X24715640Y-24415067D01*
X24698232Y-24452229D01*
X24619911Y-24566388D01*
X24510291Y-24665351D01*
X24413525Y-24723672D01*
X24309916Y-24774556D01*
X836083Y-24779799D01*
X-161615Y-24780030D01*
X-1149514Y-24780274D01*
X-2126750Y-24780533D01*
X-3092459Y-24780804D01*
X-4045776Y-24781088D01*
X-4985837Y-24781383D01*
X-5911778Y-24781690D01*
X-6822735Y-24782008D01*
X-7717842Y-24782336D01*
X-8596236Y-24782674D01*
X-9457053Y-24783020D01*
X-10299428Y-24783376D01*
X-11122497Y-24783740D01*
X-11925396Y-24784111D01*
X-12707260Y-24784490D01*
X-13467225Y-24784875D01*
X-14204427Y-24785267D01*
X-14918001Y-24785664D01*
X-15607083Y-24786065D01*
X-16270809Y-24786472D01*
X-16908315Y-24786882D01*
X-17518735Y-24787296D01*
X-18101207Y-24787713D01*
X-18654865Y-24788132D01*
X-19178846Y-24788553D01*
X-19672285Y-24788976D01*
X-20134317Y-24789399D01*
X-20564079Y-24789823D01*
X-20960705Y-24790246D01*
X-21323333Y-24790669D01*
X-21651097Y-24791090D01*
X-21943133Y-24791510D01*
X-22198577Y-24791927D01*
X-22416565Y-24792342D01*
X-22596232Y-24792753D01*
X-22736714Y-24793160D01*
X-22837146Y-24793563D01*
X-22896665Y-24793961D01*
X-22912917Y-24794214D01*
X-23030630Y-24796406D01*
X-23146134Y-24795544D01*
X-23245943Y-24791904D01*
X-23315084Y-24785971D01*
X-23502805Y-24743409D01*
X-23660583Y-24671455D01*
X-23788007Y-24570373D01*
X-23884666Y-24440428D01*
X-23901899Y-24407715D01*
X-23950084Y-24309916D01*
X-23954300Y-910166D01*
X-23954491Y86251D01*
X-23954701Y1072959D01*
X-23954931Y2049088D01*
X-23955179Y3013771D01*
X-23955445Y3966140D01*
X-23955729Y4905325D01*
X-23956030Y5830460D01*
X-23956347Y6740674D01*
X-23956679Y7635101D01*
X-23957027Y8512872D01*
X-23957389Y9373119D01*
X-23957765Y10214972D01*
X-23958154Y11037565D01*
X-23958555Y11840028D01*
X-23958969Y12621494D01*
X-23959394Y13381094D01*
X-23959830Y14117959D01*
X-23960277Y14831222D01*
X-23960733Y15520014D01*
X-23961197Y16183467D01*
X-23961671Y16820712D01*
X-23962152Y17430882D01*
X-23962640Y18013107D01*
X-23963136Y18566520D01*
X-23963637Y19090253D01*
X-23964143Y19583436D01*
X-23964655Y20045202D01*
X-23965170Y20474683D01*
X-23965689Y20871009D01*
X-23966212Y21233314D01*
X-23966736Y21560727D01*
X-23967263Y21852383D01*
X-23967790Y22107411D01*
X-23968319Y22324943D01*
X-23968847Y22504112D01*
X-23969375Y22644049D01*
X-23969901Y22743885D01*
X-23970426Y22802753D01*
X-23970725Y22817667D01*
X-23975059Y23023344D01*
X-23970739Y23194069D01*
X-23956937Y23336494D01*
X-23932828Y23457268D01*
X-23897585Y23563044D01*
X-23870790Y23622000D01*
X-23784725Y23754678D01*
X-23675350Y23852872D01*
X-23539323Y23919428D01*
X-23510732Y23928570D01*
X-23502206Y23930245D01*
X-23487621Y23931862D01*
X-23466257Y23933421D01*
X-23437391Y23934925D01*
X-23400302Y23936374D01*
X-23354269Y23937768D01*
X-23298571Y23939110D01*
X-23232485Y23940399D01*
X-23155290Y23941638D01*
X-23066265Y23942826D01*
X-22964688Y23943965D01*
X-22849837Y23945056D01*
X-22720992Y23946100D01*
X-22577431Y23947098D01*
X-22418432Y23948050D01*
X-22243274Y23948958D01*
X-22051235Y23949823D01*
X-21841594Y23950646D01*
X-21613629Y23951427D01*
X-21366619Y23952168D01*
X-21099842Y23952870D01*
X-20812577Y23953533D01*
X-20504102Y23954159D01*
X-20173697Y23954749D01*
X-19820638Y23955303D01*
X-19444206Y23955823D01*
X-19043678Y23956309D01*
X-18618332Y23956762D01*
X-18167449Y23957184D01*
X-17690305Y23957576D01*
X-17186179Y23957938D01*
X-16654351Y23958271D01*
X-16094097Y23958577D01*
X-15504698Y23958856D01*
X-14885432Y23959110D01*
X-14235576Y23959339D01*
X-13554410Y23959544D01*
X-12841211Y23959726D01*
X-12095260Y23959887D01*
X-11315833Y23960027D01*
X-10502210Y23960147D01*
X-9653669Y23960248D01*
X-8769488Y23960332D01*
X-7848947Y23960398D01*
X-6891323Y23960449D01*
X-5895895Y23960485D01*
X-4861941Y23960507D01*
X-3788741Y23960516D01*
X-2675573Y23960513D01*
X-1521714Y23960499D01*
X-326444Y23960475D01*
X13132Y23960467D01*
X1009668Y23960454D01*
X1996436Y23960467D01*
X2972569Y23960504D01*
X3937201Y23960566D01*
X4889467Y23960651D01*
X5828499Y23960759D01*
X6753431Y23960890D01*
X7663398Y23961043D01*
X8557532Y23961218D01*
X9434967Y23961414D01*
X10294838Y23961631D01*
X11136277Y23961868D01*
X11958418Y23962124D01*
X12760396Y23962400D01*
X13541343Y23962695D01*
X14300394Y23963008D01*
X15036681Y23963339D01*
X15749340Y23963687D01*
X16437503Y23964052D01*
X17100304Y23964434D01*
X17736877Y23964831D01*
X18346355Y23965243D01*
X18927873Y23965670D01*
X19480563Y23966112D01*
X20003560Y23966568D01*
X20495997Y23967036D01*
X20957008Y23967518D01*
X21385726Y23968012D01*
X21781286Y23968518D01*
X22142821Y23969036D01*
X22469464Y23969564D01*
X22760349Y23970103D01*
X23014610Y23970652D01*
X23231381Y23971210D01*
X23409796Y23971778D01*
X23548987Y23972353D01*
X23648088Y23972937D01*
X23706235Y23973528D01*
X23720982Y23973880D01*
X23957237Y23976685D01*
X24158395Y23959976D01*
M02*
