<?xml version="1.0" encoding="UTF-8" standalone="no"?>
<svg
   xmlns:dc="http://purl.org/dc/elements/1.1/"
   xmlns:cc="http://creativecommons.org/ns#"
   xmlns:rdf="http://www.w3.org/1999/02/22-rdf-syntax-ns#"
   xmlns:svg="http://www.w3.org/2000/svg"
   xmlns="http://www.w3.org/2000/svg"
   xmlns:sodipodi="http://sodipodi.sourceforge.net/DTD/sodipodi-0.dtd"
   xmlns:inkscape="http://www.inkscape.org/namespaces/inkscape"
   width="70.0mm"
   height="70.0mm"
   viewBox="0 0 70.0 70.0"
   version="1.1"
   id="svg8"
   sodipodi:docname="longest_road_card.svg"
   inkscape:version="1.0.2 (394de47547, 2021-03-26)">
  <defs
     id="defs2" />
  <sodipodi:namedview
     id="base"
     pagecolor="#ffffff"
     bordercolor="#666666"
     borderopacity="1.0"
     inkscape:pageopacity="0.0"
     inkscape:pageshadow="2"
     inkscape:zoom="3.5605357"
     inkscape:cx="132.28346"
     inkscape:cy="132.28346"
     inkscape:document-units="mm"
     inkscape:current-layer="g844"
     inkscape:document-rotation="0"
     showgrid="false"
     inkscape:window-width="2056"
     inkscape:window-height="1133"
     inkscape:window-x="72"
     inkscape:window-y="27"
     inkscape:window-maximized="1" />
  <metadata
     id="metadata5">
    <rdf:RDF>
      <cc:Work
         rdf:about="">
        <dc:format>image/svg+xml</dc:format>
        <dc:type
           rdf:resource="http://purl.org/dc/dcmitype/StillImage" />
        <dc:title />
      </cc:Work>
    </rdf:RDF>
  </metadata>
  <g
     inkscape:label="[fixed] BG"
     inkscape:groupmode="layer"
     sodipodi:insensitive="true"
     id="g840"
     style="display:none">
    <rect
       x="0"
       y="0"
       width="70"
       height="70"
       style="fill:#ffffff;fill-opacity:1;stroke:none"
       id="rect838" />
  </g>
  <g
     inkscape:label="Edge.Cuts"
     inkscape:groupmode="layer"
     id="g842"
     style="display:inline">
    <path
       id="rect866"
       style="fill:none;stroke:#000000;stroke-width:0.0798742;stroke-miterlimit:4;stroke-dasharray:none;stroke-opacity:1"
       d="M 11.6374 10.0399 L 59.1626 10.0399 L 59.3264 10.0481 L 59.4853 10.0723 L 59.6386 10.1115 L 59.7855 10.1651 L 59.9252 10.2322 L 60.0569 10.312 L 60.1799 10.4038 L 60.2932 10.5068 L 60.3962 10.6201 L 60.4879 10.743 L 60.5678 10.8747 L 60.6349 11.0144 L 60.6885 11.1613 L 60.7277 11.3147 L 60.7518 11.4736 L 60.76 11.6374 L 60.76 59.1626 L 60.7518 59.3264 L 60.7277 59.4853 L 60.6885 59.6386 L 60.6349 59.7855 L 60.5678 59.9252 L 60.4879 60.0569 L 60.3962 60.1798 L 60.2932 60.2932 L 60.1799 60.3961 L 60.0569 60.4879 L 59.9252 60.5678 L 59.7855 60.6349 L 59.6386 60.6885 L 59.4853 60.7277 L 59.3264 60.7518 L 59.1626 60.76 L 11.6374 60.76 L 11.4736 60.7518 L 11.3147 60.7277 L 11.1614 60.6885 L 11.0145 60.6349 L 10.8748 60.5678 L 10.743 60.4879 L 10.6201 60.3961 L 10.5068 60.2932 L 10.4038 60.1798 L 10.312 60.0569 L 10.2322 59.9252 L 10.1651 59.7855 L 10.1115 59.6386 L 10.0723 59.4853 L 10.0482 59.3264 L 10.04 59.1626 L 10.04 11.6374 L 10.0482 11.4736 L 10.0723 11.3147 L 10.1115 11.1614 L 10.1651 11.0145 L 10.2322 10.8748 L 10.312 10.743 L 10.4038 10.6201 L 10.5068 10.5068 L 10.6201 10.4038 L 10.743 10.312 L 10.8748 10.2322 L 11.0145 10.1651 L 11.1614 10.1115 L 11.3147 10.0723 L 11.4736 10.0482 L 11.6374 10.04 L 11.6374 10.04" />
  </g>
  <g
     inkscape:label="B.Cu"
     inkscape:groupmode="layer"
     id="g844"
     style="display:none">
    <path
       id="path854"
       style="display:inline;fill:#000000;fill-opacity:1;stroke:none;stroke-width:0.0798742;stroke-miterlimit:4;stroke-dasharray:none;stroke-opacity:1"
       d="m 11.587891,11.042969 c -0.853191,0.149692 -0.463267,1.225989 -0.548829,1.821093 0.0091,15.472794 -0.01823,30.947611 0.01367,46.419141 0.253904,0.800122 1.2818,0.367133 1.891797,0.476563 15.441484,-0.0065 30.884431,0.01303 46.325,-0.0098 0.788305,-0.207283 0.39893,-1.215565 0.490235,-1.79375 -0.0065,-15.478096 0.01303,-30.957463 -0.0098,-46.434766 -0.251967,-0.807628 -1.297456,-0.372841 -1.913281,-0.482422 -15.416243,0.0026 -30.832753,-0.0052 -46.248828,0.0039 z" />
  </g>
  <g
     inkscape:label="B.Mask-disabled"
     inkscape:groupmode="layer"
     id="g846" />
  <g
     inkscape:label="B.SilkS"
     inkscape:groupmode="layer"
     id="g848"
     style="display:inline">
    <g
       id="g861"
       transform="matrix(-0.79999999,0,0,0.79999999,63.400005,6.3317207)"
       style="display:inline">
      <path
         style="display:inline;fill:#000000;fill-opacity:1;stroke:none;stroke-width:0.268476"
         d="m 39.485645,63.787127 -0.480681,-0.05672 -0.0042,-0.188102 -0.0042,-0.188128 0.329523,-0.194922 c 0.181183,-0.10722 0.971913,-0.689279 1.757112,-1.29348 l 1.42765,-1.098529 3.309563,-0.109822 c 1.820277,-0.0604 3.885947,-0.09912 4.590401,-0.08602 l 1.28081,0.02376 -0.484689,0.575009 c -0.450822,0.534834 -1.80244,1.645367 -2.78988,2.292297 l -0.424631,0.278182 -4.012975,0.05159 c -2.207147,0.02837 -4.229269,0.02595 -4.493655,-0.0051 z m -8.367494,-0.0059 -2.04851,-0.01149 -0.0034,-0.145324 c -0.0028,-0.07994 0.192843,-0.276547 0.432619,-0.436913 0.239748,-0.160392 0.915218,-0.638297 1.500999,-1.062007 0.58578,-0.423709 1.215785,-0.879217 1.40002,-1.012204 l 0.334997,-0.241788 4.146438,-0.07772 4.146437,-0.07769 0.0031,0.144097 c 0.0031,0.135286 -1.060535,0.971671 -2.966974,2.333085 l -0.827843,0.591176 -2.034822,0.0043 c -1.119124,0.0025 -2.956645,0 -4.083332,-0.0074 z m -9.254405,-0.01609 -1.890212,-0.05172 0.399542,-0.339861 c 0.219738,-0.186929 0.902236,-0.653546 1.516662,-1.036953 0.614426,-0.383382 1.296445,-0.849999 1.51559,-1.036901 l 0.39847,-0.339861 3.639848,-0.08033 3.639848,-0.08032 0.202495,0.108059 0.202466,0.108061 -1.607368,1.126035 c -0.884061,0.619322 -1.798546,1.248195 -2.03217,1.397553 l -0.424801,0.271516 -1.835065,0.0033 c -1.009312,0.0025 -2.685683,-0.02018 -3.725305,-0.0485 z m -7.828817,0.02069 -1.874294,-0.01558 -0.0028,-0.123716 c -0.0028,-0.119885 2.971433,-2.06849 3.716584,-2.435015 l 0.368921,-0.181488 3.148274,-0.05821 3.148245,-0.05823 0.09336,0.130534 0.09333,0.130561 -0.295374,0.24281 c -0.162475,0.133549 -1.05139,0.727611 -1.975386,1.320141 l -1.679984,1.07733 -1.433266,-0.0066 c -0.788303,-0.0036 -2.276715,-0.01354 -3.30756,-0.02222 z m 2.934857,-3.153253 c 0,-0.03348 0.521378,-0.355441 1.160272,-0.715479 0.638923,-0.360039 1.575365,-0.918088 2.080994,-1.240123 l 0.919283,-0.585506 0.853722,-0.01609 0.853722,-0.01609 0.0031,0.134137 c 0.0028,0.07378 -0.812913,0.656967 -1.810258,1.295954 l -1.813306,1.161791 -1.123047,0.02094 c -0.617672,0.01149 -1.123668,-0.0064 -1.124458,-0.03982 z m 3.522303,-0.193491 0.06505,-0.18961 1.70688,-1.094161 1.70688,-1.094188 3.35266,-0.130764 3.352659,-0.13074 0.0031,0.129079 c 0.0031,0.133958 -2.17743,1.702424 -3.139666,2.258431 l -0.549261,0.317361 -3.281596,0.06229 -3.281596,0.06227 0.06505,-0.18961 z m 7.976193,-0.09539 -0.0034,-0.151274 1.158297,-0.801753 c 0.637088,-0.44095 1.466257,-0.995629 1.842629,-1.232615 l 0.684304,-0.430861 3.727139,-0.06985 3.727168,-0.06985 -0.208054,0.236654 c -0.114409,0.130165 -0.91022,0.730739 -1.768457,1.334608 l -1.560435,1.097967 -3.797837,0.119145 -3.797836,0.119144 -0.0034,-0.151299 z m 8.927056,-0.225698 c 0.0366,-0.106647 0.825867,-0.742594 1.753927,-1.4132 l 1.687378,-1.219282 4.152279,-0.125224 4.152279,-0.125222 0.0031,0.139628 c 0.0037,0.157632 -2.792081,2.313264 -3.371878,2.599901 l -0.376485,0.186161 -4.033604,0.0756 -4.033633,0.07557 0.06655,-0.193925 z m 9.71677,-0.14036 c -0.0028,-0.083 0.555301,-0.572608 1.238194,-1.088057 0.682893,-0.515424 1.394319,-1.066962 1.580924,-1.225668 0.39116,-0.332608 0.664718,-0.401005 2.040806,-0.510163 l 1.000534,-0.07937 0.0059,0.260303 c 0.0093,0.409893 -0.482289,1.946511 -0.749695,2.343071 l -0.242429,0.359477 -2.435408,0.04566 -2.435409,0.04564 -0.0034,-0.150891 z M 22.27421,57.320179 c 0.316992,-0.244112 1.003102,-0.789009 1.524733,-1.210931 l 0.948408,-0.767095 2.107128,-0.05016 c 1.158946,-0.02756 2.361297,-0.08499 2.671939,-0.127598 l 0.564755,-0.07749 0.0031,0.128849 c 0.0048,0.205802 -0.670701,0.730267 -2.038294,1.582769 l -1.271919,0.792866 -2.542991,0.0863 -2.542992,0.08628 0.576298,-0.44381 z m 5.845641,0.03678 c 0.04738,-0.07269 0.843505,-0.620445 1.769223,-1.21724 l 1.683088,-1.085069 3.438963,-0.167389 3.438991,-0.167415 -0.0034,0.143381 c -0.0037,0.148516 -0.925605,0.834139 -2.537065,1.886695 l -0.932463,0.609055 -3.471672,0.06508 -3.471672,0.06505 0.08613,-0.132144 z m 8.520571,-0.237063 -0.09531,-0.133293 0.14749,-0.12793 c 0.08114,-0.07036 0.796629,-0.57335 1.589983,-1.117762 l 1.442495,-0.98983 0.537633,-0.08362 c 0.295684,-0.04597 2.046027,-0.154339 3.889672,-0.240792 l 3.352066,-0.157174 0.0031,0.133498 c 0.0034,0.145477 -2.610386,2.144063 -3.169468,2.423573 l -0.344706,0.17232 -3.628786,0.127138 -3.628813,0.127163 -0.09531,-0.133293 z m 9.003933,-0.341241 c 0,-0.03568 0.700589,-0.593448 1.558685,-1.239459 l 1.560181,-1.174587 1.32938,-0.123512 c 0.731153,-0.06794 1.682552,-0.126832 2.114239,-0.130842 l 0.78486,-0.0071 0.08038,1.299938 0.08038,1.299963 -3.753301,0.07033 c -2.064343,0.0387 -3.753979,0.04115 -3.754798,0.0056 z M 25.381251,55.071096 c -0.0031,-0.0743 0.511132,-0.588469 1.143197,-1.142586 l 1.149266,-1.007479 1.396407,-0.02621 1.396407,-0.02615 -0.336888,0.301654 c -0.185307,0.165907 -0.867777,0.64011 -1.516606,1.053808 l -1.179717,0.75218 -0.749611,0.01405 c -0.41227,0.0077 -0.872631,0.05943 -1.022999,0.11493 l -0.273445,0.100883 -0.0059,-0.135081 z m 2.960709,-0.247355 -0.0039,-0.183634 1.578243,-0.974226 1.578271,-0.974225 1.057346,-0.02069 c 0.581547,-0.01149 1.938415,-0.08306 3.015262,-0.159473 l 1.957917,-0.138963 0.0037,0.157505 0.0034,0.157506 -1.562072,1.000072 -1.562072,1.000072 -1.072924,0.02094 c -0.590127,0.01149 -1.954022,0.08337 -3.030869,0.15978 l -1.957917,0.138963 -0.0042,-0.183659 z m 7.392641,-0.468635 c 0.0545,-0.08359 0.732734,-0.574141 1.507208,-1.090127 l 1.408148,-0.938111 3.28549,-0.192905 3.285462,-0.192904 0.11478,0.09966 0.114808,0.09968 -0.343267,0.223476 c -0.188778,0.122924 -0.829423,0.566836 -1.42367,0.986459 l -1.080431,0.762984 -0.816469,0.137482 -0.816497,0.137508 -2.667311,0.05938 -2.667282,0.05938 z m 7.930022,-0.29463 c -0.0034,-0.145936 0.282137,-0.37309 1.859731,-1.479766 l 0.920045,-0.645397 0.370868,-0.07501 c 0.203962,-0.04128 1.487368,-0.128952 2.852025,-0.194897 l 2.481157,-0.119885 0.06914,0.102161 c 0.03801,0.05619 0.122908,0.314117 0.188637,0.573195 l 0.119465,0.47101 -0.902829,0.585531 -0.9028,0.585532 -3.526113,0.16956 -3.526085,0.169535 -0.0031,-0.141568 z m 8.461699,-0.314628 -0.09641,-0.134877 0.316795,-0.270445 0.316794,-0.270469 0.115119,0.255529 0.115118,0.255503 -0.09468,0.145297 c -0.120199,0.184399 -0.545988,0.196709 -0.672734,0.01941 z m -24.537134,-1.346728 -0.0059,-0.254659 0.589167,-0.555727 c 0.324076,-0.305663 0.921343,-0.771028 1.32732,-1.034168 l 0.738124,-0.478442 1.130356,-0.11871 c 0.621707,-0.0653 1.948265,-0.149052 2.947924,-0.186085 l 1.81754,-0.06737 0.05729,0.147851 0.05729,0.147826 -1.209605,0.811434 c -0.665282,0.446312 -1.448788,0.975656 -1.741113,1.176349 l -0.531509,0.364917 -1.150366,0.02248 c -0.632686,0.01226 -1.796204,0.0802 -2.585551,0.150711 l -1.435213,0.128212 -0.0059,-0.25466 z m 6.65607,-0.424195 c 0.0679,-0.197884 0.923657,-0.831252 2.444609,-1.809335 l 0.858944,-0.552355 1.043375,-0.111533 c 0.573843,-0.06132 1.902291,-0.138095 2.952073,-0.170581 l 1.908725,-0.0591 0.05568,0.141338 0.05568,0.141339 -0.968135,0.645321 c -0.532468,0.354934 -1.235596,0.859299 -1.562522,1.120804 l -0.59436,0.475504 -1.852592,0.151964 c -1.018935,0.08357 -2.427506,0.167211 -3.130183,0.185881 l -1.277563,0.03392 z m 7.278653,-0.379295 c 0.0045,-0.109159 1.901726,-1.467992 3.125159,-2.238305 l 0.535517,-0.33718 2.274711,-0.07838 c 1.251119,-0.04314 2.436538,-0.117919 2.634319,-0.166215 l 0.359551,-0.08781 0.220613,0.230652 0.220585,0.230652 -1.425561,1.002626 c -0.784042,0.551435 -1.58115,1.058406 -1.77134,1.126573 l -0.345806,0.123997 -2.916287,0.155385 -2.916315,0.155412 0.0048,-0.117408 z m 7.477534,-0.467613 c -0.0031,-0.139092 1.845056,-1.480838 2.045039,-1.484593 0.06468,0 0.292241,0.306634 0.505657,0.68409 l 0.388056,0.686313 -0.102955,0.0971 -0.102983,0.09713 -1.364911,0.02557 -1.364911,0.02556 -0.0031,-0.1312 z m -19.840081,-1.948375 0.112268,-0.611148 0.285778,-0.210425 c 0.157198,-0.115722 0.519514,-0.352478 0.80518,-0.526151 l 0.519402,-0.315726 2.563932,-0.158246 2.563933,-0.158246 0.0034,0.147085 0.0034,0.147086 -1.434733,1.003928 -1.434734,1.003929 -2.050034,0.144531 -2.050006,0.144557 0.112268,-0.611174 z m 4.980827,0.110614 -0.0045,-0.2022 1.408571,-0.962759 1.408599,-0.962758 1.834417,-0.150558 c 1.008944,-0.08281 2.20678,-0.162027 2.661891,-0.176048 l 0.82742,-0.02554 0.0034,0.146931 0.0034,0.146958 -1.434508,0.978696 -1.434535,0.978694 -0.676402,0.09067 c -0.372054,0.04985 -1.557641,0.146778 -2.634686,0.215379 l -1.958227,0.124712 -0.0045,-0.202226 z m 6.441242,-0.374826 -0.0039,-0.168028 1.415091,-1.007274 1.41509,-1.007249 2.084578,-0.17592 c 1.1465,-0.09675 2.32173,-0.159319 2.6116,-0.139066 l 0.52705,0.03683 0.004,0.174107 0.004,0.174132 -1.114608,0.806351 c -0.613043,0.443503 -1.269746,0.883712 -1.459343,0.978236 l -0.344706,0.171858 -2.567517,0.162052 -2.567488,0.162026 -0.0039,-0.168053 z m 6.450105,-0.419393 c 0.004,-0.06513 0.470323,-0.437169 1.036376,-0.826732 l 1.029208,-0.708303 0.264668,0.289676 c 0.14557,0.159319 0.389975,0.443911 0.54308,0.632449 l 0.278441,0.342799 -0.108656,0.166725 -0.108655,0.166725 -1.470801,0.02756 -1.470802,0.02758 0.0071,-0.118455 z M 29.143217,47.19329 c -0.04377,-0.11774 -0.129992,-0.540734 -0.191601,-0.940002 l -0.112014,-0.725951 0.905962,-0.115773 c 0.498291,-0.06367 1.631272,-0.129948 2.517704,-0.147315 l 1.611743,-0.03152 0.0031,0.126371 c 0.0028,0.11963 -1.104956,1.147005 -1.747153,1.620416 l -0.297491,0.219312 -1.305249,0.104305 -1.305222,0.104281 -0.07959,-0.214052 z m 3.726998,-0.163508 c -0.0042,-0.186162 1.537378,-1.574698 1.995678,-1.797459 l 0.376569,-0.183045 2.189509,-0.04104 2.189508,-0.04102 0.0028,0.08995 c 0,0.04949 -0.314621,0.444499 -0.701689,0.877812 l -0.70375,0.787834 -0.540088,0.08446 c -0.297067,0.04646 -1.499644,0.145604 -2.672419,0.220334 l -2.132302,0.135873 -0.0031,-0.133702 z m 6.095408,-0.409944 c 1.97e-4,-0.07793 0.324217,-0.487151 0.720033,-0.909379 l 0.719723,-0.767683 2.219368,-0.13996 2.219367,-0.139933 0.0031,0.142947 c 0.0028,0.07861 -0.335703,0.486334 -0.750034,0.906034 l -0.753307,0.763112 -0.754183,0.01507 c -0.41481,0.0081 -1.40002,0.07276 -2.189367,0.143279 l -1.435213,0.128237 2.54e-4,-0.141721 z m 5.216624,-0.410096 c 0,-0.05044 0.274602,-0.410556 0.612789,-0.800247 l 0.614906,-0.708532 0.59563,-0.01124 0.595601,-0.01124 0.7482,0.615491 0.748199,0.615489 -0.257782,0.161669 -0.257782,0.161668 -1.698836,0.03415 -1.698837,0.03417 -0.0028,-0.09174 z M 28.66104,44.896523 c -0.09948,-0.160162 -0.212146,-0.570386 -0.250359,-0.911627 l -0.06948,-0.620445 2.338013,-0.08737 2.338042,-0.0874 0.146389,0.127113 0.146388,0.127087 -0.64008,0.571893 c -0.352015,0.314526 -0.872913,0.680567 -1.157478,0.813451 l -0.517426,0.241558 -1.076565,0.05846 -1.076565,0.05849 z m 4.541492,-0.840166 0.990318,-0.880442 2.257044,-0.0423 2.257072,-0.04232 0.0031,0.143075 c 0.0028,0.07869 -0.389805,0.476476 -0.870232,0.883968 l -0.873478,0.740866 -2.377158,0.0388 -2.377158,0.03877 0.990318,-0.880443 z m 4.939256,0.275475 c 0.178195,-0.194513 0.552563,-0.556467 0.831906,-0.804358 l 0.507916,-0.450681 1.964972,-0.03683 1.965,-0.03686 0.0028,0.09174 c 0,0.05044 -0.274602,0.410557 -0.612817,0.800247 l -0.614906,0.708532 -2.184061,0.04091 -2.18409,0.04094 0.323991,-0.353678 z m 4.778756,0.066 -0.0051,-0.21709 0.647389,-0.596284 c 0.35608,-0.32796 0.722574,-0.594675 0.814466,-0.592683 0.09189,0.0025 0.523042,0.274837 0.958172,0.606347 l 0.791126,0.602746 -0.09189,0.08666 c -0.05055,0.04768 -0.770806,0.140853 -1.600596,0.207053 l -1.508732,0.120339 -0.0051,-0.217091 z M 27.992653,42.937166 C 27.953703,42.829438 27.830996,42.501708 27.71997,42.208865 27.608944,41.915998 27.515839,41.5768 27.513045,41.455077 l -0.0051,-0.221331 h 1.176641 c 0.647163,-2.55e-4 1.555354,0.03165 2.018227,0.07113 l 0.841559,0.07179 -0.651087,0.634467 c -0.358084,0.348953 -0.860524,0.739001 -1.116499,0.866804 l -0.465385,0.232337 -0.623993,0.01175 -0.623965,0.01175 -0.07084,-0.195867 z m 9.682509,-0.142029 -1.287752,-0.05473 0.878078,-0.773353 0.87805,-0.773379 1.785196,-0.0051 c 0.981823,-0.0028 1.915386,0.03632 2.074559,0.08701 l 0.289391,0.09218 -0.587587,0.63919 -0.587558,0.639192 -1.077299,0.101879 -1.077327,0.101905 -1.287751,-0.05473 z m 4.989378,-0.06193 -1.002989,-0.02851 -0.0028,-0.120319 c 0,-0.06617 0.229616,-0.330336 0.513644,-0.586988 l 0.516382,-0.466642 0.637455,0.553453 0.637456,0.553453 -0.148111,0.06203 c -0.08145,0.0341 -0.59944,0.04919 -1.151071,0.03351 z m -12.155904,0.126039 c 0,-0.03859 0.429429,-0.401592 0.956254,-0.806683 l 0.95789,-0.736498 2.336349,-0.0438 2.33632,-0.04377 0.0034,0.15199 c 0.0028,0.08359 -0.323258,0.442864 -0.722574,0.798356 l -0.726073,0.646368 -2.570028,0.0521 c -1.41351,0.02855 -2.570734,0.02043 -2.571638,-0.01814 z m 5.163227,-1.941323 -0.242739,-0.138913 0.51356,-0.411169 c 0.282448,-0.226157 0.674059,-0.515858 0.870204,-0.643814 l 0.356672,-0.232644 1.597237,0.07253 1.597209,0.07256 0.116501,0.3098 0.11653,0.309801 -0.481669,0.390507 -0.481669,0.390533 -1.859562,0.01 -1.859534,0.0097 -0.24274,-0.138913 z m 4.725473,-0.135081 -0.0051,-0.225903 0.36655,-0.112886 0.366522,-0.112887 0.37434,0.324996 0.374339,0.325023 -0.735725,0.01379 -0.735697,0.01379 -0.0051,-0.225901 z m -12.599303,0.190605 -0.489741,-0.05734 -0.147545,-0.340908 c -0.08114,-0.18749 -0.204188,-0.535064 -0.273417,-0.772357 l -0.125871,-0.431474 0.918125,-0.01609 c 0.50498,-0.0087 1.448421,0.01916 2.096572,0.0624 l 1.178448,0.07849 -0.0031,0.09557 c -0.0028,0.05253 -0.435921,0.405372 -0.965003,0.784029 l -0.961926,0.688483 -0.368413,-0.01686 c -0.202636,-0.0092 -0.5888,-0.04252 -0.858153,-0.07406 z m 2.314984,-0.16624 c -0.0031,-0.130076 0.05337,-0.238978 0.125222,-0.241993 0.07183,-0.0028 0.43846,-0.264543 0.814719,-0.581215 l 0.684079,-0.575723 2.176526,0.06153 c 1.197102,0.03382 2.218351,0.09894 2.269461,0.144735 l 0.09296,0.08324 -0.748876,0.629307 -0.748877,0.629333 -2.329914,0.04367 -2.329885,0.04365 -0.0054,-0.236527 z m 9.291433,-1.515036 -0.11128,-0.155667 0.184517,-0.0036 0.184545,-0.0036 0.0037,0.157684 c 0.0028,0.08673 -0.03099,0.158349 -0.07324,0.159141 -0.04228,0 -0.126915,-0.06862 -0.188129,-0.154237 z m -4.489422,-0.03078 -0.65484,-0.0496 -0.0034,-0.148184 c -0.0028,-0.08147 0.05537,-0.150609 0.127226,-0.153623 0.07183,-0.0028 0.438517,-0.262041 0.814832,-0.575596 l 0.684248,-0.570106 1.222078,0.08048 1.222079,0.08051 0.399514,0.319174 0.399542,0.319174 0.0045,0.203504 0.0045,0.203477 -0.33331,0.169561 -0.333305,0.16956 h -1.449578 c -0.797278,2.56e-4 -1.744274,-0.02171 -2.104418,-0.04896 z m -4.708285,-0.07204 -1.525863,-0.02401 -0.0031,-0.132553 c -0.0028,-0.07289 0.361781,-0.414157 0.807664,-0.75831 l 0.810683,-0.625783 1.310555,0.0064 c 0.720824,0.0036 1.821322,0.04414 2.445569,0.09029 l 1.134985,0.0839 -0.850618,0.708047 -0.850618,0.707996 -0.876751,-0.01609 c -0.482205,-0.0087 -1.56337,-0.02679 -2.402586,-0.03997 z m -3.79874,-0.718417 C 26.300759,38.147562 26.210532,37.794292 26.207541,37.6859 l -0.0056,-0.197067 0.584285,-0.01099 c 0.321367,-0.0062 1.067308,0.02559 1.657633,0.07026 l 1.073375,0.08124 0.0028,0.116029 c 0,0.0638 -0.403803,0.380725 -0.900571,0.704293 l -0.903224,0.588264 -0.556627,0.01047 -0.55657,0.01047 -0.195016,-0.587907 z m 7.944556,-0.935302 -0.828999,-0.04355 -0.0031,-0.135796 c -0.0028,-0.07471 0.300538,-0.362848 0.67166,-0.640366 l 0.674794,-0.504569 1.141363,0.08426 1.141363,0.08423 0.288032,0.380393 0.288007,0.380368 -0.08978,0.225544 -0.08977,0.22557 -1.182286,-0.0064 c -0.65024,-0.0036 -1.555327,-0.02587 -2.011285,-0.04983 z m -2.74749,-0.08518 c -0.240171,-0.02171 -1.123809,-0.07184 -1.963645,-0.111483 l -1.526936,-0.07207 -0.0028,-0.104101 c 0,-0.05726 0.382863,-0.352223 0.853271,-0.655486 l 0.855331,-0.551358 1.958876,0.07535 1.958877,0.07536 0.253943,0.122414 0.253916,0.122438 -0.925322,0.58949 c -0.508932,0.324231 -1.005022,0.580348 -1.102445,0.56916 -0.09739,-0.01124 -0.373606,-0.03803 -0.613805,-0.05971 z m -5.260481,-0.227665 -0.288629,-0.06362 -0.110546,-0.344434 c -0.06079,-0.18943 -0.115288,-0.504058 -0.121045,-0.699159 l -0.01044,-0.354751 0.759798,-0.0143 c 0.417859,-0.0079 1.12745,0.02426 1.576832,0.07154 l 0.81709,0.08579 -0.05774,0.176048 c -0.03175,0.09685 -0.438293,0.413902 -0.903395,0.704599 l -0.845679,0.528551 -0.263765,-0.01328 c -0.14509,-0.0074 -0.393671,-0.04199 -0.552422,-0.07698 z m 7.620057,-1.287627 -1.180874,-0.06834 -0.01157,-0.131558 c -0.0062,-0.07238 0.282899,-0.342032 0.642648,-0.599246 l 0.654078,-0.467639 0.522676,-0.01252 c 0.287471,-0.0066 0.813364,0.02554 1.168654,0.07179 l 0.645978,0.08426 0.194818,0.473922 c 0.10716,0.260662 0.196201,0.534298 0.197894,0.608084 l 0.0031,0.134161 -0.828322,-0.01226 c -0.455563,-0.0069 -1.35969,-0.04308 -2.009168,-0.08065 z m -4.653111,-0.257546 -1.645158,-0.101165 -0.150255,-0.130458 -0.150255,-0.130459 0.863684,-0.529751 0.863685,-0.529753 1.613239,0.07154 1.61321,0.07156 -0.234611,-0.141875 -0.234583,-0.141901 0.742498,-0.516547 0.742471,-0.516548 0.357632,0.07371 c 0.19668,0.04053 0.810401,0.113296 1.363838,0.161669 l 1.006264,0.08793 -0.04154,0.490778 -0.04152,0.490778 -1.743118,0.0038 -1.743089,0.0038 0.404792,0.100065 c 0.222645,0.05501 0.421047,0.156127 0.440944,0.224702 l 0.03612,0.124693 -0.756073,0.480383 -0.756102,0.480383 -0.453446,-0.01329 c -0.2494,-0.0071 -1.193772,-0.05871 -2.098633,-0.114368 z M 25.555777,34.95718 c -0.0661,-0.269907 -0.122626,-0.598097 -0.125645,-0.729296 l -0.0054,-0.23857 1.352917,0.08467 1.352917,0.08467 0.143736,0.123333 0.143736,0.123308 -0.841756,0.511388 -0.841728,0.511389 -0.52928,0.01 -0.529251,0.01 -0.12017,-0.490727 z m 2.515644,-0.977674 c -0.510935,-0.05756 -0.965369,-0.136281 -1.009876,-0.174924 -0.08706,-0.0756 1.046678,-0.814906 1.474668,-0.961634 l 0.259447,-0.08893 1.309737,0.102263 c 0.720344,0.05623 1.585214,0.143101 1.921933,0.193006 l 0.612197,0.09074 -0.592808,0.468762 -0.592808,0.468787 -1.226763,0.0033 c -0.674709,0.0025 -1.644763,-0.0438 -2.155727,-0.101369 z m -2.589417,-0.336924 -0.103406,-0.229503 0.155391,-0.44192 0.155392,-0.441945 0.853948,0.02901 c 0.469674,0.01584 0.961559,0.06084 1.093103,0.09971 l 0.239155,0.07067 -0.200603,0.228201 c -0.256484,0.291718 -1.485872,0.903939 -1.828123,0.91035 l -0.261479,0.0049 -0.103378,-0.229478 z m 7.15185,-0.74978 -1.2238,-0.155794 0.947025,-0.513432 0.946996,-0.513406 1.352296,0.05749 1.352296,0.05752 0.0096,0.420773 0.0096,0.420797 -0.20478,0.193135 -0.204752,0.193133 -0.880364,-0.0025 c -0.484209,0 -1.431064,-0.07231 -2.104164,-0.158017 z m -3.798598,-0.339197 c -0.647898,-0.04753 -1.224591,-0.126883 -1.281515,-0.176329 l -0.103547,-0.08987 0.779046,-0.433006 0.779046,-0.433032 1.710577,0.07749 c 0.940788,0.0426 1.77419,0.109006 1.851971,0.147545 l 0.141393,0.07008 -0.788726,0.47364 -0.788699,0.473666 -0.560775,-0.01175 c -0.308413,-0.0066 -1.090845,-0.05078 -1.738771,-0.0983 z m -2.707669,-0.222812 -0.393615,-0.06099 -0.0031,-0.139296 c -0.0028,-0.07662 0.08368,-0.321728 0.189822,-0.544718 l 0.19304,-0.405423 0.383315,-0.0071 c 0.21082,-0.0041 0.748142,0.03113 1.194054,0.07794 l 0.810711,0.08513 0.0028,0.111176 c 0.0031,0.135669 -1.620379,0.989089 -1.831904,0.963014 -0.08314,-0.01022 -0.328281,-0.0461 -0.544774,-0.07966 z m 9.229824,-0.91109 0.0876,-0.220054 -0.475149,0.172549 -0.475149,0.172574 -1.645694,-0.111584 -1.645667,-0.111585 0.03903,-0.19791 0.03906,-0.197935 -0.163971,0.0031 c -0.09017,0.0025 -0.21573,0.08254 -0.279033,0.179674 l -0.115118,0.17661 -1.331158,-0.08278 c -0.732169,-0.04554 -1.519259,-0.119426 -1.7491,-0.164198 l -0.417887,-0.08139 0.408799,-0.316211 0.408799,-0.316263 -0.64993,0.358608 -0.649929,0.358608 -0.254875,-0.08306 -0.254875,-0.08309 0.289786,-0.489782 0.289757,-0.489782 0.697992,0.03109 0.697992,0.03109 -0.04137,0.20473 -0.04137,0.204729 0.379307,-0.192981 0.379335,-0.192955 1.450961,0.06536 1.450961,0.06538 0.308243,0.154823 0.308243,0.15485 -0.184404,0.0081 c -0.101402,0.0046 -0.33401,0.124177 -0.516862,0.265847 l -0.332486,0.257597 0.689018,-0.361545 0.688989,-0.361545 1.652467,0.07836 c 0.908841,0.04309 1.725253,0.117204 1.814238,0.164708 l 0.161826,0.08635 -0.408714,0.315292 -0.408715,0.315267 0.302881,-0.09427 0.30291,-0.0943 0.0071,0.310414 0.0071,0.310414 -0.454265,0.0084 -0.454237,0.0084 0.08757,-0.220053 z m -0.870486,-1.342795 -0.11128,-0.155666 0.151215,-0.0028 c 0.08317,-0.0025 0.300933,-0.115289 0.483898,-0.252771 l 0.332655,-0.249934 -0.761548,0.353346 -0.761549,0.353347 -1.467104,-0.08296 -1.467104,-0.08296 0.09779,-0.245695 0.09779,-0.245696 -0.265543,0.207973 -0.265543,0.207998 -1.514263,-0.07685 -1.514263,-0.07682 -0.130726,-0.182841 -0.130725,-0.182841 0.171252,-0.304591 0.171281,-0.304591 0.464792,0.06498 0.464792,0.06498 0.432844,-0.128135 0.432872,-0.128134 -0.624727,-0.0041 c -0.343605,-0.0025 -0.674821,-0.0475 -0.736063,-0.100653 l -0.111309,-0.09664 0.869047,-0.942965 0.869047,-0.94294 0.539806,-0.02582 0.539807,-0.02585 -0.398244,-0.09511 -0.398272,-0.09514 0.26701,-0.359936 0.266983,-0.359961 0.280529,-0.0053 0.280528,-0.0051 -0.118956,-0.103284 -0.118957,-0.103284 0.282138,-0.294145 c 0.155165,-0.161796 0.369005,-0.29578 0.475177,-0.297771 l 0.19304,-0.0035 0.163971,-0.355211 0.163943,-0.355237 0.431095,-0.205725 c 0.237095,-0.113169 0.360256,-0.20547 0.273671,-0.205138 h -0.157396 l 0.37434,-0.306302 0.374339,-0.306327 0.299805,0.0344 0.299833,0.03442 -0.219371,-0.0637 c -0.287641,-0.08352 -0.282392,-0.272487 0.01411,-0.504647 l 0.239155,-0.18731 3.065949,-0.0025 3.065978,-0.0025 0.116953,0.101548 0.116981,0.101572 -0.221178,0.251596 -0.221177,0.251595 -0.540936,-0.09419 -0.540907,-0.09417 0.148336,0.133958 c 0.08156,0.07368 0.220416,0.141492 0.308497,0.150686 0.08811,0.0092 0.236333,0.02426 0.32941,0.03325 l 0.169221,0.0166 -0.106201,0.278081 c -0.05839,0.152933 -0.157254,0.3145 -0.219681,0.359042 -0.144159,0.102901 -1.084044,1.671852 -1.4097,2.353286 l -0.247255,0.51734 -0.705866,0.01328 -0.705866,0.01328 -0.0028,-0.118276 -0.0028,-0.118276 -1.436257,0.05241 -1.436257,0.05238 -0.09025,-0.102647 -0.09028,-0.10267 -1.30477,0.114343 c -0.717635,0.0629 -1.162643,0.124482 -0.988907,0.136844 l 0.315835,0.02248 -0.114441,0.175639 -0.114469,0.175638 0.382326,-0.194487 0.382327,-0.194487 1.243753,0.07825 c 0.684079,0.04303 1.274967,0.105352 1.313124,0.138478 0.03816,0.03312 -0.19098,0.210628 -0.509186,0.394492 l -0.578555,0.334242 -1.132812,0.01072 -1.13284,0.01072 -0.329918,-0.110206 -0.329889,-0.110179 -0.542093,0.09297 -0.542092,0.09296 0.960938,0.0946 c 0.528489,0.05203 1.742863,0.112503 2.698581,0.134392 l 1.737699,0.03979 0.05269,0.134774 0.05266,0.134775 1.131795,-0.07412 1.131796,-0.07412 -0.0031,0.131838 c -0.0028,0.07251 -0.104704,0.306174 -0.228854,0.519255 l -0.225693,0.387392 -1.110008,0.0097 -1.110037,0.0097 0.480851,0.06311 0.480822,0.06309 0.0031,0.143842 0.0031,0.143841 0.436174,-0.189813 0.436174,-0.18984 0.159456,0.142616 0.159427,0.142589 -0.0841,0.435408 -0.0841,0.435381 -0.927749,0.01737 -0.927749,0.01737 -0.111309,-0.155667 z m -2.635306,-0.89712 0.104083,-0.159702 1.2527,-0.03594 1.2527,-0.03596 -0.220726,-0.07575 -0.220698,-0.07575 0.105579,-0.162001 0.105552,-0.162 -0.384444,0.195585 -0.384471,0.195561 -1.388533,-0.08505 -1.388562,-0.08505 0.08701,-0.218623 0.08701,-0.218649 -0.326503,0.19316 -0.326474,0.193134 0.08901,0.124508 0.08901,0.124507 0.686703,-0.01302 0.686703,-0.01302 0.0031,0.144557 c 0.0028,0.07948 -0.09389,0.182151 -0.212683,0.228149 l -0.215984,0.08362 0.2078,0.0087 c 0.1143,0.0046 0.254649,-0.06331 0.311884,-0.151146 z m 5.933468,-3.519778 c 0,-0.03407 -0.217029,-0.05682 -0.48054,-0.05057 l -0.479128,0.01124 0.248807,0.136077 0.248779,0.136077 0.231761,-0.08551 c 0.127451,-0.04702 0.231111,-0.113372 0.230321,-0.147468 z m -3.072299,0.02833 0.08249,-0.126578 -0.55499,-0.02299 -0.555019,-0.02299 0.264951,0.151147 c 0.321592,0.183454 0.651002,0.192776 0.762564,0.02171 z m 1.589814,-0.06252 c -0.193379,-0.07095 -0.469307,-0.130689 -0.613156,-0.132757 l -0.261564,-0.0038 0.264838,0.147953 c 0.145683,0.08139 0.421611,0.141134 0.613184,0.132757 l 0.34829,-0.01507 -0.351592,-0.128977 z m 1.313321,-0.813375 0.518753,-0.0097 -0.08342,-0.116744 -0.08342,-0.116769 -0.910619,0.07319 -0.910646,0.0732 0.244997,0.134826 0.244997,0.134801 0.230322,-0.08153 c 0.126633,-0.04485 0.463719,-0.08592 0.749046,-0.09125 z m -2.119997,-0.157454 -0.0028,-0.118276 -1.436991,0.04932 -1.437019,0.04932 0.699177,0.08283 c 0.384556,0.04556 1.032426,0.07657 1.439729,0.06893 l 0.740523,-0.01379 -0.0028,-0.118251 z m 3.643433,-0.755629 c 0,-0.03407 -0.217029,-0.05682 -0.48054,-0.05057 l -0.479129,0.01124 0.248807,0.136077 0.248779,0.136078 0.231733,-0.08548 c 0.12748,-0.04704 0.23114,-0.113397 0.23035,-0.147494 z m -5.01334,-0.07251 -0.219653,-0.07545 -0.215985,0.08362 -0.215984,0.08362 0.43561,-0.0081 0.435638,-0.0081 -0.219626,-0.07547 z m 1.483022,-0.03172 c -0.167499,-0.03634 -0.481189,-0.0319 -0.697061,0.01 l -0.392515,0.07595 0.697061,-0.01 0.697033,-0.01 -0.304518,-0.06607 z m 0.548696,-0.690654 c -0.0028,-0.08673 -0.08201,-0.156228 -0.177856,-0.154415 -0.09584,0.0025 -0.172636,0.07422 -0.170632,0.160953 0.0028,0.08673 0.08201,0.156203 0.177857,0.154416 0.09581,-0.0025 0.172607,-0.07422 0.170631,-0.160954 z m 2.512907,-0.02641 0.09045,-0.138784 -0.998051,0.02018 -0.99805,0.02018 0.699572,0.09994 c 1.042698,0.148975 1.107835,0.148873 1.206077,-0.0025 z m -3.085028,-0.05815 -0.107442,-0.0933 -0.226793,0.08709 -0.226822,0.08712 0.334264,0.0062 0.334264,0.0062 -0.107471,-0.0933 z m 1.375044,4.683793 -0.0028,-0.118251 -1.567435,0.07999 -1.567462,0.08002 -0.0028,-0.129488 c 0,-0.0712 0.297378,-0.291463 0.662799,-0.48945 l 0.664436,-0.359987 1.245136,0.071 1.245136,0.07103 0.0031,0.139755 c 0.0028,0.07688 -0.10857,0.181003 -0.245166,0.231393 l -0.248384,0.09164 0.09988,0.221713 0.09988,0.221688 -0.192899,0.0035 c -0.106087,0.0025 -0.193915,-0.0496 -0.195185,-0.11465 z"
         id="path853"
         inkscape:connector-curvature="0" />
      <text
         xml:space="preserve"
         style="font-style:normal;font-variant:normal;font-weight:bold;font-stretch:normal;font-size:7.76111px;line-height:1.25;font-family:FreeSans;-inkscape-font-specification:'FreeSans Bold';letter-spacing:0px;word-spacing:0px;fill:#000000;fill-opacity:1;stroke:none;stroke-width:0.264583"
         x="8.8014641"
         y="14.513526"
         id="text857"><tspan
           sodipodi:role="line"
           id="tspan855"
           x="8.8014641"
           y="14.513526"
           style="font-style:normal;font-variant:normal;font-weight:bold;font-stretch:normal;font-size:7.76111px;font-family:FreeSans;-inkscape-font-specification:'FreeSans Bold';stroke-width:0.264583">Longest Road</tspan></text>
      <path
         style="fill:none;stroke:#000000;stroke-width:1;stroke-linecap:round;stroke-linejoin:miter;stroke-miterlimit:4;stroke-dasharray:none;stroke-opacity:1"
         d="m 7.0312164,21.891469 55.9375676,-0.0037"
         id="path859" />
    </g>
  </g>
  <g
     inkscape:label="F.Cu"
     inkscape:groupmode="layer"
     id="g850"
     style="display:none">
    <path
       id="path849"
       style="display:inline;fill:#000000;fill-opacity:1;stroke:none;stroke-width:0.0798742;stroke-miterlimit:4;stroke-dasharray:none;stroke-opacity:1"
       d="m 11.587891,11.042969 c -0.853191,0.149692 -0.463267,1.225989 -0.548829,1.821093 0.0091,15.472794 -0.01823,30.947611 0.01367,46.419141 0.253904,0.800122 1.2818,0.367133 1.891797,0.476563 15.441484,-0.0065 30.884431,0.01303 46.325,-0.0098 0.788305,-0.207283 0.39893,-1.215565 0.490235,-1.79375 -0.0065,-15.478096 0.01303,-30.957463 -0.0098,-46.434766 -0.251967,-0.807628 -1.297456,-0.372841 -1.913281,-0.482422 -15.416243,0.0026 -30.832753,-0.0052 -46.248828,0.0039 z" />
  </g>
  <g
     inkscape:label="F.Mask-disabled"
     inkscape:groupmode="layer"
     id="g852" />
  <g
     inkscape:label="F.SilkS"
     inkscape:groupmode="layer"
     id="g854"
     style="display:inline">
    <g
       id="g851"
       transform="matrix(0.8,0,0,0.8,7.4000053,6.3317206)">
      <path
         style="display:inline;fill:#000000;fill-opacity:1;stroke:none;stroke-width:0.268476"
         d="m 39.485645,63.787127 -0.480681,-0.05672 -0.0042,-0.188102 -0.0042,-0.188128 0.329523,-0.194922 c 0.181183,-0.10722 0.971913,-0.689279 1.757112,-1.29348 l 1.42765,-1.098529 3.309563,-0.109822 c 1.820277,-0.0604 3.885947,-0.09912 4.590401,-0.08602 l 1.28081,0.02376 -0.484689,0.575009 c -0.450822,0.534834 -1.80244,1.645367 -2.78988,2.292297 l -0.424631,0.278182 -4.012975,0.05159 c -2.207147,0.02837 -4.229269,0.02595 -4.493655,-0.0051 z m -8.367494,-0.0059 -2.04851,-0.01149 -0.0034,-0.145324 c -0.0028,-0.07994 0.192843,-0.276547 0.432619,-0.436913 0.239748,-0.160392 0.915218,-0.638297 1.500999,-1.062007 0.58578,-0.423709 1.215785,-0.879217 1.40002,-1.012204 l 0.334997,-0.241788 4.146438,-0.07772 4.146437,-0.07769 0.0031,0.144097 c 0.0031,0.135286 -1.060535,0.971671 -2.966974,2.333085 l -0.827843,0.591176 -2.034822,0.0043 c -1.119124,0.0025 -2.956645,0 -4.083332,-0.0074 z m -9.254405,-0.01609 -1.890212,-0.05172 0.399542,-0.339861 c 0.219738,-0.186929 0.902236,-0.653546 1.516662,-1.036953 0.614426,-0.383382 1.296445,-0.849999 1.51559,-1.036901 l 0.39847,-0.339861 3.639848,-0.08033 3.639848,-0.08032 0.202495,0.108059 0.202466,0.108061 -1.607368,1.126035 c -0.884061,0.619322 -1.798546,1.248195 -2.03217,1.397553 l -0.424801,0.271516 -1.835065,0.0033 c -1.009312,0.0025 -2.685683,-0.02018 -3.725305,-0.0485 z m -7.828817,0.02069 -1.874294,-0.01558 -0.0028,-0.123716 c -0.0028,-0.119885 2.971433,-2.06849 3.716584,-2.435015 l 0.368921,-0.181488 3.148274,-0.05821 3.148245,-0.05823 0.09336,0.130534 0.09333,0.130561 -0.295374,0.24281 c -0.162475,0.133549 -1.05139,0.727611 -1.975386,1.320141 l -1.679984,1.07733 -1.433266,-0.0066 c -0.788303,-0.0036 -2.276715,-0.01354 -3.30756,-0.02222 z m 2.934857,-3.153253 c 0,-0.03348 0.521378,-0.355441 1.160272,-0.715479 0.638923,-0.360039 1.575365,-0.918088 2.080994,-1.240123 l 0.919283,-0.585506 0.853722,-0.01609 0.853722,-0.01609 0.0031,0.134137 c 0.0028,0.07378 -0.812913,0.656967 -1.810258,1.295954 l -1.813306,1.161791 -1.123047,0.02094 c -0.617672,0.01149 -1.123668,-0.0064 -1.124458,-0.03982 z m 3.522303,-0.193491 0.06505,-0.18961 1.70688,-1.094161 1.70688,-1.094188 3.35266,-0.130764 3.352659,-0.13074 0.0031,0.129079 c 0.0031,0.133958 -2.17743,1.702424 -3.139666,2.258431 l -0.549261,0.317361 -3.281596,0.06229 -3.281596,0.06227 0.06505,-0.18961 z m 7.976193,-0.09539 -0.0034,-0.151274 1.158297,-0.801753 c 0.637088,-0.44095 1.466257,-0.995629 1.842629,-1.232615 l 0.684304,-0.430861 3.727139,-0.06985 3.727168,-0.06985 -0.208054,0.236654 c -0.114409,0.130165 -0.91022,0.730739 -1.768457,1.334608 l -1.560435,1.097967 -3.797837,0.119145 -3.797836,0.119144 -0.0034,-0.151299 z m 8.927056,-0.225698 c 0.0366,-0.106647 0.825867,-0.742594 1.753927,-1.4132 l 1.687378,-1.219282 4.152279,-0.125224 4.152279,-0.125222 0.0031,0.139628 c 0.0037,0.157632 -2.792081,2.313264 -3.371878,2.599901 l -0.376485,0.186161 -4.033604,0.0756 -4.033633,0.07557 0.06655,-0.193925 z m 9.71677,-0.14036 c -0.0028,-0.083 0.555301,-0.572608 1.238194,-1.088057 0.682893,-0.515424 1.394319,-1.066962 1.580924,-1.225668 0.39116,-0.332608 0.664718,-0.401005 2.040806,-0.510163 l 1.000534,-0.07937 0.0059,0.260303 c 0.0093,0.409893 -0.482289,1.946511 -0.749695,2.343071 l -0.242429,0.359477 -2.435408,0.04566 -2.435409,0.04564 -0.0034,-0.150891 z M 22.27421,57.320179 c 0.316992,-0.244112 1.003102,-0.789009 1.524733,-1.210931 l 0.948408,-0.767095 2.107128,-0.05016 c 1.158946,-0.02756 2.361297,-0.08499 2.671939,-0.127598 l 0.564755,-0.07749 0.0031,0.128849 c 0.0048,0.205802 -0.670701,0.730267 -2.038294,1.582769 l -1.271919,0.792866 -2.542991,0.0863 -2.542992,0.08628 0.576298,-0.44381 z m 5.845641,0.03678 c 0.04738,-0.07269 0.843505,-0.620445 1.769223,-1.21724 l 1.683088,-1.085069 3.438963,-0.167389 3.438991,-0.167415 -0.0034,0.143381 c -0.0037,0.148516 -0.925605,0.834139 -2.537065,1.886695 l -0.932463,0.609055 -3.471672,0.06508 -3.471672,0.06505 0.08613,-0.132144 z m 8.520571,-0.237063 -0.09531,-0.133293 0.14749,-0.12793 c 0.08114,-0.07036 0.796629,-0.57335 1.589983,-1.117762 l 1.442495,-0.98983 0.537633,-0.08362 c 0.295684,-0.04597 2.046027,-0.154339 3.889672,-0.240792 l 3.352066,-0.157174 0.0031,0.133498 c 0.0034,0.145477 -2.610386,2.144063 -3.169468,2.423573 l -0.344706,0.17232 -3.628786,0.127138 -3.628813,0.127163 -0.09531,-0.133293 z m 9.003933,-0.341241 c 0,-0.03568 0.700589,-0.593448 1.558685,-1.239459 l 1.560181,-1.174587 1.32938,-0.123512 c 0.731153,-0.06794 1.682552,-0.126832 2.114239,-0.130842 l 0.78486,-0.0071 0.08038,1.299938 0.08038,1.299963 -3.753301,0.07033 c -2.064343,0.0387 -3.753979,0.04115 -3.754798,0.0056 z M 25.381251,55.071096 c -0.0031,-0.0743 0.511132,-0.588469 1.143197,-1.142586 l 1.149266,-1.007479 1.396407,-0.02621 1.396407,-0.02615 -0.336888,0.301654 c -0.185307,0.165907 -0.867777,0.64011 -1.516606,1.053808 l -1.179717,0.75218 -0.749611,0.01405 c -0.41227,0.0077 -0.872631,0.05943 -1.022999,0.11493 l -0.273445,0.100883 -0.0059,-0.135081 z m 2.960709,-0.247355 -0.0039,-0.183634 1.578243,-0.974226 1.578271,-0.974225 1.057346,-0.02069 c 0.581547,-0.01149 1.938415,-0.08306 3.015262,-0.159473 l 1.957917,-0.138963 0.0037,0.157505 0.0034,0.157506 -1.562072,1.000072 -1.562072,1.000072 -1.072924,0.02094 c -0.590127,0.01149 -1.954022,0.08337 -3.030869,0.15978 l -1.957917,0.138963 -0.0042,-0.183659 z m 7.392641,-0.468635 c 0.0545,-0.08359 0.732734,-0.574141 1.507208,-1.090127 l 1.408148,-0.938111 3.28549,-0.192905 3.285462,-0.192904 0.11478,0.09966 0.114808,0.09968 -0.343267,0.223476 c -0.188778,0.122924 -0.829423,0.566836 -1.42367,0.986459 l -1.080431,0.762984 -0.816469,0.137482 -0.816497,0.137508 -2.667311,0.05938 -2.667282,0.05938 z m 7.930022,-0.29463 c -0.0034,-0.145936 0.282137,-0.37309 1.859731,-1.479766 l 0.920045,-0.645397 0.370868,-0.07501 c 0.203962,-0.04128 1.487368,-0.128952 2.852025,-0.194897 l 2.481157,-0.119885 0.06914,0.102161 c 0.03801,0.05619 0.122908,0.314117 0.188637,0.573195 l 0.119465,0.47101 -0.902829,0.585531 -0.9028,0.585532 -3.526113,0.16956 -3.526085,0.169535 -0.0031,-0.141568 z m 8.461699,-0.314628 -0.09641,-0.134877 0.316795,-0.270445 0.316794,-0.270469 0.115119,0.255529 0.115118,0.255503 -0.09468,0.145297 c -0.120199,0.184399 -0.545988,0.196709 -0.672734,0.01941 z m -24.537134,-1.346728 -0.0059,-0.254659 0.589167,-0.555727 c 0.324076,-0.305663 0.921343,-0.771028 1.32732,-1.034168 l 0.738124,-0.478442 1.130356,-0.11871 c 0.621707,-0.0653 1.948265,-0.149052 2.947924,-0.186085 l 1.81754,-0.06737 0.05729,0.147851 0.05729,0.147826 -1.209605,0.811434 c -0.665282,0.446312 -1.448788,0.975656 -1.741113,1.176349 l -0.531509,0.364917 -1.150366,0.02248 c -0.632686,0.01226 -1.796204,0.0802 -2.585551,0.150711 l -1.435213,0.128212 -0.0059,-0.25466 z m 6.65607,-0.424195 c 0.0679,-0.197884 0.923657,-0.831252 2.444609,-1.809335 l 0.858944,-0.552355 1.043375,-0.111533 c 0.573843,-0.06132 1.902291,-0.138095 2.952073,-0.170581 l 1.908725,-0.0591 0.05568,0.141338 0.05568,0.141339 -0.968135,0.645321 c -0.532468,0.354934 -1.235596,0.859299 -1.562522,1.120804 l -0.59436,0.475504 -1.852592,0.151964 c -1.018935,0.08357 -2.427506,0.167211 -3.130183,0.185881 l -1.277563,0.03392 z m 7.278653,-0.379295 c 0.0045,-0.109159 1.901726,-1.467992 3.125159,-2.238305 l 0.535517,-0.33718 2.274711,-0.07838 c 1.251119,-0.04314 2.436538,-0.117919 2.634319,-0.166215 l 0.359551,-0.08781 0.220613,0.230652 0.220585,0.230652 -1.425561,1.002626 c -0.784042,0.551435 -1.58115,1.058406 -1.77134,1.126573 l -0.345806,0.123997 -2.916287,0.155385 -2.916315,0.155412 0.0048,-0.117408 z m 7.477534,-0.467613 c -0.0031,-0.139092 1.845056,-1.480838 2.045039,-1.484593 0.06468,0 0.292241,0.306634 0.505657,0.68409 l 0.388056,0.686313 -0.102955,0.0971 -0.102983,0.09713 -1.364911,0.02557 -1.364911,0.02556 -0.0031,-0.1312 z m -19.840081,-1.948375 0.112268,-0.611148 0.285778,-0.210425 c 0.157198,-0.115722 0.519514,-0.352478 0.80518,-0.526151 l 0.519402,-0.315726 2.563932,-0.158246 2.563933,-0.158246 0.0034,0.147085 0.0034,0.147086 -1.434733,1.003928 -1.434734,1.003929 -2.050034,0.144531 -2.050006,0.144557 0.112268,-0.611174 z m 4.980827,0.110614 -0.0045,-0.2022 1.408571,-0.962759 1.408599,-0.962758 1.834417,-0.150558 c 1.008944,-0.08281 2.20678,-0.162027 2.661891,-0.176048 l 0.82742,-0.02554 0.0034,0.146931 0.0034,0.146958 -1.434508,0.978696 -1.434535,0.978694 -0.676402,0.09067 c -0.372054,0.04985 -1.557641,0.146778 -2.634686,0.215379 l -1.958227,0.124712 -0.0045,-0.202226 z m 6.441242,-0.374826 -0.0039,-0.168028 1.415091,-1.007274 1.41509,-1.007249 2.084578,-0.17592 c 1.1465,-0.09675 2.32173,-0.159319 2.6116,-0.139066 l 0.52705,0.03683 0.004,0.174107 0.004,0.174132 -1.114608,0.806351 c -0.613043,0.443503 -1.269746,0.883712 -1.459343,0.978236 l -0.344706,0.171858 -2.567517,0.162052 -2.567488,0.162026 -0.0039,-0.168053 z m 6.450105,-0.419393 c 0.004,-0.06513 0.470323,-0.437169 1.036376,-0.826732 l 1.029208,-0.708303 0.264668,0.289676 c 0.14557,0.159319 0.389975,0.443911 0.54308,0.632449 l 0.278441,0.342799 -0.108656,0.166725 -0.108655,0.166725 -1.470801,0.02756 -1.470802,0.02758 0.0071,-0.118455 z M 29.143217,47.19329 c -0.04377,-0.11774 -0.129992,-0.540734 -0.191601,-0.940002 l -0.112014,-0.725951 0.905962,-0.115773 c 0.498291,-0.06367 1.631272,-0.129948 2.517704,-0.147315 l 1.611743,-0.03152 0.0031,0.126371 c 0.0028,0.11963 -1.104956,1.147005 -1.747153,1.620416 l -0.297491,0.219312 -1.305249,0.104305 -1.305222,0.104281 -0.07959,-0.214052 z m 3.726998,-0.163508 c -0.0042,-0.186162 1.537378,-1.574698 1.995678,-1.797459 l 0.376569,-0.183045 2.189509,-0.04104 2.189508,-0.04102 0.0028,0.08995 c 0,0.04949 -0.314621,0.444499 -0.701689,0.877812 l -0.70375,0.787834 -0.540088,0.08446 c -0.297067,0.04646 -1.499644,0.145604 -2.672419,0.220334 l -2.132302,0.135873 -0.0031,-0.133702 z m 6.095408,-0.409944 c 1.97e-4,-0.07793 0.324217,-0.487151 0.720033,-0.909379 l 0.719723,-0.767683 2.219368,-0.13996 2.219367,-0.139933 0.0031,0.142947 c 0.0028,0.07861 -0.335703,0.486334 -0.750034,0.906034 l -0.753307,0.763112 -0.754183,0.01507 c -0.41481,0.0081 -1.40002,0.07276 -2.189367,0.143279 l -1.435213,0.128237 2.54e-4,-0.141721 z m 5.216624,-0.410096 c 0,-0.05044 0.274602,-0.410556 0.612789,-0.800247 l 0.614906,-0.708532 0.59563,-0.01124 0.595601,-0.01124 0.7482,0.615491 0.748199,0.615489 -0.257782,0.161669 -0.257782,0.161668 -1.698836,0.03415 -1.698837,0.03417 -0.0028,-0.09174 z M 28.66104,44.896523 c -0.09948,-0.160162 -0.212146,-0.570386 -0.250359,-0.911627 l -0.06948,-0.620445 2.338013,-0.08737 2.338042,-0.0874 0.146389,0.127113 0.146388,0.127087 -0.64008,0.571893 c -0.352015,0.314526 -0.872913,0.680567 -1.157478,0.813451 l -0.517426,0.241558 -1.076565,0.05846 -1.076565,0.05849 z m 4.541492,-0.840166 0.990318,-0.880442 2.257044,-0.0423 2.257072,-0.04232 0.0031,0.143075 c 0.0028,0.07869 -0.389805,0.476476 -0.870232,0.883968 l -0.873478,0.740866 -2.377158,0.0388 -2.377158,0.03877 0.990318,-0.880443 z m 4.939256,0.275475 c 0.178195,-0.194513 0.552563,-0.556467 0.831906,-0.804358 l 0.507916,-0.450681 1.964972,-0.03683 1.965,-0.03686 0.0028,0.09174 c 0,0.05044 -0.274602,0.410557 -0.612817,0.800247 l -0.614906,0.708532 -2.184061,0.04091 -2.18409,0.04094 0.323991,-0.353678 z m 4.778756,0.066 -0.0051,-0.21709 0.647389,-0.596284 c 0.35608,-0.32796 0.722574,-0.594675 0.814466,-0.592683 0.09189,0.0025 0.523042,0.274837 0.958172,0.606347 l 0.791126,0.602746 -0.09189,0.08666 c -0.05055,0.04768 -0.770806,0.140853 -1.600596,0.207053 l -1.508732,0.120339 -0.0051,-0.217091 z M 27.992653,42.937166 C 27.953703,42.829438 27.830996,42.501708 27.71997,42.208865 27.608944,41.915998 27.515839,41.5768 27.513045,41.455077 l -0.0051,-0.221331 h 1.176641 c 0.647163,-2.55e-4 1.555354,0.03165 2.018227,0.07113 l 0.841559,0.07179 -0.651087,0.634467 c -0.358084,0.348953 -0.860524,0.739001 -1.116499,0.866804 l -0.465385,0.232337 -0.623993,0.01175 -0.623965,0.01175 -0.07084,-0.195867 z m 9.682509,-0.142029 -1.287752,-0.05473 0.878078,-0.773353 0.87805,-0.773379 1.785196,-0.0051 c 0.981823,-0.0028 1.915386,0.03632 2.074559,0.08701 l 0.289391,0.09218 -0.587587,0.63919 -0.587558,0.639192 -1.077299,0.101879 -1.077327,0.101905 -1.287751,-0.05473 z m 4.989378,-0.06193 -1.002989,-0.02851 -0.0028,-0.120319 c 0,-0.06617 0.229616,-0.330336 0.513644,-0.586988 l 0.516382,-0.466642 0.637455,0.553453 0.637456,0.553453 -0.148111,0.06203 c -0.08145,0.0341 -0.59944,0.04919 -1.151071,0.03351 z m -12.155904,0.126039 c 0,-0.03859 0.429429,-0.401592 0.956254,-0.806683 l 0.95789,-0.736498 2.336349,-0.0438 2.33632,-0.04377 0.0034,0.15199 c 0.0028,0.08359 -0.323258,0.442864 -0.722574,0.798356 l -0.726073,0.646368 -2.570028,0.0521 c -1.41351,0.02855 -2.570734,0.02043 -2.571638,-0.01814 z m 5.163227,-1.941323 -0.242739,-0.138913 0.51356,-0.411169 c 0.282448,-0.226157 0.674059,-0.515858 0.870204,-0.643814 l 0.356672,-0.232644 1.597237,0.07253 1.597209,0.07256 0.116501,0.3098 0.11653,0.309801 -0.481669,0.390507 -0.481669,0.390533 -1.859562,0.01 -1.859534,0.0097 -0.24274,-0.138913 z m 4.725473,-0.135081 -0.0051,-0.225903 0.36655,-0.112886 0.366522,-0.112887 0.37434,0.324996 0.374339,0.325023 -0.735725,0.01379 -0.735697,0.01379 -0.0051,-0.225901 z m -12.599303,0.190605 -0.489741,-0.05734 -0.147545,-0.340908 c -0.08114,-0.18749 -0.204188,-0.535064 -0.273417,-0.772357 l -0.125871,-0.431474 0.918125,-0.01609 c 0.50498,-0.0087 1.448421,0.01916 2.096572,0.0624 l 1.178448,0.07849 -0.0031,0.09557 c -0.0028,0.05253 -0.435921,0.405372 -0.965003,0.784029 l -0.961926,0.688483 -0.368413,-0.01686 c -0.202636,-0.0092 -0.5888,-0.04252 -0.858153,-0.07406 z m 2.314984,-0.16624 c -0.0031,-0.130076 0.05337,-0.238978 0.125222,-0.241993 0.07183,-0.0028 0.43846,-0.264543 0.814719,-0.581215 l 0.684079,-0.575723 2.176526,0.06153 c 1.197102,0.03382 2.218351,0.09894 2.269461,0.144735 l 0.09296,0.08324 -0.748876,0.629307 -0.748877,0.629333 -2.329914,0.04367 -2.329885,0.04365 -0.0054,-0.236527 z m 9.291433,-1.515036 -0.11128,-0.155667 0.184517,-0.0036 0.184545,-0.0036 0.0037,0.157684 c 0.0028,0.08673 -0.03099,0.158349 -0.07324,0.159141 -0.04228,0 -0.126915,-0.06862 -0.188129,-0.154237 z m -4.489422,-0.03078 -0.65484,-0.0496 -0.0034,-0.148184 c -0.0028,-0.08147 0.05537,-0.150609 0.127226,-0.153623 0.07183,-0.0028 0.438517,-0.262041 0.814832,-0.575596 l 0.684248,-0.570106 1.222078,0.08048 1.222079,0.08051 0.399514,0.319174 0.399542,0.319174 0.0045,0.203504 0.0045,0.203477 -0.33331,0.169561 -0.333305,0.16956 h -1.449578 c -0.797278,2.56e-4 -1.744274,-0.02171 -2.104418,-0.04896 z m -4.708285,-0.07204 -1.525863,-0.02401 -0.0031,-0.132553 c -0.0028,-0.07289 0.361781,-0.414157 0.807664,-0.75831 l 0.810683,-0.625783 1.310555,0.0064 c 0.720824,0.0036 1.821322,0.04414 2.445569,0.09029 l 1.134985,0.0839 -0.850618,0.708047 -0.850618,0.707996 -0.876751,-0.01609 c -0.482205,-0.0087 -1.56337,-0.02679 -2.402586,-0.03997 z m -3.79874,-0.718417 C 26.300759,38.147562 26.210532,37.794292 26.207541,37.6859 l -0.0056,-0.197067 0.584285,-0.01099 c 0.321367,-0.0062 1.067308,0.02559 1.657633,0.07026 l 1.073375,0.08124 0.0028,0.116029 c 0,0.0638 -0.403803,0.380725 -0.900571,0.704293 l -0.903224,0.588264 -0.556627,0.01047 -0.55657,0.01047 -0.195016,-0.587907 z m 7.944556,-0.935302 -0.828999,-0.04355 -0.0031,-0.135796 c -0.0028,-0.07471 0.300538,-0.362848 0.67166,-0.640366 l 0.674794,-0.504569 1.141363,0.08426 1.141363,0.08423 0.288032,0.380393 0.288007,0.380368 -0.08978,0.225544 -0.08977,0.22557 -1.182286,-0.0064 c -0.65024,-0.0036 -1.555327,-0.02587 -2.011285,-0.04983 z m -2.74749,-0.08518 c -0.240171,-0.02171 -1.123809,-0.07184 -1.963645,-0.111483 l -1.526936,-0.07207 -0.0028,-0.104101 c 0,-0.05726 0.382863,-0.352223 0.853271,-0.655486 l 0.855331,-0.551358 1.958876,0.07535 1.958877,0.07536 0.253943,0.122414 0.253916,0.122438 -0.925322,0.58949 c -0.508932,0.324231 -1.005022,0.580348 -1.102445,0.56916 -0.09739,-0.01124 -0.373606,-0.03803 -0.613805,-0.05971 z m -5.260481,-0.227665 -0.288629,-0.06362 -0.110546,-0.344434 c -0.06079,-0.18943 -0.115288,-0.504058 -0.121045,-0.699159 l -0.01044,-0.354751 0.759798,-0.0143 c 0.417859,-0.0079 1.12745,0.02426 1.576832,0.07154 l 0.81709,0.08579 -0.05774,0.176048 c -0.03175,0.09685 -0.438293,0.413902 -0.903395,0.704599 l -0.845679,0.528551 -0.263765,-0.01328 c -0.14509,-0.0074 -0.393671,-0.04199 -0.552422,-0.07698 z m 7.620057,-1.287627 -1.180874,-0.06834 -0.01157,-0.131558 c -0.0062,-0.07238 0.282899,-0.342032 0.642648,-0.599246 l 0.654078,-0.467639 0.522676,-0.01252 c 0.287471,-0.0066 0.813364,0.02554 1.168654,0.07179 l 0.645978,0.08426 0.194818,0.473922 c 0.10716,0.260662 0.196201,0.534298 0.197894,0.608084 l 0.0031,0.134161 -0.828322,-0.01226 c -0.455563,-0.0069 -1.35969,-0.04308 -2.009168,-0.08065 z m -4.653111,-0.257546 -1.645158,-0.101165 -0.150255,-0.130458 -0.150255,-0.130459 0.863684,-0.529751 0.863685,-0.529753 1.613239,0.07154 1.61321,0.07156 -0.234611,-0.141875 -0.234583,-0.141901 0.742498,-0.516547 0.742471,-0.516548 0.357632,0.07371 c 0.19668,0.04053 0.810401,0.113296 1.363838,0.161669 l 1.006264,0.08793 -0.04154,0.490778 -0.04152,0.490778 -1.743118,0.0038 -1.743089,0.0038 0.404792,0.100065 c 0.222645,0.05501 0.421047,0.156127 0.440944,0.224702 l 0.03612,0.124693 -0.756073,0.480383 -0.756102,0.480383 -0.453446,-0.01329 c -0.2494,-0.0071 -1.193772,-0.05871 -2.098633,-0.114368 z M 25.555777,34.95718 c -0.0661,-0.269907 -0.122626,-0.598097 -0.125645,-0.729296 l -0.0054,-0.23857 1.352917,0.08467 1.352917,0.08467 0.143736,0.123333 0.143736,0.123308 -0.841756,0.511388 -0.841728,0.511389 -0.52928,0.01 -0.529251,0.01 -0.12017,-0.490727 z m 2.515644,-0.977674 c -0.510935,-0.05756 -0.965369,-0.136281 -1.009876,-0.174924 -0.08706,-0.0756 1.046678,-0.814906 1.474668,-0.961634 l 0.259447,-0.08893 1.309737,0.102263 c 0.720344,0.05623 1.585214,0.143101 1.921933,0.193006 l 0.612197,0.09074 -0.592808,0.468762 -0.592808,0.468787 -1.226763,0.0033 c -0.674709,0.0025 -1.644763,-0.0438 -2.155727,-0.101369 z m -2.589417,-0.336924 -0.103406,-0.229503 0.155391,-0.44192 0.155392,-0.441945 0.853948,0.02901 c 0.469674,0.01584 0.961559,0.06084 1.093103,0.09971 l 0.239155,0.07067 -0.200603,0.228201 c -0.256484,0.291718 -1.485872,0.903939 -1.828123,0.91035 l -0.261479,0.0049 -0.103378,-0.229478 z m 7.15185,-0.74978 -1.2238,-0.155794 0.947025,-0.513432 0.946996,-0.513406 1.352296,0.05749 1.352296,0.05752 0.0096,0.420773 0.0096,0.420797 -0.20478,0.193135 -0.204752,0.193133 -0.880364,-0.0025 c -0.484209,0 -1.431064,-0.07231 -2.104164,-0.158017 z m -3.798598,-0.339197 c -0.647898,-0.04753 -1.224591,-0.126883 -1.281515,-0.176329 l -0.103547,-0.08987 0.779046,-0.433006 0.779046,-0.433032 1.710577,0.07749 c 0.940788,0.0426 1.77419,0.109006 1.851971,0.147545 l 0.141393,0.07008 -0.788726,0.47364 -0.788699,0.473666 -0.560775,-0.01175 c -0.308413,-0.0066 -1.090845,-0.05078 -1.738771,-0.0983 z m -2.707669,-0.222812 -0.393615,-0.06099 -0.0031,-0.139296 c -0.0028,-0.07662 0.08368,-0.321728 0.189822,-0.544718 l 0.19304,-0.405423 0.383315,-0.0071 c 0.21082,-0.0041 0.748142,0.03113 1.194054,0.07794 l 0.810711,0.08513 0.0028,0.111176 c 0.0031,0.135669 -1.620379,0.989089 -1.831904,0.963014 -0.08314,-0.01022 -0.328281,-0.0461 -0.544774,-0.07966 z m 9.229824,-0.91109 0.0876,-0.220054 -0.475149,0.172549 -0.475149,0.172574 -1.645694,-0.111584 -1.645667,-0.111585 0.03903,-0.19791 0.03906,-0.197935 -0.163971,0.0031 c -0.09017,0.0025 -0.21573,0.08254 -0.279033,0.179674 l -0.115118,0.17661 -1.331158,-0.08278 c -0.732169,-0.04554 -1.519259,-0.119426 -1.7491,-0.164198 l -0.417887,-0.08139 0.408799,-0.316211 0.408799,-0.316263 -0.64993,0.358608 -0.649929,0.358608 -0.254875,-0.08306 -0.254875,-0.08309 0.289786,-0.489782 0.289757,-0.489782 0.697992,0.03109 0.697992,0.03109 -0.04137,0.20473 -0.04137,0.204729 0.379307,-0.192981 0.379335,-0.192955 1.450961,0.06536 1.450961,0.06538 0.308243,0.154823 0.308243,0.15485 -0.184404,0.0081 c -0.101402,0.0046 -0.33401,0.124177 -0.516862,0.265847 l -0.332486,0.257597 0.689018,-0.361545 0.688989,-0.361545 1.652467,0.07836 c 0.908841,0.04309 1.725253,0.117204 1.814238,0.164708 l 0.161826,0.08635 -0.408714,0.315292 -0.408715,0.315267 0.302881,-0.09427 0.30291,-0.0943 0.0071,0.310414 0.0071,0.310414 -0.454265,0.0084 -0.454237,0.0084 0.08757,-0.220053 z m -0.870486,-1.342795 -0.11128,-0.155666 0.151215,-0.0028 c 0.08317,-0.0025 0.300933,-0.115289 0.483898,-0.252771 l 0.332655,-0.249934 -0.761548,0.353346 -0.761549,0.353347 -1.467104,-0.08296 -1.467104,-0.08296 0.09779,-0.245695 0.09779,-0.245696 -0.265543,0.207973 -0.265543,0.207998 -1.514263,-0.07685 -1.514263,-0.07682 -0.130726,-0.182841 -0.130725,-0.182841 0.171252,-0.304591 0.171281,-0.304591 0.464792,0.06498 0.464792,0.06498 0.432844,-0.128135 0.432872,-0.128134 -0.624727,-0.0041 c -0.343605,-0.0025 -0.674821,-0.0475 -0.736063,-0.100653 l -0.111309,-0.09664 0.869047,-0.942965 0.869047,-0.94294 0.539806,-0.02582 0.539807,-0.02585 -0.398244,-0.09511 -0.398272,-0.09514 0.26701,-0.359936 0.266983,-0.359961 0.280529,-0.0053 0.280528,-0.0051 -0.118956,-0.103284 -0.118957,-0.103284 0.282138,-0.294145 c 0.155165,-0.161796 0.369005,-0.29578 0.475177,-0.297771 l 0.19304,-0.0035 0.163971,-0.355211 0.163943,-0.355237 0.431095,-0.205725 c 0.237095,-0.113169 0.360256,-0.20547 0.273671,-0.205138 h -0.157396 l 0.37434,-0.306302 0.374339,-0.306327 0.299805,0.0344 0.299833,0.03442 -0.219371,-0.0637 c -0.287641,-0.08352 -0.282392,-0.272487 0.01411,-0.504647 l 0.239155,-0.18731 3.065949,-0.0025 3.065978,-0.0025 0.116953,0.101548 0.116981,0.101572 -0.221178,0.251596 -0.221177,0.251595 -0.540936,-0.09419 -0.540907,-0.09417 0.148336,0.133958 c 0.08156,0.07368 0.220416,0.141492 0.308497,0.150686 0.08811,0.0092 0.236333,0.02426 0.32941,0.03325 l 0.169221,0.0166 -0.106201,0.278081 c -0.05839,0.152933 -0.157254,0.3145 -0.219681,0.359042 -0.144159,0.102901 -1.084044,1.671852 -1.4097,2.353286 l -0.247255,0.51734 -0.705866,0.01328 -0.705866,0.01328 -0.0028,-0.118276 -0.0028,-0.118276 -1.436257,0.05241 -1.436257,0.05238 -0.09025,-0.102647 -0.09028,-0.10267 -1.30477,0.114343 c -0.717635,0.0629 -1.162643,0.124482 -0.988907,0.136844 l 0.315835,0.02248 -0.114441,0.175639 -0.114469,0.175638 0.382326,-0.194487 0.382327,-0.194487 1.243753,0.07825 c 0.684079,0.04303 1.274967,0.105352 1.313124,0.138478 0.03816,0.03312 -0.19098,0.210628 -0.509186,0.394492 l -0.578555,0.334242 -1.132812,0.01072 -1.13284,0.01072 -0.329918,-0.110206 -0.329889,-0.110179 -0.542093,0.09297 -0.542092,0.09296 0.960938,0.0946 c 0.528489,0.05203 1.742863,0.112503 2.698581,0.134392 l 1.737699,0.03979 0.05269,0.134774 0.05266,0.134775 1.131795,-0.07412 1.131796,-0.07412 -0.0031,0.131838 c -0.0028,0.07251 -0.104704,0.306174 -0.228854,0.519255 l -0.225693,0.387392 -1.110008,0.0097 -1.110037,0.0097 0.480851,0.06311 0.480822,0.06309 0.0031,0.143842 0.0031,0.143841 0.436174,-0.189813 0.436174,-0.18984 0.159456,0.142616 0.159427,0.142589 -0.0841,0.435408 -0.0841,0.435381 -0.927749,0.01737 -0.927749,0.01737 -0.111309,-0.155667 z m -2.635306,-0.89712 0.104083,-0.159702 1.2527,-0.03594 1.2527,-0.03596 -0.220726,-0.07575 -0.220698,-0.07575 0.105579,-0.162001 0.105552,-0.162 -0.384444,0.195585 -0.384471,0.195561 -1.388533,-0.08505 -1.388562,-0.08505 0.08701,-0.218623 0.08701,-0.218649 -0.326503,0.19316 -0.326474,0.193134 0.08901,0.124508 0.08901,0.124507 0.686703,-0.01302 0.686703,-0.01302 0.0031,0.144557 c 0.0028,0.07948 -0.09389,0.182151 -0.212683,0.228149 l -0.215984,0.08362 0.2078,0.0087 c 0.1143,0.0046 0.254649,-0.06331 0.311884,-0.151146 z m 5.933468,-3.519778 c 0,-0.03407 -0.217029,-0.05682 -0.48054,-0.05057 l -0.479128,0.01124 0.248807,0.136077 0.248779,0.136077 0.231761,-0.08551 c 0.127451,-0.04702 0.231111,-0.113372 0.230321,-0.147468 z m -3.072299,0.02833 0.08249,-0.126578 -0.55499,-0.02299 -0.555019,-0.02299 0.264951,0.151147 c 0.321592,0.183454 0.651002,0.192776 0.762564,0.02171 z m 1.589814,-0.06252 c -0.193379,-0.07095 -0.469307,-0.130689 -0.613156,-0.132757 l -0.261564,-0.0038 0.264838,0.147953 c 0.145683,0.08139 0.421611,0.141134 0.613184,0.132757 l 0.34829,-0.01507 -0.351592,-0.128977 z m 1.313321,-0.813375 0.518753,-0.0097 -0.08342,-0.116744 -0.08342,-0.116769 -0.910619,0.07319 -0.910646,0.0732 0.244997,0.134826 0.244997,0.134801 0.230322,-0.08153 c 0.126633,-0.04485 0.463719,-0.08592 0.749046,-0.09125 z m -2.119997,-0.157454 -0.0028,-0.118276 -1.436991,0.04932 -1.437019,0.04932 0.699177,0.08283 c 0.384556,0.04556 1.032426,0.07657 1.439729,0.06893 l 0.740523,-0.01379 -0.0028,-0.118251 z m 3.643433,-0.755629 c 0,-0.03407 -0.217029,-0.05682 -0.48054,-0.05057 l -0.479129,0.01124 0.248807,0.136077 0.248779,0.136078 0.231733,-0.08548 c 0.12748,-0.04704 0.23114,-0.113397 0.23035,-0.147494 z m -5.01334,-0.07251 -0.219653,-0.07545 -0.215985,0.08362 -0.215984,0.08362 0.43561,-0.0081 0.435638,-0.0081 -0.219626,-0.07547 z m 1.483022,-0.03172 c -0.167499,-0.03634 -0.481189,-0.0319 -0.697061,0.01 l -0.392515,0.07595 0.697061,-0.01 0.697033,-0.01 -0.304518,-0.06607 z m 0.548696,-0.690654 c -0.0028,-0.08673 -0.08201,-0.156228 -0.177856,-0.154415 -0.09584,0.0025 -0.172636,0.07422 -0.170632,0.160953 0.0028,0.08673 0.08201,0.156203 0.177857,0.154416 0.09581,-0.0025 0.172607,-0.07422 0.170631,-0.160954 z m 2.512907,-0.02641 0.09045,-0.138784 -0.998051,0.02018 -0.99805,0.02018 0.699572,0.09994 c 1.042698,0.148975 1.107835,0.148873 1.206077,-0.0025 z m -3.085028,-0.05815 -0.107442,-0.0933 -0.226793,0.08709 -0.226822,0.08712 0.334264,0.0062 0.334264,0.0062 -0.107471,-0.0933 z m 1.375044,4.683793 -0.0028,-0.118251 -1.567435,0.07999 -1.567462,0.08002 -0.0028,-0.129488 c 0,-0.0712 0.297378,-0.291463 0.662799,-0.48945 l 0.664436,-0.359987 1.245136,0.071 1.245136,0.07103 0.0031,0.139755 c 0.0028,0.07688 -0.10857,0.181003 -0.245166,0.231393 l -0.248384,0.09164 0.09988,0.221713 0.09988,0.221688 -0.192899,0.0035 c -0.106087,0.0025 -0.193915,-0.0496 -0.195185,-0.11465 z"
         id="path4286-5"
         inkscape:connector-curvature="0" />
      <text
         xml:space="preserve"
         style="font-style:normal;font-variant:normal;font-weight:bold;font-stretch:normal;font-size:7.76111px;line-height:1.25;font-family:FreeSans;-inkscape-font-specification:'FreeSans Bold';letter-spacing:0px;word-spacing:0px;fill:#000000;fill-opacity:1;stroke:none;stroke-width:0.264583"
         x="8.8014641"
         y="14.513526"
         id="text915"><tspan
           sodipodi:role="line"
           id="tspan913"
           x="8.8014641"
           y="14.513526"
           style="font-style:normal;font-variant:normal;font-weight:bold;font-stretch:normal;font-size:7.76111px;font-family:FreeSans;-inkscape-font-specification:'FreeSans Bold';stroke-width:0.264583">Longest Road</tspan></text>
      <path
         style="fill:none;stroke:#000000;stroke-width:1;stroke-linecap:round;stroke-linejoin:miter;stroke-miterlimit:4;stroke-dasharray:none;stroke-opacity:1"
         d="m 7.0312164,21.891469 55.9375676,-0.0037"
         id="path917" />
    </g>
  </g>
</svg>
