G04 #@! TF.GenerationSoftware,KiCad,Pcbnew,5.1.5+dfsg1-2build2*
G04 #@! TF.CreationDate,2021-04-24T09:34:16-04:00*
G04 #@! TF.ProjectId,9,392e6b69-6361-4645-9f70-636258585858,rev?*
G04 #@! TF.SameCoordinates,Original*
G04 #@! TF.FileFunction,Legend,Top*
G04 #@! TF.FilePolarity,Positive*
%FSLAX46Y46*%
G04 Gerber Fmt 4.6, Leading zero omitted, Abs format (unit mm)*
G04 Created by KiCad (PCBNEW 5.1.5+dfsg1-2build2) date 2021-04-24 09:34:16*
%MOMM*%
%LPD*%
G04 APERTURE LIST*
%ADD10C,0.010000*%
G04 APERTURE END LIST*
D10*
G36*
X-3325321Y-2526503D02*
G01*
X-3173849Y-2575925D01*
X-3158062Y-2583562D01*
X-3022388Y-2670770D01*
X-2923003Y-2779296D01*
X-2859076Y-2910503D01*
X-2829775Y-3065750D01*
X-2827551Y-3124730D01*
X-2830608Y-3217958D01*
X-2843909Y-3290315D01*
X-2872274Y-3362915D01*
X-2890214Y-3399292D01*
X-2967086Y-3513036D01*
X-3068495Y-3610196D01*
X-3182595Y-3680473D01*
X-3237688Y-3701423D01*
X-3339494Y-3719338D01*
X-3459631Y-3722108D01*
X-3577119Y-3710255D01*
X-3653677Y-3691104D01*
X-3770308Y-3629387D01*
X-3876919Y-3534065D01*
X-3963902Y-3413859D01*
X-3968949Y-3404845D01*
X-4001755Y-3339410D01*
X-4020644Y-3281159D01*
X-4029274Y-3213515D01*
X-4031300Y-3122084D01*
X-4029181Y-3029134D01*
X-4020385Y-2961833D01*
X-4001258Y-2903601D01*
X-3968949Y-2839322D01*
X-3874809Y-2708227D01*
X-3757550Y-2609560D01*
X-3622998Y-2545159D01*
X-3476979Y-2516861D01*
X-3325321Y-2526503D01*
G37*
X-3325321Y-2526503D02*
X-3173849Y-2575925D01*
X-3158062Y-2583562D01*
X-3022388Y-2670770D01*
X-2923003Y-2779296D01*
X-2859076Y-2910503D01*
X-2829775Y-3065750D01*
X-2827551Y-3124730D01*
X-2830608Y-3217958D01*
X-2843909Y-3290315D01*
X-2872274Y-3362915D01*
X-2890214Y-3399292D01*
X-2967086Y-3513036D01*
X-3068495Y-3610196D01*
X-3182595Y-3680473D01*
X-3237688Y-3701423D01*
X-3339494Y-3719338D01*
X-3459631Y-3722108D01*
X-3577119Y-3710255D01*
X-3653677Y-3691104D01*
X-3770308Y-3629387D01*
X-3876919Y-3534065D01*
X-3963902Y-3413859D01*
X-3968949Y-3404845D01*
X-4001755Y-3339410D01*
X-4020644Y-3281159D01*
X-4029274Y-3213515D01*
X-4031300Y-3122084D01*
X-4029181Y-3029134D01*
X-4020385Y-2961833D01*
X-4001258Y-2903601D01*
X-3968949Y-2839322D01*
X-3874809Y-2708227D01*
X-3757550Y-2609560D01*
X-3622998Y-2545159D01*
X-3476979Y-2516861D01*
X-3325321Y-2526503D01*
G36*
X-1738027Y-2526482D02*
G01*
X-1586536Y-2575840D01*
X-1570492Y-2583597D01*
X-1435300Y-2671373D01*
X-1335695Y-2781977D01*
X-1271452Y-2915773D01*
X-1242351Y-3073124D01*
X-1240441Y-3124730D01*
X-1243183Y-3217480D01*
X-1256069Y-3289234D01*
X-1283858Y-3360984D01*
X-1302714Y-3399292D01*
X-1379586Y-3513036D01*
X-1480995Y-3610196D01*
X-1595095Y-3680473D01*
X-1650188Y-3701423D01*
X-1751994Y-3719338D01*
X-1872131Y-3722108D01*
X-1989619Y-3710255D01*
X-2066177Y-3691104D01*
X-2182699Y-3629451D01*
X-2289453Y-3534122D01*
X-2376890Y-3413772D01*
X-2381924Y-3404845D01*
X-2414797Y-3340034D01*
X-2433712Y-3282893D01*
X-2442286Y-3216976D01*
X-2444137Y-3125838D01*
X-2444124Y-3122084D01*
X-2441587Y-3028628D01*
X-2432330Y-2960721D01*
X-2412648Y-2901685D01*
X-2381299Y-2839322D01*
X-2287349Y-2708281D01*
X-2170203Y-2609633D01*
X-2035705Y-2545222D01*
X-1889698Y-2516891D01*
X-1738027Y-2526482D01*
G37*
X-1738027Y-2526482D02*
X-1586536Y-2575840D01*
X-1570492Y-2583597D01*
X-1435300Y-2671373D01*
X-1335695Y-2781977D01*
X-1271452Y-2915773D01*
X-1242351Y-3073124D01*
X-1240441Y-3124730D01*
X-1243183Y-3217480D01*
X-1256069Y-3289234D01*
X-1283858Y-3360984D01*
X-1302714Y-3399292D01*
X-1379586Y-3513036D01*
X-1480995Y-3610196D01*
X-1595095Y-3680473D01*
X-1650188Y-3701423D01*
X-1751994Y-3719338D01*
X-1872131Y-3722108D01*
X-1989619Y-3710255D01*
X-2066177Y-3691104D01*
X-2182699Y-3629451D01*
X-2289453Y-3534122D01*
X-2376890Y-3413772D01*
X-2381924Y-3404845D01*
X-2414797Y-3340034D01*
X-2433712Y-3282893D01*
X-2442286Y-3216976D01*
X-2444137Y-3125838D01*
X-2444124Y-3122084D01*
X-2441587Y-3028628D01*
X-2432330Y-2960721D01*
X-2412648Y-2901685D01*
X-2381299Y-2839322D01*
X-2287349Y-2708281D01*
X-2170203Y-2609633D01*
X-2035705Y-2545222D01*
X-1889698Y-2516891D01*
X-1738027Y-2526482D01*
G36*
X-149454Y-2526648D02*
G01*
X2080Y-2576362D01*
X17008Y-2583597D01*
X152200Y-2671373D01*
X251805Y-2781977D01*
X316048Y-2915773D01*
X345149Y-3073124D01*
X347059Y-3124730D01*
X344317Y-3217480D01*
X331431Y-3289234D01*
X303642Y-3360984D01*
X284786Y-3399292D01*
X207914Y-3513036D01*
X106505Y-3610196D01*
X-7595Y-3680473D01*
X-62688Y-3701423D01*
X-164494Y-3719338D01*
X-284631Y-3722108D01*
X-402119Y-3710255D01*
X-478677Y-3691104D01*
X-589995Y-3632756D01*
X-694375Y-3543711D01*
X-779384Y-3435245D01*
X-799479Y-3400168D01*
X-830190Y-3334034D01*
X-847679Y-3271410D01*
X-855396Y-3195575D01*
X-856841Y-3122084D01*
X-855019Y-3029665D01*
X-846593Y-2963003D01*
X-827927Y-2905626D01*
X-795386Y-2841060D01*
X-794424Y-2839322D01*
X-699649Y-2708004D01*
X-582007Y-2609263D01*
X-447255Y-2544913D01*
X-301151Y-2516770D01*
X-149454Y-2526648D01*
G37*
X-149454Y-2526648D02*
X2080Y-2576362D01*
X17008Y-2583597D01*
X152200Y-2671373D01*
X251805Y-2781977D01*
X316048Y-2915773D01*
X345149Y-3073124D01*
X347059Y-3124730D01*
X344317Y-3217480D01*
X331431Y-3289234D01*
X303642Y-3360984D01*
X284786Y-3399292D01*
X207914Y-3513036D01*
X106505Y-3610196D01*
X-7595Y-3680473D01*
X-62688Y-3701423D01*
X-164494Y-3719338D01*
X-284631Y-3722108D01*
X-402119Y-3710255D01*
X-478677Y-3691104D01*
X-589995Y-3632756D01*
X-694375Y-3543711D01*
X-779384Y-3435245D01*
X-799479Y-3400168D01*
X-830190Y-3334034D01*
X-847679Y-3271410D01*
X-855396Y-3195575D01*
X-856841Y-3122084D01*
X-855019Y-3029665D01*
X-846593Y-2963003D01*
X-827927Y-2905626D01*
X-795386Y-2841060D01*
X-794424Y-2839322D01*
X-699649Y-2708004D01*
X-582007Y-2609263D01*
X-447255Y-2544913D01*
X-301151Y-2516770D01*
X-149454Y-2526648D01*
G36*
X1438046Y-2526648D02*
G01*
X1589580Y-2576362D01*
X1604508Y-2583597D01*
X1739700Y-2671373D01*
X1839305Y-2781977D01*
X1903548Y-2915773D01*
X1932649Y-3073124D01*
X1934559Y-3124730D01*
X1931817Y-3217480D01*
X1918931Y-3289234D01*
X1891142Y-3360984D01*
X1872286Y-3399292D01*
X1795414Y-3513036D01*
X1694005Y-3610196D01*
X1579905Y-3680473D01*
X1524812Y-3701423D01*
X1423006Y-3719338D01*
X1302869Y-3722108D01*
X1185381Y-3710255D01*
X1108823Y-3691104D01*
X997505Y-3632756D01*
X893125Y-3543711D01*
X808116Y-3435245D01*
X788021Y-3400168D01*
X757310Y-3334034D01*
X739821Y-3271410D01*
X732104Y-3195575D01*
X730659Y-3122084D01*
X732481Y-3029665D01*
X740907Y-2963003D01*
X759573Y-2905626D01*
X792114Y-2841060D01*
X793076Y-2839322D01*
X887851Y-2708004D01*
X1005493Y-2609263D01*
X1140245Y-2544913D01*
X1286349Y-2516770D01*
X1438046Y-2526648D01*
G37*
X1438046Y-2526648D02*
X1589580Y-2576362D01*
X1604508Y-2583597D01*
X1739700Y-2671373D01*
X1839305Y-2781977D01*
X1903548Y-2915773D01*
X1932649Y-3073124D01*
X1934559Y-3124730D01*
X1931817Y-3217480D01*
X1918931Y-3289234D01*
X1891142Y-3360984D01*
X1872286Y-3399292D01*
X1795414Y-3513036D01*
X1694005Y-3610196D01*
X1579905Y-3680473D01*
X1524812Y-3701423D01*
X1423006Y-3719338D01*
X1302869Y-3722108D01*
X1185381Y-3710255D01*
X1108823Y-3691104D01*
X997505Y-3632756D01*
X893125Y-3543711D01*
X808116Y-3435245D01*
X788021Y-3400168D01*
X757310Y-3334034D01*
X739821Y-3271410D01*
X732104Y-3195575D01*
X730659Y-3122084D01*
X732481Y-3029665D01*
X740907Y-2963003D01*
X759573Y-2905626D01*
X792114Y-2841060D01*
X793076Y-2839322D01*
X887851Y-2708004D01*
X1005493Y-2609263D01*
X1140245Y-2544913D01*
X1286349Y-2516770D01*
X1438046Y-2526648D01*
G36*
X-812316Y3566186D02*
G01*
X-572705Y3521547D01*
X-357906Y3445517D01*
X-165162Y3337168D01*
X-22581Y3224414D01*
X131602Y3061862D01*
X263405Y2873338D01*
X373283Y2657220D01*
X461694Y2411889D01*
X529092Y2135723D01*
X575934Y1827104D01*
X602676Y1484410D01*
X609775Y1106022D01*
X608121Y984250D01*
X596400Y672768D01*
X573920Y395262D01*
X539378Y144447D01*
X491474Y-86963D01*
X428906Y-306256D01*
X350373Y-520718D01*
X330958Y-567657D01*
X208416Y-808509D01*
X56318Y-1022657D01*
X-122529Y-1207394D01*
X-325319Y-1360011D01*
X-549244Y-1477801D01*
X-654127Y-1518029D01*
X-726652Y-1540976D01*
X-794767Y-1557127D01*
X-869399Y-1567940D01*
X-961476Y-1574871D01*
X-1081924Y-1579377D01*
X-1121833Y-1580394D01*
X-1255075Y-1582480D01*
X-1356883Y-1580924D01*
X-1438063Y-1574922D01*
X-1509417Y-1563670D01*
X-1581753Y-1546363D01*
X-1582844Y-1546068D01*
X-1812571Y-1463975D01*
X-2015319Y-1349379D01*
X-2190704Y-1202713D01*
X-2338344Y-1024409D01*
X-2457853Y-814902D01*
X-2548848Y-574625D01*
X-2591402Y-407459D01*
X-2619497Y-275167D01*
X-1976512Y-275167D01*
X-1937648Y-404909D01*
X-1870582Y-567465D01*
X-1774312Y-714517D01*
X-1655270Y-839089D01*
X-1519889Y-934206D01*
X-1402916Y-984791D01*
X-1255795Y-1013305D01*
X-1092063Y-1015586D01*
X-927375Y-992807D01*
X-777387Y-946137D01*
X-755331Y-936313D01*
X-595162Y-838023D01*
X-454802Y-702648D01*
X-334448Y-530621D01*
X-234299Y-322374D01*
X-154550Y-78338D01*
X-95399Y201054D01*
X-57044Y515372D01*
X-50112Y608735D01*
X-35869Y829048D01*
X-146184Y721598D01*
X-342324Y557933D01*
X-554693Y432901D01*
X-782144Y347128D01*
X-869824Y325482D01*
X-997685Y307864D01*
X-1150673Y301673D01*
X-1313303Y306398D01*
X-1470086Y321532D01*
X-1605535Y346565D01*
X-1619250Y350111D01*
X-1851099Y432995D01*
X-2059471Y549381D01*
X-2242587Y696423D01*
X-2398670Y871276D01*
X-2525945Y1071092D01*
X-2622633Y1293027D01*
X-2686958Y1534234D01*
X-2717143Y1791868D01*
X-2715552Y1867184D01*
X-2058356Y1867184D01*
X-2047853Y1721711D01*
X-2026097Y1597375D01*
X-2025006Y1593116D01*
X-1955049Y1395960D01*
X-1855904Y1226731D01*
X-1729616Y1087584D01*
X-1578229Y980672D01*
X-1403786Y908152D01*
X-1365250Y897700D01*
X-1227683Y875958D01*
X-1073050Y871216D01*
X-922475Y883373D01*
X-836963Y900243D01*
X-642151Y971719D01*
X-471344Y1077752D01*
X-326254Y1216915D01*
X-208590Y1387776D01*
X-174962Y1453205D01*
X-140202Y1529476D01*
X-117199Y1592040D01*
X-103021Y1654407D01*
X-94738Y1730088D01*
X-89417Y1832596D01*
X-88705Y1850812D01*
X-93029Y2071323D01*
X-125570Y2264688D01*
X-188559Y2437184D01*
X-284229Y2595084D01*
X-402166Y2731983D01*
X-537759Y2851497D01*
X-677668Y2935532D01*
X-833588Y2990297D01*
X-924358Y3009180D01*
X-1122158Y3022585D01*
X-1311259Y2996459D01*
X-1487896Y2933317D01*
X-1648307Y2835673D01*
X-1788727Y2706040D01*
X-1905392Y2546934D01*
X-1994540Y2360867D01*
X-2022833Y2275416D01*
X-2045796Y2159536D01*
X-2057654Y2018292D01*
X-2058356Y1867184D01*
X-2715552Y1867184D01*
X-2711411Y2063082D01*
X-2708426Y2094456D01*
X-2661530Y2366707D01*
X-2579392Y2617447D01*
X-2462872Y2845132D01*
X-2312828Y3048217D01*
X-2130118Y3225157D01*
X-2042683Y3292134D01*
X-1853302Y3409791D01*
X-1657553Y3494806D01*
X-1447391Y3549585D01*
X-1214769Y3576537D01*
X-1079500Y3580363D01*
X-812316Y3566186D01*
G37*
X-812316Y3566186D02*
X-572705Y3521547D01*
X-357906Y3445517D01*
X-165162Y3337168D01*
X-22581Y3224414D01*
X131602Y3061862D01*
X263405Y2873338D01*
X373283Y2657220D01*
X461694Y2411889D01*
X529092Y2135723D01*
X575934Y1827104D01*
X602676Y1484410D01*
X609775Y1106022D01*
X608121Y984250D01*
X596400Y672768D01*
X573920Y395262D01*
X539378Y144447D01*
X491474Y-86963D01*
X428906Y-306256D01*
X350373Y-520718D01*
X330958Y-567657D01*
X208416Y-808509D01*
X56318Y-1022657D01*
X-122529Y-1207394D01*
X-325319Y-1360011D01*
X-549244Y-1477801D01*
X-654127Y-1518029D01*
X-726652Y-1540976D01*
X-794767Y-1557127D01*
X-869399Y-1567940D01*
X-961476Y-1574871D01*
X-1081924Y-1579377D01*
X-1121833Y-1580394D01*
X-1255075Y-1582480D01*
X-1356883Y-1580924D01*
X-1438063Y-1574922D01*
X-1509417Y-1563670D01*
X-1581753Y-1546363D01*
X-1582844Y-1546068D01*
X-1812571Y-1463975D01*
X-2015319Y-1349379D01*
X-2190704Y-1202713D01*
X-2338344Y-1024409D01*
X-2457853Y-814902D01*
X-2548848Y-574625D01*
X-2591402Y-407459D01*
X-2619497Y-275167D01*
X-1976512Y-275167D01*
X-1937648Y-404909D01*
X-1870582Y-567465D01*
X-1774312Y-714517D01*
X-1655270Y-839089D01*
X-1519889Y-934206D01*
X-1402916Y-984791D01*
X-1255795Y-1013305D01*
X-1092063Y-1015586D01*
X-927375Y-992807D01*
X-777387Y-946137D01*
X-755331Y-936313D01*
X-595162Y-838023D01*
X-454802Y-702648D01*
X-334448Y-530621D01*
X-234299Y-322374D01*
X-154550Y-78338D01*
X-95399Y201054D01*
X-57044Y515372D01*
X-50112Y608735D01*
X-35869Y829048D01*
X-146184Y721598D01*
X-342324Y557933D01*
X-554693Y432901D01*
X-782144Y347128D01*
X-869824Y325482D01*
X-997685Y307864D01*
X-1150673Y301673D01*
X-1313303Y306398D01*
X-1470086Y321532D01*
X-1605535Y346565D01*
X-1619250Y350111D01*
X-1851099Y432995D01*
X-2059471Y549381D01*
X-2242587Y696423D01*
X-2398670Y871276D01*
X-2525945Y1071092D01*
X-2622633Y1293027D01*
X-2686958Y1534234D01*
X-2717143Y1791868D01*
X-2715552Y1867184D01*
X-2058356Y1867184D01*
X-2047853Y1721711D01*
X-2026097Y1597375D01*
X-2025006Y1593116D01*
X-1955049Y1395960D01*
X-1855904Y1226731D01*
X-1729616Y1087584D01*
X-1578229Y980672D01*
X-1403786Y908152D01*
X-1365250Y897700D01*
X-1227683Y875958D01*
X-1073050Y871216D01*
X-922475Y883373D01*
X-836963Y900243D01*
X-642151Y971719D01*
X-471344Y1077752D01*
X-326254Y1216915D01*
X-208590Y1387776D01*
X-174962Y1453205D01*
X-140202Y1529476D01*
X-117199Y1592040D01*
X-103021Y1654407D01*
X-94738Y1730088D01*
X-89417Y1832596D01*
X-88705Y1850812D01*
X-93029Y2071323D01*
X-125570Y2264688D01*
X-188559Y2437184D01*
X-284229Y2595084D01*
X-402166Y2731983D01*
X-537759Y2851497D01*
X-677668Y2935532D01*
X-833588Y2990297D01*
X-924358Y3009180D01*
X-1122158Y3022585D01*
X-1311259Y2996459D01*
X-1487896Y2933317D01*
X-1648307Y2835673D01*
X-1788727Y2706040D01*
X-1905392Y2546934D01*
X-1994540Y2360867D01*
X-2022833Y2275416D01*
X-2045796Y2159536D01*
X-2057654Y2018292D01*
X-2058356Y1867184D01*
X-2715552Y1867184D01*
X-2711411Y2063082D01*
X-2708426Y2094456D01*
X-2661530Y2366707D01*
X-2579392Y2617447D01*
X-2462872Y2845132D01*
X-2312828Y3048217D01*
X-2130118Y3225157D01*
X-2042683Y3292134D01*
X-1853302Y3409791D01*
X-1657553Y3494806D01*
X-1447391Y3549585D01*
X-1214769Y3576537D01*
X-1079500Y3580363D01*
X-812316Y3566186D01*
M02*
