<?xml version="1.0" encoding="UTF-8" standalone="no"?>
<svg
   xmlns:dc="http://purl.org/dc/elements/1.1/"
   xmlns:cc="http://creativecommons.org/ns#"
   xmlns:rdf="http://www.w3.org/1999/02/22-rdf-syntax-ns#"
   xmlns:svg="http://www.w3.org/2000/svg"
   xmlns="http://www.w3.org/2000/svg"
   xmlns:sodipodi="http://sodipodi.sourceforge.net/DTD/sodipodi-0.dtd"
   xmlns:inkscape="http://www.inkscape.org/namespaces/inkscape"
   width="100.0mm"
   height="100.0mm"
   viewBox="0 0 100.0 100.0"
   version="1.1"
   id="svg8"
   sodipodi:docname="ocean_3-1.svg"
   inkscape:version="1.0.1 (0767f8302a, 2020-10-17)">
  <defs
     id="defs2" />
  <sodipodi:namedview
     id="base"
     pagecolor="#ffffff"
     bordercolor="#666666"
     borderopacity="1.0"
     inkscape:pageopacity="0.0"
     inkscape:pageshadow="2"
     inkscape:zoom="2.492375"
     inkscape:cx="188.97638"
     inkscape:cy="188.97638"
     inkscape:document-units="mm"
     inkscape:current-layer="g842"
     inkscape:document-rotation="0"
     showgrid="false"
     inkscape:window-width="2056"
     inkscape:window-height="1133"
     inkscape:window-x="72"
     inkscape:window-y="27"
     inkscape:window-maximized="1" />
  <metadata
     id="metadata5">
    <rdf:RDF>
      <cc:Work
         rdf:about="">
        <dc:format>image/svg+xml</dc:format>
        <dc:type
           rdf:resource="http://purl.org/dc/dcmitype/StillImage" />
        <dc:title></dc:title>
      </cc:Work>
    </rdf:RDF>
  </metadata>
  <g
     inkscape:label="[fixed] BG"
     inkscape:groupmode="layer"
     sodipodi:insensitive="true"
     id="g838"
     style="display:inline">
    <rect
       x="0"
       y="0"
       width="100"
       height="100"
       style="fill:#ffffff;fill-opacity:1;stroke:none"
       id="rect836" />
  </g>
  <g
     inkscape:label="Edge.Cuts"
     inkscape:groupmode="layer"
     id="g840"
     style="display:inline">
    <path
       id="path864"
       style="fill:none;stroke:#000600;stroke-width:0.104494;stroke-opacity:1"
       d="M 64.9801 75.9228 L 35.0404 75.9346 L 20.0603 50.012 L 35.0199 24.0776 L 64.9596 24.0658 L 79.9397 49.9884 L 64.9801 75.9228" />
    <g
       id="g12"
       transform="matrix(0.06155521,0,0,0.06155521,32.937862,26.940854)">
      <g
         id="g10" />
    </g>
  </g>
  <g
     inkscape:label="B.Cu"
     inkscape:groupmode="layer"
     id="g842"
     style="display:inline">
    <path
       d="m 164.53497,319.42382 c -9.717,0 -18.94,-4.233 -25.305,-11.614 -1.709,-1.982 -4.198,-3.123 -6.816,-3.123 -2.618,0 -5.106,1.14 -6.816,3.123 -6.363,7.38 -15.586,11.613 -25.304,11.613 -9.717997,0 -18.939997,-4.233 -25.304997,-11.614 -1.709,-1.982 -4.198,-3.123 -6.816,-3.123 -2.618,0 -5.106,1.14 -6.816,3.123 -6.36299,7.38 -15.58599,11.613 -25.30399,11.613 -9.718001,0 -18.940003,-4.233 -25.304003,-11.613 -1.7100002,-1.983 -4.1980002,-3.123 -6.8160002,-3.123 -2.618,0 -5.106,1.14 -6.816,3.123 -6.364,7.381 -15.5869998,11.614 -25.3049998,11.614 -9.718,0 -18.94,-4.233 -25.304,-11.613 -1.71,-1.983 -4.198,-3.123 -6.816,-3.123 -2.618,0 -5.105999,1.14 -6.815999,3.123 -6.364,7.382 -15.587,11.614 -25.304001,11.614 -4.971,0 -9,4.029 -9,9 0,4.971 4.029,9 9,9 10.469001,0 20.558001,-3.195 29.029,-9 1.055,-0.723 2.09,-1.48 3.092,-2.283 1.002,0.803 2.037,1.56 3.092,2.283 8.47,5.805 18.56,9 29.028,9 10.468,0 20.5579998,-3.195 29.02899975,-9 1.05500005,-0.723 2.09000005,-1.48 3.09200005,-2.283 1.002,0.803 2.037,1.56 3.092,2.283 8.4700002,5.805 18.5600022,9 29.0280032,9 10.468,0 20.55799,-3.195 29.02799,-9 1.055,-0.723 2.089,-1.48 3.092,-2.283 1.002,0.803 2.037,1.56 3.092,2.283 8.47,5.805 18.56,9 29.028997,9 10.469,0 20.558,-3.195 29.028,-9 1.055,-0.723 2.089,-1.48 3.092,-2.283 1.002,0.803 2.037,1.56 3.092,2.283 8.47,5.805 18.56,9 29.029,9 4.971,0 9,-4.029 9,-9 0,-4.971 -4.03,-9 -9.001,-9 z"
       id="path937"
       style="display:inline;fill:#0f3dd1;fill-opacity:1"
       transform="matrix(0.06155521,0,0,0.06155521,32.937863,26.940854)" />
    <path
       d="m 252.51396,146.09529 c -9.717,0 -18.94,-4.233 -25.305,-11.614 -1.709,-1.982 -4.198,-3.123 -6.816,-3.123 -2.618,0 -5.106,1.14 -6.816,3.123 -6.363,7.38 -15.586,11.613 -25.304,11.613 -9.718,0 -18.94,-4.233 -25.305,-11.614 -1.709,-1.982 -4.198,-3.123 -6.816,-3.123 -2.618,0 -5.106,1.14 -6.816,3.123 -6.363,7.38 -15.586,11.613 -25.30399,11.613 -9.718,0 -18.94,-4.233 -25.303998,-11.613 -1.71,-1.983 -4.198,-3.123 -6.816,-3.123 -2.618,0 -5.105996,1.14 -6.815996,3.123 -6.364,7.381 -15.587005,11.614 -25.305005,11.614 -9.718,0 -18.94,-4.233 -25.304,-11.613 -1.71,-1.983 -4.198,-3.123 -6.816,-3.123 -2.618,0 -5.106,1.14 -6.816,3.123 -6.364,7.381 -15.5869996,11.614 -25.3039994,11.614 -4.971,0 -8.9999996,4.029 -8.9999996,9.00001 0,4.971 4.0289996,9 8.9999996,9 10.4689998,0 20.5579994,-3.195 29.0289994,-9 1.055,-0.723 2.089,-1.48 3.092,-2.283 1.002,0.803 2.037,1.56 3.092,2.283 8.47,5.805 18.56,9 29.028,9 10.468,0 20.558005,-3.195 29.029001,-9 1.055,-0.723 2.089,-1.48 3.092,-2.283 1.002,0.803 2.037,1.56 3.092,2.283 8.469998,5.805 18.559998,9 29.027998,9 10.46799,0 20.55799,-3.195 29.02799,-9 1.055,-0.723 2.089,-1.48 3.092,-2.283 1.002,0.803 2.037,1.56 3.092,2.283 8.471,5.805 18.56,9 29.029,9 10.469,0 20.558,-3.195 29.028,-9 1.055,-0.723 2.089,-1.48 3.092,-2.283 1.002,0.803 2.037,1.56 3.092,2.283 8.471,5.805 18.56,9 29.029,9 4.971,0 9,-4.029 9,-9 0,-4.97001 -4.03,-9.00001 -9.001,-9.00001 z"
       id="path939"
       style="display:inline;fill:#0f3dd1;fill-opacity:1"
       transform="matrix(0.06155521,0,0,0.06155521,32.937863,26.940854)" />
    <path
       d="m 282.43673,255.35288 c 10.469,0 20.558,-3.195 29.029,-9 1.055,-0.723 2.089,-1.48 3.092,-2.283 1.002,0.803 2.037,1.56 3.092,2.283 8.47,5.805 18.56,9 29.028,9 10.468,0 20.558,-3.195 29.029,-9 1.055,-0.723 2.089,-1.48 3.092,-2.283 1.002,0.803 2.037,1.56 3.092,2.283 8.47,5.805 18.56,9 29.028,9 10.468,0 20.558,-3.195 29.028,-9 1.055,-0.723 2.089,-1.48 3.092,-2.283 1.002,0.803 2.037,1.56 3.092,2.283 8.471,5.805 18.56,9 29.029,9 10.469,0 20.558,-3.195 29.028,-9 1.055,-0.723 2.089,-1.48 3.092,-2.283 1.002,0.803 2.037,1.56 3.092,2.283 8.471,5.805 18.56,9 29.029,9 4.971,0 9,-4.029 9,-9 0,-4.971 -4.029,-9 -9,-9 -9.717,0 -18.94,-4.233 -25.305,-11.614 -1.709,-1.982 -4.198,-3.123 -6.816,-3.123 -2.618,0 -5.106,1.14 -6.816,3.123 -6.363,7.38 -15.586,11.613 -25.304,11.613 -9.718,0 -18.94,-4.233 -25.305,-11.614 -1.709,-1.982 -4.198,-3.123 -6.816,-3.123 -2.618,0 -5.106,1.14 -6.816,3.123 -6.363,7.38 -15.586,11.613 -25.304,11.613 -9.718,0 -18.94,-4.233 -25.304,-11.613 -1.71,-1.983 -4.198,-3.123 -6.816,-3.123 -2.618,0 -5.106,1.14 -6.816,3.123 -6.364,7.381 -15.587,11.614 -25.305,11.614 -9.718,0 -18.941,-4.232 -25.304,-11.612 -1.71,-1.983 -4.198,-3.123 -6.816,-3.123 -2.618,0 -5.106,1.14 -6.816,3.123 -6.365,7.381 -15.588,11.613 -25.305,11.613 -4.971,0 -9,4.029 -9,9 0,4.971 4.029,9 9,9 z"
       id="path941"
       style="display:inline;fill:#0f3dd1;fill-opacity:1"
       transform="matrix(0.06155521,0,0,0.06155521,32.937863,26.940854)" />
    <path
       d="m 665.27864,409.56181 c -9.71701,0 -18.94001,-4.233 -25.30501,-11.614 -1.709,-1.982 -4.198,-3.123 -6.81599,-3.123 -2.618,0 -5.106,1.14 -6.816,3.123 -6.36301,7.38 -15.58601,11.613 -25.30401,11.613 -9.718,0 -18.94,-4.233 -25.30499,-11.614 -1.709,-1.982 -4.198,-3.123 -6.816,-3.123 -2.61801,0 -5.106,1.14 -6.81601,3.123 -6.36299,7.38 -15.586,11.613 -25.304,11.613 -9.71799,0 -18.94,-4.233 -25.304,-11.613 -1.71,-1.983 -4.198,-3.123 -6.81599,-3.123 -2.61801,0 -5.106,1.14 -6.81601,3.123 -6.36399,7.381 -15.587,11.614 -25.305,11.614 -9.71799,0 -18.93999,-4.233 -25.30399,-11.613 -1.71,-1.983 -4.198,-3.123 -6.81601,-3.123 -2.618,0 -5.106,1.14 -6.81599,3.123 -6.364,7.382 -15.587,11.614 -25.304,11.614 -4.971,0 -9,4.029 -9,9 0,4.971 4.029,9 9,9 10.469,0 20.55799,-3.195 29.02899,-9 1.055,-0.723 2.09,-1.48 3.092,-2.283 1.002,0.803 2.03701,1.56 3.092,2.283 8.47,5.805 18.56,9 29.028,9 10.468,0 20.55801,-3.195 29.02901,-9 1.05499,-0.723 2.08999,-1.48 3.09199,-2.283 1.002,0.803 2.037,1.56 3.092,2.283 8.47,5.805 18.56001,9 29.02801,9 10.46799,0 20.558,-3.195 29.028,-9 1.05499,-0.723 2.089,-1.48 3.092,-2.283 1.002,0.803 2.037,1.56 3.09199,2.283 8.47,5.805 18.56001,9 29.02901,9 10.469,0 20.55799,-3.195 29.028,-9 1.05499,-0.723 2.089,-1.48 3.09199,-2.283 1.002,0.803 2.037,1.56 3.09201,2.283 8.46999,5.805 18.56,9 29.02899,9 4.97101,0 9,-4.029 9,-9 0,-4.971 -4.03,-9 -9.00099,-9 z"
       id="path943"
       style="display:inline;stroke-width:1;fill:#0f3dd1;fill-opacity:1"
       transform="matrix(0.06155521,0,0,0.06155521,32.937863,26.940854)" />
    <path
       d="m 247.41612,490.28892 c -9.71701,0 -18.94001,-4.233 -25.30501,-11.614 -1.709,-1.982 -4.198,-3.123 -6.81599,-3.123 -2.618,0 -5.106,1.14 -6.816,3.123 -6.36301,7.38 -15.58601,11.613 -25.30401,11.613 -9.718,0 -18.94,-4.233 -25.30499,-11.614 -1.709,-1.982 -4.198,-3.123 -6.816,-3.123 -2.61801,0 -5.106,1.14 -6.81601,3.123 -6.36299,7.38 -15.586,11.613 -25.30399,11.613 -9.71799,0 -18.940001,-4.233 -25.304003,-11.613 -1.71,-1.983 -4.198,-3.123 -6.81599,-3.123 -2.61801,0 -5.106,1.14 -6.81601,3.123 -6.36399,7.381 -15.587,11.614 -25.305,11.614 -9.71799,0 -18.93999,-4.233 -25.30399,-11.613 -1.71,-1.983 -4.198,-3.123 -6.81601,-3.123 -2.618,0 -5.106,1.14 -6.81599,3.123 -6.3639999,7.382 -15.58699986,11.614 -25.3039999,11.614 -4.9710001,0 -9.0000001,4.029 -9.0000001,9 0,4.971 4.029,9 9.0000001,9 10.46900004,0 20.5579899,-3.195 29.0289899,-9 1.055,-0.723 2.09,-1.48 3.092,-2.283 1.002,0.803 2.03701,1.56 3.092,2.283 8.47,5.805 18.56,9 29.028,9 10.468,0 20.55801,-3.195 29.02901,-9 1.05499,-0.723 2.08999,-1.48 3.09199,-2.283 1.002,0.803 2.037,1.56 3.092,2.283 8.470002,5.805 18.560013,9 29.028013,9 10.46798,0 20.55799,-3.195 29.02799,-9 1.05499,-0.723 2.089,-1.48 3.092,-2.283 1.002,0.803 2.037,1.56 3.09199,2.283 8.47,5.805 18.56001,9 29.02901,9 10.469,0 20.55799,-3.195 29.028,-9 1.05499,-0.723 2.089,-1.48 3.09199,-2.283 1.002,0.803 2.037,1.56 3.09201,2.283 8.46999,5.805 18.56,9 29.02899,9 4.97101,0 9,-4.029 9,-9 0,-4.971 -4.03,-9 -9.00099,-9 z"
       id="path945"
       style="display:inline;stroke-width:1;fill:#0f3dd1;fill-opacity:1"
       transform="matrix(0.06155521,0,0,0.06155521,32.937863,26.940854)" />
    <path
       d="m 540.5812,592.69135 c -9.71701,0 -18.94001,-4.233 -25.30501,-11.614 -1.709,-1.982 -4.198,-3.123 -6.81599,-3.123 -2.618,0 -5.106,1.14 -6.816,3.123 -6.36301,7.38 -15.58601,11.613 -25.30401,11.613 -9.718,0 -18.94,-4.233 -25.30499,-11.614 -1.709,-1.982 -4.198,-3.123 -6.816,-3.123 -2.61801,0 -5.106,1.14 -6.81601,3.123 -6.36299,7.38 -15.586,11.613 -25.304,11.613 -9.71799,0 -18.94,-4.233 -25.304,-11.613 -1.71,-1.983 -4.198,-3.123 -6.81599,-3.123 -2.61801,0 -5.106,1.14 -6.81601,3.123 -6.36399,7.381 -15.587,11.614 -25.305,11.614 -9.71799,0 -18.93999,-4.233 -25.30399,-11.613 -1.71,-1.983 -4.198,-3.123 -6.81601,-3.123 -2.618,0 -5.106,1.14 -6.81599,3.123 -6.364,7.382 -15.587,11.614 -25.304,11.614 -4.971,0 -9,4.029 -9,9 0,4.971 4.029,9 9,9 10.469,0 20.55799,-3.195 29.02899,-9 1.055,-0.723 2.09,-1.48 3.092,-2.283 1.002,0.803 2.03701,1.56 3.092,2.283 8.47,5.805 18.56,9 29.028,9 10.468,0 20.55801,-3.195 29.02901,-9 1.05499,-0.723 2.08999,-1.48 3.09199,-2.283 1.002,0.803 2.037,1.56 3.092,2.283 8.47,5.805 18.56001,9 29.02801,9 10.46799,0 20.558,-3.195 29.028,-9 1.05499,-0.723 2.089,-1.48 3.092,-2.283 1.002,0.803 2.037,1.56 3.09199,2.283 8.47,5.805 18.56001,9 29.02901,9 10.469,0 20.55799,-3.195 29.028,-9 1.05499,-0.723 2.089,-1.48 3.09199,-2.283 1.002,0.803 2.037,1.56 3.09201,2.283 8.46999,5.805 18.56,9 29.02899,9 4.97101,0 9,-4.029 9,-9 0,-4.971 -4.03,-9 -9.00099,-9 z"
       id="path947"
       style="display:inline;stroke-width:1;fill:#0f3dd1;fill-opacity:1"
       transform="matrix(0.06155521,0,0,0.06155521,32.937863,26.940854)" />
    <path
       d="m 318.88223,701.38976 c -9.71701,0 -18.94001,-4.233 -25.30501,-11.614 -1.709,-1.982 -4.198,-3.123 -6.81599,-3.123 -2.618,0 -5.106,1.14 -6.816,3.123 -6.36301,7.38 -15.58601,11.613 -25.30401,11.613 -9.718,0 -18.94,-4.233 -25.30499,-11.614 -1.709,-1.982 -4.198,-3.123 -6.816,-3.123 -2.61801,0 -5.106,1.14 -6.81601,3.123 -6.36299,7.38 -15.586,11.613 -25.304,11.613 -9.71799,0 -18.94,-4.233 -25.304,-11.613 -1.71,-1.983 -4.198,-3.123 -6.81599,-3.123 -2.61801,0 -5.106,1.14 -6.81601,3.123 -6.36399,7.381 -15.587,11.614 -25.305,11.614 -9.71799,0 -18.93999,-4.233 -25.30399,-11.613 -1.710002,-1.983 -4.198002,-3.123 -6.816012,-3.123 -2.618,0 -5.106,1.14 -6.81599,3.123 -6.364,7.382 -15.587,11.614 -25.304,11.614 -4.971,0 -9,4.029 -9,9 0,4.971 4.029,9 9,9 10.469,0 20.55799,-3.195 29.02899,-9 1.055,-0.723 2.09,-1.48 3.092,-2.283 1.002,0.803 2.03701,1.56 3.092,2.283 8.470002,5.805 18.560002,9 29.028002,9 10.468,0 20.55801,-3.195 29.02901,-9 1.05499,-0.723 2.08999,-1.48 3.09199,-2.283 1.002,0.803 2.037,1.56 3.092,2.283 8.47,5.805 18.56001,9 29.02801,9 10.46799,0 20.558,-3.195 29.028,-9 1.05499,-0.723 2.089,-1.48 3.092,-2.283 1.002,0.803 2.037,1.56 3.09199,2.283 8.47,5.805 18.56001,9 29.02901,9 10.469,0 20.55799,-3.195 29.028,-9 1.05499,-0.723 2.089,-1.48 3.09199,-2.283 1.002,0.803 2.037,1.56 3.09201,2.283 8.46999,5.805 18.56,9 29.02899,9 4.97101,0 9,-4.029 9,-9 0,-4.971 -4.03,-9 -9.00099,-9 z"
       id="path949"
       style="display:inline;stroke-width:1;fill:#0f3dd1;fill-opacity:1"
       transform="matrix(0.06155521,0,0,0.06155521,32.937863,26.940854)" />
    <path
       d="m 64.356423,29.583777 c -0.598132,0 -1.165856,-0.260564 -1.557655,-0.714903 -0.105198,-0.122002 -0.258409,-0.192237 -0.41956,-0.192237 -0.161152,0 -0.314301,0.07017 -0.41956,0.192237 -0.391676,0.454278 -0.9594,0.714841 -1.557593,0.714841 -0.598194,0 -1.165856,-0.260563 -1.557655,-0.714902 -0.105198,-0.122003 -0.258409,-0.192237 -0.41956,-0.192237 -0.161152,0 -0.314301,0.07017 -0.419561,0.192237 -0.391675,0.454277 -0.959399,0.71484 -1.557592,0.71484 -0.598194,0 -1.165856,-0.260563 -1.557593,-0.71484 -0.105259,-0.122064 -0.258409,-0.192237 -0.41956,-0.192237 -0.161152,0 -0.314301,0.07017 -0.41956,0.192237 -0.391738,0.454339 -0.959462,0.714902 -1.557655,0.714902 -0.598194,0 -1.165856,-0.260563 -1.557593,-0.714841 -0.10526,-0.122064 -0.258409,-0.192237 -0.419561,-0.192237 -0.161151,0 -0.3143,0.07017 -0.41956,0.192237 -0.391737,0.454339 -0.959461,0.714903 -1.557593,0.714903 -0.305991,0 -0.553997,0.248006 -0.553997,0.553997 0,0.305991 0.248006,0.553997 0.553997,0.553997 0.644422,0 1.265452,-0.196669 1.786886,-0.553997 0.06494,-0.0445 0.128589,-0.0911 0.190329,-0.14053 0.06168,0.04943 0.125388,0.09603 0.190329,0.14053 0.521372,0.357328 1.142464,0.553997 1.786824,0.553997 0.64436,0 1.265453,-0.196669 1.786887,-0.553997 0.06494,-0.0445 0.128588,-0.0911 0.190328,-0.14053 0.06168,0.04943 0.125388,0.09603 0.190329,0.14053 0.521373,0.357328 1.142465,0.553997 1.786825,0.553997 0.644359,0 1.265451,-0.196669 1.786824,-0.553997 0.06494,-0.0445 0.128588,-0.0911 0.190328,-0.14053 0.06168,0.04943 0.125388,0.09603 0.190329,0.14053 0.521434,0.357328 1.142465,0.553997 1.786886,0.553997 0.644422,0 1.265452,-0.196669 1.786825,-0.553997 0.06494,-0.0445 0.128589,-0.0911 0.190328,-0.14053 0.06168,0.04943 0.125388,0.09603 0.190329,0.14053 0.521434,0.357328 1.142465,0.553997 1.786886,0.553997 0.305991,0 0.553997,-0.248006 0.553997,-0.553997 0,-0.30593 -0.248067,-0.553997 -0.554058,-0.553997 z"
       id="path1015"
       style="display:inline;fill:#0f3dd1;fill-opacity:1;stroke-width:0.0615552" />
  </g>
  <g
     inkscape:label="B.Mask-disabled"
     inkscape:groupmode="layer"
     id="g844"
     style="display:inline" />
  <g
     inkscape:label="B.SilkS-disabled"
     inkscape:groupmode="layer"
     id="g846"
     style="display:inline" />
  <g
     inkscape:label="F.Cu"
     inkscape:groupmode="layer"
     id="g848"
     style="display:none">
    <path
       d="m 164.53497,319.42382 c -9.717,0 -18.94,-4.233 -25.305,-11.614 -1.709,-1.982 -4.198,-3.123 -6.816,-3.123 -2.618,0 -5.106,1.14 -6.816,3.123 -6.363,7.38 -15.586,11.613 -25.304,11.613 -9.717997,0 -18.939997,-4.233 -25.304997,-11.614 -1.709,-1.982 -4.198,-3.123 -6.816,-3.123 -2.618,0 -5.106,1.14 -6.816,3.123 -6.36299,7.38 -15.58599,11.613 -25.30399,11.613 -9.718001,0 -18.940003,-4.233 -25.304003,-11.613 -1.7100002,-1.983 -4.1980002,-3.123 -6.8160002,-3.123 -2.618,0 -5.106,1.14 -6.816,3.123 -6.364,7.381 -15.5869998,11.614 -25.3049998,11.614 -9.718,0 -18.94,-4.233 -25.304,-11.613 -1.71,-1.983 -4.198,-3.123 -6.816,-3.123 -2.618,0 -5.105999,1.14 -6.815999,3.123 -6.364,7.382 -15.587,11.614 -25.304001,11.614 -4.971,0 -9,4.029 -9,9 0,4.971 4.029,9 9,9 10.469001,0 20.558001,-3.195 29.029,-9 1.055,-0.723 2.09,-1.48 3.092,-2.283 1.002,0.803 2.037,1.56 3.092,2.283 8.47,5.805 18.56,9 29.028,9 10.468,0 20.5579998,-3.195 29.02899975,-9 1.05500005,-0.723 2.09000005,-1.48 3.09200005,-2.283 1.002,0.803 2.037,1.56 3.092,2.283 8.4700002,5.805 18.5600022,9 29.0280032,9 10.468,0 20.55799,-3.195 29.02799,-9 1.055,-0.723 2.089,-1.48 3.092,-2.283 1.002,0.803 2.037,1.56 3.092,2.283 8.47,5.805 18.56,9 29.028997,9 10.469,0 20.558,-3.195 29.028,-9 1.055,-0.723 2.089,-1.48 3.092,-2.283 1.002,0.803 2.037,1.56 3.092,2.283 8.47,5.805 18.56,9 29.029,9 4.971,0 9,-4.029 9,-9 0,-4.971 -4.03,-9 -9.001,-9 z"
       id="path2"
       style="display:inline;fill:#0f3dd1;fill-opacity:1"
       transform="matrix(0.06155521,0,0,0.06155521,32.937863,26.940854)" />
    <path
       d="m 252.51396,146.09529 c -9.717,0 -18.94,-4.233 -25.305,-11.614 -1.709,-1.982 -4.198,-3.123 -6.816,-3.123 -2.618,0 -5.106,1.14 -6.816,3.123 -6.363,7.38 -15.586,11.613 -25.304,11.613 -9.718,0 -18.94,-4.233 -25.305,-11.614 -1.709,-1.982 -4.198,-3.123 -6.816,-3.123 -2.618,0 -5.106,1.14 -6.816,3.123 -6.363,7.38 -15.586,11.613 -25.30399,11.613 -9.718,0 -18.94,-4.233 -25.303998,-11.613 -1.71,-1.983 -4.198,-3.123 -6.816,-3.123 -2.618,0 -5.105996,1.14 -6.815996,3.123 -6.364,7.381 -15.587005,11.614 -25.305005,11.614 -9.718,0 -18.94,-4.233 -25.304,-11.613 -1.71,-1.983 -4.198,-3.123 -6.816,-3.123 -2.618,0 -5.106,1.14 -6.816,3.123 -6.364,7.381 -15.5869996,11.614 -25.3039994,11.614 -4.971,0 -8.9999996,4.029 -8.9999996,9.00001 0,4.971 4.0289996,9 8.9999996,9 10.4689998,0 20.5579994,-3.195 29.0289994,-9 1.055,-0.723 2.089,-1.48 3.092,-2.283 1.002,0.803 2.037,1.56 3.092,2.283 8.47,5.805 18.56,9 29.028,9 10.468,0 20.558005,-3.195 29.029001,-9 1.055,-0.723 2.089,-1.48 3.092,-2.283 1.002,0.803 2.037,1.56 3.092,2.283 8.469998,5.805 18.559998,9 29.027998,9 10.46799,0 20.55799,-3.195 29.02799,-9 1.055,-0.723 2.089,-1.48 3.092,-2.283 1.002,0.803 2.037,1.56 3.092,2.283 8.471,5.805 18.56,9 29.029,9 10.469,0 20.558,-3.195 29.028,-9 1.055,-0.723 2.089,-1.48 3.092,-2.283 1.002,0.803 2.037,1.56 3.092,2.283 8.471,5.805 18.56,9 29.029,9 4.971,0 9,-4.029 9,-9 0,-4.97001 -4.03,-9.00001 -9.001,-9.00001 z"
       id="path4"
       style="display:inline;fill:#0f3dd1;fill-opacity:1"
       transform="matrix(0.06155521,0,0,0.06155521,32.937863,26.940854)" />
    <path
       d="m 282.43673,255.35288 c 10.469,0 20.558,-3.195 29.029,-9 1.055,-0.723 2.089,-1.48 3.092,-2.283 1.002,0.803 2.037,1.56 3.092,2.283 8.47,5.805 18.56,9 29.028,9 10.468,0 20.558,-3.195 29.029,-9 1.055,-0.723 2.089,-1.48 3.092,-2.283 1.002,0.803 2.037,1.56 3.092,2.283 8.47,5.805 18.56,9 29.028,9 10.468,0 20.558,-3.195 29.028,-9 1.055,-0.723 2.089,-1.48 3.092,-2.283 1.002,0.803 2.037,1.56 3.092,2.283 8.471,5.805 18.56,9 29.029,9 10.469,0 20.558,-3.195 29.028,-9 1.055,-0.723 2.089,-1.48 3.092,-2.283 1.002,0.803 2.037,1.56 3.092,2.283 8.471,5.805 18.56,9 29.029,9 4.971,0 9,-4.029 9,-9 0,-4.971 -4.029,-9 -9,-9 -9.717,0 -18.94,-4.233 -25.305,-11.614 -1.709,-1.982 -4.198,-3.123 -6.816,-3.123 -2.618,0 -5.106,1.14 -6.816,3.123 -6.363,7.38 -15.586,11.613 -25.304,11.613 -9.718,0 -18.94,-4.233 -25.305,-11.614 -1.709,-1.982 -4.198,-3.123 -6.816,-3.123 -2.618,0 -5.106,1.14 -6.816,3.123 -6.363,7.38 -15.586,11.613 -25.304,11.613 -9.718,0 -18.94,-4.233 -25.304,-11.613 -1.71,-1.983 -4.198,-3.123 -6.816,-3.123 -2.618,0 -5.106,1.14 -6.816,3.123 -6.364,7.381 -15.587,11.614 -25.305,11.614 -9.718,0 -18.941,-4.232 -25.304,-11.612 -1.71,-1.983 -4.198,-3.123 -6.816,-3.123 -2.618,0 -5.106,1.14 -6.816,3.123 -6.365,7.381 -15.588,11.613 -25.305,11.613 -4.971,0 -9,4.029 -9,9 0,4.971 4.029,9 9,9 z"
       id="path6"
       style="display:inline;fill:#0f3dd1;fill-opacity:1"
       transform="matrix(0.06155521,0,0,0.06155521,32.937863,26.940854)" />
    <path
       d="m 665.27864,409.56181 c -9.71701,0 -18.94001,-4.233 -25.30501,-11.614 -1.709,-1.982 -4.198,-3.123 -6.81599,-3.123 -2.618,0 -5.106,1.14 -6.816,3.123 -6.36301,7.38 -15.58601,11.613 -25.30401,11.613 -9.718,0 -18.94,-4.233 -25.30499,-11.614 -1.709,-1.982 -4.198,-3.123 -6.816,-3.123 -2.61801,0 -5.106,1.14 -6.81601,3.123 -6.36299,7.38 -15.586,11.613 -25.304,11.613 -9.71799,0 -18.94,-4.233 -25.304,-11.613 -1.71,-1.983 -4.198,-3.123 -6.81599,-3.123 -2.61801,0 -5.106,1.14 -6.81601,3.123 -6.36399,7.381 -15.587,11.614 -25.305,11.614 -9.71799,0 -18.93999,-4.233 -25.30399,-11.613 -1.71,-1.983 -4.198,-3.123 -6.81601,-3.123 -2.618,0 -5.106,1.14 -6.81599,3.123 -6.364,7.382 -15.587,11.614 -25.304,11.614 -4.971,0 -9,4.029 -9,9 0,4.971 4.029,9 9,9 10.469,0 20.55799,-3.195 29.02899,-9 1.055,-0.723 2.09,-1.48 3.092,-2.283 1.002,0.803 2.03701,1.56 3.092,2.283 8.47,5.805 18.56,9 29.028,9 10.468,0 20.55801,-3.195 29.02901,-9 1.05499,-0.723 2.08999,-1.48 3.09199,-2.283 1.002,0.803 2.037,1.56 3.092,2.283 8.47,5.805 18.56001,9 29.02801,9 10.46799,0 20.558,-3.195 29.028,-9 1.05499,-0.723 2.089,-1.48 3.092,-2.283 1.002,0.803 2.037,1.56 3.09199,2.283 8.47,5.805 18.56001,9 29.02901,9 10.469,0 20.55799,-3.195 29.028,-9 1.05499,-0.723 2.089,-1.48 3.09199,-2.283 1.002,0.803 2.037,1.56 3.09201,2.283 8.46999,5.805 18.56,9 29.02899,9 4.97101,0 9,-4.029 9,-9 0,-4.971 -4.03,-9 -9.00099,-9 z"
       id="path2-6"
       style="display:inline;fill:#0f3dd1;fill-opacity:1;stroke-width:1"
       transform="matrix(0.06155521,0,0,0.06155521,32.937863,26.940854)" />
    <path
       d="m 247.41612,490.28892 c -9.71701,0 -18.94001,-4.233 -25.30501,-11.614 -1.709,-1.982 -4.198,-3.123 -6.81599,-3.123 -2.618,0 -5.106,1.14 -6.816,3.123 -6.36301,7.38 -15.58601,11.613 -25.30401,11.613 -9.718,0 -18.94,-4.233 -25.30499,-11.614 -1.709,-1.982 -4.198,-3.123 -6.816,-3.123 -2.61801,0 -5.106,1.14 -6.81601,3.123 -6.36299,7.38 -15.586,11.613 -25.30399,11.613 -9.71799,0 -18.940001,-4.233 -25.304003,-11.613 -1.71,-1.983 -4.198,-3.123 -6.81599,-3.123 -2.61801,0 -5.106,1.14 -6.81601,3.123 -6.36399,7.381 -15.587,11.614 -25.305,11.614 -9.71799,0 -18.93999,-4.233 -25.30399,-11.613 -1.71,-1.983 -4.198,-3.123 -6.81601,-3.123 -2.618,0 -5.106,1.14 -6.81599,3.123 -6.3639999,7.382 -15.58699986,11.614 -25.3039999,11.614 -4.9710001,0 -9.0000001,4.029 -9.0000001,9 0,4.971 4.029,9 9.0000001,9 10.46900004,0 20.5579899,-3.195 29.0289899,-9 1.055,-0.723 2.09,-1.48 3.092,-2.283 1.002,0.803 2.03701,1.56 3.092,2.283 8.47,5.805 18.56,9 29.028,9 10.468,0 20.55801,-3.195 29.02901,-9 1.05499,-0.723 2.08999,-1.48 3.09199,-2.283 1.002,0.803 2.037,1.56 3.092,2.283 8.470002,5.805 18.560013,9 29.028013,9 10.46798,0 20.55799,-3.195 29.02799,-9 1.05499,-0.723 2.089,-1.48 3.092,-2.283 1.002,0.803 2.037,1.56 3.09199,2.283 8.47,5.805 18.56001,9 29.02901,9 10.469,0 20.55799,-3.195 29.028,-9 1.05499,-0.723 2.089,-1.48 3.09199,-2.283 1.002,0.803 2.037,1.56 3.09201,2.283 8.46999,5.805 18.56,9 29.02899,9 4.97101,0 9,-4.029 9,-9 0,-4.971 -4.03,-9 -9.00099,-9 z"
       id="path2-7"
       style="display:inline;fill:#0f3dd1;fill-opacity:1;stroke-width:1"
       transform="matrix(0.06155521,0,0,0.06155521,32.937863,26.940854)" />
    <path
       d="m 540.5812,592.69135 c -9.71701,0 -18.94001,-4.233 -25.30501,-11.614 -1.709,-1.982 -4.198,-3.123 -6.81599,-3.123 -2.618,0 -5.106,1.14 -6.816,3.123 -6.36301,7.38 -15.58601,11.613 -25.30401,11.613 -9.718,0 -18.94,-4.233 -25.30499,-11.614 -1.709,-1.982 -4.198,-3.123 -6.816,-3.123 -2.61801,0 -5.106,1.14 -6.81601,3.123 -6.36299,7.38 -15.586,11.613 -25.304,11.613 -9.71799,0 -18.94,-4.233 -25.304,-11.613 -1.71,-1.983 -4.198,-3.123 -6.81599,-3.123 -2.61801,0 -5.106,1.14 -6.81601,3.123 -6.36399,7.381 -15.587,11.614 -25.305,11.614 -9.71799,0 -18.93999,-4.233 -25.30399,-11.613 -1.71,-1.983 -4.198,-3.123 -6.81601,-3.123 -2.618,0 -5.106,1.14 -6.81599,3.123 -6.364,7.382 -15.587,11.614 -25.304,11.614 -4.971,0 -9,4.029 -9,9 0,4.971 4.029,9 9,9 10.469,0 20.55799,-3.195 29.02899,-9 1.055,-0.723 2.09,-1.48 3.092,-2.283 1.002,0.803 2.03701,1.56 3.092,2.283 8.47,5.805 18.56,9 29.028,9 10.468,0 20.55801,-3.195 29.02901,-9 1.05499,-0.723 2.08999,-1.48 3.09199,-2.283 1.002,0.803 2.037,1.56 3.092,2.283 8.47,5.805 18.56001,9 29.02801,9 10.46799,0 20.558,-3.195 29.028,-9 1.05499,-0.723 2.089,-1.48 3.092,-2.283 1.002,0.803 2.037,1.56 3.09199,2.283 8.47,5.805 18.56001,9 29.02901,9 10.469,0 20.55799,-3.195 29.028,-9 1.05499,-0.723 2.089,-1.48 3.09199,-2.283 1.002,0.803 2.037,1.56 3.09201,2.283 8.46999,5.805 18.56,9 29.02899,9 4.97101,0 9,-4.029 9,-9 0,-4.971 -4.03,-9 -9.00099,-9 z"
       id="path2-5"
       style="display:inline;fill:#0f3dd1;fill-opacity:1;stroke-width:1"
       transform="matrix(0.06155521,0,0,0.06155521,32.937863,26.940854)" />
    <path
       d="m 318.88223,701.38976 c -9.71701,0 -18.94001,-4.233 -25.30501,-11.614 -1.709,-1.982 -4.198,-3.123 -6.81599,-3.123 -2.618,0 -5.106,1.14 -6.816,3.123 -6.36301,7.38 -15.58601,11.613 -25.30401,11.613 -9.718,0 -18.94,-4.233 -25.30499,-11.614 -1.709,-1.982 -4.198,-3.123 -6.816,-3.123 -2.61801,0 -5.106,1.14 -6.81601,3.123 -6.36299,7.38 -15.586,11.613 -25.304,11.613 -9.71799,0 -18.94,-4.233 -25.304,-11.613 -1.71,-1.983 -4.198,-3.123 -6.81599,-3.123 -2.61801,0 -5.106,1.14 -6.81601,3.123 -6.36399,7.381 -15.587,11.614 -25.305,11.614 -9.71799,0 -18.93999,-4.233 -25.30399,-11.613 -1.710002,-1.983 -4.198002,-3.123 -6.816012,-3.123 -2.618,0 -5.106,1.14 -6.81599,3.123 -6.364,7.382 -15.587,11.614 -25.304,11.614 -4.971,0 -9,4.029 -9,9 0,4.971 4.029,9 9,9 10.469,0 20.55799,-3.195 29.02899,-9 1.055,-0.723 2.09,-1.48 3.092,-2.283 1.002,0.803 2.03701,1.56 3.092,2.283 8.470002,5.805 18.560002,9 29.028002,9 10.468,0 20.55801,-3.195 29.02901,-9 1.05499,-0.723 2.08999,-1.48 3.09199,-2.283 1.002,0.803 2.037,1.56 3.092,2.283 8.47,5.805 18.56001,9 29.02801,9 10.46799,0 20.558,-3.195 29.028,-9 1.05499,-0.723 2.089,-1.48 3.092,-2.283 1.002,0.803 2.037,1.56 3.09199,2.283 8.47,5.805 18.56001,9 29.02901,9 10.469,0 20.55799,-3.195 29.028,-9 1.05499,-0.723 2.089,-1.48 3.09199,-2.283 1.002,0.803 2.037,1.56 3.09201,2.283 8.46999,5.805 18.56,9 29.02899,9 4.97101,0 9,-4.029 9,-9 0,-4.971 -4.03,-9 -9.00099,-9 z"
       id="path2-3"
       style="display:inline;fill:#0f3dd1;fill-opacity:1;stroke-width:1"
       transform="matrix(0.06155521,0,0,0.06155521,32.937863,26.940854)" />
  </g>
  <g
     inkscape:label="F.Mask"
     inkscape:groupmode="layer"
     id="g850">
    <path
       id="path1002"
       style="display:inline;fill:#908428;fill-opacity:1;stroke:none;stroke-width:0.394938;stroke-opacity:1"
       d="M 245.51562 90.957031 L 132.35938 91.001953 L 113.33789 123.97656 C 114.0471 124.09305 114.72888 124.23242 115.57617 124.23242 C 116.81296 124.23242 117.88524 124.09997 118.84375 123.85938 C 119.80226 123.61878 120.64599 123.26853 121.42773 122.83594 C 122.99122 121.97076 124.30408 120.77116 125.76953 119.42969 C 126.58096 118.68696 127.41978 117.91901 128.33398 117.18555 C 129.24819 116.45208 130.23738 115.75307 131.35156 115.14648 C 132.46575 114.5399 133.70386 114.02616 135.11523 113.66406 C 136.52661 113.30196 138.11026 113.0918 139.91602 113.0918 C 141.72165 113.0918 143.30749 113.30196 144.71875 113.66406 C 146.13001 114.02617 147.36833 114.53987 148.48242 115.14648 C 149.59652 115.7531 150.58585 116.45201 151.5 117.18555 C 152.41415 117.91908 153.25303 118.68684 154.06445 119.42969 C 155.52966 120.77092 156.8391 121.97082 158.40234 122.83594 C 159.18397 123.26849 160.02989 123.61878 160.98828 123.85938 C 161.94667 124.09997 163.0192 124.23242 164.25586 124.23242 C 165.49277 124.23242 166.56486 124.09997 167.52344 123.85938 C 168.48202 123.61878 169.32565 123.26853 170.10742 122.83594 C 171.67097 121.97076 172.98377 120.77116 174.44922 119.42969 C 175.26064 118.68696 176.09947 117.91901 177.01367 117.18555 C 177.92788 116.45208 178.91706 115.75307 180.03125 115.14648 C 181.14544 114.5399 182.38355 114.02616 183.79492 113.66406 C 185.20629 113.30196 186.78994 113.0918 188.5957 113.0918 C 190.40158 113.0918 191.98704 113.30196 193.39844 113.66406 C 194.80984 114.02616 196.04792 114.5399 197.16211 115.14648 C 198.2763 115.75307 199.26545 116.45208 200.17969 117.18555 C 201.09392 117.91901 201.93259 118.68696 202.74414 119.42969 C 204.20959 120.77116 205.52233 121.97076 207.08594 122.83594 C 207.86774 123.26853 208.71136 123.61878 209.66992 123.85938 C 210.62848 124.09997 211.70072 124.23242 212.9375 124.23242 C 214.17453 124.23242 215.24838 124.09997 216.20703 123.85938 C 217.16568 123.61878 218.00921 123.26853 218.79102 122.83594 C 220.35463 121.97076 221.66736 120.77116 223.13281 119.42969 C 223.94436 118.68696 224.78299 117.91901 225.69727 117.18555 C 226.61155 116.45208 227.6006 115.75307 228.71484 115.14648 C 229.82909 114.5399 231.06707 114.02616 232.47852 113.66406 C 233.88996 113.30196 235.47537 113.0918 237.28125 113.0918 C 239.08713 113.0918 240.67058 113.30196 242.08203 113.66406 C 243.49348 114.02616 244.73341 114.5399 245.84766 115.14648 C 246.9619 115.75307 247.95095 116.45208 248.86523 117.18555 C 249.77952 117.91901 250.61814 118.68696 251.42969 119.42969 C 252.89514 120.77116 254.20598 121.97076 255.76953 122.83594 C 256.55131 123.26853 257.39689 123.61878 258.35547 123.85938 C 259.31405 124.09997 260.38614 124.23242 261.62305 124.23242 C 262.73159 124.23242 263.67193 124.09364 264.55273 123.89844 L 245.51562 90.957031 z "
       transform="scale(0.26458333)" />
  </g>
  <g
     inkscape:label="F.SilkS"
     inkscape:groupmode="layer"
     id="g852"
     style="display:inline">
    <text
       xml:space="preserve"
       style="font-style:normal;font-weight:normal;font-size:12.7px;line-height:1.25;font-family:sans-serif;text-align:center;letter-spacing:0px;word-spacing:0px;text-anchor:middle;fill:#000000;fill-opacity:1;stroke:none;stroke-width:0.264583"
       x="51.053726"
       y="55.131474"
       id="text1009"><tspan
         sodipodi:role="line"
         id="tspan1007"
         x="51.053726"
         y="55.131474"
         style="font-style:normal;font-variant:normal;font-weight:600;font-stretch:normal;font-size:12.7px;font-family:FreeSans;-inkscape-font-specification:'FreeSans Semi-Bold';text-align:center;text-anchor:middle;stroke-width:0.264583">3:1</tspan></text>
    <path
       style="fill:none;stroke:#000000;stroke-width:1;stroke-linecap:butt;stroke-linejoin:miter;stroke-opacity:1;stroke-miterlimit:4;stroke-dasharray:4,1;stroke-dashoffset:0"
       d="m 31.931596,34.218787 c 3.374544,8.018272 9.157097,12.797734 9.157097,12.797734"
       id="path1011" />
    <path
       style="fill:none;stroke:#000000;stroke-width:1;stroke-linecap:butt;stroke-linejoin:miter;stroke-miterlimit:4;stroke-dasharray:4, 1;stroke-dashoffset:0;stroke-opacity:1"
       d="M 68.467074,34.218787 C 65.09253,42.237059 59.309977,47.016521 59.309977,47.016521"
       id="path1013" />
  </g>
</svg>
