G04 #@! TF.GenerationSoftware,KiCad,Pcbnew,5.1.5+dfsg1-2build2*
G04 #@! TF.CreationDate,2021-05-19T21:21:30-04:00*
G04 #@! TF.ProjectId,ocean_tile_wheat,6f636561-6e5f-4746-996c-655f77686561,rev?*
G04 #@! TF.SameCoordinates,Original*
G04 #@! TF.FileFunction,Legend,Top*
G04 #@! TF.FilePolarity,Positive*
%FSLAX46Y46*%
G04 Gerber Fmt 4.6, Leading zero omitted, Abs format (unit mm)*
G04 Created by KiCad (PCBNEW 5.1.5+dfsg1-2build2) date 2021-05-19 21:21:30*
%MOMM*%
%LPD*%
G04 APERTURE LIST*
%ADD10C,0.010000*%
G04 APERTURE END LIST*
D10*
G36*
X-4041396Y-17355099D02*
G01*
X-3994288Y-17385924D01*
X-3924786Y-17434683D01*
X-3838489Y-17497462D01*
X-3755846Y-17559127D01*
X-3384710Y-17829064D01*
X-3014364Y-18078931D01*
X-2648016Y-18307070D01*
X-2288869Y-18511824D01*
X-1940132Y-18691534D01*
X-1605009Y-18844544D01*
X-1286705Y-18969194D01*
X-988428Y-19063827D01*
X-730250Y-19123733D01*
X-639705Y-19140507D01*
X-560483Y-19155314D01*
X-505135Y-19165805D01*
X-492125Y-19168338D01*
X-452879Y-19192602D01*
X-441976Y-19237290D01*
X-458424Y-19292305D01*
X-501228Y-19347550D01*
X-510555Y-19355819D01*
X-563707Y-19393765D01*
X-627990Y-19430665D01*
X-689111Y-19459214D01*
X-732779Y-19472103D01*
X-738126Y-19472162D01*
X-761974Y-19464653D01*
X-817280Y-19445035D01*
X-895934Y-19416242D01*
X-989825Y-19381208D01*
X-994833Y-19379322D01*
X-1427820Y-19203428D01*
X-1849397Y-19006910D01*
X-2255174Y-18792545D01*
X-2640762Y-18563111D01*
X-3001773Y-18321384D01*
X-3333818Y-18070140D01*
X-3632507Y-17812156D01*
X-3893452Y-17550210D01*
X-3903638Y-17539033D01*
X-3967905Y-17466636D01*
X-4018956Y-17406030D01*
X-4051537Y-17363674D01*
X-4060513Y-17346124D01*
X-4041396Y-17355099D01*
G37*
X-4041396Y-17355099D02*
X-3994288Y-17385924D01*
X-3924786Y-17434683D01*
X-3838489Y-17497462D01*
X-3755846Y-17559127D01*
X-3384710Y-17829064D01*
X-3014364Y-18078931D01*
X-2648016Y-18307070D01*
X-2288869Y-18511824D01*
X-1940132Y-18691534D01*
X-1605009Y-18844544D01*
X-1286705Y-18969194D01*
X-988428Y-19063827D01*
X-730250Y-19123733D01*
X-639705Y-19140507D01*
X-560483Y-19155314D01*
X-505135Y-19165805D01*
X-492125Y-19168338D01*
X-452879Y-19192602D01*
X-441976Y-19237290D01*
X-458424Y-19292305D01*
X-501228Y-19347550D01*
X-510555Y-19355819D01*
X-563707Y-19393765D01*
X-627990Y-19430665D01*
X-689111Y-19459214D01*
X-732779Y-19472103D01*
X-738126Y-19472162D01*
X-761974Y-19464653D01*
X-817280Y-19445035D01*
X-895934Y-19416242D01*
X-989825Y-19381208D01*
X-994833Y-19379322D01*
X-1427820Y-19203428D01*
X-1849397Y-19006910D01*
X-2255174Y-18792545D01*
X-2640762Y-18563111D01*
X-3001773Y-18321384D01*
X-3333818Y-18070140D01*
X-3632507Y-17812156D01*
X-3893452Y-17550210D01*
X-3903638Y-17539033D01*
X-3967905Y-17466636D01*
X-4018956Y-17406030D01*
X-4051537Y-17363674D01*
X-4060513Y-17346124D01*
X-4041396Y-17355099D01*
G36*
X6016870Y-17362480D02*
G01*
X5979928Y-17405303D01*
X5921007Y-17468814D01*
X5844264Y-17548574D01*
X5753858Y-17640142D01*
X5713283Y-17680587D01*
X5364668Y-18001672D01*
X4988386Y-18299979D01*
X4581805Y-18577233D01*
X4142294Y-18835158D01*
X3667222Y-19075476D01*
X3397250Y-19197542D01*
X3278786Y-19248042D01*
X3154679Y-19299170D01*
X3031827Y-19348275D01*
X2917132Y-19392705D01*
X2817492Y-19429810D01*
X2739808Y-19456937D01*
X2690980Y-19471436D01*
X2680005Y-19473135D01*
X2649918Y-19463123D01*
X2596741Y-19437462D01*
X2549621Y-19411679D01*
X2461937Y-19346946D01*
X2407927Y-19274785D01*
X2391834Y-19209181D01*
X2398524Y-19188380D01*
X2423686Y-19172920D01*
X2474957Y-19160105D01*
X2559973Y-19147241D01*
X2571750Y-19145703D01*
X2812733Y-19100917D01*
X3078762Y-19026518D01*
X3366420Y-18924226D01*
X3672292Y-18795765D01*
X3992960Y-18642859D01*
X4325009Y-18467228D01*
X4665023Y-18270598D01*
X5009584Y-18054689D01*
X5355278Y-17821225D01*
X5698687Y-17571929D01*
X5711202Y-17562502D01*
X5809116Y-17489750D01*
X5895291Y-17427820D01*
X5964176Y-17380529D01*
X6010221Y-17351695D01*
X6027676Y-17344787D01*
X6016870Y-17362480D01*
G37*
X6016870Y-17362480D02*
X5979928Y-17405303D01*
X5921007Y-17468814D01*
X5844264Y-17548574D01*
X5753858Y-17640142D01*
X5713283Y-17680587D01*
X5364668Y-18001672D01*
X4988386Y-18299979D01*
X4581805Y-18577233D01*
X4142294Y-18835158D01*
X3667222Y-19075476D01*
X3397250Y-19197542D01*
X3278786Y-19248042D01*
X3154679Y-19299170D01*
X3031827Y-19348275D01*
X2917132Y-19392705D01*
X2817492Y-19429810D01*
X2739808Y-19456937D01*
X2690980Y-19471436D01*
X2680005Y-19473135D01*
X2649918Y-19463123D01*
X2596741Y-19437462D01*
X2549621Y-19411679D01*
X2461937Y-19346946D01*
X2407927Y-19274785D01*
X2391834Y-19209181D01*
X2398524Y-19188380D01*
X2423686Y-19172920D01*
X2474957Y-19160105D01*
X2559973Y-19147241D01*
X2571750Y-19145703D01*
X2812733Y-19100917D01*
X3078762Y-19026518D01*
X3366420Y-18924226D01*
X3672292Y-18795765D01*
X3992960Y-18642859D01*
X4325009Y-18467228D01*
X4665023Y-18270598D01*
X5009584Y-18054689D01*
X5355278Y-17821225D01*
X5698687Y-17571929D01*
X5711202Y-17562502D01*
X5809116Y-17489750D01*
X5895291Y-17427820D01*
X5964176Y-17380529D01*
X6010221Y-17351695D01*
X6027676Y-17344787D01*
X6016870Y-17362480D01*
G36*
X-4831485Y-16725378D02*
G01*
X-4690930Y-16775163D01*
X-4618306Y-16820524D01*
X-4546155Y-16891993D01*
X-4498730Y-16980806D01*
X-4473777Y-17093672D01*
X-4469040Y-17237306D01*
X-4469940Y-17262068D01*
X-4475453Y-17358411D01*
X-4483838Y-17424293D01*
X-4498021Y-17471586D01*
X-4520931Y-17512163D01*
X-4537053Y-17534274D01*
X-4620870Y-17616016D01*
X-4731799Y-17674208D01*
X-4874978Y-17711395D01*
X-4904441Y-17716035D01*
X-4994873Y-17728171D01*
X-5061721Y-17733279D01*
X-5123143Y-17731374D01*
X-5197298Y-17722472D01*
X-5238750Y-17716326D01*
X-5436559Y-17675468D01*
X-5662486Y-17609056D01*
X-5820833Y-17553318D01*
X-5904840Y-17520379D01*
X-6004028Y-17478917D01*
X-6111448Y-17432143D01*
X-6220151Y-17383269D01*
X-6323186Y-17335505D01*
X-6413605Y-17292063D01*
X-6484456Y-17256154D01*
X-6528792Y-17230988D01*
X-6540500Y-17220789D01*
X-6522272Y-17205555D01*
X-6472140Y-17176565D01*
X-6396929Y-17137152D01*
X-6303466Y-17090648D01*
X-6198577Y-17040385D01*
X-6089088Y-16989698D01*
X-5981827Y-16941918D01*
X-5887271Y-16901871D01*
X-5637460Y-16810389D01*
X-5404452Y-16746837D01*
X-5190770Y-16711377D01*
X-4998940Y-16704170D01*
X-4831485Y-16725378D01*
G37*
X-4831485Y-16725378D02*
X-4690930Y-16775163D01*
X-4618306Y-16820524D01*
X-4546155Y-16891993D01*
X-4498730Y-16980806D01*
X-4473777Y-17093672D01*
X-4469040Y-17237306D01*
X-4469940Y-17262068D01*
X-4475453Y-17358411D01*
X-4483838Y-17424293D01*
X-4498021Y-17471586D01*
X-4520931Y-17512163D01*
X-4537053Y-17534274D01*
X-4620870Y-17616016D01*
X-4731799Y-17674208D01*
X-4874978Y-17711395D01*
X-4904441Y-17716035D01*
X-4994873Y-17728171D01*
X-5061721Y-17733279D01*
X-5123143Y-17731374D01*
X-5197298Y-17722472D01*
X-5238750Y-17716326D01*
X-5436559Y-17675468D01*
X-5662486Y-17609056D01*
X-5820833Y-17553318D01*
X-5904840Y-17520379D01*
X-6004028Y-17478917D01*
X-6111448Y-17432143D01*
X-6220151Y-17383269D01*
X-6323186Y-17335505D01*
X-6413605Y-17292063D01*
X-6484456Y-17256154D01*
X-6528792Y-17230988D01*
X-6540500Y-17220789D01*
X-6522272Y-17205555D01*
X-6472140Y-17176565D01*
X-6396929Y-17137152D01*
X-6303466Y-17090648D01*
X-6198577Y-17040385D01*
X-6089088Y-16989698D01*
X-5981827Y-16941918D01*
X-5887271Y-16901871D01*
X-5637460Y-16810389D01*
X-5404452Y-16746837D01*
X-5190770Y-16711377D01*
X-4998940Y-16704170D01*
X-4831485Y-16725378D01*
G36*
X7027334Y-16711991D02*
G01*
X7150618Y-16714823D01*
X7258762Y-16723843D01*
X7362629Y-16741343D01*
X7473085Y-16769615D01*
X7600995Y-16810953D01*
X7747000Y-16863826D01*
X7843433Y-16901860D01*
X7954882Y-16949049D01*
X8072873Y-17001446D01*
X8188934Y-17055101D01*
X8294591Y-17106067D01*
X8381370Y-17150395D01*
X8440797Y-17184137D01*
X8454823Y-17193644D01*
X8478689Y-17214826D01*
X8475482Y-17231491D01*
X8440538Y-17253875D01*
X8423073Y-17263286D01*
X8161981Y-17393825D01*
X7905961Y-17504709D01*
X7659465Y-17594658D01*
X7426945Y-17662393D01*
X7212851Y-17706633D01*
X7021637Y-17726099D01*
X6857753Y-17719512D01*
X6843295Y-17717411D01*
X6728607Y-17689347D01*
X6623253Y-17645135D01*
X6539407Y-17590733D01*
X6499575Y-17549144D01*
X6450191Y-17448477D01*
X6422808Y-17324530D01*
X6417688Y-17190350D01*
X6435092Y-17058982D01*
X6475281Y-16943472D01*
X6486989Y-16921855D01*
X6536920Y-16854810D01*
X6604655Y-16802049D01*
X6662180Y-16770862D01*
X6718751Y-16744674D01*
X6768510Y-16727528D01*
X6822888Y-16717580D01*
X6893320Y-16712988D01*
X6991239Y-16711908D01*
X7027334Y-16711991D01*
G37*
X7027334Y-16711991D02*
X7150618Y-16714823D01*
X7258762Y-16723843D01*
X7362629Y-16741343D01*
X7473085Y-16769615D01*
X7600995Y-16810953D01*
X7747000Y-16863826D01*
X7843433Y-16901860D01*
X7954882Y-16949049D01*
X8072873Y-17001446D01*
X8188934Y-17055101D01*
X8294591Y-17106067D01*
X8381370Y-17150395D01*
X8440797Y-17184137D01*
X8454823Y-17193644D01*
X8478689Y-17214826D01*
X8475482Y-17231491D01*
X8440538Y-17253875D01*
X8423073Y-17263286D01*
X8161981Y-17393825D01*
X7905961Y-17504709D01*
X7659465Y-17594658D01*
X7426945Y-17662393D01*
X7212851Y-17706633D01*
X7021637Y-17726099D01*
X6857753Y-17719512D01*
X6843295Y-17717411D01*
X6728607Y-17689347D01*
X6623253Y-17645135D01*
X6539407Y-17590733D01*
X6499575Y-17549144D01*
X6450191Y-17448477D01*
X6422808Y-17324530D01*
X6417688Y-17190350D01*
X6435092Y-17058982D01*
X6475281Y-16943472D01*
X6486989Y-16921855D01*
X6536920Y-16854810D01*
X6604655Y-16802049D01*
X6662180Y-16770862D01*
X6718751Y-16744674D01*
X6768510Y-16727528D01*
X6822888Y-16717580D01*
X6893320Y-16712988D01*
X6991239Y-16711908D01*
X7027334Y-16711991D01*
G36*
X-3365286Y-15116773D02*
G01*
X-3358130Y-15126921D01*
X-3352568Y-15157258D01*
X-3347576Y-15223227D01*
X-3343420Y-15318129D01*
X-3340370Y-15435264D01*
X-3338693Y-15567933D01*
X-3338477Y-15618211D01*
X-3341338Y-15865963D01*
X-3351781Y-16077533D01*
X-3370930Y-16258578D01*
X-3399908Y-16414754D01*
X-3439839Y-16551717D01*
X-3491846Y-16675124D01*
X-3557052Y-16790630D01*
X-3577542Y-16821902D01*
X-3672306Y-16938306D01*
X-3774216Y-17013836D01*
X-3887265Y-17049837D01*
X-4015448Y-17047652D01*
X-4148135Y-17013775D01*
X-4267003Y-16959313D01*
X-4369391Y-16886387D01*
X-4447495Y-16802188D01*
X-4493516Y-16713908D01*
X-4499501Y-16689917D01*
X-4504642Y-16578874D01*
X-4485898Y-16447165D01*
X-4445896Y-16307128D01*
X-4390395Y-16177224D01*
X-4316507Y-16053255D01*
X-4213441Y-15911669D01*
X-4086943Y-15758774D01*
X-3942757Y-15600880D01*
X-3786630Y-15444296D01*
X-3624305Y-15295333D01*
X-3471707Y-15168290D01*
X-3416603Y-15127191D01*
X-3384102Y-15111101D01*
X-3365286Y-15116773D01*
G37*
X-3365286Y-15116773D02*
X-3358130Y-15126921D01*
X-3352568Y-15157258D01*
X-3347576Y-15223227D01*
X-3343420Y-15318129D01*
X-3340370Y-15435264D01*
X-3338693Y-15567933D01*
X-3338477Y-15618211D01*
X-3341338Y-15865963D01*
X-3351781Y-16077533D01*
X-3370930Y-16258578D01*
X-3399908Y-16414754D01*
X-3439839Y-16551717D01*
X-3491846Y-16675124D01*
X-3557052Y-16790630D01*
X-3577542Y-16821902D01*
X-3672306Y-16938306D01*
X-3774216Y-17013836D01*
X-3887265Y-17049837D01*
X-4015448Y-17047652D01*
X-4148135Y-17013775D01*
X-4267003Y-16959313D01*
X-4369391Y-16886387D01*
X-4447495Y-16802188D01*
X-4493516Y-16713908D01*
X-4499501Y-16689917D01*
X-4504642Y-16578874D01*
X-4485898Y-16447165D01*
X-4445896Y-16307128D01*
X-4390395Y-16177224D01*
X-4316507Y-16053255D01*
X-4213441Y-15911669D01*
X-4086943Y-15758774D01*
X-3942757Y-15600880D01*
X-3786630Y-15444296D01*
X-3624305Y-15295333D01*
X-3471707Y-15168290D01*
X-3416603Y-15127191D01*
X-3384102Y-15111101D01*
X-3365286Y-15116773D01*
G36*
X5342139Y-15105117D02*
G01*
X5391032Y-15136034D01*
X5459619Y-15190135D01*
X5543643Y-15263229D01*
X5638848Y-15351126D01*
X5740976Y-15449633D01*
X5845770Y-15554561D01*
X5948973Y-15661719D01*
X6046329Y-15766915D01*
X6133581Y-15865958D01*
X6206471Y-15954658D01*
X6260743Y-16028823D01*
X6263869Y-16033568D01*
X6350067Y-16185861D01*
X6412259Y-16338831D01*
X6449174Y-16485949D01*
X6459539Y-16620685D01*
X6442083Y-16736511D01*
X6413466Y-16801479D01*
X6351019Y-16872703D01*
X6258467Y-16940156D01*
X6147975Y-16997759D01*
X6031707Y-17039435D01*
X5921829Y-17059105D01*
X5896367Y-17059869D01*
X5834941Y-17050567D01*
X5763539Y-17028057D01*
X5746569Y-17020858D01*
X5647608Y-16954756D01*
X5555051Y-16851951D01*
X5472193Y-16717961D01*
X5402327Y-16558303D01*
X5348751Y-16378493D01*
X5340295Y-16340667D01*
X5327500Y-16271891D01*
X5317789Y-16197747D01*
X5310790Y-16111360D01*
X5306128Y-16005855D01*
X5303432Y-15874354D01*
X5302329Y-15709982D01*
X5302250Y-15638633D01*
X5302833Y-15493981D01*
X5304470Y-15363502D01*
X5306997Y-15253121D01*
X5310248Y-15168765D01*
X5314060Y-15116359D01*
X5317198Y-15101575D01*
X5342139Y-15105117D01*
G37*
X5342139Y-15105117D02*
X5391032Y-15136034D01*
X5459619Y-15190135D01*
X5543643Y-15263229D01*
X5638848Y-15351126D01*
X5740976Y-15449633D01*
X5845770Y-15554561D01*
X5948973Y-15661719D01*
X6046329Y-15766915D01*
X6133581Y-15865958D01*
X6206471Y-15954658D01*
X6260743Y-16028823D01*
X6263869Y-16033568D01*
X6350067Y-16185861D01*
X6412259Y-16338831D01*
X6449174Y-16485949D01*
X6459539Y-16620685D01*
X6442083Y-16736511D01*
X6413466Y-16801479D01*
X6351019Y-16872703D01*
X6258467Y-16940156D01*
X6147975Y-16997759D01*
X6031707Y-17039435D01*
X5921829Y-17059105D01*
X5896367Y-17059869D01*
X5834941Y-17050567D01*
X5763539Y-17028057D01*
X5746569Y-17020858D01*
X5647608Y-16954756D01*
X5555051Y-16851951D01*
X5472193Y-16717961D01*
X5402327Y-16558303D01*
X5348751Y-16378493D01*
X5340295Y-16340667D01*
X5327500Y-16271891D01*
X5317789Y-16197747D01*
X5310790Y-16111360D01*
X5306128Y-16005855D01*
X5303432Y-15874354D01*
X5302329Y-15709982D01*
X5302250Y-15638633D01*
X5302833Y-15493981D01*
X5304470Y-15363502D01*
X5306997Y-15253121D01*
X5310248Y-15168765D01*
X5314060Y-15116359D01*
X5317198Y-15101575D01*
X5342139Y-15105117D01*
G36*
X-6173405Y-15361353D02*
G01*
X-6030792Y-15378330D01*
X-5958416Y-15395428D01*
X-5811751Y-15450031D01*
X-5701307Y-15515488D01*
X-5621598Y-15595401D01*
X-5596544Y-15633153D01*
X-5568518Y-15685172D01*
X-5552662Y-15731425D01*
X-5546528Y-15786004D01*
X-5547670Y-15863000D01*
X-5549622Y-15903341D01*
X-5569523Y-16062112D01*
X-5611749Y-16187579D01*
X-5677895Y-16283351D01*
X-5740770Y-16335642D01*
X-5789967Y-16364195D01*
X-5840676Y-16381933D01*
X-5906170Y-16391931D01*
X-5999725Y-16397263D01*
X-6008080Y-16397555D01*
X-6143957Y-16395953D01*
X-6260125Y-16382400D01*
X-6301372Y-16372916D01*
X-6471970Y-16315793D01*
X-6651726Y-16236746D01*
X-6844712Y-16133506D01*
X-7054998Y-16003805D01*
X-7286657Y-15845373D01*
X-7414831Y-15752420D01*
X-7488310Y-15695878D01*
X-7544927Y-15647739D01*
X-7578466Y-15613608D01*
X-7584165Y-15599780D01*
X-7552864Y-15585086D01*
X-7487549Y-15563350D01*
X-7395570Y-15536543D01*
X-7284275Y-15506636D01*
X-7161014Y-15475599D01*
X-7033136Y-15445402D01*
X-6907990Y-15418016D01*
X-6900333Y-15416424D01*
X-6713930Y-15384628D01*
X-6524374Y-15364712D01*
X-6341066Y-15356883D01*
X-6173405Y-15361353D01*
G37*
X-6173405Y-15361353D02*
X-6030792Y-15378330D01*
X-5958416Y-15395428D01*
X-5811751Y-15450031D01*
X-5701307Y-15515488D01*
X-5621598Y-15595401D01*
X-5596544Y-15633153D01*
X-5568518Y-15685172D01*
X-5552662Y-15731425D01*
X-5546528Y-15786004D01*
X-5547670Y-15863000D01*
X-5549622Y-15903341D01*
X-5569523Y-16062112D01*
X-5611749Y-16187579D01*
X-5677895Y-16283351D01*
X-5740770Y-16335642D01*
X-5789967Y-16364195D01*
X-5840676Y-16381933D01*
X-5906170Y-16391931D01*
X-5999725Y-16397263D01*
X-6008080Y-16397555D01*
X-6143957Y-16395953D01*
X-6260125Y-16382400D01*
X-6301372Y-16372916D01*
X-6471970Y-16315793D01*
X-6651726Y-16236746D01*
X-6844712Y-16133506D01*
X-7054998Y-16003805D01*
X-7286657Y-15845373D01*
X-7414831Y-15752420D01*
X-7488310Y-15695878D01*
X-7544927Y-15647739D01*
X-7578466Y-15613608D01*
X-7584165Y-15599780D01*
X-7552864Y-15585086D01*
X-7487549Y-15563350D01*
X-7395570Y-15536543D01*
X-7284275Y-15506636D01*
X-7161014Y-15475599D01*
X-7033136Y-15445402D01*
X-6907990Y-15418016D01*
X-6900333Y-15416424D01*
X-6713930Y-15384628D01*
X-6524374Y-15364712D01*
X-6341066Y-15356883D01*
X-6173405Y-15361353D01*
G36*
X8534137Y-15365907D02*
G01*
X8772446Y-15400136D01*
X8875619Y-15420136D01*
X8996831Y-15446571D01*
X9125592Y-15476842D01*
X9251412Y-15508347D01*
X9363802Y-15538487D01*
X9452272Y-15564662D01*
X9493250Y-15578806D01*
X9556750Y-15603341D01*
X9472084Y-15676100D01*
X9386972Y-15743635D01*
X9274172Y-15825105D01*
X9143243Y-15914327D01*
X9003744Y-16005117D01*
X8865234Y-16091293D01*
X8737271Y-16166670D01*
X8629415Y-16225066D01*
X8604250Y-16237470D01*
X8408100Y-16319827D01*
X8222462Y-16375132D01*
X8051998Y-16402686D01*
X7901372Y-16401791D01*
X7775247Y-16371750D01*
X7757584Y-16364161D01*
X7654939Y-16299706D01*
X7583109Y-16211817D01*
X7546441Y-16130485D01*
X7504716Y-15966824D01*
X7499443Y-15818804D01*
X7529817Y-15688852D01*
X7595037Y-15579396D01*
X7694300Y-15492862D01*
X7770495Y-15452683D01*
X7936300Y-15395373D01*
X8114990Y-15362009D01*
X8312343Y-15352288D01*
X8534137Y-15365907D01*
G37*
X8534137Y-15365907D02*
X8772446Y-15400136D01*
X8875619Y-15420136D01*
X8996831Y-15446571D01*
X9125592Y-15476842D01*
X9251412Y-15508347D01*
X9363802Y-15538487D01*
X9452272Y-15564662D01*
X9493250Y-15578806D01*
X9556750Y-15603341D01*
X9472084Y-15676100D01*
X9386972Y-15743635D01*
X9274172Y-15825105D01*
X9143243Y-15914327D01*
X9003744Y-16005117D01*
X8865234Y-16091293D01*
X8737271Y-16166670D01*
X8629415Y-16225066D01*
X8604250Y-16237470D01*
X8408100Y-16319827D01*
X8222462Y-16375132D01*
X8051998Y-16402686D01*
X7901372Y-16401791D01*
X7775247Y-16371750D01*
X7757584Y-16364161D01*
X7654939Y-16299706D01*
X7583109Y-16211817D01*
X7546441Y-16130485D01*
X7504716Y-15966824D01*
X7499443Y-15818804D01*
X7529817Y-15688852D01*
X7595037Y-15579396D01*
X7694300Y-15492862D01*
X7770495Y-15452683D01*
X7936300Y-15395373D01*
X8114990Y-15362009D01*
X8312343Y-15352288D01*
X8534137Y-15365907D01*
G36*
X-4092418Y-14019193D02*
G01*
X-4089366Y-14044193D01*
X-4090249Y-14103697D01*
X-4094470Y-14190117D01*
X-4101429Y-14295869D01*
X-4110528Y-14413367D01*
X-4121168Y-14535022D01*
X-4132752Y-14653251D01*
X-4144680Y-14760466D01*
X-4156355Y-14849081D01*
X-4159505Y-14869584D01*
X-4210840Y-15123890D01*
X-4277678Y-15345621D01*
X-4359161Y-15533073D01*
X-4454430Y-15684542D01*
X-4562627Y-15798324D01*
X-4659630Y-15861929D01*
X-4761780Y-15902890D01*
X-4853842Y-15913700D01*
X-4953811Y-15895471D01*
X-4993659Y-15882555D01*
X-5138552Y-15815111D01*
X-5263011Y-15724297D01*
X-5295705Y-15692191D01*
X-5360025Y-15594399D01*
X-5388312Y-15478860D01*
X-5381464Y-15348513D01*
X-5340382Y-15206297D01*
X-5265967Y-15055152D01*
X-5159119Y-14898015D01*
X-5020739Y-14737827D01*
X-4995333Y-14711706D01*
X-4917916Y-14637298D01*
X-4824521Y-14553772D01*
X-4720154Y-14464968D01*
X-4609827Y-14374730D01*
X-4498546Y-14286898D01*
X-4391322Y-14205315D01*
X-4293162Y-14133821D01*
X-4209076Y-14076258D01*
X-4144072Y-14036468D01*
X-4103159Y-14018293D01*
X-4092418Y-14019193D01*
G37*
X-4092418Y-14019193D02*
X-4089366Y-14044193D01*
X-4090249Y-14103697D01*
X-4094470Y-14190117D01*
X-4101429Y-14295869D01*
X-4110528Y-14413367D01*
X-4121168Y-14535022D01*
X-4132752Y-14653251D01*
X-4144680Y-14760466D01*
X-4156355Y-14849081D01*
X-4159505Y-14869584D01*
X-4210840Y-15123890D01*
X-4277678Y-15345621D01*
X-4359161Y-15533073D01*
X-4454430Y-15684542D01*
X-4562627Y-15798324D01*
X-4659630Y-15861929D01*
X-4761780Y-15902890D01*
X-4853842Y-15913700D01*
X-4953811Y-15895471D01*
X-4993659Y-15882555D01*
X-5138552Y-15815111D01*
X-5263011Y-15724297D01*
X-5295705Y-15692191D01*
X-5360025Y-15594399D01*
X-5388312Y-15478860D01*
X-5381464Y-15348513D01*
X-5340382Y-15206297D01*
X-5265967Y-15055152D01*
X-5159119Y-14898015D01*
X-5020739Y-14737827D01*
X-4995333Y-14711706D01*
X-4917916Y-14637298D01*
X-4824521Y-14553772D01*
X-4720154Y-14464968D01*
X-4609827Y-14374730D01*
X-4498546Y-14286898D01*
X-4391322Y-14205315D01*
X-4293162Y-14133821D01*
X-4209076Y-14076258D01*
X-4144072Y-14036468D01*
X-4103159Y-14018293D01*
X-4092418Y-14019193D01*
G36*
X6076682Y-14023283D02*
G01*
X6266671Y-14144178D01*
X6455542Y-14280036D01*
X6637898Y-14425876D01*
X6808342Y-14576718D01*
X6961478Y-14727581D01*
X7091907Y-14873484D01*
X7194234Y-15009446D01*
X7252673Y-15108589D01*
X7293854Y-15195303D01*
X7318288Y-15262299D01*
X7330240Y-15326609D01*
X7333978Y-15405267D01*
X7334135Y-15433759D01*
X7332745Y-15519120D01*
X7325931Y-15576172D01*
X7309952Y-15618904D01*
X7281065Y-15661308D01*
X7269320Y-15676060D01*
X7176538Y-15765776D01*
X7063702Y-15836212D01*
X6940555Y-15884247D01*
X6816838Y-15906759D01*
X6702296Y-15900626D01*
X6635750Y-15879039D01*
X6514996Y-15799029D01*
X6407134Y-15679859D01*
X6312639Y-15522840D01*
X6231987Y-15329284D01*
X6165651Y-15100500D01*
X6114108Y-14837801D01*
X6077831Y-14542498D01*
X6060450Y-14290607D01*
X6055471Y-14175156D01*
X6053775Y-14096206D01*
X6055710Y-14048024D01*
X6061623Y-14024878D01*
X6071863Y-14021039D01*
X6076682Y-14023283D01*
G37*
X6076682Y-14023283D02*
X6266671Y-14144178D01*
X6455542Y-14280036D01*
X6637898Y-14425876D01*
X6808342Y-14576718D01*
X6961478Y-14727581D01*
X7091907Y-14873484D01*
X7194234Y-15009446D01*
X7252673Y-15108589D01*
X7293854Y-15195303D01*
X7318288Y-15262299D01*
X7330240Y-15326609D01*
X7333978Y-15405267D01*
X7334135Y-15433759D01*
X7332745Y-15519120D01*
X7325931Y-15576172D01*
X7309952Y-15618904D01*
X7281065Y-15661308D01*
X7269320Y-15676060D01*
X7176538Y-15765776D01*
X7063702Y-15836212D01*
X6940555Y-15884247D01*
X6816838Y-15906759D01*
X6702296Y-15900626D01*
X6635750Y-15879039D01*
X6514996Y-15799029D01*
X6407134Y-15679859D01*
X6312639Y-15522840D01*
X6231987Y-15329284D01*
X6165651Y-15100500D01*
X6114108Y-14837801D01*
X6077831Y-14542498D01*
X6060450Y-14290607D01*
X6055471Y-14175156D01*
X6053775Y-14096206D01*
X6055710Y-14048024D01*
X6061623Y-14024878D01*
X6071863Y-14021039D01*
X6076682Y-14023283D01*
G36*
X-7859981Y-13659095D02*
G01*
X-7560435Y-13678072D01*
X-7298480Y-13710289D01*
X-7071233Y-13756576D01*
X-6875809Y-13817765D01*
X-6709326Y-13894687D01*
X-6568900Y-13988173D01*
X-6496294Y-14052228D01*
X-6404206Y-14159090D01*
X-6351186Y-14264692D01*
X-6336374Y-14375120D01*
X-6358906Y-14496458D01*
X-6414651Y-14628423D01*
X-6498139Y-14760549D01*
X-6594195Y-14852499D01*
X-6704492Y-14904920D01*
X-6830705Y-14918457D01*
X-6974509Y-14893754D01*
X-7043875Y-14870904D01*
X-7165101Y-14812543D01*
X-7298429Y-14725567D01*
X-7433891Y-14617487D01*
X-7561520Y-14495814D01*
X-7606357Y-14447050D01*
X-7687993Y-14350783D01*
X-7780872Y-14235084D01*
X-7877519Y-14109851D01*
X-7970454Y-13984987D01*
X-8052202Y-13870391D01*
X-8115284Y-13775964D01*
X-8125051Y-13760290D01*
X-8195213Y-13645830D01*
X-7859981Y-13659095D01*
G37*
X-7859981Y-13659095D02*
X-7560435Y-13678072D01*
X-7298480Y-13710289D01*
X-7071233Y-13756576D01*
X-6875809Y-13817765D01*
X-6709326Y-13894687D01*
X-6568900Y-13988173D01*
X-6496294Y-14052228D01*
X-6404206Y-14159090D01*
X-6351186Y-14264692D01*
X-6336374Y-14375120D01*
X-6358906Y-14496458D01*
X-6414651Y-14628423D01*
X-6498139Y-14760549D01*
X-6594195Y-14852499D01*
X-6704492Y-14904920D01*
X-6830705Y-14918457D01*
X-6974509Y-14893754D01*
X-7043875Y-14870904D01*
X-7165101Y-14812543D01*
X-7298429Y-14725567D01*
X-7433891Y-14617487D01*
X-7561520Y-14495814D01*
X-7606357Y-14447050D01*
X-7687993Y-14350783D01*
X-7780872Y-14235084D01*
X-7877519Y-14109851D01*
X-7970454Y-13984987D01*
X-8052202Y-13870391D01*
X-8115284Y-13775964D01*
X-8125051Y-13760290D01*
X-8195213Y-13645830D01*
X-7859981Y-13659095D01*
G36*
X10091154Y-13652515D02*
G01*
X10132066Y-13657026D01*
X10138834Y-13661458D01*
X10126929Y-13686972D01*
X10094287Y-13739810D01*
X10045510Y-13813386D01*
X9985203Y-13901115D01*
X9917970Y-13996412D01*
X9848416Y-14092690D01*
X9781145Y-14183365D01*
X9720761Y-14261851D01*
X9706762Y-14279443D01*
X9543377Y-14467240D01*
X9380303Y-14624373D01*
X9219964Y-14749514D01*
X9064784Y-14841333D01*
X8917188Y-14898499D01*
X8779599Y-14919684D01*
X8654442Y-14903557D01*
X8603972Y-14884317D01*
X8510733Y-14819841D01*
X8425799Y-14717175D01*
X8349643Y-14578887D01*
X8305649Y-14442870D01*
X8302386Y-14313800D01*
X8338650Y-14192837D01*
X8413238Y-14081141D01*
X8524943Y-13979871D01*
X8672564Y-13890186D01*
X8854894Y-13813246D01*
X9070730Y-13750211D01*
X9248235Y-13713731D01*
X9337392Y-13700513D01*
X9445396Y-13688050D01*
X9565137Y-13676761D01*
X9689510Y-13667062D01*
X9811405Y-13659371D01*
X9923716Y-13654104D01*
X10019335Y-13651680D01*
X10091154Y-13652515D01*
G37*
X10091154Y-13652515D02*
X10132066Y-13657026D01*
X10138834Y-13661458D01*
X10126929Y-13686972D01*
X10094287Y-13739810D01*
X10045510Y-13813386D01*
X9985203Y-13901115D01*
X9917970Y-13996412D01*
X9848416Y-14092690D01*
X9781145Y-14183365D01*
X9720761Y-14261851D01*
X9706762Y-14279443D01*
X9543377Y-14467240D01*
X9380303Y-14624373D01*
X9219964Y-14749514D01*
X9064784Y-14841333D01*
X8917188Y-14898499D01*
X8779599Y-14919684D01*
X8654442Y-14903557D01*
X8603972Y-14884317D01*
X8510733Y-14819841D01*
X8425799Y-14717175D01*
X8349643Y-14578887D01*
X8305649Y-14442870D01*
X8302386Y-14313800D01*
X8338650Y-14192837D01*
X8413238Y-14081141D01*
X8524943Y-13979871D01*
X8672564Y-13890186D01*
X8854894Y-13813246D01*
X9070730Y-13750211D01*
X9248235Y-13713731D01*
X9337392Y-13700513D01*
X9445396Y-13688050D01*
X9565137Y-13676761D01*
X9689510Y-13667062D01*
X9811405Y-13659371D01*
X9923716Y-13654104D01*
X10019335Y-13651680D01*
X10091154Y-13652515D01*
G36*
X-4558966Y-13129312D02*
G01*
X-4560902Y-13153088D01*
X-4575461Y-13209265D01*
X-4600199Y-13290683D01*
X-4632675Y-13390179D01*
X-4670446Y-13500594D01*
X-4711072Y-13614765D01*
X-4752110Y-13725532D01*
X-4791119Y-13825733D01*
X-4820700Y-13896888D01*
X-4927559Y-14121496D01*
X-5037936Y-14309156D01*
X-5155188Y-14465252D01*
X-5216790Y-14532484D01*
X-5353974Y-14653121D01*
X-5487766Y-14731651D01*
X-5618382Y-14768141D01*
X-5746041Y-14762665D01*
X-5835843Y-14732958D01*
X-5916301Y-14684337D01*
X-6001156Y-14613824D01*
X-6078154Y-14533420D01*
X-6135045Y-14455125D01*
X-6150372Y-14424865D01*
X-6181743Y-14298144D01*
X-6171737Y-14169110D01*
X-6121187Y-14038676D01*
X-6030928Y-13907754D01*
X-5901791Y-13777256D01*
X-5734612Y-13648094D01*
X-5530222Y-13521181D01*
X-5289456Y-13397429D01*
X-5157097Y-13337632D01*
X-5041340Y-13289097D01*
X-4924182Y-13242873D01*
X-4812508Y-13201359D01*
X-4713204Y-13166953D01*
X-4633156Y-13142053D01*
X-4579251Y-13129057D01*
X-4558966Y-13129312D01*
G37*
X-4558966Y-13129312D02*
X-4560902Y-13153088D01*
X-4575461Y-13209265D01*
X-4600199Y-13290683D01*
X-4632675Y-13390179D01*
X-4670446Y-13500594D01*
X-4711072Y-13614765D01*
X-4752110Y-13725532D01*
X-4791119Y-13825733D01*
X-4820700Y-13896888D01*
X-4927559Y-14121496D01*
X-5037936Y-14309156D01*
X-5155188Y-14465252D01*
X-5216790Y-14532484D01*
X-5353974Y-14653121D01*
X-5487766Y-14731651D01*
X-5618382Y-14768141D01*
X-5746041Y-14762665D01*
X-5835843Y-14732958D01*
X-5916301Y-14684337D01*
X-6001156Y-14613824D01*
X-6078154Y-14533420D01*
X-6135045Y-14455125D01*
X-6150372Y-14424865D01*
X-6181743Y-14298144D01*
X-6171737Y-14169110D01*
X-6121187Y-14038676D01*
X-6030928Y-13907754D01*
X-5901791Y-13777256D01*
X-5734612Y-13648094D01*
X-5530222Y-13521181D01*
X-5289456Y-13397429D01*
X-5157097Y-13337632D01*
X-5041340Y-13289097D01*
X-4924182Y-13242873D01*
X-4812508Y-13201359D01*
X-4713204Y-13166953D01*
X-4633156Y-13142053D01*
X-4579251Y-13129057D01*
X-4558966Y-13129312D01*
G36*
X6616356Y-13143056D02*
G01*
X6703441Y-13171788D01*
X6810872Y-13212084D01*
X6932831Y-13261448D01*
X7063501Y-13317378D01*
X7197062Y-13377376D01*
X7327700Y-13438943D01*
X7449594Y-13499580D01*
X7556929Y-13556787D01*
X7643885Y-13608064D01*
X7654443Y-13614850D01*
X7793114Y-13717379D01*
X7915437Y-13831610D01*
X8016761Y-13951450D01*
X8092434Y-14070804D01*
X8137805Y-14183578D01*
X8149167Y-14263031D01*
X8129630Y-14367940D01*
X8073589Y-14478557D01*
X7984900Y-14587812D01*
X7957331Y-14614785D01*
X7835150Y-14709426D01*
X7714237Y-14762437D01*
X7592162Y-14774364D01*
X7466495Y-14745749D01*
X7433379Y-14731937D01*
X7349473Y-14681103D01*
X7253339Y-14602405D01*
X7153863Y-14504668D01*
X7059933Y-14396721D01*
X6980434Y-14287389D01*
X6971195Y-14272850D01*
X6919164Y-14182960D01*
X6860848Y-14072251D01*
X6805792Y-13959162D01*
X6784657Y-13912485D01*
X6745621Y-13818828D01*
X6703819Y-13710398D01*
X6661579Y-13594246D01*
X6621226Y-13477423D01*
X6585089Y-13366979D01*
X6555495Y-13269966D01*
X6534771Y-13193435D01*
X6525244Y-13144436D01*
X6526491Y-13130287D01*
X6555433Y-13128389D01*
X6616356Y-13143056D01*
G37*
X6616356Y-13143056D02*
X6703441Y-13171788D01*
X6810872Y-13212084D01*
X6932831Y-13261448D01*
X7063501Y-13317378D01*
X7197062Y-13377376D01*
X7327700Y-13438943D01*
X7449594Y-13499580D01*
X7556929Y-13556787D01*
X7643885Y-13608064D01*
X7654443Y-13614850D01*
X7793114Y-13717379D01*
X7915437Y-13831610D01*
X8016761Y-13951450D01*
X8092434Y-14070804D01*
X8137805Y-14183578D01*
X8149167Y-14263031D01*
X8129630Y-14367940D01*
X8073589Y-14478557D01*
X7984900Y-14587812D01*
X7957331Y-14614785D01*
X7835150Y-14709426D01*
X7714237Y-14762437D01*
X7592162Y-14774364D01*
X7466495Y-14745749D01*
X7433379Y-14731937D01*
X7349473Y-14681103D01*
X7253339Y-14602405D01*
X7153863Y-14504668D01*
X7059933Y-14396721D01*
X6980434Y-14287389D01*
X6971195Y-14272850D01*
X6919164Y-14182960D01*
X6860848Y-14072251D01*
X6805792Y-13959162D01*
X6784657Y-13912485D01*
X6745621Y-13818828D01*
X6703819Y-13710398D01*
X6661579Y-13594246D01*
X6621226Y-13477423D01*
X6585089Y-13366979D01*
X6555495Y-13269966D01*
X6534771Y-13193435D01*
X6525244Y-13144436D01*
X6526491Y-13130287D01*
X6555433Y-13128389D01*
X6616356Y-13143056D01*
G36*
X-4643365Y-12093063D02*
G01*
X-4641360Y-12094418D01*
X-4647263Y-12116237D01*
X-4673111Y-12166794D01*
X-4715000Y-12239848D01*
X-4769026Y-12329163D01*
X-4831284Y-12428499D01*
X-4897870Y-12531617D01*
X-4964879Y-12632279D01*
X-5028408Y-12724247D01*
X-5079766Y-12794939D01*
X-5234631Y-12984453D01*
X-5391067Y-13144299D01*
X-5546491Y-13272989D01*
X-5698317Y-13369038D01*
X-5843963Y-13430959D01*
X-5980844Y-13457263D01*
X-6106377Y-13446465D01*
X-6171581Y-13423271D01*
X-6259860Y-13363736D01*
X-6344015Y-13275355D01*
X-6416486Y-13169715D01*
X-6469713Y-13058404D01*
X-6496135Y-12953010D01*
X-6497702Y-12923386D01*
X-6476309Y-12801893D01*
X-6415079Y-12684886D01*
X-6316439Y-12574374D01*
X-6182813Y-12472370D01*
X-6016626Y-12380886D01*
X-5820302Y-12301932D01*
X-5705119Y-12265929D01*
X-5607599Y-12240689D01*
X-5490361Y-12214348D01*
X-5360078Y-12187981D01*
X-5223422Y-12162664D01*
X-5087068Y-12139473D01*
X-4957687Y-12119483D01*
X-4841953Y-12103772D01*
X-4746539Y-12093414D01*
X-4678119Y-12089485D01*
X-4643365Y-12093063D01*
G37*
X-4643365Y-12093063D02*
X-4641360Y-12094418D01*
X-4647263Y-12116237D01*
X-4673111Y-12166794D01*
X-4715000Y-12239848D01*
X-4769026Y-12329163D01*
X-4831284Y-12428499D01*
X-4897870Y-12531617D01*
X-4964879Y-12632279D01*
X-5028408Y-12724247D01*
X-5079766Y-12794939D01*
X-5234631Y-12984453D01*
X-5391067Y-13144299D01*
X-5546491Y-13272989D01*
X-5698317Y-13369038D01*
X-5843963Y-13430959D01*
X-5980844Y-13457263D01*
X-6106377Y-13446465D01*
X-6171581Y-13423271D01*
X-6259860Y-13363736D01*
X-6344015Y-13275355D01*
X-6416486Y-13169715D01*
X-6469713Y-13058404D01*
X-6496135Y-12953010D01*
X-6497702Y-12923386D01*
X-6476309Y-12801893D01*
X-6415079Y-12684886D01*
X-6316439Y-12574374D01*
X-6182813Y-12472370D01*
X-6016626Y-12380886D01*
X-5820302Y-12301932D01*
X-5705119Y-12265929D01*
X-5607599Y-12240689D01*
X-5490361Y-12214348D01*
X-5360078Y-12187981D01*
X-5223422Y-12162664D01*
X-5087068Y-12139473D01*
X-4957687Y-12119483D01*
X-4841953Y-12103772D01*
X-4746539Y-12093414D01*
X-4678119Y-12089485D01*
X-4643365Y-12093063D01*
G36*
X6678206Y-12093218D02*
G01*
X6760777Y-12101188D01*
X6864607Y-12113925D01*
X6982904Y-12130456D01*
X7108878Y-12149809D01*
X7235737Y-12171010D01*
X7356693Y-12193088D01*
X7464953Y-12215069D01*
X7510275Y-12225268D01*
X7746830Y-12291474D01*
X7953644Y-12371605D01*
X8128403Y-12464161D01*
X8268792Y-12567639D01*
X8372497Y-12680538D01*
X8437202Y-12801356D01*
X8447130Y-12833054D01*
X8453858Y-12930211D01*
X8430425Y-13041365D01*
X8381546Y-13156515D01*
X8311933Y-13265662D01*
X8226301Y-13358805D01*
X8183003Y-13393399D01*
X8082226Y-13440592D01*
X7962217Y-13456919D01*
X7833581Y-13441552D01*
X7778474Y-13425070D01*
X7634954Y-13362051D01*
X7495916Y-13275648D01*
X7358207Y-13162794D01*
X7218678Y-13020426D01*
X7074178Y-12845477D01*
X6921556Y-12634883D01*
X6837433Y-12509500D01*
X6769900Y-12403779D01*
X6708971Y-12303242D01*
X6658574Y-12214859D01*
X6622639Y-12145595D01*
X6605092Y-12102419D01*
X6604000Y-12095468D01*
X6623683Y-12090987D01*
X6678206Y-12093218D01*
G37*
X6678206Y-12093218D02*
X6760777Y-12101188D01*
X6864607Y-12113925D01*
X6982904Y-12130456D01*
X7108878Y-12149809D01*
X7235737Y-12171010D01*
X7356693Y-12193088D01*
X7464953Y-12215069D01*
X7510275Y-12225268D01*
X7746830Y-12291474D01*
X7953644Y-12371605D01*
X8128403Y-12464161D01*
X8268792Y-12567639D01*
X8372497Y-12680538D01*
X8437202Y-12801356D01*
X8447130Y-12833054D01*
X8453858Y-12930211D01*
X8430425Y-13041365D01*
X8381546Y-13156515D01*
X8311933Y-13265662D01*
X8226301Y-13358805D01*
X8183003Y-13393399D01*
X8082226Y-13440592D01*
X7962217Y-13456919D01*
X7833581Y-13441552D01*
X7778474Y-13425070D01*
X7634954Y-13362051D01*
X7495916Y-13275648D01*
X7358207Y-13162794D01*
X7218678Y-13020426D01*
X7074178Y-12845477D01*
X6921556Y-12634883D01*
X6837433Y-12509500D01*
X6769900Y-12403779D01*
X6708971Y-12303242D01*
X6658574Y-12214859D01*
X6622639Y-12145595D01*
X6605092Y-12102419D01*
X6604000Y-12095468D01*
X6623683Y-12090987D01*
X6678206Y-12093218D01*
G36*
X-8140095Y-11588497D02*
G01*
X-8085470Y-11606755D01*
X-8006225Y-11637080D01*
X-7909276Y-11676652D01*
X-7801538Y-11722648D01*
X-7689925Y-11772249D01*
X-7583063Y-11821818D01*
X-7346903Y-11944692D01*
X-7141840Y-12073402D01*
X-6969684Y-12206159D01*
X-6832247Y-12341174D01*
X-6731342Y-12476657D01*
X-6668778Y-12610818D01*
X-6646369Y-12741869D01*
X-6646333Y-12747169D01*
X-6654816Y-12845181D01*
X-6684045Y-12929479D01*
X-6739694Y-13011318D01*
X-6823071Y-13097862D01*
X-6940437Y-13194041D01*
X-7049796Y-13251437D01*
X-7156859Y-13271318D01*
X-7267335Y-13254949D01*
X-7360865Y-13217178D01*
X-7493723Y-13128311D01*
X-7619226Y-12997823D01*
X-7737332Y-12825792D01*
X-7848000Y-12612295D01*
X-7951189Y-12357407D01*
X-8046856Y-12061205D01*
X-8105886Y-11843002D01*
X-8129741Y-11746171D01*
X-8148463Y-11665561D01*
X-8160254Y-11609261D01*
X-8163319Y-11585358D01*
X-8163184Y-11585129D01*
X-8140095Y-11588497D01*
G37*
X-8140095Y-11588497D02*
X-8085470Y-11606755D01*
X-8006225Y-11637080D01*
X-7909276Y-11676652D01*
X-7801538Y-11722648D01*
X-7689925Y-11772249D01*
X-7583063Y-11821818D01*
X-7346903Y-11944692D01*
X-7141840Y-12073402D01*
X-6969684Y-12206159D01*
X-6832247Y-12341174D01*
X-6731342Y-12476657D01*
X-6668778Y-12610818D01*
X-6646369Y-12741869D01*
X-6646333Y-12747169D01*
X-6654816Y-12845181D01*
X-6684045Y-12929479D01*
X-6739694Y-13011318D01*
X-6823071Y-13097862D01*
X-6940437Y-13194041D01*
X-7049796Y-13251437D01*
X-7156859Y-13271318D01*
X-7267335Y-13254949D01*
X-7360865Y-13217178D01*
X-7493723Y-13128311D01*
X-7619226Y-12997823D01*
X-7737332Y-12825792D01*
X-7848000Y-12612295D01*
X-7951189Y-12357407D01*
X-8046856Y-12061205D01*
X-8105886Y-11843002D01*
X-8129741Y-11746171D01*
X-8148463Y-11665561D01*
X-8160254Y-11609261D01*
X-8163319Y-11585358D01*
X-8163184Y-11585129D01*
X-8140095Y-11588497D01*
G36*
X10106394Y-11667699D02*
G01*
X10088616Y-11751231D01*
X10059287Y-11864182D01*
X10021556Y-11996272D01*
X9978573Y-12137220D01*
X9933487Y-12276747D01*
X9889449Y-12404572D01*
X9849607Y-12510416D01*
X9843907Y-12524443D01*
X9763666Y-12704336D01*
X9683602Y-12851045D01*
X9598372Y-12973360D01*
X9511893Y-13070804D01*
X9388851Y-13177377D01*
X9269653Y-13242897D01*
X9151395Y-13268102D01*
X9031170Y-13253731D01*
X8936959Y-13216924D01*
X8822051Y-13142819D01*
X8723990Y-13047153D01*
X8649219Y-12938732D01*
X8604183Y-12826364D01*
X8593785Y-12747852D01*
X8611720Y-12643789D01*
X8663030Y-12527168D01*
X8743258Y-12404430D01*
X8847948Y-12282015D01*
X8972643Y-12166361D01*
X9024651Y-12125295D01*
X9108888Y-12068138D01*
X9223191Y-11999531D01*
X9358488Y-11924166D01*
X9505711Y-11846732D01*
X9655787Y-11771921D01*
X9799646Y-11704421D01*
X9928219Y-11648925D01*
X9997891Y-11622018D01*
X10121532Y-11577315D01*
X10106394Y-11667699D01*
G37*
X10106394Y-11667699D02*
X10088616Y-11751231D01*
X10059287Y-11864182D01*
X10021556Y-11996272D01*
X9978573Y-12137220D01*
X9933487Y-12276747D01*
X9889449Y-12404572D01*
X9849607Y-12510416D01*
X9843907Y-12524443D01*
X9763666Y-12704336D01*
X9683602Y-12851045D01*
X9598372Y-12973360D01*
X9511893Y-13070804D01*
X9388851Y-13177377D01*
X9269653Y-13242897D01*
X9151395Y-13268102D01*
X9031170Y-13253731D01*
X8936959Y-13216924D01*
X8822051Y-13142819D01*
X8723990Y-13047153D01*
X8649219Y-12938732D01*
X8604183Y-12826364D01*
X8593785Y-12747852D01*
X8611720Y-12643789D01*
X8663030Y-12527168D01*
X8743258Y-12404430D01*
X8847948Y-12282015D01*
X8972643Y-12166361D01*
X9024651Y-12125295D01*
X9108888Y-12068138D01*
X9223191Y-11999531D01*
X9358488Y-11924166D01*
X9505711Y-11846732D01*
X9655787Y-11771921D01*
X9799646Y-11704421D01*
X9928219Y-11648925D01*
X9997891Y-11622018D01*
X10121532Y-11577315D01*
X10106394Y-11667699D01*
G36*
X-5552783Y-11011355D02*
G01*
X-5377802Y-11024953D01*
X-5282529Y-11037700D01*
X-5185964Y-11054651D01*
X-5071251Y-11077617D01*
X-4946566Y-11104645D01*
X-4820087Y-11133779D01*
X-4699989Y-11163067D01*
X-4594452Y-11190554D01*
X-4511651Y-11214287D01*
X-4459763Y-11232311D01*
X-4451502Y-11236282D01*
X-4443922Y-11248313D01*
X-4455019Y-11269195D01*
X-4488500Y-11302440D01*
X-4548073Y-11351561D01*
X-4637446Y-11420070D01*
X-4676034Y-11448966D01*
X-4924654Y-11625223D01*
X-5157729Y-11771852D01*
X-5372987Y-11887625D01*
X-5568152Y-11971314D01*
X-5734412Y-12020313D01*
X-5845286Y-12036690D01*
X-5963887Y-12042127D01*
X-6076206Y-12036929D01*
X-6168233Y-12021404D01*
X-6201682Y-12010115D01*
X-6308523Y-11945045D01*
X-6388905Y-11852360D01*
X-6445070Y-11728672D01*
X-6475479Y-11596429D01*
X-6485687Y-11450735D01*
X-6464495Y-11330214D01*
X-6409585Y-11231128D01*
X-6318638Y-11149744D01*
X-6189334Y-11082326D01*
X-6145838Y-11065406D01*
X-6033925Y-11036279D01*
X-5891005Y-11017344D01*
X-5727237Y-11008927D01*
X-5552783Y-11011355D01*
G37*
X-5552783Y-11011355D02*
X-5377802Y-11024953D01*
X-5282529Y-11037700D01*
X-5185964Y-11054651D01*
X-5071251Y-11077617D01*
X-4946566Y-11104645D01*
X-4820087Y-11133779D01*
X-4699989Y-11163067D01*
X-4594452Y-11190554D01*
X-4511651Y-11214287D01*
X-4459763Y-11232311D01*
X-4451502Y-11236282D01*
X-4443922Y-11248313D01*
X-4455019Y-11269195D01*
X-4488500Y-11302440D01*
X-4548073Y-11351561D01*
X-4637446Y-11420070D01*
X-4676034Y-11448966D01*
X-4924654Y-11625223D01*
X-5157729Y-11771852D01*
X-5372987Y-11887625D01*
X-5568152Y-11971314D01*
X-5734412Y-12020313D01*
X-5845286Y-12036690D01*
X-5963887Y-12042127D01*
X-6076206Y-12036929D01*
X-6168233Y-12021404D01*
X-6201682Y-12010115D01*
X-6308523Y-11945045D01*
X-6388905Y-11852360D01*
X-6445070Y-11728672D01*
X-6475479Y-11596429D01*
X-6485687Y-11450735D01*
X-6464495Y-11330214D01*
X-6409585Y-11231128D01*
X-6318638Y-11149744D01*
X-6189334Y-11082326D01*
X-6145838Y-11065406D01*
X-6033925Y-11036279D01*
X-5891005Y-11017344D01*
X-5727237Y-11008927D01*
X-5552783Y-11011355D01*
G36*
X7773322Y-11010906D02*
G01*
X7937668Y-11026435D01*
X8073637Y-11055409D01*
X8114894Y-11069446D01*
X8233205Y-11128432D01*
X8331342Y-11203319D01*
X8400888Y-11286799D01*
X8425901Y-11339499D01*
X8443046Y-11441537D01*
X8437693Y-11560907D01*
X8412985Y-11685122D01*
X8372062Y-11801697D01*
X8318068Y-11898145D01*
X8272693Y-11948259D01*
X8177378Y-12002997D01*
X8052952Y-12034736D01*
X7906203Y-12042908D01*
X7743921Y-12026946D01*
X7628185Y-12002025D01*
X7536432Y-11972968D01*
X7427894Y-11931245D01*
X7322783Y-11884766D01*
X7300101Y-11873676D01*
X7202145Y-11821273D01*
X7091766Y-11756635D01*
X6974341Y-11683522D01*
X6855244Y-11605692D01*
X6739854Y-11526903D01*
X6633545Y-11450914D01*
X6541695Y-11381483D01*
X6469679Y-11322369D01*
X6422874Y-11277330D01*
X6406655Y-11250125D01*
X6406769Y-11249158D01*
X6428399Y-11234888D01*
X6484796Y-11214155D01*
X6569195Y-11188688D01*
X6674830Y-11160218D01*
X6794936Y-11130477D01*
X6922747Y-11101194D01*
X7051499Y-11074100D01*
X7174425Y-11050927D01*
X7196667Y-11047092D01*
X7394157Y-11021023D01*
X7589263Y-11009031D01*
X7773322Y-11010906D01*
G37*
X7773322Y-11010906D02*
X7937668Y-11026435D01*
X8073637Y-11055409D01*
X8114894Y-11069446D01*
X8233205Y-11128432D01*
X8331342Y-11203319D01*
X8400888Y-11286799D01*
X8425901Y-11339499D01*
X8443046Y-11441537D01*
X8437693Y-11560907D01*
X8412985Y-11685122D01*
X8372062Y-11801697D01*
X8318068Y-11898145D01*
X8272693Y-11948259D01*
X8177378Y-12002997D01*
X8052952Y-12034736D01*
X7906203Y-12042908D01*
X7743921Y-12026946D01*
X7628185Y-12002025D01*
X7536432Y-11972968D01*
X7427894Y-11931245D01*
X7322783Y-11884766D01*
X7300101Y-11873676D01*
X7202145Y-11821273D01*
X7091766Y-11756635D01*
X6974341Y-11683522D01*
X6855244Y-11605692D01*
X6739854Y-11526903D01*
X6633545Y-11450914D01*
X6541695Y-11381483D01*
X6469679Y-11322369D01*
X6422874Y-11277330D01*
X6406655Y-11250125D01*
X6406769Y-11249158D01*
X6428399Y-11234888D01*
X6484796Y-11214155D01*
X6569195Y-11188688D01*
X6674830Y-11160218D01*
X6794936Y-11130477D01*
X6922747Y-11101194D01*
X7051499Y-11074100D01*
X7174425Y-11050927D01*
X7196667Y-11047092D01*
X7394157Y-11021023D01*
X7589263Y-11009031D01*
X7773322Y-11010906D01*
G36*
X-7630206Y-9535594D02*
G01*
X-7584784Y-9570328D01*
X-7518533Y-9627852D01*
X-7435687Y-9704284D01*
X-7340482Y-9795741D01*
X-7237153Y-9898341D01*
X-7158370Y-9978722D01*
X-6988120Y-10163913D01*
X-6852642Y-10333296D01*
X-6749473Y-10491205D01*
X-6676149Y-10641972D01*
X-6630207Y-10789929D01*
X-6609184Y-10939409D01*
X-6608842Y-10945199D01*
X-6606100Y-11037568D01*
X-6611780Y-11103478D01*
X-6628087Y-11158343D01*
X-6644303Y-11193187D01*
X-6711718Y-11285118D01*
X-6812871Y-11360144D01*
X-6950876Y-11420453D01*
X-6981938Y-11430558D01*
X-7087055Y-11458777D01*
X-7170135Y-11468687D01*
X-7246844Y-11461233D01*
X-7294399Y-11449380D01*
X-7358813Y-11414846D01*
X-7430908Y-11351217D01*
X-7501773Y-11268346D01*
X-7562496Y-11176084D01*
X-7588714Y-11124065D01*
X-7634229Y-11003672D01*
X-7667859Y-10871906D01*
X-7690714Y-10721310D01*
X-7703904Y-10544426D01*
X-7708539Y-10333798D01*
X-7708570Y-10318750D01*
X-7707125Y-10194148D01*
X-7702894Y-10062317D01*
X-7696411Y-9930524D01*
X-7688207Y-9806035D01*
X-7678817Y-9696118D01*
X-7668773Y-9608040D01*
X-7658607Y-9549066D01*
X-7650562Y-9527532D01*
X-7630206Y-9535594D01*
G37*
X-7630206Y-9535594D02*
X-7584784Y-9570328D01*
X-7518533Y-9627852D01*
X-7435687Y-9704284D01*
X-7340482Y-9795741D01*
X-7237153Y-9898341D01*
X-7158370Y-9978722D01*
X-6988120Y-10163913D01*
X-6852642Y-10333296D01*
X-6749473Y-10491205D01*
X-6676149Y-10641972D01*
X-6630207Y-10789929D01*
X-6609184Y-10939409D01*
X-6608842Y-10945199D01*
X-6606100Y-11037568D01*
X-6611780Y-11103478D01*
X-6628087Y-11158343D01*
X-6644303Y-11193187D01*
X-6711718Y-11285118D01*
X-6812871Y-11360144D01*
X-6950876Y-11420453D01*
X-6981938Y-11430558D01*
X-7087055Y-11458777D01*
X-7170135Y-11468687D01*
X-7246844Y-11461233D01*
X-7294399Y-11449380D01*
X-7358813Y-11414846D01*
X-7430908Y-11351217D01*
X-7501773Y-11268346D01*
X-7562496Y-11176084D01*
X-7588714Y-11124065D01*
X-7634229Y-11003672D01*
X-7667859Y-10871906D01*
X-7690714Y-10721310D01*
X-7703904Y-10544426D01*
X-7708539Y-10333798D01*
X-7708570Y-10318750D01*
X-7707125Y-10194148D01*
X-7702894Y-10062317D01*
X-7696411Y-9930524D01*
X-7688207Y-9806035D01*
X-7678817Y-9696118D01*
X-7668773Y-9608040D01*
X-7658607Y-9549066D01*
X-7650562Y-9527532D01*
X-7630206Y-9535594D01*
G36*
X9610640Y-9548914D02*
G01*
X9611350Y-9550012D01*
X9620707Y-9585546D01*
X9630826Y-9655340D01*
X9641084Y-9751343D01*
X9650862Y-9865505D01*
X9659539Y-9989774D01*
X9666493Y-10116099D01*
X9671104Y-10236430D01*
X9672752Y-10342716D01*
X9672748Y-10346361D01*
X9662430Y-10596588D01*
X9633122Y-10818455D01*
X9585824Y-11010416D01*
X9521534Y-11170924D01*
X9441255Y-11298433D01*
X9345984Y-11391394D01*
X9236723Y-11448262D01*
X9114471Y-11467488D01*
X8980228Y-11447527D01*
X8964084Y-11442655D01*
X8806561Y-11378817D01*
X8687837Y-11298696D01*
X8607046Y-11200810D01*
X8563324Y-11083677D01*
X8555808Y-10945814D01*
X8582853Y-10788718D01*
X8649040Y-10605456D01*
X8754653Y-10413079D01*
X8900025Y-10211141D01*
X9085487Y-9999197D01*
X9311373Y-9776803D01*
X9396349Y-9699701D01*
X9487053Y-9621161D01*
X9551145Y-9571143D01*
X9591412Y-9547707D01*
X9610640Y-9548914D01*
G37*
X9610640Y-9548914D02*
X9611350Y-9550012D01*
X9620707Y-9585546D01*
X9630826Y-9655340D01*
X9641084Y-9751343D01*
X9650862Y-9865505D01*
X9659539Y-9989774D01*
X9666493Y-10116099D01*
X9671104Y-10236430D01*
X9672752Y-10342716D01*
X9672748Y-10346361D01*
X9662430Y-10596588D01*
X9633122Y-10818455D01*
X9585824Y-11010416D01*
X9521534Y-11170924D01*
X9441255Y-11298433D01*
X9345984Y-11391394D01*
X9236723Y-11448262D01*
X9114471Y-11467488D01*
X8980228Y-11447527D01*
X8964084Y-11442655D01*
X8806561Y-11378817D01*
X8687837Y-11298696D01*
X8607046Y-11200810D01*
X8563324Y-11083677D01*
X8555808Y-10945814D01*
X8582853Y-10788718D01*
X8649040Y-10605456D01*
X8754653Y-10413079D01*
X8900025Y-10211141D01*
X9085487Y-9999197D01*
X9311373Y-9776803D01*
X9396349Y-9699701D01*
X9487053Y-9621161D01*
X9551145Y-9571143D01*
X9591412Y-9547707D01*
X9610640Y-9548914D01*
G36*
X-5315324Y-9677296D02*
G01*
X-5105632Y-9720268D01*
X-4873903Y-9794502D01*
X-4621396Y-9899676D01*
X-4349368Y-10035470D01*
X-4108182Y-10172080D01*
X-4028383Y-10220580D01*
X-3980486Y-10253380D01*
X-3959385Y-10275335D01*
X-3959973Y-10291302D01*
X-3971416Y-10302151D01*
X-4009026Y-10322455D01*
X-4078266Y-10353408D01*
X-4170777Y-10391769D01*
X-4278199Y-10434295D01*
X-4392175Y-10477746D01*
X-4504343Y-10518878D01*
X-4606346Y-10554450D01*
X-4689823Y-10581220D01*
X-4694868Y-10582713D01*
X-4901681Y-10634792D01*
X-5105981Y-10669921D01*
X-5299051Y-10687308D01*
X-5472173Y-10686165D01*
X-5614787Y-10666136D01*
X-5759584Y-10615112D01*
X-5870773Y-10538428D01*
X-5948085Y-10436511D01*
X-5991253Y-10309792D01*
X-6000007Y-10158698D01*
X-5990332Y-10067127D01*
X-5962671Y-9941953D01*
X-5921064Y-9849334D01*
X-5860364Y-9780415D01*
X-5799607Y-9739176D01*
X-5663569Y-9686429D01*
X-5501722Y-9665909D01*
X-5315324Y-9677296D01*
G37*
X-5315324Y-9677296D02*
X-5105632Y-9720268D01*
X-4873903Y-9794502D01*
X-4621396Y-9899676D01*
X-4349368Y-10035470D01*
X-4108182Y-10172080D01*
X-4028383Y-10220580D01*
X-3980486Y-10253380D01*
X-3959385Y-10275335D01*
X-3959973Y-10291302D01*
X-3971416Y-10302151D01*
X-4009026Y-10322455D01*
X-4078266Y-10353408D01*
X-4170777Y-10391769D01*
X-4278199Y-10434295D01*
X-4392175Y-10477746D01*
X-4504343Y-10518878D01*
X-4606346Y-10554450D01*
X-4689823Y-10581220D01*
X-4694868Y-10582713D01*
X-4901681Y-10634792D01*
X-5105981Y-10669921D01*
X-5299051Y-10687308D01*
X-5472173Y-10686165D01*
X-5614787Y-10666136D01*
X-5759584Y-10615112D01*
X-5870773Y-10538428D01*
X-5948085Y-10436511D01*
X-5991253Y-10309792D01*
X-6000007Y-10158698D01*
X-5990332Y-10067127D01*
X-5962671Y-9941953D01*
X-5921064Y-9849334D01*
X-5860364Y-9780415D01*
X-5799607Y-9739176D01*
X-5663569Y-9686429D01*
X-5501722Y-9665909D01*
X-5315324Y-9677296D01*
G36*
X7603556Y-9680918D02*
G01*
X7723558Y-9715062D01*
X7747124Y-9726148D01*
X7829813Y-9791408D01*
X7894412Y-9887463D01*
X7938468Y-10005769D01*
X7959528Y-10137782D01*
X7955141Y-10274957D01*
X7933682Y-10376065D01*
X7892959Y-10454558D01*
X7823577Y-10533157D01*
X7737625Y-10600487D01*
X7648078Y-10644873D01*
X7571876Y-10661677D01*
X7465717Y-10673388D01*
X7341694Y-10679790D01*
X7211901Y-10680665D01*
X7088431Y-10675797D01*
X6983379Y-10664969D01*
X6942667Y-10657507D01*
X6843457Y-10632715D01*
X6726898Y-10599381D01*
X6599146Y-10559716D01*
X6466360Y-10515933D01*
X6334694Y-10470243D01*
X6210307Y-10424858D01*
X6099354Y-10381992D01*
X6007993Y-10343854D01*
X5942379Y-10312659D01*
X5908671Y-10290617D01*
X5905500Y-10284863D01*
X5923876Y-10262093D01*
X5975150Y-10225093D01*
X6053543Y-10176839D01*
X6153274Y-10120307D01*
X6268565Y-10058476D01*
X6393634Y-9994322D01*
X6522702Y-9930822D01*
X6649989Y-9870952D01*
X6769716Y-9817690D01*
X6876103Y-9774013D01*
X6948229Y-9747804D01*
X7121097Y-9701031D01*
X7293695Y-9674136D01*
X7457392Y-9667353D01*
X7603556Y-9680918D01*
G37*
X7603556Y-9680918D02*
X7723558Y-9715062D01*
X7747124Y-9726148D01*
X7829813Y-9791408D01*
X7894412Y-9887463D01*
X7938468Y-10005769D01*
X7959528Y-10137782D01*
X7955141Y-10274957D01*
X7933682Y-10376065D01*
X7892959Y-10454558D01*
X7823577Y-10533157D01*
X7737625Y-10600487D01*
X7648078Y-10644873D01*
X7571876Y-10661677D01*
X7465717Y-10673388D01*
X7341694Y-10679790D01*
X7211901Y-10680665D01*
X7088431Y-10675797D01*
X6983379Y-10664969D01*
X6942667Y-10657507D01*
X6843457Y-10632715D01*
X6726898Y-10599381D01*
X6599146Y-10559716D01*
X6466360Y-10515933D01*
X6334694Y-10470243D01*
X6210307Y-10424858D01*
X6099354Y-10381992D01*
X6007993Y-10343854D01*
X5942379Y-10312659D01*
X5908671Y-10290617D01*
X5905500Y-10284863D01*
X5923876Y-10262093D01*
X5975150Y-10225093D01*
X6053543Y-10176839D01*
X6153274Y-10120307D01*
X6268565Y-10058476D01*
X6393634Y-9994322D01*
X6522702Y-9930822D01*
X6649989Y-9870952D01*
X6769716Y-9817690D01*
X6876103Y-9774013D01*
X6948229Y-9747804D01*
X7121097Y-9701031D01*
X7293695Y-9674136D01*
X7457392Y-9667353D01*
X7603556Y-9680918D01*
G36*
X-6523022Y-7912850D02*
G01*
X-6487608Y-7961000D01*
X-6439263Y-8033461D01*
X-6381867Y-8123923D01*
X-6319303Y-8226074D01*
X-6255451Y-8333604D01*
X-6194191Y-8440204D01*
X-6139406Y-8539562D01*
X-6105303Y-8604739D01*
X-6009150Y-8811067D01*
X-5941828Y-8996238D01*
X-5901131Y-9167887D01*
X-5884856Y-9333646D01*
X-5884333Y-9369825D01*
X-5894047Y-9527640D01*
X-5924571Y-9652083D01*
X-5977983Y-9747743D01*
X-6056358Y-9819212D01*
X-6098781Y-9843919D01*
X-6188311Y-9876470D01*
X-6301695Y-9899333D01*
X-6421066Y-9909978D01*
X-6528554Y-9905873D01*
X-6532462Y-9905351D01*
X-6648672Y-9869827D01*
X-6743536Y-9799816D01*
X-6816660Y-9697615D01*
X-6867646Y-9565526D01*
X-6896099Y-9405846D01*
X-6901622Y-9220876D01*
X-6883819Y-9012913D01*
X-6842294Y-8784258D01*
X-6776651Y-8537209D01*
X-6771254Y-8519648D01*
X-6734903Y-8405897D01*
X-6695617Y-8288904D01*
X-6655938Y-8175576D01*
X-6618404Y-8072821D01*
X-6585558Y-7987546D01*
X-6559939Y-7926658D01*
X-6544088Y-7897063D01*
X-6541624Y-7895320D01*
X-6523022Y-7912850D01*
G37*
X-6523022Y-7912850D02*
X-6487608Y-7961000D01*
X-6439263Y-8033461D01*
X-6381867Y-8123923D01*
X-6319303Y-8226074D01*
X-6255451Y-8333604D01*
X-6194191Y-8440204D01*
X-6139406Y-8539562D01*
X-6105303Y-8604739D01*
X-6009150Y-8811067D01*
X-5941828Y-8996238D01*
X-5901131Y-9167887D01*
X-5884856Y-9333646D01*
X-5884333Y-9369825D01*
X-5894047Y-9527640D01*
X-5924571Y-9652083D01*
X-5977983Y-9747743D01*
X-6056358Y-9819212D01*
X-6098781Y-9843919D01*
X-6188311Y-9876470D01*
X-6301695Y-9899333D01*
X-6421066Y-9909978D01*
X-6528554Y-9905873D01*
X-6532462Y-9905351D01*
X-6648672Y-9869827D01*
X-6743536Y-9799816D01*
X-6816660Y-9697615D01*
X-6867646Y-9565526D01*
X-6896099Y-9405846D01*
X-6901622Y-9220876D01*
X-6883819Y-9012913D01*
X-6842294Y-8784258D01*
X-6776651Y-8537209D01*
X-6771254Y-8519648D01*
X-6734903Y-8405897D01*
X-6695617Y-8288904D01*
X-6655938Y-8175576D01*
X-6618404Y-8072821D01*
X-6585558Y-7987546D01*
X-6559939Y-7926658D01*
X-6544088Y-7897063D01*
X-6541624Y-7895320D01*
X-6523022Y-7912850D01*
G36*
X8540048Y-7970347D02*
G01*
X8560048Y-8021796D01*
X8589710Y-8102923D01*
X8625277Y-8203257D01*
X8662995Y-8312325D01*
X8669111Y-8330278D01*
X8756076Y-8608213D01*
X8817313Y-8855789D01*
X8853244Y-9075938D01*
X8864292Y-9271592D01*
X8850880Y-9445682D01*
X8838936Y-9509150D01*
X8791998Y-9660327D01*
X8725338Y-9774619D01*
X8636605Y-9853678D01*
X8523453Y-9899156D01*
X8383531Y-9912705D01*
X8276167Y-9905058D01*
X8141669Y-9878031D01*
X8037051Y-9831504D01*
X7952616Y-9760996D01*
X7944226Y-9751677D01*
X7880725Y-9648215D01*
X7845172Y-9517237D01*
X7837116Y-9362620D01*
X7856103Y-9188240D01*
X7901683Y-8997974D01*
X7973401Y-8795698D01*
X8070808Y-8585290D01*
X8083017Y-8561917D01*
X8139276Y-8459220D01*
X8205407Y-8344436D01*
X8275689Y-8226923D01*
X8344401Y-8116039D01*
X8405821Y-8021139D01*
X8454227Y-7951583D01*
X8464138Y-7938597D01*
X8504927Y-7886778D01*
X8540048Y-7970347D01*
G37*
X8540048Y-7970347D02*
X8560048Y-8021796D01*
X8589710Y-8102923D01*
X8625277Y-8203257D01*
X8662995Y-8312325D01*
X8669111Y-8330278D01*
X8756076Y-8608213D01*
X8817313Y-8855789D01*
X8853244Y-9075938D01*
X8864292Y-9271592D01*
X8850880Y-9445682D01*
X8838936Y-9509150D01*
X8791998Y-9660327D01*
X8725338Y-9774619D01*
X8636605Y-9853678D01*
X8523453Y-9899156D01*
X8383531Y-9912705D01*
X8276167Y-9905058D01*
X8141669Y-9878031D01*
X8037051Y-9831504D01*
X7952616Y-9760996D01*
X7944226Y-9751677D01*
X7880725Y-9648215D01*
X7845172Y-9517237D01*
X7837116Y-9362620D01*
X7856103Y-9188240D01*
X7901683Y-8997974D01*
X7973401Y-8795698D01*
X8070808Y-8585290D01*
X8083017Y-8561917D01*
X8139276Y-8459220D01*
X8205407Y-8344436D01*
X8275689Y-8226923D01*
X8344401Y-8116039D01*
X8405821Y-8021139D01*
X8454227Y-7951583D01*
X8464138Y-7938597D01*
X8504927Y-7886778D01*
X8540048Y-7970347D01*
G36*
X-3979333Y-7945638D02*
G01*
X-3989178Y-7993717D01*
X-4016568Y-8072004D01*
X-4058288Y-8173815D01*
X-4111123Y-8292466D01*
X-4171856Y-8421273D01*
X-4237273Y-8553550D01*
X-4304157Y-8682613D01*
X-4369294Y-8801779D01*
X-4429467Y-8904361D01*
X-4472634Y-8971103D01*
X-4596798Y-9129632D01*
X-4728003Y-9257621D01*
X-4862773Y-9353355D01*
X-4997635Y-9415117D01*
X-5129115Y-9441193D01*
X-5253737Y-9429867D01*
X-5336823Y-9397825D01*
X-5409057Y-9346798D01*
X-5487497Y-9271441D01*
X-5559603Y-9185385D01*
X-5612837Y-9102256D01*
X-5617585Y-9092655D01*
X-5646352Y-8989562D01*
X-5647294Y-8872491D01*
X-5620880Y-8758956D01*
X-5607863Y-8728557D01*
X-5539439Y-8624604D01*
X-5436248Y-8518108D01*
X-5305047Y-8414760D01*
X-5152594Y-8320253D01*
X-5076731Y-8281095D01*
X-4974633Y-8234975D01*
X-4855763Y-8186774D01*
X-4725874Y-8138251D01*
X-4590716Y-8091163D01*
X-4456042Y-8047269D01*
X-4327601Y-8008326D01*
X-4211147Y-7976093D01*
X-4112429Y-7952327D01*
X-4037199Y-7938787D01*
X-3991210Y-7937231D01*
X-3979333Y-7945638D01*
G37*
X-3979333Y-7945638D02*
X-3989178Y-7993717D01*
X-4016568Y-8072004D01*
X-4058288Y-8173815D01*
X-4111123Y-8292466D01*
X-4171856Y-8421273D01*
X-4237273Y-8553550D01*
X-4304157Y-8682613D01*
X-4369294Y-8801779D01*
X-4429467Y-8904361D01*
X-4472634Y-8971103D01*
X-4596798Y-9129632D01*
X-4728003Y-9257621D01*
X-4862773Y-9353355D01*
X-4997635Y-9415117D01*
X-5129115Y-9441193D01*
X-5253737Y-9429867D01*
X-5336823Y-9397825D01*
X-5409057Y-9346798D01*
X-5487497Y-9271441D01*
X-5559603Y-9185385D01*
X-5612837Y-9102256D01*
X-5617585Y-9092655D01*
X-5646352Y-8989562D01*
X-5647294Y-8872491D01*
X-5620880Y-8758956D01*
X-5607863Y-8728557D01*
X-5539439Y-8624604D01*
X-5436248Y-8518108D01*
X-5305047Y-8414760D01*
X-5152594Y-8320253D01*
X-5076731Y-8281095D01*
X-4974633Y-8234975D01*
X-4855763Y-8186774D01*
X-4725874Y-8138251D01*
X-4590716Y-8091163D01*
X-4456042Y-8047269D01*
X-4327601Y-8008326D01*
X-4211147Y-7976093D01*
X-4112429Y-7952327D01*
X-4037199Y-7938787D01*
X-3991210Y-7937231D01*
X-3979333Y-7945638D01*
G36*
X5954016Y-7927941D02*
G01*
X6010666Y-7939431D01*
X6092722Y-7959220D01*
X6192652Y-7985249D01*
X6302922Y-8015459D01*
X6415999Y-8047792D01*
X6524351Y-8080190D01*
X6620445Y-8110595D01*
X6689145Y-8134162D01*
X6939274Y-8234741D01*
X7148546Y-8340219D01*
X7318238Y-8451404D01*
X7449628Y-8569109D01*
X7525775Y-8665106D01*
X7590812Y-8787927D01*
X7616539Y-8904400D01*
X7602467Y-9018464D01*
X7548105Y-9134062D01*
X7452966Y-9255136D01*
X7452499Y-9255641D01*
X7364338Y-9342641D01*
X7285714Y-9398494D01*
X7205304Y-9428892D01*
X7111787Y-9439526D01*
X7086222Y-9439769D01*
X6999162Y-9431573D01*
X6915109Y-9404057D01*
X6850909Y-9372206D01*
X6714537Y-9282252D01*
X6585105Y-9162954D01*
X6460113Y-9011217D01*
X6337061Y-8823948D01*
X6213449Y-8598055D01*
X6194265Y-8559764D01*
X6146703Y-8460833D01*
X6097528Y-8353473D01*
X6049684Y-8244742D01*
X6006115Y-8141700D01*
X5969765Y-8051407D01*
X5943579Y-7980922D01*
X5930499Y-7937304D01*
X5930305Y-7926807D01*
X5954016Y-7927941D01*
G37*
X5954016Y-7927941D02*
X6010666Y-7939431D01*
X6092722Y-7959220D01*
X6192652Y-7985249D01*
X6302922Y-8015459D01*
X6415999Y-8047792D01*
X6524351Y-8080190D01*
X6620445Y-8110595D01*
X6689145Y-8134162D01*
X6939274Y-8234741D01*
X7148546Y-8340219D01*
X7318238Y-8451404D01*
X7449628Y-8569109D01*
X7525775Y-8665106D01*
X7590812Y-8787927D01*
X7616539Y-8904400D01*
X7602467Y-9018464D01*
X7548105Y-9134062D01*
X7452966Y-9255136D01*
X7452499Y-9255641D01*
X7364338Y-9342641D01*
X7285714Y-9398494D01*
X7205304Y-9428892D01*
X7111787Y-9439526D01*
X7086222Y-9439769D01*
X6999162Y-9431573D01*
X6915109Y-9404057D01*
X6850909Y-9372206D01*
X6714537Y-9282252D01*
X6585105Y-9162954D01*
X6460113Y-9011217D01*
X6337061Y-8823948D01*
X6213449Y-8598055D01*
X6194265Y-8559764D01*
X6146703Y-8460833D01*
X6097528Y-8353473D01*
X6049684Y-8244742D01*
X6006115Y-8141700D01*
X5969765Y-8051407D01*
X5943579Y-7980922D01*
X5930499Y-7937304D01*
X5930305Y-7926807D01*
X5954016Y-7927941D01*
G36*
X-3773200Y4051510D02*
G01*
X-3424732Y4013282D01*
X-3103126Y3948180D01*
X-2804587Y3855065D01*
X-2525321Y3732800D01*
X-2261534Y3580249D01*
X-2061349Y3437385D01*
X-1815981Y3221196D01*
X-1604159Y2979594D01*
X-1426324Y2713553D01*
X-1282917Y2424046D01*
X-1174379Y2112046D01*
X-1101151Y1778525D01*
X-1063675Y1424458D01*
X-1058458Y1224950D01*
X-1073081Y891330D01*
X-1118177Y580912D01*
X-1196045Y285304D01*
X-1308984Y-3888D01*
X-1459293Y-295059D01*
X-1488460Y-344910D01*
X-1584401Y-497673D01*
X-1687129Y-643010D01*
X-1799921Y-783974D01*
X-1926052Y-923619D01*
X-2068797Y-1065001D01*
X-2231433Y-1211173D01*
X-2417235Y-1365189D01*
X-2629479Y-1530105D01*
X-2871439Y-1708974D01*
X-3146393Y-1904851D01*
X-3206750Y-1947117D01*
X-3517000Y-2167985D01*
X-3791162Y-2372262D01*
X-4031248Y-2561801D01*
X-4239274Y-2738460D01*
X-4417251Y-2904092D01*
X-4567194Y-3060555D01*
X-4691118Y-3209702D01*
X-4791034Y-3353390D01*
X-4855234Y-3466042D01*
X-4890587Y-3534834D01*
X-1100666Y-3534834D01*
X-1100666Y-5143500D01*
X-7234985Y-5143500D01*
X-7224884Y-5011209D01*
X-7181930Y-4597233D01*
X-7118833Y-4219144D01*
X-7035188Y-3875378D01*
X-6930589Y-3564370D01*
X-6804630Y-3284556D01*
X-6751100Y-3186116D01*
X-6628498Y-2995801D01*
X-6472697Y-2793197D01*
X-6288855Y-2583928D01*
X-6082129Y-2373621D01*
X-5857677Y-2167899D01*
X-5685006Y-2023375D01*
X-5615025Y-1968606D01*
X-5517336Y-1894314D01*
X-5398712Y-1805535D01*
X-5265925Y-1707306D01*
X-5125747Y-1604664D01*
X-4984951Y-1502647D01*
X-4982664Y-1500999D01*
X-4718578Y-1309693D01*
X-4486126Y-1138806D01*
X-4281617Y-985425D01*
X-4101363Y-846636D01*
X-3941673Y-719526D01*
X-3798857Y-601181D01*
X-3669228Y-488687D01*
X-3549094Y-379130D01*
X-3484648Y-318030D01*
X-3293356Y-116041D01*
X-3141134Y87199D01*
X-3025049Y298236D01*
X-2942171Y523611D01*
X-2889567Y769871D01*
X-2864305Y1043558D01*
X-2863303Y1068916D01*
X-2866106Y1341093D01*
X-2895744Y1583215D01*
X-2953157Y1798718D01*
X-3039285Y1991038D01*
X-3155070Y2163610D01*
X-3166935Y2178239D01*
X-3321549Y2336430D01*
X-3494838Y2457328D01*
X-3688164Y2541551D01*
X-3902894Y2589714D01*
X-4106333Y2602765D01*
X-4344334Y2584317D01*
X-4560948Y2529633D01*
X-4754946Y2439705D01*
X-4925097Y2315522D01*
X-5070171Y2158077D01*
X-5188939Y1968360D01*
X-5280170Y1747361D01*
X-5313977Y1629833D01*
X-5334230Y1535671D01*
X-5349350Y1431090D01*
X-5360314Y1306662D01*
X-5368098Y1152957D01*
X-5370429Y1084791D01*
X-5381665Y719666D01*
X-7112000Y719666D01*
X-7111826Y1042458D01*
X-7096451Y1441415D01*
X-7050568Y1811485D01*
X-6973872Y2153443D01*
X-6866056Y2468065D01*
X-6726816Y2756127D01*
X-6555847Y3018404D01*
X-6352842Y3255672D01*
X-6175277Y3421161D01*
X-5928510Y3606198D01*
X-5662461Y3758881D01*
X-5374969Y3879895D01*
X-5063873Y3969929D01*
X-4727012Y4029667D01*
X-4362224Y4059798D01*
X-4152326Y4064000D01*
X-3773200Y4051510D01*
G37*
X-3773200Y4051510D02*
X-3424732Y4013282D01*
X-3103126Y3948180D01*
X-2804587Y3855065D01*
X-2525321Y3732800D01*
X-2261534Y3580249D01*
X-2061349Y3437385D01*
X-1815981Y3221196D01*
X-1604159Y2979594D01*
X-1426324Y2713553D01*
X-1282917Y2424046D01*
X-1174379Y2112046D01*
X-1101151Y1778525D01*
X-1063675Y1424458D01*
X-1058458Y1224950D01*
X-1073081Y891330D01*
X-1118177Y580912D01*
X-1196045Y285304D01*
X-1308984Y-3888D01*
X-1459293Y-295059D01*
X-1488460Y-344910D01*
X-1584401Y-497673D01*
X-1687129Y-643010D01*
X-1799921Y-783974D01*
X-1926052Y-923619D01*
X-2068797Y-1065001D01*
X-2231433Y-1211173D01*
X-2417235Y-1365189D01*
X-2629479Y-1530105D01*
X-2871439Y-1708974D01*
X-3146393Y-1904851D01*
X-3206750Y-1947117D01*
X-3517000Y-2167985D01*
X-3791162Y-2372262D01*
X-4031248Y-2561801D01*
X-4239274Y-2738460D01*
X-4417251Y-2904092D01*
X-4567194Y-3060555D01*
X-4691118Y-3209702D01*
X-4791034Y-3353390D01*
X-4855234Y-3466042D01*
X-4890587Y-3534834D01*
X-1100666Y-3534834D01*
X-1100666Y-5143500D01*
X-7234985Y-5143500D01*
X-7224884Y-5011209D01*
X-7181930Y-4597233D01*
X-7118833Y-4219144D01*
X-7035188Y-3875378D01*
X-6930589Y-3564370D01*
X-6804630Y-3284556D01*
X-6751100Y-3186116D01*
X-6628498Y-2995801D01*
X-6472697Y-2793197D01*
X-6288855Y-2583928D01*
X-6082129Y-2373621D01*
X-5857677Y-2167899D01*
X-5685006Y-2023375D01*
X-5615025Y-1968606D01*
X-5517336Y-1894314D01*
X-5398712Y-1805535D01*
X-5265925Y-1707306D01*
X-5125747Y-1604664D01*
X-4984951Y-1502647D01*
X-4982664Y-1500999D01*
X-4718578Y-1309693D01*
X-4486126Y-1138806D01*
X-4281617Y-985425D01*
X-4101363Y-846636D01*
X-3941673Y-719526D01*
X-3798857Y-601181D01*
X-3669228Y-488687D01*
X-3549094Y-379130D01*
X-3484648Y-318030D01*
X-3293356Y-116041D01*
X-3141134Y87199D01*
X-3025049Y298236D01*
X-2942171Y523611D01*
X-2889567Y769871D01*
X-2864305Y1043558D01*
X-2863303Y1068916D01*
X-2866106Y1341093D01*
X-2895744Y1583215D01*
X-2953157Y1798718D01*
X-3039285Y1991038D01*
X-3155070Y2163610D01*
X-3166935Y2178239D01*
X-3321549Y2336430D01*
X-3494838Y2457328D01*
X-3688164Y2541551D01*
X-3902894Y2589714D01*
X-4106333Y2602765D01*
X-4344334Y2584317D01*
X-4560948Y2529633D01*
X-4754946Y2439705D01*
X-4925097Y2315522D01*
X-5070171Y2158077D01*
X-5188939Y1968360D01*
X-5280170Y1747361D01*
X-5313977Y1629833D01*
X-5334230Y1535671D01*
X-5349350Y1431090D01*
X-5360314Y1306662D01*
X-5368098Y1152957D01*
X-5370429Y1084791D01*
X-5381665Y719666D01*
X-7112000Y719666D01*
X-7111826Y1042458D01*
X-7096451Y1441415D01*
X-7050568Y1811485D01*
X-6973872Y2153443D01*
X-6866056Y2468065D01*
X-6726816Y2756127D01*
X-6555847Y3018404D01*
X-6352842Y3255672D01*
X-6175277Y3421161D01*
X-5928510Y3606198D01*
X-5662461Y3758881D01*
X-5374969Y3879895D01*
X-5063873Y3969929D01*
X-4727012Y4029667D01*
X-4362224Y4059798D01*
X-4152326Y4064000D01*
X-3773200Y4051510D01*
G36*
X2010834Y-5143500D02*
G01*
X84667Y-5143500D01*
X84667Y-3259667D01*
X2010834Y-3259667D01*
X2010834Y-5143500D01*
G37*
X2010834Y-5143500D02*
X84667Y-5143500D01*
X84667Y-3259667D01*
X2010834Y-3259667D01*
X2010834Y-5143500D01*
G36*
X7450667Y-5143500D02*
G01*
X5651500Y-5143500D01*
X5651500Y1058333D01*
X3492500Y1058333D01*
X3492500Y2257395D01*
X3857625Y2282700D01*
X4238851Y2321905D01*
X4585399Y2384537D01*
X4898150Y2471054D01*
X5177985Y2581912D01*
X5425786Y2717569D01*
X5642432Y2878480D01*
X5828807Y3065103D01*
X5985789Y3277895D01*
X6072940Y3431353D01*
X6121193Y3530464D01*
X6166048Y3630413D01*
X6201040Y3716434D01*
X6214286Y3754182D01*
X6251898Y3873500D01*
X7450667Y3873500D01*
X7450667Y-5143500D01*
G37*
X7450667Y-5143500D02*
X5651500Y-5143500D01*
X5651500Y1058333D01*
X3492500Y1058333D01*
X3492500Y2257395D01*
X3857625Y2282700D01*
X4238851Y2321905D01*
X4585399Y2384537D01*
X4898150Y2471054D01*
X5177985Y2581912D01*
X5425786Y2717569D01*
X5642432Y2878480D01*
X5828807Y3065103D01*
X5985789Y3277895D01*
X6072940Y3431353D01*
X6121193Y3530464D01*
X6166048Y3630413D01*
X6201040Y3716434D01*
X6214286Y3754182D01*
X6251898Y3873500D01*
X7450667Y3873500D01*
X7450667Y-5143500D01*
G36*
X2010834Y-381000D02*
G01*
X84667Y-381000D01*
X84667Y1481666D01*
X2010834Y1481666D01*
X2010834Y-381000D01*
G37*
X2010834Y-381000D02*
X84667Y-381000D01*
X84667Y1481666D01*
X2010834Y1481666D01*
X2010834Y-381000D01*
G36*
X-8969469Y3721601D02*
G01*
X-8878998Y3638995D01*
X-8792758Y3560788D01*
X-8718721Y3494170D01*
X-8664861Y3446337D01*
X-8651482Y3434702D01*
X-8571962Y3366321D01*
X-8895022Y2976245D01*
X-8985762Y2867148D01*
X-9067532Y2769719D01*
X-9136499Y2688456D01*
X-9188826Y2627858D01*
X-9220678Y2592421D01*
X-9228666Y2584993D01*
X-9246947Y2598097D01*
X-9291649Y2635306D01*
X-9357799Y2692326D01*
X-9440423Y2764865D01*
X-9534546Y2848629D01*
X-9546166Y2859041D01*
X-9643200Y2946210D01*
X-9730822Y3025216D01*
X-9803590Y3091126D01*
X-9856061Y3139011D01*
X-9882790Y3163939D01*
X-9883536Y3164676D01*
X-9894474Y3182671D01*
X-9889655Y3206296D01*
X-9864980Y3242278D01*
X-9816349Y3297346D01*
X-9777627Y3338501D01*
X-9710721Y3408957D01*
X-9625038Y3499318D01*
X-9530874Y3598717D01*
X-9438528Y3696291D01*
X-9424599Y3711017D01*
X-9207935Y3940118D01*
X-8969469Y3721601D01*
G37*
X-8969469Y3721601D02*
X-8878998Y3638995D01*
X-8792758Y3560788D01*
X-8718721Y3494170D01*
X-8664861Y3446337D01*
X-8651482Y3434702D01*
X-8571962Y3366321D01*
X-8895022Y2976245D01*
X-8985762Y2867148D01*
X-9067532Y2769719D01*
X-9136499Y2688456D01*
X-9188826Y2627858D01*
X-9220678Y2592421D01*
X-9228666Y2584993D01*
X-9246947Y2598097D01*
X-9291649Y2635306D01*
X-9357799Y2692326D01*
X-9440423Y2764865D01*
X-9534546Y2848629D01*
X-9546166Y2859041D01*
X-9643200Y2946210D01*
X-9730822Y3025216D01*
X-9803590Y3091126D01*
X-9856061Y3139011D01*
X-9882790Y3163939D01*
X-9883536Y3164676D01*
X-9894474Y3182671D01*
X-9889655Y3206296D01*
X-9864980Y3242278D01*
X-9816349Y3297346D01*
X-9777627Y3338501D01*
X-9710721Y3408957D01*
X-9625038Y3499318D01*
X-9530874Y3598717D01*
X-9438528Y3696291D01*
X-9424599Y3711017D01*
X-9207935Y3940118D01*
X-8969469Y3721601D01*
G36*
X9782870Y3751305D02*
G01*
X9876461Y3653903D01*
X9983127Y3542815D01*
X10086660Y3434925D01*
X10139603Y3379720D01*
X10318750Y3192857D01*
X10230343Y3115137D01*
X10183382Y3073674D01*
X10112796Y3011130D01*
X10026568Y2934589D01*
X9932681Y2851133D01*
X9886314Y2809875D01*
X9800036Y2733409D01*
X9725541Y2668019D01*
X9668217Y2618385D01*
X9633453Y2589185D01*
X9625470Y2583381D01*
X9611087Y2599245D01*
X9573471Y2643250D01*
X9516380Y2710926D01*
X9443578Y2797803D01*
X9358822Y2899413D01*
X9295030Y2976147D01*
X8969810Y3367865D01*
X9062197Y3446023D01*
X9112459Y3489634D01*
X9184949Y3553945D01*
X9270747Y3630980D01*
X9360937Y3712767D01*
X9379934Y3730104D01*
X9605284Y3936028D01*
X9782870Y3751305D01*
G37*
X9782870Y3751305D02*
X9876461Y3653903D01*
X9983127Y3542815D01*
X10086660Y3434925D01*
X10139603Y3379720D01*
X10318750Y3192857D01*
X10230343Y3115137D01*
X10183382Y3073674D01*
X10112796Y3011130D01*
X10026568Y2934589D01*
X9932681Y2851133D01*
X9886314Y2809875D01*
X9800036Y2733409D01*
X9725541Y2668019D01*
X9668217Y2618385D01*
X9633453Y2589185D01*
X9625470Y2583381D01*
X9611087Y2599245D01*
X9573471Y2643250D01*
X9516380Y2710926D01*
X9443578Y2797803D01*
X9358822Y2899413D01*
X9295030Y2976147D01*
X8969810Y3367865D01*
X9062197Y3446023D01*
X9112459Y3489634D01*
X9184949Y3553945D01*
X9270747Y3630980D01*
X9360937Y3712767D01*
X9379934Y3730104D01*
X9605284Y3936028D01*
X9782870Y3751305D01*
G36*
X-12534496Y7538728D02*
G01*
X-12494919Y7498213D01*
X-12439863Y7436328D01*
X-12374736Y7358982D01*
X-12359451Y7340302D01*
X-11963765Y6862026D01*
X-11566781Y6398309D01*
X-11160049Y5939620D01*
X-10735118Y5476430D01*
X-10283537Y4999210D01*
X-10281310Y4996890D01*
X-9905204Y4605001D01*
X-10259910Y4249834D01*
X-10360127Y4150064D01*
X-10450570Y4061125D01*
X-10526933Y3987163D01*
X-10584908Y3932323D01*
X-10620190Y3900749D01*
X-10628895Y3894666D01*
X-10646689Y3909344D01*
X-10689832Y3950789D01*
X-10754470Y4015124D01*
X-10836748Y4098469D01*
X-10932813Y4196946D01*
X-11038811Y4306674D01*
X-11054779Y4323291D01*
X-11381075Y4666270D01*
X-11683869Y4991571D01*
X-11971916Y5308937D01*
X-12253967Y5628110D01*
X-12538777Y5958832D01*
X-12761710Y6223000D01*
X-12905722Y6395287D01*
X-13024391Y6538047D01*
X-13119821Y6653981D01*
X-13194119Y6745788D01*
X-13249390Y6816170D01*
X-13287739Y6867827D01*
X-13311272Y6903460D01*
X-13322096Y6925770D01*
X-13322314Y6937458D01*
X-13320330Y6939502D01*
X-13298427Y6956360D01*
X-13248718Y6995907D01*
X-13176225Y7054104D01*
X-13085972Y7126915D01*
X-12982982Y7210302D01*
X-12934579Y7249583D01*
X-12827941Y7335869D01*
X-12732103Y7412812D01*
X-12652001Y7476498D01*
X-12592573Y7523012D01*
X-12558756Y7548441D01*
X-12553190Y7551969D01*
X-12534496Y7538728D01*
G37*
X-12534496Y7538728D02*
X-12494919Y7498213D01*
X-12439863Y7436328D01*
X-12374736Y7358982D01*
X-12359451Y7340302D01*
X-11963765Y6862026D01*
X-11566781Y6398309D01*
X-11160049Y5939620D01*
X-10735118Y5476430D01*
X-10283537Y4999210D01*
X-10281310Y4996890D01*
X-9905204Y4605001D01*
X-10259910Y4249834D01*
X-10360127Y4150064D01*
X-10450570Y4061125D01*
X-10526933Y3987163D01*
X-10584908Y3932323D01*
X-10620190Y3900749D01*
X-10628895Y3894666D01*
X-10646689Y3909344D01*
X-10689832Y3950789D01*
X-10754470Y4015124D01*
X-10836748Y4098469D01*
X-10932813Y4196946D01*
X-11038811Y4306674D01*
X-11054779Y4323291D01*
X-11381075Y4666270D01*
X-11683869Y4991571D01*
X-11971916Y5308937D01*
X-12253967Y5628110D01*
X-12538777Y5958832D01*
X-12761710Y6223000D01*
X-12905722Y6395287D01*
X-13024391Y6538047D01*
X-13119821Y6653981D01*
X-13194119Y6745788D01*
X-13249390Y6816170D01*
X-13287739Y6867827D01*
X-13311272Y6903460D01*
X-13322096Y6925770D01*
X-13322314Y6937458D01*
X-13320330Y6939502D01*
X-13298427Y6956360D01*
X-13248718Y6995907D01*
X-13176225Y7054104D01*
X-13085972Y7126915D01*
X-12982982Y7210302D01*
X-12934579Y7249583D01*
X-12827941Y7335869D01*
X-12732103Y7412812D01*
X-12652001Y7476498D01*
X-12592573Y7523012D01*
X-12558756Y7548441D01*
X-12553190Y7551969D01*
X-12534496Y7538728D01*
G36*
X12965370Y7543774D02*
G01*
X13011254Y7508633D01*
X13078545Y7455630D01*
X13161631Y7389322D01*
X13254900Y7314263D01*
X13352741Y7235007D01*
X13449543Y7156109D01*
X13539693Y7082124D01*
X13617579Y7017607D01*
X13677591Y6967111D01*
X13714117Y6935193D01*
X13722594Y6926586D01*
X13712533Y6905051D01*
X13677156Y6854907D01*
X13619124Y6779318D01*
X13541102Y6681445D01*
X13445750Y6564449D01*
X13335732Y6431494D01*
X13213709Y6285740D01*
X13082344Y6130350D01*
X12944300Y5968485D01*
X12802238Y5803308D01*
X12658821Y5637980D01*
X12516712Y5475663D01*
X12378573Y5319519D01*
X12247066Y5172710D01*
X12228469Y5152123D01*
X12131153Y5045303D01*
X12021975Y4926802D01*
X11904409Y4800271D01*
X11781927Y4669357D01*
X11658004Y4537711D01*
X11536112Y4408980D01*
X11419723Y4286814D01*
X11312313Y4174863D01*
X11217352Y4076774D01*
X11138315Y3996197D01*
X11078676Y3936781D01*
X11041906Y3902175D01*
X11031608Y3894666D01*
X11013124Y3909025D01*
X10969154Y3949350D01*
X10903986Y4011518D01*
X10821910Y4091404D01*
X10727216Y4184884D01*
X10658366Y4253550D01*
X10299948Y4612433D01*
X10669487Y4989091D01*
X11132458Y5472817D01*
X11605321Y5990407D01*
X12089777Y6543765D01*
X12587526Y7134793D01*
X12590588Y7138496D01*
X12684469Y7251558D01*
X12769452Y7353020D01*
X12841850Y7438551D01*
X12897975Y7503818D01*
X12934139Y7544491D01*
X12946505Y7556500D01*
X12965370Y7543774D01*
G37*
X12965370Y7543774D02*
X13011254Y7508633D01*
X13078545Y7455630D01*
X13161631Y7389322D01*
X13254900Y7314263D01*
X13352741Y7235007D01*
X13449543Y7156109D01*
X13539693Y7082124D01*
X13617579Y7017607D01*
X13677591Y6967111D01*
X13714117Y6935193D01*
X13722594Y6926586D01*
X13712533Y6905051D01*
X13677156Y6854907D01*
X13619124Y6779318D01*
X13541102Y6681445D01*
X13445750Y6564449D01*
X13335732Y6431494D01*
X13213709Y6285740D01*
X13082344Y6130350D01*
X12944300Y5968485D01*
X12802238Y5803308D01*
X12658821Y5637980D01*
X12516712Y5475663D01*
X12378573Y5319519D01*
X12247066Y5172710D01*
X12228469Y5152123D01*
X12131153Y5045303D01*
X12021975Y4926802D01*
X11904409Y4800271D01*
X11781927Y4669357D01*
X11658004Y4537711D01*
X11536112Y4408980D01*
X11419723Y4286814D01*
X11312313Y4174863D01*
X11217352Y4076774D01*
X11138315Y3996197D01*
X11078676Y3936781D01*
X11041906Y3902175D01*
X11031608Y3894666D01*
X11013124Y3909025D01*
X10969154Y3949350D01*
X10903986Y4011518D01*
X10821910Y4091404D01*
X10727216Y4184884D01*
X10658366Y4253550D01*
X10299948Y4612433D01*
X10669487Y4989091D01*
X11132458Y5472817D01*
X11605321Y5990407D01*
X12089777Y6543765D01*
X12587526Y7134793D01*
X12590588Y7138496D01*
X12684469Y7251558D01*
X12769452Y7353020D01*
X12841850Y7438551D01*
X12897975Y7503818D01*
X12934139Y7544491D01*
X12946505Y7556500D01*
X12965370Y7543774D01*
G36*
X-15344300Y11576115D02*
G01*
X-15314158Y11527500D01*
X-15271674Y11458017D01*
X-15230384Y11389928D01*
X-15007435Y11028739D01*
X-14761220Y10643890D01*
X-14496928Y10243060D01*
X-14219752Y9833929D01*
X-13934882Y9424178D01*
X-13647508Y9021487D01*
X-13413543Y8701812D01*
X-13140838Y8333707D01*
X-13190294Y8286940D01*
X-13221817Y8260248D01*
X-13281263Y8212732D01*
X-13362720Y8149011D01*
X-13460274Y8073702D01*
X-13568013Y7991421D01*
X-13594089Y7971634D01*
X-13948428Y7703093D01*
X-14221572Y8071011D01*
X-14513976Y8471456D01*
X-14817516Y8899681D01*
X-15124937Y9345339D01*
X-15367097Y9704916D01*
X-15459036Y9843882D01*
X-15556029Y9992191D01*
X-15655472Y10145710D01*
X-15754763Y10300302D01*
X-15851299Y10451834D01*
X-15942480Y10596170D01*
X-16025701Y10729175D01*
X-16098361Y10846713D01*
X-16157858Y10944651D01*
X-16201589Y11018853D01*
X-16226952Y11065184D01*
X-16232180Y11079518D01*
X-16208929Y11095439D01*
X-16156366Y11128264D01*
X-16080580Y11174398D01*
X-15987660Y11230244D01*
X-15883692Y11292207D01*
X-15774765Y11356693D01*
X-15666967Y11420106D01*
X-15566385Y11478850D01*
X-15479108Y11529330D01*
X-15411224Y11567951D01*
X-15368820Y11591118D01*
X-15357360Y11596158D01*
X-15344300Y11576115D01*
G37*
X-15344300Y11576115D02*
X-15314158Y11527500D01*
X-15271674Y11458017D01*
X-15230384Y11389928D01*
X-15007435Y11028739D01*
X-14761220Y10643890D01*
X-14496928Y10243060D01*
X-14219752Y9833929D01*
X-13934882Y9424178D01*
X-13647508Y9021487D01*
X-13413543Y8701812D01*
X-13140838Y8333707D01*
X-13190294Y8286940D01*
X-13221817Y8260248D01*
X-13281263Y8212732D01*
X-13362720Y8149011D01*
X-13460274Y8073702D01*
X-13568013Y7991421D01*
X-13594089Y7971634D01*
X-13948428Y7703093D01*
X-14221572Y8071011D01*
X-14513976Y8471456D01*
X-14817516Y8899681D01*
X-15124937Y9345339D01*
X-15367097Y9704916D01*
X-15459036Y9843882D01*
X-15556029Y9992191D01*
X-15655472Y10145710D01*
X-15754763Y10300302D01*
X-15851299Y10451834D01*
X-15942480Y10596170D01*
X-16025701Y10729175D01*
X-16098361Y10846713D01*
X-16157858Y10944651D01*
X-16201589Y11018853D01*
X-16226952Y11065184D01*
X-16232180Y11079518D01*
X-16208929Y11095439D01*
X-16156366Y11128264D01*
X-16080580Y11174398D01*
X-15987660Y11230244D01*
X-15883692Y11292207D01*
X-15774765Y11356693D01*
X-15666967Y11420106D01*
X-15566385Y11478850D01*
X-15479108Y11529330D01*
X-15411224Y11567951D01*
X-15368820Y11591118D01*
X-15357360Y11596158D01*
X-15344300Y11576115D01*
G36*
X15777003Y11586692D02*
G01*
X15825731Y11559667D01*
X15898582Y11518089D01*
X15989453Y11465547D01*
X16092238Y11405629D01*
X16200835Y11341924D01*
X16309140Y11278022D01*
X16411048Y11217510D01*
X16500457Y11163978D01*
X16571263Y11121014D01*
X16617360Y11092207D01*
X16632284Y11081831D01*
X16624616Y11061304D01*
X16596124Y11009328D01*
X16549277Y10929804D01*
X16486545Y10826629D01*
X16410399Y10703703D01*
X16323310Y10564924D01*
X16227748Y10414192D01*
X16126184Y10255405D01*
X16021087Y10092463D01*
X15914929Y9929263D01*
X15810180Y9769706D01*
X15709310Y9617690D01*
X15625715Y9493250D01*
X15534541Y9359457D01*
X15433015Y9212225D01*
X15323720Y9055152D01*
X15209238Y8891840D01*
X15092152Y8725891D01*
X14975043Y8560904D01*
X14860493Y8400481D01*
X14751086Y8248222D01*
X14649402Y8107728D01*
X14558025Y7982600D01*
X14479536Y7876438D01*
X14416518Y7792845D01*
X14371552Y7735419D01*
X14347221Y7707763D01*
X14343925Y7705807D01*
X14326829Y7718356D01*
X14280739Y7752963D01*
X14210366Y7806068D01*
X14120420Y7874115D01*
X14015612Y7953545D01*
X13944595Y8007432D01*
X13832787Y8093019D01*
X13733130Y8170663D01*
X13650330Y8236585D01*
X13589096Y8287004D01*
X13554135Y8318141D01*
X13547720Y8326078D01*
X13559432Y8348335D01*
X13592497Y8398272D01*
X13642696Y8469834D01*
X13705806Y8556966D01*
X13754237Y8622412D01*
X14082452Y9070162D01*
X14414283Y9537932D01*
X14742579Y10015213D01*
X15060192Y10491494D01*
X15359974Y10956268D01*
X15563133Y11281733D01*
X15625553Y11383071D01*
X15680052Y11471120D01*
X15722875Y11539849D01*
X15750265Y11583224D01*
X15758501Y11595576D01*
X15777003Y11586692D01*
G37*
X15777003Y11586692D02*
X15825731Y11559667D01*
X15898582Y11518089D01*
X15989453Y11465547D01*
X16092238Y11405629D01*
X16200835Y11341924D01*
X16309140Y11278022D01*
X16411048Y11217510D01*
X16500457Y11163978D01*
X16571263Y11121014D01*
X16617360Y11092207D01*
X16632284Y11081831D01*
X16624616Y11061304D01*
X16596124Y11009328D01*
X16549277Y10929804D01*
X16486545Y10826629D01*
X16410399Y10703703D01*
X16323310Y10564924D01*
X16227748Y10414192D01*
X16126184Y10255405D01*
X16021087Y10092463D01*
X15914929Y9929263D01*
X15810180Y9769706D01*
X15709310Y9617690D01*
X15625715Y9493250D01*
X15534541Y9359457D01*
X15433015Y9212225D01*
X15323720Y9055152D01*
X15209238Y8891840D01*
X15092152Y8725891D01*
X14975043Y8560904D01*
X14860493Y8400481D01*
X14751086Y8248222D01*
X14649402Y8107728D01*
X14558025Y7982600D01*
X14479536Y7876438D01*
X14416518Y7792845D01*
X14371552Y7735419D01*
X14347221Y7707763D01*
X14343925Y7705807D01*
X14326829Y7718356D01*
X14280739Y7752963D01*
X14210366Y7806068D01*
X14120420Y7874115D01*
X14015612Y7953545D01*
X13944595Y8007432D01*
X13832787Y8093019D01*
X13733130Y8170663D01*
X13650330Y8236585D01*
X13589096Y8287004D01*
X13554135Y8318141D01*
X13547720Y8326078D01*
X13559432Y8348335D01*
X13592497Y8398272D01*
X13642696Y8469834D01*
X13705806Y8556966D01*
X13754237Y8622412D01*
X14082452Y9070162D01*
X14414283Y9537932D01*
X14742579Y10015213D01*
X15060192Y10491494D01*
X15359974Y10956268D01*
X15563133Y11281733D01*
X15625553Y11383071D01*
X15680052Y11471120D01*
X15722875Y11539849D01*
X15750265Y11583224D01*
X15758501Y11595576D01*
X15777003Y11586692D01*
G36*
X-17596208Y15962677D02*
G01*
X-17570648Y15914290D01*
X-17538824Y15844796D01*
X-17526910Y15816791D01*
X-17421562Y15571081D01*
X-17298561Y15295731D01*
X-17161346Y14997803D01*
X-17013357Y14684361D01*
X-16858033Y14362470D01*
X-16698814Y14039193D01*
X-16539138Y13721594D01*
X-16382447Y13416735D01*
X-16232178Y13131681D01*
X-16108292Y12903381D01*
X-16038676Y12776379D01*
X-15976841Y12662106D01*
X-15925452Y12565609D01*
X-15887175Y12491935D01*
X-15864676Y12446133D01*
X-15859840Y12432938D01*
X-15879924Y12420447D01*
X-15930397Y12390949D01*
X-16005016Y12347981D01*
X-16097538Y12295079D01*
X-16201718Y12235780D01*
X-16311314Y12173621D01*
X-16420082Y12112138D01*
X-16521777Y12054868D01*
X-16610158Y12005347D01*
X-16678979Y11967113D01*
X-16721999Y11943703D01*
X-16733580Y11938000D01*
X-16747556Y11954565D01*
X-16774920Y11996819D01*
X-16793561Y12027958D01*
X-16877562Y12175471D01*
X-16976488Y12355288D01*
X-17087262Y12561395D01*
X-17206807Y12787782D01*
X-17332045Y13028437D01*
X-17459899Y13277349D01*
X-17587291Y13528506D01*
X-17711144Y13775896D01*
X-17828380Y14013508D01*
X-17935922Y14235329D01*
X-18030692Y14435350D01*
X-18074896Y14530916D01*
X-18139191Y14672269D01*
X-18205345Y14819310D01*
X-18271141Y14966948D01*
X-18334360Y15110093D01*
X-18392784Y15243655D01*
X-18444194Y15362544D01*
X-18486373Y15461669D01*
X-18517100Y15535940D01*
X-18534158Y15580267D01*
X-18536787Y15590746D01*
X-18515453Y15601182D01*
X-18461734Y15624991D01*
X-18382304Y15659360D01*
X-18283836Y15701479D01*
X-18173005Y15748534D01*
X-18056484Y15797715D01*
X-17940948Y15846210D01*
X-17833071Y15891206D01*
X-17739527Y15929894D01*
X-17666990Y15959460D01*
X-17622134Y15977093D01*
X-17610837Y15980833D01*
X-17596208Y15962677D01*
G37*
X-17596208Y15962677D02*
X-17570648Y15914290D01*
X-17538824Y15844796D01*
X-17526910Y15816791D01*
X-17421562Y15571081D01*
X-17298561Y15295731D01*
X-17161346Y14997803D01*
X-17013357Y14684361D01*
X-16858033Y14362470D01*
X-16698814Y14039193D01*
X-16539138Y13721594D01*
X-16382447Y13416735D01*
X-16232178Y13131681D01*
X-16108292Y12903381D01*
X-16038676Y12776379D01*
X-15976841Y12662106D01*
X-15925452Y12565609D01*
X-15887175Y12491935D01*
X-15864676Y12446133D01*
X-15859840Y12432938D01*
X-15879924Y12420447D01*
X-15930397Y12390949D01*
X-16005016Y12347981D01*
X-16097538Y12295079D01*
X-16201718Y12235780D01*
X-16311314Y12173621D01*
X-16420082Y12112138D01*
X-16521777Y12054868D01*
X-16610158Y12005347D01*
X-16678979Y11967113D01*
X-16721999Y11943703D01*
X-16733580Y11938000D01*
X-16747556Y11954565D01*
X-16774920Y11996819D01*
X-16793561Y12027958D01*
X-16877562Y12175471D01*
X-16976488Y12355288D01*
X-17087262Y12561395D01*
X-17206807Y12787782D01*
X-17332045Y13028437D01*
X-17459899Y13277349D01*
X-17587291Y13528506D01*
X-17711144Y13775896D01*
X-17828380Y14013508D01*
X-17935922Y14235329D01*
X-18030692Y14435350D01*
X-18074896Y14530916D01*
X-18139191Y14672269D01*
X-18205345Y14819310D01*
X-18271141Y14966948D01*
X-18334360Y15110093D01*
X-18392784Y15243655D01*
X-18444194Y15362544D01*
X-18486373Y15461669D01*
X-18517100Y15535940D01*
X-18534158Y15580267D01*
X-18536787Y15590746D01*
X-18515453Y15601182D01*
X-18461734Y15624991D01*
X-18382304Y15659360D01*
X-18283836Y15701479D01*
X-18173005Y15748534D01*
X-18056484Y15797715D01*
X-17940948Y15846210D01*
X-17833071Y15891206D01*
X-17739527Y15929894D01*
X-17666990Y15959460D01*
X-17622134Y15977093D01*
X-17610837Y15980833D01*
X-17596208Y15962677D01*
G36*
X18023548Y15972083D02*
G01*
X18077778Y15951845D01*
X18160034Y15919305D01*
X18264868Y15876641D01*
X18386835Y15826032D01*
X18475298Y15788819D01*
X18621500Y15726817D01*
X18733072Y15678730D01*
X18814429Y15642120D01*
X18869987Y15614546D01*
X18904163Y15593570D01*
X18921372Y15576753D01*
X18926031Y15561656D01*
X18922556Y15545838D01*
X18921309Y15542467D01*
X18897189Y15483264D01*
X18857698Y15391376D01*
X18805401Y15272463D01*
X18742864Y15132184D01*
X18672652Y14976201D01*
X18597332Y14810173D01*
X18519468Y14639761D01*
X18441627Y14470624D01*
X18366374Y14308422D01*
X18296275Y14158816D01*
X18246717Y14054280D01*
X18168497Y13892353D01*
X18082255Y13717330D01*
X17989956Y13532927D01*
X17893569Y13342860D01*
X17795058Y13150845D01*
X17696392Y12960598D01*
X17599536Y12775833D01*
X17506457Y12600268D01*
X17419122Y12437618D01*
X17339498Y12291598D01*
X17269551Y12165926D01*
X17211249Y12064315D01*
X17166556Y11990483D01*
X17137442Y11948144D01*
X17127285Y11939241D01*
X17105635Y11949753D01*
X17052865Y11978485D01*
X16974446Y12022366D01*
X16875847Y12078324D01*
X16762538Y12143287D01*
X16711084Y12172976D01*
X16591943Y12241872D01*
X16484159Y12304241D01*
X16393481Y12356752D01*
X16325660Y12396075D01*
X16286446Y12418878D01*
X16280066Y12422624D01*
X16273475Y12437493D01*
X16280649Y12469800D01*
X16303517Y12523980D01*
X16344010Y12604466D01*
X16404058Y12715692D01*
X16421073Y12746513D01*
X16803904Y13459431D01*
X17179860Y14202245D01*
X17542772Y14962527D01*
X17779562Y15484520D01*
X17838793Y15617576D01*
X17892407Y15737321D01*
X17938014Y15838474D01*
X17973223Y15915750D01*
X17995644Y15963868D01*
X18002788Y15977840D01*
X18023548Y15972083D01*
G37*
X18023548Y15972083D02*
X18077778Y15951845D01*
X18160034Y15919305D01*
X18264868Y15876641D01*
X18386835Y15826032D01*
X18475298Y15788819D01*
X18621500Y15726817D01*
X18733072Y15678730D01*
X18814429Y15642120D01*
X18869987Y15614546D01*
X18904163Y15593570D01*
X18921372Y15576753D01*
X18926031Y15561656D01*
X18922556Y15545838D01*
X18921309Y15542467D01*
X18897189Y15483264D01*
X18857698Y15391376D01*
X18805401Y15272463D01*
X18742864Y15132184D01*
X18672652Y14976201D01*
X18597332Y14810173D01*
X18519468Y14639761D01*
X18441627Y14470624D01*
X18366374Y14308422D01*
X18296275Y14158816D01*
X18246717Y14054280D01*
X18168497Y13892353D01*
X18082255Y13717330D01*
X17989956Y13532927D01*
X17893569Y13342860D01*
X17795058Y13150845D01*
X17696392Y12960598D01*
X17599536Y12775833D01*
X17506457Y12600268D01*
X17419122Y12437618D01*
X17339498Y12291598D01*
X17269551Y12165926D01*
X17211249Y12064315D01*
X17166556Y11990483D01*
X17137442Y11948144D01*
X17127285Y11939241D01*
X17105635Y11949753D01*
X17052865Y11978485D01*
X16974446Y12022366D01*
X16875847Y12078324D01*
X16762538Y12143287D01*
X16711084Y12172976D01*
X16591943Y12241872D01*
X16484159Y12304241D01*
X16393481Y12356752D01*
X16325660Y12396075D01*
X16286446Y12418878D01*
X16280066Y12422624D01*
X16273475Y12437493D01*
X16280649Y12469800D01*
X16303517Y12523980D01*
X16344010Y12604466D01*
X16404058Y12715692D01*
X16421073Y12746513D01*
X16803904Y13459431D01*
X17179860Y14202245D01*
X17542772Y14962527D01*
X17779562Y15484520D01*
X17838793Y15617576D01*
X17892407Y15737321D01*
X17938014Y15838474D01*
X17973223Y15915750D01*
X17995644Y15963868D01*
X18002788Y15977840D01*
X18023548Y15972083D01*
M02*
