G04 #@! TF.GenerationSoftware,KiCad,Pcbnew,5.1.5+dfsg1-2build2*
G04 #@! TF.CreationDate,2021-04-12T21:13:24-04:00*
G04 #@! TF.ProjectId,gold_tile,676f6c64-5f74-4696-9c65-2e6b69636164,rev?*
G04 #@! TF.SameCoordinates,Original*
G04 #@! TF.FileFunction,Soldermask,Top*
G04 #@! TF.FilePolarity,Negative*
%FSLAX46Y46*%
G04 Gerber Fmt 4.6, Leading zero omitted, Abs format (unit mm)*
G04 Created by KiCad (PCBNEW 5.1.5+dfsg1-2build2) date 2021-04-12 21:13:24*
%MOMM*%
%LPD*%
G04 APERTURE LIST*
%ADD10C,0.010000*%
G04 APERTURE END LIST*
D10*
G36*
X-8412124Y-9207709D02*
G01*
X-7907151Y-9282230D01*
X-7412029Y-9394386D01*
X-6928684Y-9543236D01*
X-6459046Y-9727843D01*
X-6005041Y-9947265D01*
X-5568598Y-10200564D01*
X-5151644Y-10486800D01*
X-4756108Y-10805032D01*
X-4383917Y-11154323D01*
X-4036999Y-11533731D01*
X-3717282Y-11942318D01*
X-3426694Y-12379144D01*
X-3167163Y-12843269D01*
X-3146076Y-12884987D01*
X-2934609Y-13353636D01*
X-2761478Y-13837529D01*
X-2626810Y-14333681D01*
X-2530733Y-14839108D01*
X-2473375Y-15350825D01*
X-2454863Y-15865846D01*
X-2475326Y-16381188D01*
X-2534891Y-16893865D01*
X-2633686Y-17400892D01*
X-2771838Y-17899285D01*
X-2914248Y-18298584D01*
X-3128687Y-18785628D01*
X-3378918Y-19250924D01*
X-3663517Y-19692896D01*
X-3981059Y-20109970D01*
X-4330121Y-20500574D01*
X-4709277Y-20863132D01*
X-5117105Y-21196071D01*
X-5552178Y-21497818D01*
X-6013074Y-21766798D01*
X-6088681Y-21806463D01*
X-6553118Y-22024319D01*
X-7030477Y-22204097D01*
X-7524343Y-22346939D01*
X-8038302Y-22453985D01*
X-8207907Y-22480912D01*
X-8341353Y-22496631D01*
X-8507003Y-22510004D01*
X-8695394Y-22520793D01*
X-8897067Y-22528762D01*
X-9102560Y-22533675D01*
X-9302413Y-22535294D01*
X-9487164Y-22533384D01*
X-9647352Y-22527706D01*
X-9757833Y-22519673D01*
X-10290604Y-22445929D01*
X-10810700Y-22332347D01*
X-11316453Y-22179731D01*
X-11806194Y-21988882D01*
X-12278254Y-21760605D01*
X-12730966Y-21495702D01*
X-13162660Y-21194976D01*
X-13571668Y-20859230D01*
X-13938250Y-20507991D01*
X-14294565Y-20110176D01*
X-14616981Y-19687678D01*
X-14904331Y-19242312D01*
X-15155446Y-18775893D01*
X-15369160Y-18290237D01*
X-15376710Y-18270961D01*
X-15546359Y-17778007D01*
X-15676261Y-17273208D01*
X-15766279Y-16759658D01*
X-15816275Y-16240446D01*
X-15823415Y-15861784D01*
X-14721347Y-15861784D01*
X-14718679Y-16077173D01*
X-14711038Y-16281568D01*
X-14698425Y-16464360D01*
X-14682294Y-16605250D01*
X-14589762Y-17094327D01*
X-14458688Y-17566882D01*
X-14289671Y-18021713D01*
X-14083308Y-18457619D01*
X-13840197Y-18873401D01*
X-13560936Y-19267856D01*
X-13246122Y-19639785D01*
X-13091583Y-19800922D01*
X-12732427Y-20131780D01*
X-12349789Y-20427779D01*
X-11945323Y-20688119D01*
X-11520685Y-20912004D01*
X-11077528Y-21098637D01*
X-10617507Y-21247219D01*
X-10142276Y-21356953D01*
X-9736666Y-21418051D01*
X-9611923Y-21428386D01*
X-9455725Y-21435140D01*
X-9278795Y-21438383D01*
X-9091852Y-21438184D01*
X-8905619Y-21434615D01*
X-8730816Y-21427743D01*
X-8578166Y-21417640D01*
X-8501222Y-21410004D01*
X-8018390Y-21332613D01*
X-7549040Y-21215385D01*
X-7094792Y-21059119D01*
X-6657265Y-20864614D01*
X-6238077Y-20632671D01*
X-5838847Y-20364087D01*
X-5461195Y-20059664D01*
X-5131679Y-19746031D01*
X-4852909Y-19439724D01*
X-4607335Y-19126967D01*
X-4387429Y-18797112D01*
X-4185659Y-18439513D01*
X-4129293Y-18328758D01*
X-3933524Y-17889282D01*
X-3778056Y-17440602D01*
X-3662476Y-16985109D01*
X-3586370Y-16525191D01*
X-3549324Y-16063238D01*
X-3550926Y-15601639D01*
X-3590760Y-15142782D01*
X-3668414Y-14689057D01*
X-3783473Y-14242852D01*
X-3935525Y-13806558D01*
X-4124154Y-13382562D01*
X-4348948Y-12973255D01*
X-4609493Y-12581024D01*
X-4905374Y-12208260D01*
X-5236179Y-11857351D01*
X-5252754Y-11841267D01*
X-5618811Y-11515264D01*
X-6003830Y-11226701D01*
X-6408505Y-10975241D01*
X-6833531Y-10760546D01*
X-7279603Y-10582279D01*
X-7747415Y-10440101D01*
X-8237663Y-10333675D01*
X-8413750Y-10304948D01*
X-8528962Y-10292381D01*
X-8677474Y-10283272D01*
X-8850398Y-10277558D01*
X-9038849Y-10275176D01*
X-9233938Y-10276062D01*
X-9426778Y-10280151D01*
X-9608484Y-10287380D01*
X-9770168Y-10297687D01*
X-9902942Y-10311006D01*
X-9937750Y-10315875D01*
X-10118494Y-10347825D01*
X-10319799Y-10390636D01*
X-10528586Y-10441013D01*
X-10731774Y-10495660D01*
X-10916286Y-10551282D01*
X-11039796Y-10593579D01*
X-11188658Y-10652694D01*
X-11360177Y-10727910D01*
X-11542845Y-10813602D01*
X-11725151Y-10904146D01*
X-11895588Y-10993915D01*
X-12042647Y-11077286D01*
X-12095470Y-11109542D01*
X-12497060Y-11386477D01*
X-12869773Y-11693600D01*
X-13212419Y-12029073D01*
X-13523808Y-12391058D01*
X-13802749Y-12777719D01*
X-14048052Y-13187218D01*
X-14258527Y-13617718D01*
X-14432984Y-14067380D01*
X-14570231Y-14534369D01*
X-14669079Y-15016846D01*
X-14682294Y-15102417D01*
X-14699516Y-15255716D01*
X-14711766Y-15440448D01*
X-14719043Y-15646006D01*
X-14721347Y-15861784D01*
X-15823415Y-15861784D01*
X-15826114Y-15718666D01*
X-15795657Y-15197408D01*
X-15724769Y-14679765D01*
X-15613313Y-14168828D01*
X-15565821Y-13996042D01*
X-15417070Y-13549689D01*
X-15230519Y-13103124D01*
X-15010016Y-12663712D01*
X-14759411Y-12238820D01*
X-14482552Y-11835816D01*
X-14341114Y-11651873D01*
X-14137337Y-11413331D01*
X-13902746Y-11167865D01*
X-13646086Y-10923624D01*
X-13376103Y-10688759D01*
X-13101540Y-10471417D01*
X-12975166Y-10378896D01*
X-12596400Y-10131320D01*
X-12187837Y-9905381D01*
X-11758027Y-9704776D01*
X-11315519Y-9533203D01*
X-10868862Y-9394361D01*
X-10491958Y-9304766D01*
X-9966863Y-9219352D01*
X-9443908Y-9175331D01*
X-8925018Y-9171763D01*
X-8412124Y-9207709D01*
G37*
X-8412124Y-9207709D02*
X-7907151Y-9282230D01*
X-7412029Y-9394386D01*
X-6928684Y-9543236D01*
X-6459046Y-9727843D01*
X-6005041Y-9947265D01*
X-5568598Y-10200564D01*
X-5151644Y-10486800D01*
X-4756108Y-10805032D01*
X-4383917Y-11154323D01*
X-4036999Y-11533731D01*
X-3717282Y-11942318D01*
X-3426694Y-12379144D01*
X-3167163Y-12843269D01*
X-3146076Y-12884987D01*
X-2934609Y-13353636D01*
X-2761478Y-13837529D01*
X-2626810Y-14333681D01*
X-2530733Y-14839108D01*
X-2473375Y-15350825D01*
X-2454863Y-15865846D01*
X-2475326Y-16381188D01*
X-2534891Y-16893865D01*
X-2633686Y-17400892D01*
X-2771838Y-17899285D01*
X-2914248Y-18298584D01*
X-3128687Y-18785628D01*
X-3378918Y-19250924D01*
X-3663517Y-19692896D01*
X-3981059Y-20109970D01*
X-4330121Y-20500574D01*
X-4709277Y-20863132D01*
X-5117105Y-21196071D01*
X-5552178Y-21497818D01*
X-6013074Y-21766798D01*
X-6088681Y-21806463D01*
X-6553118Y-22024319D01*
X-7030477Y-22204097D01*
X-7524343Y-22346939D01*
X-8038302Y-22453985D01*
X-8207907Y-22480912D01*
X-8341353Y-22496631D01*
X-8507003Y-22510004D01*
X-8695394Y-22520793D01*
X-8897067Y-22528762D01*
X-9102560Y-22533675D01*
X-9302413Y-22535294D01*
X-9487164Y-22533384D01*
X-9647352Y-22527706D01*
X-9757833Y-22519673D01*
X-10290604Y-22445929D01*
X-10810700Y-22332347D01*
X-11316453Y-22179731D01*
X-11806194Y-21988882D01*
X-12278254Y-21760605D01*
X-12730966Y-21495702D01*
X-13162660Y-21194976D01*
X-13571668Y-20859230D01*
X-13938250Y-20507991D01*
X-14294565Y-20110176D01*
X-14616981Y-19687678D01*
X-14904331Y-19242312D01*
X-15155446Y-18775893D01*
X-15369160Y-18290237D01*
X-15376710Y-18270961D01*
X-15546359Y-17778007D01*
X-15676261Y-17273208D01*
X-15766279Y-16759658D01*
X-15816275Y-16240446D01*
X-15823415Y-15861784D01*
X-14721347Y-15861784D01*
X-14718679Y-16077173D01*
X-14711038Y-16281568D01*
X-14698425Y-16464360D01*
X-14682294Y-16605250D01*
X-14589762Y-17094327D01*
X-14458688Y-17566882D01*
X-14289671Y-18021713D01*
X-14083308Y-18457619D01*
X-13840197Y-18873401D01*
X-13560936Y-19267856D01*
X-13246122Y-19639785D01*
X-13091583Y-19800922D01*
X-12732427Y-20131780D01*
X-12349789Y-20427779D01*
X-11945323Y-20688119D01*
X-11520685Y-20912004D01*
X-11077528Y-21098637D01*
X-10617507Y-21247219D01*
X-10142276Y-21356953D01*
X-9736666Y-21418051D01*
X-9611923Y-21428386D01*
X-9455725Y-21435140D01*
X-9278795Y-21438383D01*
X-9091852Y-21438184D01*
X-8905619Y-21434615D01*
X-8730816Y-21427743D01*
X-8578166Y-21417640D01*
X-8501222Y-21410004D01*
X-8018390Y-21332613D01*
X-7549040Y-21215385D01*
X-7094792Y-21059119D01*
X-6657265Y-20864614D01*
X-6238077Y-20632671D01*
X-5838847Y-20364087D01*
X-5461195Y-20059664D01*
X-5131679Y-19746031D01*
X-4852909Y-19439724D01*
X-4607335Y-19126967D01*
X-4387429Y-18797112D01*
X-4185659Y-18439513D01*
X-4129293Y-18328758D01*
X-3933524Y-17889282D01*
X-3778056Y-17440602D01*
X-3662476Y-16985109D01*
X-3586370Y-16525191D01*
X-3549324Y-16063238D01*
X-3550926Y-15601639D01*
X-3590760Y-15142782D01*
X-3668414Y-14689057D01*
X-3783473Y-14242852D01*
X-3935525Y-13806558D01*
X-4124154Y-13382562D01*
X-4348948Y-12973255D01*
X-4609493Y-12581024D01*
X-4905374Y-12208260D01*
X-5236179Y-11857351D01*
X-5252754Y-11841267D01*
X-5618811Y-11515264D01*
X-6003830Y-11226701D01*
X-6408505Y-10975241D01*
X-6833531Y-10760546D01*
X-7279603Y-10582279D01*
X-7747415Y-10440101D01*
X-8237663Y-10333675D01*
X-8413750Y-10304948D01*
X-8528962Y-10292381D01*
X-8677474Y-10283272D01*
X-8850398Y-10277558D01*
X-9038849Y-10275176D01*
X-9233938Y-10276062D01*
X-9426778Y-10280151D01*
X-9608484Y-10287380D01*
X-9770168Y-10297687D01*
X-9902942Y-10311006D01*
X-9937750Y-10315875D01*
X-10118494Y-10347825D01*
X-10319799Y-10390636D01*
X-10528586Y-10441013D01*
X-10731774Y-10495660D01*
X-10916286Y-10551282D01*
X-11039796Y-10593579D01*
X-11188658Y-10652694D01*
X-11360177Y-10727910D01*
X-11542845Y-10813602D01*
X-11725151Y-10904146D01*
X-11895588Y-10993915D01*
X-12042647Y-11077286D01*
X-12095470Y-11109542D01*
X-12497060Y-11386477D01*
X-12869773Y-11693600D01*
X-13212419Y-12029073D01*
X-13523808Y-12391058D01*
X-13802749Y-12777719D01*
X-14048052Y-13187218D01*
X-14258527Y-13617718D01*
X-14432984Y-14067380D01*
X-14570231Y-14534369D01*
X-14669079Y-15016846D01*
X-14682294Y-15102417D01*
X-14699516Y-15255716D01*
X-14711766Y-15440448D01*
X-14719043Y-15646006D01*
X-14721347Y-15861784D01*
X-15823415Y-15861784D01*
X-15826114Y-15718666D01*
X-15795657Y-15197408D01*
X-15724769Y-14679765D01*
X-15613313Y-14168828D01*
X-15565821Y-13996042D01*
X-15417070Y-13549689D01*
X-15230519Y-13103124D01*
X-15010016Y-12663712D01*
X-14759411Y-12238820D01*
X-14482552Y-11835816D01*
X-14341114Y-11651873D01*
X-14137337Y-11413331D01*
X-13902746Y-11167865D01*
X-13646086Y-10923624D01*
X-13376103Y-10688759D01*
X-13101540Y-10471417D01*
X-12975166Y-10378896D01*
X-12596400Y-10131320D01*
X-12187837Y-9905381D01*
X-11758027Y-9704776D01*
X-11315519Y-9533203D01*
X-10868862Y-9394361D01*
X-10491958Y-9304766D01*
X-9966863Y-9219352D01*
X-9443908Y-9175331D01*
X-8925018Y-9171763D01*
X-8412124Y-9207709D01*
G36*
X9442580Y-9169686D02*
G01*
X9650992Y-9177312D01*
X9832614Y-9190181D01*
X9884834Y-9195589D01*
X10335875Y-9259926D01*
X10761762Y-9348691D01*
X11172888Y-9464944D01*
X11579644Y-9611741D01*
X11992423Y-9792142D01*
X12117917Y-9852746D01*
X12586391Y-10106853D01*
X13029744Y-10394556D01*
X13446597Y-10714489D01*
X13835573Y-11065284D01*
X14195296Y-11445573D01*
X14524387Y-11853991D01*
X14821470Y-12289170D01*
X15085167Y-12749742D01*
X15135475Y-12848167D01*
X15352465Y-13327567D01*
X15529698Y-13818250D01*
X15667309Y-14317829D01*
X15765438Y-14823917D01*
X15824220Y-15334127D01*
X15843793Y-15846070D01*
X15824294Y-16357360D01*
X15765860Y-16865609D01*
X15668628Y-17368429D01*
X15532734Y-17863434D01*
X15358317Y-18348235D01*
X15145512Y-18820446D01*
X14894458Y-19277679D01*
X14753534Y-19501600D01*
X14442336Y-19937109D01*
X14101054Y-20343626D01*
X13731084Y-20719896D01*
X13333822Y-21064665D01*
X12910666Y-21376675D01*
X12463011Y-21654672D01*
X12202481Y-21794854D01*
X11808326Y-21982465D01*
X11422159Y-22137998D01*
X11030798Y-22266034D01*
X10621060Y-22371154D01*
X10424214Y-22412791D01*
X10155087Y-22457931D01*
X9858314Y-22493073D01*
X9547588Y-22517338D01*
X9236604Y-22529846D01*
X8939053Y-22529716D01*
X8737875Y-22521116D01*
X8210274Y-22466318D01*
X7691924Y-22370756D01*
X7184948Y-22235369D01*
X6691470Y-22061099D01*
X6213612Y-21848885D01*
X5753498Y-21599667D01*
X5313250Y-21314387D01*
X4894993Y-20993983D01*
X4510800Y-20649068D01*
X4137987Y-20258912D01*
X3801229Y-19846699D01*
X3500891Y-19413133D01*
X3237334Y-18958918D01*
X3010923Y-18484759D01*
X2822020Y-17991361D01*
X2670988Y-17479429D01*
X2558190Y-16949668D01*
X2536378Y-16816917D01*
X2518739Y-16674845D01*
X2503963Y-16500187D01*
X2492298Y-16302607D01*
X2483990Y-16091771D01*
X2482982Y-16045766D01*
X3569761Y-16045766D01*
X3607078Y-16520232D01*
X3684612Y-16988534D01*
X3801925Y-17448323D01*
X3958579Y-17897248D01*
X4154138Y-18332960D01*
X4388164Y-18753107D01*
X4510093Y-18942706D01*
X4798967Y-19335450D01*
X5117819Y-19699485D01*
X5464575Y-20033315D01*
X5837163Y-20335445D01*
X6233509Y-20604378D01*
X6651539Y-20838618D01*
X7089180Y-21036669D01*
X7544358Y-21197035D01*
X7694654Y-21240498D01*
X7968284Y-21306802D01*
X8262830Y-21362797D01*
X8557387Y-21404760D01*
X8699500Y-21419437D01*
X8869332Y-21429289D01*
X9068086Y-21432396D01*
X9282962Y-21429177D01*
X9501158Y-21420051D01*
X9709874Y-21405437D01*
X9896310Y-21385753D01*
X9948334Y-21378576D01*
X10364768Y-21302740D01*
X10759291Y-21200086D01*
X11143993Y-21066848D01*
X11530960Y-20899263D01*
X11609917Y-20861181D01*
X12041098Y-20626889D01*
X12446042Y-20359735D01*
X12823839Y-20060428D01*
X13173576Y-19729678D01*
X13433671Y-19441584D01*
X13730258Y-19056786D01*
X13990359Y-18652006D01*
X14213353Y-18229595D01*
X14398615Y-17791905D01*
X14545522Y-17341286D01*
X14653452Y-16880090D01*
X14721781Y-16410667D01*
X14749885Y-15935370D01*
X14737143Y-15456548D01*
X14682930Y-14976553D01*
X14657170Y-14825522D01*
X14550211Y-14359678D01*
X14405201Y-13909695D01*
X14224003Y-13477320D01*
X14008478Y-13064300D01*
X13760488Y-12672382D01*
X13481892Y-12303312D01*
X13174554Y-11958837D01*
X12840333Y-11640704D01*
X12481092Y-11350660D01*
X12098692Y-11090450D01*
X11694993Y-10861822D01*
X11271858Y-10666523D01*
X10831147Y-10506299D01*
X10374722Y-10382897D01*
X9904444Y-10298064D01*
X9821334Y-10287371D01*
X9362976Y-10252479D01*
X8896738Y-10256812D01*
X8428745Y-10299645D01*
X7965124Y-10380255D01*
X7512002Y-10497918D01*
X7225455Y-10594128D01*
X7061616Y-10659703D01*
X6875468Y-10743076D01*
X6678699Y-10838334D01*
X6482996Y-10939559D01*
X6300045Y-11040836D01*
X6141534Y-11136249D01*
X6096000Y-11165827D01*
X5702688Y-11451953D01*
X5337540Y-11767579D01*
X5002136Y-12110434D01*
X4698055Y-12478244D01*
X4426877Y-12868736D01*
X4190180Y-13279639D01*
X3989544Y-13708679D01*
X3826548Y-14153584D01*
X3703484Y-14608892D01*
X3617527Y-15087746D01*
X3573098Y-15567487D01*
X3569761Y-16045766D01*
X2482982Y-16045766D01*
X2479288Y-15877346D01*
X2478440Y-15668996D01*
X2481692Y-15476387D01*
X2489293Y-15309185D01*
X2495689Y-15228719D01*
X2567599Y-14699092D01*
X2679349Y-14181363D01*
X2830030Y-13677424D01*
X3018733Y-13189167D01*
X3244551Y-12718484D01*
X3506575Y-12267268D01*
X3803897Y-11837409D01*
X4135609Y-11430801D01*
X4500801Y-11049334D01*
X4503232Y-11046990D01*
X4907421Y-10685524D01*
X5331017Y-10361680D01*
X5773963Y-10075486D01*
X6236204Y-9826969D01*
X6717687Y-9616156D01*
X7218354Y-9443074D01*
X7738152Y-9307751D01*
X8180917Y-9224622D01*
X8343291Y-9204318D01*
X8537956Y-9188249D01*
X8755064Y-9176584D01*
X8984768Y-9169490D01*
X9217223Y-9167135D01*
X9442580Y-9169686D01*
G37*
X9442580Y-9169686D02*
X9650992Y-9177312D01*
X9832614Y-9190181D01*
X9884834Y-9195589D01*
X10335875Y-9259926D01*
X10761762Y-9348691D01*
X11172888Y-9464944D01*
X11579644Y-9611741D01*
X11992423Y-9792142D01*
X12117917Y-9852746D01*
X12586391Y-10106853D01*
X13029744Y-10394556D01*
X13446597Y-10714489D01*
X13835573Y-11065284D01*
X14195296Y-11445573D01*
X14524387Y-11853991D01*
X14821470Y-12289170D01*
X15085167Y-12749742D01*
X15135475Y-12848167D01*
X15352465Y-13327567D01*
X15529698Y-13818250D01*
X15667309Y-14317829D01*
X15765438Y-14823917D01*
X15824220Y-15334127D01*
X15843793Y-15846070D01*
X15824294Y-16357360D01*
X15765860Y-16865609D01*
X15668628Y-17368429D01*
X15532734Y-17863434D01*
X15358317Y-18348235D01*
X15145512Y-18820446D01*
X14894458Y-19277679D01*
X14753534Y-19501600D01*
X14442336Y-19937109D01*
X14101054Y-20343626D01*
X13731084Y-20719896D01*
X13333822Y-21064665D01*
X12910666Y-21376675D01*
X12463011Y-21654672D01*
X12202481Y-21794854D01*
X11808326Y-21982465D01*
X11422159Y-22137998D01*
X11030798Y-22266034D01*
X10621060Y-22371154D01*
X10424214Y-22412791D01*
X10155087Y-22457931D01*
X9858314Y-22493073D01*
X9547588Y-22517338D01*
X9236604Y-22529846D01*
X8939053Y-22529716D01*
X8737875Y-22521116D01*
X8210274Y-22466318D01*
X7691924Y-22370756D01*
X7184948Y-22235369D01*
X6691470Y-22061099D01*
X6213612Y-21848885D01*
X5753498Y-21599667D01*
X5313250Y-21314387D01*
X4894993Y-20993983D01*
X4510800Y-20649068D01*
X4137987Y-20258912D01*
X3801229Y-19846699D01*
X3500891Y-19413133D01*
X3237334Y-18958918D01*
X3010923Y-18484759D01*
X2822020Y-17991361D01*
X2670988Y-17479429D01*
X2558190Y-16949668D01*
X2536378Y-16816917D01*
X2518739Y-16674845D01*
X2503963Y-16500187D01*
X2492298Y-16302607D01*
X2483990Y-16091771D01*
X2482982Y-16045766D01*
X3569761Y-16045766D01*
X3607078Y-16520232D01*
X3684612Y-16988534D01*
X3801925Y-17448323D01*
X3958579Y-17897248D01*
X4154138Y-18332960D01*
X4388164Y-18753107D01*
X4510093Y-18942706D01*
X4798967Y-19335450D01*
X5117819Y-19699485D01*
X5464575Y-20033315D01*
X5837163Y-20335445D01*
X6233509Y-20604378D01*
X6651539Y-20838618D01*
X7089180Y-21036669D01*
X7544358Y-21197035D01*
X7694654Y-21240498D01*
X7968284Y-21306802D01*
X8262830Y-21362797D01*
X8557387Y-21404760D01*
X8699500Y-21419437D01*
X8869332Y-21429289D01*
X9068086Y-21432396D01*
X9282962Y-21429177D01*
X9501158Y-21420051D01*
X9709874Y-21405437D01*
X9896310Y-21385753D01*
X9948334Y-21378576D01*
X10364768Y-21302740D01*
X10759291Y-21200086D01*
X11143993Y-21066848D01*
X11530960Y-20899263D01*
X11609917Y-20861181D01*
X12041098Y-20626889D01*
X12446042Y-20359735D01*
X12823839Y-20060428D01*
X13173576Y-19729678D01*
X13433671Y-19441584D01*
X13730258Y-19056786D01*
X13990359Y-18652006D01*
X14213353Y-18229595D01*
X14398615Y-17791905D01*
X14545522Y-17341286D01*
X14653452Y-16880090D01*
X14721781Y-16410667D01*
X14749885Y-15935370D01*
X14737143Y-15456548D01*
X14682930Y-14976553D01*
X14657170Y-14825522D01*
X14550211Y-14359678D01*
X14405201Y-13909695D01*
X14224003Y-13477320D01*
X14008478Y-13064300D01*
X13760488Y-12672382D01*
X13481892Y-12303312D01*
X13174554Y-11958837D01*
X12840333Y-11640704D01*
X12481092Y-11350660D01*
X12098692Y-11090450D01*
X11694993Y-10861822D01*
X11271858Y-10666523D01*
X10831147Y-10506299D01*
X10374722Y-10382897D01*
X9904444Y-10298064D01*
X9821334Y-10287371D01*
X9362976Y-10252479D01*
X8896738Y-10256812D01*
X8428745Y-10299645D01*
X7965124Y-10380255D01*
X7512002Y-10497918D01*
X7225455Y-10594128D01*
X7061616Y-10659703D01*
X6875468Y-10743076D01*
X6678699Y-10838334D01*
X6482996Y-10939559D01*
X6300045Y-11040836D01*
X6141534Y-11136249D01*
X6096000Y-11165827D01*
X5702688Y-11451953D01*
X5337540Y-11767579D01*
X5002136Y-12110434D01*
X4698055Y-12478244D01*
X4426877Y-12868736D01*
X4190180Y-13279639D01*
X3989544Y-13708679D01*
X3826548Y-14153584D01*
X3703484Y-14608892D01*
X3617527Y-15087746D01*
X3573098Y-15567487D01*
X3569761Y-16045766D01*
X2482982Y-16045766D01*
X2479288Y-15877346D01*
X2478440Y-15668996D01*
X2481692Y-15476387D01*
X2489293Y-15309185D01*
X2495689Y-15228719D01*
X2567599Y-14699092D01*
X2679349Y-14181363D01*
X2830030Y-13677424D01*
X3018733Y-13189167D01*
X3244551Y-12718484D01*
X3506575Y-12267268D01*
X3803897Y-11837409D01*
X4135609Y-11430801D01*
X4500801Y-11049334D01*
X4503232Y-11046990D01*
X4907421Y-10685524D01*
X5331017Y-10361680D01*
X5773963Y-10075486D01*
X6236204Y-9826969D01*
X6717687Y-9616156D01*
X7218354Y-9443074D01*
X7738152Y-9307751D01*
X8180917Y-9224622D01*
X8343291Y-9204318D01*
X8537956Y-9188249D01*
X8755064Y-9176584D01*
X8984768Y-9169490D01*
X9217223Y-9167135D01*
X9442580Y-9169686D01*
G36*
X-17543020Y6161663D02*
G01*
X-17335033Y6154653D01*
X-17142888Y6141556D01*
X-16953436Y6121343D01*
X-16753527Y6092980D01*
X-16637000Y6073981D01*
X-16127866Y5966655D01*
X-15628482Y5819032D01*
X-15141889Y5632604D01*
X-14671129Y5408862D01*
X-14219244Y5149299D01*
X-13789275Y4855406D01*
X-13384263Y4528676D01*
X-13260916Y4417882D01*
X-12898091Y4060409D01*
X-12572948Y3690583D01*
X-12281409Y3302972D01*
X-12019392Y2892142D01*
X-11782817Y2452661D01*
X-11778912Y2444750D01*
X-11576971Y2001732D01*
X-11412476Y1565636D01*
X-11283293Y1128372D01*
X-11187286Y681849D01*
X-11122320Y217979D01*
X-11092027Y-157486D01*
X-11083322Y-674626D01*
X-11115681Y-1191066D01*
X-11188157Y-1703629D01*
X-11299805Y-2209138D01*
X-11449679Y-2704419D01*
X-11636832Y-3186295D01*
X-11860319Y-3651589D01*
X-12119193Y-4097125D01*
X-12377291Y-4472716D01*
X-12710256Y-4887296D01*
X-13071351Y-5272231D01*
X-13458467Y-5626173D01*
X-13869492Y-5947777D01*
X-14302315Y-6235698D01*
X-14754825Y-6488589D01*
X-15224910Y-6705104D01*
X-15710460Y-6883898D01*
X-16209363Y-7023626D01*
X-16465490Y-7078871D01*
X-16906606Y-7149486D01*
X-17352915Y-7190022D01*
X-17814511Y-7201187D01*
X-18108083Y-7193870D01*
X-18621731Y-7151436D01*
X-19126331Y-7068718D01*
X-19619957Y-6947165D01*
X-20100682Y-6788223D01*
X-20566581Y-6593340D01*
X-21015727Y-6363961D01*
X-21446195Y-6101534D01*
X-21856058Y-5807506D01*
X-22243391Y-5483324D01*
X-22606267Y-5130436D01*
X-22942759Y-4750287D01*
X-23250943Y-4344325D01*
X-23528892Y-3913997D01*
X-23774680Y-3460750D01*
X-23986381Y-2986032D01*
X-24094520Y-2696452D01*
X-24236256Y-2233713D01*
X-24341350Y-1765252D01*
X-24410747Y-1285279D01*
X-24445393Y-788006D01*
X-24449989Y-518584D01*
X-24448820Y-454789D01*
X-23360444Y-454789D01*
X-23345370Y-925571D01*
X-23290694Y-1392913D01*
X-23196724Y-1854206D01*
X-23063768Y-2306840D01*
X-22892135Y-2748205D01*
X-22682133Y-3175691D01*
X-22434072Y-3586690D01*
X-22426315Y-3598334D01*
X-22276326Y-3815288D01*
X-22132334Y-4006177D01*
X-21983798Y-4183902D01*
X-21820176Y-4361366D01*
X-21717152Y-4466319D01*
X-21356395Y-4797744D01*
X-20972919Y-5093742D01*
X-20568167Y-5353648D01*
X-20143578Y-5576797D01*
X-19700595Y-5762524D01*
X-19240659Y-5910164D01*
X-18765212Y-6019052D01*
X-18275694Y-6088523D01*
X-18182166Y-6097132D01*
X-18040921Y-6104730D01*
X-17869716Y-6107164D01*
X-17680562Y-6104798D01*
X-17485473Y-6097993D01*
X-17296458Y-6087112D01*
X-17125530Y-6072517D01*
X-17041049Y-6062708D01*
X-16572730Y-5980210D01*
X-16111857Y-5856926D01*
X-15661522Y-5694177D01*
X-15224818Y-5493288D01*
X-14804835Y-5255580D01*
X-14404666Y-4982375D01*
X-14266333Y-4875811D01*
X-14153783Y-4780902D01*
X-14023083Y-4661857D01*
X-13882877Y-4527316D01*
X-13741812Y-4385917D01*
X-13608533Y-4246299D01*
X-13491685Y-4117101D01*
X-13411533Y-4021667D01*
X-13150255Y-3664667D01*
X-12913369Y-3280563D01*
X-12704838Y-2877279D01*
X-12528624Y-2462740D01*
X-12388691Y-2044869D01*
X-12347888Y-1894866D01*
X-12249006Y-1423010D01*
X-12191570Y-949373D01*
X-12174896Y-476331D01*
X-12198302Y-6254D01*
X-12261103Y458483D01*
X-12362616Y915508D01*
X-12502158Y1362447D01*
X-12679046Y1796927D01*
X-12892595Y2216576D01*
X-13142124Y2619021D01*
X-13426948Y3001888D01*
X-13746384Y3362804D01*
X-13908496Y3524382D01*
X-14270184Y3841994D01*
X-14654712Y4125148D01*
X-15059528Y4373065D01*
X-15482082Y4584965D01*
X-15919821Y4760068D01*
X-16370196Y4897592D01*
X-16830655Y4996759D01*
X-17298647Y5056788D01*
X-17771622Y5076898D01*
X-18247028Y5056311D01*
X-18717459Y4995093D01*
X-19173693Y4894652D01*
X-19624656Y4754092D01*
X-20065461Y4575622D01*
X-20491218Y4361455D01*
X-20897038Y4113802D01*
X-21272500Y3839300D01*
X-21385883Y3743361D01*
X-21517343Y3623365D01*
X-21658163Y3488028D01*
X-21799623Y3346068D01*
X-21933008Y3206201D01*
X-22049598Y3077146D01*
X-22127357Y2984500D01*
X-22312768Y2735116D01*
X-22494809Y2457636D01*
X-22666856Y2163759D01*
X-22822288Y1865182D01*
X-22954479Y1573604D01*
X-23018539Y1410545D01*
X-23164962Y952100D01*
X-23270548Y486657D01*
X-23335606Y16824D01*
X-23360444Y-454789D01*
X-24448820Y-454789D01*
X-24443910Y-187101D01*
X-24424657Y119443D01*
X-24390708Y416811D01*
X-24340539Y720762D01*
X-24320103Y825500D01*
X-24196925Y1330806D01*
X-24035392Y1820765D01*
X-23837232Y2293650D01*
X-23604172Y2747732D01*
X-23337941Y3181283D01*
X-23040267Y3592576D01*
X-22712877Y3979883D01*
X-22357499Y4341476D01*
X-21975861Y4675627D01*
X-21569692Y4980609D01*
X-21140717Y5254693D01*
X-20690667Y5496152D01*
X-20221268Y5703258D01*
X-19734248Y5874283D01*
X-19231335Y6007499D01*
X-19112749Y6032783D01*
X-18835005Y6084423D01*
X-18573788Y6121853D01*
X-18314125Y6146544D01*
X-18041040Y6159964D01*
X-17780000Y6163617D01*
X-17543020Y6161663D01*
G37*
X-17543020Y6161663D02*
X-17335033Y6154653D01*
X-17142888Y6141556D01*
X-16953436Y6121343D01*
X-16753527Y6092980D01*
X-16637000Y6073981D01*
X-16127866Y5966655D01*
X-15628482Y5819032D01*
X-15141889Y5632604D01*
X-14671129Y5408862D01*
X-14219244Y5149299D01*
X-13789275Y4855406D01*
X-13384263Y4528676D01*
X-13260916Y4417882D01*
X-12898091Y4060409D01*
X-12572948Y3690583D01*
X-12281409Y3302972D01*
X-12019392Y2892142D01*
X-11782817Y2452661D01*
X-11778912Y2444750D01*
X-11576971Y2001732D01*
X-11412476Y1565636D01*
X-11283293Y1128372D01*
X-11187286Y681849D01*
X-11122320Y217979D01*
X-11092027Y-157486D01*
X-11083322Y-674626D01*
X-11115681Y-1191066D01*
X-11188157Y-1703629D01*
X-11299805Y-2209138D01*
X-11449679Y-2704419D01*
X-11636832Y-3186295D01*
X-11860319Y-3651589D01*
X-12119193Y-4097125D01*
X-12377291Y-4472716D01*
X-12710256Y-4887296D01*
X-13071351Y-5272231D01*
X-13458467Y-5626173D01*
X-13869492Y-5947777D01*
X-14302315Y-6235698D01*
X-14754825Y-6488589D01*
X-15224910Y-6705104D01*
X-15710460Y-6883898D01*
X-16209363Y-7023626D01*
X-16465490Y-7078871D01*
X-16906606Y-7149486D01*
X-17352915Y-7190022D01*
X-17814511Y-7201187D01*
X-18108083Y-7193870D01*
X-18621731Y-7151436D01*
X-19126331Y-7068718D01*
X-19619957Y-6947165D01*
X-20100682Y-6788223D01*
X-20566581Y-6593340D01*
X-21015727Y-6363961D01*
X-21446195Y-6101534D01*
X-21856058Y-5807506D01*
X-22243391Y-5483324D01*
X-22606267Y-5130436D01*
X-22942759Y-4750287D01*
X-23250943Y-4344325D01*
X-23528892Y-3913997D01*
X-23774680Y-3460750D01*
X-23986381Y-2986032D01*
X-24094520Y-2696452D01*
X-24236256Y-2233713D01*
X-24341350Y-1765252D01*
X-24410747Y-1285279D01*
X-24445393Y-788006D01*
X-24449989Y-518584D01*
X-24448820Y-454789D01*
X-23360444Y-454789D01*
X-23345370Y-925571D01*
X-23290694Y-1392913D01*
X-23196724Y-1854206D01*
X-23063768Y-2306840D01*
X-22892135Y-2748205D01*
X-22682133Y-3175691D01*
X-22434072Y-3586690D01*
X-22426315Y-3598334D01*
X-22276326Y-3815288D01*
X-22132334Y-4006177D01*
X-21983798Y-4183902D01*
X-21820176Y-4361366D01*
X-21717152Y-4466319D01*
X-21356395Y-4797744D01*
X-20972919Y-5093742D01*
X-20568167Y-5353648D01*
X-20143578Y-5576797D01*
X-19700595Y-5762524D01*
X-19240659Y-5910164D01*
X-18765212Y-6019052D01*
X-18275694Y-6088523D01*
X-18182166Y-6097132D01*
X-18040921Y-6104730D01*
X-17869716Y-6107164D01*
X-17680562Y-6104798D01*
X-17485473Y-6097993D01*
X-17296458Y-6087112D01*
X-17125530Y-6072517D01*
X-17041049Y-6062708D01*
X-16572730Y-5980210D01*
X-16111857Y-5856926D01*
X-15661522Y-5694177D01*
X-15224818Y-5493288D01*
X-14804835Y-5255580D01*
X-14404666Y-4982375D01*
X-14266333Y-4875811D01*
X-14153783Y-4780902D01*
X-14023083Y-4661857D01*
X-13882877Y-4527316D01*
X-13741812Y-4385917D01*
X-13608533Y-4246299D01*
X-13491685Y-4117101D01*
X-13411533Y-4021667D01*
X-13150255Y-3664667D01*
X-12913369Y-3280563D01*
X-12704838Y-2877279D01*
X-12528624Y-2462740D01*
X-12388691Y-2044869D01*
X-12347888Y-1894866D01*
X-12249006Y-1423010D01*
X-12191570Y-949373D01*
X-12174896Y-476331D01*
X-12198302Y-6254D01*
X-12261103Y458483D01*
X-12362616Y915508D01*
X-12502158Y1362447D01*
X-12679046Y1796927D01*
X-12892595Y2216576D01*
X-13142124Y2619021D01*
X-13426948Y3001888D01*
X-13746384Y3362804D01*
X-13908496Y3524382D01*
X-14270184Y3841994D01*
X-14654712Y4125148D01*
X-15059528Y4373065D01*
X-15482082Y4584965D01*
X-15919821Y4760068D01*
X-16370196Y4897592D01*
X-16830655Y4996759D01*
X-17298647Y5056788D01*
X-17771622Y5076898D01*
X-18247028Y5056311D01*
X-18717459Y4995093D01*
X-19173693Y4894652D01*
X-19624656Y4754092D01*
X-20065461Y4575622D01*
X-20491218Y4361455D01*
X-20897038Y4113802D01*
X-21272500Y3839300D01*
X-21385883Y3743361D01*
X-21517343Y3623365D01*
X-21658163Y3488028D01*
X-21799623Y3346068D01*
X-21933008Y3206201D01*
X-22049598Y3077146D01*
X-22127357Y2984500D01*
X-22312768Y2735116D01*
X-22494809Y2457636D01*
X-22666856Y2163759D01*
X-22822288Y1865182D01*
X-22954479Y1573604D01*
X-23018539Y1410545D01*
X-23164962Y952100D01*
X-23270548Y486657D01*
X-23335606Y16824D01*
X-23360444Y-454789D01*
X-24448820Y-454789D01*
X-24443910Y-187101D01*
X-24424657Y119443D01*
X-24390708Y416811D01*
X-24340539Y720762D01*
X-24320103Y825500D01*
X-24196925Y1330806D01*
X-24035392Y1820765D01*
X-23837232Y2293650D01*
X-23604172Y2747732D01*
X-23337941Y3181283D01*
X-23040267Y3592576D01*
X-22712877Y3979883D01*
X-22357499Y4341476D01*
X-21975861Y4675627D01*
X-21569692Y4980609D01*
X-21140717Y5254693D01*
X-20690667Y5496152D01*
X-20221268Y5703258D01*
X-19734248Y5874283D01*
X-19231335Y6007499D01*
X-19112749Y6032783D01*
X-18835005Y6084423D01*
X-18573788Y6121853D01*
X-18314125Y6146544D01*
X-18041040Y6159964D01*
X-17780000Y6163617D01*
X-17543020Y6161663D01*
G36*
X18497696Y6153482D02*
G01*
X19010766Y6077277D01*
X19516048Y5961234D01*
X20011630Y5805726D01*
X20495600Y5611128D01*
X20966046Y5377813D01*
X21421056Y5106157D01*
X21858718Y4796533D01*
X21931663Y4739828D01*
X22082753Y4613474D01*
X22250576Y4460584D01*
X22427376Y4289150D01*
X22605393Y4107165D01*
X22776871Y3922624D01*
X22934052Y3743518D01*
X23069178Y3577841D01*
X23105214Y3530674D01*
X23411477Y3087778D01*
X23679082Y2627635D01*
X23908004Y2150300D01*
X24098222Y1655827D01*
X24249712Y1144270D01*
X24362452Y615684D01*
X24386915Y465666D01*
X24401605Y365233D01*
X24413122Y274297D01*
X24421830Y185603D01*
X24428098Y91895D01*
X24432289Y-14083D01*
X24434772Y-139587D01*
X24435911Y-291873D01*
X24436072Y-478196D01*
X24436037Y-508000D01*
X24435384Y-703499D01*
X24433786Y-863622D01*
X24430900Y-995323D01*
X24426383Y-1105556D01*
X24419893Y-1201276D01*
X24411087Y-1289434D01*
X24399623Y-1376986D01*
X24390154Y-1439599D01*
X24338032Y-1739605D01*
X24279014Y-2014732D01*
X24208904Y-2282350D01*
X24123509Y-2559828D01*
X24109080Y-2603500D01*
X23926344Y-3092917D01*
X23712408Y-3555735D01*
X23465376Y-3995001D01*
X23183352Y-4413764D01*
X22864442Y-4815069D01*
X22506750Y-5201966D01*
X22470012Y-5238750D01*
X22076118Y-5602322D01*
X21663007Y-5928405D01*
X21230197Y-6217243D01*
X20777204Y-6469077D01*
X20303546Y-6684149D01*
X19808740Y-6862702D01*
X19292301Y-7004976D01*
X18753747Y-7111216D01*
X18722584Y-7116158D01*
X18589356Y-7132582D01*
X18422843Y-7146183D01*
X18232008Y-7156812D01*
X18025815Y-7164319D01*
X17813228Y-7168553D01*
X17603209Y-7169366D01*
X17404723Y-7166607D01*
X17226732Y-7160127D01*
X17078201Y-7149776D01*
X17028584Y-7144462D01*
X16488659Y-7058827D01*
X15968410Y-6935847D01*
X15466831Y-6775118D01*
X14982915Y-6576234D01*
X14515657Y-6338788D01*
X14064050Y-6062374D01*
X13695550Y-5799386D01*
X13545202Y-5678537D01*
X13378089Y-5533507D01*
X13203133Y-5372847D01*
X13029257Y-5205109D01*
X12865384Y-5038844D01*
X12720437Y-4882602D01*
X12632194Y-4780379D01*
X12306946Y-4355719D01*
X12019141Y-3912836D01*
X11769063Y-3453786D01*
X11556997Y-2980629D01*
X11383226Y-2495421D01*
X11248036Y-2000222D01*
X11151710Y-1497088D01*
X11094533Y-988077D01*
X11081606Y-614467D01*
X12176336Y-614467D01*
X12206989Y-1083627D01*
X12277079Y-1548275D01*
X12386165Y-2005987D01*
X12533806Y-2454340D01*
X12719560Y-2890908D01*
X12942986Y-3313270D01*
X13203643Y-3718999D01*
X13414402Y-3999816D01*
X13718349Y-4346832D01*
X14054420Y-4669165D01*
X14418661Y-4964278D01*
X14807117Y-5229635D01*
X15215834Y-5462700D01*
X15640858Y-5660935D01*
X16078234Y-5821804D01*
X16396021Y-5912430D01*
X16736192Y-5988466D01*
X17061853Y-6041175D01*
X17377834Y-6072629D01*
X17519903Y-6082359D01*
X17632327Y-6088634D01*
X17727651Y-6091478D01*
X17818418Y-6090912D01*
X17917174Y-6086959D01*
X18036463Y-6079641D01*
X18118667Y-6073959D01*
X18611580Y-6018796D01*
X19090662Y-5924080D01*
X19554571Y-5790415D01*
X20001969Y-5618409D01*
X20431516Y-5408668D01*
X20841872Y-5161798D01*
X21231698Y-4878406D01*
X21599654Y-4559098D01*
X21717000Y-4445000D01*
X22043284Y-4089604D01*
X22334847Y-3711977D01*
X22591146Y-3314568D01*
X22811640Y-2899827D01*
X22995785Y-2470205D01*
X23143039Y-2028152D01*
X23252859Y-1576117D01*
X23324703Y-1116552D01*
X23358028Y-651904D01*
X23352292Y-184626D01*
X23306952Y282833D01*
X23221465Y748024D01*
X23095289Y1208495D01*
X23018425Y1431712D01*
X22834780Y1870235D01*
X22614749Y2289750D01*
X22360560Y2688180D01*
X22074443Y3063448D01*
X21758627Y3413475D01*
X21415341Y3736184D01*
X21046813Y4029498D01*
X20655273Y4291340D01*
X20242949Y4519631D01*
X19812071Y4712294D01*
X19364866Y4867253D01*
X19317595Y4881096D01*
X18848912Y4994107D01*
X18372467Y5066091D01*
X17891273Y5096960D01*
X17408341Y5086627D01*
X16926683Y5035005D01*
X16535325Y4961923D01*
X16077879Y4838382D01*
X15635347Y4676400D01*
X15209828Y4477882D01*
X14803422Y4244736D01*
X14418228Y3978867D01*
X14056345Y3682181D01*
X13719872Y3356583D01*
X13410908Y3003981D01*
X13131553Y2626280D01*
X12883905Y2225386D01*
X12670065Y1803205D01*
X12492131Y1361644D01*
X12456925Y1258812D01*
X12325415Y795844D01*
X12235108Y327692D01*
X12185562Y-143219D01*
X12176336Y-614467D01*
X11081606Y-614467D01*
X11076789Y-475249D01*
X11098762Y39341D01*
X11160737Y553632D01*
X11262998Y1065569D01*
X11405830Y1573091D01*
X11589516Y2074143D01*
X11661771Y2243666D01*
X11852781Y2633435D01*
X12079845Y3022984D01*
X12337357Y3404583D01*
X12619711Y3770497D01*
X12921299Y4112994D01*
X13236516Y4424340D01*
X13254906Y4441104D01*
X13646325Y4770174D01*
X14061557Y5069612D01*
X14496131Y5336896D01*
X14945572Y5569501D01*
X15405409Y5764902D01*
X15871169Y5920576D01*
X15882455Y5923824D01*
X16405782Y6052427D01*
X16930882Y6139321D01*
X17455842Y6184878D01*
X17978751Y6189474D01*
X18497696Y6153482D01*
G37*
X18497696Y6153482D02*
X19010766Y6077277D01*
X19516048Y5961234D01*
X20011630Y5805726D01*
X20495600Y5611128D01*
X20966046Y5377813D01*
X21421056Y5106157D01*
X21858718Y4796533D01*
X21931663Y4739828D01*
X22082753Y4613474D01*
X22250576Y4460584D01*
X22427376Y4289150D01*
X22605393Y4107165D01*
X22776871Y3922624D01*
X22934052Y3743518D01*
X23069178Y3577841D01*
X23105214Y3530674D01*
X23411477Y3087778D01*
X23679082Y2627635D01*
X23908004Y2150300D01*
X24098222Y1655827D01*
X24249712Y1144270D01*
X24362452Y615684D01*
X24386915Y465666D01*
X24401605Y365233D01*
X24413122Y274297D01*
X24421830Y185603D01*
X24428098Y91895D01*
X24432289Y-14083D01*
X24434772Y-139587D01*
X24435911Y-291873D01*
X24436072Y-478196D01*
X24436037Y-508000D01*
X24435384Y-703499D01*
X24433786Y-863622D01*
X24430900Y-995323D01*
X24426383Y-1105556D01*
X24419893Y-1201276D01*
X24411087Y-1289434D01*
X24399623Y-1376986D01*
X24390154Y-1439599D01*
X24338032Y-1739605D01*
X24279014Y-2014732D01*
X24208904Y-2282350D01*
X24123509Y-2559828D01*
X24109080Y-2603500D01*
X23926344Y-3092917D01*
X23712408Y-3555735D01*
X23465376Y-3995001D01*
X23183352Y-4413764D01*
X22864442Y-4815069D01*
X22506750Y-5201966D01*
X22470012Y-5238750D01*
X22076118Y-5602322D01*
X21663007Y-5928405D01*
X21230197Y-6217243D01*
X20777204Y-6469077D01*
X20303546Y-6684149D01*
X19808740Y-6862702D01*
X19292301Y-7004976D01*
X18753747Y-7111216D01*
X18722584Y-7116158D01*
X18589356Y-7132582D01*
X18422843Y-7146183D01*
X18232008Y-7156812D01*
X18025815Y-7164319D01*
X17813228Y-7168553D01*
X17603209Y-7169366D01*
X17404723Y-7166607D01*
X17226732Y-7160127D01*
X17078201Y-7149776D01*
X17028584Y-7144462D01*
X16488659Y-7058827D01*
X15968410Y-6935847D01*
X15466831Y-6775118D01*
X14982915Y-6576234D01*
X14515657Y-6338788D01*
X14064050Y-6062374D01*
X13695550Y-5799386D01*
X13545202Y-5678537D01*
X13378089Y-5533507D01*
X13203133Y-5372847D01*
X13029257Y-5205109D01*
X12865384Y-5038844D01*
X12720437Y-4882602D01*
X12632194Y-4780379D01*
X12306946Y-4355719D01*
X12019141Y-3912836D01*
X11769063Y-3453786D01*
X11556997Y-2980629D01*
X11383226Y-2495421D01*
X11248036Y-2000222D01*
X11151710Y-1497088D01*
X11094533Y-988077D01*
X11081606Y-614467D01*
X12176336Y-614467D01*
X12206989Y-1083627D01*
X12277079Y-1548275D01*
X12386165Y-2005987D01*
X12533806Y-2454340D01*
X12719560Y-2890908D01*
X12942986Y-3313270D01*
X13203643Y-3718999D01*
X13414402Y-3999816D01*
X13718349Y-4346832D01*
X14054420Y-4669165D01*
X14418661Y-4964278D01*
X14807117Y-5229635D01*
X15215834Y-5462700D01*
X15640858Y-5660935D01*
X16078234Y-5821804D01*
X16396021Y-5912430D01*
X16736192Y-5988466D01*
X17061853Y-6041175D01*
X17377834Y-6072629D01*
X17519903Y-6082359D01*
X17632327Y-6088634D01*
X17727651Y-6091478D01*
X17818418Y-6090912D01*
X17917174Y-6086959D01*
X18036463Y-6079641D01*
X18118667Y-6073959D01*
X18611580Y-6018796D01*
X19090662Y-5924080D01*
X19554571Y-5790415D01*
X20001969Y-5618409D01*
X20431516Y-5408668D01*
X20841872Y-5161798D01*
X21231698Y-4878406D01*
X21599654Y-4559098D01*
X21717000Y-4445000D01*
X22043284Y-4089604D01*
X22334847Y-3711977D01*
X22591146Y-3314568D01*
X22811640Y-2899827D01*
X22995785Y-2470205D01*
X23143039Y-2028152D01*
X23252859Y-1576117D01*
X23324703Y-1116552D01*
X23358028Y-651904D01*
X23352292Y-184626D01*
X23306952Y282833D01*
X23221465Y748024D01*
X23095289Y1208495D01*
X23018425Y1431712D01*
X22834780Y1870235D01*
X22614749Y2289750D01*
X22360560Y2688180D01*
X22074443Y3063448D01*
X21758627Y3413475D01*
X21415341Y3736184D01*
X21046813Y4029498D01*
X20655273Y4291340D01*
X20242949Y4519631D01*
X19812071Y4712294D01*
X19364866Y4867253D01*
X19317595Y4881096D01*
X18848912Y4994107D01*
X18372467Y5066091D01*
X17891273Y5096960D01*
X17408341Y5086627D01*
X16926683Y5035005D01*
X16535325Y4961923D01*
X16077879Y4838382D01*
X15635347Y4676400D01*
X15209828Y4477882D01*
X14803422Y4244736D01*
X14418228Y3978867D01*
X14056345Y3682181D01*
X13719872Y3356583D01*
X13410908Y3003981D01*
X13131553Y2626280D01*
X12883905Y2225386D01*
X12670065Y1803205D01*
X12492131Y1361644D01*
X12456925Y1258812D01*
X12325415Y795844D01*
X12235108Y327692D01*
X12185562Y-143219D01*
X12176336Y-614467D01*
X11081606Y-614467D01*
X11076789Y-475249D01*
X11098762Y39341D01*
X11160737Y553632D01*
X11262998Y1065569D01*
X11405830Y1573091D01*
X11589516Y2074143D01*
X11661771Y2243666D01*
X11852781Y2633435D01*
X12079845Y3022984D01*
X12337357Y3404583D01*
X12619711Y3770497D01*
X12921299Y4112994D01*
X13236516Y4424340D01*
X13254906Y4441104D01*
X13646325Y4770174D01*
X14061557Y5069612D01*
X14496131Y5336896D01*
X14945572Y5569501D01*
X15405409Y5764902D01*
X15871169Y5920576D01*
X15882455Y5923824D01*
X16405782Y6052427D01*
X16930882Y6139321D01*
X17455842Y6184878D01*
X17978751Y6189474D01*
X18497696Y6153482D01*
G36*
X-8421233Y22007736D02*
G01*
X-8362186Y22001107D01*
X-7846860Y21919991D01*
X-7340699Y21798277D01*
X-6846243Y21637176D01*
X-6366033Y21437902D01*
X-5902610Y21201668D01*
X-5458514Y20929686D01*
X-5036284Y20623170D01*
X-4638462Y20283333D01*
X-4511501Y20162646D01*
X-4137871Y19770689D01*
X-3802456Y19361404D01*
X-3504787Y18933866D01*
X-3244395Y18487151D01*
X-3020811Y18020332D01*
X-2833566Y17532485D01*
X-2682191Y17022684D01*
X-2566216Y16490004D01*
X-2525875Y16245416D01*
X-2509041Y16098233D01*
X-2496635Y15917807D01*
X-2488603Y15712995D01*
X-2484893Y15492649D01*
X-2485452Y15265624D01*
X-2490227Y15040774D01*
X-2499164Y14826952D01*
X-2512210Y14633014D01*
X-2529313Y14467813D01*
X-2536851Y14414500D01*
X-2640944Y13874115D01*
X-2782529Y13353379D01*
X-2961598Y12852307D01*
X-3178142Y12370918D01*
X-3432156Y11909225D01*
X-3723630Y11467247D01*
X-4052557Y11044999D01*
X-4209205Y10865400D01*
X-4565276Y10501480D01*
X-4951356Y10164652D01*
X-5363776Y9857051D01*
X-5798864Y9580810D01*
X-6252950Y9338065D01*
X-6722363Y9130949D01*
X-7203431Y8961595D01*
X-7692485Y8832139D01*
X-7715250Y8827150D01*
X-7907319Y8787312D01*
X-8081420Y8755872D01*
X-8247380Y8731818D01*
X-8415028Y8714138D01*
X-8594189Y8701822D01*
X-8794693Y8693856D01*
X-9026366Y8689231D01*
X-9059333Y8688822D01*
X-9215409Y8687332D01*
X-9360360Y8686588D01*
X-9487969Y8686571D01*
X-9592020Y8687263D01*
X-9666294Y8688645D01*
X-9704577Y8690698D01*
X-9704916Y8690743D01*
X-9753978Y8696957D01*
X-9831747Y8706220D01*
X-9924853Y8716954D01*
X-9969500Y8721989D01*
X-10458226Y8797535D01*
X-10945408Y8913868D01*
X-11427394Y9069496D01*
X-11900529Y9262926D01*
X-12361161Y9492664D01*
X-12805637Y9757217D01*
X-13229338Y10054360D01*
X-13361212Y10160470D01*
X-13512172Y10291967D01*
X-13674695Y10441469D01*
X-13841253Y10601596D01*
X-14004321Y10764966D01*
X-14156375Y10924199D01*
X-14289887Y11071913D01*
X-14394528Y11197166D01*
X-14709380Y11629308D01*
X-14986876Y12079794D01*
X-15226564Y12546556D01*
X-15427995Y13027526D01*
X-15590716Y13520635D01*
X-15714277Y14023813D01*
X-15798227Y14534992D01*
X-15842115Y15052103D01*
X-15845253Y15536385D01*
X-14742413Y15536385D01*
X-14742267Y15329422D01*
X-14737550Y15120207D01*
X-14728400Y14918682D01*
X-14714955Y14734789D01*
X-14697352Y14578472D01*
X-14693451Y14552083D01*
X-14597336Y14065335D01*
X-14462774Y13595652D01*
X-14290284Y13144061D01*
X-14080387Y12711591D01*
X-13833602Y12299268D01*
X-13550447Y11908119D01*
X-13231444Y11539173D01*
X-13103836Y11407903D01*
X-12743074Y11077436D01*
X-12359638Y10782084D01*
X-11955421Y10522704D01*
X-11532318Y10300149D01*
X-11092225Y10115273D01*
X-10637036Y9968930D01*
X-10168645Y9861976D01*
X-9688949Y9795264D01*
X-9493250Y9779972D01*
X-9372034Y9773454D01*
X-9263093Y9769911D01*
X-9155861Y9769480D01*
X-9039772Y9772296D01*
X-8904260Y9778495D01*
X-8738758Y9788212D01*
X-8710083Y9790020D01*
X-8258558Y9839612D01*
X-7813316Y9929585D01*
X-7376898Y10058152D01*
X-6951845Y10223526D01*
X-6540696Y10423922D01*
X-6145994Y10657552D01*
X-5770278Y10922629D01*
X-5416088Y11217367D01*
X-5085966Y11539979D01*
X-4782452Y11888679D01*
X-4508086Y12261680D01*
X-4265410Y12657196D01*
X-4064254Y13057208D01*
X-3884015Y13506771D01*
X-3744460Y13964170D01*
X-3645188Y14427033D01*
X-3585798Y14892988D01*
X-3565890Y15359664D01*
X-3585062Y15824689D01*
X-3642914Y16285691D01*
X-3739045Y16740298D01*
X-3873055Y17186138D01*
X-4044543Y17620841D01*
X-4253107Y18042034D01*
X-4498348Y18447345D01*
X-4779865Y18834402D01*
X-5097256Y19200835D01*
X-5103347Y19207281D01*
X-5452661Y19546199D01*
X-5826198Y19850592D01*
X-6223003Y20119968D01*
X-6642119Y20353833D01*
X-7082590Y20551694D01*
X-7543463Y20713059D01*
X-8023779Y20837434D01*
X-8396707Y20906222D01*
X-8510124Y20919349D01*
X-8656087Y20929729D01*
X-8825541Y20937297D01*
X-9009429Y20941986D01*
X-9198697Y20943732D01*
X-9384289Y20942469D01*
X-9557150Y20938132D01*
X-9708225Y20930655D01*
X-9828457Y20919974D01*
X-9853083Y20916731D01*
X-10261017Y20846219D01*
X-10641987Y20754704D01*
X-11007599Y20638634D01*
X-11369458Y20494460D01*
X-11631083Y20372784D01*
X-11991539Y20180066D01*
X-12327152Y19966788D01*
X-12645905Y19727105D01*
X-12955779Y19455167D01*
X-13166041Y19248282D01*
X-13493228Y18883883D01*
X-13782927Y18500298D01*
X-14035370Y18097047D01*
X-14250791Y17673647D01*
X-14429423Y17229615D01*
X-14571498Y16764469D01*
X-14677250Y16277727D01*
X-14714058Y16044333D01*
X-14728446Y15903783D01*
X-14737852Y15731153D01*
X-14742413Y15536385D01*
X-15845253Y15536385D01*
X-15845491Y15573078D01*
X-15807904Y16095847D01*
X-15728901Y16618341D01*
X-15652300Y16968349D01*
X-15506962Y17470954D01*
X-15323685Y17957043D01*
X-15104194Y18424813D01*
X-14850215Y18872464D01*
X-14563473Y19298192D01*
X-14245695Y19700197D01*
X-13898606Y20076676D01*
X-13523932Y20425827D01*
X-13123397Y20745849D01*
X-12698729Y21034940D01*
X-12251652Y21291297D01*
X-11783892Y21513119D01*
X-11297176Y21698604D01*
X-11046816Y21777284D01*
X-10529671Y21907192D01*
X-10009821Y21995084D01*
X-9485985Y22041068D01*
X-8956882Y22045250D01*
X-8421233Y22007736D01*
G37*
X-8421233Y22007736D02*
X-8362186Y22001107D01*
X-7846860Y21919991D01*
X-7340699Y21798277D01*
X-6846243Y21637176D01*
X-6366033Y21437902D01*
X-5902610Y21201668D01*
X-5458514Y20929686D01*
X-5036284Y20623170D01*
X-4638462Y20283333D01*
X-4511501Y20162646D01*
X-4137871Y19770689D01*
X-3802456Y19361404D01*
X-3504787Y18933866D01*
X-3244395Y18487151D01*
X-3020811Y18020332D01*
X-2833566Y17532485D01*
X-2682191Y17022684D01*
X-2566216Y16490004D01*
X-2525875Y16245416D01*
X-2509041Y16098233D01*
X-2496635Y15917807D01*
X-2488603Y15712995D01*
X-2484893Y15492649D01*
X-2485452Y15265624D01*
X-2490227Y15040774D01*
X-2499164Y14826952D01*
X-2512210Y14633014D01*
X-2529313Y14467813D01*
X-2536851Y14414500D01*
X-2640944Y13874115D01*
X-2782529Y13353379D01*
X-2961598Y12852307D01*
X-3178142Y12370918D01*
X-3432156Y11909225D01*
X-3723630Y11467247D01*
X-4052557Y11044999D01*
X-4209205Y10865400D01*
X-4565276Y10501480D01*
X-4951356Y10164652D01*
X-5363776Y9857051D01*
X-5798864Y9580810D01*
X-6252950Y9338065D01*
X-6722363Y9130949D01*
X-7203431Y8961595D01*
X-7692485Y8832139D01*
X-7715250Y8827150D01*
X-7907319Y8787312D01*
X-8081420Y8755872D01*
X-8247380Y8731818D01*
X-8415028Y8714138D01*
X-8594189Y8701822D01*
X-8794693Y8693856D01*
X-9026366Y8689231D01*
X-9059333Y8688822D01*
X-9215409Y8687332D01*
X-9360360Y8686588D01*
X-9487969Y8686571D01*
X-9592020Y8687263D01*
X-9666294Y8688645D01*
X-9704577Y8690698D01*
X-9704916Y8690743D01*
X-9753978Y8696957D01*
X-9831747Y8706220D01*
X-9924853Y8716954D01*
X-9969500Y8721989D01*
X-10458226Y8797535D01*
X-10945408Y8913868D01*
X-11427394Y9069496D01*
X-11900529Y9262926D01*
X-12361161Y9492664D01*
X-12805637Y9757217D01*
X-13229338Y10054360D01*
X-13361212Y10160470D01*
X-13512172Y10291967D01*
X-13674695Y10441469D01*
X-13841253Y10601596D01*
X-14004321Y10764966D01*
X-14156375Y10924199D01*
X-14289887Y11071913D01*
X-14394528Y11197166D01*
X-14709380Y11629308D01*
X-14986876Y12079794D01*
X-15226564Y12546556D01*
X-15427995Y13027526D01*
X-15590716Y13520635D01*
X-15714277Y14023813D01*
X-15798227Y14534992D01*
X-15842115Y15052103D01*
X-15845253Y15536385D01*
X-14742413Y15536385D01*
X-14742267Y15329422D01*
X-14737550Y15120207D01*
X-14728400Y14918682D01*
X-14714955Y14734789D01*
X-14697352Y14578472D01*
X-14693451Y14552083D01*
X-14597336Y14065335D01*
X-14462774Y13595652D01*
X-14290284Y13144061D01*
X-14080387Y12711591D01*
X-13833602Y12299268D01*
X-13550447Y11908119D01*
X-13231444Y11539173D01*
X-13103836Y11407903D01*
X-12743074Y11077436D01*
X-12359638Y10782084D01*
X-11955421Y10522704D01*
X-11532318Y10300149D01*
X-11092225Y10115273D01*
X-10637036Y9968930D01*
X-10168645Y9861976D01*
X-9688949Y9795264D01*
X-9493250Y9779972D01*
X-9372034Y9773454D01*
X-9263093Y9769911D01*
X-9155861Y9769480D01*
X-9039772Y9772296D01*
X-8904260Y9778495D01*
X-8738758Y9788212D01*
X-8710083Y9790020D01*
X-8258558Y9839612D01*
X-7813316Y9929585D01*
X-7376898Y10058152D01*
X-6951845Y10223526D01*
X-6540696Y10423922D01*
X-6145994Y10657552D01*
X-5770278Y10922629D01*
X-5416088Y11217367D01*
X-5085966Y11539979D01*
X-4782452Y11888679D01*
X-4508086Y12261680D01*
X-4265410Y12657196D01*
X-4064254Y13057208D01*
X-3884015Y13506771D01*
X-3744460Y13964170D01*
X-3645188Y14427033D01*
X-3585798Y14892988D01*
X-3565890Y15359664D01*
X-3585062Y15824689D01*
X-3642914Y16285691D01*
X-3739045Y16740298D01*
X-3873055Y17186138D01*
X-4044543Y17620841D01*
X-4253107Y18042034D01*
X-4498348Y18447345D01*
X-4779865Y18834402D01*
X-5097256Y19200835D01*
X-5103347Y19207281D01*
X-5452661Y19546199D01*
X-5826198Y19850592D01*
X-6223003Y20119968D01*
X-6642119Y20353833D01*
X-7082590Y20551694D01*
X-7543463Y20713059D01*
X-8023779Y20837434D01*
X-8396707Y20906222D01*
X-8510124Y20919349D01*
X-8656087Y20929729D01*
X-8825541Y20937297D01*
X-9009429Y20941986D01*
X-9198697Y20943732D01*
X-9384289Y20942469D01*
X-9557150Y20938132D01*
X-9708225Y20930655D01*
X-9828457Y20919974D01*
X-9853083Y20916731D01*
X-10261017Y20846219D01*
X-10641987Y20754704D01*
X-11007599Y20638634D01*
X-11369458Y20494460D01*
X-11631083Y20372784D01*
X-11991539Y20180066D01*
X-12327152Y19966788D01*
X-12645905Y19727105D01*
X-12955779Y19455167D01*
X-13166041Y19248282D01*
X-13493228Y18883883D01*
X-13782927Y18500298D01*
X-14035370Y18097047D01*
X-14250791Y17673647D01*
X-14429423Y17229615D01*
X-14571498Y16764469D01*
X-14677250Y16277727D01*
X-14714058Y16044333D01*
X-14728446Y15903783D01*
X-14737852Y15731153D01*
X-14742413Y15536385D01*
X-15845253Y15536385D01*
X-15845491Y15573078D01*
X-15807904Y16095847D01*
X-15728901Y16618341D01*
X-15652300Y16968349D01*
X-15506962Y17470954D01*
X-15323685Y17957043D01*
X-15104194Y18424813D01*
X-14850215Y18872464D01*
X-14563473Y19298192D01*
X-14245695Y19700197D01*
X-13898606Y20076676D01*
X-13523932Y20425827D01*
X-13123397Y20745849D01*
X-12698729Y21034940D01*
X-12251652Y21291297D01*
X-11783892Y21513119D01*
X-11297176Y21698604D01*
X-11046816Y21777284D01*
X-10529671Y21907192D01*
X-10009821Y21995084D01*
X-9485985Y22041068D01*
X-8956882Y22045250D01*
X-8421233Y22007736D01*
G36*
X9360543Y22048762D02*
G01*
X9582016Y22039964D01*
X9789967Y22026885D01*
X9973871Y22009802D01*
X10085917Y21995112D01*
X10504146Y21920189D01*
X10894881Y21827311D01*
X11270322Y21713240D01*
X11588750Y21596321D01*
X12071506Y21382941D01*
X12532537Y21134187D01*
X12970253Y20851879D01*
X13383063Y20537838D01*
X13769376Y20193884D01*
X14127603Y19821836D01*
X14456152Y19423514D01*
X14753432Y19000740D01*
X15017854Y18555332D01*
X15247825Y18089111D01*
X15441756Y17603897D01*
X15598056Y17101510D01*
X15631864Y16970204D01*
X15736262Y16460195D01*
X15800027Y15944419D01*
X15823553Y15425894D01*
X15807236Y14907634D01*
X15751470Y14392657D01*
X15656648Y13883980D01*
X15523167Y13384619D01*
X15351419Y12897591D01*
X15141801Y12425911D01*
X15002853Y12160250D01*
X14727490Y11705223D01*
X14421343Y11277760D01*
X14086358Y10878921D01*
X13724479Y10509764D01*
X13337652Y10171350D01*
X12927821Y9864738D01*
X12496929Y9590987D01*
X12046923Y9351157D01*
X11579747Y9146308D01*
X11097345Y8977499D01*
X10601662Y8845789D01*
X10094643Y8752238D01*
X9578231Y8697906D01*
X9054373Y8683852D01*
X8653171Y8700709D01*
X8158823Y8755875D01*
X7663958Y8849426D01*
X7175169Y8979421D01*
X6699049Y9143920D01*
X6242191Y9340981D01*
X5926667Y9503162D01*
X5497182Y9762998D01*
X5082655Y10058869D01*
X4688151Y10386266D01*
X4318738Y10740683D01*
X3979481Y11117615D01*
X3688985Y11493500D01*
X3398320Y11937095D01*
X3144993Y12400552D01*
X2929135Y12883542D01*
X2750880Y13385734D01*
X2610357Y13906799D01*
X2507699Y14446406D01*
X2504525Y14467416D01*
X2488466Y14607590D01*
X2476340Y14781295D01*
X2468110Y14979918D01*
X2463740Y15194844D01*
X2463448Y15314235D01*
X3547017Y15314235D01*
X3570356Y14856147D01*
X3631371Y14400346D01*
X3730245Y13949307D01*
X3867163Y13505508D01*
X4042309Y13071427D01*
X4255867Y12649540D01*
X4491945Y12266083D01*
X4675076Y12012459D01*
X4883364Y11756122D01*
X5107691Y11507056D01*
X5338940Y11275240D01*
X5567996Y11070657D01*
X5630334Y11019743D01*
X5992937Y10754375D01*
X6380303Y10516372D01*
X6786814Y10308105D01*
X7206854Y10131946D01*
X7634805Y9990265D01*
X8065049Y9885433D01*
X8466667Y9822596D01*
X8564043Y9811607D01*
X8653950Y9801403D01*
X8722221Y9793594D01*
X8741834Y9791322D01*
X8812706Y9786858D01*
X8917224Y9785223D01*
X9046818Y9786114D01*
X9192916Y9789231D01*
X9346948Y9794271D01*
X9500342Y9800933D01*
X9644528Y9808915D01*
X9770934Y9817916D01*
X9870989Y9827633D01*
X9906000Y9832291D01*
X10393128Y9926715D01*
X10864018Y10059417D01*
X11316993Y10229250D01*
X11750376Y10435064D01*
X12162493Y10675713D01*
X12551666Y10950049D01*
X12916218Y11256924D01*
X13254475Y11595190D01*
X13564759Y11963700D01*
X13845394Y12361305D01*
X14018672Y12648130D01*
X14232761Y13069228D01*
X14409256Y13507578D01*
X14547631Y13959983D01*
X14647358Y14423248D01*
X14707911Y14894175D01*
X14728763Y15369569D01*
X14709386Y15846231D01*
X14649255Y16320967D01*
X14636155Y16394703D01*
X14528724Y16860556D01*
X14380861Y17316120D01*
X14193755Y17758821D01*
X13968599Y18186082D01*
X13706584Y18595330D01*
X13476223Y18901833D01*
X13382886Y19010982D01*
X13265004Y19138332D01*
X13130786Y19275879D01*
X12988439Y19415619D01*
X12846169Y19549548D01*
X12712184Y19669660D01*
X12594691Y19767951D01*
X12562269Y19793220D01*
X12154296Y20079263D01*
X11733879Y20324993D01*
X11299795Y20530918D01*
X10850822Y20697545D01*
X10385737Y20825378D01*
X9903317Y20914927D01*
X9831917Y20924755D01*
X9646513Y20943479D01*
X9433184Y20955569D01*
X9204387Y20961016D01*
X8972577Y20959814D01*
X8750211Y20951956D01*
X8549745Y20937433D01*
X8445500Y20925564D01*
X7955673Y20839138D01*
X7482240Y20713988D01*
X7026352Y20550713D01*
X6589162Y20349914D01*
X6171820Y20112191D01*
X5775479Y19838144D01*
X5401290Y19528373D01*
X5050404Y19183478D01*
X5002000Y19131105D01*
X4694541Y18763928D01*
X4423101Y18376741D01*
X4187864Y17972021D01*
X3989014Y17552245D01*
X3826736Y17119891D01*
X3701213Y16677435D01*
X3612629Y16227356D01*
X3561169Y15772130D01*
X3547017Y15314235D01*
X2463448Y15314235D01*
X2463194Y15417459D01*
X2466435Y15639148D01*
X2473425Y15851297D01*
X2484129Y16045291D01*
X2498510Y16212516D01*
X2512404Y16319766D01*
X2617239Y16859787D01*
X2757163Y17376449D01*
X2932430Y17870442D01*
X3143291Y18342458D01*
X3389998Y18793187D01*
X3450822Y18892295D01*
X3753004Y19335905D01*
X4084750Y19750188D01*
X4444316Y20134069D01*
X4829957Y20486473D01*
X5239930Y20806326D01*
X5672491Y21092552D01*
X6125897Y21344077D01*
X6598402Y21559825D01*
X7088265Y21738721D01*
X7593740Y21879691D01*
X8113084Y21981660D01*
X8549974Y22035591D01*
X8720264Y22046693D01*
X8919140Y22052403D01*
X9136075Y22053001D01*
X9360543Y22048762D01*
G37*
X9360543Y22048762D02*
X9582016Y22039964D01*
X9789967Y22026885D01*
X9973871Y22009802D01*
X10085917Y21995112D01*
X10504146Y21920189D01*
X10894881Y21827311D01*
X11270322Y21713240D01*
X11588750Y21596321D01*
X12071506Y21382941D01*
X12532537Y21134187D01*
X12970253Y20851879D01*
X13383063Y20537838D01*
X13769376Y20193884D01*
X14127603Y19821836D01*
X14456152Y19423514D01*
X14753432Y19000740D01*
X15017854Y18555332D01*
X15247825Y18089111D01*
X15441756Y17603897D01*
X15598056Y17101510D01*
X15631864Y16970204D01*
X15736262Y16460195D01*
X15800027Y15944419D01*
X15823553Y15425894D01*
X15807236Y14907634D01*
X15751470Y14392657D01*
X15656648Y13883980D01*
X15523167Y13384619D01*
X15351419Y12897591D01*
X15141801Y12425911D01*
X15002853Y12160250D01*
X14727490Y11705223D01*
X14421343Y11277760D01*
X14086358Y10878921D01*
X13724479Y10509764D01*
X13337652Y10171350D01*
X12927821Y9864738D01*
X12496929Y9590987D01*
X12046923Y9351157D01*
X11579747Y9146308D01*
X11097345Y8977499D01*
X10601662Y8845789D01*
X10094643Y8752238D01*
X9578231Y8697906D01*
X9054373Y8683852D01*
X8653171Y8700709D01*
X8158823Y8755875D01*
X7663958Y8849426D01*
X7175169Y8979421D01*
X6699049Y9143920D01*
X6242191Y9340981D01*
X5926667Y9503162D01*
X5497182Y9762998D01*
X5082655Y10058869D01*
X4688151Y10386266D01*
X4318738Y10740683D01*
X3979481Y11117615D01*
X3688985Y11493500D01*
X3398320Y11937095D01*
X3144993Y12400552D01*
X2929135Y12883542D01*
X2750880Y13385734D01*
X2610357Y13906799D01*
X2507699Y14446406D01*
X2504525Y14467416D01*
X2488466Y14607590D01*
X2476340Y14781295D01*
X2468110Y14979918D01*
X2463740Y15194844D01*
X2463448Y15314235D01*
X3547017Y15314235D01*
X3570356Y14856147D01*
X3631371Y14400346D01*
X3730245Y13949307D01*
X3867163Y13505508D01*
X4042309Y13071427D01*
X4255867Y12649540D01*
X4491945Y12266083D01*
X4675076Y12012459D01*
X4883364Y11756122D01*
X5107691Y11507056D01*
X5338940Y11275240D01*
X5567996Y11070657D01*
X5630334Y11019743D01*
X5992937Y10754375D01*
X6380303Y10516372D01*
X6786814Y10308105D01*
X7206854Y10131946D01*
X7634805Y9990265D01*
X8065049Y9885433D01*
X8466667Y9822596D01*
X8564043Y9811607D01*
X8653950Y9801403D01*
X8722221Y9793594D01*
X8741834Y9791322D01*
X8812706Y9786858D01*
X8917224Y9785223D01*
X9046818Y9786114D01*
X9192916Y9789231D01*
X9346948Y9794271D01*
X9500342Y9800933D01*
X9644528Y9808915D01*
X9770934Y9817916D01*
X9870989Y9827633D01*
X9906000Y9832291D01*
X10393128Y9926715D01*
X10864018Y10059417D01*
X11316993Y10229250D01*
X11750376Y10435064D01*
X12162493Y10675713D01*
X12551666Y10950049D01*
X12916218Y11256924D01*
X13254475Y11595190D01*
X13564759Y11963700D01*
X13845394Y12361305D01*
X14018672Y12648130D01*
X14232761Y13069228D01*
X14409256Y13507578D01*
X14547631Y13959983D01*
X14647358Y14423248D01*
X14707911Y14894175D01*
X14728763Y15369569D01*
X14709386Y15846231D01*
X14649255Y16320967D01*
X14636155Y16394703D01*
X14528724Y16860556D01*
X14380861Y17316120D01*
X14193755Y17758821D01*
X13968599Y18186082D01*
X13706584Y18595330D01*
X13476223Y18901833D01*
X13382886Y19010982D01*
X13265004Y19138332D01*
X13130786Y19275879D01*
X12988439Y19415619D01*
X12846169Y19549548D01*
X12712184Y19669660D01*
X12594691Y19767951D01*
X12562269Y19793220D01*
X12154296Y20079263D01*
X11733879Y20324993D01*
X11299795Y20530918D01*
X10850822Y20697545D01*
X10385737Y20825378D01*
X9903317Y20914927D01*
X9831917Y20924755D01*
X9646513Y20943479D01*
X9433184Y20955569D01*
X9204387Y20961016D01*
X8972577Y20959814D01*
X8750211Y20951956D01*
X8549745Y20937433D01*
X8445500Y20925564D01*
X7955673Y20839138D01*
X7482240Y20713988D01*
X7026352Y20550713D01*
X6589162Y20349914D01*
X6171820Y20112191D01*
X5775479Y19838144D01*
X5401290Y19528373D01*
X5050404Y19183478D01*
X5002000Y19131105D01*
X4694541Y18763928D01*
X4423101Y18376741D01*
X4187864Y17972021D01*
X3989014Y17552245D01*
X3826736Y17119891D01*
X3701213Y16677435D01*
X3612629Y16227356D01*
X3561169Y15772130D01*
X3547017Y15314235D01*
X2463448Y15314235D01*
X2463194Y15417459D01*
X2466435Y15639148D01*
X2473425Y15851297D01*
X2484129Y16045291D01*
X2498510Y16212516D01*
X2512404Y16319766D01*
X2617239Y16859787D01*
X2757163Y17376449D01*
X2932430Y17870442D01*
X3143291Y18342458D01*
X3389998Y18793187D01*
X3450822Y18892295D01*
X3753004Y19335905D01*
X4084750Y19750188D01*
X4444316Y20134069D01*
X4829957Y20486473D01*
X5239930Y20806326D01*
X5672491Y21092552D01*
X6125897Y21344077D01*
X6598402Y21559825D01*
X7088265Y21738721D01*
X7593740Y21879691D01*
X8113084Y21981660D01*
X8549974Y22035591D01*
X8720264Y22046693D01*
X8919140Y22052403D01*
X9136075Y22053001D01*
X9360543Y22048762D01*
G36*
X-8919264Y-10894509D02*
G01*
X-8739361Y-10900970D01*
X-8585807Y-10912214D01*
X-8450701Y-10928667D01*
X-8445500Y-10929450D01*
X-7987706Y-11019516D01*
X-7545814Y-11147908D01*
X-7121645Y-11313549D01*
X-6717024Y-11515361D01*
X-6333773Y-11752267D01*
X-5973714Y-12023190D01*
X-5638670Y-12327053D01*
X-5330465Y-12662777D01*
X-5169170Y-12865761D01*
X-4911111Y-13242911D01*
X-4690109Y-13639484D01*
X-4506991Y-14053009D01*
X-4362586Y-14481013D01*
X-4257718Y-14921023D01*
X-4193215Y-15370569D01*
X-4169904Y-15827176D01*
X-4169833Y-15853834D01*
X-4190597Y-16308596D01*
X-4252089Y-16755800D01*
X-4353108Y-17192944D01*
X-4492454Y-17617529D01*
X-4668927Y-18027052D01*
X-4881327Y-18419014D01*
X-5128452Y-18790914D01*
X-5409103Y-19140250D01*
X-5722080Y-19464522D01*
X-6032500Y-19734546D01*
X-6294548Y-19927726D01*
X-6584651Y-20112832D01*
X-6889722Y-20282492D01*
X-7196674Y-20429336D01*
X-7440083Y-20527364D01*
X-7653824Y-20598002D01*
X-7892753Y-20664422D01*
X-8139728Y-20722315D01*
X-8377603Y-20767374D01*
X-8424333Y-20774732D01*
X-8510734Y-20785042D01*
X-8625100Y-20794712D01*
X-8758828Y-20803411D01*
X-8903314Y-20810810D01*
X-9049953Y-20816576D01*
X-9190141Y-20820381D01*
X-9315274Y-20821892D01*
X-9416749Y-20820780D01*
X-9485960Y-20816714D01*
X-9493250Y-20815798D01*
X-9542306Y-20809461D01*
X-9620067Y-20800042D01*
X-9713164Y-20789145D01*
X-9757833Y-20784036D01*
X-10186386Y-20714362D01*
X-10606754Y-20604521D01*
X-11016175Y-20456334D01*
X-11411888Y-20271620D01*
X-11791132Y-20052196D01*
X-12151146Y-19799881D01*
X-12489168Y-19516495D01*
X-12802436Y-19203857D01*
X-13088189Y-18863785D01*
X-13343667Y-18498098D01*
X-13421638Y-18370796D01*
X-13632786Y-17973255D01*
X-13805204Y-17561631D01*
X-13938892Y-17138781D01*
X-13990491Y-16904456D01*
X-10675648Y-16904456D01*
X-10675292Y-16972196D01*
X-10650309Y-17198725D01*
X-10586892Y-17423432D01*
X-10488636Y-17639419D01*
X-10359136Y-17839787D01*
X-10201986Y-18017637D01*
X-10072711Y-18128651D01*
X-9944709Y-18214586D01*
X-9800527Y-18293424D01*
X-9656068Y-18357215D01*
X-9540082Y-18394909D01*
X-9440333Y-18420026D01*
X-9440333Y-18774216D01*
X-9439998Y-18905585D01*
X-9438446Y-19001913D01*
X-9434853Y-19070490D01*
X-9428398Y-19118607D01*
X-9418260Y-19153554D01*
X-9403615Y-19182621D01*
X-9392286Y-19200328D01*
X-9314954Y-19282396D01*
X-9220026Y-19330390D01*
X-9116012Y-19342020D01*
X-9011427Y-19314996D01*
X-8995503Y-19307088D01*
X-8937113Y-19262588D01*
X-8884442Y-19201239D01*
X-8874473Y-19185380D01*
X-8856648Y-19151219D01*
X-8843935Y-19115704D01*
X-8835470Y-19071129D01*
X-8830389Y-19009790D01*
X-8827829Y-18923981D01*
X-8826927Y-18805999D01*
X-8826848Y-18760460D01*
X-8826500Y-18418004D01*
X-8704791Y-18382829D01*
X-8483835Y-18297841D01*
X-8277340Y-18174347D01*
X-8083303Y-18011126D01*
X-8064169Y-17992233D01*
X-7919313Y-17832700D01*
X-7807140Y-17673976D01*
X-7720006Y-17503994D01*
X-7668279Y-17367250D01*
X-7645010Y-17293158D01*
X-7629116Y-17227756D01*
X-7619229Y-17159757D01*
X-7613980Y-17077874D01*
X-7612000Y-16970820D01*
X-7611807Y-16901584D01*
X-7612630Y-16777013D01*
X-7616012Y-16683471D01*
X-7623321Y-16609673D01*
X-7635925Y-16544332D01*
X-7655194Y-16476160D01*
X-7668279Y-16435917D01*
X-7742053Y-16250633D01*
X-7835713Y-16084718D01*
X-7956785Y-15926300D01*
X-8064500Y-15810873D01*
X-8162415Y-15716898D01*
X-8247622Y-15646463D01*
X-8333337Y-15589646D01*
X-8424333Y-15540707D01*
X-8578016Y-15473468D01*
X-8738179Y-15419758D01*
X-8891985Y-15383162D01*
X-9026597Y-15367264D01*
X-9046844Y-15366878D01*
X-9263946Y-15348566D01*
X-9461218Y-15295132D01*
X-9636152Y-15208058D01*
X-9786241Y-15088824D01*
X-9908977Y-14938913D01*
X-9976752Y-14817628D01*
X-10033801Y-14648779D01*
X-10054548Y-14469483D01*
X-10040736Y-14287503D01*
X-9994109Y-14110602D01*
X-9916407Y-13946544D01*
X-9809375Y-13803090D01*
X-9732825Y-13730975D01*
X-9573766Y-13626990D01*
X-9397056Y-13557773D01*
X-9210172Y-13524239D01*
X-9020591Y-13527306D01*
X-8835789Y-13567889D01*
X-8734537Y-13608598D01*
X-8623557Y-13676229D01*
X-8511147Y-13769704D01*
X-8410151Y-13876635D01*
X-8333414Y-13984635D01*
X-8321047Y-14007340D01*
X-8277922Y-14110059D01*
X-8242298Y-14228391D01*
X-8219059Y-14343681D01*
X-8212666Y-14421357D01*
X-8193023Y-14528385D01*
X-8139097Y-14624193D01*
X-8058398Y-14696701D01*
X-8032754Y-14710832D01*
X-7970434Y-14736706D01*
X-7917796Y-14751400D01*
X-7904359Y-14752702D01*
X-7826296Y-14735521D01*
X-7743039Y-14692305D01*
X-7671428Y-14633163D01*
X-7641449Y-14594875D01*
X-7618378Y-14553400D01*
X-7604987Y-14513148D01*
X-7599678Y-14462298D01*
X-7600855Y-14389032D01*
X-7604478Y-14321458D01*
X-7639873Y-14080847D01*
X-7716362Y-13846990D01*
X-7832927Y-13622329D01*
X-7981521Y-13417651D01*
X-8103688Y-13294629D01*
X-8255103Y-13177553D01*
X-8422739Y-13074621D01*
X-8593572Y-12994032D01*
X-8721984Y-12951617D01*
X-8826500Y-12924830D01*
X-8826848Y-12680124D01*
X-8827966Y-12569997D01*
X-8831931Y-12492103D01*
X-8840208Y-12436366D01*
X-8854265Y-12392707D01*
X-8874473Y-12352954D01*
X-8945893Y-12265666D01*
X-9036359Y-12212307D01*
X-9138089Y-12195317D01*
X-9243301Y-12217138D01*
X-9269495Y-12229075D01*
X-9330176Y-12264916D01*
X-9373877Y-12305956D01*
X-9403721Y-12359876D01*
X-9422832Y-12434356D01*
X-9434333Y-12537077D01*
X-9440333Y-12649177D01*
X-9450916Y-12913003D01*
X-9626123Y-12973604D01*
X-9783772Y-13035394D01*
X-9919773Y-13106719D01*
X-10046869Y-13195732D01*
X-10177801Y-13310587D01*
X-10225825Y-13357339D01*
X-10314754Y-13448959D01*
X-10380990Y-13526941D01*
X-10434404Y-13604694D01*
X-10484868Y-13695631D01*
X-10506261Y-13738339D01*
X-10580242Y-13901920D01*
X-10630436Y-14047990D01*
X-10660428Y-14191333D01*
X-10673804Y-14346732D01*
X-10675382Y-14435667D01*
X-10655229Y-14686269D01*
X-10596477Y-14924738D01*
X-10501964Y-15147614D01*
X-10374525Y-15351437D01*
X-10216998Y-15532747D01*
X-10032219Y-15688084D01*
X-9823025Y-15813989D01*
X-9592253Y-15907001D01*
X-9435934Y-15947385D01*
X-9340148Y-15964103D01*
X-9244262Y-15976096D01*
X-9168641Y-15980830D01*
X-9167101Y-15980834D01*
X-8967266Y-16000402D01*
X-8782737Y-16056933D01*
X-8617435Y-16147167D01*
X-8475282Y-16267843D01*
X-8360201Y-16415700D01*
X-8276111Y-16587478D01*
X-8230179Y-16759790D01*
X-8218303Y-16949026D01*
X-8245925Y-17133219D01*
X-8310212Y-17306892D01*
X-8408333Y-17464573D01*
X-8537453Y-17600784D01*
X-8694741Y-17710053D01*
X-8731912Y-17729473D01*
X-8910171Y-17794834D01*
X-9097406Y-17822017D01*
X-9286128Y-17811620D01*
X-9468845Y-17764241D01*
X-9638069Y-17680478D01*
X-9677246Y-17654025D01*
X-9819377Y-17529071D01*
X-9928116Y-17380789D01*
X-10004672Y-17206980D01*
X-10050254Y-17005446D01*
X-10055179Y-16966789D01*
X-10072992Y-16853909D01*
X-10100270Y-16771744D01*
X-10142954Y-16708823D01*
X-10206989Y-16653673D01*
X-10223285Y-16642292D01*
X-10316625Y-16602006D01*
X-10414884Y-16600858D01*
X-10511704Y-16637182D01*
X-10600725Y-16709314D01*
X-10634304Y-16749946D01*
X-10657902Y-16789691D01*
X-10670900Y-16836944D01*
X-10675648Y-16904456D01*
X-13990491Y-16904456D01*
X-14033848Y-16707565D01*
X-14090073Y-16270842D01*
X-14107567Y-15831471D01*
X-14086328Y-15392311D01*
X-14026357Y-14956222D01*
X-13927654Y-14526062D01*
X-13790217Y-14104691D01*
X-13614047Y-13694968D01*
X-13422254Y-13338333D01*
X-13170161Y-12953677D01*
X-12887046Y-12596677D01*
X-12574962Y-12268876D01*
X-12235961Y-11971816D01*
X-11872097Y-11707040D01*
X-11485421Y-11476092D01*
X-11077985Y-11280515D01*
X-10651844Y-11121851D01*
X-10363058Y-11038543D01*
X-10144813Y-10986405D01*
X-9943606Y-10947369D01*
X-9746979Y-10919956D01*
X-9542475Y-10902684D01*
X-9317635Y-10894074D01*
X-9133416Y-10892406D01*
X-8919264Y-10894509D01*
G37*
X-8919264Y-10894509D02*
X-8739361Y-10900970D01*
X-8585807Y-10912214D01*
X-8450701Y-10928667D01*
X-8445500Y-10929450D01*
X-7987706Y-11019516D01*
X-7545814Y-11147908D01*
X-7121645Y-11313549D01*
X-6717024Y-11515361D01*
X-6333773Y-11752267D01*
X-5973714Y-12023190D01*
X-5638670Y-12327053D01*
X-5330465Y-12662777D01*
X-5169170Y-12865761D01*
X-4911111Y-13242911D01*
X-4690109Y-13639484D01*
X-4506991Y-14053009D01*
X-4362586Y-14481013D01*
X-4257718Y-14921023D01*
X-4193215Y-15370569D01*
X-4169904Y-15827176D01*
X-4169833Y-15853834D01*
X-4190597Y-16308596D01*
X-4252089Y-16755800D01*
X-4353108Y-17192944D01*
X-4492454Y-17617529D01*
X-4668927Y-18027052D01*
X-4881327Y-18419014D01*
X-5128452Y-18790914D01*
X-5409103Y-19140250D01*
X-5722080Y-19464522D01*
X-6032500Y-19734546D01*
X-6294548Y-19927726D01*
X-6584651Y-20112832D01*
X-6889722Y-20282492D01*
X-7196674Y-20429336D01*
X-7440083Y-20527364D01*
X-7653824Y-20598002D01*
X-7892753Y-20664422D01*
X-8139728Y-20722315D01*
X-8377603Y-20767374D01*
X-8424333Y-20774732D01*
X-8510734Y-20785042D01*
X-8625100Y-20794712D01*
X-8758828Y-20803411D01*
X-8903314Y-20810810D01*
X-9049953Y-20816576D01*
X-9190141Y-20820381D01*
X-9315274Y-20821892D01*
X-9416749Y-20820780D01*
X-9485960Y-20816714D01*
X-9493250Y-20815798D01*
X-9542306Y-20809461D01*
X-9620067Y-20800042D01*
X-9713164Y-20789145D01*
X-9757833Y-20784036D01*
X-10186386Y-20714362D01*
X-10606754Y-20604521D01*
X-11016175Y-20456334D01*
X-11411888Y-20271620D01*
X-11791132Y-20052196D01*
X-12151146Y-19799881D01*
X-12489168Y-19516495D01*
X-12802436Y-19203857D01*
X-13088189Y-18863785D01*
X-13343667Y-18498098D01*
X-13421638Y-18370796D01*
X-13632786Y-17973255D01*
X-13805204Y-17561631D01*
X-13938892Y-17138781D01*
X-13990491Y-16904456D01*
X-10675648Y-16904456D01*
X-10675292Y-16972196D01*
X-10650309Y-17198725D01*
X-10586892Y-17423432D01*
X-10488636Y-17639419D01*
X-10359136Y-17839787D01*
X-10201986Y-18017637D01*
X-10072711Y-18128651D01*
X-9944709Y-18214586D01*
X-9800527Y-18293424D01*
X-9656068Y-18357215D01*
X-9540082Y-18394909D01*
X-9440333Y-18420026D01*
X-9440333Y-18774216D01*
X-9439998Y-18905585D01*
X-9438446Y-19001913D01*
X-9434853Y-19070490D01*
X-9428398Y-19118607D01*
X-9418260Y-19153554D01*
X-9403615Y-19182621D01*
X-9392286Y-19200328D01*
X-9314954Y-19282396D01*
X-9220026Y-19330390D01*
X-9116012Y-19342020D01*
X-9011427Y-19314996D01*
X-8995503Y-19307088D01*
X-8937113Y-19262588D01*
X-8884442Y-19201239D01*
X-8874473Y-19185380D01*
X-8856648Y-19151219D01*
X-8843935Y-19115704D01*
X-8835470Y-19071129D01*
X-8830389Y-19009790D01*
X-8827829Y-18923981D01*
X-8826927Y-18805999D01*
X-8826848Y-18760460D01*
X-8826500Y-18418004D01*
X-8704791Y-18382829D01*
X-8483835Y-18297841D01*
X-8277340Y-18174347D01*
X-8083303Y-18011126D01*
X-8064169Y-17992233D01*
X-7919313Y-17832700D01*
X-7807140Y-17673976D01*
X-7720006Y-17503994D01*
X-7668279Y-17367250D01*
X-7645010Y-17293158D01*
X-7629116Y-17227756D01*
X-7619229Y-17159757D01*
X-7613980Y-17077874D01*
X-7612000Y-16970820D01*
X-7611807Y-16901584D01*
X-7612630Y-16777013D01*
X-7616012Y-16683471D01*
X-7623321Y-16609673D01*
X-7635925Y-16544332D01*
X-7655194Y-16476160D01*
X-7668279Y-16435917D01*
X-7742053Y-16250633D01*
X-7835713Y-16084718D01*
X-7956785Y-15926300D01*
X-8064500Y-15810873D01*
X-8162415Y-15716898D01*
X-8247622Y-15646463D01*
X-8333337Y-15589646D01*
X-8424333Y-15540707D01*
X-8578016Y-15473468D01*
X-8738179Y-15419758D01*
X-8891985Y-15383162D01*
X-9026597Y-15367264D01*
X-9046844Y-15366878D01*
X-9263946Y-15348566D01*
X-9461218Y-15295132D01*
X-9636152Y-15208058D01*
X-9786241Y-15088824D01*
X-9908977Y-14938913D01*
X-9976752Y-14817628D01*
X-10033801Y-14648779D01*
X-10054548Y-14469483D01*
X-10040736Y-14287503D01*
X-9994109Y-14110602D01*
X-9916407Y-13946544D01*
X-9809375Y-13803090D01*
X-9732825Y-13730975D01*
X-9573766Y-13626990D01*
X-9397056Y-13557773D01*
X-9210172Y-13524239D01*
X-9020591Y-13527306D01*
X-8835789Y-13567889D01*
X-8734537Y-13608598D01*
X-8623557Y-13676229D01*
X-8511147Y-13769704D01*
X-8410151Y-13876635D01*
X-8333414Y-13984635D01*
X-8321047Y-14007340D01*
X-8277922Y-14110059D01*
X-8242298Y-14228391D01*
X-8219059Y-14343681D01*
X-8212666Y-14421357D01*
X-8193023Y-14528385D01*
X-8139097Y-14624193D01*
X-8058398Y-14696701D01*
X-8032754Y-14710832D01*
X-7970434Y-14736706D01*
X-7917796Y-14751400D01*
X-7904359Y-14752702D01*
X-7826296Y-14735521D01*
X-7743039Y-14692305D01*
X-7671428Y-14633163D01*
X-7641449Y-14594875D01*
X-7618378Y-14553400D01*
X-7604987Y-14513148D01*
X-7599678Y-14462298D01*
X-7600855Y-14389032D01*
X-7604478Y-14321458D01*
X-7639873Y-14080847D01*
X-7716362Y-13846990D01*
X-7832927Y-13622329D01*
X-7981521Y-13417651D01*
X-8103688Y-13294629D01*
X-8255103Y-13177553D01*
X-8422739Y-13074621D01*
X-8593572Y-12994032D01*
X-8721984Y-12951617D01*
X-8826500Y-12924830D01*
X-8826848Y-12680124D01*
X-8827966Y-12569997D01*
X-8831931Y-12492103D01*
X-8840208Y-12436366D01*
X-8854265Y-12392707D01*
X-8874473Y-12352954D01*
X-8945893Y-12265666D01*
X-9036359Y-12212307D01*
X-9138089Y-12195317D01*
X-9243301Y-12217138D01*
X-9269495Y-12229075D01*
X-9330176Y-12264916D01*
X-9373877Y-12305956D01*
X-9403721Y-12359876D01*
X-9422832Y-12434356D01*
X-9434333Y-12537077D01*
X-9440333Y-12649177D01*
X-9450916Y-12913003D01*
X-9626123Y-12973604D01*
X-9783772Y-13035394D01*
X-9919773Y-13106719D01*
X-10046869Y-13195732D01*
X-10177801Y-13310587D01*
X-10225825Y-13357339D01*
X-10314754Y-13448959D01*
X-10380990Y-13526941D01*
X-10434404Y-13604694D01*
X-10484868Y-13695631D01*
X-10506261Y-13738339D01*
X-10580242Y-13901920D01*
X-10630436Y-14047990D01*
X-10660428Y-14191333D01*
X-10673804Y-14346732D01*
X-10675382Y-14435667D01*
X-10655229Y-14686269D01*
X-10596477Y-14924738D01*
X-10501964Y-15147614D01*
X-10374525Y-15351437D01*
X-10216998Y-15532747D01*
X-10032219Y-15688084D01*
X-9823025Y-15813989D01*
X-9592253Y-15907001D01*
X-9435934Y-15947385D01*
X-9340148Y-15964103D01*
X-9244262Y-15976096D01*
X-9168641Y-15980830D01*
X-9167101Y-15980834D01*
X-8967266Y-16000402D01*
X-8782737Y-16056933D01*
X-8617435Y-16147167D01*
X-8475282Y-16267843D01*
X-8360201Y-16415700D01*
X-8276111Y-16587478D01*
X-8230179Y-16759790D01*
X-8218303Y-16949026D01*
X-8245925Y-17133219D01*
X-8310212Y-17306892D01*
X-8408333Y-17464573D01*
X-8537453Y-17600784D01*
X-8694741Y-17710053D01*
X-8731912Y-17729473D01*
X-8910171Y-17794834D01*
X-9097406Y-17822017D01*
X-9286128Y-17811620D01*
X-9468845Y-17764241D01*
X-9638069Y-17680478D01*
X-9677246Y-17654025D01*
X-9819377Y-17529071D01*
X-9928116Y-17380789D01*
X-10004672Y-17206980D01*
X-10050254Y-17005446D01*
X-10055179Y-16966789D01*
X-10072992Y-16853909D01*
X-10100270Y-16771744D01*
X-10142954Y-16708823D01*
X-10206989Y-16653673D01*
X-10223285Y-16642292D01*
X-10316625Y-16602006D01*
X-10414884Y-16600858D01*
X-10511704Y-16637182D01*
X-10600725Y-16709314D01*
X-10634304Y-16749946D01*
X-10657902Y-16789691D01*
X-10670900Y-16836944D01*
X-10675648Y-16904456D01*
X-13990491Y-16904456D01*
X-14033848Y-16707565D01*
X-14090073Y-16270842D01*
X-14107567Y-15831471D01*
X-14086328Y-15392311D01*
X-14026357Y-14956222D01*
X-13927654Y-14526062D01*
X-13790217Y-14104691D01*
X-13614047Y-13694968D01*
X-13422254Y-13338333D01*
X-13170161Y-12953677D01*
X-12887046Y-12596677D01*
X-12574962Y-12268876D01*
X-12235961Y-11971816D01*
X-11872097Y-11707040D01*
X-11485421Y-11476092D01*
X-11077985Y-11280515D01*
X-10651844Y-11121851D01*
X-10363058Y-11038543D01*
X-10144813Y-10986405D01*
X-9943606Y-10947369D01*
X-9746979Y-10919956D01*
X-9542475Y-10902684D01*
X-9317635Y-10894074D01*
X-9133416Y-10892406D01*
X-8919264Y-10894509D01*
G36*
X9354372Y-10883482D02*
G01*
X9551644Y-10891613D01*
X9726405Y-10904646D01*
X9803517Y-10913245D01*
X10245427Y-10991056D01*
X10675592Y-11108425D01*
X11091586Y-11263615D01*
X11490983Y-11454888D01*
X11871359Y-11680509D01*
X12230288Y-11938740D01*
X12565345Y-12227845D01*
X12874105Y-12546086D01*
X13154142Y-12891727D01*
X13403032Y-13263031D01*
X13608550Y-13638229D01*
X13784882Y-14032365D01*
X13922410Y-14421605D01*
X14022851Y-14813309D01*
X14087922Y-15214837D01*
X14119340Y-15633547D01*
X14122971Y-15843250D01*
X14102395Y-16303042D01*
X14041420Y-16752625D01*
X13941173Y-17190009D01*
X13802783Y-17613203D01*
X13627379Y-18020217D01*
X13416089Y-18409059D01*
X13170042Y-18777739D01*
X12890365Y-19124266D01*
X12578188Y-19446649D01*
X12234639Y-19742898D01*
X11860846Y-20011022D01*
X11705167Y-20108712D01*
X11313625Y-20320411D01*
X10901176Y-20496027D01*
X10470481Y-20634645D01*
X10024201Y-20735346D01*
X9772624Y-20774297D01*
X9638363Y-20787425D01*
X9473588Y-20796770D01*
X9289954Y-20802253D01*
X9099119Y-20803797D01*
X8912739Y-20801324D01*
X8742470Y-20794758D01*
X8599969Y-20784020D01*
X8583084Y-20782201D01*
X8166667Y-20714838D01*
X7750305Y-20607812D01*
X7339473Y-20463446D01*
X6939644Y-20284061D01*
X6556290Y-20071980D01*
X6194884Y-19829525D01*
X6021038Y-19695133D01*
X5884131Y-19577039D01*
X5733550Y-19435195D01*
X5578925Y-19279572D01*
X5429888Y-19120144D01*
X5296070Y-18966880D01*
X5193420Y-18838222D01*
X4936231Y-18461262D01*
X4714804Y-18064571D01*
X4530928Y-17651846D01*
X4386394Y-17226780D01*
X4352191Y-17102105D01*
X4309072Y-16929501D01*
X7619404Y-16929501D01*
X7626872Y-17062796D01*
X7651674Y-17209624D01*
X7692707Y-17362176D01*
X7748870Y-17512642D01*
X7780138Y-17580335D01*
X7897348Y-17774375D01*
X8046672Y-17952655D01*
X8221121Y-18109404D01*
X8413700Y-18238851D01*
X8617419Y-18335226D01*
X8743151Y-18375050D01*
X8847667Y-18401837D01*
X8847700Y-18741793D01*
X8849221Y-18893241D01*
X8854965Y-19009100D01*
X8866752Y-19096047D01*
X8886404Y-19160759D01*
X8915740Y-19209912D01*
X8956581Y-19250184D01*
X8993672Y-19277120D01*
X9080107Y-19313983D01*
X9179037Y-19324844D01*
X9272602Y-19308883D01*
X9310068Y-19291630D01*
X9357557Y-19260585D01*
X9393154Y-19227633D01*
X9418802Y-19186204D01*
X9436444Y-19129724D01*
X9448024Y-19051622D01*
X9455484Y-18945325D01*
X9460769Y-18804262D01*
X9461500Y-18779481D01*
X9472084Y-18413711D01*
X9643263Y-18354481D01*
X9879084Y-18251705D01*
X10089768Y-18116935D01*
X10272924Y-17953501D01*
X10426163Y-17764732D01*
X10547095Y-17553959D01*
X10633330Y-17324511D01*
X10682480Y-17079717D01*
X10693569Y-16891000D01*
X10673455Y-16636754D01*
X10614654Y-16396130D01*
X10519477Y-16172206D01*
X10390237Y-15968059D01*
X10229246Y-15786769D01*
X10038817Y-15631413D01*
X9821260Y-15505069D01*
X9582596Y-15411946D01*
X9500456Y-15391872D01*
X9392037Y-15372392D01*
X9273342Y-15356123D01*
X9190643Y-15347877D01*
X9014725Y-15327661D01*
X8871017Y-15296579D01*
X8750119Y-15251564D01*
X8642633Y-15189551D01*
X8593267Y-15153023D01*
X8455177Y-15019746D01*
X8351955Y-14869576D01*
X8282609Y-14707414D01*
X8246145Y-14538159D01*
X8241569Y-14366713D01*
X8267887Y-14197974D01*
X8324107Y-14036844D01*
X8409235Y-13888222D01*
X8522276Y-13757008D01*
X8662238Y-13648104D01*
X8828127Y-13566408D01*
X8920906Y-13537184D01*
X9113257Y-13507360D01*
X9299790Y-13516798D01*
X9476171Y-13562451D01*
X9638069Y-13641274D01*
X9781149Y-13750221D01*
X9901081Y-13886246D01*
X9993531Y-14046304D01*
X10054167Y-14227348D01*
X10073771Y-14347667D01*
X10101502Y-14495349D01*
X10151165Y-14607323D01*
X10222506Y-14683312D01*
X10315268Y-14723040D01*
X10425068Y-14726715D01*
X10528281Y-14698864D01*
X10608629Y-14638722D01*
X10670277Y-14545353D01*
X10691795Y-14498043D01*
X10703301Y-14456171D01*
X10705776Y-14407042D01*
X10700200Y-14337962D01*
X10691675Y-14268158D01*
X10638980Y-14010382D01*
X10550778Y-13772003D01*
X10429346Y-13555783D01*
X10276960Y-13364485D01*
X10095896Y-13200871D01*
X9888430Y-13067706D01*
X9656838Y-12967751D01*
X9607321Y-12951835D01*
X9461500Y-12907544D01*
X9461500Y-12653579D01*
X9459104Y-12521819D01*
X9450085Y-12424222D01*
X9431697Y-12352797D01*
X9401192Y-12299552D01*
X9355825Y-12256495D01*
X9315710Y-12229344D01*
X9213043Y-12187680D01*
X9110201Y-12186595D01*
X9012495Y-12224691D01*
X8925239Y-12300571D01*
X8895292Y-12339952D01*
X8874640Y-12374342D01*
X8860951Y-12411485D01*
X8852829Y-12460771D01*
X8848875Y-12531588D01*
X8847694Y-12633329D01*
X8847667Y-12659981D01*
X8847667Y-12910035D01*
X8757709Y-12933996D01*
X8535002Y-13014484D01*
X8324526Y-13131723D01*
X8132494Y-13280560D01*
X7965123Y-13455840D01*
X7828625Y-13652410D01*
X7779594Y-13745057D01*
X7697841Y-13940040D01*
X7647276Y-14125631D01*
X7624743Y-14317188D01*
X7625270Y-14496128D01*
X7653115Y-14740330D01*
X7714248Y-14962628D01*
X7811068Y-15168411D01*
X7945973Y-15363066D01*
X8075020Y-15506445D01*
X8229115Y-15646562D01*
X8388232Y-15757648D01*
X8559923Y-15843020D01*
X8751743Y-15905993D01*
X8971244Y-15949881D01*
X9129927Y-15969505D01*
X9256614Y-15983272D01*
X9351273Y-15996822D01*
X9424136Y-16012410D01*
X9485438Y-16032295D01*
X9545410Y-16058732D01*
X9554359Y-16063123D01*
X9727985Y-16170269D01*
X9867445Y-16301967D01*
X9971718Y-16456437D01*
X10039786Y-16631899D01*
X10070629Y-16826574D01*
X10070159Y-16963753D01*
X10042159Y-17148620D01*
X9980643Y-17311687D01*
X9882231Y-17460376D01*
X9806059Y-17543802D01*
X9655542Y-17666388D01*
X9492569Y-17751658D01*
X9321923Y-17800961D01*
X9148386Y-17815646D01*
X8976740Y-17797062D01*
X8811767Y-17746559D01*
X8658249Y-17665485D01*
X8520968Y-17555189D01*
X8404706Y-17417021D01*
X8314246Y-17252330D01*
X8265407Y-17109159D01*
X8247438Y-17024484D01*
X8236002Y-16940444D01*
X8233834Y-16900267D01*
X8213726Y-16798774D01*
X8157148Y-16702678D01*
X8081186Y-16630127D01*
X7997946Y-16592930D01*
X7902671Y-16588395D01*
X7806490Y-16613751D01*
X7720534Y-16666228D01*
X7660872Y-16734749D01*
X7630369Y-16817548D01*
X7619404Y-16929501D01*
X4309072Y-16929501D01*
X4305505Y-16915224D01*
X4269278Y-16750615D01*
X4242276Y-16597950D01*
X4223265Y-16446900D01*
X4211011Y-16287134D01*
X4204278Y-16108324D01*
X4201832Y-15900139D01*
X4201746Y-15843250D01*
X4203341Y-15625843D01*
X4208941Y-15440389D01*
X4219769Y-15276597D01*
X4237048Y-15124179D01*
X4262001Y-14972845D01*
X4295849Y-14812306D01*
X4339816Y-14632273D01*
X4350630Y-14590329D01*
X4484694Y-14157142D01*
X4656824Y-13740699D01*
X4865348Y-13343152D01*
X5108593Y-12966650D01*
X5384886Y-12613344D01*
X5692556Y-12285384D01*
X6029931Y-11984921D01*
X6395337Y-11714106D01*
X6762750Y-11488568D01*
X7110999Y-11314661D01*
X7484700Y-11164983D01*
X7872566Y-11043137D01*
X8263312Y-10952729D01*
X8598124Y-10902308D01*
X8756465Y-10889665D01*
X8943885Y-10882391D01*
X9147487Y-10880369D01*
X9354372Y-10883482D01*
G37*
X9354372Y-10883482D02*
X9551644Y-10891613D01*
X9726405Y-10904646D01*
X9803517Y-10913245D01*
X10245427Y-10991056D01*
X10675592Y-11108425D01*
X11091586Y-11263615D01*
X11490983Y-11454888D01*
X11871359Y-11680509D01*
X12230288Y-11938740D01*
X12565345Y-12227845D01*
X12874105Y-12546086D01*
X13154142Y-12891727D01*
X13403032Y-13263031D01*
X13608550Y-13638229D01*
X13784882Y-14032365D01*
X13922410Y-14421605D01*
X14022851Y-14813309D01*
X14087922Y-15214837D01*
X14119340Y-15633547D01*
X14122971Y-15843250D01*
X14102395Y-16303042D01*
X14041420Y-16752625D01*
X13941173Y-17190009D01*
X13802783Y-17613203D01*
X13627379Y-18020217D01*
X13416089Y-18409059D01*
X13170042Y-18777739D01*
X12890365Y-19124266D01*
X12578188Y-19446649D01*
X12234639Y-19742898D01*
X11860846Y-20011022D01*
X11705167Y-20108712D01*
X11313625Y-20320411D01*
X10901176Y-20496027D01*
X10470481Y-20634645D01*
X10024201Y-20735346D01*
X9772624Y-20774297D01*
X9638363Y-20787425D01*
X9473588Y-20796770D01*
X9289954Y-20802253D01*
X9099119Y-20803797D01*
X8912739Y-20801324D01*
X8742470Y-20794758D01*
X8599969Y-20784020D01*
X8583084Y-20782201D01*
X8166667Y-20714838D01*
X7750305Y-20607812D01*
X7339473Y-20463446D01*
X6939644Y-20284061D01*
X6556290Y-20071980D01*
X6194884Y-19829525D01*
X6021038Y-19695133D01*
X5884131Y-19577039D01*
X5733550Y-19435195D01*
X5578925Y-19279572D01*
X5429888Y-19120144D01*
X5296070Y-18966880D01*
X5193420Y-18838222D01*
X4936231Y-18461262D01*
X4714804Y-18064571D01*
X4530928Y-17651846D01*
X4386394Y-17226780D01*
X4352191Y-17102105D01*
X4309072Y-16929501D01*
X7619404Y-16929501D01*
X7626872Y-17062796D01*
X7651674Y-17209624D01*
X7692707Y-17362176D01*
X7748870Y-17512642D01*
X7780138Y-17580335D01*
X7897348Y-17774375D01*
X8046672Y-17952655D01*
X8221121Y-18109404D01*
X8413700Y-18238851D01*
X8617419Y-18335226D01*
X8743151Y-18375050D01*
X8847667Y-18401837D01*
X8847700Y-18741793D01*
X8849221Y-18893241D01*
X8854965Y-19009100D01*
X8866752Y-19096047D01*
X8886404Y-19160759D01*
X8915740Y-19209912D01*
X8956581Y-19250184D01*
X8993672Y-19277120D01*
X9080107Y-19313983D01*
X9179037Y-19324844D01*
X9272602Y-19308883D01*
X9310068Y-19291630D01*
X9357557Y-19260585D01*
X9393154Y-19227633D01*
X9418802Y-19186204D01*
X9436444Y-19129724D01*
X9448024Y-19051622D01*
X9455484Y-18945325D01*
X9460769Y-18804262D01*
X9461500Y-18779481D01*
X9472084Y-18413711D01*
X9643263Y-18354481D01*
X9879084Y-18251705D01*
X10089768Y-18116935D01*
X10272924Y-17953501D01*
X10426163Y-17764732D01*
X10547095Y-17553959D01*
X10633330Y-17324511D01*
X10682480Y-17079717D01*
X10693569Y-16891000D01*
X10673455Y-16636754D01*
X10614654Y-16396130D01*
X10519477Y-16172206D01*
X10390237Y-15968059D01*
X10229246Y-15786769D01*
X10038817Y-15631413D01*
X9821260Y-15505069D01*
X9582596Y-15411946D01*
X9500456Y-15391872D01*
X9392037Y-15372392D01*
X9273342Y-15356123D01*
X9190643Y-15347877D01*
X9014725Y-15327661D01*
X8871017Y-15296579D01*
X8750119Y-15251564D01*
X8642633Y-15189551D01*
X8593267Y-15153023D01*
X8455177Y-15019746D01*
X8351955Y-14869576D01*
X8282609Y-14707414D01*
X8246145Y-14538159D01*
X8241569Y-14366713D01*
X8267887Y-14197974D01*
X8324107Y-14036844D01*
X8409235Y-13888222D01*
X8522276Y-13757008D01*
X8662238Y-13648104D01*
X8828127Y-13566408D01*
X8920906Y-13537184D01*
X9113257Y-13507360D01*
X9299790Y-13516798D01*
X9476171Y-13562451D01*
X9638069Y-13641274D01*
X9781149Y-13750221D01*
X9901081Y-13886246D01*
X9993531Y-14046304D01*
X10054167Y-14227348D01*
X10073771Y-14347667D01*
X10101502Y-14495349D01*
X10151165Y-14607323D01*
X10222506Y-14683312D01*
X10315268Y-14723040D01*
X10425068Y-14726715D01*
X10528281Y-14698864D01*
X10608629Y-14638722D01*
X10670277Y-14545353D01*
X10691795Y-14498043D01*
X10703301Y-14456171D01*
X10705776Y-14407042D01*
X10700200Y-14337962D01*
X10691675Y-14268158D01*
X10638980Y-14010382D01*
X10550778Y-13772003D01*
X10429346Y-13555783D01*
X10276960Y-13364485D01*
X10095896Y-13200871D01*
X9888430Y-13067706D01*
X9656838Y-12967751D01*
X9607321Y-12951835D01*
X9461500Y-12907544D01*
X9461500Y-12653579D01*
X9459104Y-12521819D01*
X9450085Y-12424222D01*
X9431697Y-12352797D01*
X9401192Y-12299552D01*
X9355825Y-12256495D01*
X9315710Y-12229344D01*
X9213043Y-12187680D01*
X9110201Y-12186595D01*
X9012495Y-12224691D01*
X8925239Y-12300571D01*
X8895292Y-12339952D01*
X8874640Y-12374342D01*
X8860951Y-12411485D01*
X8852829Y-12460771D01*
X8848875Y-12531588D01*
X8847694Y-12633329D01*
X8847667Y-12659981D01*
X8847667Y-12910035D01*
X8757709Y-12933996D01*
X8535002Y-13014484D01*
X8324526Y-13131723D01*
X8132494Y-13280560D01*
X7965123Y-13455840D01*
X7828625Y-13652410D01*
X7779594Y-13745057D01*
X7697841Y-13940040D01*
X7647276Y-14125631D01*
X7624743Y-14317188D01*
X7625270Y-14496128D01*
X7653115Y-14740330D01*
X7714248Y-14962628D01*
X7811068Y-15168411D01*
X7945973Y-15363066D01*
X8075020Y-15506445D01*
X8229115Y-15646562D01*
X8388232Y-15757648D01*
X8559923Y-15843020D01*
X8751743Y-15905993D01*
X8971244Y-15949881D01*
X9129927Y-15969505D01*
X9256614Y-15983272D01*
X9351273Y-15996822D01*
X9424136Y-16012410D01*
X9485438Y-16032295D01*
X9545410Y-16058732D01*
X9554359Y-16063123D01*
X9727985Y-16170269D01*
X9867445Y-16301967D01*
X9971718Y-16456437D01*
X10039786Y-16631899D01*
X10070629Y-16826574D01*
X10070159Y-16963753D01*
X10042159Y-17148620D01*
X9980643Y-17311687D01*
X9882231Y-17460376D01*
X9806059Y-17543802D01*
X9655542Y-17666388D01*
X9492569Y-17751658D01*
X9321923Y-17800961D01*
X9148386Y-17815646D01*
X8976740Y-17797062D01*
X8811767Y-17746559D01*
X8658249Y-17665485D01*
X8520968Y-17555189D01*
X8404706Y-17417021D01*
X8314246Y-17252330D01*
X8265407Y-17109159D01*
X8247438Y-17024484D01*
X8236002Y-16940444D01*
X8233834Y-16900267D01*
X8213726Y-16798774D01*
X8157148Y-16702678D01*
X8081186Y-16630127D01*
X7997946Y-16592930D01*
X7902671Y-16588395D01*
X7806490Y-16613751D01*
X7720534Y-16666228D01*
X7660872Y-16734749D01*
X7630369Y-16817548D01*
X7619404Y-16929501D01*
X4309072Y-16929501D01*
X4305505Y-16915224D01*
X4269278Y-16750615D01*
X4242276Y-16597950D01*
X4223265Y-16446900D01*
X4211011Y-16287134D01*
X4204278Y-16108324D01*
X4201832Y-15900139D01*
X4201746Y-15843250D01*
X4203341Y-15625843D01*
X4208941Y-15440389D01*
X4219769Y-15276597D01*
X4237048Y-15124179D01*
X4262001Y-14972845D01*
X4295849Y-14812306D01*
X4339816Y-14632273D01*
X4350630Y-14590329D01*
X4484694Y-14157142D01*
X4656824Y-13740699D01*
X4865348Y-13343152D01*
X5108593Y-12966650D01*
X5384886Y-12613344D01*
X5692556Y-12285384D01*
X6029931Y-11984921D01*
X6395337Y-11714106D01*
X6762750Y-11488568D01*
X7110999Y-11314661D01*
X7484700Y-11164983D01*
X7872566Y-11043137D01*
X8263312Y-10952729D01*
X8598124Y-10902308D01*
X8756465Y-10889665D01*
X8943885Y-10882391D01*
X9147487Y-10880369D01*
X9354372Y-10883482D01*
G36*
X-17660881Y4440800D02*
G01*
X-17457559Y4435268D01*
X-17266796Y4425118D01*
X-17098792Y4410495D01*
X-16975666Y4393662D01*
X-16605439Y4317580D01*
X-16258224Y4219712D01*
X-15919174Y4095238D01*
X-15573445Y3939338D01*
X-15568083Y3936712D01*
X-15170235Y3718428D01*
X-14797204Y3466801D01*
X-14450615Y3183901D01*
X-14132092Y2871800D01*
X-13843257Y2532567D01*
X-13585735Y2168274D01*
X-13361149Y1780991D01*
X-13171124Y1372789D01*
X-13017282Y945739D01*
X-12911525Y548873D01*
X-12850327Y204659D01*
X-12814082Y-162231D01*
X-12802966Y-540147D01*
X-12817157Y-917440D01*
X-12856831Y-1282459D01*
X-12881444Y-1430978D01*
X-12982583Y-1863866D01*
X-13123597Y-2286353D01*
X-13302665Y-2695332D01*
X-13517961Y-3087699D01*
X-13767663Y-3460347D01*
X-14049947Y-3810171D01*
X-14362990Y-4134065D01*
X-14584307Y-4331071D01*
X-14946842Y-4607401D01*
X-15331193Y-4847912D01*
X-15735173Y-5051658D01*
X-16156596Y-5217690D01*
X-16593272Y-5345061D01*
X-17043016Y-5432823D01*
X-17165534Y-5449498D01*
X-17301028Y-5462355D01*
X-17463902Y-5471640D01*
X-17642959Y-5477264D01*
X-17826999Y-5479135D01*
X-18004826Y-5477164D01*
X-18165239Y-5471262D01*
X-18297040Y-5461337D01*
X-18319750Y-5458768D01*
X-18778704Y-5382105D01*
X-19224668Y-5265898D01*
X-19655541Y-5111031D01*
X-20069224Y-4918388D01*
X-20463619Y-4688855D01*
X-20836626Y-4423315D01*
X-20902962Y-4370443D01*
X-21039738Y-4252495D01*
X-21189971Y-4111014D01*
X-21344113Y-3955891D01*
X-21492614Y-3797020D01*
X-21625927Y-3644292D01*
X-21729983Y-3513667D01*
X-21988094Y-3134466D01*
X-22210294Y-2736353D01*
X-22395300Y-2322545D01*
X-22541832Y-1896256D01*
X-22613693Y-1603116D01*
X-19305809Y-1603116D01*
X-19298987Y-1741829D01*
X-19271803Y-1894014D01*
X-19225936Y-2052870D01*
X-19163063Y-2211596D01*
X-19084862Y-2363394D01*
X-18993010Y-2501464D01*
X-18971475Y-2528904D01*
X-18834272Y-2674305D01*
X-18671537Y-2807331D01*
X-18494235Y-2920727D01*
X-18313329Y-3007238D01*
X-18185153Y-3049280D01*
X-18076333Y-3077170D01*
X-18076254Y-3427710D01*
X-18074932Y-3577373D01*
X-18069757Y-3691445D01*
X-18058799Y-3776622D01*
X-18040129Y-3839605D01*
X-18011818Y-3887089D01*
X-17971937Y-3925774D01*
X-17923068Y-3959539D01*
X-17839619Y-3991212D01*
X-17743347Y-3997025D01*
X-17650453Y-3978114D01*
X-17577140Y-3935615D01*
X-17576743Y-3935245D01*
X-17536660Y-3894698D01*
X-17507175Y-3854038D01*
X-17486682Y-3806046D01*
X-17473576Y-3743507D01*
X-17466249Y-3659203D01*
X-17463097Y-3545918D01*
X-17462500Y-3421824D01*
X-17462500Y-3073878D01*
X-17383125Y-3059350D01*
X-17297587Y-3034649D01*
X-17189925Y-2990378D01*
X-17071765Y-2932520D01*
X-16954732Y-2867061D01*
X-16850454Y-2799983D01*
X-16789604Y-2753883D01*
X-16616255Y-2583535D01*
X-16468843Y-2385877D01*
X-16352667Y-2169361D01*
X-16273028Y-1942440D01*
X-16267798Y-1921652D01*
X-16245970Y-1791501D01*
X-16235250Y-1637323D01*
X-16235702Y-1475962D01*
X-16247389Y-1324258D01*
X-16265138Y-1220009D01*
X-16340395Y-986749D01*
X-16452637Y-768208D01*
X-16597763Y-569640D01*
X-16771671Y-396294D01*
X-16970260Y-253424D01*
X-17057928Y-204843D01*
X-17196616Y-139601D01*
X-17325956Y-92046D01*
X-17459828Y-58466D01*
X-17612112Y-35154D01*
X-17739083Y-22794D01*
X-17910773Y-2970D01*
X-18050891Y27567D01*
X-18169538Y72074D01*
X-18276813Y133812D01*
X-18319244Y164397D01*
X-18462731Y297991D01*
X-18571313Y451015D01*
X-18644611Y618401D01*
X-18682249Y795086D01*
X-18683848Y976005D01*
X-18649030Y1156092D01*
X-18577420Y1330282D01*
X-18468637Y1493512D01*
X-18422281Y1546507D01*
X-18285937Y1662411D01*
X-18126799Y1747458D01*
X-17952498Y1800226D01*
X-17770666Y1819293D01*
X-17588933Y1803235D01*
X-17414932Y1750631D01*
X-17389092Y1739090D01*
X-17219531Y1637274D01*
X-17077901Y1505467D01*
X-16967187Y1347883D01*
X-16890374Y1168734D01*
X-16851280Y980189D01*
X-16827762Y842649D01*
X-16789465Y740432D01*
X-16733707Y668292D01*
X-16670509Y626670D01*
X-16562185Y596291D01*
X-16456388Y606868D01*
X-16357553Y657066D01*
X-16270112Y745552D01*
X-16268543Y747659D01*
X-16245106Y786603D01*
X-16232420Y832156D01*
X-16228208Y897132D01*
X-16229304Y968415D01*
X-16257382Y1209172D01*
X-16324220Y1440287D01*
X-16426590Y1657540D01*
X-16561266Y1856712D01*
X-16725023Y2033583D01*
X-16914634Y2183933D01*
X-17126874Y2303543D01*
X-17302021Y2371512D01*
X-17462500Y2422392D01*
X-17462500Y2674489D01*
X-17465512Y2810007D01*
X-17476619Y2911048D01*
X-17498925Y2985172D01*
X-17535536Y3039941D01*
X-17589555Y3082916D01*
X-17641831Y3111217D01*
X-17748242Y3143165D01*
X-17848796Y3133193D01*
X-17943391Y3081311D01*
X-17951606Y3074589D01*
X-18002277Y3026319D01*
X-18037337Y2975447D01*
X-18059503Y2912985D01*
X-18071488Y2829943D01*
X-18076007Y2717333D01*
X-18076333Y2661634D01*
X-18076333Y2421332D01*
X-18229791Y2372724D01*
X-18466028Y2276423D01*
X-18678904Y2145230D01*
X-18866567Y1980717D01*
X-19027168Y1784452D01*
X-19135694Y1604152D01*
X-19233144Y1372544D01*
X-19289838Y1132495D01*
X-19305784Y886978D01*
X-19280991Y638969D01*
X-19215467Y391441D01*
X-19131623Y191468D01*
X-19080195Y95285D01*
X-19024277Y11300D01*
X-18954272Y-73355D01*
X-18861624Y-170498D01*
X-18686663Y-327550D01*
X-18506869Y-448896D01*
X-18314367Y-538151D01*
X-18101281Y-598929D01*
X-17859737Y-634843D01*
X-17847209Y-636011D01*
X-17739857Y-647027D01*
X-17639506Y-659544D01*
X-17558632Y-671882D01*
X-17515536Y-680703D01*
X-17341727Y-747363D01*
X-17188142Y-848003D01*
X-17058570Y-977591D01*
X-16956801Y-1131095D01*
X-16886624Y-1303480D01*
X-16851829Y-1489715D01*
X-16848666Y-1566334D01*
X-16867898Y-1758694D01*
X-16922708Y-1934260D01*
X-17008767Y-2090363D01*
X-17121746Y-2224336D01*
X-17257318Y-2333511D01*
X-17411152Y-2415221D01*
X-17578922Y-2466799D01*
X-17756297Y-2485575D01*
X-17938949Y-2468884D01*
X-18122550Y-2414057D01*
X-18181473Y-2387694D01*
X-18335868Y-2289946D01*
X-18467985Y-2160961D01*
X-18573333Y-2007916D01*
X-18647425Y-1837988D01*
X-18685768Y-1658354D01*
X-18690166Y-1574483D01*
X-18701141Y-1490795D01*
X-18738420Y-1414781D01*
X-18792286Y-1349038D01*
X-18875475Y-1288053D01*
X-18971882Y-1261666D01*
X-19071726Y-1268933D01*
X-19165224Y-1308912D01*
X-19242593Y-1380660D01*
X-19251659Y-1393301D01*
X-19290593Y-1484673D01*
X-19305809Y-1603116D01*
X-22613693Y-1603116D01*
X-22648606Y-1460702D01*
X-22710698Y-1053876D01*
X-22722160Y-909490D01*
X-22729301Y-736351D01*
X-22732121Y-547818D01*
X-22730618Y-357249D01*
X-22724794Y-178004D01*
X-22714648Y-23442D01*
X-22710698Y16709D01*
X-22641658Y462331D01*
X-22533828Y894339D01*
X-22389073Y1310831D01*
X-22209258Y1709906D01*
X-21996250Y2089664D01*
X-21751912Y2448202D01*
X-21478112Y2783621D01*
X-21176715Y3094018D01*
X-20849585Y3377494D01*
X-20498590Y3632146D01*
X-20125594Y3856073D01*
X-19732462Y4047376D01*
X-19321062Y4204151D01*
X-18893257Y4324499D01*
X-18450914Y4406519D01*
X-18395736Y4413849D01*
X-18244188Y4428239D01*
X-18064396Y4437430D01*
X-17866560Y4441569D01*
X-17660881Y4440800D01*
G37*
X-17660881Y4440800D02*
X-17457559Y4435268D01*
X-17266796Y4425118D01*
X-17098792Y4410495D01*
X-16975666Y4393662D01*
X-16605439Y4317580D01*
X-16258224Y4219712D01*
X-15919174Y4095238D01*
X-15573445Y3939338D01*
X-15568083Y3936712D01*
X-15170235Y3718428D01*
X-14797204Y3466801D01*
X-14450615Y3183901D01*
X-14132092Y2871800D01*
X-13843257Y2532567D01*
X-13585735Y2168274D01*
X-13361149Y1780991D01*
X-13171124Y1372789D01*
X-13017282Y945739D01*
X-12911525Y548873D01*
X-12850327Y204659D01*
X-12814082Y-162231D01*
X-12802966Y-540147D01*
X-12817157Y-917440D01*
X-12856831Y-1282459D01*
X-12881444Y-1430978D01*
X-12982583Y-1863866D01*
X-13123597Y-2286353D01*
X-13302665Y-2695332D01*
X-13517961Y-3087699D01*
X-13767663Y-3460347D01*
X-14049947Y-3810171D01*
X-14362990Y-4134065D01*
X-14584307Y-4331071D01*
X-14946842Y-4607401D01*
X-15331193Y-4847912D01*
X-15735173Y-5051658D01*
X-16156596Y-5217690D01*
X-16593272Y-5345061D01*
X-17043016Y-5432823D01*
X-17165534Y-5449498D01*
X-17301028Y-5462355D01*
X-17463902Y-5471640D01*
X-17642959Y-5477264D01*
X-17826999Y-5479135D01*
X-18004826Y-5477164D01*
X-18165239Y-5471262D01*
X-18297040Y-5461337D01*
X-18319750Y-5458768D01*
X-18778704Y-5382105D01*
X-19224668Y-5265898D01*
X-19655541Y-5111031D01*
X-20069224Y-4918388D01*
X-20463619Y-4688855D01*
X-20836626Y-4423315D01*
X-20902962Y-4370443D01*
X-21039738Y-4252495D01*
X-21189971Y-4111014D01*
X-21344113Y-3955891D01*
X-21492614Y-3797020D01*
X-21625927Y-3644292D01*
X-21729983Y-3513667D01*
X-21988094Y-3134466D01*
X-22210294Y-2736353D01*
X-22395300Y-2322545D01*
X-22541832Y-1896256D01*
X-22613693Y-1603116D01*
X-19305809Y-1603116D01*
X-19298987Y-1741829D01*
X-19271803Y-1894014D01*
X-19225936Y-2052870D01*
X-19163063Y-2211596D01*
X-19084862Y-2363394D01*
X-18993010Y-2501464D01*
X-18971475Y-2528904D01*
X-18834272Y-2674305D01*
X-18671537Y-2807331D01*
X-18494235Y-2920727D01*
X-18313329Y-3007238D01*
X-18185153Y-3049280D01*
X-18076333Y-3077170D01*
X-18076254Y-3427710D01*
X-18074932Y-3577373D01*
X-18069757Y-3691445D01*
X-18058799Y-3776622D01*
X-18040129Y-3839605D01*
X-18011818Y-3887089D01*
X-17971937Y-3925774D01*
X-17923068Y-3959539D01*
X-17839619Y-3991212D01*
X-17743347Y-3997025D01*
X-17650453Y-3978114D01*
X-17577140Y-3935615D01*
X-17576743Y-3935245D01*
X-17536660Y-3894698D01*
X-17507175Y-3854038D01*
X-17486682Y-3806046D01*
X-17473576Y-3743507D01*
X-17466249Y-3659203D01*
X-17463097Y-3545918D01*
X-17462500Y-3421824D01*
X-17462500Y-3073878D01*
X-17383125Y-3059350D01*
X-17297587Y-3034649D01*
X-17189925Y-2990378D01*
X-17071765Y-2932520D01*
X-16954732Y-2867061D01*
X-16850454Y-2799983D01*
X-16789604Y-2753883D01*
X-16616255Y-2583535D01*
X-16468843Y-2385877D01*
X-16352667Y-2169361D01*
X-16273028Y-1942440D01*
X-16267798Y-1921652D01*
X-16245970Y-1791501D01*
X-16235250Y-1637323D01*
X-16235702Y-1475962D01*
X-16247389Y-1324258D01*
X-16265138Y-1220009D01*
X-16340395Y-986749D01*
X-16452637Y-768208D01*
X-16597763Y-569640D01*
X-16771671Y-396294D01*
X-16970260Y-253424D01*
X-17057928Y-204843D01*
X-17196616Y-139601D01*
X-17325956Y-92046D01*
X-17459828Y-58466D01*
X-17612112Y-35154D01*
X-17739083Y-22794D01*
X-17910773Y-2970D01*
X-18050891Y27567D01*
X-18169538Y72074D01*
X-18276813Y133812D01*
X-18319244Y164397D01*
X-18462731Y297991D01*
X-18571313Y451015D01*
X-18644611Y618401D01*
X-18682249Y795086D01*
X-18683848Y976005D01*
X-18649030Y1156092D01*
X-18577420Y1330282D01*
X-18468637Y1493512D01*
X-18422281Y1546507D01*
X-18285937Y1662411D01*
X-18126799Y1747458D01*
X-17952498Y1800226D01*
X-17770666Y1819293D01*
X-17588933Y1803235D01*
X-17414932Y1750631D01*
X-17389092Y1739090D01*
X-17219531Y1637274D01*
X-17077901Y1505467D01*
X-16967187Y1347883D01*
X-16890374Y1168734D01*
X-16851280Y980189D01*
X-16827762Y842649D01*
X-16789465Y740432D01*
X-16733707Y668292D01*
X-16670509Y626670D01*
X-16562185Y596291D01*
X-16456388Y606868D01*
X-16357553Y657066D01*
X-16270112Y745552D01*
X-16268543Y747659D01*
X-16245106Y786603D01*
X-16232420Y832156D01*
X-16228208Y897132D01*
X-16229304Y968415D01*
X-16257382Y1209172D01*
X-16324220Y1440287D01*
X-16426590Y1657540D01*
X-16561266Y1856712D01*
X-16725023Y2033583D01*
X-16914634Y2183933D01*
X-17126874Y2303543D01*
X-17302021Y2371512D01*
X-17462500Y2422392D01*
X-17462500Y2674489D01*
X-17465512Y2810007D01*
X-17476619Y2911048D01*
X-17498925Y2985172D01*
X-17535536Y3039941D01*
X-17589555Y3082916D01*
X-17641831Y3111217D01*
X-17748242Y3143165D01*
X-17848796Y3133193D01*
X-17943391Y3081311D01*
X-17951606Y3074589D01*
X-18002277Y3026319D01*
X-18037337Y2975447D01*
X-18059503Y2912985D01*
X-18071488Y2829943D01*
X-18076007Y2717333D01*
X-18076333Y2661634D01*
X-18076333Y2421332D01*
X-18229791Y2372724D01*
X-18466028Y2276423D01*
X-18678904Y2145230D01*
X-18866567Y1980717D01*
X-19027168Y1784452D01*
X-19135694Y1604152D01*
X-19233144Y1372544D01*
X-19289838Y1132495D01*
X-19305784Y886978D01*
X-19280991Y638969D01*
X-19215467Y391441D01*
X-19131623Y191468D01*
X-19080195Y95285D01*
X-19024277Y11300D01*
X-18954272Y-73355D01*
X-18861624Y-170498D01*
X-18686663Y-327550D01*
X-18506869Y-448896D01*
X-18314367Y-538151D01*
X-18101281Y-598929D01*
X-17859737Y-634843D01*
X-17847209Y-636011D01*
X-17739857Y-647027D01*
X-17639506Y-659544D01*
X-17558632Y-671882D01*
X-17515536Y-680703D01*
X-17341727Y-747363D01*
X-17188142Y-848003D01*
X-17058570Y-977591D01*
X-16956801Y-1131095D01*
X-16886624Y-1303480D01*
X-16851829Y-1489715D01*
X-16848666Y-1566334D01*
X-16867898Y-1758694D01*
X-16922708Y-1934260D01*
X-17008767Y-2090363D01*
X-17121746Y-2224336D01*
X-17257318Y-2333511D01*
X-17411152Y-2415221D01*
X-17578922Y-2466799D01*
X-17756297Y-2485575D01*
X-17938949Y-2468884D01*
X-18122550Y-2414057D01*
X-18181473Y-2387694D01*
X-18335868Y-2289946D01*
X-18467985Y-2160961D01*
X-18573333Y-2007916D01*
X-18647425Y-1837988D01*
X-18685768Y-1658354D01*
X-18690166Y-1574483D01*
X-18701141Y-1490795D01*
X-18738420Y-1414781D01*
X-18792286Y-1349038D01*
X-18875475Y-1288053D01*
X-18971882Y-1261666D01*
X-19071726Y-1268933D01*
X-19165224Y-1308912D01*
X-19242593Y-1380660D01*
X-19251659Y-1393301D01*
X-19290593Y-1484673D01*
X-19305809Y-1603116D01*
X-22613693Y-1603116D01*
X-22648606Y-1460702D01*
X-22710698Y-1053876D01*
X-22722160Y-909490D01*
X-22729301Y-736351D01*
X-22732121Y-547818D01*
X-22730618Y-357249D01*
X-22724794Y-178004D01*
X-22714648Y-23442D01*
X-22710698Y16709D01*
X-22641658Y462331D01*
X-22533828Y894339D01*
X-22389073Y1310831D01*
X-22209258Y1709906D01*
X-21996250Y2089664D01*
X-21751912Y2448202D01*
X-21478112Y2783621D01*
X-21176715Y3094018D01*
X-20849585Y3377494D01*
X-20498590Y3632146D01*
X-20125594Y3856073D01*
X-19732462Y4047376D01*
X-19321062Y4204151D01*
X-18893257Y4324499D01*
X-18450914Y4406519D01*
X-18395736Y4413849D01*
X-18244188Y4428239D01*
X-18064396Y4437430D01*
X-17866560Y4441569D01*
X-17660881Y4440800D01*
G36*
X18366028Y4440807D02*
G01*
X18803845Y4369300D01*
X19230560Y4259353D01*
X19467848Y4179268D01*
X19888933Y4002032D01*
X20288738Y3789149D01*
X20665371Y3542599D01*
X21016943Y3264361D01*
X21341564Y2956413D01*
X21637344Y2620735D01*
X21902392Y2259307D01*
X22134820Y1874108D01*
X22332735Y1467117D01*
X22494250Y1040313D01*
X22508977Y994567D01*
X22625048Y559023D01*
X22700072Y117945D01*
X22734521Y-325943D01*
X22728868Y-769915D01*
X22683585Y-1211247D01*
X22599144Y-1647212D01*
X22476018Y-2075087D01*
X22314679Y-2492146D01*
X22115600Y-2895663D01*
X21879253Y-3282913D01*
X21731432Y-3490805D01*
X21648341Y-3594401D01*
X21541330Y-3716991D01*
X21418059Y-3850716D01*
X21286185Y-3987717D01*
X21153367Y-4120134D01*
X21027265Y-4240108D01*
X20915537Y-4339778D01*
X20858391Y-4386718D01*
X20485587Y-4652683D01*
X20090420Y-4883993D01*
X19676492Y-5079076D01*
X19247402Y-5236358D01*
X18806753Y-5354266D01*
X18520834Y-5408257D01*
X18438371Y-5418275D01*
X18325795Y-5427656D01*
X18191257Y-5436127D01*
X18042912Y-5443419D01*
X17888913Y-5449258D01*
X17737414Y-5453375D01*
X17596568Y-5455498D01*
X17474528Y-5455355D01*
X17379449Y-5452675D01*
X17324917Y-5448055D01*
X17277958Y-5441314D01*
X17200877Y-5430366D01*
X17105476Y-5416885D01*
X17029338Y-5406165D01*
X16598973Y-5324522D01*
X16177925Y-5202805D01*
X15768938Y-5042760D01*
X15374760Y-4846132D01*
X14998136Y-4614667D01*
X14641813Y-4350112D01*
X14308538Y-4054212D01*
X14001056Y-3728713D01*
X13722113Y-3375361D01*
X13632547Y-3246639D01*
X13400271Y-2863836D01*
X13203500Y-2459842D01*
X13043760Y-2038716D01*
X12933536Y-1643779D01*
X16227898Y-1643779D01*
X16244268Y-1784458D01*
X16278156Y-1935982D01*
X16328019Y-2089941D01*
X16392312Y-2237924D01*
X16408009Y-2268408D01*
X16528838Y-2456019D01*
X16681236Y-2628713D01*
X16857645Y-2780433D01*
X17050508Y-2905122D01*
X17252268Y-2996723D01*
X17356937Y-3028948D01*
X17462500Y-3056003D01*
X17462579Y-3406543D01*
X17463093Y-3538998D01*
X17465055Y-3636418D01*
X17469197Y-3706094D01*
X17476252Y-3755319D01*
X17486951Y-3791385D01*
X17502029Y-3821584D01*
X17504719Y-3826069D01*
X17577354Y-3908451D01*
X17671950Y-3961736D01*
X17769417Y-3979175D01*
X17847210Y-3967569D01*
X17919791Y-3939060D01*
X17923069Y-3937115D01*
X17975310Y-3901512D01*
X18014239Y-3862879D01*
X18041771Y-3814579D01*
X18059822Y-3749977D01*
X18070308Y-3662435D01*
X18075146Y-3545317D01*
X18076254Y-3406543D01*
X18076334Y-3056003D01*
X18185153Y-3028114D01*
X18360210Y-2966228D01*
X18539390Y-2872367D01*
X18711590Y-2754058D01*
X18865710Y-2618827D01*
X18979036Y-2489862D01*
X19119433Y-2274182D01*
X19218872Y-2050928D01*
X19278571Y-1816219D01*
X19299745Y-1566177D01*
X19298146Y-1471084D01*
X19271124Y-1223541D01*
X19210312Y-998708D01*
X19113437Y-791370D01*
X18978229Y-596313D01*
X18859500Y-464229D01*
X18668074Y-298053D01*
X18457025Y-166635D01*
X18230858Y-71917D01*
X17994078Y-15841D01*
X17782585Y0D01*
X17590452Y19152D01*
X17414244Y73695D01*
X17256757Y159263D01*
X17120789Y271488D01*
X17009135Y406002D01*
X16924593Y558438D01*
X16869960Y724429D01*
X16848031Y899607D01*
X16861604Y1079604D01*
X16913475Y1260054D01*
X16938841Y1317643D01*
X17039187Y1483752D01*
X17167274Y1619345D01*
X17326701Y1728004D01*
X17377834Y1754276D01*
X17450128Y1788142D01*
X17507375Y1810208D01*
X17562459Y1822995D01*
X17628267Y1829025D01*
X17717683Y1830819D01*
X17769417Y1830916D01*
X17875084Y1830063D01*
X17951052Y1825990D01*
X18009944Y1816429D01*
X18064384Y1799112D01*
X18126994Y1771770D01*
X18144561Y1763501D01*
X18318893Y1660532D01*
X18459654Y1532344D01*
X18567386Y1378150D01*
X18642629Y1197161D01*
X18685923Y988590D01*
X18687897Y971813D01*
X18709294Y848180D01*
X18744532Y757820D01*
X18798161Y692704D01*
X18872614Y645801D01*
X18976825Y617989D01*
X19081079Y628603D01*
X19176188Y674754D01*
X19252966Y753552D01*
X19262598Y768442D01*
X19294369Y854926D01*
X19305553Y969957D01*
X19297304Y1105754D01*
X19270778Y1254541D01*
X19227130Y1408540D01*
X19167514Y1559972D01*
X19135191Y1626352D01*
X19011035Y1825380D01*
X18857902Y2005476D01*
X18682068Y2161482D01*
X18489807Y2288240D01*
X18287393Y2380590D01*
X18176875Y2414139D01*
X18076334Y2439192D01*
X18076334Y2682506D01*
X18072216Y2824739D01*
X18057999Y2932277D01*
X18030882Y3012121D01*
X17988068Y3071274D01*
X17926757Y3116740D01*
X17896421Y3132665D01*
X17818848Y3164362D01*
X17755274Y3171484D01*
X17686516Y3154182D01*
X17640396Y3134701D01*
X17572493Y3097010D01*
X17523764Y3050432D01*
X17491324Y2987828D01*
X17472286Y2902056D01*
X17463766Y2785976D01*
X17462500Y2694430D01*
X17462500Y2441107D01*
X17330477Y2404401D01*
X17110998Y2322008D01*
X16904689Y2202587D01*
X16716942Y2050725D01*
X16553149Y1871007D01*
X16418702Y1668020D01*
X16382361Y1598083D01*
X16302200Y1405262D01*
X16253307Y1215067D01*
X16232114Y1011570D01*
X16230601Y920750D01*
X16249477Y670212D01*
X16304661Y438959D01*
X16397573Y223649D01*
X16529630Y20941D01*
X16689069Y-159448D01*
X16786795Y-253566D01*
X16869743Y-323918D01*
X16949880Y-379551D01*
X17039171Y-429515D01*
X17060334Y-440197D01*
X17225034Y-511706D01*
X17395187Y-566915D01*
X17557832Y-602263D01*
X17693428Y-614201D01*
X17905303Y-633147D01*
X18098242Y-687010D01*
X18269222Y-773378D01*
X18415224Y-889841D01*
X18533226Y-1033987D01*
X18620208Y-1203406D01*
X18673151Y-1395686D01*
X18673254Y-1396288D01*
X18685113Y-1584610D01*
X18658113Y-1768008D01*
X18595603Y-1941044D01*
X18500932Y-2098276D01*
X18377446Y-2234266D01*
X18228496Y-2343574D01*
X18057430Y-2420759D01*
X18039081Y-2426548D01*
X17937440Y-2446482D01*
X17812168Y-2455288D01*
X17680463Y-2453027D01*
X17559520Y-2439760D01*
X17492682Y-2424627D01*
X17331869Y-2355688D01*
X17182552Y-2252350D01*
X17053113Y-2122432D01*
X16951935Y-1973753D01*
X16908702Y-1879900D01*
X16884894Y-1800582D01*
X16863519Y-1700580D01*
X16849190Y-1601485D01*
X16849151Y-1601096D01*
X16830486Y-1479888D01*
X16803118Y-1398800D01*
X16791582Y-1380154D01*
X16707327Y-1296338D01*
X16611898Y-1248658D01*
X16512607Y-1236456D01*
X16416765Y-1259073D01*
X16331685Y-1315850D01*
X16264677Y-1406128D01*
X16253886Y-1428600D01*
X16230589Y-1522356D01*
X16227898Y-1643779D01*
X12933536Y-1643779D01*
X12922578Y-1604517D01*
X12841480Y-1161305D01*
X12837700Y-1132803D01*
X12822941Y-983383D01*
X12812592Y-804627D01*
X12806764Y-608929D01*
X12805565Y-408680D01*
X12809105Y-216273D01*
X12817491Y-44101D01*
X12827158Y65454D01*
X12898996Y515019D01*
X13011090Y953362D01*
X13162297Y1378102D01*
X13351473Y1786858D01*
X13577475Y2177247D01*
X13839159Y2546889D01*
X14135381Y2893402D01*
X14234584Y2996296D01*
X14531552Y3275385D01*
X14835210Y3518861D01*
X15154795Y3733370D01*
X15499542Y3925556D01*
X15586024Y3968597D01*
X15838113Y4085107D01*
X16074680Y4180055D01*
X16312308Y4259472D01*
X16567580Y4329392D01*
X16599167Y4337182D01*
X17033679Y4422062D01*
X17476174Y4467451D01*
X17921881Y4473612D01*
X18366028Y4440807D01*
G37*
X18366028Y4440807D02*
X18803845Y4369300D01*
X19230560Y4259353D01*
X19467848Y4179268D01*
X19888933Y4002032D01*
X20288738Y3789149D01*
X20665371Y3542599D01*
X21016943Y3264361D01*
X21341564Y2956413D01*
X21637344Y2620735D01*
X21902392Y2259307D01*
X22134820Y1874108D01*
X22332735Y1467117D01*
X22494250Y1040313D01*
X22508977Y994567D01*
X22625048Y559023D01*
X22700072Y117945D01*
X22734521Y-325943D01*
X22728868Y-769915D01*
X22683585Y-1211247D01*
X22599144Y-1647212D01*
X22476018Y-2075087D01*
X22314679Y-2492146D01*
X22115600Y-2895663D01*
X21879253Y-3282913D01*
X21731432Y-3490805D01*
X21648341Y-3594401D01*
X21541330Y-3716991D01*
X21418059Y-3850716D01*
X21286185Y-3987717D01*
X21153367Y-4120134D01*
X21027265Y-4240108D01*
X20915537Y-4339778D01*
X20858391Y-4386718D01*
X20485587Y-4652683D01*
X20090420Y-4883993D01*
X19676492Y-5079076D01*
X19247402Y-5236358D01*
X18806753Y-5354266D01*
X18520834Y-5408257D01*
X18438371Y-5418275D01*
X18325795Y-5427656D01*
X18191257Y-5436127D01*
X18042912Y-5443419D01*
X17888913Y-5449258D01*
X17737414Y-5453375D01*
X17596568Y-5455498D01*
X17474528Y-5455355D01*
X17379449Y-5452675D01*
X17324917Y-5448055D01*
X17277958Y-5441314D01*
X17200877Y-5430366D01*
X17105476Y-5416885D01*
X17029338Y-5406165D01*
X16598973Y-5324522D01*
X16177925Y-5202805D01*
X15768938Y-5042760D01*
X15374760Y-4846132D01*
X14998136Y-4614667D01*
X14641813Y-4350112D01*
X14308538Y-4054212D01*
X14001056Y-3728713D01*
X13722113Y-3375361D01*
X13632547Y-3246639D01*
X13400271Y-2863836D01*
X13203500Y-2459842D01*
X13043760Y-2038716D01*
X12933536Y-1643779D01*
X16227898Y-1643779D01*
X16244268Y-1784458D01*
X16278156Y-1935982D01*
X16328019Y-2089941D01*
X16392312Y-2237924D01*
X16408009Y-2268408D01*
X16528838Y-2456019D01*
X16681236Y-2628713D01*
X16857645Y-2780433D01*
X17050508Y-2905122D01*
X17252268Y-2996723D01*
X17356937Y-3028948D01*
X17462500Y-3056003D01*
X17462579Y-3406543D01*
X17463093Y-3538998D01*
X17465055Y-3636418D01*
X17469197Y-3706094D01*
X17476252Y-3755319D01*
X17486951Y-3791385D01*
X17502029Y-3821584D01*
X17504719Y-3826069D01*
X17577354Y-3908451D01*
X17671950Y-3961736D01*
X17769417Y-3979175D01*
X17847210Y-3967569D01*
X17919791Y-3939060D01*
X17923069Y-3937115D01*
X17975310Y-3901512D01*
X18014239Y-3862879D01*
X18041771Y-3814579D01*
X18059822Y-3749977D01*
X18070308Y-3662435D01*
X18075146Y-3545317D01*
X18076254Y-3406543D01*
X18076334Y-3056003D01*
X18185153Y-3028114D01*
X18360210Y-2966228D01*
X18539390Y-2872367D01*
X18711590Y-2754058D01*
X18865710Y-2618827D01*
X18979036Y-2489862D01*
X19119433Y-2274182D01*
X19218872Y-2050928D01*
X19278571Y-1816219D01*
X19299745Y-1566177D01*
X19298146Y-1471084D01*
X19271124Y-1223541D01*
X19210312Y-998708D01*
X19113437Y-791370D01*
X18978229Y-596313D01*
X18859500Y-464229D01*
X18668074Y-298053D01*
X18457025Y-166635D01*
X18230858Y-71917D01*
X17994078Y-15841D01*
X17782585Y0D01*
X17590452Y19152D01*
X17414244Y73695D01*
X17256757Y159263D01*
X17120789Y271488D01*
X17009135Y406002D01*
X16924593Y558438D01*
X16869960Y724429D01*
X16848031Y899607D01*
X16861604Y1079604D01*
X16913475Y1260054D01*
X16938841Y1317643D01*
X17039187Y1483752D01*
X17167274Y1619345D01*
X17326701Y1728004D01*
X17377834Y1754276D01*
X17450128Y1788142D01*
X17507375Y1810208D01*
X17562459Y1822995D01*
X17628267Y1829025D01*
X17717683Y1830819D01*
X17769417Y1830916D01*
X17875084Y1830063D01*
X17951052Y1825990D01*
X18009944Y1816429D01*
X18064384Y1799112D01*
X18126994Y1771770D01*
X18144561Y1763501D01*
X18318893Y1660532D01*
X18459654Y1532344D01*
X18567386Y1378150D01*
X18642629Y1197161D01*
X18685923Y988590D01*
X18687897Y971813D01*
X18709294Y848180D01*
X18744532Y757820D01*
X18798161Y692704D01*
X18872614Y645801D01*
X18976825Y617989D01*
X19081079Y628603D01*
X19176188Y674754D01*
X19252966Y753552D01*
X19262598Y768442D01*
X19294369Y854926D01*
X19305553Y969957D01*
X19297304Y1105754D01*
X19270778Y1254541D01*
X19227130Y1408540D01*
X19167514Y1559972D01*
X19135191Y1626352D01*
X19011035Y1825380D01*
X18857902Y2005476D01*
X18682068Y2161482D01*
X18489807Y2288240D01*
X18287393Y2380590D01*
X18176875Y2414139D01*
X18076334Y2439192D01*
X18076334Y2682506D01*
X18072216Y2824739D01*
X18057999Y2932277D01*
X18030882Y3012121D01*
X17988068Y3071274D01*
X17926757Y3116740D01*
X17896421Y3132665D01*
X17818848Y3164362D01*
X17755274Y3171484D01*
X17686516Y3154182D01*
X17640396Y3134701D01*
X17572493Y3097010D01*
X17523764Y3050432D01*
X17491324Y2987828D01*
X17472286Y2902056D01*
X17463766Y2785976D01*
X17462500Y2694430D01*
X17462500Y2441107D01*
X17330477Y2404401D01*
X17110998Y2322008D01*
X16904689Y2202587D01*
X16716942Y2050725D01*
X16553149Y1871007D01*
X16418702Y1668020D01*
X16382361Y1598083D01*
X16302200Y1405262D01*
X16253307Y1215067D01*
X16232114Y1011570D01*
X16230601Y920750D01*
X16249477Y670212D01*
X16304661Y438959D01*
X16397573Y223649D01*
X16529630Y20941D01*
X16689069Y-159448D01*
X16786795Y-253566D01*
X16869743Y-323918D01*
X16949880Y-379551D01*
X17039171Y-429515D01*
X17060334Y-440197D01*
X17225034Y-511706D01*
X17395187Y-566915D01*
X17557832Y-602263D01*
X17693428Y-614201D01*
X17905303Y-633147D01*
X18098242Y-687010D01*
X18269222Y-773378D01*
X18415224Y-889841D01*
X18533226Y-1033987D01*
X18620208Y-1203406D01*
X18673151Y-1395686D01*
X18673254Y-1396288D01*
X18685113Y-1584610D01*
X18658113Y-1768008D01*
X18595603Y-1941044D01*
X18500932Y-2098276D01*
X18377446Y-2234266D01*
X18228496Y-2343574D01*
X18057430Y-2420759D01*
X18039081Y-2426548D01*
X17937440Y-2446482D01*
X17812168Y-2455288D01*
X17680463Y-2453027D01*
X17559520Y-2439760D01*
X17492682Y-2424627D01*
X17331869Y-2355688D01*
X17182552Y-2252350D01*
X17053113Y-2122432D01*
X16951935Y-1973753D01*
X16908702Y-1879900D01*
X16884894Y-1800582D01*
X16863519Y-1700580D01*
X16849190Y-1601485D01*
X16849151Y-1601096D01*
X16830486Y-1479888D01*
X16803118Y-1398800D01*
X16791582Y-1380154D01*
X16707327Y-1296338D01*
X16611898Y-1248658D01*
X16512607Y-1236456D01*
X16416765Y-1259073D01*
X16331685Y-1315850D01*
X16264677Y-1406128D01*
X16253886Y-1428600D01*
X16230589Y-1522356D01*
X16227898Y-1643779D01*
X12933536Y-1643779D01*
X12922578Y-1604517D01*
X12841480Y-1161305D01*
X12837700Y-1132803D01*
X12822941Y-983383D01*
X12812592Y-804627D01*
X12806764Y-608929D01*
X12805565Y-408680D01*
X12809105Y-216273D01*
X12817491Y-44101D01*
X12827158Y65454D01*
X12898996Y515019D01*
X13011090Y953362D01*
X13162297Y1378102D01*
X13351473Y1786858D01*
X13577475Y2177247D01*
X13839159Y2546889D01*
X14135381Y2893402D01*
X14234584Y2996296D01*
X14531552Y3275385D01*
X14835210Y3518861D01*
X15154795Y3733370D01*
X15499542Y3925556D01*
X15586024Y3968597D01*
X15838113Y4085107D01*
X16074680Y4180055D01*
X16312308Y4259472D01*
X16567580Y4329392D01*
X16599167Y4337182D01*
X17033679Y4422062D01*
X17476174Y4467451D01*
X17921881Y4473612D01*
X18366028Y4440807D01*
G36*
X-9022347Y20324698D02*
G01*
X-8827321Y20318062D01*
X-8649330Y20306669D01*
X-8500183Y20290627D01*
X-8498416Y20290379D01*
X-8043411Y20205298D01*
X-7602364Y20081032D01*
X-7177359Y19918612D01*
X-6770476Y19719070D01*
X-6383797Y19483438D01*
X-6019403Y19212747D01*
X-5679376Y18908028D01*
X-5649888Y18878818D01*
X-5338989Y18538882D01*
X-5063133Y18175798D01*
X-4823194Y17791404D01*
X-4620044Y17387541D01*
X-4454556Y16966048D01*
X-4327602Y16528765D01*
X-4240055Y16077531D01*
X-4211145Y15845425D01*
X-4200129Y15688157D01*
X-4195124Y15502339D01*
X-4195807Y15300257D01*
X-4201857Y15094200D01*
X-4212952Y14896456D01*
X-4228770Y14719312D01*
X-4243582Y14607098D01*
X-4335376Y14158250D01*
X-4465122Y13725889D01*
X-4631090Y13311755D01*
X-4831550Y12917589D01*
X-5064772Y12545132D01*
X-5329025Y12196124D01*
X-5622580Y11872307D01*
X-5943707Y11575421D01*
X-6290675Y11307207D01*
X-6661755Y11069404D01*
X-7055216Y10863755D01*
X-7469329Y10692000D01*
X-7902363Y10555878D01*
X-8352588Y10457132D01*
X-8371416Y10453902D01*
X-8470408Y10440591D01*
X-8599137Y10428436D01*
X-8748690Y10417790D01*
X-8910154Y10409003D01*
X-9074616Y10402430D01*
X-9233163Y10398421D01*
X-9376882Y10397328D01*
X-9496860Y10399505D01*
X-9584183Y10405303D01*
X-9588500Y10405812D01*
X-9957731Y10459199D01*
X-10295024Y10526198D01*
X-10609320Y10609416D01*
X-10909558Y10711463D01*
X-11204680Y10834945D01*
X-11424777Y10941527D01*
X-11777625Y11142537D01*
X-12122238Y11379563D01*
X-12450837Y11646290D01*
X-12755644Y11936402D01*
X-13028882Y12243585D01*
X-13029705Y12244598D01*
X-13255365Y12549400D01*
X-13463642Y12884137D01*
X-13648952Y13238089D01*
X-13805709Y13600534D01*
X-13928329Y13960753D01*
X-13934056Y13980583D01*
X-14015687Y14300708D01*
X-14018118Y14313846D01*
X-10699177Y14313846D01*
X-10696543Y14207735D01*
X-10682916Y14085434D01*
X-10659534Y13958917D01*
X-10635069Y13864166D01*
X-10548995Y13646336D01*
X-10426959Y13442112D01*
X-10274208Y13256666D01*
X-10095993Y13095170D01*
X-9897563Y12962796D01*
X-9684168Y12864716D01*
X-9590073Y12834639D01*
X-9461500Y12798893D01*
X-9461421Y12447821D01*
X-9460908Y12315263D01*
X-9458952Y12217748D01*
X-9454822Y12147992D01*
X-9447787Y12098710D01*
X-9437116Y12062617D01*
X-9422078Y12032430D01*
X-9419281Y12027765D01*
X-9347288Y11945330D01*
X-9256010Y11893659D01*
X-9155019Y11875118D01*
X-9053891Y11892075D01*
X-8993672Y11922547D01*
X-8943620Y11960472D01*
X-8906323Y12002487D01*
X-8879971Y12055253D01*
X-8862751Y12125432D01*
X-8852853Y12219683D01*
X-8848464Y12344670D01*
X-8847699Y12459362D01*
X-8847666Y12800808D01*
X-8747125Y12825861D01*
X-8618707Y12868762D01*
X-8476390Y12934187D01*
X-8335639Y13014165D01*
X-8211918Y13100725D01*
X-8208400Y13103525D01*
X-8024683Y13276047D01*
X-7874267Y13470709D01*
X-7757987Y13683068D01*
X-7676679Y13908685D01*
X-7631179Y14143117D01*
X-7622321Y14381922D01*
X-7650940Y14620661D01*
X-7717873Y14854891D01*
X-7823955Y15080171D01*
X-7833527Y15096607D01*
X-7972100Y15292319D01*
X-8140083Y15464178D01*
X-8331832Y15608879D01*
X-8541705Y15723114D01*
X-8764059Y15803577D01*
X-8993251Y15846961D01*
X-9125808Y15853833D01*
X-9326153Y15873735D01*
X-9512737Y15931579D01*
X-9681115Y16024570D01*
X-9826836Y16149916D01*
X-9945454Y16304822D01*
X-9997333Y16401189D01*
X-10033848Y16488329D01*
X-10055860Y16569209D01*
X-10067793Y16663057D01*
X-10071485Y16723381D01*
X-10063556Y16927438D01*
X-10018709Y17111111D01*
X-9936165Y17276064D01*
X-9815145Y17423960D01*
X-9694887Y17527535D01*
X-9544122Y17615508D01*
X-9373681Y17671689D01*
X-9192828Y17695185D01*
X-9010826Y17685101D01*
X-8836938Y17640543D01*
X-8778328Y17615994D01*
X-8616736Y17519141D01*
X-8478094Y17393460D01*
X-8366597Y17245264D01*
X-8286439Y17080871D01*
X-8241815Y16906594D01*
X-8233833Y16796264D01*
X-8223422Y16718617D01*
X-8198013Y16643432D01*
X-8194588Y16636670D01*
X-8139347Y16567502D01*
X-8060645Y16510081D01*
X-7974641Y16474585D01*
X-7926916Y16468048D01*
X-7833815Y16486255D01*
X-7743585Y16535804D01*
X-7672119Y16607754D01*
X-7668047Y16613672D01*
X-7631436Y16702527D01*
X-7617754Y16819105D01*
X-7625507Y16956547D01*
X-7653202Y17107997D01*
X-7699345Y17266598D01*
X-7762441Y17425494D01*
X-7840998Y17577829D01*
X-7897511Y17666991D01*
X-8035041Y17834080D01*
X-8203931Y17986087D01*
X-8393882Y18115459D01*
X-8594597Y18214646D01*
X-8691655Y18249290D01*
X-8847666Y18297719D01*
X-8847666Y18538686D01*
X-8848708Y18648549D01*
X-8852806Y18726320D01*
X-8861421Y18782208D01*
X-8876013Y18826425D01*
X-8893896Y18861908D01*
X-8963500Y18947144D01*
X-9053432Y19000820D01*
X-9154494Y19020787D01*
X-9257483Y19004896D01*
X-9335020Y18964963D01*
X-9384988Y18923481D01*
X-9420111Y18876535D01*
X-9442838Y18816031D01*
X-9455619Y18733877D01*
X-9460902Y18621980D01*
X-9461500Y18547053D01*
X-9461500Y18296003D01*
X-9567063Y18268948D01*
X-9697538Y18224841D01*
X-9841823Y18158660D01*
X-9984169Y18078636D01*
X-10108829Y17993003D01*
X-10134880Y17972104D01*
X-10316711Y17794580D01*
X-10464551Y17595229D01*
X-10577330Y17378375D01*
X-10653979Y17148343D01*
X-10693430Y16909455D01*
X-10694612Y16666037D01*
X-10656457Y16422412D01*
X-10577896Y16182904D01*
X-10577481Y16181916D01*
X-10466659Y15971517D01*
X-10317921Y15774679D01*
X-10214918Y15667986D01*
X-10036675Y15519249D01*
X-9848482Y15404549D01*
X-9643675Y15321053D01*
X-9415589Y15265932D01*
X-9207260Y15239980D01*
X-8991862Y15211161D01*
X-8810126Y15161654D01*
X-8657804Y15089616D01*
X-8530651Y14993204D01*
X-8458109Y14914899D01*
X-8348344Y14748841D01*
X-8276294Y14571383D01*
X-8241826Y14387804D01*
X-8244804Y14203382D01*
X-8285096Y14023395D01*
X-8362568Y13853121D01*
X-8477085Y13697839D01*
X-8489308Y13684669D01*
X-8624138Y13561613D01*
X-8764224Y13475507D01*
X-8917474Y13423232D01*
X-9091798Y13401669D01*
X-9205921Y13402014D01*
X-9309262Y13407775D01*
X-9385639Y13417596D01*
X-9450418Y13434982D01*
X-9518964Y13463437D01*
X-9558419Y13482401D01*
X-9712910Y13573923D01*
X-9837729Y13683775D01*
X-9935532Y13816244D01*
X-10008978Y13975618D01*
X-10060721Y14166184D01*
X-10087345Y14336018D01*
X-10118508Y14441660D01*
X-10179968Y14528175D01*
X-10263905Y14589471D01*
X-10362497Y14619456D01*
X-10447582Y14616636D01*
X-10534673Y14581579D01*
X-10614100Y14517249D01*
X-10672257Y14436288D01*
X-10689581Y14391795D01*
X-10699177Y14313846D01*
X-14018118Y14313846D01*
X-14072950Y14610169D01*
X-14107908Y14923949D01*
X-14122623Y15257027D01*
X-14123396Y15356416D01*
X-14105235Y15809378D01*
X-14049545Y16244981D01*
X-13955441Y16667066D01*
X-13822036Y17079474D01*
X-13648444Y17486043D01*
X-13617526Y17549508D01*
X-13393919Y17954580D01*
X-13138553Y18332570D01*
X-12853230Y18682201D01*
X-12539749Y19002197D01*
X-12199912Y19291280D01*
X-11835520Y19548174D01*
X-11448373Y19771601D01*
X-11040273Y19960284D01*
X-10613019Y20112947D01*
X-10168413Y20228312D01*
X-9736666Y20301555D01*
X-9591570Y20315008D01*
X-9416280Y20323278D01*
X-9222603Y20326473D01*
X-9022347Y20324698D01*
G37*
X-9022347Y20324698D02*
X-8827321Y20318062D01*
X-8649330Y20306669D01*
X-8500183Y20290627D01*
X-8498416Y20290379D01*
X-8043411Y20205298D01*
X-7602364Y20081032D01*
X-7177359Y19918612D01*
X-6770476Y19719070D01*
X-6383797Y19483438D01*
X-6019403Y19212747D01*
X-5679376Y18908028D01*
X-5649888Y18878818D01*
X-5338989Y18538882D01*
X-5063133Y18175798D01*
X-4823194Y17791404D01*
X-4620044Y17387541D01*
X-4454556Y16966048D01*
X-4327602Y16528765D01*
X-4240055Y16077531D01*
X-4211145Y15845425D01*
X-4200129Y15688157D01*
X-4195124Y15502339D01*
X-4195807Y15300257D01*
X-4201857Y15094200D01*
X-4212952Y14896456D01*
X-4228770Y14719312D01*
X-4243582Y14607098D01*
X-4335376Y14158250D01*
X-4465122Y13725889D01*
X-4631090Y13311755D01*
X-4831550Y12917589D01*
X-5064772Y12545132D01*
X-5329025Y12196124D01*
X-5622580Y11872307D01*
X-5943707Y11575421D01*
X-6290675Y11307207D01*
X-6661755Y11069404D01*
X-7055216Y10863755D01*
X-7469329Y10692000D01*
X-7902363Y10555878D01*
X-8352588Y10457132D01*
X-8371416Y10453902D01*
X-8470408Y10440591D01*
X-8599137Y10428436D01*
X-8748690Y10417790D01*
X-8910154Y10409003D01*
X-9074616Y10402430D01*
X-9233163Y10398421D01*
X-9376882Y10397328D01*
X-9496860Y10399505D01*
X-9584183Y10405303D01*
X-9588500Y10405812D01*
X-9957731Y10459199D01*
X-10295024Y10526198D01*
X-10609320Y10609416D01*
X-10909558Y10711463D01*
X-11204680Y10834945D01*
X-11424777Y10941527D01*
X-11777625Y11142537D01*
X-12122238Y11379563D01*
X-12450837Y11646290D01*
X-12755644Y11936402D01*
X-13028882Y12243585D01*
X-13029705Y12244598D01*
X-13255365Y12549400D01*
X-13463642Y12884137D01*
X-13648952Y13238089D01*
X-13805709Y13600534D01*
X-13928329Y13960753D01*
X-13934056Y13980583D01*
X-14015687Y14300708D01*
X-14018118Y14313846D01*
X-10699177Y14313846D01*
X-10696543Y14207735D01*
X-10682916Y14085434D01*
X-10659534Y13958917D01*
X-10635069Y13864166D01*
X-10548995Y13646336D01*
X-10426959Y13442112D01*
X-10274208Y13256666D01*
X-10095993Y13095170D01*
X-9897563Y12962796D01*
X-9684168Y12864716D01*
X-9590073Y12834639D01*
X-9461500Y12798893D01*
X-9461421Y12447821D01*
X-9460908Y12315263D01*
X-9458952Y12217748D01*
X-9454822Y12147992D01*
X-9447787Y12098710D01*
X-9437116Y12062617D01*
X-9422078Y12032430D01*
X-9419281Y12027765D01*
X-9347288Y11945330D01*
X-9256010Y11893659D01*
X-9155019Y11875118D01*
X-9053891Y11892075D01*
X-8993672Y11922547D01*
X-8943620Y11960472D01*
X-8906323Y12002487D01*
X-8879971Y12055253D01*
X-8862751Y12125432D01*
X-8852853Y12219683D01*
X-8848464Y12344670D01*
X-8847699Y12459362D01*
X-8847666Y12800808D01*
X-8747125Y12825861D01*
X-8618707Y12868762D01*
X-8476390Y12934187D01*
X-8335639Y13014165D01*
X-8211918Y13100725D01*
X-8208400Y13103525D01*
X-8024683Y13276047D01*
X-7874267Y13470709D01*
X-7757987Y13683068D01*
X-7676679Y13908685D01*
X-7631179Y14143117D01*
X-7622321Y14381922D01*
X-7650940Y14620661D01*
X-7717873Y14854891D01*
X-7823955Y15080171D01*
X-7833527Y15096607D01*
X-7972100Y15292319D01*
X-8140083Y15464178D01*
X-8331832Y15608879D01*
X-8541705Y15723114D01*
X-8764059Y15803577D01*
X-8993251Y15846961D01*
X-9125808Y15853833D01*
X-9326153Y15873735D01*
X-9512737Y15931579D01*
X-9681115Y16024570D01*
X-9826836Y16149916D01*
X-9945454Y16304822D01*
X-9997333Y16401189D01*
X-10033848Y16488329D01*
X-10055860Y16569209D01*
X-10067793Y16663057D01*
X-10071485Y16723381D01*
X-10063556Y16927438D01*
X-10018709Y17111111D01*
X-9936165Y17276064D01*
X-9815145Y17423960D01*
X-9694887Y17527535D01*
X-9544122Y17615508D01*
X-9373681Y17671689D01*
X-9192828Y17695185D01*
X-9010826Y17685101D01*
X-8836938Y17640543D01*
X-8778328Y17615994D01*
X-8616736Y17519141D01*
X-8478094Y17393460D01*
X-8366597Y17245264D01*
X-8286439Y17080871D01*
X-8241815Y16906594D01*
X-8233833Y16796264D01*
X-8223422Y16718617D01*
X-8198013Y16643432D01*
X-8194588Y16636670D01*
X-8139347Y16567502D01*
X-8060645Y16510081D01*
X-7974641Y16474585D01*
X-7926916Y16468048D01*
X-7833815Y16486255D01*
X-7743585Y16535804D01*
X-7672119Y16607754D01*
X-7668047Y16613672D01*
X-7631436Y16702527D01*
X-7617754Y16819105D01*
X-7625507Y16956547D01*
X-7653202Y17107997D01*
X-7699345Y17266598D01*
X-7762441Y17425494D01*
X-7840998Y17577829D01*
X-7897511Y17666991D01*
X-8035041Y17834080D01*
X-8203931Y17986087D01*
X-8393882Y18115459D01*
X-8594597Y18214646D01*
X-8691655Y18249290D01*
X-8847666Y18297719D01*
X-8847666Y18538686D01*
X-8848708Y18648549D01*
X-8852806Y18726320D01*
X-8861421Y18782208D01*
X-8876013Y18826425D01*
X-8893896Y18861908D01*
X-8963500Y18947144D01*
X-9053432Y19000820D01*
X-9154494Y19020787D01*
X-9257483Y19004896D01*
X-9335020Y18964963D01*
X-9384988Y18923481D01*
X-9420111Y18876535D01*
X-9442838Y18816031D01*
X-9455619Y18733877D01*
X-9460902Y18621980D01*
X-9461500Y18547053D01*
X-9461500Y18296003D01*
X-9567063Y18268948D01*
X-9697538Y18224841D01*
X-9841823Y18158660D01*
X-9984169Y18078636D01*
X-10108829Y17993003D01*
X-10134880Y17972104D01*
X-10316711Y17794580D01*
X-10464551Y17595229D01*
X-10577330Y17378375D01*
X-10653979Y17148343D01*
X-10693430Y16909455D01*
X-10694612Y16666037D01*
X-10656457Y16422412D01*
X-10577896Y16182904D01*
X-10577481Y16181916D01*
X-10466659Y15971517D01*
X-10317921Y15774679D01*
X-10214918Y15667986D01*
X-10036675Y15519249D01*
X-9848482Y15404549D01*
X-9643675Y15321053D01*
X-9415589Y15265932D01*
X-9207260Y15239980D01*
X-8991862Y15211161D01*
X-8810126Y15161654D01*
X-8657804Y15089616D01*
X-8530651Y14993204D01*
X-8458109Y14914899D01*
X-8348344Y14748841D01*
X-8276294Y14571383D01*
X-8241826Y14387804D01*
X-8244804Y14203382D01*
X-8285096Y14023395D01*
X-8362568Y13853121D01*
X-8477085Y13697839D01*
X-8489308Y13684669D01*
X-8624138Y13561613D01*
X-8764224Y13475507D01*
X-8917474Y13423232D01*
X-9091798Y13401669D01*
X-9205921Y13402014D01*
X-9309262Y13407775D01*
X-9385639Y13417596D01*
X-9450418Y13434982D01*
X-9518964Y13463437D01*
X-9558419Y13482401D01*
X-9712910Y13573923D01*
X-9837729Y13683775D01*
X-9935532Y13816244D01*
X-10008978Y13975618D01*
X-10060721Y14166184D01*
X-10087345Y14336018D01*
X-10118508Y14441660D01*
X-10179968Y14528175D01*
X-10263905Y14589471D01*
X-10362497Y14619456D01*
X-10447582Y14616636D01*
X-10534673Y14581579D01*
X-10614100Y14517249D01*
X-10672257Y14436288D01*
X-10689581Y14391795D01*
X-10699177Y14313846D01*
X-14018118Y14313846D01*
X-14072950Y14610169D01*
X-14107908Y14923949D01*
X-14122623Y15257027D01*
X-14123396Y15356416D01*
X-14105235Y15809378D01*
X-14049545Y16244981D01*
X-13955441Y16667066D01*
X-13822036Y17079474D01*
X-13648444Y17486043D01*
X-13617526Y17549508D01*
X-13393919Y17954580D01*
X-13138553Y18332570D01*
X-12853230Y18682201D01*
X-12539749Y19002197D01*
X-12199912Y19291280D01*
X-11835520Y19548174D01*
X-11448373Y19771601D01*
X-11040273Y19960284D01*
X-10613019Y20112947D01*
X-10168413Y20228312D01*
X-9736666Y20301555D01*
X-9591570Y20315008D01*
X-9416280Y20323278D01*
X-9222603Y20326473D01*
X-9022347Y20324698D01*
G36*
X9423527Y20331366D02*
G01*
X9852458Y20291815D01*
X10267931Y20215642D01*
X10675409Y20101839D01*
X11080351Y19949401D01*
X11089181Y19945644D01*
X11491009Y19751767D01*
X11872269Y19522702D01*
X12230792Y19260972D01*
X12564408Y18969101D01*
X12870945Y18649612D01*
X13148235Y18305028D01*
X13394106Y17937873D01*
X13606388Y17550671D01*
X13782911Y17145945D01*
X13921504Y16726219D01*
X13949960Y16619288D01*
X14012939Y16328344D01*
X14060442Y16018980D01*
X14091697Y15702212D01*
X14105935Y15389059D01*
X14102386Y15090540D01*
X14080279Y14817672D01*
X14077452Y14795500D01*
X13995727Y14331405D01*
X13875016Y13881995D01*
X13716033Y13448969D01*
X13519487Y13034026D01*
X13286092Y12638863D01*
X13017276Y12266083D01*
X12918424Y12148859D01*
X12795936Y12015116D01*
X12659458Y11874499D01*
X12518634Y11736652D01*
X12383110Y11611220D01*
X12262529Y11507849D01*
X12244917Y11493724D01*
X11933568Y11267513D01*
X11597344Y11060983D01*
X11244647Y10878166D01*
X10883876Y10723096D01*
X10523433Y10599809D01*
X10223500Y10522998D01*
X9824180Y10454214D01*
X9415678Y10415211D01*
X9012469Y10407096D01*
X8815917Y10415059D01*
X8373467Y10463566D01*
X7935531Y10552756D01*
X7506598Y10681116D01*
X7091156Y10847133D01*
X6693695Y11049292D01*
X6402442Y11228823D01*
X6026297Y11503938D01*
X5683672Y11804745D01*
X5373797Y12132111D01*
X5095906Y12486899D01*
X4849228Y12869974D01*
X4700626Y13143697D01*
X4519381Y13543924D01*
X4374871Y13956690D01*
X4291291Y14285248D01*
X7600290Y14285248D01*
X7608109Y14155318D01*
X7632285Y14011631D01*
X7671391Y13861920D01*
X7723996Y13713919D01*
X7788674Y13575363D01*
X7813352Y13531455D01*
X7884702Y13429273D01*
X7981431Y13316264D01*
X8092607Y13203358D01*
X8207297Y13101489D01*
X8314568Y13021589D01*
X8337821Y13007000D01*
X8427567Y12958899D01*
X8535476Y12909243D01*
X8639073Y12868332D01*
X8644738Y12866354D01*
X8815917Y12807126D01*
X8826500Y12451938D01*
X8831941Y12316560D01*
X8839315Y12202762D01*
X8848082Y12116662D01*
X8857702Y12064374D01*
X8861598Y12054416D01*
X8931175Y11970483D01*
X9023985Y11908419D01*
X9125566Y11877533D01*
X9138280Y11876319D01*
X9172958Y11882605D01*
X9228494Y11900537D01*
X9249678Y11908657D01*
X9308368Y11935494D01*
X9352925Y11966845D01*
X9385501Y12008766D01*
X9408251Y12067311D01*
X9423329Y12148537D01*
X9432889Y12258498D01*
X9439084Y12403251D01*
X9440334Y12444658D01*
X9450917Y12813734D01*
X9556750Y12840522D01*
X9624634Y12862623D01*
X9714050Y12898369D01*
X9809269Y12941318D01*
X9842500Y12957582D01*
X10004324Y13056611D01*
X10163640Y13186571D01*
X10309729Y13336867D01*
X10431870Y13496901D01*
X10493165Y13600781D01*
X10584251Y13803538D01*
X10641975Y13999186D01*
X10669759Y14201567D01*
X10673494Y14329833D01*
X10652168Y14585687D01*
X10592119Y14827830D01*
X10495384Y15053013D01*
X10363999Y15257985D01*
X10200003Y15439498D01*
X10005433Y15594302D01*
X9810750Y15705754D01*
X9683170Y15762398D01*
X9560974Y15804510D01*
X9431666Y15835174D01*
X9282751Y15857473D01*
X9138917Y15871544D01*
X8958312Y15894583D01*
X8808351Y15933598D01*
X8679073Y15992600D01*
X8560518Y16075595D01*
X8501330Y16128117D01*
X8377239Y16271725D01*
X8289690Y16429143D01*
X8237191Y16595592D01*
X8218250Y16766291D01*
X8231375Y16936463D01*
X8275075Y17101326D01*
X8347857Y17256101D01*
X8448231Y17396010D01*
X8574704Y17516272D01*
X8725784Y17612108D01*
X8899980Y17678738D01*
X8991624Y17698987D01*
X9181003Y17711310D01*
X9362915Y17684850D01*
X9532922Y17623048D01*
X9686585Y17529346D01*
X9819467Y17407185D01*
X9927130Y17260007D01*
X10005137Y17091255D01*
X10049048Y16904368D01*
X10052274Y16876446D01*
X10065084Y16786355D01*
X10083242Y16703679D01*
X10103031Y16645019D01*
X10104937Y16641151D01*
X10169650Y16559824D01*
X10260907Y16507598D01*
X10370784Y16488993D01*
X10371667Y16488991D01*
X10483747Y16507052D01*
X10573424Y16561010D01*
X10640191Y16650531D01*
X10650643Y16672432D01*
X10671370Y16723896D01*
X10682125Y16769502D01*
X10683835Y16822545D01*
X10677427Y16896327D01*
X10670293Y16954354D01*
X10617300Y17215294D01*
X10528253Y17454657D01*
X10403621Y17671575D01*
X10243871Y17865183D01*
X10114692Y17983677D01*
X9997527Y18067913D01*
X9857508Y18150137D01*
X9711543Y18221376D01*
X9576537Y18272657D01*
X9562042Y18276995D01*
X9440334Y18312170D01*
X9440334Y18843903D01*
X9347869Y18936368D01*
X9292318Y18988511D01*
X9248738Y19016276D01*
X9201239Y19027160D01*
X9152077Y19028754D01*
X9035085Y19010185D01*
X8937408Y18956819D01*
X8875275Y18887992D01*
X8857658Y18851638D01*
X8844820Y18799521D01*
X8835575Y18723790D01*
X8828735Y18616593D01*
X8826500Y18565505D01*
X8815917Y18301213D01*
X8710084Y18274451D01*
X8642231Y18252343D01*
X8552856Y18216543D01*
X8457670Y18173502D01*
X8424334Y18157138D01*
X8324182Y18102120D01*
X8236114Y18041734D01*
X8146714Y17965889D01*
X8064170Y17886252D01*
X7899086Y17700471D01*
X7773393Y17510492D01*
X7684205Y17309870D01*
X7628640Y17092157D01*
X7604110Y16857932D01*
X7606586Y16648797D01*
X7635488Y16455347D01*
X7693799Y16263853D01*
X7771502Y16086666D01*
X7819618Y15995866D01*
X7870816Y15917163D01*
X7933940Y15838827D01*
X8017835Y15749129D01*
X8052175Y15714446D01*
X8144505Y15624825D01*
X8221462Y15558189D01*
X8295317Y15505464D01*
X8378339Y15457575D01*
X8445500Y15423529D01*
X8603283Y15352102D01*
X8745226Y15302830D01*
X8888297Y15271120D01*
X9049469Y15252377D01*
X9087942Y15249610D01*
X9308109Y15221401D01*
X9497044Y15166958D01*
X9657881Y15084765D01*
X9793755Y14973308D01*
X9884914Y14864398D01*
X9976057Y14702662D01*
X10032966Y14524683D01*
X10054815Y14338896D01*
X10040783Y14153741D01*
X9990046Y13977653D01*
X9974828Y13942995D01*
X9874290Y13774617D01*
X9746797Y13635481D01*
X9597455Y13527362D01*
X9431368Y13452033D01*
X9253641Y13411267D01*
X9069381Y13406840D01*
X8883691Y13440524D01*
X8717304Y13506031D01*
X8563216Y13606681D01*
X8431615Y13738377D01*
X8326975Y13893854D01*
X8253769Y14065848D01*
X8216471Y14247094D01*
X8212588Y14325583D01*
X8200838Y14398832D01*
X8172462Y14469509D01*
X8170448Y14472902D01*
X8097520Y14556824D01*
X8007120Y14607314D01*
X7907745Y14624371D01*
X7807893Y14607996D01*
X7716061Y14558188D01*
X7640745Y14474948D01*
X7639440Y14472902D01*
X7610258Y14393688D01*
X7600290Y14285248D01*
X4291291Y14285248D01*
X4265138Y14388056D01*
X4218683Y14636750D01*
X4199639Y14789923D01*
X4186491Y14974600D01*
X4179167Y15180396D01*
X4177598Y15396925D01*
X4181711Y15613803D01*
X4191434Y15820645D01*
X4206697Y16007065D01*
X4227428Y16162679D01*
X4229243Y16173052D01*
X4332338Y16635603D01*
X4472548Y17078817D01*
X4649074Y17501471D01*
X4861116Y17902342D01*
X5107875Y18280205D01*
X5388553Y18633838D01*
X5702350Y18962017D01*
X6048467Y19263518D01*
X6426106Y19537118D01*
X6426125Y19537130D01*
X6814024Y19767838D01*
X7219219Y19960173D01*
X7640056Y20113617D01*
X8074877Y20227652D01*
X8522030Y20301760D01*
X8975678Y20335302D01*
X9423527Y20331366D01*
G37*
X9423527Y20331366D02*
X9852458Y20291815D01*
X10267931Y20215642D01*
X10675409Y20101839D01*
X11080351Y19949401D01*
X11089181Y19945644D01*
X11491009Y19751767D01*
X11872269Y19522702D01*
X12230792Y19260972D01*
X12564408Y18969101D01*
X12870945Y18649612D01*
X13148235Y18305028D01*
X13394106Y17937873D01*
X13606388Y17550671D01*
X13782911Y17145945D01*
X13921504Y16726219D01*
X13949960Y16619288D01*
X14012939Y16328344D01*
X14060442Y16018980D01*
X14091697Y15702212D01*
X14105935Y15389059D01*
X14102386Y15090540D01*
X14080279Y14817672D01*
X14077452Y14795500D01*
X13995727Y14331405D01*
X13875016Y13881995D01*
X13716033Y13448969D01*
X13519487Y13034026D01*
X13286092Y12638863D01*
X13017276Y12266083D01*
X12918424Y12148859D01*
X12795936Y12015116D01*
X12659458Y11874499D01*
X12518634Y11736652D01*
X12383110Y11611220D01*
X12262529Y11507849D01*
X12244917Y11493724D01*
X11933568Y11267513D01*
X11597344Y11060983D01*
X11244647Y10878166D01*
X10883876Y10723096D01*
X10523433Y10599809D01*
X10223500Y10522998D01*
X9824180Y10454214D01*
X9415678Y10415211D01*
X9012469Y10407096D01*
X8815917Y10415059D01*
X8373467Y10463566D01*
X7935531Y10552756D01*
X7506598Y10681116D01*
X7091156Y10847133D01*
X6693695Y11049292D01*
X6402442Y11228823D01*
X6026297Y11503938D01*
X5683672Y11804745D01*
X5373797Y12132111D01*
X5095906Y12486899D01*
X4849228Y12869974D01*
X4700626Y13143697D01*
X4519381Y13543924D01*
X4374871Y13956690D01*
X4291291Y14285248D01*
X7600290Y14285248D01*
X7608109Y14155318D01*
X7632285Y14011631D01*
X7671391Y13861920D01*
X7723996Y13713919D01*
X7788674Y13575363D01*
X7813352Y13531455D01*
X7884702Y13429273D01*
X7981431Y13316264D01*
X8092607Y13203358D01*
X8207297Y13101489D01*
X8314568Y13021589D01*
X8337821Y13007000D01*
X8427567Y12958899D01*
X8535476Y12909243D01*
X8639073Y12868332D01*
X8644738Y12866354D01*
X8815917Y12807126D01*
X8826500Y12451938D01*
X8831941Y12316560D01*
X8839315Y12202762D01*
X8848082Y12116662D01*
X8857702Y12064374D01*
X8861598Y12054416D01*
X8931175Y11970483D01*
X9023985Y11908419D01*
X9125566Y11877533D01*
X9138280Y11876319D01*
X9172958Y11882605D01*
X9228494Y11900537D01*
X9249678Y11908657D01*
X9308368Y11935494D01*
X9352925Y11966845D01*
X9385501Y12008766D01*
X9408251Y12067311D01*
X9423329Y12148537D01*
X9432889Y12258498D01*
X9439084Y12403251D01*
X9440334Y12444658D01*
X9450917Y12813734D01*
X9556750Y12840522D01*
X9624634Y12862623D01*
X9714050Y12898369D01*
X9809269Y12941318D01*
X9842500Y12957582D01*
X10004324Y13056611D01*
X10163640Y13186571D01*
X10309729Y13336867D01*
X10431870Y13496901D01*
X10493165Y13600781D01*
X10584251Y13803538D01*
X10641975Y13999186D01*
X10669759Y14201567D01*
X10673494Y14329833D01*
X10652168Y14585687D01*
X10592119Y14827830D01*
X10495384Y15053013D01*
X10363999Y15257985D01*
X10200003Y15439498D01*
X10005433Y15594302D01*
X9810750Y15705754D01*
X9683170Y15762398D01*
X9560974Y15804510D01*
X9431666Y15835174D01*
X9282751Y15857473D01*
X9138917Y15871544D01*
X8958312Y15894583D01*
X8808351Y15933598D01*
X8679073Y15992600D01*
X8560518Y16075595D01*
X8501330Y16128117D01*
X8377239Y16271725D01*
X8289690Y16429143D01*
X8237191Y16595592D01*
X8218250Y16766291D01*
X8231375Y16936463D01*
X8275075Y17101326D01*
X8347857Y17256101D01*
X8448231Y17396010D01*
X8574704Y17516272D01*
X8725784Y17612108D01*
X8899980Y17678738D01*
X8991624Y17698987D01*
X9181003Y17711310D01*
X9362915Y17684850D01*
X9532922Y17623048D01*
X9686585Y17529346D01*
X9819467Y17407185D01*
X9927130Y17260007D01*
X10005137Y17091255D01*
X10049048Y16904368D01*
X10052274Y16876446D01*
X10065084Y16786355D01*
X10083242Y16703679D01*
X10103031Y16645019D01*
X10104937Y16641151D01*
X10169650Y16559824D01*
X10260907Y16507598D01*
X10370784Y16488993D01*
X10371667Y16488991D01*
X10483747Y16507052D01*
X10573424Y16561010D01*
X10640191Y16650531D01*
X10650643Y16672432D01*
X10671370Y16723896D01*
X10682125Y16769502D01*
X10683835Y16822545D01*
X10677427Y16896327D01*
X10670293Y16954354D01*
X10617300Y17215294D01*
X10528253Y17454657D01*
X10403621Y17671575D01*
X10243871Y17865183D01*
X10114692Y17983677D01*
X9997527Y18067913D01*
X9857508Y18150137D01*
X9711543Y18221376D01*
X9576537Y18272657D01*
X9562042Y18276995D01*
X9440334Y18312170D01*
X9440334Y18843903D01*
X9347869Y18936368D01*
X9292318Y18988511D01*
X9248738Y19016276D01*
X9201239Y19027160D01*
X9152077Y19028754D01*
X9035085Y19010185D01*
X8937408Y18956819D01*
X8875275Y18887992D01*
X8857658Y18851638D01*
X8844820Y18799521D01*
X8835575Y18723790D01*
X8828735Y18616593D01*
X8826500Y18565505D01*
X8815917Y18301213D01*
X8710084Y18274451D01*
X8642231Y18252343D01*
X8552856Y18216543D01*
X8457670Y18173502D01*
X8424334Y18157138D01*
X8324182Y18102120D01*
X8236114Y18041734D01*
X8146714Y17965889D01*
X8064170Y17886252D01*
X7899086Y17700471D01*
X7773393Y17510492D01*
X7684205Y17309870D01*
X7628640Y17092157D01*
X7604110Y16857932D01*
X7606586Y16648797D01*
X7635488Y16455347D01*
X7693799Y16263853D01*
X7771502Y16086666D01*
X7819618Y15995866D01*
X7870816Y15917163D01*
X7933940Y15838827D01*
X8017835Y15749129D01*
X8052175Y15714446D01*
X8144505Y15624825D01*
X8221462Y15558189D01*
X8295317Y15505464D01*
X8378339Y15457575D01*
X8445500Y15423529D01*
X8603283Y15352102D01*
X8745226Y15302830D01*
X8888297Y15271120D01*
X9049469Y15252377D01*
X9087942Y15249610D01*
X9308109Y15221401D01*
X9497044Y15166958D01*
X9657881Y15084765D01*
X9793755Y14973308D01*
X9884914Y14864398D01*
X9976057Y14702662D01*
X10032966Y14524683D01*
X10054815Y14338896D01*
X10040783Y14153741D01*
X9990046Y13977653D01*
X9974828Y13942995D01*
X9874290Y13774617D01*
X9746797Y13635481D01*
X9597455Y13527362D01*
X9431368Y13452033D01*
X9253641Y13411267D01*
X9069381Y13406840D01*
X8883691Y13440524D01*
X8717304Y13506031D01*
X8563216Y13606681D01*
X8431615Y13738377D01*
X8326975Y13893854D01*
X8253769Y14065848D01*
X8216471Y14247094D01*
X8212588Y14325583D01*
X8200838Y14398832D01*
X8172462Y14469509D01*
X8170448Y14472902D01*
X8097520Y14556824D01*
X8007120Y14607314D01*
X7907745Y14624371D01*
X7807893Y14607996D01*
X7716061Y14558188D01*
X7640745Y14474948D01*
X7639440Y14472902D01*
X7610258Y14393688D01*
X7600290Y14285248D01*
X4291291Y14285248D01*
X4265138Y14388056D01*
X4218683Y14636750D01*
X4199639Y14789923D01*
X4186491Y14974600D01*
X4179167Y15180396D01*
X4177598Y15396925D01*
X4181711Y15613803D01*
X4191434Y15820645D01*
X4206697Y16007065D01*
X4227428Y16162679D01*
X4229243Y16173052D01*
X4332338Y16635603D01*
X4472548Y17078817D01*
X4649074Y17501471D01*
X4861116Y17902342D01*
X5107875Y18280205D01*
X5388553Y18633838D01*
X5702350Y18962017D01*
X6048467Y19263518D01*
X6426106Y19537118D01*
X6426125Y19537130D01*
X6814024Y19767838D01*
X7219219Y19960173D01*
X7640056Y20113617D01*
X8074877Y20227652D01*
X8522030Y20301760D01*
X8975678Y20335302D01*
X9423527Y20331366D01*
M02*
