<?xml version="1.0" encoding="UTF-8" standalone="no"?>
<svg
   xmlns:dc="http://purl.org/dc/elements/1.1/"
   xmlns:cc="http://creativecommons.org/ns#"
   xmlns:rdf="http://www.w3.org/1999/02/22-rdf-syntax-ns#"
   xmlns:svg="http://www.w3.org/2000/svg"
   xmlns="http://www.w3.org/2000/svg"
   xmlns:sodipodi="http://sodipodi.sourceforge.net/DTD/sodipodi-0.dtd"
   xmlns:inkscape="http://www.inkscape.org/namespaces/inkscape"
   width="100.0mm"
   height="100.0mm"
   viewBox="0 0 100.0 100.0"
   version="1.1"
   id="svg8"
   sodipodi:docname="ocean_tile_ore.svg"
   inkscape:version="1.0.2 (394de47547, 2021-03-26)">
  <defs
     id="defs2" />
  <sodipodi:namedview
     id="base"
     pagecolor="#ffffff"
     bordercolor="#666666"
     borderopacity="1.0"
     inkscape:pageopacity="0.0"
     inkscape:pageshadow="2"
     inkscape:zoom="2.492375"
     inkscape:cx="188.97638"
     inkscape:cy="188.97638"
     inkscape:document-units="mm"
     inkscape:current-layer="g852"
     inkscape:document-rotation="0"
     showgrid="false"
     inkscape:window-width="1884"
     inkscape:window-height="2096"
     inkscape:window-x="1956"
     inkscape:window-y="27"
     inkscape:window-maximized="0" />
  <metadata
     id="metadata5">
    <rdf:RDF>
      <cc:Work
         rdf:about="">
        <dc:format>image/svg+xml</dc:format>
        <dc:type
           rdf:resource="http://purl.org/dc/dcmitype/StillImage" />
        <dc:title></dc:title>
      </cc:Work>
    </rdf:RDF>
  </metadata>
  <g
     inkscape:label="[fixed] BG"
     inkscape:groupmode="layer"
     sodipodi:insensitive="true"
     id="g838"
     style="display:inline">
    <rect
       x="0"
       y="0"
       width="100"
       height="100"
       style="fill:#ffffff;fill-opacity:1;stroke:none"
       id="rect836" />
  </g>
  <g
     inkscape:label="Edge.Cuts"
     inkscape:groupmode="layer"
     id="g840"
     style="display:inline">
    <path
       id="path864"
       style="fill:none;stroke:#000600;stroke-width:0.104494;stroke-opacity:1"
       d="M 64.9801 75.9228 L 35.0404 75.9346 L 20.0603 50.012 L 35.0199 24.0776 L 64.9596 24.0658 L 79.9397 49.9884 L 64.9801 75.9228" />
    <g
       id="g12"
       transform="matrix(0.06155521,0,0,0.06155521,32.937862,26.940854)">
      <g
         id="g10" />
    </g>
  </g>
  <g
     inkscape:label="B.Cu"
     inkscape:groupmode="layer"
     id="g842"
     style="display:inline">
    <path
       d="m 164.53497,319.42382 c -9.717,0 -18.94,-4.233 -25.305,-11.614 -1.709,-1.982 -4.198,-3.123 -6.816,-3.123 -2.618,0 -5.106,1.14 -6.816,3.123 -6.363,7.38 -15.586,11.613 -25.304,11.613 -9.717997,0 -18.939997,-4.233 -25.304997,-11.614 -1.709,-1.982 -4.198,-3.123 -6.816,-3.123 -2.618,0 -5.106,1.14 -6.816,3.123 -6.36299,7.38 -15.58599,11.613 -25.30399,11.613 -9.718001,0 -18.940003,-4.233 -25.304003,-11.613 -1.7100002,-1.983 -4.1980002,-3.123 -6.8160002,-3.123 -2.618,0 -5.106,1.14 -6.816,3.123 -6.364,7.381 -15.5869998,11.614 -25.3049998,11.614 -9.718,0 -18.94,-4.233 -25.304,-11.613 -1.71,-1.983 -4.198,-3.123 -6.816,-3.123 -2.618,0 -5.105999,1.14 -6.815999,3.123 -6.364,7.382 -15.587,11.614 -25.304001,11.614 -4.971,0 -9,4.029 -9,9 0,4.971 4.029,9 9,9 10.469001,0 20.558001,-3.195 29.029,-9 1.055,-0.723 2.09,-1.48 3.092,-2.283 1.002,0.803 2.037,1.56 3.092,2.283 8.47,5.805 18.56,9 29.028,9 10.468,0 20.5579998,-3.195 29.02899975,-9 1.05500005,-0.723 2.09000005,-1.48 3.09200005,-2.283 1.002,0.803 2.037,1.56 3.092,2.283 8.4700002,5.805 18.5600022,9 29.0280032,9 10.468,0 20.55799,-3.195 29.02799,-9 1.055,-0.723 2.089,-1.48 3.092,-2.283 1.002,0.803 2.037,1.56 3.092,2.283 8.47,5.805 18.56,9 29.028997,9 10.469,0 20.558,-3.195 29.028,-9 1.055,-0.723 2.089,-1.48 3.092,-2.283 1.002,0.803 2.037,1.56 3.092,2.283 8.47,5.805 18.56,9 29.029,9 4.971,0 9,-4.029 9,-9 0,-4.971 -4.03,-9 -9.001,-9 z"
       id="path937"
       style="display:inline;fill:#0f3dd1;fill-opacity:1"
       transform="matrix(0.06155521,0,0,0.06155521,32.937863,26.940854)" />
    <path
       d="m 252.51396,146.09529 c -9.717,0 -18.94,-4.233 -25.305,-11.614 -1.709,-1.982 -4.198,-3.123 -6.816,-3.123 -2.618,0 -5.106,1.14 -6.816,3.123 -6.363,7.38 -15.586,11.613 -25.304,11.613 -9.718,0 -18.94,-4.233 -25.305,-11.614 -1.709,-1.982 -4.198,-3.123 -6.816,-3.123 -2.618,0 -5.106,1.14 -6.816,3.123 -6.363,7.38 -15.586,11.613 -25.30399,11.613 -9.718,0 -18.94,-4.233 -25.303998,-11.613 -1.71,-1.983 -4.198,-3.123 -6.816,-3.123 -2.618,0 -5.105996,1.14 -6.815996,3.123 -6.364,7.381 -15.587005,11.614 -25.305005,11.614 -9.718,0 -18.94,-4.233 -25.304,-11.613 -1.71,-1.983 -4.198,-3.123 -6.816,-3.123 -2.618,0 -5.106,1.14 -6.816,3.123 -6.364,7.381 -15.5869996,11.614 -25.3039994,11.614 -4.971,0 -8.9999996,4.029 -8.9999996,9.00001 0,4.971 4.0289996,9 8.9999996,9 10.4689998,0 20.5579994,-3.195 29.0289994,-9 1.055,-0.723 2.089,-1.48 3.092,-2.283 1.002,0.803 2.037,1.56 3.092,2.283 8.47,5.805 18.56,9 29.028,9 10.468,0 20.558005,-3.195 29.029001,-9 1.055,-0.723 2.089,-1.48 3.092,-2.283 1.002,0.803 2.037,1.56 3.092,2.283 8.469998,5.805 18.559998,9 29.027998,9 10.46799,0 20.55799,-3.195 29.02799,-9 1.055,-0.723 2.089,-1.48 3.092,-2.283 1.002,0.803 2.037,1.56 3.092,2.283 8.471,5.805 18.56,9 29.029,9 10.469,0 20.558,-3.195 29.028,-9 1.055,-0.723 2.089,-1.48 3.092,-2.283 1.002,0.803 2.037,1.56 3.092,2.283 8.471,5.805 18.56,9 29.029,9 4.971,0 9,-4.029 9,-9 0,-4.97001 -4.03,-9.00001 -9.001,-9.00001 z"
       id="path939"
       style="display:inline;fill:#0f3dd1;fill-opacity:1"
       transform="matrix(0.06155521,0,0,0.06155521,32.937863,26.940854)" />
    <path
       d="m 282.43673,255.35288 c 10.469,0 20.558,-3.195 29.029,-9 1.055,-0.723 2.089,-1.48 3.092,-2.283 1.002,0.803 2.037,1.56 3.092,2.283 8.47,5.805 18.56,9 29.028,9 10.468,0 20.558,-3.195 29.029,-9 1.055,-0.723 2.089,-1.48 3.092,-2.283 1.002,0.803 2.037,1.56 3.092,2.283 8.47,5.805 18.56,9 29.028,9 10.468,0 20.558,-3.195 29.028,-9 1.055,-0.723 2.089,-1.48 3.092,-2.283 1.002,0.803 2.037,1.56 3.092,2.283 8.471,5.805 18.56,9 29.029,9 10.469,0 20.558,-3.195 29.028,-9 1.055,-0.723 2.089,-1.48 3.092,-2.283 1.002,0.803 2.037,1.56 3.092,2.283 8.471,5.805 18.56,9 29.029,9 4.971,0 9,-4.029 9,-9 0,-4.971 -4.029,-9 -9,-9 -9.717,0 -18.94,-4.233 -25.305,-11.614 -1.709,-1.982 -4.198,-3.123 -6.816,-3.123 -2.618,0 -5.106,1.14 -6.816,3.123 -6.363,7.38 -15.586,11.613 -25.304,11.613 -9.718,0 -18.94,-4.233 -25.305,-11.614 -1.709,-1.982 -4.198,-3.123 -6.816,-3.123 -2.618,0 -5.106,1.14 -6.816,3.123 -6.363,7.38 -15.586,11.613 -25.304,11.613 -9.718,0 -18.94,-4.233 -25.304,-11.613 -1.71,-1.983 -4.198,-3.123 -6.816,-3.123 -2.618,0 -5.106,1.14 -6.816,3.123 -6.364,7.381 -15.587,11.614 -25.305,11.614 -9.718,0 -18.941,-4.232 -25.304,-11.612 -1.71,-1.983 -4.198,-3.123 -6.816,-3.123 -2.618,0 -5.106,1.14 -6.816,3.123 -6.365,7.381 -15.588,11.613 -25.305,11.613 -4.971,0 -9,4.029 -9,9 0,4.971 4.029,9 9,9 z"
       id="path941"
       style="display:inline;fill:#0f3dd1;fill-opacity:1"
       transform="matrix(0.06155521,0,0,0.06155521,32.937863,26.940854)" />
    <path
       d="m 665.27864,409.56181 c -9.71701,0 -18.94001,-4.233 -25.30501,-11.614 -1.709,-1.982 -4.198,-3.123 -6.81599,-3.123 -2.618,0 -5.106,1.14 -6.816,3.123 -6.36301,7.38 -15.58601,11.613 -25.30401,11.613 -9.718,0 -18.94,-4.233 -25.30499,-11.614 -1.709,-1.982 -4.198,-3.123 -6.816,-3.123 -2.61801,0 -5.106,1.14 -6.81601,3.123 -6.36299,7.38 -15.586,11.613 -25.304,11.613 -9.71799,0 -18.94,-4.233 -25.304,-11.613 -1.71,-1.983 -4.198,-3.123 -6.81599,-3.123 -2.61801,0 -5.106,1.14 -6.81601,3.123 -6.36399,7.381 -15.587,11.614 -25.305,11.614 -9.71799,0 -18.93999,-4.233 -25.30399,-11.613 -1.71,-1.983 -4.198,-3.123 -6.81601,-3.123 -2.618,0 -5.106,1.14 -6.81599,3.123 -6.364,7.382 -15.587,11.614 -25.304,11.614 -4.971,0 -9,4.029 -9,9 0,4.971 4.029,9 9,9 10.469,0 20.55799,-3.195 29.02899,-9 1.055,-0.723 2.09,-1.48 3.092,-2.283 1.002,0.803 2.03701,1.56 3.092,2.283 8.47,5.805 18.56,9 29.028,9 10.468,0 20.55801,-3.195 29.02901,-9 1.05499,-0.723 2.08999,-1.48 3.09199,-2.283 1.002,0.803 2.037,1.56 3.092,2.283 8.47,5.805 18.56001,9 29.02801,9 10.46799,0 20.558,-3.195 29.028,-9 1.05499,-0.723 2.089,-1.48 3.092,-2.283 1.002,0.803 2.037,1.56 3.09199,2.283 8.47,5.805 18.56001,9 29.02901,9 10.469,0 20.55799,-3.195 29.028,-9 1.05499,-0.723 2.089,-1.48 3.09199,-2.283 1.002,0.803 2.037,1.56 3.09201,2.283 8.46999,5.805 18.56,9 29.02899,9 4.97101,0 9,-4.029 9,-9 0,-4.971 -4.03,-9 -9.00099,-9 z"
       id="path943"
       style="display:inline;stroke-width:1;fill:#0f3dd1;fill-opacity:1"
       transform="matrix(0.06155521,0,0,0.06155521,32.937863,26.940854)" />
    <path
       d="m 247.41612,490.28892 c -9.71701,0 -18.94001,-4.233 -25.30501,-11.614 -1.709,-1.982 -4.198,-3.123 -6.81599,-3.123 -2.618,0 -5.106,1.14 -6.816,3.123 -6.36301,7.38 -15.58601,11.613 -25.30401,11.613 -9.718,0 -18.94,-4.233 -25.30499,-11.614 -1.709,-1.982 -4.198,-3.123 -6.816,-3.123 -2.61801,0 -5.106,1.14 -6.81601,3.123 -6.36299,7.38 -15.586,11.613 -25.30399,11.613 -9.71799,0 -18.940001,-4.233 -25.304003,-11.613 -1.71,-1.983 -4.198,-3.123 -6.81599,-3.123 -2.61801,0 -5.106,1.14 -6.81601,3.123 -6.36399,7.381 -15.587,11.614 -25.305,11.614 -9.71799,0 -18.93999,-4.233 -25.30399,-11.613 -1.71,-1.983 -4.198,-3.123 -6.81601,-3.123 -2.618,0 -5.106,1.14 -6.81599,3.123 -6.3639999,7.382 -15.58699986,11.614 -25.3039999,11.614 -4.9710001,0 -9.0000001,4.029 -9.0000001,9 0,4.971 4.029,9 9.0000001,9 10.46900004,0 20.5579899,-3.195 29.0289899,-9 1.055,-0.723 2.09,-1.48 3.092,-2.283 1.002,0.803 2.03701,1.56 3.092,2.283 8.47,5.805 18.56,9 29.028,9 10.468,0 20.55801,-3.195 29.02901,-9 1.05499,-0.723 2.08999,-1.48 3.09199,-2.283 1.002,0.803 2.037,1.56 3.092,2.283 8.470002,5.805 18.560013,9 29.028013,9 10.46798,0 20.55799,-3.195 29.02799,-9 1.05499,-0.723 2.089,-1.48 3.092,-2.283 1.002,0.803 2.037,1.56 3.09199,2.283 8.47,5.805 18.56001,9 29.02901,9 10.469,0 20.55799,-3.195 29.028,-9 1.05499,-0.723 2.089,-1.48 3.09199,-2.283 1.002,0.803 2.037,1.56 3.09201,2.283 8.46999,5.805 18.56,9 29.02899,9 4.97101,0 9,-4.029 9,-9 0,-4.971 -4.03,-9 -9.00099,-9 z"
       id="path945"
       style="display:inline;stroke-width:1;fill:#0f3dd1;fill-opacity:1"
       transform="matrix(0.06155521,0,0,0.06155521,32.937863,26.940854)" />
    <path
       d="m 540.5812,592.69135 c -9.71701,0 -18.94001,-4.233 -25.30501,-11.614 -1.709,-1.982 -4.198,-3.123 -6.81599,-3.123 -2.618,0 -5.106,1.14 -6.816,3.123 -6.36301,7.38 -15.58601,11.613 -25.30401,11.613 -9.718,0 -18.94,-4.233 -25.30499,-11.614 -1.709,-1.982 -4.198,-3.123 -6.816,-3.123 -2.61801,0 -5.106,1.14 -6.81601,3.123 -6.36299,7.38 -15.586,11.613 -25.304,11.613 -9.71799,0 -18.94,-4.233 -25.304,-11.613 -1.71,-1.983 -4.198,-3.123 -6.81599,-3.123 -2.61801,0 -5.106,1.14 -6.81601,3.123 -6.36399,7.381 -15.587,11.614 -25.305,11.614 -9.71799,0 -18.93999,-4.233 -25.30399,-11.613 -1.71,-1.983 -4.198,-3.123 -6.81601,-3.123 -2.618,0 -5.106,1.14 -6.81599,3.123 -6.364,7.382 -15.587,11.614 -25.304,11.614 -4.971,0 -9,4.029 -9,9 0,4.971 4.029,9 9,9 10.469,0 20.55799,-3.195 29.02899,-9 1.055,-0.723 2.09,-1.48 3.092,-2.283 1.002,0.803 2.03701,1.56 3.092,2.283 8.47,5.805 18.56,9 29.028,9 10.468,0 20.55801,-3.195 29.02901,-9 1.05499,-0.723 2.08999,-1.48 3.09199,-2.283 1.002,0.803 2.037,1.56 3.092,2.283 8.47,5.805 18.56001,9 29.02801,9 10.46799,0 20.558,-3.195 29.028,-9 1.05499,-0.723 2.089,-1.48 3.092,-2.283 1.002,0.803 2.037,1.56 3.09199,2.283 8.47,5.805 18.56001,9 29.02901,9 10.469,0 20.55799,-3.195 29.028,-9 1.05499,-0.723 2.089,-1.48 3.09199,-2.283 1.002,0.803 2.037,1.56 3.09201,2.283 8.46999,5.805 18.56,9 29.02899,9 4.97101,0 9,-4.029 9,-9 0,-4.971 -4.03,-9 -9.00099,-9 z"
       id="path947"
       style="display:inline;stroke-width:1;fill:#0f3dd1;fill-opacity:1"
       transform="matrix(0.06155521,0,0,0.06155521,32.937863,26.940854)" />
    <path
       d="m 318.88223,701.38976 c -9.71701,0 -18.94001,-4.233 -25.30501,-11.614 -1.709,-1.982 -4.198,-3.123 -6.81599,-3.123 -2.618,0 -5.106,1.14 -6.816,3.123 -6.36301,7.38 -15.58601,11.613 -25.30401,11.613 -9.718,0 -18.94,-4.233 -25.30499,-11.614 -1.709,-1.982 -4.198,-3.123 -6.816,-3.123 -2.61801,0 -5.106,1.14 -6.81601,3.123 -6.36299,7.38 -15.586,11.613 -25.304,11.613 -9.71799,0 -18.94,-4.233 -25.304,-11.613 -1.71,-1.983 -4.198,-3.123 -6.81599,-3.123 -2.61801,0 -5.106,1.14 -6.81601,3.123 -6.36399,7.381 -15.587,11.614 -25.305,11.614 -9.71799,0 -18.93999,-4.233 -25.30399,-11.613 -1.710002,-1.983 -4.198002,-3.123 -6.816012,-3.123 -2.618,0 -5.106,1.14 -6.81599,3.123 -6.364,7.382 -15.587,11.614 -25.304,11.614 -4.971,0 -9,4.029 -9,9 0,4.971 4.029,9 9,9 10.469,0 20.55799,-3.195 29.02899,-9 1.055,-0.723 2.09,-1.48 3.092,-2.283 1.002,0.803 2.03701,1.56 3.092,2.283 8.470002,5.805 18.560002,9 29.028002,9 10.468,0 20.55801,-3.195 29.02901,-9 1.05499,-0.723 2.08999,-1.48 3.09199,-2.283 1.002,0.803 2.037,1.56 3.092,2.283 8.47,5.805 18.56001,9 29.02801,9 10.46799,0 20.558,-3.195 29.028,-9 1.05499,-0.723 2.089,-1.48 3.092,-2.283 1.002,0.803 2.037,1.56 3.09199,2.283 8.47,5.805 18.56001,9 29.02901,9 10.469,0 20.55799,-3.195 29.028,-9 1.05499,-0.723 2.089,-1.48 3.09199,-2.283 1.002,0.803 2.037,1.56 3.09201,2.283 8.46999,5.805 18.56,9 29.02899,9 4.97101,0 9,-4.029 9,-9 0,-4.971 -4.03,-9 -9.00099,-9 z"
       id="path949"
       style="display:inline;stroke-width:1;fill:#0f3dd1;fill-opacity:1"
       transform="matrix(0.06155521,0,0,0.06155521,32.937863,26.940854)" />
    <path
       d="m 64.356423,29.583777 c -0.598132,0 -1.165856,-0.260564 -1.557655,-0.714903 -0.105198,-0.122002 -0.258409,-0.192237 -0.41956,-0.192237 -0.161152,0 -0.314301,0.07017 -0.41956,0.192237 -0.391676,0.454278 -0.9594,0.714841 -1.557593,0.714841 -0.598194,0 -1.165856,-0.260563 -1.557655,-0.714902 -0.105198,-0.122003 -0.258409,-0.192237 -0.41956,-0.192237 -0.161152,0 -0.314301,0.07017 -0.419561,0.192237 -0.391675,0.454277 -0.959399,0.71484 -1.557592,0.71484 -0.598194,0 -1.165856,-0.260563 -1.557593,-0.71484 -0.105259,-0.122064 -0.258409,-0.192237 -0.41956,-0.192237 -0.161152,0 -0.314301,0.07017 -0.41956,0.192237 -0.391738,0.454339 -0.959462,0.714902 -1.557655,0.714902 -0.598194,0 -1.165856,-0.260563 -1.557593,-0.714841 -0.10526,-0.122064 -0.258409,-0.192237 -0.419561,-0.192237 -0.161151,0 -0.3143,0.07017 -0.41956,0.192237 -0.391737,0.454339 -0.959461,0.714903 -1.557593,0.714903 -0.305991,0 -0.553997,0.248006 -0.553997,0.553997 0,0.305991 0.248006,0.553997 0.553997,0.553997 0.644422,0 1.265452,-0.196669 1.786886,-0.553997 0.06494,-0.0445 0.128589,-0.0911 0.190329,-0.14053 0.06168,0.04943 0.125388,0.09603 0.190329,0.14053 0.521372,0.357328 1.142464,0.553997 1.786824,0.553997 0.64436,0 1.265453,-0.196669 1.786887,-0.553997 0.06494,-0.0445 0.128588,-0.0911 0.190328,-0.14053 0.06168,0.04943 0.125388,0.09603 0.190329,0.14053 0.521373,0.357328 1.142465,0.553997 1.786825,0.553997 0.644359,0 1.265451,-0.196669 1.786824,-0.553997 0.06494,-0.0445 0.128588,-0.0911 0.190328,-0.14053 0.06168,0.04943 0.125388,0.09603 0.190329,0.14053 0.521434,0.357328 1.142465,0.553997 1.786886,0.553997 0.644422,0 1.265452,-0.196669 1.786825,-0.553997 0.06494,-0.0445 0.128589,-0.0911 0.190328,-0.14053 0.06168,0.04943 0.125388,0.09603 0.190329,0.14053 0.521434,0.357328 1.142465,0.553997 1.786886,0.553997 0.305991,0 0.553997,-0.248006 0.553997,-0.553997 0,-0.30593 -0.248067,-0.553997 -0.554058,-0.553997 z"
       id="path1015"
       style="display:inline;fill:#0f3dd1;fill-opacity:1;stroke-width:0.0615552" />
  </g>
  <g
     inkscape:label="B.Mask-disabled"
     inkscape:groupmode="layer"
     id="g844"
     style="display:inline" />
  <g
     inkscape:label="B.SilkS-disabled"
     inkscape:groupmode="layer"
     id="g846"
     style="display:inline" />
  <g
     inkscape:label="F.Cu"
     inkscape:groupmode="layer"
     id="g848"
     style="display:none">
    <path
       d="m 164.53497,319.42382 c -9.717,0 -18.94,-4.233 -25.305,-11.614 -1.709,-1.982 -4.198,-3.123 -6.816,-3.123 -2.618,0 -5.106,1.14 -6.816,3.123 -6.363,7.38 -15.586,11.613 -25.304,11.613 -9.717997,0 -18.939997,-4.233 -25.304997,-11.614 -1.709,-1.982 -4.198,-3.123 -6.816,-3.123 -2.618,0 -5.106,1.14 -6.816,3.123 -6.36299,7.38 -15.58599,11.613 -25.30399,11.613 -9.718001,0 -18.940003,-4.233 -25.304003,-11.613 -1.7100002,-1.983 -4.1980002,-3.123 -6.8160002,-3.123 -2.618,0 -5.106,1.14 -6.816,3.123 -6.364,7.381 -15.5869998,11.614 -25.3049998,11.614 -9.718,0 -18.94,-4.233 -25.304,-11.613 -1.71,-1.983 -4.198,-3.123 -6.816,-3.123 -2.618,0 -5.105999,1.14 -6.815999,3.123 -6.364,7.382 -15.587,11.614 -25.304001,11.614 -4.971,0 -9,4.029 -9,9 0,4.971 4.029,9 9,9 10.469001,0 20.558001,-3.195 29.029,-9 1.055,-0.723 2.09,-1.48 3.092,-2.283 1.002,0.803 2.037,1.56 3.092,2.283 8.47,5.805 18.56,9 29.028,9 10.468,0 20.5579998,-3.195 29.02899975,-9 1.05500005,-0.723 2.09000005,-1.48 3.09200005,-2.283 1.002,0.803 2.037,1.56 3.092,2.283 8.4700002,5.805 18.5600022,9 29.0280032,9 10.468,0 20.55799,-3.195 29.02799,-9 1.055,-0.723 2.089,-1.48 3.092,-2.283 1.002,0.803 2.037,1.56 3.092,2.283 8.47,5.805 18.56,9 29.028997,9 10.469,0 20.558,-3.195 29.028,-9 1.055,-0.723 2.089,-1.48 3.092,-2.283 1.002,0.803 2.037,1.56 3.092,2.283 8.47,5.805 18.56,9 29.029,9 4.971,0 9,-4.029 9,-9 0,-4.971 -4.03,-9 -9.001,-9 z"
       id="path2"
       style="display:inline;fill:#0f3dd1;fill-opacity:1"
       transform="matrix(0.06155521,0,0,0.06155521,32.937863,26.940854)" />
    <path
       d="m 252.51396,146.09529 c -9.717,0 -18.94,-4.233 -25.305,-11.614 -1.709,-1.982 -4.198,-3.123 -6.816,-3.123 -2.618,0 -5.106,1.14 -6.816,3.123 -6.363,7.38 -15.586,11.613 -25.304,11.613 -9.718,0 -18.94,-4.233 -25.305,-11.614 -1.709,-1.982 -4.198,-3.123 -6.816,-3.123 -2.618,0 -5.106,1.14 -6.816,3.123 -6.363,7.38 -15.586,11.613 -25.30399,11.613 -9.718,0 -18.94,-4.233 -25.303998,-11.613 -1.71,-1.983 -4.198,-3.123 -6.816,-3.123 -2.618,0 -5.105996,1.14 -6.815996,3.123 -6.364,7.381 -15.587005,11.614 -25.305005,11.614 -9.718,0 -18.94,-4.233 -25.304,-11.613 -1.71,-1.983 -4.198,-3.123 -6.816,-3.123 -2.618,0 -5.106,1.14 -6.816,3.123 -6.364,7.381 -15.5869996,11.614 -25.3039994,11.614 -4.971,0 -8.9999996,4.029 -8.9999996,9.00001 0,4.971 4.0289996,9 8.9999996,9 10.4689998,0 20.5579994,-3.195 29.0289994,-9 1.055,-0.723 2.089,-1.48 3.092,-2.283 1.002,0.803 2.037,1.56 3.092,2.283 8.47,5.805 18.56,9 29.028,9 10.468,0 20.558005,-3.195 29.029001,-9 1.055,-0.723 2.089,-1.48 3.092,-2.283 1.002,0.803 2.037,1.56 3.092,2.283 8.469998,5.805 18.559998,9 29.027998,9 10.46799,0 20.55799,-3.195 29.02799,-9 1.055,-0.723 2.089,-1.48 3.092,-2.283 1.002,0.803 2.037,1.56 3.092,2.283 8.471,5.805 18.56,9 29.029,9 10.469,0 20.558,-3.195 29.028,-9 1.055,-0.723 2.089,-1.48 3.092,-2.283 1.002,0.803 2.037,1.56 3.092,2.283 8.471,5.805 18.56,9 29.029,9 4.971,0 9,-4.029 9,-9 0,-4.97001 -4.03,-9.00001 -9.001,-9.00001 z"
       id="path4"
       style="display:inline;fill:#0f3dd1;fill-opacity:1"
       transform="matrix(0.06155521,0,0,0.06155521,32.937863,26.940854)" />
    <path
       d="m 282.43673,255.35288 c 10.469,0 20.558,-3.195 29.029,-9 1.055,-0.723 2.089,-1.48 3.092,-2.283 1.002,0.803 2.037,1.56 3.092,2.283 8.47,5.805 18.56,9 29.028,9 10.468,0 20.558,-3.195 29.029,-9 1.055,-0.723 2.089,-1.48 3.092,-2.283 1.002,0.803 2.037,1.56 3.092,2.283 8.47,5.805 18.56,9 29.028,9 10.468,0 20.558,-3.195 29.028,-9 1.055,-0.723 2.089,-1.48 3.092,-2.283 1.002,0.803 2.037,1.56 3.092,2.283 8.471,5.805 18.56,9 29.029,9 10.469,0 20.558,-3.195 29.028,-9 1.055,-0.723 2.089,-1.48 3.092,-2.283 1.002,0.803 2.037,1.56 3.092,2.283 8.471,5.805 18.56,9 29.029,9 4.971,0 9,-4.029 9,-9 0,-4.971 -4.029,-9 -9,-9 -9.717,0 -18.94,-4.233 -25.305,-11.614 -1.709,-1.982 -4.198,-3.123 -6.816,-3.123 -2.618,0 -5.106,1.14 -6.816,3.123 -6.363,7.38 -15.586,11.613 -25.304,11.613 -9.718,0 -18.94,-4.233 -25.305,-11.614 -1.709,-1.982 -4.198,-3.123 -6.816,-3.123 -2.618,0 -5.106,1.14 -6.816,3.123 -6.363,7.38 -15.586,11.613 -25.304,11.613 -9.718,0 -18.94,-4.233 -25.304,-11.613 -1.71,-1.983 -4.198,-3.123 -6.816,-3.123 -2.618,0 -5.106,1.14 -6.816,3.123 -6.364,7.381 -15.587,11.614 -25.305,11.614 -9.718,0 -18.941,-4.232 -25.304,-11.612 -1.71,-1.983 -4.198,-3.123 -6.816,-3.123 -2.618,0 -5.106,1.14 -6.816,3.123 -6.365,7.381 -15.588,11.613 -25.305,11.613 -4.971,0 -9,4.029 -9,9 0,4.971 4.029,9 9,9 z"
       id="path6"
       style="display:inline;fill:#0f3dd1;fill-opacity:1"
       transform="matrix(0.06155521,0,0,0.06155521,32.937863,26.940854)" />
    <path
       d="m 665.27864,409.56181 c -9.71701,0 -18.94001,-4.233 -25.30501,-11.614 -1.709,-1.982 -4.198,-3.123 -6.81599,-3.123 -2.618,0 -5.106,1.14 -6.816,3.123 -6.36301,7.38 -15.58601,11.613 -25.30401,11.613 -9.718,0 -18.94,-4.233 -25.30499,-11.614 -1.709,-1.982 -4.198,-3.123 -6.816,-3.123 -2.61801,0 -5.106,1.14 -6.81601,3.123 -6.36299,7.38 -15.586,11.613 -25.304,11.613 -9.71799,0 -18.94,-4.233 -25.304,-11.613 -1.71,-1.983 -4.198,-3.123 -6.81599,-3.123 -2.61801,0 -5.106,1.14 -6.81601,3.123 -6.36399,7.381 -15.587,11.614 -25.305,11.614 -9.71799,0 -18.93999,-4.233 -25.30399,-11.613 -1.71,-1.983 -4.198,-3.123 -6.81601,-3.123 -2.618,0 -5.106,1.14 -6.81599,3.123 -6.364,7.382 -15.587,11.614 -25.304,11.614 -4.971,0 -9,4.029 -9,9 0,4.971 4.029,9 9,9 10.469,0 20.55799,-3.195 29.02899,-9 1.055,-0.723 2.09,-1.48 3.092,-2.283 1.002,0.803 2.03701,1.56 3.092,2.283 8.47,5.805 18.56,9 29.028,9 10.468,0 20.55801,-3.195 29.02901,-9 1.05499,-0.723 2.08999,-1.48 3.09199,-2.283 1.002,0.803 2.037,1.56 3.092,2.283 8.47,5.805 18.56001,9 29.02801,9 10.46799,0 20.558,-3.195 29.028,-9 1.05499,-0.723 2.089,-1.48 3.092,-2.283 1.002,0.803 2.037,1.56 3.09199,2.283 8.47,5.805 18.56001,9 29.02901,9 10.469,0 20.55799,-3.195 29.028,-9 1.05499,-0.723 2.089,-1.48 3.09199,-2.283 1.002,0.803 2.037,1.56 3.09201,2.283 8.46999,5.805 18.56,9 29.02899,9 4.97101,0 9,-4.029 9,-9 0,-4.971 -4.03,-9 -9.00099,-9 z"
       id="path2-6"
       style="display:inline;fill:#0f3dd1;fill-opacity:1;stroke-width:1"
       transform="matrix(0.06155521,0,0,0.06155521,32.937863,26.940854)" />
    <path
       d="m 247.41612,490.28892 c -9.71701,0 -18.94001,-4.233 -25.30501,-11.614 -1.709,-1.982 -4.198,-3.123 -6.81599,-3.123 -2.618,0 -5.106,1.14 -6.816,3.123 -6.36301,7.38 -15.58601,11.613 -25.30401,11.613 -9.718,0 -18.94,-4.233 -25.30499,-11.614 -1.709,-1.982 -4.198,-3.123 -6.816,-3.123 -2.61801,0 -5.106,1.14 -6.81601,3.123 -6.36299,7.38 -15.586,11.613 -25.30399,11.613 -9.71799,0 -18.940001,-4.233 -25.304003,-11.613 -1.71,-1.983 -4.198,-3.123 -6.81599,-3.123 -2.61801,0 -5.106,1.14 -6.81601,3.123 -6.36399,7.381 -15.587,11.614 -25.305,11.614 -9.71799,0 -18.93999,-4.233 -25.30399,-11.613 -1.71,-1.983 -4.198,-3.123 -6.81601,-3.123 -2.618,0 -5.106,1.14 -6.81599,3.123 -6.3639999,7.382 -15.58699986,11.614 -25.3039999,11.614 -4.9710001,0 -9.0000001,4.029 -9.0000001,9 0,4.971 4.029,9 9.0000001,9 10.46900004,0 20.5579899,-3.195 29.0289899,-9 1.055,-0.723 2.09,-1.48 3.092,-2.283 1.002,0.803 2.03701,1.56 3.092,2.283 8.47,5.805 18.56,9 29.028,9 10.468,0 20.55801,-3.195 29.02901,-9 1.05499,-0.723 2.08999,-1.48 3.09199,-2.283 1.002,0.803 2.037,1.56 3.092,2.283 8.470002,5.805 18.560013,9 29.028013,9 10.46798,0 20.55799,-3.195 29.02799,-9 1.05499,-0.723 2.089,-1.48 3.092,-2.283 1.002,0.803 2.037,1.56 3.09199,2.283 8.47,5.805 18.56001,9 29.02901,9 10.469,0 20.55799,-3.195 29.028,-9 1.05499,-0.723 2.089,-1.48 3.09199,-2.283 1.002,0.803 2.037,1.56 3.09201,2.283 8.46999,5.805 18.56,9 29.02899,9 4.97101,0 9,-4.029 9,-9 0,-4.971 -4.03,-9 -9.00099,-9 z"
       id="path2-7"
       style="display:inline;fill:#0f3dd1;fill-opacity:1;stroke-width:1"
       transform="matrix(0.06155521,0,0,0.06155521,32.937863,26.940854)" />
    <path
       d="m 540.5812,592.69135 c -9.71701,0 -18.94001,-4.233 -25.30501,-11.614 -1.709,-1.982 -4.198,-3.123 -6.81599,-3.123 -2.618,0 -5.106,1.14 -6.816,3.123 -6.36301,7.38 -15.58601,11.613 -25.30401,11.613 -9.718,0 -18.94,-4.233 -25.30499,-11.614 -1.709,-1.982 -4.198,-3.123 -6.816,-3.123 -2.61801,0 -5.106,1.14 -6.81601,3.123 -6.36299,7.38 -15.586,11.613 -25.304,11.613 -9.71799,0 -18.94,-4.233 -25.304,-11.613 -1.71,-1.983 -4.198,-3.123 -6.81599,-3.123 -2.61801,0 -5.106,1.14 -6.81601,3.123 -6.36399,7.381 -15.587,11.614 -25.305,11.614 -9.71799,0 -18.93999,-4.233 -25.30399,-11.613 -1.71,-1.983 -4.198,-3.123 -6.81601,-3.123 -2.618,0 -5.106,1.14 -6.81599,3.123 -6.364,7.382 -15.587,11.614 -25.304,11.614 -4.971,0 -9,4.029 -9,9 0,4.971 4.029,9 9,9 10.469,0 20.55799,-3.195 29.02899,-9 1.055,-0.723 2.09,-1.48 3.092,-2.283 1.002,0.803 2.03701,1.56 3.092,2.283 8.47,5.805 18.56,9 29.028,9 10.468,0 20.55801,-3.195 29.02901,-9 1.05499,-0.723 2.08999,-1.48 3.09199,-2.283 1.002,0.803 2.037,1.56 3.092,2.283 8.47,5.805 18.56001,9 29.02801,9 10.46799,0 20.558,-3.195 29.028,-9 1.05499,-0.723 2.089,-1.48 3.092,-2.283 1.002,0.803 2.037,1.56 3.09199,2.283 8.47,5.805 18.56001,9 29.02901,9 10.469,0 20.55799,-3.195 29.028,-9 1.05499,-0.723 2.089,-1.48 3.09199,-2.283 1.002,0.803 2.037,1.56 3.09201,2.283 8.46999,5.805 18.56,9 29.02899,9 4.97101,0 9,-4.029 9,-9 0,-4.971 -4.03,-9 -9.00099,-9 z"
       id="path2-5"
       style="display:inline;fill:#0f3dd1;fill-opacity:1;stroke-width:1"
       transform="matrix(0.06155521,0,0,0.06155521,32.937863,26.940854)" />
    <path
       d="m 318.88223,701.38976 c -9.71701,0 -18.94001,-4.233 -25.30501,-11.614 -1.709,-1.982 -4.198,-3.123 -6.81599,-3.123 -2.618,0 -5.106,1.14 -6.816,3.123 -6.36301,7.38 -15.58601,11.613 -25.30401,11.613 -9.718,0 -18.94,-4.233 -25.30499,-11.614 -1.709,-1.982 -4.198,-3.123 -6.816,-3.123 -2.61801,0 -5.106,1.14 -6.81601,3.123 -6.36299,7.38 -15.586,11.613 -25.304,11.613 -9.71799,0 -18.94,-4.233 -25.304,-11.613 -1.71,-1.983 -4.198,-3.123 -6.81599,-3.123 -2.61801,0 -5.106,1.14 -6.81601,3.123 -6.36399,7.381 -15.587,11.614 -25.305,11.614 -9.71799,0 -18.93999,-4.233 -25.30399,-11.613 -1.710002,-1.983 -4.198002,-3.123 -6.816012,-3.123 -2.618,0 -5.106,1.14 -6.81599,3.123 -6.364,7.382 -15.587,11.614 -25.304,11.614 -4.971,0 -9,4.029 -9,9 0,4.971 4.029,9 9,9 10.469,0 20.55799,-3.195 29.02899,-9 1.055,-0.723 2.09,-1.48 3.092,-2.283 1.002,0.803 2.03701,1.56 3.092,2.283 8.470002,5.805 18.560002,9 29.028002,9 10.468,0 20.55801,-3.195 29.02901,-9 1.05499,-0.723 2.08999,-1.48 3.09199,-2.283 1.002,0.803 2.037,1.56 3.092,2.283 8.47,5.805 18.56001,9 29.02801,9 10.46799,0 20.558,-3.195 29.028,-9 1.05499,-0.723 2.089,-1.48 3.092,-2.283 1.002,0.803 2.037,1.56 3.09199,2.283 8.47,5.805 18.56001,9 29.02901,9 10.469,0 20.55799,-3.195 29.028,-9 1.05499,-0.723 2.089,-1.48 3.09199,-2.283 1.002,0.803 2.037,1.56 3.09201,2.283 8.46999,5.805 18.56,9 29.02899,9 4.97101,0 9,-4.029 9,-9 0,-4.971 -4.03,-9 -9.00099,-9 z"
       id="path2-3"
       style="display:inline;fill:#0f3dd1;fill-opacity:1;stroke-width:1"
       transform="matrix(0.06155521,0,0,0.06155521,32.937863,26.940854)" />
  </g>
  <g
     inkscape:label="F.Mask"
     inkscape:groupmode="layer"
     id="g850">
    <path
       id="path1002"
       style="display:inline;fill:#908428;fill-opacity:1;stroke:none;stroke-width:0.394938;stroke-opacity:1"
       d="M 245.51562 90.957031 L 132.35938 91.001953 L 113.33789 123.97656 C 114.0471 124.09305 114.72888 124.23242 115.57617 124.23242 C 116.81296 124.23242 117.88524 124.09997 118.84375 123.85938 C 119.80226 123.61878 120.64599 123.26853 121.42773 122.83594 C 122.99122 121.97076 124.30408 120.77116 125.76953 119.42969 C 126.58096 118.68696 127.41978 117.91901 128.33398 117.18555 C 129.24819 116.45208 130.23738 115.75307 131.35156 115.14648 C 132.46575 114.5399 133.70386 114.02616 135.11523 113.66406 C 136.52661 113.30196 138.11026 113.0918 139.91602 113.0918 C 141.72165 113.0918 143.30749 113.30196 144.71875 113.66406 C 146.13001 114.02617 147.36833 114.53987 148.48242 115.14648 C 149.59652 115.7531 150.58585 116.45201 151.5 117.18555 C 152.41415 117.91908 153.25303 118.68684 154.06445 119.42969 C 155.52966 120.77092 156.8391 121.97082 158.40234 122.83594 C 159.18397 123.26849 160.02989 123.61878 160.98828 123.85938 C 161.94667 124.09997 163.0192 124.23242 164.25586 124.23242 C 165.49277 124.23242 166.56486 124.09997 167.52344 123.85938 C 168.48202 123.61878 169.32565 123.26853 170.10742 122.83594 C 171.67097 121.97076 172.98377 120.77116 174.44922 119.42969 C 175.26064 118.68696 176.09947 117.91901 177.01367 117.18555 C 177.92788 116.45208 178.91706 115.75307 180.03125 115.14648 C 181.14544 114.5399 182.38355 114.02616 183.79492 113.66406 C 185.20629 113.30196 186.78994 113.0918 188.5957 113.0918 C 190.40158 113.0918 191.98704 113.30196 193.39844 113.66406 C 194.80984 114.02616 196.04792 114.5399 197.16211 115.14648 C 198.2763 115.75307 199.26545 116.45208 200.17969 117.18555 C 201.09392 117.91901 201.93259 118.68696 202.74414 119.42969 C 204.20959 120.77116 205.52233 121.97076 207.08594 122.83594 C 207.86774 123.26853 208.71136 123.61878 209.66992 123.85938 C 210.62848 124.09997 211.70072 124.23242 212.9375 124.23242 C 214.17453 124.23242 215.24838 124.09997 216.20703 123.85938 C 217.16568 123.61878 218.00921 123.26853 218.79102 122.83594 C 220.35463 121.97076 221.66736 120.77116 223.13281 119.42969 C 223.94436 118.68696 224.78299 117.91901 225.69727 117.18555 C 226.61155 116.45208 227.6006 115.75307 228.71484 115.14648 C 229.82909 114.5399 231.06707 114.02616 232.47852 113.66406 C 233.88996 113.30196 235.47537 113.0918 237.28125 113.0918 C 239.08713 113.0918 240.67058 113.30196 242.08203 113.66406 C 243.49348 114.02616 244.73341 114.5399 245.84766 115.14648 C 246.9619 115.75307 247.95095 116.45208 248.86523 117.18555 C 249.77952 117.91901 250.61814 118.68696 251.42969 119.42969 C 252.89514 120.77116 254.20598 121.97076 255.76953 122.83594 C 256.55131 123.26853 257.39689 123.61878 258.35547 123.85938 C 259.31405 124.09997 260.38614 124.23242 261.62305 124.23242 C 262.73159 124.23242 263.67193 124.09364 264.55273 123.89844 L 245.51562 90.957031 z "
       transform="scale(0.26458333)" />
  </g>
  <g
     inkscape:label="F.SilkS"
     inkscape:groupmode="layer"
     id="g852"
     style="display:inline">
    <text
       xml:space="preserve"
       style="font-style:normal;font-weight:normal;font-size:12.7px;line-height:1.25;font-family:sans-serif;text-align:center;letter-spacing:0px;word-spacing:0px;text-anchor:middle;fill:#000000;fill-opacity:1;stroke:none;stroke-width:0.264583"
       x="51.053726"
       y="55.131474"
       id="text1009"><tspan
         sodipodi:role="line"
         id="tspan1007"
         x="51.053726"
         y="55.131474"
         style="font-style:normal;font-variant:normal;font-weight:600;font-stretch:normal;font-size:12.7px;font-family:FreeSans;-inkscape-font-specification:'FreeSans Semi-Bold';text-align:center;text-anchor:middle;stroke-width:0.264583">2:1</tspan></text>
    <path
       style="fill:none;stroke:#000000;stroke-width:1;stroke-linecap:butt;stroke-linejoin:miter;stroke-opacity:1;stroke-miterlimit:4;stroke-dasharray:4,1;stroke-dashoffset:0"
       d="m 31.931596,34.218787 c 3.374544,8.018272 9.157097,12.797734 9.157097,12.797734"
       id="path1011" />
    <path
       style="fill:none;stroke:#000000;stroke-width:1;stroke-linecap:butt;stroke-linejoin:miter;stroke-miterlimit:4;stroke-dasharray:4, 1;stroke-dashoffset:0;stroke-opacity:1"
       d="M 68.467074,34.218787 C 65.09253,42.237059 59.309977,47.016521 59.309977,47.016521"
       id="path1013" />
    <path
       d="m 56.069397,58.428563 c -6.1e-4,-0.0016 -0.0016,-0.0024 -0.0016,-0.004 -0.0048,-0.01197 -0.01046,-0.02378 -0.0168,-0.03519 -7.93e-4,-0.0016 -0.0024,-0.004 -0.0032,-0.0055 -0.0055,-0.0097 -0.01213,-0.0191 -0.01894,-0.02806 -0.0016,-0.0024 -0.0032,-0.0048 -0.0055,-0.0071 -0.0083,-0.01046 -0.01704,-0.02013 -0.02655,-0.0294 -6.97e-4,-7.21e-4 -0.0016,-0.0016 -0.0024,-0.0024 -0.0089,-0.0082 -0.01823,-0.01625 -0.02814,-0.02338 -0.0024,-0.0016 -0.0048,-0.0032 -0.0071,-0.0048 -0.01054,-0.0071 -0.02148,-0.01427 -0.03289,-0.02029 -2.61e-4,-2.46e-4 -6.1e-4,-3.57e-4 -7.92e-4,-6.03e-4 -0.0095,-0.0048 -0.01934,-0.0094 -0.02917,-0.01332 -0.0024,-7.93e-4 -0.0048,-0.0016 -0.0063,-0.0024 -0.0032,-0.0016 -0.0063,-0.0024 -0.01023,-0.0032 -0.0103,-0.0032 -0.02092,-0.0063 -0.03154,-0.0086 -0.0024,-4.84e-4 -0.0048,-0.0016 -0.0071,-0.0016 -0.01331,-0.0024 -0.02679,-0.004 -0.04034,-0.0048 -6.98e-4,0 -0.0016,-2.38e-4 -0.0024,-2.38e-4 l -3.292391,-0.165714 -1.971635,-1.76221 c -0.09559,-0.0855 -0.23428,-0.102671 -0.347755,-0.04312 -0.01498,0.0079 -1.484345,0.777177 -2.214204,0.961984 l -3.452492,0.100389 c -0.159229,0.0048 -0.288558,0.130285 -0.297924,0.289278 l -0.377179,6.439897 c -0.0055,0.09463 0.0329,0.186496 0.104111,0.248935 l 2.695852,2.365384 c 3.58e-4,5.23e-4 9.51e-4,6.97e-4 0.0013,7.92e-4 4.79e-4,3.49e-4 0.0012,0.0016 0.0018,0.0016 0.0095,0.008 0.01933,0.01538 0.02966,0.02211 0.0021,0.0016 0.0042,0.0024 0.0065,0.004 0.02306,0.01466 0.04815,0.02608 0.07433,0.034 0.0014,5.23e-4 0.003,7.92e-4 0.0046,0.0016 0.01285,0.004 0.02594,0.0063 0.03915,0.0086 9.51e-4,0 0.0018,3.48e-4 0.0028,6.1e-4 l 6.480853,0.908057 0.0024,3.49e-4 0.0024,2.61e-4 h 0.0016 c 0.01371,0.0024 0.02758,0.0032 0.04145,0.0032 0.0095,0 0.0191,-6.1e-4 0.02861,-0.0016 h 7.92e-4 c 0.0088,-7.92e-4 0.01752,-0.0024 0.02631,-0.004 l 0.0016,-2.61e-4 3.280416,-0.622267 c 0.0107,-0.0024 0.02124,-0.0048 0.0317,-0.0079 0.0032,-7.92e-4 0.0063,-0.0024 0.0093,-0.0032 0.0055,-0.0024 0.01173,-0.004 0.01752,-0.0063 7.93e-4,-5.23e-4 0.0016,-7.92e-4 0.0032,-0.0016 0.004,-0.0016 0.0084,-0.004 0.01236,-0.0055 0.0055,-0.0024 0.01149,-0.0055 0.01704,-0.0084 0.0032,-0.0016 0.0071,-0.004 0.0103,-0.0063 0.0055,-0.0032 0.01173,-0.0071 0.01728,-0.01102 0.0032,-0.0024 0.0055,-0.004 0.0089,-0.0063 0.0055,-0.004 0.01118,-0.0086 0.01656,-0.01324 0.0024,-0.0024 0.0055,-0.0048 0.0079,-0.0071 0.0055,-0.0048 0.01022,-0.0098 0.01514,-0.01498 0.0024,-0.0024 0.0048,-0.0055 0.0071,-0.0082 0.0048,-0.0055 0.009,-0.0107 0.01324,-0.01625 0.0024,-0.0032 0.0048,-0.0063 0.0063,-0.009 0.004,-0.0055 0.0079,-0.01189 0.01149,-0.01799 0.0016,-0.0024 0.0032,-0.004 0.004,-0.0063 l 1.40401,-2.46517 c 0.04589,-0.08057 0.05294,-0.177603 0.01918,-0.264066 z m -2.537699,8.566808 -1.158443,-3.15781 2.053057,-1.69232 1.761608,4.34626 z m -5.702481,-6.923359 2.853398,1.480375 -1.835579,2.074425 -2.127022,-0.626705 z m 1.349484,4.107422 1.883856,-2.128939 1.805081,4.919901 -5.422445,-0.759883 z m 5.118396,-2.724789 -2.14827,1.770977 -0.646044,-1.761489 1.085065,-2.77691 2.751324,0.13833 z M 48.022909,57.838 c 0.02089,-6.03e-4 0.04179,-0.0032 0.0622,-0.0082 0.638241,-0.15178 1.751522,-0.698878 2.197153,-0.925113 l 1.735793,1.551588 -1.006052,2.574325 -3.194918,-1.657494 -2.322396,-1.461646 z m -3.219411,0.36493 2.484147,1.563469 -1.260026,3.326171 c -0.03038,0.07997 -0.02594,0.169075 0.01213,0.245686 0.03807,0.07664 0.106393,0.133891 0.188409,0.158025 l 2.178057,0.641725 -1.590133,1.862837 -2.348574,-2.06073 z m 11.856827,7.81749 -1.775423,-4.380127 0.896057,-2.260556 1.896942,4.854093 z m 0,0"
       id="path880"
       style="stroke-width:0.0307411" />
  </g>
</svg>
