<?xml version="1.0" encoding="UTF-8" standalone="no"?>
<svg
   xmlns:dc="http://purl.org/dc/elements/1.1/"
   xmlns:cc="http://creativecommons.org/ns#"
   xmlns:rdf="http://www.w3.org/1999/02/22-rdf-syntax-ns#"
   xmlns:svg="http://www.w3.org/2000/svg"
   xmlns="http://www.w3.org/2000/svg"
   xmlns:sodipodi="http://sodipodi.sourceforge.net/DTD/sodipodi-0.dtd"
   xmlns:inkscape="http://www.inkscape.org/namespaces/inkscape"
   width="100.0mm"
   height="100.0mm"
   viewBox="0 0 100.0 100.0"
   version="1.1"
   id="svg8"
   sodipodi:docname="ore_tile.svg"
   inkscape:version="1.0.2 (394de47547, 2021-03-26)">
  <defs
     id="defs2" />
  <sodipodi:namedview
     id="base"
     pagecolor="#ffffff"
     bordercolor="#666666"
     borderopacity="1.0"
     inkscape:pageopacity="0.0"
     inkscape:pageshadow="2"
     inkscape:zoom="2.492375"
     inkscape:cx="188.97638"
     inkscape:cy="188.97638"
     inkscape:document-units="mm"
     inkscape:current-layer="g842"
     inkscape:document-rotation="0"
     showgrid="false"
     inkscape:window-width="3768"
     inkscape:window-height="2096"
     inkscape:window-x="72"
     inkscape:window-y="27"
     inkscape:window-maximized="1" />
  <metadata
     id="metadata5">
    <rdf:RDF>
      <cc:Work
         rdf:about="">
        <dc:format>image/svg+xml</dc:format>
        <dc:type
           rdf:resource="http://purl.org/dc/dcmitype/StillImage" />
        <dc:title />
      </cc:Work>
    </rdf:RDF>
  </metadata>
  <g
     inkscape:label="[fixed] BG"
     inkscape:groupmode="layer"
     sodipodi:insensitive="true"
     id="g838"
     style="display:inline">
    <rect
       x="0"
       y="0"
       width="100"
       height="100"
       style="fill:#ffffff;fill-opacity:1;stroke:none"
       id="rect836" />
  </g>
  <g
     inkscape:label="Edge.Cuts"
     inkscape:groupmode="layer"
     id="g840"
     style="display:inline">
    <path
       id="path864"
       style="fill:none;stroke:#000600;stroke-width:0.104494;stroke-opacity:1"
       d="M 64.9801 75.9228 L 35.0404 75.9346 L 20.0603 50.012 L 35.0199 24.0776 L 64.9596 24.0658 L 79.9397 49.9884 L 64.9801 75.9228" />
    <path
       id="path867"
       style="fill:none;stroke:#000600;stroke-width:0.0889503;stroke-opacity:1"
       d="M 58.0055 50.0002 L 57.9957 50.3971 L 57.9664 50.7914 L 57.9178 51.1823 L 57.8503 51.5693 L 57.7641 51.9515 L 57.6595 52.3285 L 57.5367 52.6994 L 57.3961 53.0638 L 57.2379 53.4208 L 57.0624 53.7699 L 56.8699 54.1104 L 56.6605 54.4416 L 56.4346 54.763 L 56.1926 55.0737 L 55.9345 55.3733 L 55.6608 55.6609 L 55.3731 55.9347 L 55.0736 56.1927 L 54.7628 56.4348 L 54.4415 56.6607 L 54.1102 56.87 L 53.7697 57.0626 L 53.4206 57.2381 L 53.0636 57.3963 L 52.6993 57.5369 L 52.3283 57.6597 L 51.9514 57.7643 L 51.5691 57.8505 L 51.1822 57.918 L 50.7912 57.9665 L 50.397 57.9959 L 50 58.0057 L 49.603 57.9959 L 49.2088 57.9665 L 48.8178 57.918 L 48.4309 57.8505 L 48.0486 57.7643 L 47.6717 57.6597 L 47.3007 57.5369 L 46.9364 57.3963 L 46.5794 57.2381 L 46.2303 57.0626 L 45.8898 56.87 L 45.5585 56.6607 L 45.2372 56.4348 L 44.9264 56.1927 L 44.6269 55.9347 L 44.3392 55.6609 L 44.0655 55.3733 L 43.8074 55.0737 L 43.5654 54.763 L 43.3395 54.4416 L 43.1301 54.1104 L 42.9376 53.7699 L 42.7621 53.4208 L 42.6039 53.0638 L 42.4633 52.6994 L 42.3405 52.3285 L 42.2359 51.9515 L 42.1497 51.5693 L 42.0822 51.1823 L 42.0336 50.7914 L 42.0043 50.3971 L 41.9945 50.0002 L 42.0049 49.5882 L 42.0358 49.1817 L 42.0867 48.781 L 42.1571 48.3868 L 42.2465 47.9995 L 42.3544 47.6196 L 42.4802 47.2476 L 42.6236 46.8841 L 42.7839 46.5294 L 42.9607 46.1843 L 43.1535 45.849 L 43.3617 45.5242 L 43.5849 45.2103 L 43.8225 44.9079 L 44.0742 44.6174 L 44.3392 44.3394 L 44.6173 44.0743 L 44.9077 43.8227 L 45.2102 43.5851 L 45.524 43.3619 L 45.8488 43.1536 L 46.1841 42.9609 L 46.5293 42.7841 L 46.8839 42.6238 L 47.2474 42.4804 L 47.6194 42.3546 L 47.9993 42.2467 L 48.3866 42.1573 L 48.7808 42.0869 L 49.1815 42.036 L 49.588 42.0051 L 50 41.9947 L 50.412 42.0051 L 50.8185 42.036 L 51.2192 42.0869 L 51.6134 42.1573 L 52.0007 42.2467 L 52.3806 42.3546 L 52.7526 42.4804 L 53.1161 42.6238 L 53.4707 42.7841 L 53.8159 42.9609 L 54.1512 43.1536 L 54.476 43.3619 L 54.7898 43.5851 L 55.0923 43.8227 L 55.3827 44.0743 L 55.6608 44.3394 L 55.9258 44.6174 L 56.1775 44.9079 L 56.4151 45.2103 L 56.6383 45.5242 L 56.8465 45.849 L 57.0393 46.1843 L 57.2161 46.5294 L 57.3764 46.8841 L 57.5198 47.2476 L 57.6456 47.6196 L 57.7535 47.9995 L 57.8429 48.3868 L 57.9133 48.781 L 57.9642 49.1817 L 57.9951 49.5882 L 58.0055 50.0002 L 58.0055 50.0002" />
  </g>
  <g
     inkscape:label="B.Cu"
     inkscape:groupmode="layer"
     id="g842"
     style="display:none">
    <path
       id="path842"
       style="display:inline;fill:#000000;fill-opacity:1;stroke:none;stroke-width:0.394938;stroke-opacity:1"
       d="m 243.33594,94.738281 c -36.26477,0.01474 -72.52821,0.03011 -108.79297,0.04492 -18.12008,31.414869 -36.24125,62.829279 -54.361329,94.244139 18.144684,31.39764 36.288909,62.79572 54.433589,94.19336 36.26477,-0.0174 72.53016,-0.0335 108.79493,-0.0508 18.12008,-31.41486 36.24125,-62.83123 54.36132,-94.24609 -18.14468,-31.39518 -36.29085,-62.79037 -54.43554,-94.185551 z m -53.75977,60.195309 c 11.32973,0.15667 22.32168,6.31589 28.25977,16.01368 8.32465,12.77751 6.35513,31.01922 -4.4668,41.7539 -10.21969,10.87541 -27.85926,13.50379 -40.80664,6.08203 -13.00567,-6.87775 -20.19472,-22.80958 -16.83203,-37.11718 2.98045,-14.65564 16.62603,-26.20166 31.57812,-26.6836 0.75693,-0.0436 1.51227,-0.0593 2.26758,-0.0488 z"
       transform="scale(0.26458333)" />
  </g>
  <g
     inkscape:label="B.Mask-disabled"
     inkscape:groupmode="layer"
     id="g844"
     style="display:inline" />
  <g
     inkscape:label="B.SilkS"
     inkscape:groupmode="layer"
     id="g846"
     style="display:none">
    <text
       xml:space="preserve"
       style="font-style:normal;font-weight:normal;font-size:7.05556px;line-height:1.25;font-family:sans-serif;letter-spacing:0px;word-spacing:0px;display:inline;fill:#000000;fill-opacity:1;stroke:none;stroke-width:0.264583"
       x="-54.994514"
       y="35.143505"
       id="text847"
       transform="scale(-1,1)"><tspan
         sodipodi:role="line"
         id="tspan845"
         x="-54.994514"
         y="35.143505"
         style="font-style:normal;font-variant:normal;font-weight:normal;font-stretch:normal;font-size:7.05556px;font-family:FreeSans;-inkscape-font-specification:FreeSans;stroke-width:0.264583">EX</tspan></text>
  </g>
  <g
     inkscape:label="F.Cu"
     inkscape:groupmode="layer"
     id="g848"
     style="display:inline">
    <path
       id="path878"
       style="fill:#000000;fill-opacity:1;stroke-width:0.377953"
       d="m 183.9043,129.02734 c -4.83157,2.45289 -16.90236,8.38558 -23.82227,10.03125 -0.22133,0.0522 -0.44728,0.0815 -0.67383,0.0879 l -27.41211,0.79688 25.17969,15.84766 11.46094,5.94531 c 5.37265,-4.0324 11.88631,-6.5352 18.67187,-6.75391 3.83647,-0.22125 7.66732,0.26728 11.31641,1.35938 l 4.09961,-10.49219 z m -59.40235,14.07618 -3.64257,62.20312 25.46484,22.34375 15.5039,-18.16406 c -0.75584,-1.0146 -1.45643,-2.07043 -2.09765,-3.16211 l -19.78125,-5.83008 c -0.88924,-0.26169 -1.63025,-0.88224 -2.04297,-1.71289 -0.41272,-0.83065 -0.46025,-1.79696 -0.13086,-2.66406 l 13.66016,-36.0625 z m 84.40039,5.25 -4.10546,10.5039 c 5.3012,2.78547 9.8839,6.937 13.03906,12.08985 2.29792,3.52709 3.80705,7.4717 4.5664,11.55859 l 5.03125,-4.14648 11.29883,-28.50586 z m 34.6211,7.50976 -9.7168,24.50781 19.25,47.49024 11.0332,-19.36914 z m -86.21485,7.50391 -12.02734,31.74804 11.00977,3.24415 c -1.57797,-5.39716 -1.85974,-11.16554 -0.56055,-16.69336 1.1511,-5.66026 3.89779,-10.8528 7.69141,-15.12696 z m 71.52735,22.47851 -5.91016,4.8711 c -0.43965,8.15606 -3.69617,16.17115 -9.55664,21.98437 -0.85938,0.91452 -1.77532,1.76568 -2.73242,2.5625 l 8.49805,23.16797 28.80078,-5.46289 z m -62.48047,28.59766 -13.21094,15.48047 58.79102,8.23828 -7.00977,-19.10547 c -9.94862,5.19543 -22.51207,5.37352 -32.36328,-0.27344 -2.25371,-1.19182 -4.32726,-2.65975 -6.20703,-4.33984 z"
       transform="scale(0.26458333)" />
  </g>
  <g
     inkscape:label="F.Mask-disabled"
     inkscape:groupmode="layer"
     id="g850" />
  <g
     inkscape:label="F.SilkS"
     inkscape:groupmode="layer"
     id="g852"
     style="display:inline">
    <path
       id="path2"
       style="display:inline;fill:#606060;fill-opacity:1;stroke-width:0.333301"
       d="M 184.32812 121.68359 C 183.82891 121.69658 183.33052 121.82229 182.86914 122.06445 C 182.70639 122.1504 166.77463 130.49043 158.86133 132.49414 L 121.42969 133.58203 C 119.70329 133.63279 118.30077 134.99496 118.19922 136.71875 L 114.10938 206.54102 C 114.04951 207.56695 114.46623 208.56322 115.23828 209.24023 L 144.4668 234.88672 C 144.47058 234.89239 144.47669 234.89428 144.48047 234.89844 C 144.48576 234.90222 144.49515 234.9111 144.50195 234.91602 C 144.60479 235.00321 144.71028 235.08334 144.82227 235.15625 C 144.8457 235.17175 144.86786 235.18478 144.89258 235.19922 C 145.14256 235.35807 145.41539 235.48241 145.69922 235.56836 C 145.71471 235.57403 145.73108 235.5802 145.74805 235.58398 C 145.88736 235.62431 146.02867 235.65367 146.17188 235.67578 C 146.18246 235.67578 146.19292 235.68057 146.20312 235.68359 L 216.46875 245.52734 L 216.49219 245.53125 L 216.51758 245.53516 L 216.53125 245.53516 C 216.67967 245.55746 216.83075 245.56685 216.98047 245.56836 C 217.08331 245.56836 217.18814 245.56181 217.29102 245.55273 L 217.30078 245.55273 C 217.39584 245.54329 217.49088 245.52978 217.58594 245.51172 L 217.60156 245.50977 L 253.16797 238.76367 C 253.28385 238.74175 253.39845 238.71167 253.51172 238.67773 C 253.54536 238.66753 253.58078 238.65429 253.61328 238.64258 C 253.67704 238.62028 253.74022 238.60093 253.80273 238.57617 C 253.81445 238.5705 253.8234 238.56584 253.83398 238.56055 C 253.88085 238.54241 253.92574 238.52019 253.96875 238.49805 C 254.03123 238.46932 254.09244 238.44071 254.15234 238.4082 C 254.19014 238.38742 254.22787 238.36394 254.26562 238.3418 C 254.32939 238.304 254.39326 238.26368 254.45312 238.2207 C 254.48676 238.19878 254.51625 238.17515 254.54883 238.15039 C 254.61006 238.10485 254.66993 238.05729 254.72852 238.00781 C 254.75724 237.98173 254.78584 237.95573 254.81445 237.92969 C 254.87039 237.87761 254.92511 237.82355 254.97852 237.76758 C 255.00573 237.73885 255.03056 237.70767 255.05664 237.67773 C 255.10615 237.62047 255.15563 237.56186 255.20117 237.50195 C 255.22612 237.46832 255.25 237.43684 255.27344 237.4043 C 255.31773 237.34054 255.35936 237.27539 255.39844 237.20898 C 255.41393 237.18442 255.43208 237.1628 255.44531 237.13672 L 270.66797 210.4082 C 271.16532 209.53459 271.24278 208.48428 270.87695 207.54688 L 246.65039 145.54883 C 246.64359 145.53447 246.63615 145.52405 246.63086 145.50977 C 246.57882 145.37956 246.51628 145.25063 246.44727 145.12695 C 246.43555 145.10617 246.42187 145.08656 246.41016 145.06445 C 246.34768 144.959 246.27931 144.85743 246.20508 144.75977 C 246.18694 144.73369 246.16771 144.71026 246.14844 144.68555 C 246.05856 144.57227 245.96417 144.46551 245.86133 144.36523 C 245.85377 144.3573 245.8435 144.35169 245.83594 144.34375 C 245.7396 144.25391 245.63802 144.16797 245.53125 144.08984 C 245.50631 144.0717 245.48108 144.05356 245.45508 144.03516 C 245.34052 143.95443 245.22331 143.87957 245.09961 143.81445 C 245.09677 143.81181 245.09249 143.81124 245.08984 143.80859 C 244.987 143.75523 244.88021 143.70704 244.77344 143.66406 C 244.74887 143.65499 244.72593 143.64774 244.70117 143.63867 C 244.66451 143.62582 244.62756 143.61479 244.58984 143.60156 C 244.47789 143.56377 244.36393 143.53253 244.24805 143.50781 C 244.22348 143.50252 244.19784 143.49439 244.17188 143.49023 C 244.02735 143.46151 243.88149 143.44337 243.73438 143.43555 C 243.72682 143.43555 243.72083 143.43359 243.71289 143.43359 L 208.01562 141.63672 L 186.63867 122.53125 C 185.99095 121.95188 185.16014 121.66195 184.32812 121.68359 z M 183.9043 129.02734 L 202.72461 145.84961 L 198.625 156.3418 C 200.75706 156.97988 202.82716 157.82246 204.79688 158.85742 L 208.90234 148.35352 L 238.73242 149.85352 L 227.43359 178.35938 L 222.40234 182.50586 C 222.90417 185.20674 223.07388 187.96931 222.92578 190.7168 L 228.83594 185.8457 L 247.93555 232.96875 L 219.13477 238.43164 L 210.63672 215.26367 C 208.87204 216.73284 206.95305 217.99795 204.92578 219.05664 L 211.93555 238.16211 L 153.14453 229.92383 L 166.35547 214.44336 C 164.68296 212.94851 163.16775 211.28456 161.82812 209.48633 L 146.32422 227.65039 L 120.85938 205.30664 L 124.50195 143.10352 L 151.43555 160.05469 L 137.77539 196.11719 C 137.446 196.98429 137.49353 197.9506 137.90625 198.78125 C 138.31897 199.6119 139.05998 200.23245 139.94922 200.49414 L 159.73047 206.32422 C 158.26225 203.82458 157.10454 201.14188 156.29102 198.35938 L 145.28125 195.11523 L 157.30859 163.36719 L 163.42188 166.53906 C 164.99311 164.7688 166.74296 163.15767 168.63672 161.73633 L 157.17578 155.79102 L 131.99609 139.94336 L 159.4082 139.14648 C 159.63475 139.14006 159.8607 139.11083 160.08203 139.05859 C 167.00194 137.41292 179.07273 131.48023 183.9043 129.02734 z M 243.52344 155.86328 L 264.08984 208.49219 L 253.05664 227.86133 L 233.80664 180.37109 L 243.52344 155.86328 z "
       transform="scale(0.26458333)" />
  </g>
</svg>
