G04 #@! TF.GenerationSoftware,KiCad,Pcbnew,5.1.5+dfsg1-2build2*
G04 #@! TF.CreationDate,2021-04-12T21:21:20-04:00*
G04 #@! TF.ProjectId,wheat_tile,77686561-745f-4746-996c-652e6b696361,rev?*
G04 #@! TF.SameCoordinates,Original*
G04 #@! TF.FileFunction,Copper,L1,Top*
G04 #@! TF.FilePolarity,Positive*
%FSLAX46Y46*%
G04 Gerber Fmt 4.6, Leading zero omitted, Abs format (unit mm)*
G04 Created by KiCad (PCBNEW 5.1.5+dfsg1-2build2) date 2021-04-12 21:21:20*
%MOMM*%
%LPD*%
G04 APERTURE LIST*
%ADD10C,0.010000*%
G04 APERTURE END LIST*
D10*
G36*
X-12749070Y-10772774D02*
G01*
X-12707912Y-10810133D01*
X-12643224Y-10871269D01*
X-12558202Y-10953100D01*
X-12456043Y-11052542D01*
X-12339946Y-11166513D01*
X-12213106Y-11291929D01*
X-12176125Y-11328653D01*
X-11764122Y-11732908D01*
X-11369261Y-12109127D01*
X-10984272Y-12463863D01*
X-10601884Y-12803665D01*
X-10214828Y-13135085D01*
X-9815833Y-13464674D01*
X-9715500Y-13545834D01*
X-9117966Y-14014342D01*
X-8533424Y-14446572D01*
X-7962367Y-14842237D01*
X-7405287Y-15201053D01*
X-6862676Y-15522733D01*
X-6335026Y-15806991D01*
X-5822831Y-16053543D01*
X-5326582Y-16262102D01*
X-4846771Y-16432381D01*
X-4627568Y-16498968D01*
X-4497738Y-16538099D01*
X-4396049Y-16572699D01*
X-4326730Y-16601192D01*
X-4294005Y-16622003D01*
X-4292851Y-16623702D01*
X-4278284Y-16690660D01*
X-4298006Y-16769182D01*
X-4347743Y-16853359D01*
X-4423223Y-16937283D01*
X-4520173Y-17015048D01*
X-4617404Y-17072463D01*
X-4685529Y-17103220D01*
X-4771546Y-17137091D01*
X-4864456Y-17170346D01*
X-4953261Y-17199255D01*
X-5026964Y-17220090D01*
X-5074567Y-17229120D01*
X-5079574Y-17229201D01*
X-5100818Y-17219793D01*
X-5154011Y-17193744D01*
X-5233512Y-17153891D01*
X-5333682Y-17103066D01*
X-5448882Y-17044105D01*
X-5492750Y-17021534D01*
X-6170933Y-16656767D01*
X-6837159Y-16267985D01*
X-7488680Y-15857424D01*
X-8122747Y-15427316D01*
X-8736609Y-14979895D01*
X-9327517Y-14517397D01*
X-9892722Y-14042055D01*
X-10429475Y-13556102D01*
X-10935027Y-13061774D01*
X-11406628Y-12561303D01*
X-11841528Y-12056925D01*
X-12236980Y-11550872D01*
X-12254553Y-11527078D01*
X-12318598Y-11438465D01*
X-12389953Y-11336969D01*
X-12464681Y-11228505D01*
X-12538847Y-11118988D01*
X-12608515Y-11014331D01*
X-12669748Y-10920450D01*
X-12718612Y-10843260D01*
X-12751169Y-10788675D01*
X-12763484Y-10762610D01*
X-12763500Y-10762275D01*
X-12749070Y-10772774D01*
G37*
X-12749070Y-10772774D02*
X-12707912Y-10810133D01*
X-12643224Y-10871269D01*
X-12558202Y-10953100D01*
X-12456043Y-11052542D01*
X-12339946Y-11166513D01*
X-12213106Y-11291929D01*
X-12176125Y-11328653D01*
X-11764122Y-11732908D01*
X-11369261Y-12109127D01*
X-10984272Y-12463863D01*
X-10601884Y-12803665D01*
X-10214828Y-13135085D01*
X-9815833Y-13464674D01*
X-9715500Y-13545834D01*
X-9117966Y-14014342D01*
X-8533424Y-14446572D01*
X-7962367Y-14842237D01*
X-7405287Y-15201053D01*
X-6862676Y-15522733D01*
X-6335026Y-15806991D01*
X-5822831Y-16053543D01*
X-5326582Y-16262102D01*
X-4846771Y-16432381D01*
X-4627568Y-16498968D01*
X-4497738Y-16538099D01*
X-4396049Y-16572699D01*
X-4326730Y-16601192D01*
X-4294005Y-16622003D01*
X-4292851Y-16623702D01*
X-4278284Y-16690660D01*
X-4298006Y-16769182D01*
X-4347743Y-16853359D01*
X-4423223Y-16937283D01*
X-4520173Y-17015048D01*
X-4617404Y-17072463D01*
X-4685529Y-17103220D01*
X-4771546Y-17137091D01*
X-4864456Y-17170346D01*
X-4953261Y-17199255D01*
X-5026964Y-17220090D01*
X-5074567Y-17229120D01*
X-5079574Y-17229201D01*
X-5100818Y-17219793D01*
X-5154011Y-17193744D01*
X-5233512Y-17153891D01*
X-5333682Y-17103066D01*
X-5448882Y-17044105D01*
X-5492750Y-17021534D01*
X-6170933Y-16656767D01*
X-6837159Y-16267985D01*
X-7488680Y-15857424D01*
X-8122747Y-15427316D01*
X-8736609Y-14979895D01*
X-9327517Y-14517397D01*
X-9892722Y-14042055D01*
X-10429475Y-13556102D01*
X-10935027Y-13061774D01*
X-11406628Y-12561303D01*
X-11841528Y-12056925D01*
X-12236980Y-11550872D01*
X-12254553Y-11527078D01*
X-12318598Y-11438465D01*
X-12389953Y-11336969D01*
X-12464681Y-11228505D01*
X-12538847Y-11118988D01*
X-12608515Y-11014331D01*
X-12669748Y-10920450D01*
X-12718612Y-10843260D01*
X-12751169Y-10788675D01*
X-12763484Y-10762610D01*
X-12763500Y-10762275D01*
X-12749070Y-10772774D01*
G36*
X12518882Y-10788857D02*
G01*
X12485957Y-10844364D01*
X12435538Y-10923436D01*
X12371268Y-11020696D01*
X12296794Y-11130768D01*
X12215759Y-11248274D01*
X12131808Y-11367838D01*
X12048588Y-11484082D01*
X11969741Y-11591629D01*
X11956095Y-11609917D01*
X11538798Y-12138052D01*
X11081248Y-12661974D01*
X10585448Y-13179990D01*
X10053404Y-13690408D01*
X9487120Y-14191536D01*
X8888601Y-14681681D01*
X8259851Y-15159151D01*
X7602874Y-15622253D01*
X6919675Y-16069295D01*
X6212260Y-16498585D01*
X6064250Y-16584347D01*
X5954410Y-16646545D01*
X5828818Y-16716089D01*
X5692618Y-16790284D01*
X5550954Y-16866435D01*
X5408970Y-16941848D01*
X5271810Y-17013827D01*
X5144619Y-17079678D01*
X5032541Y-17136705D01*
X4940720Y-17182215D01*
X4874300Y-17213511D01*
X4838425Y-17227900D01*
X4834572Y-17228533D01*
X4806366Y-17222277D01*
X4748972Y-17206732D01*
X4673686Y-17184985D01*
X4656667Y-17179921D01*
X4479954Y-17117031D01*
X4321574Y-17041003D01*
X4201867Y-16963865D01*
X4141807Y-16904305D01*
X4093154Y-16830694D01*
X4059517Y-16752904D01*
X4044502Y-16680807D01*
X4051719Y-16624275D01*
X4069292Y-16601104D01*
X4099077Y-16588086D01*
X4160910Y-16567169D01*
X4245892Y-16541191D01*
X4345121Y-16512987D01*
X4349750Y-16511719D01*
X4790709Y-16375037D01*
X5250000Y-16201462D01*
X5726509Y-15991707D01*
X6219123Y-15746482D01*
X6726729Y-15466498D01*
X7248213Y-15152467D01*
X7782463Y-14805100D01*
X8328364Y-14425108D01*
X8884804Y-14013202D01*
X9450670Y-13570094D01*
X10024848Y-13096494D01*
X10606225Y-12593115D01*
X10910444Y-12320344D01*
X11008884Y-12229664D01*
X11131262Y-12114710D01*
X11271633Y-11981194D01*
X11424050Y-11834826D01*
X11582568Y-11681318D01*
X11741242Y-11526379D01*
X11894125Y-11375722D01*
X11900959Y-11368951D01*
X12035072Y-11236432D01*
X12159429Y-11114327D01*
X12270933Y-11005620D01*
X12366489Y-10913292D01*
X12443002Y-10840326D01*
X12497375Y-10789703D01*
X12526513Y-10764407D01*
X12530667Y-10762293D01*
X12518882Y-10788857D01*
G37*
X12518882Y-10788857D02*
X12485957Y-10844364D01*
X12435538Y-10923436D01*
X12371268Y-11020696D01*
X12296794Y-11130768D01*
X12215759Y-11248274D01*
X12131808Y-11367838D01*
X12048588Y-11484082D01*
X11969741Y-11591629D01*
X11956095Y-11609917D01*
X11538798Y-12138052D01*
X11081248Y-12661974D01*
X10585448Y-13179990D01*
X10053404Y-13690408D01*
X9487120Y-14191536D01*
X8888601Y-14681681D01*
X8259851Y-15159151D01*
X7602874Y-15622253D01*
X6919675Y-16069295D01*
X6212260Y-16498585D01*
X6064250Y-16584347D01*
X5954410Y-16646545D01*
X5828818Y-16716089D01*
X5692618Y-16790284D01*
X5550954Y-16866435D01*
X5408970Y-16941848D01*
X5271810Y-17013827D01*
X5144619Y-17079678D01*
X5032541Y-17136705D01*
X4940720Y-17182215D01*
X4874300Y-17213511D01*
X4838425Y-17227900D01*
X4834572Y-17228533D01*
X4806366Y-17222277D01*
X4748972Y-17206732D01*
X4673686Y-17184985D01*
X4656667Y-17179921D01*
X4479954Y-17117031D01*
X4321574Y-17041003D01*
X4201867Y-16963865D01*
X4141807Y-16904305D01*
X4093154Y-16830694D01*
X4059517Y-16752904D01*
X4044502Y-16680807D01*
X4051719Y-16624275D01*
X4069292Y-16601104D01*
X4099077Y-16588086D01*
X4160910Y-16567169D01*
X4245892Y-16541191D01*
X4345121Y-16512987D01*
X4349750Y-16511719D01*
X4790709Y-16375037D01*
X5250000Y-16201462D01*
X5726509Y-15991707D01*
X6219123Y-15746482D01*
X6726729Y-15466498D01*
X7248213Y-15152467D01*
X7782463Y-14805100D01*
X8328364Y-14425108D01*
X8884804Y-14013202D01*
X9450670Y-13570094D01*
X10024848Y-13096494D01*
X10606225Y-12593115D01*
X10910444Y-12320344D01*
X11008884Y-12229664D01*
X11131262Y-12114710D01*
X11271633Y-11981194D01*
X11424050Y-11834826D01*
X11582568Y-11681318D01*
X11741242Y-11526379D01*
X11894125Y-11375722D01*
X11900959Y-11368951D01*
X12035072Y-11236432D01*
X12159429Y-11114327D01*
X12270933Y-11005620D01*
X12366489Y-10913292D01*
X12443002Y-10840326D01*
X12497375Y-10789703D01*
X12526513Y-10764407D01*
X12530667Y-10762293D01*
X12518882Y-10788857D01*
G36*
X-15338257Y-8822429D02*
G01*
X-15150730Y-8833991D01*
X-14991708Y-8853541D01*
X-14975416Y-8856366D01*
X-14691739Y-8919089D01*
X-14446237Y-8998799D01*
X-14237915Y-9096420D01*
X-14065781Y-9212878D01*
X-13928841Y-9349098D01*
X-13826102Y-9506004D01*
X-13756569Y-9684523D01*
X-13719250Y-9885579D01*
X-13711775Y-10033000D01*
X-13723622Y-10302358D01*
X-13760868Y-10546571D01*
X-13822768Y-10762474D01*
X-13908577Y-10946903D01*
X-13938533Y-10995114D01*
X-14054320Y-11131608D01*
X-14202970Y-11242926D01*
X-14382972Y-11328600D01*
X-14592811Y-11388158D01*
X-14830977Y-11421134D01*
X-15095957Y-11427058D01*
X-15292916Y-11415192D01*
X-15548906Y-11377232D01*
X-15831072Y-11307835D01*
X-16137985Y-11207660D01*
X-16468215Y-11077364D01*
X-16820332Y-10917604D01*
X-17192907Y-10729037D01*
X-17584508Y-10512320D01*
X-17993707Y-10268112D01*
X-18419073Y-9997068D01*
X-18513185Y-9934898D01*
X-18624062Y-9860584D01*
X-18723642Y-9792681D01*
X-18806218Y-9735174D01*
X-18866086Y-9692047D01*
X-18897539Y-9667285D01*
X-18900094Y-9664679D01*
X-18902647Y-9651593D01*
X-18886823Y-9635525D01*
X-18848097Y-9614270D01*
X-18781943Y-9585625D01*
X-18683836Y-9547384D01*
X-18579222Y-9508370D01*
X-18145009Y-9355891D01*
X-17710669Y-9218150D01*
X-17283296Y-9097046D01*
X-16869982Y-8994474D01*
X-16477821Y-8912331D01*
X-16139583Y-8856115D01*
X-15954953Y-8835699D01*
X-15752061Y-8823281D01*
X-15542598Y-8818858D01*
X-15338257Y-8822429D01*
G37*
X-15338257Y-8822429D02*
X-15150730Y-8833991D01*
X-14991708Y-8853541D01*
X-14975416Y-8856366D01*
X-14691739Y-8919089D01*
X-14446237Y-8998799D01*
X-14237915Y-9096420D01*
X-14065781Y-9212878D01*
X-13928841Y-9349098D01*
X-13826102Y-9506004D01*
X-13756569Y-9684523D01*
X-13719250Y-9885579D01*
X-13711775Y-10033000D01*
X-13723622Y-10302358D01*
X-13760868Y-10546571D01*
X-13822768Y-10762474D01*
X-13908577Y-10946903D01*
X-13938533Y-10995114D01*
X-14054320Y-11131608D01*
X-14202970Y-11242926D01*
X-14382972Y-11328600D01*
X-14592811Y-11388158D01*
X-14830977Y-11421134D01*
X-15095957Y-11427058D01*
X-15292916Y-11415192D01*
X-15548906Y-11377232D01*
X-15831072Y-11307835D01*
X-16137985Y-11207660D01*
X-16468215Y-11077364D01*
X-16820332Y-10917604D01*
X-17192907Y-10729037D01*
X-17584508Y-10512320D01*
X-17993707Y-10268112D01*
X-18419073Y-9997068D01*
X-18513185Y-9934898D01*
X-18624062Y-9860584D01*
X-18723642Y-9792681D01*
X-18806218Y-9735174D01*
X-18866086Y-9692047D01*
X-18897539Y-9667285D01*
X-18900094Y-9664679D01*
X-18902647Y-9651593D01*
X-18886823Y-9635525D01*
X-18848097Y-9614270D01*
X-18781943Y-9585625D01*
X-18683836Y-9547384D01*
X-18579222Y-9508370D01*
X-18145009Y-9355891D01*
X-17710669Y-9218150D01*
X-17283296Y-9097046D01*
X-16869982Y-8994474D01*
X-16477821Y-8912331D01*
X-16139583Y-8856115D01*
X-15954953Y-8835699D01*
X-15752061Y-8823281D01*
X-15542598Y-8818858D01*
X-15338257Y-8822429D01*
G36*
X15691313Y-8836185D02*
G01*
X16088969Y-8885897D01*
X16411602Y-8944354D01*
X16749291Y-9019860D01*
X17112766Y-9113647D01*
X17491291Y-9222585D01*
X17874131Y-9343549D01*
X18250550Y-9473409D01*
X18341870Y-9506704D01*
X18470989Y-9555101D01*
X18564212Y-9592149D01*
X18625806Y-9619892D01*
X18660033Y-9640378D01*
X18671158Y-9655650D01*
X18668373Y-9663339D01*
X18640001Y-9687544D01*
X18580794Y-9730801D01*
X18495846Y-9789769D01*
X18390248Y-9861105D01*
X18269092Y-9941468D01*
X18137471Y-10027517D01*
X18000476Y-10115910D01*
X17863198Y-10203305D01*
X17730731Y-10286361D01*
X17608166Y-10361737D01*
X17557750Y-10392169D01*
X17381351Y-10494738D01*
X17185702Y-10603016D01*
X16978293Y-10713262D01*
X16766613Y-10821735D01*
X16558152Y-10924694D01*
X16360401Y-11018397D01*
X16180848Y-11099103D01*
X16026983Y-11163071D01*
X15974202Y-11183173D01*
X15623917Y-11297966D01*
X15294027Y-11376873D01*
X14982837Y-11420121D01*
X14688651Y-11427936D01*
X14409774Y-11400544D01*
X14382750Y-11395893D01*
X14170738Y-11340113D01*
X13987246Y-11253644D01*
X13832126Y-11136271D01*
X13705231Y-10987780D01*
X13606412Y-10807954D01*
X13535523Y-10596578D01*
X13492414Y-10353437D01*
X13476940Y-10078315D01*
X13476924Y-10075334D01*
X13490165Y-9846808D01*
X13533391Y-9647023D01*
X13608282Y-9473243D01*
X13716513Y-9322730D01*
X13859765Y-9192748D01*
X14039714Y-9080562D01*
X14107584Y-9046910D01*
X14372945Y-8943413D01*
X14663232Y-8870626D01*
X14979212Y-8828515D01*
X15321650Y-8817046D01*
X15691313Y-8836185D01*
G37*
X15691313Y-8836185D02*
X16088969Y-8885897D01*
X16411602Y-8944354D01*
X16749291Y-9019860D01*
X17112766Y-9113647D01*
X17491291Y-9222585D01*
X17874131Y-9343549D01*
X18250550Y-9473409D01*
X18341870Y-9506704D01*
X18470989Y-9555101D01*
X18564212Y-9592149D01*
X18625806Y-9619892D01*
X18660033Y-9640378D01*
X18671158Y-9655650D01*
X18668373Y-9663339D01*
X18640001Y-9687544D01*
X18580794Y-9730801D01*
X18495846Y-9789769D01*
X18390248Y-9861105D01*
X18269092Y-9941468D01*
X18137471Y-10027517D01*
X18000476Y-10115910D01*
X17863198Y-10203305D01*
X17730731Y-10286361D01*
X17608166Y-10361737D01*
X17557750Y-10392169D01*
X17381351Y-10494738D01*
X17185702Y-10603016D01*
X16978293Y-10713262D01*
X16766613Y-10821735D01*
X16558152Y-10924694D01*
X16360401Y-11018397D01*
X16180848Y-11099103D01*
X16026983Y-11163071D01*
X15974202Y-11183173D01*
X15623917Y-11297966D01*
X15294027Y-11376873D01*
X14982837Y-11420121D01*
X14688651Y-11427936D01*
X14409774Y-11400544D01*
X14382750Y-11395893D01*
X14170738Y-11340113D01*
X13987246Y-11253644D01*
X13832126Y-11136271D01*
X13705231Y-10987780D01*
X13606412Y-10807954D01*
X13535523Y-10596578D01*
X13492414Y-10353437D01*
X13476940Y-10078315D01*
X13476924Y-10075334D01*
X13490165Y-9846808D01*
X13533391Y-9647023D01*
X13608282Y-9473243D01*
X13716513Y-9322730D01*
X13859765Y-9192748D01*
X14039714Y-9080562D01*
X14107584Y-9046910D01*
X14372945Y-8943413D01*
X14663232Y-8870626D01*
X14979212Y-8828515D01*
X15321650Y-8817046D01*
X15691313Y-8836185D01*
G36*
X-10252673Y-5385028D02*
G01*
X-10252872Y-5448830D01*
X-10256859Y-5543976D01*
X-10264176Y-5665102D01*
X-10274367Y-5806845D01*
X-10286974Y-5963840D01*
X-10301540Y-6130724D01*
X-10317606Y-6302134D01*
X-10334716Y-6472705D01*
X-10352413Y-6637075D01*
X-10370238Y-6789878D01*
X-10387735Y-6925752D01*
X-10394576Y-6974417D01*
X-10461702Y-7393462D01*
X-10536527Y-7773901D01*
X-10620076Y-8118933D01*
X-10713375Y-8431755D01*
X-10817449Y-8715566D01*
X-10933326Y-8973565D01*
X-11062029Y-9208949D01*
X-11160430Y-9362158D01*
X-11331310Y-9586691D01*
X-11508089Y-9770107D01*
X-11690456Y-9912230D01*
X-11878097Y-10012883D01*
X-12070698Y-10071889D01*
X-12267948Y-10089073D01*
X-12421151Y-10073985D01*
X-12583503Y-10031497D01*
X-12754513Y-9962458D01*
X-12926725Y-9872005D01*
X-13092678Y-9765274D01*
X-13244916Y-9647402D01*
X-13375980Y-9523523D01*
X-13478410Y-9398776D01*
X-13531032Y-9309669D01*
X-13592592Y-9133369D01*
X-13617249Y-8940584D01*
X-13606025Y-8733643D01*
X-13559939Y-8514876D01*
X-13480012Y-8286613D01*
X-13367264Y-8051184D01*
X-13222715Y-7810918D01*
X-13047386Y-7568145D01*
X-12842296Y-7325196D01*
X-12608466Y-7084399D01*
X-12520083Y-7001115D01*
X-12210705Y-6729195D01*
X-11864760Y-6449307D01*
X-11486526Y-6164624D01*
X-11080277Y-5878317D01*
X-10650289Y-5593558D01*
X-10460622Y-5473292D01*
X-10380765Y-5424353D01*
X-10315133Y-5386106D01*
X-10271260Y-5362811D01*
X-10256720Y-5357933D01*
X-10252673Y-5385028D01*
G37*
X-10252673Y-5385028D02*
X-10252872Y-5448830D01*
X-10256859Y-5543976D01*
X-10264176Y-5665102D01*
X-10274367Y-5806845D01*
X-10286974Y-5963840D01*
X-10301540Y-6130724D01*
X-10317606Y-6302134D01*
X-10334716Y-6472705D01*
X-10352413Y-6637075D01*
X-10370238Y-6789878D01*
X-10387735Y-6925752D01*
X-10394576Y-6974417D01*
X-10461702Y-7393462D01*
X-10536527Y-7773901D01*
X-10620076Y-8118933D01*
X-10713375Y-8431755D01*
X-10817449Y-8715566D01*
X-10933326Y-8973565D01*
X-11062029Y-9208949D01*
X-11160430Y-9362158D01*
X-11331310Y-9586691D01*
X-11508089Y-9770107D01*
X-11690456Y-9912230D01*
X-11878097Y-10012883D01*
X-12070698Y-10071889D01*
X-12267948Y-10089073D01*
X-12421151Y-10073985D01*
X-12583503Y-10031497D01*
X-12754513Y-9962458D01*
X-12926725Y-9872005D01*
X-13092678Y-9765274D01*
X-13244916Y-9647402D01*
X-13375980Y-9523523D01*
X-13478410Y-9398776D01*
X-13531032Y-9309669D01*
X-13592592Y-9133369D01*
X-13617249Y-8940584D01*
X-13606025Y-8733643D01*
X-13559939Y-8514876D01*
X-13480012Y-8286613D01*
X-13367264Y-8051184D01*
X-13222715Y-7810918D01*
X-13047386Y-7568145D01*
X-12842296Y-7325196D01*
X-12608466Y-7084399D01*
X-12520083Y-7001115D01*
X-12210705Y-6729195D01*
X-11864760Y-6449307D01*
X-11486526Y-6164624D01*
X-11080277Y-5878317D01*
X-10650289Y-5593558D01*
X-10460622Y-5473292D01*
X-10380765Y-5424353D01*
X-10315133Y-5386106D01*
X-10271260Y-5362811D01*
X-10256720Y-5357933D01*
X-10252673Y-5385028D01*
G36*
X10042104Y-5367092D02*
G01*
X10093345Y-5394978D01*
X10170294Y-5440510D01*
X10268218Y-5500732D01*
X10382387Y-5572687D01*
X10508067Y-5653417D01*
X10640528Y-5739965D01*
X10775037Y-5829376D01*
X10805584Y-5849911D01*
X11152388Y-6090910D01*
X11481310Y-6334133D01*
X11789484Y-6577036D01*
X12074043Y-6817078D01*
X12332123Y-7051719D01*
X12560857Y-7278416D01*
X12757380Y-7494627D01*
X12918826Y-7697812D01*
X12968410Y-7768167D01*
X13051354Y-7901888D01*
X13137093Y-8059930D01*
X13217272Y-8225777D01*
X13283533Y-8382911D01*
X13295077Y-8413750D01*
X13324125Y-8496381D01*
X13343772Y-8563872D01*
X13355890Y-8628578D01*
X13362352Y-8702852D01*
X13365028Y-8799049D01*
X13365625Y-8879417D01*
X13365607Y-8993601D01*
X13363372Y-9075909D01*
X13357290Y-9136793D01*
X13345727Y-9186706D01*
X13327052Y-9236100D01*
X13301189Y-9292167D01*
X13202581Y-9455770D01*
X13068618Y-9604941D01*
X12896413Y-9742797D01*
X12862167Y-9765966D01*
X12628846Y-9905413D01*
X12410049Y-10005597D01*
X12205019Y-10066734D01*
X12013003Y-10089042D01*
X11833245Y-10072736D01*
X11811000Y-10067853D01*
X11610401Y-9999354D01*
X11418860Y-9891061D01*
X11239847Y-9745144D01*
X11155150Y-9657673D01*
X11064602Y-9547816D01*
X10964920Y-9412037D01*
X10864475Y-9262961D01*
X10771635Y-9113212D01*
X10694768Y-8975414D01*
X10670257Y-8926234D01*
X10560858Y-8668577D01*
X10459265Y-8372057D01*
X10366131Y-8039537D01*
X10282108Y-7673877D01*
X10207849Y-7277940D01*
X10144007Y-6854587D01*
X10091234Y-6406680D01*
X10087639Y-6371167D01*
X10075964Y-6247446D01*
X10064345Y-6111703D01*
X10053205Y-5970370D01*
X10042964Y-5829879D01*
X10034046Y-5696662D01*
X10026872Y-5577150D01*
X10021863Y-5477775D01*
X10019442Y-5404970D01*
X10020031Y-5365166D01*
X10021303Y-5359809D01*
X10042104Y-5367092D01*
G37*
X10042104Y-5367092D02*
X10093345Y-5394978D01*
X10170294Y-5440510D01*
X10268218Y-5500732D01*
X10382387Y-5572687D01*
X10508067Y-5653417D01*
X10640528Y-5739965D01*
X10775037Y-5829376D01*
X10805584Y-5849911D01*
X11152388Y-6090910D01*
X11481310Y-6334133D01*
X11789484Y-6577036D01*
X12074043Y-6817078D01*
X12332123Y-7051719D01*
X12560857Y-7278416D01*
X12757380Y-7494627D01*
X12918826Y-7697812D01*
X12968410Y-7768167D01*
X13051354Y-7901888D01*
X13137093Y-8059930D01*
X13217272Y-8225777D01*
X13283533Y-8382911D01*
X13295077Y-8413750D01*
X13324125Y-8496381D01*
X13343772Y-8563872D01*
X13355890Y-8628578D01*
X13362352Y-8702852D01*
X13365028Y-8799049D01*
X13365625Y-8879417D01*
X13365607Y-8993601D01*
X13363372Y-9075909D01*
X13357290Y-9136793D01*
X13345727Y-9186706D01*
X13327052Y-9236100D01*
X13301189Y-9292167D01*
X13202581Y-9455770D01*
X13068618Y-9604941D01*
X12896413Y-9742797D01*
X12862167Y-9765966D01*
X12628846Y-9905413D01*
X12410049Y-10005597D01*
X12205019Y-10066734D01*
X12013003Y-10089042D01*
X11833245Y-10072736D01*
X11811000Y-10067853D01*
X11610401Y-9999354D01*
X11418860Y-9891061D01*
X11239847Y-9745144D01*
X11155150Y-9657673D01*
X11064602Y-9547816D01*
X10964920Y-9412037D01*
X10864475Y-9262961D01*
X10771635Y-9113212D01*
X10694768Y-8975414D01*
X10670257Y-8926234D01*
X10560858Y-8668577D01*
X10459265Y-8372057D01*
X10366131Y-8039537D01*
X10282108Y-7673877D01*
X10207849Y-7277940D01*
X10144007Y-6854587D01*
X10091234Y-6406680D01*
X10087639Y-6371167D01*
X10075964Y-6247446D01*
X10064345Y-6111703D01*
X10053205Y-5970370D01*
X10042964Y-5829879D01*
X10034046Y-5696662D01*
X10026872Y-5577150D01*
X10021863Y-5477775D01*
X10019442Y-5404970D01*
X10020031Y-5365166D01*
X10021303Y-5359809D01*
X10042104Y-5367092D01*
G36*
X-18286735Y-4984063D02*
G01*
X-17953493Y-5007061D01*
X-17645208Y-5048798D01*
X-17357268Y-5109866D01*
X-17085064Y-5190859D01*
X-16873047Y-5271436D01*
X-16633253Y-5387126D01*
X-16428950Y-5518505D01*
X-16261242Y-5664402D01*
X-16131233Y-5823648D01*
X-16040029Y-5995070D01*
X-15988733Y-6177498D01*
X-15983465Y-6214326D01*
X-15975896Y-6402671D01*
X-15995237Y-6600204D01*
X-16038633Y-6800168D01*
X-16103224Y-6995802D01*
X-16186153Y-7180348D01*
X-16284563Y-7347048D01*
X-16395596Y-7489142D01*
X-16516394Y-7599872D01*
X-16589068Y-7646660D01*
X-16752720Y-7713970D01*
X-16944087Y-7754487D01*
X-17157694Y-7767692D01*
X-17388064Y-7753069D01*
X-17514256Y-7734009D01*
X-17775406Y-7671152D01*
X-18049007Y-7574393D01*
X-18335750Y-7443268D01*
X-18636326Y-7277309D01*
X-18951425Y-7076052D01*
X-19281738Y-6839030D01*
X-19627955Y-6565779D01*
X-19990767Y-6255832D01*
X-20370866Y-5908724D01*
X-20719756Y-5572596D01*
X-20831291Y-5461767D01*
X-20914567Y-5376621D01*
X-20972316Y-5314004D01*
X-21007273Y-5270763D01*
X-21022174Y-5243746D01*
X-21019751Y-5229800D01*
X-21018066Y-5228642D01*
X-20972556Y-5212764D01*
X-20889832Y-5194243D01*
X-20774890Y-5173680D01*
X-20632726Y-5151674D01*
X-20468335Y-5128825D01*
X-20286712Y-5105733D01*
X-20092854Y-5082998D01*
X-19891754Y-5061220D01*
X-19688410Y-5040998D01*
X-19487817Y-5022932D01*
X-19294969Y-5007622D01*
X-19114863Y-4995669D01*
X-19046530Y-4991911D01*
X-18649544Y-4979210D01*
X-18286735Y-4984063D01*
G37*
X-18286735Y-4984063D02*
X-17953493Y-5007061D01*
X-17645208Y-5048798D01*
X-17357268Y-5109866D01*
X-17085064Y-5190859D01*
X-16873047Y-5271436D01*
X-16633253Y-5387126D01*
X-16428950Y-5518505D01*
X-16261242Y-5664402D01*
X-16131233Y-5823648D01*
X-16040029Y-5995070D01*
X-15988733Y-6177498D01*
X-15983465Y-6214326D01*
X-15975896Y-6402671D01*
X-15995237Y-6600204D01*
X-16038633Y-6800168D01*
X-16103224Y-6995802D01*
X-16186153Y-7180348D01*
X-16284563Y-7347048D01*
X-16395596Y-7489142D01*
X-16516394Y-7599872D01*
X-16589068Y-7646660D01*
X-16752720Y-7713970D01*
X-16944087Y-7754487D01*
X-17157694Y-7767692D01*
X-17388064Y-7753069D01*
X-17514256Y-7734009D01*
X-17775406Y-7671152D01*
X-18049007Y-7574393D01*
X-18335750Y-7443268D01*
X-18636326Y-7277309D01*
X-18951425Y-7076052D01*
X-19281738Y-6839030D01*
X-19627955Y-6565779D01*
X-19990767Y-6255832D01*
X-20370866Y-5908724D01*
X-20719756Y-5572596D01*
X-20831291Y-5461767D01*
X-20914567Y-5376621D01*
X-20972316Y-5314004D01*
X-21007273Y-5270763D01*
X-21022174Y-5243746D01*
X-21019751Y-5229800D01*
X-21018066Y-5228642D01*
X-20972556Y-5212764D01*
X-20889832Y-5194243D01*
X-20774890Y-5173680D01*
X-20632726Y-5151674D01*
X-20468335Y-5128825D01*
X-20286712Y-5105733D01*
X-20092854Y-5082998D01*
X-19891754Y-5061220D01*
X-19688410Y-5040998D01*
X-19487817Y-5022932D01*
X-19294969Y-5007622D01*
X-19114863Y-4995669D01*
X-19046530Y-4991911D01*
X-18649544Y-4979210D01*
X-18286735Y-4984063D01*
G36*
X18644536Y-4985994D02*
G01*
X19025342Y-5003695D01*
X19424830Y-5034460D01*
X19838736Y-5078138D01*
X20262792Y-5134578D01*
X20403927Y-5155931D01*
X20522437Y-5175124D01*
X20627553Y-5193511D01*
X20711569Y-5209638D01*
X20766781Y-5222049D01*
X20784135Y-5227730D01*
X20781698Y-5248349D01*
X20750210Y-5293558D01*
X20692787Y-5360431D01*
X20612547Y-5446040D01*
X20512607Y-5547456D01*
X20396083Y-5661752D01*
X20266093Y-5786000D01*
X20125754Y-5917272D01*
X19978182Y-6052641D01*
X19826495Y-6189178D01*
X19673809Y-6323955D01*
X19523243Y-6454045D01*
X19377911Y-6576519D01*
X19240933Y-6688451D01*
X19165125Y-6748493D01*
X18825564Y-7001638D01*
X18502516Y-7217288D01*
X18194320Y-7396184D01*
X17899317Y-7539066D01*
X17615849Y-7646676D01*
X17342255Y-7719752D01*
X17076876Y-7759036D01*
X16882936Y-7766774D01*
X16780210Y-7762662D01*
X16678478Y-7752976D01*
X16595884Y-7739582D01*
X16578806Y-7735461D01*
X16404651Y-7670706D01*
X16252022Y-7575025D01*
X16119129Y-7446432D01*
X16004183Y-7282939D01*
X15905394Y-7082561D01*
X15845630Y-6921500D01*
X15777357Y-6677076D01*
X15743079Y-6455702D01*
X15743213Y-6254650D01*
X15778173Y-6071193D01*
X15848376Y-5902600D01*
X15954236Y-5746146D01*
X16038878Y-5653129D01*
X16204089Y-5513325D01*
X16405339Y-5385241D01*
X16637384Y-5271215D01*
X16894982Y-5173586D01*
X17172889Y-5094692D01*
X17393460Y-5048878D01*
X17656875Y-5012801D01*
X17956036Y-4990396D01*
X18286679Y-4981511D01*
X18644536Y-4985994D01*
G37*
X18644536Y-4985994D02*
X19025342Y-5003695D01*
X19424830Y-5034460D01*
X19838736Y-5078138D01*
X20262792Y-5134578D01*
X20403927Y-5155931D01*
X20522437Y-5175124D01*
X20627553Y-5193511D01*
X20711569Y-5209638D01*
X20766781Y-5222049D01*
X20784135Y-5227730D01*
X20781698Y-5248349D01*
X20750210Y-5293558D01*
X20692787Y-5360431D01*
X20612547Y-5446040D01*
X20512607Y-5547456D01*
X20396083Y-5661752D01*
X20266093Y-5786000D01*
X20125754Y-5917272D01*
X19978182Y-6052641D01*
X19826495Y-6189178D01*
X19673809Y-6323955D01*
X19523243Y-6454045D01*
X19377911Y-6576519D01*
X19240933Y-6688451D01*
X19165125Y-6748493D01*
X18825564Y-7001638D01*
X18502516Y-7217288D01*
X18194320Y-7396184D01*
X17899317Y-7539066D01*
X17615849Y-7646676D01*
X17342255Y-7719752D01*
X17076876Y-7759036D01*
X16882936Y-7766774D01*
X16780210Y-7762662D01*
X16678478Y-7752976D01*
X16595884Y-7739582D01*
X16578806Y-7735461D01*
X16404651Y-7670706D01*
X16252022Y-7575025D01*
X16119129Y-7446432D01*
X16004183Y-7282939D01*
X15905394Y-7082561D01*
X15845630Y-6921500D01*
X15777357Y-6677076D01*
X15743079Y-6455702D01*
X15743213Y-6254650D01*
X15778173Y-6071193D01*
X15848376Y-5902600D01*
X15954236Y-5746146D01*
X16038878Y-5653129D01*
X16204089Y-5513325D01*
X16405339Y-5385241D01*
X16637384Y-5271215D01*
X16894982Y-5173586D01*
X17172889Y-5094692D01*
X17393460Y-5048878D01*
X17656875Y-5012801D01*
X17956036Y-4990396D01*
X18286679Y-4981511D01*
X18644536Y-4985994D01*
G36*
X-11751131Y-2432871D02*
G01*
X-11752506Y-2489457D01*
X-11761742Y-2578216D01*
X-11778027Y-2694604D01*
X-11800547Y-2834081D01*
X-11828489Y-2992104D01*
X-11861041Y-3164131D01*
X-11897391Y-3345620D01*
X-11936724Y-3532028D01*
X-11978229Y-3718815D01*
X-12021092Y-3901436D01*
X-12034941Y-3958167D01*
X-12150081Y-4393614D01*
X-12271315Y-4791144D01*
X-12398278Y-5149739D01*
X-12530609Y-5468382D01*
X-12667944Y-5746055D01*
X-12680793Y-5769463D01*
X-12815776Y-5990637D01*
X-12966846Y-6198367D01*
X-13129317Y-6387968D01*
X-13298503Y-6554751D01*
X-13469717Y-6694033D01*
X-13638271Y-6801125D01*
X-13774133Y-6862692D01*
X-13900379Y-6895275D01*
X-14045012Y-6912325D01*
X-14190572Y-6913013D01*
X-14319599Y-6896511D01*
X-14346354Y-6889848D01*
X-14520314Y-6826074D01*
X-14698477Y-6733705D01*
X-14873051Y-6618925D01*
X-15036244Y-6487917D01*
X-15180261Y-6346864D01*
X-15297310Y-6201950D01*
X-15371790Y-6076199D01*
X-15429914Y-5907087D01*
X-15451554Y-5720849D01*
X-15436950Y-5521417D01*
X-15386344Y-5312720D01*
X-15313599Y-5127500D01*
X-15192501Y-4899654D01*
X-15040222Y-4673958D01*
X-14855414Y-4449196D01*
X-14636732Y-4224151D01*
X-14382830Y-3997605D01*
X-14092361Y-3768343D01*
X-13763979Y-3535147D01*
X-13396338Y-3296801D01*
X-13070416Y-3100051D01*
X-12985252Y-3051260D01*
X-12878454Y-2991881D01*
X-12755218Y-2924634D01*
X-12620737Y-2852238D01*
X-12480203Y-2777413D01*
X-12338810Y-2702879D01*
X-12201752Y-2631354D01*
X-12074221Y-2565559D01*
X-11961412Y-2508213D01*
X-11868516Y-2462036D01*
X-11800728Y-2429747D01*
X-11763242Y-2414067D01*
X-11758429Y-2413000D01*
X-11751131Y-2432871D01*
G37*
X-11751131Y-2432871D02*
X-11752506Y-2489457D01*
X-11761742Y-2578216D01*
X-11778027Y-2694604D01*
X-11800547Y-2834081D01*
X-11828489Y-2992104D01*
X-11861041Y-3164131D01*
X-11897391Y-3345620D01*
X-11936724Y-3532028D01*
X-11978229Y-3718815D01*
X-12021092Y-3901436D01*
X-12034941Y-3958167D01*
X-12150081Y-4393614D01*
X-12271315Y-4791144D01*
X-12398278Y-5149739D01*
X-12530609Y-5468382D01*
X-12667944Y-5746055D01*
X-12680793Y-5769463D01*
X-12815776Y-5990637D01*
X-12966846Y-6198367D01*
X-13129317Y-6387968D01*
X-13298503Y-6554751D01*
X-13469717Y-6694033D01*
X-13638271Y-6801125D01*
X-13774133Y-6862692D01*
X-13900379Y-6895275D01*
X-14045012Y-6912325D01*
X-14190572Y-6913013D01*
X-14319599Y-6896511D01*
X-14346354Y-6889848D01*
X-14520314Y-6826074D01*
X-14698477Y-6733705D01*
X-14873051Y-6618925D01*
X-15036244Y-6487917D01*
X-15180261Y-6346864D01*
X-15297310Y-6201950D01*
X-15371790Y-6076199D01*
X-15429914Y-5907087D01*
X-15451554Y-5720849D01*
X-15436950Y-5521417D01*
X-15386344Y-5312720D01*
X-15313599Y-5127500D01*
X-15192501Y-4899654D01*
X-15040222Y-4673958D01*
X-14855414Y-4449196D01*
X-14636732Y-4224151D01*
X-14382830Y-3997605D01*
X-14092361Y-3768343D01*
X-13763979Y-3535147D01*
X-13396338Y-3296801D01*
X-13070416Y-3100051D01*
X-12985252Y-3051260D01*
X-12878454Y-2991881D01*
X-12755218Y-2924634D01*
X-12620737Y-2852238D01*
X-12480203Y-2777413D01*
X-12338810Y-2702879D01*
X-12201752Y-2631354D01*
X-12074221Y-2565559D01*
X-11961412Y-2508213D01*
X-11868516Y-2462036D01*
X-11800728Y-2429747D01*
X-11763242Y-2414067D01*
X-11758429Y-2413000D01*
X-11751131Y-2432871D01*
G36*
X11550697Y-2422488D02*
G01*
X11607636Y-2449026D01*
X11690687Y-2489724D01*
X11794234Y-2541693D01*
X11912661Y-2602044D01*
X12040351Y-2667888D01*
X12171690Y-2736334D01*
X12301060Y-2804494D01*
X12422847Y-2869479D01*
X12531433Y-2928398D01*
X12587293Y-2959291D01*
X13005452Y-3200592D01*
X13383337Y-3435487D01*
X13722314Y-3665211D01*
X14023746Y-3890996D01*
X14288999Y-4114079D01*
X14519438Y-4335692D01*
X14716427Y-4557070D01*
X14881330Y-4779447D01*
X15015513Y-5004058D01*
X15120341Y-5232138D01*
X15131057Y-5259917D01*
X15194696Y-5472243D01*
X15219684Y-5672208D01*
X15205472Y-5861299D01*
X15151513Y-6041002D01*
X15057258Y-6212803D01*
X14922159Y-6378189D01*
X14745668Y-6538646D01*
X14626167Y-6628590D01*
X14412663Y-6761916D01*
X14205783Y-6855119D01*
X14006427Y-6907962D01*
X13815497Y-6920208D01*
X13633894Y-6891618D01*
X13631334Y-6890902D01*
X13434088Y-6814638D01*
X13238358Y-6698565D01*
X13046451Y-6545201D01*
X12860675Y-6357065D01*
X12683336Y-6136672D01*
X12516744Y-5886543D01*
X12363204Y-5609193D01*
X12264352Y-5399347D01*
X12201296Y-5246274D01*
X12132250Y-5061982D01*
X12060564Y-4856544D01*
X11989584Y-4640034D01*
X11922659Y-4422523D01*
X11863137Y-4214083D01*
X11834607Y-4106334D01*
X11791375Y-3931797D01*
X11748554Y-3748318D01*
X11706965Y-3560405D01*
X11667432Y-3372564D01*
X11630778Y-3189303D01*
X11597826Y-3015130D01*
X11569399Y-2854552D01*
X11546318Y-2712078D01*
X11529408Y-2592214D01*
X11519492Y-2499467D01*
X11517391Y-2438347D01*
X11523929Y-2413360D01*
X11525485Y-2413000D01*
X11550697Y-2422488D01*
G37*
X11550697Y-2422488D02*
X11607636Y-2449026D01*
X11690687Y-2489724D01*
X11794234Y-2541693D01*
X11912661Y-2602044D01*
X12040351Y-2667888D01*
X12171690Y-2736334D01*
X12301060Y-2804494D01*
X12422847Y-2869479D01*
X12531433Y-2928398D01*
X12587293Y-2959291D01*
X13005452Y-3200592D01*
X13383337Y-3435487D01*
X13722314Y-3665211D01*
X14023746Y-3890996D01*
X14288999Y-4114079D01*
X14519438Y-4335692D01*
X14716427Y-4557070D01*
X14881330Y-4779447D01*
X15015513Y-5004058D01*
X15120341Y-5232138D01*
X15131057Y-5259917D01*
X15194696Y-5472243D01*
X15219684Y-5672208D01*
X15205472Y-5861299D01*
X15151513Y-6041002D01*
X15057258Y-6212803D01*
X14922159Y-6378189D01*
X14745668Y-6538646D01*
X14626167Y-6628590D01*
X14412663Y-6761916D01*
X14205783Y-6855119D01*
X14006427Y-6907962D01*
X13815497Y-6920208D01*
X13633894Y-6891618D01*
X13631334Y-6890902D01*
X13434088Y-6814638D01*
X13238358Y-6698565D01*
X13046451Y-6545201D01*
X12860675Y-6357065D01*
X12683336Y-6136672D01*
X12516744Y-5886543D01*
X12363204Y-5609193D01*
X12264352Y-5399347D01*
X12201296Y-5246274D01*
X12132250Y-5061982D01*
X12060564Y-4856544D01*
X11989584Y-4640034D01*
X11922659Y-4422523D01*
X11863137Y-4214083D01*
X11834607Y-4106334D01*
X11791375Y-3931797D01*
X11748554Y-3748318D01*
X11706965Y-3560405D01*
X11667432Y-3372564D01*
X11630778Y-3189303D01*
X11597826Y-3015130D01*
X11569399Y-2854552D01*
X11546318Y-2712078D01*
X11529408Y-2592214D01*
X11519492Y-2499467D01*
X11517391Y-2438347D01*
X11523929Y-2413360D01*
X11525485Y-2413000D01*
X11550697Y-2422488D01*
G36*
X-12611901Y-26694D02*
G01*
X-12630124Y-83761D01*
X-12666006Y-173691D01*
X-12718533Y-294179D01*
X-12786690Y-442917D01*
X-12869462Y-617599D01*
X-12965835Y-815919D01*
X-12996623Y-878417D01*
X-13133989Y-1151703D01*
X-13261695Y-1395054D01*
X-13385158Y-1618088D01*
X-13509795Y-1830429D01*
X-13641023Y-2041696D01*
X-13723433Y-2169278D01*
X-13932021Y-2473077D01*
X-14136607Y-2739319D01*
X-14341114Y-2972030D01*
X-14549462Y-3175238D01*
X-14765575Y-3352970D01*
X-14993375Y-3509255D01*
X-15078660Y-3560844D01*
X-15262087Y-3653651D01*
X-15450993Y-3722571D01*
X-15637424Y-3765913D01*
X-15813427Y-3781984D01*
X-15971049Y-3769091D01*
X-16012583Y-3759586D01*
X-16189181Y-3697398D01*
X-16349405Y-3608014D01*
X-16501546Y-3486084D01*
X-16613846Y-3371710D01*
X-16775180Y-3177871D01*
X-16898337Y-2994326D01*
X-16985138Y-2817500D01*
X-17037403Y-2643821D01*
X-17055579Y-2504622D01*
X-17051370Y-2332480D01*
X-17016842Y-2167670D01*
X-16949635Y-2004202D01*
X-16847391Y-1836087D01*
X-16734297Y-1688813D01*
X-16561798Y-1503766D01*
X-16359223Y-1328161D01*
X-16125158Y-1161320D01*
X-15858192Y-1002566D01*
X-15556911Y-851220D01*
X-15219904Y-706605D01*
X-14845759Y-568042D01*
X-14433062Y-434856D01*
X-13980401Y-306366D01*
X-13705416Y-235333D01*
X-13582905Y-205503D01*
X-13446806Y-173709D01*
X-13303310Y-141256D01*
X-13158607Y-109450D01*
X-13018886Y-79595D01*
X-12890336Y-52998D01*
X-12779147Y-30964D01*
X-12691509Y-14798D01*
X-12633611Y-5806D01*
X-12612351Y-4796D01*
X-12611901Y-26694D01*
G37*
X-12611901Y-26694D02*
X-12630124Y-83761D01*
X-12666006Y-173691D01*
X-12718533Y-294179D01*
X-12786690Y-442917D01*
X-12869462Y-617599D01*
X-12965835Y-815919D01*
X-12996623Y-878417D01*
X-13133989Y-1151703D01*
X-13261695Y-1395054D01*
X-13385158Y-1618088D01*
X-13509795Y-1830429D01*
X-13641023Y-2041696D01*
X-13723433Y-2169278D01*
X-13932021Y-2473077D01*
X-14136607Y-2739319D01*
X-14341114Y-2972030D01*
X-14549462Y-3175238D01*
X-14765575Y-3352970D01*
X-14993375Y-3509255D01*
X-15078660Y-3560844D01*
X-15262087Y-3653651D01*
X-15450993Y-3722571D01*
X-15637424Y-3765913D01*
X-15813427Y-3781984D01*
X-15971049Y-3769091D01*
X-16012583Y-3759586D01*
X-16189181Y-3697398D01*
X-16349405Y-3608014D01*
X-16501546Y-3486084D01*
X-16613846Y-3371710D01*
X-16775180Y-3177871D01*
X-16898337Y-2994326D01*
X-16985138Y-2817500D01*
X-17037403Y-2643821D01*
X-17055579Y-2504622D01*
X-17051370Y-2332480D01*
X-17016842Y-2167670D01*
X-16949635Y-2004202D01*
X-16847391Y-1836087D01*
X-16734297Y-1688813D01*
X-16561798Y-1503766D01*
X-16359223Y-1328161D01*
X-16125158Y-1161320D01*
X-15858192Y-1002566D01*
X-15556911Y-851220D01*
X-15219904Y-706605D01*
X-14845759Y-568042D01*
X-14433062Y-434856D01*
X-13980401Y-306366D01*
X-13705416Y-235333D01*
X-13582905Y-205503D01*
X-13446806Y-173709D01*
X-13303310Y-141256D01*
X-13158607Y-109450D01*
X-13018886Y-79595D01*
X-12890336Y-52998D01*
X-12779147Y-30964D01*
X-12691509Y-14798D01*
X-12633611Y-5806D01*
X-12612351Y-4796D01*
X-12611901Y-26694D01*
G36*
X12456416Y-13363D02*
G01*
X12548513Y-29718D01*
X12666165Y-52963D01*
X12804206Y-81953D01*
X12957467Y-115546D01*
X13120782Y-152600D01*
X13288984Y-191972D01*
X13456905Y-232519D01*
X13619377Y-273099D01*
X13771235Y-312569D01*
X13839070Y-330848D01*
X14287836Y-461338D01*
X14696039Y-596830D01*
X15065239Y-738115D01*
X15396998Y-885984D01*
X15692875Y-1041229D01*
X15954430Y-1204640D01*
X16183225Y-1377009D01*
X16380819Y-1559127D01*
X16483338Y-1671400D01*
X16621211Y-1848986D01*
X16721749Y-2016983D01*
X16787172Y-2180876D01*
X16819704Y-2346149D01*
X16822278Y-2507678D01*
X16808074Y-2631779D01*
X16779210Y-2746156D01*
X16731486Y-2861788D01*
X16660704Y-2989656D01*
X16603492Y-3079750D01*
X16451855Y-3286825D01*
X16292300Y-3460233D01*
X16127592Y-3597489D01*
X15960496Y-3696109D01*
X15881047Y-3728716D01*
X15727278Y-3766222D01*
X15557518Y-3780212D01*
X15391676Y-3769604D01*
X15332371Y-3758568D01*
X15122484Y-3693172D01*
X14901412Y-3589848D01*
X14668092Y-3448012D01*
X14421459Y-3267079D01*
X14385855Y-3238633D01*
X14198658Y-3070402D01*
X14004658Y-2862951D01*
X13805342Y-2618575D01*
X13602198Y-2339566D01*
X13396717Y-2028218D01*
X13190385Y-1686826D01*
X12984692Y-1317681D01*
X12781125Y-923079D01*
X12581174Y-505312D01*
X12508848Y-346312D01*
X12460737Y-237423D01*
X12420210Y-142502D01*
X12389907Y-67995D01*
X12372465Y-20349D01*
X12369557Y-5888D01*
X12395042Y-5038D01*
X12456416Y-13363D01*
G37*
X12456416Y-13363D02*
X12548513Y-29718D01*
X12666165Y-52963D01*
X12804206Y-81953D01*
X12957467Y-115546D01*
X13120782Y-152600D01*
X13288984Y-191972D01*
X13456905Y-232519D01*
X13619377Y-273099D01*
X13771235Y-312569D01*
X13839070Y-330848D01*
X14287836Y-461338D01*
X14696039Y-596830D01*
X15065239Y-738115D01*
X15396998Y-885984D01*
X15692875Y-1041229D01*
X15954430Y-1204640D01*
X16183225Y-1377009D01*
X16380819Y-1559127D01*
X16483338Y-1671400D01*
X16621211Y-1848986D01*
X16721749Y-2016983D01*
X16787172Y-2180876D01*
X16819704Y-2346149D01*
X16822278Y-2507678D01*
X16808074Y-2631779D01*
X16779210Y-2746156D01*
X16731486Y-2861788D01*
X16660704Y-2989656D01*
X16603492Y-3079750D01*
X16451855Y-3286825D01*
X16292300Y-3460233D01*
X16127592Y-3597489D01*
X15960496Y-3696109D01*
X15881047Y-3728716D01*
X15727278Y-3766222D01*
X15557518Y-3780212D01*
X15391676Y-3769604D01*
X15332371Y-3758568D01*
X15122484Y-3693172D01*
X14901412Y-3589848D01*
X14668092Y-3448012D01*
X14421459Y-3267079D01*
X14385855Y-3238633D01*
X14198658Y-3070402D01*
X14004658Y-2862951D01*
X13805342Y-2618575D01*
X13602198Y-2339566D01*
X13396717Y-2028218D01*
X13190385Y-1686826D01*
X12984692Y-1317681D01*
X12781125Y-923079D01*
X12581174Y-505312D01*
X12508848Y-346312D01*
X12460737Y-237423D01*
X12420210Y-142502D01*
X12389907Y-67995D01*
X12372465Y-20349D01*
X12369557Y-5888D01*
X12395042Y-5038D01*
X12456416Y-13363D01*
G36*
X-21823283Y-131904D02*
G01*
X-21753767Y-139403D01*
X-21655334Y-152742D01*
X-21534321Y-170896D01*
X-21397065Y-192841D01*
X-21249903Y-217553D01*
X-21099173Y-244006D01*
X-20951212Y-271177D01*
X-20812357Y-298041D01*
X-20758723Y-308894D01*
X-20272854Y-417543D01*
X-19828139Y-535375D01*
X-19424610Y-662378D01*
X-19062300Y-798540D01*
X-18741240Y-943850D01*
X-18461462Y-1098295D01*
X-18260889Y-1233217D01*
X-18027781Y-1422100D01*
X-17835846Y-1612777D01*
X-17685268Y-1804902D01*
X-17576229Y-1998129D01*
X-17508913Y-2192111D01*
X-17483502Y-2386502D01*
X-17500179Y-2580957D01*
X-17514895Y-2644874D01*
X-17573814Y-2810359D01*
X-17661557Y-2982600D01*
X-17771966Y-3153855D01*
X-17898880Y-3316385D01*
X-18036142Y-3462448D01*
X-18177591Y-3584303D01*
X-18317070Y-3674211D01*
X-18344894Y-3688009D01*
X-18425547Y-3722853D01*
X-18495783Y-3744090D01*
X-18572910Y-3755497D01*
X-18674239Y-3760847D01*
X-18679583Y-3761004D01*
X-18808797Y-3759392D01*
X-18927151Y-3748150D01*
X-18992431Y-3735671D01*
X-19142727Y-3686571D01*
X-19311304Y-3612027D01*
X-19487268Y-3517264D01*
X-19619033Y-3435074D01*
X-19835190Y-3272221D01*
X-20055911Y-3067764D01*
X-20280875Y-2822148D01*
X-20509759Y-2535820D01*
X-20742242Y-2209225D01*
X-20978000Y-1842811D01*
X-21216713Y-1437023D01*
X-21458056Y-992306D01*
X-21634599Y-645584D01*
X-21717464Y-476813D01*
X-21780817Y-343540D01*
X-21825386Y-244081D01*
X-21851901Y-176755D01*
X-21861091Y-139879D01*
X-21857544Y-131268D01*
X-21823283Y-131904D01*
G37*
X-21823283Y-131904D02*
X-21753767Y-139403D01*
X-21655334Y-152742D01*
X-21534321Y-170896D01*
X-21397065Y-192841D01*
X-21249903Y-217553D01*
X-21099173Y-244006D01*
X-20951212Y-271177D01*
X-20812357Y-298041D01*
X-20758723Y-308894D01*
X-20272854Y-417543D01*
X-19828139Y-535375D01*
X-19424610Y-662378D01*
X-19062300Y-798540D01*
X-18741240Y-943850D01*
X-18461462Y-1098295D01*
X-18260889Y-1233217D01*
X-18027781Y-1422100D01*
X-17835846Y-1612777D01*
X-17685268Y-1804902D01*
X-17576229Y-1998129D01*
X-17508913Y-2192111D01*
X-17483502Y-2386502D01*
X-17500179Y-2580957D01*
X-17514895Y-2644874D01*
X-17573814Y-2810359D01*
X-17661557Y-2982600D01*
X-17771966Y-3153855D01*
X-17898880Y-3316385D01*
X-18036142Y-3462448D01*
X-18177591Y-3584303D01*
X-18317070Y-3674211D01*
X-18344894Y-3688009D01*
X-18425547Y-3722853D01*
X-18495783Y-3744090D01*
X-18572910Y-3755497D01*
X-18674239Y-3760847D01*
X-18679583Y-3761004D01*
X-18808797Y-3759392D01*
X-18927151Y-3748150D01*
X-18992431Y-3735671D01*
X-19142727Y-3686571D01*
X-19311304Y-3612027D01*
X-19487268Y-3517264D01*
X-19619033Y-3435074D01*
X-19835190Y-3272221D01*
X-20055911Y-3067764D01*
X-20280875Y-2822148D01*
X-20509759Y-2535820D01*
X-20742242Y-2209225D01*
X-20978000Y-1842811D01*
X-21216713Y-1437023D01*
X-21458056Y-992306D01*
X-21634599Y-645584D01*
X-21717464Y-476813D01*
X-21780817Y-343540D01*
X-21825386Y-244081D01*
X-21851901Y-176755D01*
X-21861091Y-139879D01*
X-21857544Y-131268D01*
X-21823283Y-131904D01*
G36*
X21622343Y-133565D02*
G01*
X21626921Y-135699D01*
X21623646Y-159889D01*
X21602748Y-216772D01*
X21566448Y-301646D01*
X21516967Y-409808D01*
X21456526Y-536557D01*
X21387347Y-677191D01*
X21311651Y-827009D01*
X21231659Y-981309D01*
X21191815Y-1056664D01*
X20961472Y-1475948D01*
X20737877Y-1855178D01*
X20519776Y-2195873D01*
X20305915Y-2499548D01*
X20095041Y-2767721D01*
X19885901Y-3001909D01*
X19677241Y-3203629D01*
X19467806Y-3374398D01*
X19256344Y-3515733D01*
X19081750Y-3610148D01*
X18876591Y-3694657D01*
X18676773Y-3747565D01*
X18487641Y-3768136D01*
X18314541Y-3755634D01*
X18213640Y-3729593D01*
X18062150Y-3663710D01*
X17920286Y-3572415D01*
X17782505Y-3451175D01*
X17643261Y-3295455D01*
X17573639Y-3206283D01*
X17487230Y-3079355D01*
X17406622Y-2938794D01*
X17338198Y-2797276D01*
X17288343Y-2667476D01*
X17271187Y-2605830D01*
X17257541Y-2507817D01*
X17254068Y-2388674D01*
X17256858Y-2321515D01*
X17290090Y-2139121D01*
X17364265Y-1954048D01*
X17478221Y-1767976D01*
X17630793Y-1582585D01*
X17820816Y-1399554D01*
X17991463Y-1261632D01*
X18209114Y-1111776D01*
X18450364Y-973085D01*
X18718562Y-844153D01*
X19017061Y-723572D01*
X19349211Y-609936D01*
X19718363Y-501839D01*
X19939000Y-444081D01*
X20088414Y-407842D01*
X20252739Y-370459D01*
X20427006Y-332841D01*
X20606240Y-295895D01*
X20785471Y-260532D01*
X20959727Y-227657D01*
X21124035Y-198181D01*
X21273423Y-173012D01*
X21402920Y-153057D01*
X21507554Y-139225D01*
X21582352Y-132425D01*
X21622343Y-133565D01*
G37*
X21622343Y-133565D02*
X21626921Y-135699D01*
X21623646Y-159889D01*
X21602748Y-216772D01*
X21566448Y-301646D01*
X21516967Y-409808D01*
X21456526Y-536557D01*
X21387347Y-677191D01*
X21311651Y-827009D01*
X21231659Y-981309D01*
X21191815Y-1056664D01*
X20961472Y-1475948D01*
X20737877Y-1855178D01*
X20519776Y-2195873D01*
X20305915Y-2499548D01*
X20095041Y-2767721D01*
X19885901Y-3001909D01*
X19677241Y-3203629D01*
X19467806Y-3374398D01*
X19256344Y-3515733D01*
X19081750Y-3610148D01*
X18876591Y-3694657D01*
X18676773Y-3747565D01*
X18487641Y-3768136D01*
X18314541Y-3755634D01*
X18213640Y-3729593D01*
X18062150Y-3663710D01*
X17920286Y-3572415D01*
X17782505Y-3451175D01*
X17643261Y-3295455D01*
X17573639Y-3206283D01*
X17487230Y-3079355D01*
X17406622Y-2938794D01*
X17338198Y-2797276D01*
X17288343Y-2667476D01*
X17271187Y-2605830D01*
X17257541Y-2507817D01*
X17254068Y-2388674D01*
X17256858Y-2321515D01*
X17290090Y-2139121D01*
X17364265Y-1954048D01*
X17478221Y-1767976D01*
X17630793Y-1582585D01*
X17820816Y-1399554D01*
X17991463Y-1261632D01*
X18209114Y-1111776D01*
X18450364Y-973085D01*
X18718562Y-844153D01*
X19017061Y-723572D01*
X19349211Y-609936D01*
X19718363Y-501839D01*
X19939000Y-444081D01*
X20088414Y-407842D01*
X20252739Y-370459D01*
X20427006Y-332841D01*
X20606240Y-295895D01*
X20785471Y-260532D01*
X20959727Y-227657D01*
X21124035Y-198181D01*
X21273423Y-173012D01*
X21402920Y-153057D01*
X21507554Y-139225D01*
X21582352Y-132425D01*
X21622343Y-133565D01*
G36*
X-13154728Y2634212D02*
G01*
X-12993584Y2632056D01*
X-12844998Y2628759D01*
X-12714380Y2624405D01*
X-12607143Y2619077D01*
X-12528698Y2612859D01*
X-12484455Y2605834D01*
X-12476844Y2602034D01*
X-12485878Y2580272D01*
X-12518263Y2530344D01*
X-12570510Y2456824D01*
X-12639129Y2364282D01*
X-12720632Y2257291D01*
X-12811530Y2140424D01*
X-12908332Y2018251D01*
X-13007550Y1895346D01*
X-13105694Y1776279D01*
X-13121106Y1757841D01*
X-13388673Y1448026D01*
X-13656236Y1156923D01*
X-13920680Y887442D01*
X-14178892Y642491D01*
X-14427757Y424979D01*
X-14664162Y237814D01*
X-14884991Y83906D01*
X-14969050Y31838D01*
X-15203078Y-94291D01*
X-15440285Y-197448D01*
X-15675373Y-276431D01*
X-15903048Y-330041D01*
X-16118013Y-357076D01*
X-16314973Y-356335D01*
X-16488631Y-326618D01*
X-16515039Y-318731D01*
X-16683614Y-246383D01*
X-16836154Y-141285D01*
X-16974590Y-1375D01*
X-17100856Y175407D01*
X-17216883Y391120D01*
X-17250774Y465531D01*
X-17305589Y606519D01*
X-17350581Y753688D01*
X-17382436Y894033D01*
X-17397835Y1014547D01*
X-17398749Y1045844D01*
X-17377409Y1232783D01*
X-17314863Y1413689D01*
X-17211989Y1587080D01*
X-17069669Y1751469D01*
X-16888949Y1905249D01*
X-16693677Y2036828D01*
X-16481753Y2153408D01*
X-16250353Y2255682D01*
X-15996654Y2344344D01*
X-15717833Y2420089D01*
X-15411066Y2483608D01*
X-15073531Y2535597D01*
X-14702403Y2576748D01*
X-14294860Y2607755D01*
X-13959416Y2624947D01*
X-13816654Y2629751D01*
X-13659392Y2632996D01*
X-13493043Y2634765D01*
X-13323018Y2635142D01*
X-13154728Y2634212D01*
G37*
X-13154728Y2634212D02*
X-12993584Y2632056D01*
X-12844998Y2628759D01*
X-12714380Y2624405D01*
X-12607143Y2619077D01*
X-12528698Y2612859D01*
X-12484455Y2605834D01*
X-12476844Y2602034D01*
X-12485878Y2580272D01*
X-12518263Y2530344D01*
X-12570510Y2456824D01*
X-12639129Y2364282D01*
X-12720632Y2257291D01*
X-12811530Y2140424D01*
X-12908332Y2018251D01*
X-13007550Y1895346D01*
X-13105694Y1776279D01*
X-13121106Y1757841D01*
X-13388673Y1448026D01*
X-13656236Y1156923D01*
X-13920680Y887442D01*
X-14178892Y642491D01*
X-14427757Y424979D01*
X-14664162Y237814D01*
X-14884991Y83906D01*
X-14969050Y31838D01*
X-15203078Y-94291D01*
X-15440285Y-197448D01*
X-15675373Y-276431D01*
X-15903048Y-330041D01*
X-16118013Y-357076D01*
X-16314973Y-356335D01*
X-16488631Y-326618D01*
X-16515039Y-318731D01*
X-16683614Y-246383D01*
X-16836154Y-141285D01*
X-16974590Y-1375D01*
X-17100856Y175407D01*
X-17216883Y391120D01*
X-17250774Y465531D01*
X-17305589Y606519D01*
X-17350581Y753688D01*
X-17382436Y894033D01*
X-17397835Y1014547D01*
X-17398749Y1045844D01*
X-17377409Y1232783D01*
X-17314863Y1413689D01*
X-17211989Y1587080D01*
X-17069669Y1751469D01*
X-16888949Y1905249D01*
X-16693677Y2036828D01*
X-16481753Y2153408D01*
X-16250353Y2255682D01*
X-15996654Y2344344D01*
X-15717833Y2420089D01*
X-15411066Y2483608D01*
X-15073531Y2535597D01*
X-14702403Y2576748D01*
X-14294860Y2607755D01*
X-13959416Y2624947D01*
X-13816654Y2629751D01*
X-13659392Y2632996D01*
X-13493043Y2634765D01*
X-13323018Y2635142D01*
X-13154728Y2634212D01*
G36*
X13335106Y2634298D02*
G01*
X13494509Y2631942D01*
X13641471Y2628094D01*
X13710273Y2625513D01*
X14128615Y2603388D01*
X14508610Y2573511D01*
X14853668Y2535099D01*
X15167196Y2487371D01*
X15452604Y2429546D01*
X15713300Y2360842D01*
X15952693Y2280477D01*
X16174192Y2187669D01*
X16381205Y2081637D01*
X16562023Y1971587D01*
X16682113Y1883611D01*
X16800433Y1780630D01*
X16907713Y1671905D01*
X16994683Y1566697D01*
X17044111Y1489976D01*
X17114813Y1327569D01*
X17153092Y1161700D01*
X17158598Y988316D01*
X17130979Y803365D01*
X17069886Y602796D01*
X16974966Y382557D01*
X16942556Y317356D01*
X16825816Y115722D01*
X16700061Y-46945D01*
X16562200Y-173595D01*
X16409143Y-267177D01*
X16275242Y-319732D01*
X16126994Y-350262D01*
X15954120Y-359877D01*
X15768684Y-348782D01*
X15582746Y-317180D01*
X15542214Y-307301D01*
X15350725Y-248620D01*
X15144196Y-169520D01*
X14939684Y-77177D01*
X14754250Y21230D01*
X14736217Y31838D01*
X14517755Y174798D01*
X14283049Y352665D01*
X14034973Y562573D01*
X13776395Y801658D01*
X13510187Y1067053D01*
X13239220Y1355893D01*
X12966365Y1665312D01*
X12694492Y1992445D01*
X12426473Y2334427D01*
X12417275Y2346527D01*
X12352718Y2433418D01*
X12299561Y2508567D01*
X12262135Y2565563D01*
X12244769Y2597998D01*
X12244322Y2602537D01*
X12269232Y2609744D01*
X12330994Y2616232D01*
X12424130Y2621915D01*
X12543164Y2626707D01*
X12682619Y2630522D01*
X12837018Y2633274D01*
X13000883Y2634879D01*
X13168738Y2635248D01*
X13335106Y2634298D01*
G37*
X13335106Y2634298D02*
X13494509Y2631942D01*
X13641471Y2628094D01*
X13710273Y2625513D01*
X14128615Y2603388D01*
X14508610Y2573511D01*
X14853668Y2535099D01*
X15167196Y2487371D01*
X15452604Y2429546D01*
X15713300Y2360842D01*
X15952693Y2280477D01*
X16174192Y2187669D01*
X16381205Y2081637D01*
X16562023Y1971587D01*
X16682113Y1883611D01*
X16800433Y1780630D01*
X16907713Y1671905D01*
X16994683Y1566697D01*
X17044111Y1489976D01*
X17114813Y1327569D01*
X17153092Y1161700D01*
X17158598Y988316D01*
X17130979Y803365D01*
X17069886Y602796D01*
X16974966Y382557D01*
X16942556Y317356D01*
X16825816Y115722D01*
X16700061Y-46945D01*
X16562200Y-173595D01*
X16409143Y-267177D01*
X16275242Y-319732D01*
X16126994Y-350262D01*
X15954120Y-359877D01*
X15768684Y-348782D01*
X15582746Y-317180D01*
X15542214Y-307301D01*
X15350725Y-248620D01*
X15144196Y-169520D01*
X14939684Y-77177D01*
X14754250Y21230D01*
X14736217Y31838D01*
X14517755Y174798D01*
X14283049Y352665D01*
X14034973Y562573D01*
X13776395Y801658D01*
X13510187Y1067053D01*
X13239220Y1355893D01*
X12966365Y1665312D01*
X12694492Y1992445D01*
X12426473Y2334427D01*
X12417275Y2346527D01*
X12352718Y2433418D01*
X12299561Y2508567D01*
X12262135Y2565563D01*
X12244769Y2597998D01*
X12244322Y2602537D01*
X12269232Y2609744D01*
X12330994Y2616232D01*
X12424130Y2621915D01*
X12543164Y2626707D01*
X12682619Y2630522D01*
X12837018Y2633274D01*
X13000883Y2634879D01*
X13168738Y2635248D01*
X13335106Y2634298D01*
G36*
X-20960291Y4971292D02*
G01*
X-20479585Y4702889D01*
X-20037586Y4438131D01*
X-19634710Y4177335D01*
X-19271372Y3920822D01*
X-18947990Y3668908D01*
X-18664979Y3421912D01*
X-18422754Y3180152D01*
X-18221732Y2943947D01*
X-18111530Y2790798D01*
X-17966685Y2556445D01*
X-17856586Y2339494D01*
X-17779696Y2135540D01*
X-17734479Y1940174D01*
X-17719398Y1748989D01*
X-17721498Y1672023D01*
X-17748178Y1488641D01*
X-17807920Y1320758D01*
X-17903219Y1163992D01*
X-18036572Y1013960D01*
X-18156055Y908850D01*
X-18362941Y758042D01*
X-18568349Y639987D01*
X-18768882Y555914D01*
X-18961141Y507052D01*
X-19141730Y494632D01*
X-19261666Y508747D01*
X-19426688Y560929D01*
X-19591910Y650175D01*
X-19760111Y778195D01*
X-19876613Y887271D01*
X-20032551Y1057484D01*
X-20173668Y1241815D01*
X-20301706Y1444085D01*
X-20418405Y1668112D01*
X-20525507Y1917719D01*
X-20624753Y2196725D01*
X-20717885Y2508950D01*
X-20806642Y2858216D01*
X-20839016Y2998905D01*
X-20871182Y3151676D01*
X-20904877Y3328562D01*
X-20939173Y3523161D01*
X-20973146Y3729072D01*
X-21005867Y3939893D01*
X-21036412Y4149222D01*
X-21063854Y4350657D01*
X-21087266Y4537798D01*
X-21105722Y4704242D01*
X-21118297Y4843587D01*
X-21124063Y4949433D01*
X-21124333Y4970783D01*
X-21124333Y5059928D01*
X-20960291Y4971292D01*
G37*
X-20960291Y4971292D02*
X-20479585Y4702889D01*
X-20037586Y4438131D01*
X-19634710Y4177335D01*
X-19271372Y3920822D01*
X-18947990Y3668908D01*
X-18664979Y3421912D01*
X-18422754Y3180152D01*
X-18221732Y2943947D01*
X-18111530Y2790798D01*
X-17966685Y2556445D01*
X-17856586Y2339494D01*
X-17779696Y2135540D01*
X-17734479Y1940174D01*
X-17719398Y1748989D01*
X-17721498Y1672023D01*
X-17748178Y1488641D01*
X-17807920Y1320758D01*
X-17903219Y1163992D01*
X-18036572Y1013960D01*
X-18156055Y908850D01*
X-18362941Y758042D01*
X-18568349Y639987D01*
X-18768882Y555914D01*
X-18961141Y507052D01*
X-19141730Y494632D01*
X-19261666Y508747D01*
X-19426688Y560929D01*
X-19591910Y650175D01*
X-19760111Y778195D01*
X-19876613Y887271D01*
X-20032551Y1057484D01*
X-20173668Y1241815D01*
X-20301706Y1444085D01*
X-20418405Y1668112D01*
X-20525507Y1917719D01*
X-20624753Y2196725D01*
X-20717885Y2508950D01*
X-20806642Y2858216D01*
X-20839016Y2998905D01*
X-20871182Y3151676D01*
X-20904877Y3328562D01*
X-20939173Y3523161D01*
X-20973146Y3729072D01*
X-21005867Y3939893D01*
X-21036412Y4149222D01*
X-21063854Y4350657D01*
X-21087266Y4537798D01*
X-21105722Y4704242D01*
X-21118297Y4843587D01*
X-21124063Y4949433D01*
X-21124333Y4970783D01*
X-21124333Y5059928D01*
X-20960291Y4971292D01*
G36*
X20883133Y4864867D02*
G01*
X20851919Y4521998D01*
X20809097Y4168385D01*
X20755975Y3810403D01*
X20693861Y3454426D01*
X20624063Y3106827D01*
X20547890Y2773980D01*
X20466649Y2462259D01*
X20381648Y2178038D01*
X20294195Y1927690D01*
X20265350Y1854406D01*
X20144036Y1587996D01*
X20006722Y1343746D01*
X19856107Y1124552D01*
X19694894Y933312D01*
X19525785Y772924D01*
X19351480Y646286D01*
X19174682Y556296D01*
X19010069Y507974D01*
X18918174Y493582D01*
X18841767Y489996D01*
X18762351Y497744D01*
X18661429Y517355D01*
X18658417Y518013D01*
X18499924Y564485D01*
X18335984Y636995D01*
X18158489Y739312D01*
X18099265Y777792D01*
X17893796Y932422D01*
X17729737Y1095483D01*
X17606989Y1267078D01*
X17575170Y1326325D01*
X17536729Y1407933D01*
X17512351Y1474188D01*
X17498226Y1540966D01*
X17490542Y1624146D01*
X17487278Y1692505D01*
X17485486Y1813968D01*
X17492563Y1912935D01*
X17510421Y2008667D01*
X17523848Y2060819D01*
X17612549Y2314542D01*
X17739140Y2572005D01*
X17900169Y2827847D01*
X18092182Y3076712D01*
X18311724Y3313239D01*
X18362556Y3362312D01*
X18626714Y3597144D01*
X18929182Y3838368D01*
X19266810Y4083838D01*
X19636446Y4331405D01*
X20034938Y4578922D01*
X20459135Y4824242D01*
X20709467Y4961327D01*
X20897850Y5062484D01*
X20883133Y4864867D01*
G37*
X20883133Y4864867D02*
X20851919Y4521998D01*
X20809097Y4168385D01*
X20755975Y3810403D01*
X20693861Y3454426D01*
X20624063Y3106827D01*
X20547890Y2773980D01*
X20466649Y2462259D01*
X20381648Y2178038D01*
X20294195Y1927690D01*
X20265350Y1854406D01*
X20144036Y1587996D01*
X20006722Y1343746D01*
X19856107Y1124552D01*
X19694894Y933312D01*
X19525785Y772924D01*
X19351480Y646286D01*
X19174682Y556296D01*
X19010069Y507974D01*
X18918174Y493582D01*
X18841767Y489996D01*
X18762351Y497744D01*
X18661429Y517355D01*
X18658417Y518013D01*
X18499924Y564485D01*
X18335984Y636995D01*
X18158489Y739312D01*
X18099265Y777792D01*
X17893796Y932422D01*
X17729737Y1095483D01*
X17606989Y1267078D01*
X17575170Y1326325D01*
X17536729Y1407933D01*
X17512351Y1474188D01*
X17498226Y1540966D01*
X17490542Y1624146D01*
X17487278Y1692505D01*
X17485486Y1813968D01*
X17492563Y1912935D01*
X17510421Y2008667D01*
X17523848Y2060819D01*
X17612549Y2314542D01*
X17739140Y2572005D01*
X17900169Y2827847D01*
X18092182Y3076712D01*
X18311724Y3313239D01*
X18362556Y3362312D01*
X18626714Y3597144D01*
X18929182Y3838368D01*
X19266810Y4083838D01*
X19636446Y4331405D01*
X20034938Y4578922D01*
X20459135Y4824242D01*
X20709467Y4961327D01*
X20897850Y5062484D01*
X20883133Y4864867D01*
G36*
X-14963537Y5724427D02*
G01*
X-14635967Y5680117D01*
X-14279450Y5609850D01*
X-13895286Y5513879D01*
X-13484772Y5392454D01*
X-13102166Y5264538D01*
X-12957617Y5212572D01*
X-12800631Y5154019D01*
X-12636359Y5090996D01*
X-12469950Y5025619D01*
X-12306554Y4960005D01*
X-12151321Y4896273D01*
X-12009400Y4836538D01*
X-11885941Y4782918D01*
X-11786094Y4737529D01*
X-11715008Y4702490D01*
X-11677833Y4679917D01*
X-11675966Y4678217D01*
X-11682974Y4657995D01*
X-11724429Y4621544D01*
X-11796580Y4570883D01*
X-11895672Y4508024D01*
X-12017954Y4434984D01*
X-12159672Y4353777D01*
X-12317072Y4266420D01*
X-12486402Y4174926D01*
X-12663909Y4081312D01*
X-12845839Y3987592D01*
X-13028441Y3895782D01*
X-13207959Y3807897D01*
X-13380642Y3725952D01*
X-13542737Y3651962D01*
X-13690490Y3587943D01*
X-13758333Y3560094D01*
X-14119374Y3424688D01*
X-14462816Y3314969D01*
X-14721416Y3246928D01*
X-14811576Y3226988D01*
X-14894604Y3212103D01*
X-14980048Y3201364D01*
X-15077455Y3193858D01*
X-15196370Y3188674D01*
X-15346340Y3184902D01*
X-15377583Y3184298D01*
X-15557844Y3182270D01*
X-15701378Y3183818D01*
X-15813657Y3189147D01*
X-15900154Y3198463D01*
X-15938500Y3205313D01*
X-16145349Y3260924D01*
X-16320221Y3335593D01*
X-16470672Y3433233D01*
X-16590817Y3543326D01*
X-16684660Y3656837D01*
X-16757787Y3779814D01*
X-16812004Y3918361D01*
X-16849116Y4078581D01*
X-16870929Y4266578D01*
X-16879248Y4488456D01*
X-16879429Y4519083D01*
X-16878912Y4657823D01*
X-16875954Y4762835D01*
X-16869829Y4842688D01*
X-16859812Y4905953D01*
X-16845178Y4961200D01*
X-16840915Y4974166D01*
X-16762170Y5149908D01*
X-16652698Y5301870D01*
X-16511447Y5430661D01*
X-16337362Y5536891D01*
X-16129389Y5621170D01*
X-15886473Y5684108D01*
X-15607561Y5726312D01*
X-15526643Y5734172D01*
X-15260862Y5742529D01*
X-14963537Y5724427D01*
G37*
X-14963537Y5724427D02*
X-14635967Y5680117D01*
X-14279450Y5609850D01*
X-13895286Y5513879D01*
X-13484772Y5392454D01*
X-13102166Y5264538D01*
X-12957617Y5212572D01*
X-12800631Y5154019D01*
X-12636359Y5090996D01*
X-12469950Y5025619D01*
X-12306554Y4960005D01*
X-12151321Y4896273D01*
X-12009400Y4836538D01*
X-11885941Y4782918D01*
X-11786094Y4737529D01*
X-11715008Y4702490D01*
X-11677833Y4679917D01*
X-11675966Y4678217D01*
X-11682974Y4657995D01*
X-11724429Y4621544D01*
X-11796580Y4570883D01*
X-11895672Y4508024D01*
X-12017954Y4434984D01*
X-12159672Y4353777D01*
X-12317072Y4266420D01*
X-12486402Y4174926D01*
X-12663909Y4081312D01*
X-12845839Y3987592D01*
X-13028441Y3895782D01*
X-13207959Y3807897D01*
X-13380642Y3725952D01*
X-13542737Y3651962D01*
X-13690490Y3587943D01*
X-13758333Y3560094D01*
X-14119374Y3424688D01*
X-14462816Y3314969D01*
X-14721416Y3246928D01*
X-14811576Y3226988D01*
X-14894604Y3212103D01*
X-14980048Y3201364D01*
X-15077455Y3193858D01*
X-15196370Y3188674D01*
X-15346340Y3184902D01*
X-15377583Y3184298D01*
X-15557844Y3182270D01*
X-15701378Y3183818D01*
X-15813657Y3189147D01*
X-15900154Y3198463D01*
X-15938500Y3205313D01*
X-16145349Y3260924D01*
X-16320221Y3335593D01*
X-16470672Y3433233D01*
X-16590817Y3543326D01*
X-16684660Y3656837D01*
X-16757787Y3779814D01*
X-16812004Y3918361D01*
X-16849116Y4078581D01*
X-16870929Y4266578D01*
X-16879248Y4488456D01*
X-16879429Y4519083D01*
X-16878912Y4657823D01*
X-16875954Y4762835D01*
X-16869829Y4842688D01*
X-16859812Y4905953D01*
X-16845178Y4961200D01*
X-16840915Y4974166D01*
X-16762170Y5149908D01*
X-16652698Y5301870D01*
X-16511447Y5430661D01*
X-16337362Y5536891D01*
X-16129389Y5621170D01*
X-15886473Y5684108D01*
X-15607561Y5726312D01*
X-15526643Y5734172D01*
X-15260862Y5742529D01*
X-14963537Y5724427D01*
G36*
X15390263Y5726471D02*
G01*
X15543989Y5704938D01*
X15801633Y5648237D01*
X16022269Y5573044D01*
X16207562Y5478088D01*
X16359177Y5362096D01*
X16478780Y5223797D01*
X16568035Y5061919D01*
X16628244Y4876736D01*
X16644014Y4774522D01*
X16652195Y4642931D01*
X16653110Y4494173D01*
X16647078Y4340459D01*
X16634421Y4193998D01*
X16615460Y4067003D01*
X16605788Y4022786D01*
X16536054Y3816890D01*
X16435433Y3639470D01*
X16303367Y3489972D01*
X16139295Y3367843D01*
X15942659Y3272528D01*
X15800917Y3225749D01*
X15719296Y3209959D01*
X15604680Y3197425D01*
X15466294Y3188294D01*
X15313359Y3182713D01*
X15155102Y3180831D01*
X15000745Y3182794D01*
X14859513Y3188750D01*
X14740629Y3198847D01*
X14679084Y3207814D01*
X14372238Y3276037D01*
X14045646Y3371663D01*
X13697150Y3495478D01*
X13324594Y3648269D01*
X12925821Y3830821D01*
X12795250Y3894212D01*
X12612343Y3985678D01*
X12430338Y4079546D01*
X12252935Y4173668D01*
X12083834Y4265901D01*
X11926733Y4354099D01*
X11785334Y4436117D01*
X11663335Y4509809D01*
X11564437Y4573030D01*
X11492339Y4623636D01*
X11450742Y4659480D01*
X11443133Y4678217D01*
X11476869Y4699885D01*
X11545271Y4734155D01*
X11643290Y4778974D01*
X11765878Y4832288D01*
X11907984Y4892045D01*
X12064561Y4956189D01*
X12230559Y5022668D01*
X12400929Y5089427D01*
X12570623Y5154414D01*
X12734590Y5215573D01*
X12887783Y5270853D01*
X12973790Y5300811D01*
X13402322Y5439763D01*
X13799974Y5552179D01*
X14168608Y5638351D01*
X14510090Y5698574D01*
X14826283Y5733139D01*
X15119053Y5742340D01*
X15390263Y5726471D01*
G37*
X15390263Y5726471D02*
X15543989Y5704938D01*
X15801633Y5648237D01*
X16022269Y5573044D01*
X16207562Y5478088D01*
X16359177Y5362096D01*
X16478780Y5223797D01*
X16568035Y5061919D01*
X16628244Y4876736D01*
X16644014Y4774522D01*
X16652195Y4642931D01*
X16653110Y4494173D01*
X16647078Y4340459D01*
X16634421Y4193998D01*
X16615460Y4067003D01*
X16605788Y4022786D01*
X16536054Y3816890D01*
X16435433Y3639470D01*
X16303367Y3489972D01*
X16139295Y3367843D01*
X15942659Y3272528D01*
X15800917Y3225749D01*
X15719296Y3209959D01*
X15604680Y3197425D01*
X15466294Y3188294D01*
X15313359Y3182713D01*
X15155102Y3180831D01*
X15000745Y3182794D01*
X14859513Y3188750D01*
X14740629Y3198847D01*
X14679084Y3207814D01*
X14372238Y3276037D01*
X14045646Y3371663D01*
X13697150Y3495478D01*
X13324594Y3648269D01*
X12925821Y3830821D01*
X12795250Y3894212D01*
X12612343Y3985678D01*
X12430338Y4079546D01*
X12252935Y4173668D01*
X12083834Y4265901D01*
X11926733Y4354099D01*
X11785334Y4436117D01*
X11663335Y4509809D01*
X11564437Y4573030D01*
X11492339Y4623636D01*
X11450742Y4659480D01*
X11443133Y4678217D01*
X11476869Y4699885D01*
X11545271Y4734155D01*
X11643290Y4778974D01*
X11765878Y4832288D01*
X11907984Y4892045D01*
X12064561Y4956189D01*
X12230559Y5022668D01*
X12400929Y5089427D01*
X12570623Y5154414D01*
X12734590Y5215573D01*
X12887783Y5270853D01*
X12973790Y5300811D01*
X13402322Y5439763D01*
X13799974Y5552179D01*
X14168608Y5638351D01*
X14510090Y5698574D01*
X14826283Y5733139D01*
X15119053Y5742340D01*
X15390263Y5726471D01*
G36*
X-19150551Y10051941D02*
G01*
X-19135115Y10039490D01*
X-19109633Y10014005D01*
X-19070754Y9971928D01*
X-19015121Y9909699D01*
X-18939382Y9823763D01*
X-18840183Y9710559D01*
X-18805047Y9670405D01*
X-18532372Y9349081D01*
X-18276562Y9028259D01*
X-18039768Y8711245D01*
X-17824140Y8401346D01*
X-17631828Y8101869D01*
X-17464983Y7816119D01*
X-17325755Y7547404D01*
X-17216296Y7299031D01*
X-17158340Y7138432D01*
X-17075893Y6843498D01*
X-17024273Y6566557D01*
X-17003424Y6309564D01*
X-17013286Y6074473D01*
X-17053800Y5863237D01*
X-17124907Y5677812D01*
X-17206292Y5546008D01*
X-17338985Y5403651D01*
X-17505290Y5282762D01*
X-17701446Y5184923D01*
X-17923692Y5111716D01*
X-18168268Y5064722D01*
X-18393833Y5046471D01*
X-18538410Y5044277D01*
X-18646220Y5048709D01*
X-18722348Y5060050D01*
X-18743083Y5065913D01*
X-18918847Y5143575D01*
X-19075156Y5253979D01*
X-19213156Y5398574D01*
X-19333990Y5578809D01*
X-19438801Y5796133D01*
X-19528732Y6051995D01*
X-19533150Y6066809D01*
X-19575510Y6222603D01*
X-19607237Y6371560D01*
X-19629516Y6523707D01*
X-19643532Y6689076D01*
X-19650471Y6877695D01*
X-19651668Y7069666D01*
X-19643692Y7384791D01*
X-19621642Y7708662D01*
X-19584737Y8047815D01*
X-19532199Y8408782D01*
X-19463245Y8798098D01*
X-19417855Y9027583D01*
X-19390174Y9158780D01*
X-19358893Y9299930D01*
X-19325536Y9444858D01*
X-19291630Y9587389D01*
X-19258701Y9721347D01*
X-19228276Y9840558D01*
X-19201879Y9938846D01*
X-19181038Y10010036D01*
X-19167277Y10047954D01*
X-19164703Y10051972D01*
X-19159296Y10054916D01*
X-19150551Y10051941D01*
G37*
X-19150551Y10051941D02*
X-19135115Y10039490D01*
X-19109633Y10014005D01*
X-19070754Y9971928D01*
X-19015121Y9909699D01*
X-18939382Y9823763D01*
X-18840183Y9710559D01*
X-18805047Y9670405D01*
X-18532372Y9349081D01*
X-18276562Y9028259D01*
X-18039768Y8711245D01*
X-17824140Y8401346D01*
X-17631828Y8101869D01*
X-17464983Y7816119D01*
X-17325755Y7547404D01*
X-17216296Y7299031D01*
X-17158340Y7138432D01*
X-17075893Y6843498D01*
X-17024273Y6566557D01*
X-17003424Y6309564D01*
X-17013286Y6074473D01*
X-17053800Y5863237D01*
X-17124907Y5677812D01*
X-17206292Y5546008D01*
X-17338985Y5403651D01*
X-17505290Y5282762D01*
X-17701446Y5184923D01*
X-17923692Y5111716D01*
X-18168268Y5064722D01*
X-18393833Y5046471D01*
X-18538410Y5044277D01*
X-18646220Y5048709D01*
X-18722348Y5060050D01*
X-18743083Y5065913D01*
X-18918847Y5143575D01*
X-19075156Y5253979D01*
X-19213156Y5398574D01*
X-19333990Y5578809D01*
X-19438801Y5796133D01*
X-19528732Y6051995D01*
X-19533150Y6066809D01*
X-19575510Y6222603D01*
X-19607237Y6371560D01*
X-19629516Y6523707D01*
X-19643532Y6689076D01*
X-19650471Y6877695D01*
X-19651668Y7069666D01*
X-19643692Y7384791D01*
X-19621642Y7708662D01*
X-19584737Y8047815D01*
X-19532199Y8408782D01*
X-19463245Y8798098D01*
X-19417855Y9027583D01*
X-19390174Y9158780D01*
X-19358893Y9299930D01*
X-19325536Y9444858D01*
X-19291630Y9587389D01*
X-19258701Y9721347D01*
X-19228276Y9840558D01*
X-19201879Y9938846D01*
X-19181038Y10010036D01*
X-19167277Y10047954D01*
X-19164703Y10051972D01*
X-19159296Y10054916D01*
X-19150551Y10051941D01*
G36*
X18936331Y10034244D02*
G01*
X18956153Y9977874D01*
X18981750Y9890150D01*
X19011935Y9776166D01*
X19045521Y9641015D01*
X19081322Y9489792D01*
X19118152Y9327590D01*
X19154824Y9159505D01*
X19190152Y8990629D01*
X19222950Y8826056D01*
X19252032Y8670881D01*
X19270994Y8561916D01*
X19335177Y8145061D01*
X19382163Y7763852D01*
X19411794Y7415183D01*
X19423913Y7095949D01*
X19418362Y6803044D01*
X19394983Y6533360D01*
X19353619Y6283793D01*
X19294112Y6051236D01*
X19216304Y5832583D01*
X19122130Y5628770D01*
X19002988Y5434750D01*
X18865294Y5278460D01*
X18708482Y5159308D01*
X18637720Y5120655D01*
X18570907Y5089098D01*
X18516012Y5068173D01*
X18460905Y5055532D01*
X18393455Y5048825D01*
X18301531Y5045700D01*
X18246137Y5044797D01*
X18143507Y5044258D01*
X18052048Y5045441D01*
X17982695Y5048105D01*
X17949334Y5051347D01*
X17905903Y5061012D01*
X17833881Y5078525D01*
X17745587Y5100857D01*
X17700247Y5112606D01*
X17466487Y5188321D01*
X17268873Y5284498D01*
X17105762Y5402514D01*
X16975512Y5543751D01*
X16876478Y5709586D01*
X16821982Y5850042D01*
X16787038Y6011834D01*
X16772792Y6202208D01*
X16778428Y6413287D01*
X16803132Y6637191D01*
X16846089Y6866043D01*
X16906483Y7091966D01*
X16968932Y7270750D01*
X17082154Y7529599D01*
X17226888Y7809818D01*
X17400667Y8107535D01*
X17601022Y8418875D01*
X17825483Y8739963D01*
X18071583Y9066925D01*
X18277282Y9323916D01*
X18370826Y9436572D01*
X18468379Y9551960D01*
X18565904Y9665516D01*
X18659362Y9772676D01*
X18744716Y9868879D01*
X18817927Y9949561D01*
X18874958Y10010158D01*
X18911772Y10046107D01*
X18923468Y10054166D01*
X18936331Y10034244D01*
G37*
X18936331Y10034244D02*
X18956153Y9977874D01*
X18981750Y9890150D01*
X19011935Y9776166D01*
X19045521Y9641015D01*
X19081322Y9489792D01*
X19118152Y9327590D01*
X19154824Y9159505D01*
X19190152Y8990629D01*
X19222950Y8826056D01*
X19252032Y8670881D01*
X19270994Y8561916D01*
X19335177Y8145061D01*
X19382163Y7763852D01*
X19411794Y7415183D01*
X19423913Y7095949D01*
X19418362Y6803044D01*
X19394983Y6533360D01*
X19353619Y6283793D01*
X19294112Y6051236D01*
X19216304Y5832583D01*
X19122130Y5628770D01*
X19002988Y5434750D01*
X18865294Y5278460D01*
X18708482Y5159308D01*
X18637720Y5120655D01*
X18570907Y5089098D01*
X18516012Y5068173D01*
X18460905Y5055532D01*
X18393455Y5048825D01*
X18301531Y5045700D01*
X18246137Y5044797D01*
X18143507Y5044258D01*
X18052048Y5045441D01*
X17982695Y5048105D01*
X17949334Y5051347D01*
X17905903Y5061012D01*
X17833881Y5078525D01*
X17745587Y5100857D01*
X17700247Y5112606D01*
X17466487Y5188321D01*
X17268873Y5284498D01*
X17105762Y5402514D01*
X16975512Y5543751D01*
X16876478Y5709586D01*
X16821982Y5850042D01*
X16787038Y6011834D01*
X16772792Y6202208D01*
X16778428Y6413287D01*
X16803132Y6637191D01*
X16846089Y6866043D01*
X16906483Y7091966D01*
X16968932Y7270750D01*
X17082154Y7529599D01*
X17226888Y7809818D01*
X17400667Y8107535D01*
X17601022Y8418875D01*
X17825483Y8739963D01*
X18071583Y9066925D01*
X18277282Y9323916D01*
X18370826Y9436572D01*
X18468379Y9551960D01*
X18565904Y9665516D01*
X18659362Y9772676D01*
X18744716Y9868879D01*
X18817927Y9949561D01*
X18874958Y10010158D01*
X18911772Y10046107D01*
X18923468Y10054166D01*
X18936331Y10034244D01*
G36*
X-13790065Y8986984D02*
G01*
X-13560824Y8959029D01*
X-13332998Y8909859D01*
X-13098427Y8837366D01*
X-12848950Y8739439D01*
X-12604750Y8627727D01*
X-12230334Y8433427D01*
X-11836823Y8203035D01*
X-11425685Y7937464D01*
X-10998387Y7637624D01*
X-10922000Y7581655D01*
X-10837013Y7518187D01*
X-10738794Y7443516D01*
X-10632508Y7361713D01*
X-10523322Y7276849D01*
X-10416401Y7192995D01*
X-10316911Y7114224D01*
X-10230018Y7044605D01*
X-10160889Y6988212D01*
X-10114688Y6949114D01*
X-10096582Y6931385D01*
X-10096500Y6931049D01*
X-10116255Y6918934D01*
X-10172106Y6898518D01*
X-10258934Y6871158D01*
X-10371617Y6838214D01*
X-10505038Y6801044D01*
X-10654074Y6761006D01*
X-10813606Y6719459D01*
X-10978514Y6677761D01*
X-11143678Y6637271D01*
X-11303978Y6599346D01*
X-11454293Y6565347D01*
X-11561062Y6542478D01*
X-11839445Y6487147D01*
X-12088040Y6443600D01*
X-12317345Y6410607D01*
X-12537854Y6386935D01*
X-12760064Y6371356D01*
X-12994472Y6362638D01*
X-13112750Y6360549D01*
X-13259610Y6359163D01*
X-13396166Y6358686D01*
X-13515457Y6359078D01*
X-13610518Y6360300D01*
X-13674389Y6362311D01*
X-13694833Y6363879D01*
X-13745370Y6372340D01*
X-13825444Y6387885D01*
X-13923326Y6408163D01*
X-14010418Y6427069D01*
X-14292061Y6502419D01*
X-14537516Y6595349D01*
X-14745882Y6705440D01*
X-14916261Y6832274D01*
X-14950703Y6864477D01*
X-15061275Y6987100D01*
X-15142488Y7113267D01*
X-15197006Y7250778D01*
X-15227493Y7407433D01*
X-15236613Y7591033D01*
X-15234050Y7694083D01*
X-15208880Y7952520D01*
X-15157947Y8187264D01*
X-15082526Y8395652D01*
X-14983891Y8575024D01*
X-14863317Y8722721D01*
X-14722077Y8836080D01*
X-14673516Y8864249D01*
X-14551899Y8920642D01*
X-14427539Y8959659D01*
X-14289496Y8983532D01*
X-14126831Y8994494D01*
X-14028883Y8995833D01*
X-13790065Y8986984D01*
G37*
X-13790065Y8986984D02*
X-13560824Y8959029D01*
X-13332998Y8909859D01*
X-13098427Y8837366D01*
X-12848950Y8739439D01*
X-12604750Y8627727D01*
X-12230334Y8433427D01*
X-11836823Y8203035D01*
X-11425685Y7937464D01*
X-10998387Y7637624D01*
X-10922000Y7581655D01*
X-10837013Y7518187D01*
X-10738794Y7443516D01*
X-10632508Y7361713D01*
X-10523322Y7276849D01*
X-10416401Y7192995D01*
X-10316911Y7114224D01*
X-10230018Y7044605D01*
X-10160889Y6988212D01*
X-10114688Y6949114D01*
X-10096582Y6931385D01*
X-10096500Y6931049D01*
X-10116255Y6918934D01*
X-10172106Y6898518D01*
X-10258934Y6871158D01*
X-10371617Y6838214D01*
X-10505038Y6801044D01*
X-10654074Y6761006D01*
X-10813606Y6719459D01*
X-10978514Y6677761D01*
X-11143678Y6637271D01*
X-11303978Y6599346D01*
X-11454293Y6565347D01*
X-11561062Y6542478D01*
X-11839445Y6487147D01*
X-12088040Y6443600D01*
X-12317345Y6410607D01*
X-12537854Y6386935D01*
X-12760064Y6371356D01*
X-12994472Y6362638D01*
X-13112750Y6360549D01*
X-13259610Y6359163D01*
X-13396166Y6358686D01*
X-13515457Y6359078D01*
X-13610518Y6360300D01*
X-13674389Y6362311D01*
X-13694833Y6363879D01*
X-13745370Y6372340D01*
X-13825444Y6387885D01*
X-13923326Y6408163D01*
X-14010418Y6427069D01*
X-14292061Y6502419D01*
X-14537516Y6595349D01*
X-14745882Y6705440D01*
X-14916261Y6832274D01*
X-14950703Y6864477D01*
X-15061275Y6987100D01*
X-15142488Y7113267D01*
X-15197006Y7250778D01*
X-15227493Y7407433D01*
X-15236613Y7591033D01*
X-15234050Y7694083D01*
X-15208880Y7952520D01*
X-15157947Y8187264D01*
X-15082526Y8395652D01*
X-14983891Y8575024D01*
X-14863317Y8722721D01*
X-14722077Y8836080D01*
X-14673516Y8864249D01*
X-14551899Y8920642D01*
X-14427539Y8959659D01*
X-14289496Y8983532D01*
X-14126831Y8994494D01*
X-14028883Y8995833D01*
X-13790065Y8986984D01*
G36*
X13941929Y8991912D02*
G01*
X14076201Y8981534D01*
X14181282Y8964265D01*
X14189195Y8962301D01*
X14374675Y8897902D01*
X14533331Y8806065D01*
X14667269Y8684449D01*
X14778599Y8530712D01*
X14869429Y8342509D01*
X14938652Y8129650D01*
X14962373Y8033437D01*
X14978354Y7946049D01*
X14988094Y7854128D01*
X14993095Y7744317D01*
X14994717Y7630583D01*
X14993400Y7482065D01*
X14985603Y7365167D01*
X14968729Y7269354D01*
X14940180Y7184090D01*
X14897358Y7098842D01*
X14841394Y7008732D01*
X14735362Y6881588D01*
X14591894Y6762875D01*
X14415409Y6654685D01*
X14210327Y6559108D01*
X13981068Y6478236D01*
X13732050Y6414158D01*
X13497510Y6372966D01*
X13409202Y6364594D01*
X13288154Y6358549D01*
X13143894Y6354819D01*
X12985951Y6353397D01*
X12823853Y6354271D01*
X12667128Y6357434D01*
X12525306Y6362876D01*
X12407914Y6370586D01*
X12371917Y6374084D01*
X12034626Y6417909D01*
X11669824Y6477938D01*
X11288208Y6552144D01*
X10900472Y6638500D01*
X10646834Y6701057D01*
X10500427Y6739342D01*
X10356486Y6778295D01*
X10220737Y6816236D01*
X10098904Y6851484D01*
X9996710Y6882361D01*
X9919880Y6907186D01*
X9874138Y6924279D01*
X9863667Y6930895D01*
X9879651Y6947488D01*
X9924231Y6985762D01*
X9992350Y7041714D01*
X10078950Y7111344D01*
X10178973Y7190650D01*
X10287361Y7275631D01*
X10399057Y7362285D01*
X10509003Y7446611D01*
X10612141Y7524609D01*
X10647907Y7551318D01*
X11042113Y7835150D01*
X11421693Y8089614D01*
X11785263Y8313984D01*
X12131436Y8507533D01*
X12458827Y8669536D01*
X12766050Y8799266D01*
X13051720Y8895997D01*
X13314452Y8959002D01*
X13343064Y8964041D01*
X13479033Y8981463D01*
X13631838Y8991900D01*
X13789972Y8995375D01*
X13941929Y8991912D01*
G37*
X13941929Y8991912D02*
X14076201Y8981534D01*
X14181282Y8964265D01*
X14189195Y8962301D01*
X14374675Y8897902D01*
X14533331Y8806065D01*
X14667269Y8684449D01*
X14778599Y8530712D01*
X14869429Y8342509D01*
X14938652Y8129650D01*
X14962373Y8033437D01*
X14978354Y7946049D01*
X14988094Y7854128D01*
X14993095Y7744317D01*
X14994717Y7630583D01*
X14993400Y7482065D01*
X14985603Y7365167D01*
X14968729Y7269354D01*
X14940180Y7184090D01*
X14897358Y7098842D01*
X14841394Y7008732D01*
X14735362Y6881588D01*
X14591894Y6762875D01*
X14415409Y6654685D01*
X14210327Y6559108D01*
X13981068Y6478236D01*
X13732050Y6414158D01*
X13497510Y6372966D01*
X13409202Y6364594D01*
X13288154Y6358549D01*
X13143894Y6354819D01*
X12985951Y6353397D01*
X12823853Y6354271D01*
X12667128Y6357434D01*
X12525306Y6362876D01*
X12407914Y6370586D01*
X12371917Y6374084D01*
X12034626Y6417909D01*
X11669824Y6477938D01*
X11288208Y6552144D01*
X10900472Y6638500D01*
X10646834Y6701057D01*
X10500427Y6739342D01*
X10356486Y6778295D01*
X10220737Y6816236D01*
X10098904Y6851484D01*
X9996710Y6882361D01*
X9919880Y6907186D01*
X9874138Y6924279D01*
X9863667Y6930895D01*
X9879651Y6947488D01*
X9924231Y6985762D01*
X9992350Y7041714D01*
X10078950Y7111344D01*
X10178973Y7190650D01*
X10287361Y7275631D01*
X10399057Y7362285D01*
X10509003Y7446611D01*
X10612141Y7524609D01*
X10647907Y7551318D01*
X11042113Y7835150D01*
X11421693Y8089614D01*
X11785263Y8313984D01*
X12131436Y8507533D01*
X12458827Y8669536D01*
X12766050Y8799266D01*
X13051720Y8895997D01*
X13314452Y8959002D01*
X13343064Y8964041D01*
X13479033Y8981463D01*
X13631838Y8991900D01*
X13789972Y8995375D01*
X13941929Y8991912D01*
G36*
X-15797990Y13715889D02*
G01*
X-15760558Y13653179D01*
X-15710709Y13555209D01*
X-15672631Y13479200D01*
X-15474886Y13071965D01*
X-15295823Y12671769D01*
X-15136433Y12281720D01*
X-14997707Y11904926D01*
X-14880637Y11544497D01*
X-14786214Y11203541D01*
X-14715429Y10885166D01*
X-14669274Y10592482D01*
X-14648740Y10328596D01*
X-14647721Y10265278D01*
X-14659850Y9958590D01*
X-14697597Y9685416D01*
X-14761132Y9445435D01*
X-14850629Y9238330D01*
X-14966258Y9063779D01*
X-15108192Y8921466D01*
X-15276602Y8811069D01*
X-15471660Y8732270D01*
X-15472833Y8731915D01*
X-15568067Y8711674D01*
X-15693615Y8697107D01*
X-15837802Y8688500D01*
X-15988954Y8686134D01*
X-16135396Y8690294D01*
X-16265454Y8701263D01*
X-16330083Y8711101D01*
X-16535414Y8766160D01*
X-16712415Y8849185D01*
X-16861882Y8961292D01*
X-16984613Y9103597D01*
X-17081404Y9277214D01*
X-17153052Y9483261D01*
X-17200354Y9722852D01*
X-17222377Y9960510D01*
X-17223860Y10201431D01*
X-17202921Y10454295D01*
X-17158747Y10722577D01*
X-17090526Y11009752D01*
X-16997444Y11319294D01*
X-16878689Y11654677D01*
X-16749956Y11979629D01*
X-16684177Y12132533D01*
X-16602158Y12313420D01*
X-16508302Y12513315D01*
X-16407013Y12723241D01*
X-16302694Y12934224D01*
X-16199749Y13137288D01*
X-16102580Y13323457D01*
X-16015592Y13483755D01*
X-15988104Y13532545D01*
X-15931668Y13632420D01*
X-15889844Y13701606D01*
X-15857227Y13739189D01*
X-15828411Y13744255D01*
X-15797990Y13715889D01*
G37*
X-15797990Y13715889D02*
X-15760558Y13653179D01*
X-15710709Y13555209D01*
X-15672631Y13479200D01*
X-15474886Y13071965D01*
X-15295823Y12671769D01*
X-15136433Y12281720D01*
X-14997707Y11904926D01*
X-14880637Y11544497D01*
X-14786214Y11203541D01*
X-14715429Y10885166D01*
X-14669274Y10592482D01*
X-14648740Y10328596D01*
X-14647721Y10265278D01*
X-14659850Y9958590D01*
X-14697597Y9685416D01*
X-14761132Y9445435D01*
X-14850629Y9238330D01*
X-14966258Y9063779D01*
X-15108192Y8921466D01*
X-15276602Y8811069D01*
X-15471660Y8732270D01*
X-15472833Y8731915D01*
X-15568067Y8711674D01*
X-15693615Y8697107D01*
X-15837802Y8688500D01*
X-15988954Y8686134D01*
X-16135396Y8690294D01*
X-16265454Y8701263D01*
X-16330083Y8711101D01*
X-16535414Y8766160D01*
X-16712415Y8849185D01*
X-16861882Y8961292D01*
X-16984613Y9103597D01*
X-17081404Y9277214D01*
X-17153052Y9483261D01*
X-17200354Y9722852D01*
X-17222377Y9960510D01*
X-17223860Y10201431D01*
X-17202921Y10454295D01*
X-17158747Y10722577D01*
X-17090526Y11009752D01*
X-16997444Y11319294D01*
X-16878689Y11654677D01*
X-16749956Y11979629D01*
X-16684177Y12132533D01*
X-16602158Y12313420D01*
X-16508302Y12513315D01*
X-16407013Y12723241D01*
X-16302694Y12934224D01*
X-16199749Y13137288D01*
X-16102580Y13323457D01*
X-16015592Y13483755D01*
X-15988104Y13532545D01*
X-15931668Y13632420D01*
X-15889844Y13701606D01*
X-15857227Y13739189D01*
X-15828411Y13744255D01*
X-15797990Y13715889D01*
G36*
X15613679Y13753668D02*
G01*
X15647816Y13707024D01*
X15695662Y13630431D01*
X15755045Y13528060D01*
X15823791Y13404079D01*
X15899728Y13262660D01*
X15980682Y13107972D01*
X16064479Y12944185D01*
X16148947Y12775470D01*
X16231912Y12605997D01*
X16311200Y12439936D01*
X16384640Y12281457D01*
X16450056Y12134730D01*
X16470977Y12086166D01*
X16586574Y11802264D01*
X16692637Y11516701D01*
X16785408Y11240347D01*
X16861129Y10984071D01*
X16888726Y10877846D01*
X16946790Y10611150D01*
X16982144Y10368427D01*
X16995666Y10138498D01*
X16988236Y9910185D01*
X16975200Y9778445D01*
X16931473Y9529693D01*
X16863905Y9315415D01*
X16771535Y9134463D01*
X16653401Y8985693D01*
X16508541Y8867959D01*
X16335994Y8780115D01*
X16134798Y8721015D01*
X16078603Y8710374D01*
X15920458Y8691163D01*
X15744031Y8682372D01*
X15568295Y8684306D01*
X15412222Y8697267D01*
X15396678Y8699436D01*
X15184391Y8749194D01*
X14997944Y8832430D01*
X14837326Y8949160D01*
X14702531Y9099396D01*
X14593550Y9283152D01*
X14510374Y9500440D01*
X14452996Y9751275D01*
X14421406Y10035669D01*
X14414625Y10265278D01*
X14429382Y10543257D01*
X14473150Y10850660D01*
X14545613Y11186377D01*
X14646457Y11549302D01*
X14775365Y11938326D01*
X14932024Y12352341D01*
X15116117Y12790240D01*
X15162378Y12894378D01*
X15222829Y13027117D01*
X15286770Y13163968D01*
X15351409Y13299312D01*
X15413955Y13427528D01*
X15471617Y13542999D01*
X15521603Y13640104D01*
X15561123Y13713225D01*
X15587385Y13756742D01*
X15595426Y13766193D01*
X15613679Y13753668D01*
G37*
X15613679Y13753668D02*
X15647816Y13707024D01*
X15695662Y13630431D01*
X15755045Y13528060D01*
X15823791Y13404079D01*
X15899728Y13262660D01*
X15980682Y13107972D01*
X16064479Y12944185D01*
X16148947Y12775470D01*
X16231912Y12605997D01*
X16311200Y12439936D01*
X16384640Y12281457D01*
X16450056Y12134730D01*
X16470977Y12086166D01*
X16586574Y11802264D01*
X16692637Y11516701D01*
X16785408Y11240347D01*
X16861129Y10984071D01*
X16888726Y10877846D01*
X16946790Y10611150D01*
X16982144Y10368427D01*
X16995666Y10138498D01*
X16988236Y9910185D01*
X16975200Y9778445D01*
X16931473Y9529693D01*
X16863905Y9315415D01*
X16771535Y9134463D01*
X16653401Y8985693D01*
X16508541Y8867959D01*
X16335994Y8780115D01*
X16134798Y8721015D01*
X16078603Y8710374D01*
X15920458Y8691163D01*
X15744031Y8682372D01*
X15568295Y8684306D01*
X15412222Y8697267D01*
X15396678Y8699436D01*
X15184391Y8749194D01*
X14997944Y8832430D01*
X14837326Y8949160D01*
X14702531Y9099396D01*
X14593550Y9283152D01*
X14510374Y9500440D01*
X14452996Y9751275D01*
X14421406Y10035669D01*
X14414625Y10265278D01*
X14429382Y10543257D01*
X14473150Y10850660D01*
X14545613Y11186377D01*
X14646457Y11549302D01*
X14775365Y11938326D01*
X14932024Y12352341D01*
X15116117Y12790240D01*
X15162378Y12894378D01*
X15222829Y13027117D01*
X15286770Y13163968D01*
X15351409Y13299312D01*
X15413955Y13427528D01*
X15471617Y13542999D01*
X15521603Y13640104D01*
X15561123Y13713225D01*
X15587385Y13756742D01*
X15595426Y13766193D01*
X15613679Y13753668D01*
G36*
X-9526337Y12599458D02*
G01*
X-9745144Y12202878D01*
X-9972957Y11820644D01*
X-10206691Y11457183D01*
X-10443259Y11116923D01*
X-10679574Y10804291D01*
X-10912551Y10523714D01*
X-11139102Y10279620D01*
X-11153815Y10264839D01*
X-11380223Y10051573D01*
X-11598739Y9873875D01*
X-11815774Y9727466D01*
X-12037741Y9608072D01*
X-12271054Y9511416D01*
X-12297833Y9501937D01*
X-12397580Y9476048D01*
X-12519990Y9457450D01*
X-12652414Y9446749D01*
X-12782202Y9444554D01*
X-12896703Y9451471D01*
X-12983270Y9468108D01*
X-12985750Y9468911D01*
X-13098950Y9513120D01*
X-13200818Y9569724D01*
X-13301969Y9645907D01*
X-13413020Y9748851D01*
X-13440833Y9776819D01*
X-13633021Y10002144D01*
X-13792208Y10252262D01*
X-13881607Y10438242D01*
X-13907592Y10505004D01*
X-13924248Y10565197D01*
X-13933571Y10631770D01*
X-13937559Y10717672D01*
X-13938250Y10805583D01*
X-13937407Y10911155D01*
X-13933351Y10987059D01*
X-13923795Y11045953D01*
X-13906449Y11100491D01*
X-13879024Y11163330D01*
X-13870140Y11182212D01*
X-13753735Y11380798D01*
X-13597804Y11570454D01*
X-13404526Y11749525D01*
X-13176078Y11916352D01*
X-12914638Y12069279D01*
X-12622384Y12206650D01*
X-12418954Y12286081D01*
X-12176579Y12366599D01*
X-11899314Y12445955D01*
X-11594601Y12522422D01*
X-11269878Y12594272D01*
X-10932587Y12659778D01*
X-10590168Y12717212D01*
X-10509250Y12729427D01*
X-10345386Y12752761D01*
X-10176478Y12775279D01*
X-10009647Y12796167D01*
X-9852014Y12814609D01*
X-9710699Y12829792D01*
X-9592824Y12840900D01*
X-9505510Y12847120D01*
X-9471237Y12848166D01*
X-9394479Y12848166D01*
X-9526337Y12599458D01*
G37*
X-9526337Y12599458D02*
X-9745144Y12202878D01*
X-9972957Y11820644D01*
X-10206691Y11457183D01*
X-10443259Y11116923D01*
X-10679574Y10804291D01*
X-10912551Y10523714D01*
X-11139102Y10279620D01*
X-11153815Y10264839D01*
X-11380223Y10051573D01*
X-11598739Y9873875D01*
X-11815774Y9727466D01*
X-12037741Y9608072D01*
X-12271054Y9511416D01*
X-12297833Y9501937D01*
X-12397580Y9476048D01*
X-12519990Y9457450D01*
X-12652414Y9446749D01*
X-12782202Y9444554D01*
X-12896703Y9451471D01*
X-12983270Y9468108D01*
X-12985750Y9468911D01*
X-13098950Y9513120D01*
X-13200818Y9569724D01*
X-13301969Y9645907D01*
X-13413020Y9748851D01*
X-13440833Y9776819D01*
X-13633021Y10002144D01*
X-13792208Y10252262D01*
X-13881607Y10438242D01*
X-13907592Y10505004D01*
X-13924248Y10565197D01*
X-13933571Y10631770D01*
X-13937559Y10717672D01*
X-13938250Y10805583D01*
X-13937407Y10911155D01*
X-13933351Y10987059D01*
X-13923795Y11045953D01*
X-13906449Y11100491D01*
X-13879024Y11163330D01*
X-13870140Y11182212D01*
X-13753735Y11380798D01*
X-13597804Y11570454D01*
X-13404526Y11749525D01*
X-13176078Y11916352D01*
X-12914638Y12069279D01*
X-12622384Y12206650D01*
X-12418954Y12286081D01*
X-12176579Y12366599D01*
X-11899314Y12445955D01*
X-11594601Y12522422D01*
X-11269878Y12594272D01*
X-10932587Y12659778D01*
X-10590168Y12717212D01*
X-10509250Y12729427D01*
X-10345386Y12752761D01*
X-10176478Y12775279D01*
X-10009647Y12796167D01*
X-9852014Y12814609D01*
X-9710699Y12829792D01*
X-9592824Y12840900D01*
X-9505510Y12847120D01*
X-9471237Y12848166D01*
X-9394479Y12848166D01*
X-9526337Y12599458D01*
G36*
X9305293Y12845215D02*
G01*
X9405418Y12836908D01*
X9533124Y12824064D01*
X9681261Y12807503D01*
X9842679Y12788046D01*
X10010229Y12766512D01*
X10176760Y12743722D01*
X10276417Y12729311D01*
X10738723Y12653646D01*
X11169969Y12568216D01*
X11568029Y12473577D01*
X11930778Y12370281D01*
X12256089Y12258885D01*
X12541839Y12139942D01*
X12550262Y12136038D01*
X12784984Y12013586D01*
X13002346Y11873969D01*
X13198280Y11721070D01*
X13368717Y11558773D01*
X13509589Y11390963D01*
X13616828Y11221523D01*
X13686367Y11054337D01*
X13687603Y11050168D01*
X13713353Y10900441D01*
X13711290Y10733165D01*
X13682542Y10561688D01*
X13633734Y10412269D01*
X13546216Y10232410D01*
X13437316Y10056614D01*
X13313037Y9891960D01*
X13179380Y9745528D01*
X13042350Y9624396D01*
X12907947Y9535644D01*
X12877357Y9520235D01*
X12807845Y9489172D01*
X12748773Y9468794D01*
X12687066Y9456537D01*
X12609649Y9449837D01*
X12503446Y9446130D01*
X12498917Y9446020D01*
X12380977Y9444988D01*
X12290154Y9449575D01*
X12211415Y9461427D01*
X12129731Y9482190D01*
X12107334Y9488892D01*
X11838417Y9591768D01*
X11569984Y9736039D01*
X11301845Y9921865D01*
X11033810Y10149404D01*
X10765692Y10418815D01*
X10497299Y10730257D01*
X10261322Y11038416D01*
X10131547Y11222461D01*
X9990975Y11431997D01*
X9844974Y11658297D01*
X9698911Y11892636D01*
X9558154Y12126287D01*
X9428071Y12350526D01*
X9314029Y12556625D01*
X9239346Y12699810D01*
X9164635Y12848166D01*
X9239898Y12848166D01*
X9305293Y12845215D01*
G37*
X9305293Y12845215D02*
X9405418Y12836908D01*
X9533124Y12824064D01*
X9681261Y12807503D01*
X9842679Y12788046D01*
X10010229Y12766512D01*
X10176760Y12743722D01*
X10276417Y12729311D01*
X10738723Y12653646D01*
X11169969Y12568216D01*
X11568029Y12473577D01*
X11930778Y12370281D01*
X12256089Y12258885D01*
X12541839Y12139942D01*
X12550262Y12136038D01*
X12784984Y12013586D01*
X13002346Y11873969D01*
X13198280Y11721070D01*
X13368717Y11558773D01*
X13509589Y11390963D01*
X13616828Y11221523D01*
X13686367Y11054337D01*
X13687603Y11050168D01*
X13713353Y10900441D01*
X13711290Y10733165D01*
X13682542Y10561688D01*
X13633734Y10412269D01*
X13546216Y10232410D01*
X13437316Y10056614D01*
X13313037Y9891960D01*
X13179380Y9745528D01*
X13042350Y9624396D01*
X12907947Y9535644D01*
X12877357Y9520235D01*
X12807845Y9489172D01*
X12748773Y9468794D01*
X12687066Y9456537D01*
X12609649Y9449837D01*
X12503446Y9446130D01*
X12498917Y9446020D01*
X12380977Y9444988D01*
X12290154Y9449575D01*
X12211415Y9461427D01*
X12129731Y9482190D01*
X12107334Y9488892D01*
X11838417Y9591768D01*
X11569984Y9736039D01*
X11301845Y9921865D01*
X11033810Y10149404D01*
X10765692Y10418815D01*
X10497299Y10730257D01*
X10261322Y11038416D01*
X10131547Y11222461D01*
X9990975Y11431997D01*
X9844974Y11658297D01*
X9698911Y11892636D01*
X9558154Y12126287D01*
X9428071Y12350526D01*
X9314029Y12556625D01*
X9239346Y12699810D01*
X9164635Y12848166D01*
X9239898Y12848166D01*
X9305293Y12845215D01*
M02*
