<?xml version="1.0" encoding="UTF-8" standalone="no"?>
<svg
   xmlns:dc="http://purl.org/dc/elements/1.1/"
   xmlns:cc="http://creativecommons.org/ns#"
   xmlns:rdf="http://www.w3.org/1999/02/22-rdf-syntax-ns#"
   xmlns:svg="http://www.w3.org/2000/svg"
   xmlns="http://www.w3.org/2000/svg"
   xmlns:sodipodi="http://sodipodi.sourceforge.net/DTD/sodipodi-0.dtd"
   xmlns:inkscape="http://www.inkscape.org/namespaces/inkscape"
   width="100.0mm"
   height="100.0mm"
   viewBox="0 0 100.0 100.0"
   version="1.1"
   id="svg8"
   sodipodi:docname="template.svg"
   inkscape:version="1.0.2 (394de47547, 2021-03-26)">
  <defs
     id="defs2" />
  <sodipodi:namedview
     id="base"
     pagecolor="#ffffff"
     bordercolor="#666666"
     borderopacity="1.0"
     inkscape:pageopacity="0.0"
     inkscape:pageshadow="2"
     inkscape:zoom="3.5247505"
     inkscape:cx="215.98026"
     inkscape:cy="205.84443"
     inkscape:document-units="mm"
     inkscape:current-layer="g844"
     inkscape:document-rotation="0"
     showgrid="false"
     inkscape:window-width="2056"
     inkscape:window-height="1133"
     inkscape:window-x="72"
     inkscape:window-y="27"
     inkscape:window-maximized="1" />
  <metadata
     id="metadata5">
    <rdf:RDF>
      <cc:Work
         rdf:about="">
        <dc:format>image/svg+xml</dc:format>
        <dc:type
           rdf:resource="http://purl.org/dc/dcmitype/StillImage" />
        <dc:title></dc:title>
      </cc:Work>
    </rdf:RDF>
  </metadata>
  <g
     inkscape:label="[fixed] BG"
     inkscape:groupmode="layer"
     sodipodi:insensitive="true"
     id="g838"
     style="display:inline">
    <rect
       x="0"
       y="0"
       width="100"
       height="100"
       style="fill:#ffffff;fill-opacity:1;stroke:none"
       id="rect836" />
  </g>
  <g
     inkscape:label="Edge.Cuts"
     inkscape:groupmode="layer"
     id="g840"
     style="display:inline">
    <path
       id="path867"
       style="fill:none;stroke:#000600;stroke-width:0.0773483;stroke-opacity:1"
       d="m 55.911349,48.950223 -0.0085,0.345131 -0.02548,0.342871 -0.04226,0.339914 -0.0587,0.336523 -0.07496,0.332349 -0.09096,0.327827 -0.106783,0.322523 -0.122261,0.31687 -0.137566,0.310436 -0.152609,0.303566 -0.167392,0.296088 -0.182087,0.288001 -0.196436,0.279479 -0.210435,0.270175 -0.224435,0.260522 -0.238001,0.250088 -0.250175,0.238087 -0.260435,0.224349 -0.270262,0.210522 -0.279392,0.196436 -0.288088,0.182 -0.296088,0.167479 -0.303566,0.152609 -0.310436,0.137566 -0.316783,0.122261 -0.32261,0.106783 -0.32774,0.09096 -0.332436,0.07496 -0.336436,0.0587 -0.340001,0.04218 -0.342784,0.02557 -0.345218,0.0085 -0.345219,-0.0085 -0.342783,-0.02557 -0.340001,-0.04218 -0.336436,-0.0587 -0.332436,-0.07496 -0.32774,-0.09096 -0.32261,-0.106783 -0.316783,-0.122261 -0.310436,-0.137566 -0.303566,-0.152609 -0.296088,-0.167479 -0.288088,-0.182 -0.279392,-0.196436 -0.270262,-0.210522 -0.260435,-0.224349 -0.250175,-0.238087 -0.238001,-0.250088 -0.224435,-0.260522 -0.210436,-0.270175 -0.196435,-0.279479 -0.182088,-0.288001 -0.167391,-0.296088 -0.152609,-0.303566 -0.137566,-0.310436 -0.122261,-0.31687 -0.106783,-0.322523 -0.09096,-0.327827 -0.07496,-0.332349 -0.0587,-0.336523 -0.04226,-0.339914 -0.02548,-0.342871 -0.0085,-0.345131 0.009,-0.358262 0.02687,-0.353479 0.04426,-0.348436 0.06122,-0.342784 0.07774,-0.336784 0.09383,-0.330348 0.109391,-0.32348 0.124696,-0.316088 0.139392,-0.308435 0.15374,-0.300088 0.167652,-0.291566 0.181044,-0.282436 0.194088,-0.272957 0.206609,-0.262958 0.218871,-0.252609 0.230435,-0.24174 0.241827,-0.230522 0.252522,-0.218784 0.263045,-0.206609 0.27287,-0.194088 0.282436,-0.181131 0.291566,-0.167565 0.300175,-0.15374 0.308348,-0.139392 0.316088,-0.124696 0.32348,-0.109391 0.330348,-0.09383 0.336784,-0.07774 0.342784,-0.06122 0.348436,-0.04426 0.353479,-0.02687 0.358262,-0.009 0.358262,0.009 0.353479,0.02687 0.348436,0.04426 0.342784,0.06122 0.336783,0.07774 0.330349,0.09383 0.323479,0.109391 0.316088,0.124696 0.308349,0.139392 0.300175,0.15374 0.291566,0.167565 0.282436,0.181131 0.27287,0.194088 0.263044,0.206609 0.252523,0.218784 0.241827,0.230522 0.230435,0.24174 0.218871,0.252609 0.206609,0.262958 0.194087,0.272957 0.181044,0.282436 0.167653,0.291566 0.15374,0.300088 0.139391,0.308435 0.124696,0.316088 0.109392,0.32348 0.09383,0.330348 0.07774,0.336784 0.06122,0.342784 0.04426,0.348436 0.02687,0.353479 0.009,0.358262 v 0" />
  </g>
  <g
     inkscape:label="B.Cu"
     inkscape:groupmode="layer"
     id="g842"
     style="display:none">
    <path
       id="path863"
       style="display:inline;opacity:0.985092;fill:#000000;fill-opacity:1;stroke:none;stroke-width:0.0773483;stroke-opacity:1"
       d="m 48.619141,42.998047 c -3.014117,0.09865 -5.637332,2.801209 -5.627009,5.821006 -0.137507,3.007203 2.344312,5.818077 5.343806,6.059853 2.935383,0.370637 5.89279,-1.787249 6.444655,-4.691134 0.695775,-2.933195 -1.226071,-6.162979 -4.134626,-6.951332 -0.655012,-0.198552 -1.343933,-0.27407 -2.026826,-0.238393 z" />
  </g>
  <g
     inkscape:label="B.Mask-disabled"
     inkscape:groupmode="layer"
     id="g844"
     style="display:inline" />
  <g
     inkscape:label="B.SilkS"
     inkscape:groupmode="layer"
     id="g846"
     style="display:none">
    <text
       xml:space="preserve"
       style="font-style:normal;font-weight:normal;font-size:7.05556px;line-height:1.25;font-family:sans-serif;letter-spacing:0px;word-spacing:0px;display:inline;fill:#000000;fill-opacity:1;stroke:none;stroke-width:0.264583"
       x="-49.215099"
       y="51.451439"
       id="text953"
       transform="scale(-1,1)"><tspan
         sodipodi:role="line"
         id="tspan951"
         x="-49.215099"
         y="51.451439"
         style="font-style:normal;font-variant:normal;font-weight:normal;font-stretch:normal;font-size:7.05556px;font-family:FreeSans;-inkscape-font-specification:FreeSans;text-align:center;text-anchor:middle;stroke-width:0.264583">EX</tspan></text>
  </g>
  <g
     inkscape:label="F.Cu"
     inkscape:groupmode="layer"
     id="g848"
     style="display:none">
    <path
       id="path859"
       style="display:inline;fill:#000000;fill-opacity:1;stroke:none;stroke-width:0.0773483;stroke-opacity:1"
       d="m 48.619141,42.998047 c -3.014117,0.09865 -5.637332,2.801209 -5.627009,5.821006 -0.137507,3.007203 2.344312,5.818077 5.343806,6.059853 2.935383,0.370637 5.89279,-1.787249 6.444655,-4.691134 0.695775,-2.933195 -1.226071,-6.162979 -4.134626,-6.951332 -0.655012,-0.198552 -1.343933,-0.27407 -2.026826,-0.238393 z" />
  </g>
  <g
     inkscape:label="F.Mask-disabled"
     inkscape:groupmode="layer"
     id="g850" />
  <g
     inkscape:label="F.SilkS"
     inkscape:groupmode="layer"
     id="g852"
     style="display:inline">
    <text
       xml:space="preserve"
       style="font-style:normal;font-weight:normal;font-size:7.05556px;line-height:1.25;font-family:sans-serif;letter-spacing:0px;word-spacing:0px;fill:#000000;fill-opacity:1;stroke:none;stroke-width:0.264583"
       x="48.751198"
       y="51.451439"
       id="text868"><tspan
         sodipodi:role="line"
         id="tspan866"
         x="48.751198"
         y="51.451439"
         style="font-style:normal;font-variant:normal;font-weight:normal;font-stretch:normal;font-size:7.05556px;font-family:FreeSans;-inkscape-font-specification:FreeSans;text-align:center;text-anchor:middle;stroke-width:0.264583">12</tspan></text>
    <g
       id="g944"
       transform="translate(8.3015667e-4)"
       style="display:inline">
      <path
         id="path867-5"
         style="display:inline;fill:#000000;fill-opacity:1;stroke:none;stroke-width:0.0066663;stroke-opacity:1"
         d="m 47.167659,53.122978 -7.24e-4,0.02974 -0.0022,0.02955 -0.0036,0.0293 -0.005,0.029 -0.0065,0.02864 -0.0078,0.02825 -0.0092,0.0278 -0.01054,0.02731 -0.01185,0.02676 -0.01315,0.02616 -0.01442,0.02552 -0.01569,0.02482 -0.01693,0.02409 -0.01813,0.02328 -0.01934,0.02245 -0.02051,0.02156 -0.02157,0.02052 -0.02245,0.01933 -0.02329,0.01814 -0.02408,0.01693 -0.02483,0.01569 -0.02552,0.01444 -0.02616,0.01315 -0.02676,0.01186 -0.02731,0.01054 -0.0278,0.0092 -0.02824,0.0078 -0.02865,0.0065 -0.029,0.005 -0.0293,0.0036 -0.02954,0.0022 -0.02975,7.24e-4 -0.02976,-7.24e-4 -0.02954,-0.0022 -0.0293,-0.0036 -0.029,-0.005 -0.02865,-0.0065 -0.02824,-0.0078 -0.0278,-0.0092 -0.0273,-0.01054 -0.02676,-0.01186 -0.02616,-0.01315 -0.02552,-0.01444 -0.02483,-0.01569 -0.02408,-0.01693 -0.02329,-0.01814 -0.02245,-0.01933 -0.02157,-0.02052 -0.02051,-0.02156 -0.01934,-0.02245 -0.01813,-0.02328 -0.01693,-0.02409 -0.01569,-0.02482 -0.01442,-0.02552 -0.01315,-0.02616 -0.01185,-0.02676 -0.01054,-0.02731 -0.0092,-0.0278 -0.0078,-0.02825 -0.0065,-0.02864 -0.005,-0.029 -0.0036,-0.0293 -0.0022,-0.02955 -7.24e-4,-0.02974 7.85e-4,-0.03088 0.0023,-0.03047 0.0038,-0.03003 0.0053,-0.02954 0.0067,-0.02903 0.0081,-0.02847 0.0094,-0.02788 0.01074,-0.02724 0.01201,-0.02658 0.01325,-0.02586 0.01445,-0.02512 0.0156,-0.02434 0.01673,-0.02352 0.01781,-0.02267 0.01886,-0.02177 0.01986,-0.02083 0.02085,-0.01987 0.02177,-0.01886 0.02267,-0.01781 0.02352,-0.01673 0.02434,-0.01561 0.02513,-0.01445 0.02587,-0.01325 0.02657,-0.01201 0.02724,-0.01074 0.02788,-0.0094 0.02847,-0.0081 0.02903,-0.0067 0.02954,-0.0053 0.03003,-0.0038 0.03047,-0.0023 0.03088,-7.85e-4 0.03088,7.85e-4 0.03047,0.0023 0.03004,0.0038 0.02954,0.0053 0.02903,0.0067 0.02847,0.0081 0.02788,0.0094 0.02724,0.01074 0.02657,0.01201 0.02587,0.01325 0.02512,0.01445 0.02434,0.01561 0.02352,0.01673 0.02267,0.01781 0.02177,0.01886 0.02084,0.01987 0.01986,0.02083 0.01886,0.02177 0.01781,0.02267 0.01673,0.02352 0.0156,0.02434 0.01445,0.02512 0.01325,0.02586 0.01201,0.02658 0.01074,0.02724 0.0094,0.02788 0.0081,0.02847 0.0067,0.02903 0.0053,0.02954 0.0038,0.03003 0.0023,0.03047 7.84e-4,0.03088 v 0" />
      <path
         id="path934"
         style="display:inline;fill:#000000;fill-opacity:1;stroke:none;stroke-width:0.0066663;stroke-opacity:1"
         d="m 48.75516,53.122978 -7.24e-4,0.02974 -0.0022,0.02955 -0.0036,0.0293 -0.005,0.029 -0.0065,0.02864 -0.0078,0.02825 -0.0092,0.0278 -0.01054,0.02731 -0.01185,0.02676 -0.01315,0.02616 -0.01442,0.02552 -0.01569,0.02482 -0.01693,0.02409 -0.01813,0.02328 -0.01934,0.02245 -0.02051,0.02156 -0.02157,0.02052 -0.02245,0.01933 -0.02329,0.01814 -0.02408,0.01693 -0.02483,0.01569 -0.02552,0.01444 -0.02616,0.01315 -0.02676,0.01186 -0.02731,0.01054 -0.0278,0.0092 -0.02824,0.0078 -0.02865,0.0065 -0.029,0.005 -0.0293,0.0036 -0.02954,0.0022 -0.02975,7.24e-4 -0.02976,-7.24e-4 -0.02954,-0.0022 -0.0293,-0.0036 -0.029,-0.005 -0.02865,-0.0065 -0.02824,-0.0078 -0.0278,-0.0092 -0.0273,-0.01054 -0.02676,-0.01186 -0.02616,-0.01315 -0.02552,-0.01444 -0.02483,-0.01569 -0.02408,-0.01693 -0.02329,-0.01814 -0.02245,-0.01933 -0.02157,-0.02052 -0.02051,-0.02156 -0.01934,-0.02245 -0.01813,-0.02328 -0.01693,-0.02409 -0.01569,-0.02482 -0.01442,-0.02552 -0.01315,-0.02616 -0.01185,-0.02676 -0.01054,-0.02731 -0.0092,-0.0278 -0.0078,-0.02825 -0.0065,-0.02864 -0.005,-0.029 -0.0036,-0.0293 -0.0022,-0.02955 -7.24e-4,-0.02974 7.85e-4,-0.03088 0.0023,-0.03047 0.0038,-0.03003 0.0053,-0.02954 0.0067,-0.02903 0.0081,-0.02847 0.0094,-0.02788 0.01074,-0.02724 0.01201,-0.02658 0.01325,-0.02586 0.01445,-0.02512 0.0156,-0.02434 0.01673,-0.02352 0.01781,-0.02267 0.01886,-0.02177 0.01986,-0.02083 0.02085,-0.01987 0.02177,-0.01886 0.02267,-0.01781 0.02352,-0.01673 0.02434,-0.01561 0.02513,-0.01445 0.02587,-0.01325 0.02657,-0.01201 0.02724,-0.01074 0.02788,-0.0094 0.02847,-0.0081 0.02903,-0.0067 0.02954,-0.0053 0.03003,-0.0038 0.03047,-0.0023 0.03088,-7.85e-4 0.03088,7.85e-4 0.03047,0.0023 0.03004,0.0038 0.02954,0.0053 0.02903,0.0067 0.02847,0.0081 0.02788,0.0094 0.02724,0.01074 0.02657,0.01201 0.02587,0.01325 0.02512,0.01445 0.02434,0.01561 0.02352,0.01673 0.02267,0.01781 0.02177,0.01886 0.02084,0.01987 0.01986,0.02083 0.01886,0.02177 0.01781,0.02267 0.01673,0.02352 0.0156,0.02434 0.01445,0.02512 0.01325,0.02586 0.01201,0.02658 0.01074,0.02724 0.0094,0.02788 0.0081,0.02847 0.0067,0.02903 0.0053,0.02954 0.0038,0.03003 0.0023,0.03047 7.84e-4,0.03088 v 0" />
      <path
         id="path936"
         style="display:inline;fill:#000000;fill-opacity:1;stroke:none;stroke-width:0.0066663;stroke-opacity:1"
         d="m 50.342661,53.122978 -7.24e-4,0.02974 -0.0022,0.02955 -0.0036,0.0293 -0.005,0.029 -0.0065,0.02864 -0.0078,0.02825 -0.0092,0.0278 -0.01054,0.02731 -0.01185,0.02676 -0.01315,0.02616 -0.01442,0.02552 -0.01569,0.02482 -0.01693,0.02409 -0.01813,0.02328 -0.01934,0.02245 -0.02051,0.02156 -0.02157,0.02052 -0.02245,0.01933 -0.02329,0.01814 -0.02408,0.01693 -0.02483,0.01569 -0.02552,0.01444 -0.02616,0.01315 -0.02676,0.01186 -0.02731,0.01054 -0.0278,0.0092 -0.02824,0.0078 -0.02865,0.0065 -0.029,0.005 -0.0293,0.0036 -0.02954,0.0022 -0.02975,7.24e-4 -0.02976,-7.24e-4 -0.02954,-0.0022 -0.0293,-0.0036 -0.029,-0.005 -0.02865,-0.0065 -0.02824,-0.0078 -0.0278,-0.0092 -0.0273,-0.01054 -0.02676,-0.01186 -0.02616,-0.01315 -0.02552,-0.01444 -0.02483,-0.01569 -0.02408,-0.01693 -0.02329,-0.01814 -0.02245,-0.01933 -0.02157,-0.02052 -0.02051,-0.02156 -0.01934,-0.02245 -0.01813,-0.02328 -0.01693,-0.02409 -0.01569,-0.02482 -0.01442,-0.02552 -0.01315,-0.02616 -0.01185,-0.02676 -0.01054,-0.02731 -0.0092,-0.0278 -0.0078,-0.02825 -0.0065,-0.02864 -0.005,-0.029 -0.0036,-0.0293 -0.0022,-0.02955 -7.24e-4,-0.02974 7.85e-4,-0.03088 0.0023,-0.03047 0.0038,-0.03003 0.0053,-0.02954 0.0067,-0.02903 0.0081,-0.02847 0.0094,-0.02788 0.01074,-0.02724 0.01201,-0.02658 0.01325,-0.02586 0.01445,-0.02512 0.0156,-0.02434 0.01673,-0.02352 0.01781,-0.02267 0.01886,-0.02177 0.01986,-0.02083 0.02085,-0.01987 0.02177,-0.01886 0.02267,-0.01781 0.02352,-0.01673 0.02434,-0.01561 0.02513,-0.01445 0.02587,-0.01325 0.02657,-0.01201 0.02724,-0.01074 0.02788,-0.0094 0.02847,-0.0081 0.02903,-0.0067 0.02954,-0.0053 0.03003,-0.0038 0.03047,-0.0023 0.03088,-7.85e-4 0.03088,7.85e-4 0.03047,0.0023 0.03004,0.0038 0.02954,0.0053 0.02903,0.0067 0.02847,0.0081 0.02788,0.0094 0.02724,0.01074 0.02657,0.01201 0.02587,0.01325 0.02512,0.01445 0.02434,0.01561 0.02352,0.01673 0.02267,0.01781 0.02177,0.01886 0.02084,0.01987 0.01986,0.02083 0.01886,0.02177 0.01781,0.02267 0.01673,0.02352 0.0156,0.02434 0.01445,0.02512 0.01325,0.02586 0.01201,0.02658 0.01074,0.02724 0.0094,0.02788 0.0081,0.02847 0.0067,0.02903 0.0053,0.02954 0.0038,0.03003 0.0023,0.03047 7.84e-4,0.03088 v 0" />
      <path
         id="path938"
         style="display:inline;fill:#000000;fill-opacity:1;stroke:none;stroke-width:0.0066663;stroke-opacity:1"
         d="m 51.930162,53.122978 -7.24e-4,0.02974 -0.0022,0.02955 -0.0036,0.0293 -0.005,0.029 -0.0065,0.02864 -0.0078,0.02825 -0.0092,0.0278 -0.01054,0.02731 -0.01185,0.02676 -0.01315,0.02616 -0.01442,0.02552 -0.01569,0.02482 -0.01693,0.02409 -0.01813,0.02328 -0.01934,0.02245 -0.02051,0.02156 -0.02157,0.02052 -0.02245,0.01933 -0.02329,0.01814 -0.02408,0.01693 -0.02483,0.01569 -0.02552,0.01444 -0.02616,0.01315 -0.02676,0.01186 -0.02731,0.01054 -0.0278,0.0092 -0.02824,0.0078 -0.02865,0.0065 -0.029,0.005 -0.0293,0.0036 -0.02954,0.0022 -0.02975,7.24e-4 -0.02976,-7.24e-4 -0.02954,-0.0022 -0.0293,-0.0036 -0.029,-0.005 -0.02865,-0.0065 -0.02824,-0.0078 -0.0278,-0.0092 -0.0273,-0.01054 -0.02676,-0.01186 -0.02616,-0.01315 -0.02552,-0.01444 -0.02483,-0.01569 -0.02408,-0.01693 -0.02329,-0.01814 -0.02245,-0.01933 -0.02157,-0.02052 -0.02051,-0.02156 -0.01934,-0.02245 -0.01813,-0.02328 -0.01693,-0.02409 -0.01569,-0.02482 -0.01442,-0.02552 -0.01315,-0.02616 -0.01185,-0.02676 -0.01054,-0.02731 -0.0092,-0.0278 -0.0078,-0.02825 -0.0065,-0.02864 -0.005,-0.029 -0.0036,-0.0293 -0.0022,-0.02955 -7.24e-4,-0.02974 7.85e-4,-0.03088 0.0023,-0.03047 0.0038,-0.03003 0.0053,-0.02954 0.0067,-0.02903 0.0081,-0.02847 0.0094,-0.02788 0.01074,-0.02724 0.01201,-0.02658 0.01325,-0.02586 0.01445,-0.02512 0.0156,-0.02434 0.01673,-0.02352 0.01781,-0.02267 0.01886,-0.02177 0.01986,-0.02083 0.02085,-0.01987 0.02177,-0.01886 0.02267,-0.01781 0.02352,-0.01673 0.02434,-0.01561 0.02513,-0.01445 0.02587,-0.01325 0.02657,-0.01201 0.02724,-0.01074 0.02788,-0.0094 0.02847,-0.0081 0.02903,-0.0067 0.02954,-0.0053 0.03003,-0.0038 0.03047,-0.0023 0.03088,-7.85e-4 0.03088,7.85e-4 0.03047,0.0023 0.03004,0.0038 0.02954,0.0053 0.02903,0.0067 0.02847,0.0081 0.02788,0.0094 0.02724,0.01074 0.02657,0.01201 0.02587,0.01325 0.02512,0.01445 0.02434,0.01561 0.02352,0.01673 0.02267,0.01781 0.02177,0.01886 0.02084,0.01987 0.01986,0.02083 0.01886,0.02177 0.01781,0.02267 0.01673,0.02352 0.0156,0.02434 0.01445,0.02512 0.01325,0.02586 0.01201,0.02658 0.01074,0.02724 0.0094,0.02788 0.0081,0.02847 0.0067,0.02903 0.0053,0.02954 0.0038,0.03003 0.0023,0.03047 7.84e-4,0.03088 v 0" />
    </g>
  </g>
</svg>
