G04 #@! TF.GenerationSoftware,KiCad,Pcbnew,5.1.5+dfsg1-2build2*
G04 #@! TF.CreationDate,2021-05-19T21:19:48-04:00*
G04 #@! TF.ProjectId,ocean_tile_wood,6f636561-6e5f-4746-996c-655f776f6f64,rev?*
G04 #@! TF.SameCoordinates,Original*
G04 #@! TF.FileFunction,Legend,Top*
G04 #@! TF.FilePolarity,Positive*
%FSLAX46Y46*%
G04 Gerber Fmt 4.6, Leading zero omitted, Abs format (unit mm)*
G04 Created by KiCad (PCBNEW 5.1.5+dfsg1-2build2) date 2021-05-19 21:19:48*
%MOMM*%
%LPD*%
G04 APERTURE LIST*
%ADD10C,0.010000*%
G04 APERTURE END LIST*
D10*
G36*
X685748Y-6856629D02*
G01*
X1019251Y-6915491D01*
X1336515Y-7013444D01*
X1637395Y-7150426D01*
X1921747Y-7326378D01*
X2189426Y-7541237D01*
X2338434Y-7685152D01*
X2558108Y-7939064D01*
X2741915Y-8210257D01*
X2850078Y-8413262D01*
X2891254Y-8495226D01*
X2921731Y-8543071D01*
X2945643Y-8562328D01*
X2960939Y-8561663D01*
X3052258Y-8532386D01*
X3173098Y-8501969D01*
X3310811Y-8472997D01*
X3452750Y-8448055D01*
X3586267Y-8429729D01*
X3627091Y-8425502D01*
X3960337Y-8415470D01*
X4292001Y-8446471D01*
X4617834Y-8517289D01*
X4933590Y-8626706D01*
X5235020Y-8773507D01*
X5517878Y-8956475D01*
X5540877Y-8973617D01*
X5669204Y-9079128D01*
X5800544Y-9202885D01*
X5929303Y-9338196D01*
X6049890Y-9478370D01*
X6156711Y-9616715D01*
X6244173Y-9746541D01*
X6306684Y-9861155D01*
X6328712Y-9916215D01*
X6340617Y-10012577D01*
X6315766Y-10101352D01*
X6259730Y-10174231D01*
X6178081Y-10222902D01*
X6113193Y-10237695D01*
X6031522Y-10235148D01*
X5960567Y-10206329D01*
X5893923Y-10146703D01*
X5825189Y-10051733D01*
X5805718Y-10019909D01*
X5634782Y-9773594D01*
X5432224Y-9553058D01*
X5201962Y-9361082D01*
X4947914Y-9200446D01*
X4673999Y-9073930D01*
X4384134Y-8984313D01*
X4328584Y-8971898D01*
X4190784Y-8950266D01*
X4029250Y-8936482D01*
X3858523Y-8930855D01*
X3693146Y-8933696D01*
X3547661Y-8945318D01*
X3489944Y-8953964D01*
X3381382Y-8977641D01*
X3258396Y-9010728D01*
X3134805Y-9048939D01*
X3024429Y-9087986D01*
X2941086Y-9123583D01*
X2937718Y-9125275D01*
X2863925Y-9151186D01*
X2781119Y-9164636D01*
X2764717Y-9165167D01*
X2674005Y-9151711D01*
X2602286Y-9108621D01*
X2545187Y-9031809D01*
X2498331Y-8917190D01*
X2497950Y-8915996D01*
X2385882Y-8632655D01*
X2238313Y-8370129D01*
X2057938Y-8130976D01*
X1847448Y-7917754D01*
X1609539Y-7733022D01*
X1346903Y-7579338D01*
X1062234Y-7459260D01*
X916167Y-7413645D01*
X834474Y-7391951D01*
X763541Y-7376468D01*
X693221Y-7366163D01*
X613365Y-7360004D01*
X513825Y-7356958D01*
X384452Y-7355992D01*
X349250Y-7355955D01*
X163635Y-7358906D01*
X8011Y-7369378D01*
X-129626Y-7389583D01*
X-261283Y-7421731D01*
X-398968Y-7468034D01*
X-519708Y-7515998D01*
X-780870Y-7647106D01*
X-1024691Y-7813891D01*
X-1246941Y-8011779D01*
X-1443393Y-8236196D01*
X-1609816Y-8482567D01*
X-1741981Y-8746317D01*
X-1799589Y-8900319D01*
X-1845591Y-9016636D01*
X-1898452Y-9098031D01*
X-1963210Y-9146279D01*
X-2044905Y-9163158D01*
X-2148575Y-9150445D01*
X-2279258Y-9109918D01*
X-2333996Y-9088818D01*
X-2572175Y-9007748D01*
X-2811230Y-8956791D01*
X-3065382Y-8933280D01*
X-3175883Y-8930958D01*
X-3401195Y-8938643D01*
X-3604093Y-8965076D01*
X-3801396Y-9013092D01*
X-3943514Y-9060455D01*
X-4219445Y-9182603D01*
X-4471929Y-9337252D01*
X-4699151Y-9520989D01*
X-4899301Y-9730404D01*
X-5070568Y-9962084D01*
X-5211138Y-10212619D01*
X-5319201Y-10478596D01*
X-5392945Y-10756605D01*
X-5430558Y-11043233D01*
X-5430229Y-11335069D01*
X-5390145Y-11628701D01*
X-5364910Y-11736984D01*
X-5340609Y-11817474D01*
X-5305533Y-11917925D01*
X-5266278Y-12019693D01*
X-5256301Y-12043834D01*
X-5202035Y-12183141D01*
X-5171894Y-12293073D01*
X-5167875Y-12380348D01*
X-5191980Y-12451681D01*
X-5246206Y-12513790D01*
X-5332554Y-12573392D01*
X-5429434Y-12625461D01*
X-5723546Y-12795972D01*
X-5987807Y-12995977D01*
X-6220965Y-13223855D01*
X-6421769Y-13477990D01*
X-6588967Y-13756762D01*
X-6721306Y-14058552D01*
X-6817534Y-14381743D01*
X-6829568Y-14435667D01*
X-6850744Y-14571930D01*
X-6863903Y-14735614D01*
X-6869022Y-14913428D01*
X-6866076Y-15092079D01*
X-6855040Y-15258275D01*
X-6835890Y-15398723D01*
X-6831375Y-15421203D01*
X-6744638Y-15734285D01*
X-6622979Y-16032310D01*
X-6469119Y-16311143D01*
X-6285781Y-16566646D01*
X-6075689Y-16794682D01*
X-5841565Y-16991115D01*
X-5761224Y-17047148D01*
X-5569296Y-17165383D01*
X-5378723Y-17262195D01*
X-5181004Y-17340465D01*
X-4967637Y-17403074D01*
X-4730121Y-17452904D01*
X-4459955Y-17492836D01*
X-4438365Y-17495485D01*
X-4333862Y-17525938D01*
X-4253559Y-17589970D01*
X-4195653Y-17689195D01*
X-4182965Y-17724249D01*
X-4094537Y-17929685D01*
X-3968771Y-18121020D01*
X-3809170Y-18295302D01*
X-3619236Y-18449578D01*
X-3402471Y-18580895D01*
X-3162376Y-18686300D01*
X-2971203Y-18746023D01*
X-2864014Y-18771639D01*
X-2766483Y-18788314D01*
X-2663114Y-18797860D01*
X-2538408Y-18802089D01*
X-2487083Y-18802647D01*
X-2262885Y-18796227D01*
X-2063833Y-18771745D01*
X-1875574Y-18726371D01*
X-1683754Y-18657273D01*
X-1626628Y-18632928D01*
X-1507006Y-18580425D01*
X-1998664Y-17761476D01*
X-2101209Y-17590016D01*
X-2197606Y-17427584D01*
X-2285515Y-17278216D01*
X-2362594Y-17145946D01*
X-2426501Y-17034809D01*
X-2474897Y-16948840D01*
X-2505440Y-16892073D01*
X-2515160Y-16871271D01*
X-2538066Y-16756582D01*
X-2537296Y-16626887D01*
X-2513987Y-16501478D01*
X-2489468Y-16435917D01*
X-2433956Y-16340473D01*
X-2362264Y-16261050D01*
X-2266580Y-16191092D01*
X-2139093Y-16124041D01*
X-2093482Y-16103513D01*
X-1933508Y-16043949D01*
X-1793301Y-16015762D01*
X-1664809Y-16018420D01*
X-1539981Y-16051390D01*
X-1507502Y-16064700D01*
X-1476895Y-16078450D01*
X-1448775Y-16092968D01*
X-1420588Y-16111072D01*
X-1389781Y-16135581D01*
X-1353800Y-16169312D01*
X-1310094Y-16215084D01*
X-1256107Y-16275713D01*
X-1189288Y-16354019D01*
X-1107083Y-16452819D01*
X-1006938Y-16574932D01*
X-886302Y-16723174D01*
X-742619Y-16900364D01*
X-677333Y-16980950D01*
X-560220Y-17125297D01*
X-451624Y-17258716D01*
X-354373Y-17377766D01*
X-271293Y-17479005D01*
X-205212Y-17558992D01*
X-158956Y-17614287D01*
X-135353Y-17641447D01*
X-132893Y-17643667D01*
X-128431Y-17622763D01*
X-117354Y-17564040D01*
X-100359Y-17471379D01*
X-78145Y-17348659D01*
X-51409Y-17199758D01*
X-20851Y-17028555D01*
X12834Y-16838930D01*
X48945Y-16634762D01*
X63687Y-16551171D01*
X101117Y-16339797D01*
X136950Y-16139404D01*
X170414Y-15954179D01*
X200737Y-15788308D01*
X227146Y-15645977D01*
X248868Y-15531374D01*
X265130Y-15448685D01*
X275161Y-15402097D01*
X277008Y-15395243D01*
X313539Y-15323486D01*
X375311Y-15242581D01*
X451101Y-15164884D01*
X529684Y-15102754D01*
X558203Y-15085657D01*
X601024Y-15065331D01*
X645457Y-15051976D01*
X701451Y-15044283D01*
X778957Y-15040941D01*
X887922Y-15040640D01*
X899584Y-15040717D01*
X1016229Y-15042762D01*
X1101379Y-15047941D01*
X1165840Y-15057718D01*
X1220417Y-15073557D01*
X1259417Y-15089427D01*
X1395748Y-15170505D01*
X1499837Y-15277216D01*
X1569425Y-15406488D01*
X1602255Y-15555248D01*
X1602318Y-15555968D01*
X1602252Y-15616522D01*
X1595333Y-15716643D01*
X1581789Y-15854163D01*
X1561848Y-16026911D01*
X1535737Y-16232720D01*
X1515303Y-16385112D01*
X1492319Y-16553749D01*
X1471275Y-16708837D01*
X1452834Y-16845441D01*
X1437658Y-16958625D01*
X1426410Y-17043455D01*
X1419751Y-17094996D01*
X1418167Y-17108847D01*
X1432204Y-17098257D01*
X1471444Y-17061533D01*
X1531579Y-17002891D01*
X1608302Y-16926551D01*
X1697305Y-16836729D01*
X1728485Y-16805003D01*
X1859710Y-16673613D01*
X1968645Y-16571066D01*
X2060505Y-16494024D01*
X2140504Y-16439146D01*
X2213856Y-16403095D01*
X2285774Y-16382530D01*
X2361472Y-16374113D01*
X2402417Y-16373417D01*
X2541808Y-16385802D01*
X2657238Y-16424124D01*
X2761370Y-16493096D01*
X2788712Y-16517141D01*
X2877679Y-16610800D01*
X2934250Y-16703293D01*
X2964257Y-16808084D01*
X2973530Y-16938635D01*
X2973550Y-16943917D01*
X2973635Y-16990332D01*
X2972381Y-17030904D01*
X2967852Y-17069409D01*
X2958113Y-17109625D01*
X2941229Y-17155327D01*
X2915265Y-17210295D01*
X2878286Y-17278303D01*
X2828357Y-17363129D01*
X2763541Y-17468551D01*
X2681905Y-17598344D01*
X2581513Y-17756286D01*
X2460429Y-17946153D01*
X2458401Y-17949334D01*
X2355023Y-18110541D01*
X2272527Y-18239529D01*
X2210374Y-18340592D01*
X2168025Y-18418025D01*
X2144943Y-18476123D01*
X2140590Y-18519182D01*
X2154427Y-18551495D01*
X2185916Y-18577358D01*
X2234518Y-18601066D01*
X2299697Y-18626914D01*
X2370010Y-18654707D01*
X2546262Y-18719522D01*
X2713203Y-18763808D01*
X2885331Y-18790220D01*
X3077141Y-18801413D01*
X3175000Y-18802187D01*
X3310419Y-18799984D01*
X3417742Y-18793677D01*
X3511131Y-18781692D01*
X3604748Y-18762454D01*
X3662077Y-18748051D01*
X3929354Y-18660062D01*
X4170609Y-18544216D01*
X4383505Y-18402429D01*
X4565707Y-18236618D01*
X4714879Y-18048698D01*
X4828685Y-17840587D01*
X4858575Y-17766472D01*
X4913567Y-17646058D01*
X4977464Y-17563436D01*
X5054513Y-17514325D01*
X5126282Y-17496549D01*
X5290697Y-17475439D01*
X5422024Y-17456429D01*
X5529335Y-17437809D01*
X5621705Y-17417863D01*
X5708206Y-17394879D01*
X5778500Y-17373402D01*
X6088046Y-17252845D01*
X6375676Y-17096583D01*
X6639244Y-16906343D01*
X6876601Y-16683854D01*
X7085600Y-16430844D01*
X7234424Y-16201619D01*
X7365426Y-15937166D01*
X7466023Y-15652520D01*
X7534303Y-15356542D01*
X7568355Y-15058094D01*
X7566269Y-14766036D01*
X7559703Y-14693456D01*
X7503210Y-14357295D01*
X7409397Y-14040436D01*
X7279292Y-13744381D01*
X7113926Y-13470628D01*
X6914328Y-13220679D01*
X6681526Y-12996032D01*
X6416552Y-12798189D01*
X6154085Y-12645652D01*
X6058086Y-12593495D01*
X5976481Y-12543702D01*
X5917702Y-12501721D01*
X5892069Y-12476374D01*
X5864603Y-12413868D01*
X5859183Y-12338827D01*
X5876608Y-12244965D01*
X5917675Y-12125995D01*
X5944867Y-12060778D01*
X6022022Y-11858882D01*
X6076167Y-11657518D01*
X6109900Y-11443929D01*
X6125816Y-11205361D01*
X6126828Y-11166596D01*
X6133176Y-10871442D01*
X6209527Y-10801471D01*
X6267528Y-10755872D01*
X6322725Y-10735552D01*
X6383556Y-10731500D01*
X6453171Y-10737118D01*
X6504434Y-10760261D01*
X6550989Y-10801255D01*
X6587507Y-10841763D01*
X6610323Y-10882191D01*
X6624301Y-10935867D01*
X6634303Y-11016119D01*
X6636051Y-11034364D01*
X6641804Y-11234268D01*
X6625578Y-11458090D01*
X6588928Y-11694556D01*
X6533410Y-11932396D01*
X6494051Y-12063850D01*
X6471109Y-12136446D01*
X6461281Y-12179660D01*
X6464285Y-12204268D01*
X6479841Y-12221046D01*
X6489771Y-12228157D01*
X6523356Y-12250707D01*
X6583390Y-12290310D01*
X6660798Y-12341000D01*
X6731000Y-12386736D01*
X6876866Y-12492756D01*
X7033587Y-12625986D01*
X7191372Y-12776679D01*
X7340432Y-12935090D01*
X7470975Y-13091469D01*
X7553611Y-13205713D01*
X7737176Y-13519623D01*
X7884589Y-13852758D01*
X7993537Y-14199409D01*
X8037231Y-14399185D01*
X8056570Y-14542477D01*
X8068585Y-14714365D01*
X8073283Y-14901748D01*
X8070669Y-15091528D01*
X8060749Y-15270605D01*
X8043530Y-15425881D01*
X8036739Y-15466982D01*
X7952367Y-15814415D01*
X7828430Y-16152555D01*
X7667614Y-16474785D01*
X7552720Y-16660454D01*
X7468890Y-16774435D01*
X7361845Y-16903020D01*
X7240484Y-17036862D01*
X7113707Y-17166610D01*
X6990413Y-17282916D01*
X6879503Y-17376429D01*
X6850225Y-17398459D01*
X6541716Y-17596615D01*
X6213745Y-17757606D01*
X5869124Y-17880265D01*
X5510663Y-17963428D01*
X5471407Y-17969971D01*
X5393923Y-17983304D01*
X5346871Y-17997036D01*
X5318873Y-18018197D01*
X5298548Y-18053820D01*
X5285352Y-18084945D01*
X5210768Y-18230393D01*
X5105429Y-18386236D01*
X4976455Y-18543958D01*
X4830964Y-18695039D01*
X4676075Y-18830963D01*
X4635500Y-18862499D01*
X4568190Y-18907876D01*
X4475456Y-18963056D01*
X4370479Y-19020477D01*
X4283881Y-19064233D01*
X3985413Y-19185545D01*
X3675098Y-19268086D01*
X3357530Y-19311885D01*
X3037305Y-19316973D01*
X2719018Y-19283377D01*
X2407265Y-19211128D01*
X2106641Y-19100254D01*
X1999606Y-19049677D01*
X1923342Y-19012061D01*
X1861958Y-18983088D01*
X1824813Y-18967118D01*
X1818575Y-18965334D01*
X1801508Y-18983818D01*
X1774657Y-19033111D01*
X1741959Y-19103972D01*
X1707349Y-19187163D01*
X1674763Y-19273444D01*
X1648138Y-19353574D01*
X1638234Y-19388667D01*
X1617199Y-19500378D01*
X1606495Y-19635896D01*
X1606169Y-19799083D01*
X1616268Y-19993796D01*
X1636838Y-20223897D01*
X1649654Y-20341167D01*
X1713475Y-20821542D01*
X1791134Y-21264607D01*
X1883666Y-21673405D01*
X1992108Y-22050977D01*
X2117495Y-22400364D01*
X2260864Y-22724610D01*
X2423250Y-23026754D01*
X2605688Y-23309840D01*
X2708352Y-23449902D01*
X2769509Y-23530951D01*
X2822478Y-23603079D01*
X2861030Y-23657687D01*
X2877827Y-23683931D01*
X2897879Y-23759072D01*
X2892330Y-23847473D01*
X2867725Y-23919026D01*
X2858483Y-23938280D01*
X2850230Y-23955476D01*
X2840652Y-23970731D01*
X2827435Y-23984160D01*
X2808264Y-23995880D01*
X2780825Y-24006006D01*
X2742804Y-24014653D01*
X2691887Y-24021939D01*
X2625759Y-24027978D01*
X2542107Y-24032886D01*
X2438615Y-24036779D01*
X2312970Y-24039774D01*
X2162857Y-24041985D01*
X1985963Y-24043528D01*
X1779972Y-24044520D01*
X1542571Y-24045076D01*
X1271446Y-24045311D01*
X964282Y-24045343D01*
X618765Y-24045285D01*
X345010Y-24045254D01*
X-22147Y-24045225D01*
X-349348Y-24045138D01*
X-638971Y-24044951D01*
X-893394Y-24044626D01*
X-1114993Y-24044120D01*
X-1306148Y-24043396D01*
X-1469234Y-24042411D01*
X-1606631Y-24041126D01*
X-1720715Y-24039500D01*
X-1813864Y-24037494D01*
X-1888456Y-24035067D01*
X-1946868Y-24032179D01*
X-1991479Y-24028790D01*
X-2024665Y-24024858D01*
X-2048804Y-24020345D01*
X-2066273Y-24015210D01*
X-2079452Y-24009412D01*
X-2088857Y-24004054D01*
X-2154000Y-23952471D01*
X-2189203Y-23889483D01*
X-2201137Y-23802124D01*
X-2201333Y-23785362D01*
X-2198867Y-23742361D01*
X-2188554Y-23702265D01*
X-2166024Y-23656817D01*
X-2126906Y-23597756D01*
X-2066828Y-23516823D01*
X-2042095Y-23484477D01*
X-1812786Y-23155455D01*
X-1616300Y-22807388D01*
X-1449189Y-22433878D01*
X-1386741Y-22267334D01*
X-1333778Y-22121030D01*
X-1290111Y-22010144D01*
X-1252027Y-21929806D01*
X-1215813Y-21875149D01*
X-1177754Y-21841304D01*
X-1134138Y-21823404D01*
X-1081252Y-21816581D01*
X-1042300Y-21815778D01*
X-941619Y-21833428D01*
X-864945Y-21885878D01*
X-813299Y-21972378D01*
X-807900Y-21987853D01*
X-797554Y-22023940D01*
X-793265Y-22057851D01*
X-796517Y-22097578D01*
X-808794Y-22151112D01*
X-831580Y-22226444D01*
X-866359Y-22331565D01*
X-878294Y-22366967D01*
X-932157Y-22515089D01*
X-998494Y-22679729D01*
X-1072712Y-22850838D01*
X-1150212Y-23018366D01*
X-1226400Y-23172263D01*
X-1296680Y-23302478D01*
X-1336324Y-23368570D01*
X-1377088Y-23432885D01*
X-1409864Y-23484975D01*
X-1425911Y-23510875D01*
X-1421227Y-23515715D01*
X-1399488Y-23519965D01*
X-1358455Y-23523657D01*
X-1295890Y-23526826D01*
X-1209552Y-23529504D01*
X-1097204Y-23531725D01*
X-956606Y-23533522D01*
X-785519Y-23534930D01*
X-581704Y-23535980D01*
X-342922Y-23536707D01*
X-66934Y-23537144D01*
X248499Y-23537324D01*
X347574Y-23537334D01*
X2136980Y-23537334D01*
X2044784Y-23394459D01*
X1891052Y-23131418D01*
X1745646Y-22833620D01*
X1611336Y-22508273D01*
X1490894Y-22162585D01*
X1387092Y-21803767D01*
X1313825Y-21492943D01*
X1277284Y-21307500D01*
X1241905Y-21105289D01*
X1208414Y-20892500D01*
X1177539Y-20675321D01*
X1150006Y-20459942D01*
X1126542Y-20252550D01*
X1107874Y-20059336D01*
X1094730Y-19886487D01*
X1087836Y-19740193D01*
X1087920Y-19626643D01*
X1090252Y-19589750D01*
X1123084Y-19367188D01*
X1178510Y-19147087D01*
X1251977Y-18946877D01*
X1266426Y-18915020D01*
X1294089Y-18862380D01*
X1341983Y-18778455D01*
X1407474Y-18667586D01*
X1487924Y-18534114D01*
X1580698Y-18382379D01*
X1683160Y-18216724D01*
X1792673Y-18041487D01*
X1904283Y-17864667D01*
X2014837Y-17690015D01*
X2118460Y-17525582D01*
X2212928Y-17374947D01*
X2296018Y-17241691D01*
X2365505Y-17129393D01*
X2419167Y-17041634D01*
X2454779Y-16981994D01*
X2470119Y-16954053D01*
X2470487Y-16953022D01*
X2463214Y-16913885D01*
X2444847Y-16891080D01*
X2432149Y-16885590D01*
X2413958Y-16889379D01*
X2386969Y-16905311D01*
X2347874Y-16936254D01*
X2293369Y-16985073D01*
X2220147Y-17054635D01*
X2124902Y-17147805D01*
X2004328Y-17267450D01*
X1961833Y-17309821D01*
X1810979Y-17458665D01*
X1682677Y-17581709D01*
X1578301Y-17677704D01*
X1499227Y-17745396D01*
X1446830Y-17783534D01*
X1434722Y-17789804D01*
X1312946Y-17819026D01*
X1192300Y-17810104D01*
X1080363Y-17766733D01*
X984717Y-17692607D01*
X912942Y-17591422D01*
X885311Y-17522034D01*
X879506Y-17497080D01*
X876154Y-17465674D01*
X875638Y-17423860D01*
X878339Y-17367684D01*
X884638Y-17293187D01*
X894917Y-17196414D01*
X909557Y-17073409D01*
X928941Y-16920216D01*
X953449Y-16732878D01*
X982358Y-16515699D01*
X1012499Y-16286616D01*
X1037951Y-16085282D01*
X1058456Y-15914033D01*
X1073758Y-15775207D01*
X1083600Y-15671139D01*
X1087725Y-15604166D01*
X1085876Y-15576623D01*
X1085652Y-15576352D01*
X1055673Y-15564403D01*
X996563Y-15552432D01*
X925444Y-15543498D01*
X850006Y-15537463D01*
X805700Y-15538722D01*
X781594Y-15549802D01*
X766755Y-15573232D01*
X763355Y-15580982D01*
X755815Y-15610700D01*
X741797Y-15678249D01*
X722022Y-15779742D01*
X697207Y-15911292D01*
X668073Y-16069014D01*
X635340Y-16249020D01*
X599725Y-16447423D01*
X561949Y-16660338D01*
X531375Y-16834389D01*
X484577Y-17101695D01*
X444174Y-17330525D01*
X409245Y-17524101D01*
X378867Y-17685643D01*
X352121Y-17818373D01*
X328084Y-17925511D01*
X305836Y-18010278D01*
X284455Y-18075895D01*
X263019Y-18125583D01*
X240608Y-18162563D01*
X216301Y-18190056D01*
X189175Y-18211283D01*
X158309Y-18229464D01*
X127820Y-18245249D01*
X41446Y-18274390D01*
X-60653Y-18287214D01*
X-161128Y-18283133D01*
X-242631Y-18261557D01*
X-249759Y-18258056D01*
X-270702Y-18246179D01*
X-292531Y-18231044D01*
X-317595Y-18209944D01*
X-348243Y-18180172D01*
X-386825Y-18139021D01*
X-435688Y-18083784D01*
X-497183Y-18011755D01*
X-573658Y-17920226D01*
X-667463Y-17806490D01*
X-780947Y-17667841D01*
X-916458Y-17501572D01*
X-1068740Y-17314334D01*
X-1196255Y-17157806D01*
X-1316131Y-17011315D01*
X-1425636Y-16878154D01*
X-1522036Y-16761617D01*
X-1602595Y-16664998D01*
X-1664582Y-16591591D01*
X-1705260Y-16544689D01*
X-1721654Y-16527697D01*
X-1752300Y-16528516D01*
X-1809241Y-16543984D01*
X-1880436Y-16570791D01*
X-1883989Y-16572299D01*
X-1957932Y-16606154D01*
X-1999884Y-16632960D01*
X-2017962Y-16659207D01*
X-2020752Y-16681602D01*
X-2009968Y-16708368D01*
X-1979087Y-16768123D01*
X-1929957Y-16857652D01*
X-1864426Y-16973743D01*
X-1784340Y-17113181D01*
X-1691548Y-17272753D01*
X-1587895Y-17449246D01*
X-1475230Y-17639445D01*
X-1355401Y-17840137D01*
X-1340690Y-17864667D01*
X-1219173Y-18067495D01*
X-1102850Y-18262202D01*
X-993778Y-18445305D01*
X-894019Y-18613321D01*
X-805631Y-18762769D01*
X-730673Y-18890166D01*
X-671205Y-18992029D01*
X-629285Y-19064877D01*
X-606972Y-19105227D01*
X-606073Y-19106992D01*
X-515491Y-19332092D01*
X-456106Y-19583201D01*
X-428281Y-19857316D01*
X-432382Y-20151440D01*
X-453725Y-20362334D01*
X-487270Y-20602866D01*
X-517918Y-20805381D01*
X-545514Y-20968998D01*
X-569900Y-21092836D01*
X-590922Y-21176014D01*
X-603934Y-21210323D01*
X-661724Y-21280715D01*
X-740530Y-21321360D01*
X-830227Y-21331189D01*
X-920690Y-21309134D01*
X-1001795Y-21254127D01*
X-1003440Y-21252496D01*
X-1028414Y-21225166D01*
X-1046981Y-21196114D01*
X-1059104Y-21160249D01*
X-1064746Y-21112484D01*
X-1063868Y-21047727D01*
X-1056434Y-20960890D01*
X-1042406Y-20846883D01*
X-1021746Y-20700618D01*
X-998211Y-20542250D01*
X-966370Y-20314227D01*
X-945475Y-20120730D01*
X-936005Y-19955268D01*
X-938440Y-19811347D01*
X-953259Y-19682476D01*
X-980943Y-19562161D01*
X-1021970Y-19443911D01*
X-1076821Y-19321233D01*
X-1090446Y-19293692D01*
X-1144502Y-19185556D01*
X-1184686Y-19110559D01*
X-1217681Y-19064833D01*
X-1250173Y-19044509D01*
X-1288844Y-19045718D01*
X-1340379Y-19064592D01*
X-1411462Y-19097263D01*
X-1421711Y-19101967D01*
X-1642982Y-19186762D01*
X-1889493Y-19252975D01*
X-2147328Y-19298122D01*
X-2402575Y-19319715D01*
X-2623343Y-19316630D01*
X-2947208Y-19275649D01*
X-3253143Y-19200386D01*
X-3538696Y-19092342D01*
X-3801414Y-18953019D01*
X-4038846Y-18783919D01*
X-4248537Y-18586545D01*
X-4428036Y-18362399D01*
X-4568905Y-18124955D01*
X-4606525Y-18054414D01*
X-4636649Y-18013196D01*
X-4668809Y-17991863D01*
X-4712534Y-17980980D01*
X-4714677Y-17980626D01*
X-5069081Y-17907588D01*
X-5393212Y-17808513D01*
X-5691859Y-17681092D01*
X-5969807Y-17523012D01*
X-6231846Y-17331961D01*
X-6439246Y-17148076D01*
X-6687805Y-16881856D01*
X-6899095Y-16595833D01*
X-7073611Y-16289119D01*
X-7211849Y-15960824D01*
X-7314302Y-15610061D01*
X-7327598Y-15550905D01*
X-7353483Y-15391000D01*
X-7370144Y-15202276D01*
X-7377581Y-14997228D01*
X-7375794Y-14788352D01*
X-7364784Y-14588146D01*
X-7344549Y-14409105D01*
X-7327598Y-14315262D01*
X-7242145Y-13999695D01*
X-7125187Y-13692192D01*
X-6981000Y-13402320D01*
X-6813856Y-13139646D01*
X-6784747Y-13100086D01*
X-6641410Y-12926879D01*
X-6472145Y-12751016D01*
X-6289321Y-12584133D01*
X-6105309Y-12437866D01*
X-6011333Y-12372552D01*
X-5925516Y-12316088D01*
X-5852560Y-12267726D01*
X-5799789Y-12232346D01*
X-5774528Y-12214829D01*
X-5773894Y-12214328D01*
X-5772741Y-12189740D01*
X-5783214Y-12135604D01*
X-5803148Y-12062394D01*
X-5809607Y-12041547D01*
X-5862120Y-11862007D01*
X-5898749Y-11698772D01*
X-5921782Y-11536599D01*
X-5933504Y-11360250D01*
X-5936277Y-11197167D01*
X-5933230Y-11001992D01*
X-5922244Y-10835240D01*
X-5901408Y-10683429D01*
X-5868808Y-10533080D01*
X-5822533Y-10370713D01*
X-5816198Y-10350500D01*
X-5711713Y-10067492D01*
X-5583680Y-9810964D01*
X-5426722Y-9572128D01*
X-5235459Y-9342200D01*
X-5134677Y-9237205D01*
X-4879870Y-9006760D01*
X-4614535Y-8816350D01*
X-4335192Y-8664348D01*
X-4038364Y-8549127D01*
X-3720576Y-8469059D01*
X-3397250Y-8424179D01*
X-3215309Y-8416515D01*
X-3014340Y-8422994D01*
X-2806522Y-8442148D01*
X-2604037Y-8472511D01*
X-2419065Y-8512614D01*
X-2264833Y-8560593D01*
X-2244688Y-8555057D01*
X-2216710Y-8522777D01*
X-2178175Y-8459784D01*
X-2126363Y-8362114D01*
X-2119875Y-8349356D01*
X-1946597Y-8053185D01*
X-1741733Y-7784536D01*
X-1507209Y-7545068D01*
X-1244952Y-7336439D01*
X-956891Y-7160309D01*
X-644953Y-7018335D01*
X-521973Y-6974159D01*
X-270631Y-6902081D01*
X-24678Y-6857760D01*
X233661Y-6838354D01*
X336148Y-6836919D01*
X685748Y-6856629D01*
G37*
X685748Y-6856629D02*
X1019251Y-6915491D01*
X1336515Y-7013444D01*
X1637395Y-7150426D01*
X1921747Y-7326378D01*
X2189426Y-7541237D01*
X2338434Y-7685152D01*
X2558108Y-7939064D01*
X2741915Y-8210257D01*
X2850078Y-8413262D01*
X2891254Y-8495226D01*
X2921731Y-8543071D01*
X2945643Y-8562328D01*
X2960939Y-8561663D01*
X3052258Y-8532386D01*
X3173098Y-8501969D01*
X3310811Y-8472997D01*
X3452750Y-8448055D01*
X3586267Y-8429729D01*
X3627091Y-8425502D01*
X3960337Y-8415470D01*
X4292001Y-8446471D01*
X4617834Y-8517289D01*
X4933590Y-8626706D01*
X5235020Y-8773507D01*
X5517878Y-8956475D01*
X5540877Y-8973617D01*
X5669204Y-9079128D01*
X5800544Y-9202885D01*
X5929303Y-9338196D01*
X6049890Y-9478370D01*
X6156711Y-9616715D01*
X6244173Y-9746541D01*
X6306684Y-9861155D01*
X6328712Y-9916215D01*
X6340617Y-10012577D01*
X6315766Y-10101352D01*
X6259730Y-10174231D01*
X6178081Y-10222902D01*
X6113193Y-10237695D01*
X6031522Y-10235148D01*
X5960567Y-10206329D01*
X5893923Y-10146703D01*
X5825189Y-10051733D01*
X5805718Y-10019909D01*
X5634782Y-9773594D01*
X5432224Y-9553058D01*
X5201962Y-9361082D01*
X4947914Y-9200446D01*
X4673999Y-9073930D01*
X4384134Y-8984313D01*
X4328584Y-8971898D01*
X4190784Y-8950266D01*
X4029250Y-8936482D01*
X3858523Y-8930855D01*
X3693146Y-8933696D01*
X3547661Y-8945318D01*
X3489944Y-8953964D01*
X3381382Y-8977641D01*
X3258396Y-9010728D01*
X3134805Y-9048939D01*
X3024429Y-9087986D01*
X2941086Y-9123583D01*
X2937718Y-9125275D01*
X2863925Y-9151186D01*
X2781119Y-9164636D01*
X2764717Y-9165167D01*
X2674005Y-9151711D01*
X2602286Y-9108621D01*
X2545187Y-9031809D01*
X2498331Y-8917190D01*
X2497950Y-8915996D01*
X2385882Y-8632655D01*
X2238313Y-8370129D01*
X2057938Y-8130976D01*
X1847448Y-7917754D01*
X1609539Y-7733022D01*
X1346903Y-7579338D01*
X1062234Y-7459260D01*
X916167Y-7413645D01*
X834474Y-7391951D01*
X763541Y-7376468D01*
X693221Y-7366163D01*
X613365Y-7360004D01*
X513825Y-7356958D01*
X384452Y-7355992D01*
X349250Y-7355955D01*
X163635Y-7358906D01*
X8011Y-7369378D01*
X-129626Y-7389583D01*
X-261283Y-7421731D01*
X-398968Y-7468034D01*
X-519708Y-7515998D01*
X-780870Y-7647106D01*
X-1024691Y-7813891D01*
X-1246941Y-8011779D01*
X-1443393Y-8236196D01*
X-1609816Y-8482567D01*
X-1741981Y-8746317D01*
X-1799589Y-8900319D01*
X-1845591Y-9016636D01*
X-1898452Y-9098031D01*
X-1963210Y-9146279D01*
X-2044905Y-9163158D01*
X-2148575Y-9150445D01*
X-2279258Y-9109918D01*
X-2333996Y-9088818D01*
X-2572175Y-9007748D01*
X-2811230Y-8956791D01*
X-3065382Y-8933280D01*
X-3175883Y-8930958D01*
X-3401195Y-8938643D01*
X-3604093Y-8965076D01*
X-3801396Y-9013092D01*
X-3943514Y-9060455D01*
X-4219445Y-9182603D01*
X-4471929Y-9337252D01*
X-4699151Y-9520989D01*
X-4899301Y-9730404D01*
X-5070568Y-9962084D01*
X-5211138Y-10212619D01*
X-5319201Y-10478596D01*
X-5392945Y-10756605D01*
X-5430558Y-11043233D01*
X-5430229Y-11335069D01*
X-5390145Y-11628701D01*
X-5364910Y-11736984D01*
X-5340609Y-11817474D01*
X-5305533Y-11917925D01*
X-5266278Y-12019693D01*
X-5256301Y-12043834D01*
X-5202035Y-12183141D01*
X-5171894Y-12293073D01*
X-5167875Y-12380348D01*
X-5191980Y-12451681D01*
X-5246206Y-12513790D01*
X-5332554Y-12573392D01*
X-5429434Y-12625461D01*
X-5723546Y-12795972D01*
X-5987807Y-12995977D01*
X-6220965Y-13223855D01*
X-6421769Y-13477990D01*
X-6588967Y-13756762D01*
X-6721306Y-14058552D01*
X-6817534Y-14381743D01*
X-6829568Y-14435667D01*
X-6850744Y-14571930D01*
X-6863903Y-14735614D01*
X-6869022Y-14913428D01*
X-6866076Y-15092079D01*
X-6855040Y-15258275D01*
X-6835890Y-15398723D01*
X-6831375Y-15421203D01*
X-6744638Y-15734285D01*
X-6622979Y-16032310D01*
X-6469119Y-16311143D01*
X-6285781Y-16566646D01*
X-6075689Y-16794682D01*
X-5841565Y-16991115D01*
X-5761224Y-17047148D01*
X-5569296Y-17165383D01*
X-5378723Y-17262195D01*
X-5181004Y-17340465D01*
X-4967637Y-17403074D01*
X-4730121Y-17452904D01*
X-4459955Y-17492836D01*
X-4438365Y-17495485D01*
X-4333862Y-17525938D01*
X-4253559Y-17589970D01*
X-4195653Y-17689195D01*
X-4182965Y-17724249D01*
X-4094537Y-17929685D01*
X-3968771Y-18121020D01*
X-3809170Y-18295302D01*
X-3619236Y-18449578D01*
X-3402471Y-18580895D01*
X-3162376Y-18686300D01*
X-2971203Y-18746023D01*
X-2864014Y-18771639D01*
X-2766483Y-18788314D01*
X-2663114Y-18797860D01*
X-2538408Y-18802089D01*
X-2487083Y-18802647D01*
X-2262885Y-18796227D01*
X-2063833Y-18771745D01*
X-1875574Y-18726371D01*
X-1683754Y-18657273D01*
X-1626628Y-18632928D01*
X-1507006Y-18580425D01*
X-1998664Y-17761476D01*
X-2101209Y-17590016D01*
X-2197606Y-17427584D01*
X-2285515Y-17278216D01*
X-2362594Y-17145946D01*
X-2426501Y-17034809D01*
X-2474897Y-16948840D01*
X-2505440Y-16892073D01*
X-2515160Y-16871271D01*
X-2538066Y-16756582D01*
X-2537296Y-16626887D01*
X-2513987Y-16501478D01*
X-2489468Y-16435917D01*
X-2433956Y-16340473D01*
X-2362264Y-16261050D01*
X-2266580Y-16191092D01*
X-2139093Y-16124041D01*
X-2093482Y-16103513D01*
X-1933508Y-16043949D01*
X-1793301Y-16015762D01*
X-1664809Y-16018420D01*
X-1539981Y-16051390D01*
X-1507502Y-16064700D01*
X-1476895Y-16078450D01*
X-1448775Y-16092968D01*
X-1420588Y-16111072D01*
X-1389781Y-16135581D01*
X-1353800Y-16169312D01*
X-1310094Y-16215084D01*
X-1256107Y-16275713D01*
X-1189288Y-16354019D01*
X-1107083Y-16452819D01*
X-1006938Y-16574932D01*
X-886302Y-16723174D01*
X-742619Y-16900364D01*
X-677333Y-16980950D01*
X-560220Y-17125297D01*
X-451624Y-17258716D01*
X-354373Y-17377766D01*
X-271293Y-17479005D01*
X-205212Y-17558992D01*
X-158956Y-17614287D01*
X-135353Y-17641447D01*
X-132893Y-17643667D01*
X-128431Y-17622763D01*
X-117354Y-17564040D01*
X-100359Y-17471379D01*
X-78145Y-17348659D01*
X-51409Y-17199758D01*
X-20851Y-17028555D01*
X12834Y-16838930D01*
X48945Y-16634762D01*
X63687Y-16551171D01*
X101117Y-16339797D01*
X136950Y-16139404D01*
X170414Y-15954179D01*
X200737Y-15788308D01*
X227146Y-15645977D01*
X248868Y-15531374D01*
X265130Y-15448685D01*
X275161Y-15402097D01*
X277008Y-15395243D01*
X313539Y-15323486D01*
X375311Y-15242581D01*
X451101Y-15164884D01*
X529684Y-15102754D01*
X558203Y-15085657D01*
X601024Y-15065331D01*
X645457Y-15051976D01*
X701451Y-15044283D01*
X778957Y-15040941D01*
X887922Y-15040640D01*
X899584Y-15040717D01*
X1016229Y-15042762D01*
X1101379Y-15047941D01*
X1165840Y-15057718D01*
X1220417Y-15073557D01*
X1259417Y-15089427D01*
X1395748Y-15170505D01*
X1499837Y-15277216D01*
X1569425Y-15406488D01*
X1602255Y-15555248D01*
X1602318Y-15555968D01*
X1602252Y-15616522D01*
X1595333Y-15716643D01*
X1581789Y-15854163D01*
X1561848Y-16026911D01*
X1535737Y-16232720D01*
X1515303Y-16385112D01*
X1492319Y-16553749D01*
X1471275Y-16708837D01*
X1452834Y-16845441D01*
X1437658Y-16958625D01*
X1426410Y-17043455D01*
X1419751Y-17094996D01*
X1418167Y-17108847D01*
X1432204Y-17098257D01*
X1471444Y-17061533D01*
X1531579Y-17002891D01*
X1608302Y-16926551D01*
X1697305Y-16836729D01*
X1728485Y-16805003D01*
X1859710Y-16673613D01*
X1968645Y-16571066D01*
X2060505Y-16494024D01*
X2140504Y-16439146D01*
X2213856Y-16403095D01*
X2285774Y-16382530D01*
X2361472Y-16374113D01*
X2402417Y-16373417D01*
X2541808Y-16385802D01*
X2657238Y-16424124D01*
X2761370Y-16493096D01*
X2788712Y-16517141D01*
X2877679Y-16610800D01*
X2934250Y-16703293D01*
X2964257Y-16808084D01*
X2973530Y-16938635D01*
X2973550Y-16943917D01*
X2973635Y-16990332D01*
X2972381Y-17030904D01*
X2967852Y-17069409D01*
X2958113Y-17109625D01*
X2941229Y-17155327D01*
X2915265Y-17210295D01*
X2878286Y-17278303D01*
X2828357Y-17363129D01*
X2763541Y-17468551D01*
X2681905Y-17598344D01*
X2581513Y-17756286D01*
X2460429Y-17946153D01*
X2458401Y-17949334D01*
X2355023Y-18110541D01*
X2272527Y-18239529D01*
X2210374Y-18340592D01*
X2168025Y-18418025D01*
X2144943Y-18476123D01*
X2140590Y-18519182D01*
X2154427Y-18551495D01*
X2185916Y-18577358D01*
X2234518Y-18601066D01*
X2299697Y-18626914D01*
X2370010Y-18654707D01*
X2546262Y-18719522D01*
X2713203Y-18763808D01*
X2885331Y-18790220D01*
X3077141Y-18801413D01*
X3175000Y-18802187D01*
X3310419Y-18799984D01*
X3417742Y-18793677D01*
X3511131Y-18781692D01*
X3604748Y-18762454D01*
X3662077Y-18748051D01*
X3929354Y-18660062D01*
X4170609Y-18544216D01*
X4383505Y-18402429D01*
X4565707Y-18236618D01*
X4714879Y-18048698D01*
X4828685Y-17840587D01*
X4858575Y-17766472D01*
X4913567Y-17646058D01*
X4977464Y-17563436D01*
X5054513Y-17514325D01*
X5126282Y-17496549D01*
X5290697Y-17475439D01*
X5422024Y-17456429D01*
X5529335Y-17437809D01*
X5621705Y-17417863D01*
X5708206Y-17394879D01*
X5778500Y-17373402D01*
X6088046Y-17252845D01*
X6375676Y-17096583D01*
X6639244Y-16906343D01*
X6876601Y-16683854D01*
X7085600Y-16430844D01*
X7234424Y-16201619D01*
X7365426Y-15937166D01*
X7466023Y-15652520D01*
X7534303Y-15356542D01*
X7568355Y-15058094D01*
X7566269Y-14766036D01*
X7559703Y-14693456D01*
X7503210Y-14357295D01*
X7409397Y-14040436D01*
X7279292Y-13744381D01*
X7113926Y-13470628D01*
X6914328Y-13220679D01*
X6681526Y-12996032D01*
X6416552Y-12798189D01*
X6154085Y-12645652D01*
X6058086Y-12593495D01*
X5976481Y-12543702D01*
X5917702Y-12501721D01*
X5892069Y-12476374D01*
X5864603Y-12413868D01*
X5859183Y-12338827D01*
X5876608Y-12244965D01*
X5917675Y-12125995D01*
X5944867Y-12060778D01*
X6022022Y-11858882D01*
X6076167Y-11657518D01*
X6109900Y-11443929D01*
X6125816Y-11205361D01*
X6126828Y-11166596D01*
X6133176Y-10871442D01*
X6209527Y-10801471D01*
X6267528Y-10755872D01*
X6322725Y-10735552D01*
X6383556Y-10731500D01*
X6453171Y-10737118D01*
X6504434Y-10760261D01*
X6550989Y-10801255D01*
X6587507Y-10841763D01*
X6610323Y-10882191D01*
X6624301Y-10935867D01*
X6634303Y-11016119D01*
X6636051Y-11034364D01*
X6641804Y-11234268D01*
X6625578Y-11458090D01*
X6588928Y-11694556D01*
X6533410Y-11932396D01*
X6494051Y-12063850D01*
X6471109Y-12136446D01*
X6461281Y-12179660D01*
X6464285Y-12204268D01*
X6479841Y-12221046D01*
X6489771Y-12228157D01*
X6523356Y-12250707D01*
X6583390Y-12290310D01*
X6660798Y-12341000D01*
X6731000Y-12386736D01*
X6876866Y-12492756D01*
X7033587Y-12625986D01*
X7191372Y-12776679D01*
X7340432Y-12935090D01*
X7470975Y-13091469D01*
X7553611Y-13205713D01*
X7737176Y-13519623D01*
X7884589Y-13852758D01*
X7993537Y-14199409D01*
X8037231Y-14399185D01*
X8056570Y-14542477D01*
X8068585Y-14714365D01*
X8073283Y-14901748D01*
X8070669Y-15091528D01*
X8060749Y-15270605D01*
X8043530Y-15425881D01*
X8036739Y-15466982D01*
X7952367Y-15814415D01*
X7828430Y-16152555D01*
X7667614Y-16474785D01*
X7552720Y-16660454D01*
X7468890Y-16774435D01*
X7361845Y-16903020D01*
X7240484Y-17036862D01*
X7113707Y-17166610D01*
X6990413Y-17282916D01*
X6879503Y-17376429D01*
X6850225Y-17398459D01*
X6541716Y-17596615D01*
X6213745Y-17757606D01*
X5869124Y-17880265D01*
X5510663Y-17963428D01*
X5471407Y-17969971D01*
X5393923Y-17983304D01*
X5346871Y-17997036D01*
X5318873Y-18018197D01*
X5298548Y-18053820D01*
X5285352Y-18084945D01*
X5210768Y-18230393D01*
X5105429Y-18386236D01*
X4976455Y-18543958D01*
X4830964Y-18695039D01*
X4676075Y-18830963D01*
X4635500Y-18862499D01*
X4568190Y-18907876D01*
X4475456Y-18963056D01*
X4370479Y-19020477D01*
X4283881Y-19064233D01*
X3985413Y-19185545D01*
X3675098Y-19268086D01*
X3357530Y-19311885D01*
X3037305Y-19316973D01*
X2719018Y-19283377D01*
X2407265Y-19211128D01*
X2106641Y-19100254D01*
X1999606Y-19049677D01*
X1923342Y-19012061D01*
X1861958Y-18983088D01*
X1824813Y-18967118D01*
X1818575Y-18965334D01*
X1801508Y-18983818D01*
X1774657Y-19033111D01*
X1741959Y-19103972D01*
X1707349Y-19187163D01*
X1674763Y-19273444D01*
X1648138Y-19353574D01*
X1638234Y-19388667D01*
X1617199Y-19500378D01*
X1606495Y-19635896D01*
X1606169Y-19799083D01*
X1616268Y-19993796D01*
X1636838Y-20223897D01*
X1649654Y-20341167D01*
X1713475Y-20821542D01*
X1791134Y-21264607D01*
X1883666Y-21673405D01*
X1992108Y-22050977D01*
X2117495Y-22400364D01*
X2260864Y-22724610D01*
X2423250Y-23026754D01*
X2605688Y-23309840D01*
X2708352Y-23449902D01*
X2769509Y-23530951D01*
X2822478Y-23603079D01*
X2861030Y-23657687D01*
X2877827Y-23683931D01*
X2897879Y-23759072D01*
X2892330Y-23847473D01*
X2867725Y-23919026D01*
X2858483Y-23938280D01*
X2850230Y-23955476D01*
X2840652Y-23970731D01*
X2827435Y-23984160D01*
X2808264Y-23995880D01*
X2780825Y-24006006D01*
X2742804Y-24014653D01*
X2691887Y-24021939D01*
X2625759Y-24027978D01*
X2542107Y-24032886D01*
X2438615Y-24036779D01*
X2312970Y-24039774D01*
X2162857Y-24041985D01*
X1985963Y-24043528D01*
X1779972Y-24044520D01*
X1542571Y-24045076D01*
X1271446Y-24045311D01*
X964282Y-24045343D01*
X618765Y-24045285D01*
X345010Y-24045254D01*
X-22147Y-24045225D01*
X-349348Y-24045138D01*
X-638971Y-24044951D01*
X-893394Y-24044626D01*
X-1114993Y-24044120D01*
X-1306148Y-24043396D01*
X-1469234Y-24042411D01*
X-1606631Y-24041126D01*
X-1720715Y-24039500D01*
X-1813864Y-24037494D01*
X-1888456Y-24035067D01*
X-1946868Y-24032179D01*
X-1991479Y-24028790D01*
X-2024665Y-24024858D01*
X-2048804Y-24020345D01*
X-2066273Y-24015210D01*
X-2079452Y-24009412D01*
X-2088857Y-24004054D01*
X-2154000Y-23952471D01*
X-2189203Y-23889483D01*
X-2201137Y-23802124D01*
X-2201333Y-23785362D01*
X-2198867Y-23742361D01*
X-2188554Y-23702265D01*
X-2166024Y-23656817D01*
X-2126906Y-23597756D01*
X-2066828Y-23516823D01*
X-2042095Y-23484477D01*
X-1812786Y-23155455D01*
X-1616300Y-22807388D01*
X-1449189Y-22433878D01*
X-1386741Y-22267334D01*
X-1333778Y-22121030D01*
X-1290111Y-22010144D01*
X-1252027Y-21929806D01*
X-1215813Y-21875149D01*
X-1177754Y-21841304D01*
X-1134138Y-21823404D01*
X-1081252Y-21816581D01*
X-1042300Y-21815778D01*
X-941619Y-21833428D01*
X-864945Y-21885878D01*
X-813299Y-21972378D01*
X-807900Y-21987853D01*
X-797554Y-22023940D01*
X-793265Y-22057851D01*
X-796517Y-22097578D01*
X-808794Y-22151112D01*
X-831580Y-22226444D01*
X-866359Y-22331565D01*
X-878294Y-22366967D01*
X-932157Y-22515089D01*
X-998494Y-22679729D01*
X-1072712Y-22850838D01*
X-1150212Y-23018366D01*
X-1226400Y-23172263D01*
X-1296680Y-23302478D01*
X-1336324Y-23368570D01*
X-1377088Y-23432885D01*
X-1409864Y-23484975D01*
X-1425911Y-23510875D01*
X-1421227Y-23515715D01*
X-1399488Y-23519965D01*
X-1358455Y-23523657D01*
X-1295890Y-23526826D01*
X-1209552Y-23529504D01*
X-1097204Y-23531725D01*
X-956606Y-23533522D01*
X-785519Y-23534930D01*
X-581704Y-23535980D01*
X-342922Y-23536707D01*
X-66934Y-23537144D01*
X248499Y-23537324D01*
X347574Y-23537334D01*
X2136980Y-23537334D01*
X2044784Y-23394459D01*
X1891052Y-23131418D01*
X1745646Y-22833620D01*
X1611336Y-22508273D01*
X1490894Y-22162585D01*
X1387092Y-21803767D01*
X1313825Y-21492943D01*
X1277284Y-21307500D01*
X1241905Y-21105289D01*
X1208414Y-20892500D01*
X1177539Y-20675321D01*
X1150006Y-20459942D01*
X1126542Y-20252550D01*
X1107874Y-20059336D01*
X1094730Y-19886487D01*
X1087836Y-19740193D01*
X1087920Y-19626643D01*
X1090252Y-19589750D01*
X1123084Y-19367188D01*
X1178510Y-19147087D01*
X1251977Y-18946877D01*
X1266426Y-18915020D01*
X1294089Y-18862380D01*
X1341983Y-18778455D01*
X1407474Y-18667586D01*
X1487924Y-18534114D01*
X1580698Y-18382379D01*
X1683160Y-18216724D01*
X1792673Y-18041487D01*
X1904283Y-17864667D01*
X2014837Y-17690015D01*
X2118460Y-17525582D01*
X2212928Y-17374947D01*
X2296018Y-17241691D01*
X2365505Y-17129393D01*
X2419167Y-17041634D01*
X2454779Y-16981994D01*
X2470119Y-16954053D01*
X2470487Y-16953022D01*
X2463214Y-16913885D01*
X2444847Y-16891080D01*
X2432149Y-16885590D01*
X2413958Y-16889379D01*
X2386969Y-16905311D01*
X2347874Y-16936254D01*
X2293369Y-16985073D01*
X2220147Y-17054635D01*
X2124902Y-17147805D01*
X2004328Y-17267450D01*
X1961833Y-17309821D01*
X1810979Y-17458665D01*
X1682677Y-17581709D01*
X1578301Y-17677704D01*
X1499227Y-17745396D01*
X1446830Y-17783534D01*
X1434722Y-17789804D01*
X1312946Y-17819026D01*
X1192300Y-17810104D01*
X1080363Y-17766733D01*
X984717Y-17692607D01*
X912942Y-17591422D01*
X885311Y-17522034D01*
X879506Y-17497080D01*
X876154Y-17465674D01*
X875638Y-17423860D01*
X878339Y-17367684D01*
X884638Y-17293187D01*
X894917Y-17196414D01*
X909557Y-17073409D01*
X928941Y-16920216D01*
X953449Y-16732878D01*
X982358Y-16515699D01*
X1012499Y-16286616D01*
X1037951Y-16085282D01*
X1058456Y-15914033D01*
X1073758Y-15775207D01*
X1083600Y-15671139D01*
X1087725Y-15604166D01*
X1085876Y-15576623D01*
X1085652Y-15576352D01*
X1055673Y-15564403D01*
X996563Y-15552432D01*
X925444Y-15543498D01*
X850006Y-15537463D01*
X805700Y-15538722D01*
X781594Y-15549802D01*
X766755Y-15573232D01*
X763355Y-15580982D01*
X755815Y-15610700D01*
X741797Y-15678249D01*
X722022Y-15779742D01*
X697207Y-15911292D01*
X668073Y-16069014D01*
X635340Y-16249020D01*
X599725Y-16447423D01*
X561949Y-16660338D01*
X531375Y-16834389D01*
X484577Y-17101695D01*
X444174Y-17330525D01*
X409245Y-17524101D01*
X378867Y-17685643D01*
X352121Y-17818373D01*
X328084Y-17925511D01*
X305836Y-18010278D01*
X284455Y-18075895D01*
X263019Y-18125583D01*
X240608Y-18162563D01*
X216301Y-18190056D01*
X189175Y-18211283D01*
X158309Y-18229464D01*
X127820Y-18245249D01*
X41446Y-18274390D01*
X-60653Y-18287214D01*
X-161128Y-18283133D01*
X-242631Y-18261557D01*
X-249759Y-18258056D01*
X-270702Y-18246179D01*
X-292531Y-18231044D01*
X-317595Y-18209944D01*
X-348243Y-18180172D01*
X-386825Y-18139021D01*
X-435688Y-18083784D01*
X-497183Y-18011755D01*
X-573658Y-17920226D01*
X-667463Y-17806490D01*
X-780947Y-17667841D01*
X-916458Y-17501572D01*
X-1068740Y-17314334D01*
X-1196255Y-17157806D01*
X-1316131Y-17011315D01*
X-1425636Y-16878154D01*
X-1522036Y-16761617D01*
X-1602595Y-16664998D01*
X-1664582Y-16591591D01*
X-1705260Y-16544689D01*
X-1721654Y-16527697D01*
X-1752300Y-16528516D01*
X-1809241Y-16543984D01*
X-1880436Y-16570791D01*
X-1883989Y-16572299D01*
X-1957932Y-16606154D01*
X-1999884Y-16632960D01*
X-2017962Y-16659207D01*
X-2020752Y-16681602D01*
X-2009968Y-16708368D01*
X-1979087Y-16768123D01*
X-1929957Y-16857652D01*
X-1864426Y-16973743D01*
X-1784340Y-17113181D01*
X-1691548Y-17272753D01*
X-1587895Y-17449246D01*
X-1475230Y-17639445D01*
X-1355401Y-17840137D01*
X-1340690Y-17864667D01*
X-1219173Y-18067495D01*
X-1102850Y-18262202D01*
X-993778Y-18445305D01*
X-894019Y-18613321D01*
X-805631Y-18762769D01*
X-730673Y-18890166D01*
X-671205Y-18992029D01*
X-629285Y-19064877D01*
X-606972Y-19105227D01*
X-606073Y-19106992D01*
X-515491Y-19332092D01*
X-456106Y-19583201D01*
X-428281Y-19857316D01*
X-432382Y-20151440D01*
X-453725Y-20362334D01*
X-487270Y-20602866D01*
X-517918Y-20805381D01*
X-545514Y-20968998D01*
X-569900Y-21092836D01*
X-590922Y-21176014D01*
X-603934Y-21210323D01*
X-661724Y-21280715D01*
X-740530Y-21321360D01*
X-830227Y-21331189D01*
X-920690Y-21309134D01*
X-1001795Y-21254127D01*
X-1003440Y-21252496D01*
X-1028414Y-21225166D01*
X-1046981Y-21196114D01*
X-1059104Y-21160249D01*
X-1064746Y-21112484D01*
X-1063868Y-21047727D01*
X-1056434Y-20960890D01*
X-1042406Y-20846883D01*
X-1021746Y-20700618D01*
X-998211Y-20542250D01*
X-966370Y-20314227D01*
X-945475Y-20120730D01*
X-936005Y-19955268D01*
X-938440Y-19811347D01*
X-953259Y-19682476D01*
X-980943Y-19562161D01*
X-1021970Y-19443911D01*
X-1076821Y-19321233D01*
X-1090446Y-19293692D01*
X-1144502Y-19185556D01*
X-1184686Y-19110559D01*
X-1217681Y-19064833D01*
X-1250173Y-19044509D01*
X-1288844Y-19045718D01*
X-1340379Y-19064592D01*
X-1411462Y-19097263D01*
X-1421711Y-19101967D01*
X-1642982Y-19186762D01*
X-1889493Y-19252975D01*
X-2147328Y-19298122D01*
X-2402575Y-19319715D01*
X-2623343Y-19316630D01*
X-2947208Y-19275649D01*
X-3253143Y-19200386D01*
X-3538696Y-19092342D01*
X-3801414Y-18953019D01*
X-4038846Y-18783919D01*
X-4248537Y-18586545D01*
X-4428036Y-18362399D01*
X-4568905Y-18124955D01*
X-4606525Y-18054414D01*
X-4636649Y-18013196D01*
X-4668809Y-17991863D01*
X-4712534Y-17980980D01*
X-4714677Y-17980626D01*
X-5069081Y-17907588D01*
X-5393212Y-17808513D01*
X-5691859Y-17681092D01*
X-5969807Y-17523012D01*
X-6231846Y-17331961D01*
X-6439246Y-17148076D01*
X-6687805Y-16881856D01*
X-6899095Y-16595833D01*
X-7073611Y-16289119D01*
X-7211849Y-15960824D01*
X-7314302Y-15610061D01*
X-7327598Y-15550905D01*
X-7353483Y-15391000D01*
X-7370144Y-15202276D01*
X-7377581Y-14997228D01*
X-7375794Y-14788352D01*
X-7364784Y-14588146D01*
X-7344549Y-14409105D01*
X-7327598Y-14315262D01*
X-7242145Y-13999695D01*
X-7125187Y-13692192D01*
X-6981000Y-13402320D01*
X-6813856Y-13139646D01*
X-6784747Y-13100086D01*
X-6641410Y-12926879D01*
X-6472145Y-12751016D01*
X-6289321Y-12584133D01*
X-6105309Y-12437866D01*
X-6011333Y-12372552D01*
X-5925516Y-12316088D01*
X-5852560Y-12267726D01*
X-5799789Y-12232346D01*
X-5774528Y-12214829D01*
X-5773894Y-12214328D01*
X-5772741Y-12189740D01*
X-5783214Y-12135604D01*
X-5803148Y-12062394D01*
X-5809607Y-12041547D01*
X-5862120Y-11862007D01*
X-5898749Y-11698772D01*
X-5921782Y-11536599D01*
X-5933504Y-11360250D01*
X-5936277Y-11197167D01*
X-5933230Y-11001992D01*
X-5922244Y-10835240D01*
X-5901408Y-10683429D01*
X-5868808Y-10533080D01*
X-5822533Y-10370713D01*
X-5816198Y-10350500D01*
X-5711713Y-10067492D01*
X-5583680Y-9810964D01*
X-5426722Y-9572128D01*
X-5235459Y-9342200D01*
X-5134677Y-9237205D01*
X-4879870Y-9006760D01*
X-4614535Y-8816350D01*
X-4335192Y-8664348D01*
X-4038364Y-8549127D01*
X-3720576Y-8469059D01*
X-3397250Y-8424179D01*
X-3215309Y-8416515D01*
X-3014340Y-8422994D01*
X-2806522Y-8442148D01*
X-2604037Y-8472511D01*
X-2419065Y-8512614D01*
X-2264833Y-8560593D01*
X-2244688Y-8555057D01*
X-2216710Y-8522777D01*
X-2178175Y-8459784D01*
X-2126363Y-8362114D01*
X-2119875Y-8349356D01*
X-1946597Y-8053185D01*
X-1741733Y-7784536D01*
X-1507209Y-7545068D01*
X-1244952Y-7336439D01*
X-956891Y-7160309D01*
X-644953Y-7018335D01*
X-521973Y-6974159D01*
X-270631Y-6902081D01*
X-24678Y-6857760D01*
X233661Y-6838354D01*
X336148Y-6836919D01*
X685748Y-6856629D01*
G36*
X-3773200Y4051510D02*
G01*
X-3424732Y4013282D01*
X-3103126Y3948180D01*
X-2804587Y3855065D01*
X-2525321Y3732800D01*
X-2261534Y3580249D01*
X-2061349Y3437385D01*
X-1815981Y3221196D01*
X-1604159Y2979594D01*
X-1426324Y2713553D01*
X-1282917Y2424046D01*
X-1174379Y2112046D01*
X-1101151Y1778525D01*
X-1063675Y1424458D01*
X-1058458Y1224950D01*
X-1073081Y891330D01*
X-1118177Y580912D01*
X-1196045Y285304D01*
X-1308984Y-3888D01*
X-1459293Y-295059D01*
X-1488460Y-344910D01*
X-1584401Y-497673D01*
X-1687129Y-643010D01*
X-1799921Y-783974D01*
X-1926052Y-923619D01*
X-2068797Y-1065001D01*
X-2231433Y-1211173D01*
X-2417235Y-1365189D01*
X-2629479Y-1530105D01*
X-2871439Y-1708974D01*
X-3146393Y-1904851D01*
X-3206750Y-1947117D01*
X-3517000Y-2167985D01*
X-3791162Y-2372262D01*
X-4031248Y-2561801D01*
X-4239274Y-2738460D01*
X-4417251Y-2904092D01*
X-4567194Y-3060555D01*
X-4691118Y-3209702D01*
X-4791034Y-3353390D01*
X-4855234Y-3466042D01*
X-4890587Y-3534834D01*
X-1100666Y-3534834D01*
X-1100666Y-5143500D01*
X-7234985Y-5143500D01*
X-7224884Y-5011209D01*
X-7181930Y-4597233D01*
X-7118833Y-4219144D01*
X-7035188Y-3875378D01*
X-6930589Y-3564370D01*
X-6804630Y-3284556D01*
X-6751100Y-3186116D01*
X-6628498Y-2995801D01*
X-6472697Y-2793197D01*
X-6288855Y-2583928D01*
X-6082129Y-2373621D01*
X-5857677Y-2167899D01*
X-5685006Y-2023375D01*
X-5615025Y-1968606D01*
X-5517336Y-1894314D01*
X-5398712Y-1805535D01*
X-5265925Y-1707306D01*
X-5125747Y-1604664D01*
X-4984951Y-1502647D01*
X-4982664Y-1500999D01*
X-4718578Y-1309693D01*
X-4486126Y-1138806D01*
X-4281617Y-985425D01*
X-4101363Y-846636D01*
X-3941673Y-719526D01*
X-3798857Y-601181D01*
X-3669228Y-488687D01*
X-3549094Y-379130D01*
X-3484648Y-318030D01*
X-3293356Y-116041D01*
X-3141134Y87199D01*
X-3025049Y298236D01*
X-2942171Y523611D01*
X-2889567Y769871D01*
X-2864305Y1043558D01*
X-2863303Y1068916D01*
X-2866106Y1341093D01*
X-2895744Y1583215D01*
X-2953157Y1798718D01*
X-3039285Y1991038D01*
X-3155070Y2163610D01*
X-3166935Y2178239D01*
X-3321549Y2336430D01*
X-3494838Y2457328D01*
X-3688164Y2541551D01*
X-3902894Y2589714D01*
X-4106333Y2602765D01*
X-4344334Y2584317D01*
X-4560948Y2529633D01*
X-4754946Y2439705D01*
X-4925097Y2315522D01*
X-5070171Y2158077D01*
X-5188939Y1968360D01*
X-5280170Y1747361D01*
X-5313977Y1629833D01*
X-5334230Y1535671D01*
X-5349350Y1431090D01*
X-5360314Y1306662D01*
X-5368098Y1152957D01*
X-5370429Y1084791D01*
X-5381665Y719666D01*
X-7112000Y719666D01*
X-7111826Y1042458D01*
X-7096451Y1441415D01*
X-7050568Y1811485D01*
X-6973872Y2153443D01*
X-6866056Y2468065D01*
X-6726816Y2756127D01*
X-6555847Y3018404D01*
X-6352842Y3255672D01*
X-6175277Y3421161D01*
X-5928510Y3606198D01*
X-5662461Y3758881D01*
X-5374969Y3879895D01*
X-5063873Y3969929D01*
X-4727012Y4029667D01*
X-4362224Y4059798D01*
X-4152326Y4064000D01*
X-3773200Y4051510D01*
G37*
X-3773200Y4051510D02*
X-3424732Y4013282D01*
X-3103126Y3948180D01*
X-2804587Y3855065D01*
X-2525321Y3732800D01*
X-2261534Y3580249D01*
X-2061349Y3437385D01*
X-1815981Y3221196D01*
X-1604159Y2979594D01*
X-1426324Y2713553D01*
X-1282917Y2424046D01*
X-1174379Y2112046D01*
X-1101151Y1778525D01*
X-1063675Y1424458D01*
X-1058458Y1224950D01*
X-1073081Y891330D01*
X-1118177Y580912D01*
X-1196045Y285304D01*
X-1308984Y-3888D01*
X-1459293Y-295059D01*
X-1488460Y-344910D01*
X-1584401Y-497673D01*
X-1687129Y-643010D01*
X-1799921Y-783974D01*
X-1926052Y-923619D01*
X-2068797Y-1065001D01*
X-2231433Y-1211173D01*
X-2417235Y-1365189D01*
X-2629479Y-1530105D01*
X-2871439Y-1708974D01*
X-3146393Y-1904851D01*
X-3206750Y-1947117D01*
X-3517000Y-2167985D01*
X-3791162Y-2372262D01*
X-4031248Y-2561801D01*
X-4239274Y-2738460D01*
X-4417251Y-2904092D01*
X-4567194Y-3060555D01*
X-4691118Y-3209702D01*
X-4791034Y-3353390D01*
X-4855234Y-3466042D01*
X-4890587Y-3534834D01*
X-1100666Y-3534834D01*
X-1100666Y-5143500D01*
X-7234985Y-5143500D01*
X-7224884Y-5011209D01*
X-7181930Y-4597233D01*
X-7118833Y-4219144D01*
X-7035188Y-3875378D01*
X-6930589Y-3564370D01*
X-6804630Y-3284556D01*
X-6751100Y-3186116D01*
X-6628498Y-2995801D01*
X-6472697Y-2793197D01*
X-6288855Y-2583928D01*
X-6082129Y-2373621D01*
X-5857677Y-2167899D01*
X-5685006Y-2023375D01*
X-5615025Y-1968606D01*
X-5517336Y-1894314D01*
X-5398712Y-1805535D01*
X-5265925Y-1707306D01*
X-5125747Y-1604664D01*
X-4984951Y-1502647D01*
X-4982664Y-1500999D01*
X-4718578Y-1309693D01*
X-4486126Y-1138806D01*
X-4281617Y-985425D01*
X-4101363Y-846636D01*
X-3941673Y-719526D01*
X-3798857Y-601181D01*
X-3669228Y-488687D01*
X-3549094Y-379130D01*
X-3484648Y-318030D01*
X-3293356Y-116041D01*
X-3141134Y87199D01*
X-3025049Y298236D01*
X-2942171Y523611D01*
X-2889567Y769871D01*
X-2864305Y1043558D01*
X-2863303Y1068916D01*
X-2866106Y1341093D01*
X-2895744Y1583215D01*
X-2953157Y1798718D01*
X-3039285Y1991038D01*
X-3155070Y2163610D01*
X-3166935Y2178239D01*
X-3321549Y2336430D01*
X-3494838Y2457328D01*
X-3688164Y2541551D01*
X-3902894Y2589714D01*
X-4106333Y2602765D01*
X-4344334Y2584317D01*
X-4560948Y2529633D01*
X-4754946Y2439705D01*
X-4925097Y2315522D01*
X-5070171Y2158077D01*
X-5188939Y1968360D01*
X-5280170Y1747361D01*
X-5313977Y1629833D01*
X-5334230Y1535671D01*
X-5349350Y1431090D01*
X-5360314Y1306662D01*
X-5368098Y1152957D01*
X-5370429Y1084791D01*
X-5381665Y719666D01*
X-7112000Y719666D01*
X-7111826Y1042458D01*
X-7096451Y1441415D01*
X-7050568Y1811485D01*
X-6973872Y2153443D01*
X-6866056Y2468065D01*
X-6726816Y2756127D01*
X-6555847Y3018404D01*
X-6352842Y3255672D01*
X-6175277Y3421161D01*
X-5928510Y3606198D01*
X-5662461Y3758881D01*
X-5374969Y3879895D01*
X-5063873Y3969929D01*
X-4727012Y4029667D01*
X-4362224Y4059798D01*
X-4152326Y4064000D01*
X-3773200Y4051510D01*
G36*
X2010834Y-5143500D02*
G01*
X84667Y-5143500D01*
X84667Y-3259667D01*
X2010834Y-3259667D01*
X2010834Y-5143500D01*
G37*
X2010834Y-5143500D02*
X84667Y-5143500D01*
X84667Y-3259667D01*
X2010834Y-3259667D01*
X2010834Y-5143500D01*
G36*
X7450667Y-5143500D02*
G01*
X5651500Y-5143500D01*
X5651500Y1058333D01*
X3492500Y1058333D01*
X3492500Y2257395D01*
X3857625Y2282700D01*
X4238851Y2321905D01*
X4585399Y2384537D01*
X4898150Y2471054D01*
X5177985Y2581912D01*
X5425786Y2717569D01*
X5642432Y2878480D01*
X5828807Y3065103D01*
X5985789Y3277895D01*
X6072940Y3431353D01*
X6121193Y3530464D01*
X6166048Y3630413D01*
X6201040Y3716434D01*
X6214286Y3754182D01*
X6251898Y3873500D01*
X7450667Y3873500D01*
X7450667Y-5143500D01*
G37*
X7450667Y-5143500D02*
X5651500Y-5143500D01*
X5651500Y1058333D01*
X3492500Y1058333D01*
X3492500Y2257395D01*
X3857625Y2282700D01*
X4238851Y2321905D01*
X4585399Y2384537D01*
X4898150Y2471054D01*
X5177985Y2581912D01*
X5425786Y2717569D01*
X5642432Y2878480D01*
X5828807Y3065103D01*
X5985789Y3277895D01*
X6072940Y3431353D01*
X6121193Y3530464D01*
X6166048Y3630413D01*
X6201040Y3716434D01*
X6214286Y3754182D01*
X6251898Y3873500D01*
X7450667Y3873500D01*
X7450667Y-5143500D01*
G36*
X2010834Y-381000D02*
G01*
X84667Y-381000D01*
X84667Y1481666D01*
X2010834Y1481666D01*
X2010834Y-381000D01*
G37*
X2010834Y-381000D02*
X84667Y-381000D01*
X84667Y1481666D01*
X2010834Y1481666D01*
X2010834Y-381000D01*
G36*
X-8969469Y3721601D02*
G01*
X-8878998Y3638995D01*
X-8792758Y3560788D01*
X-8718721Y3494170D01*
X-8664861Y3446337D01*
X-8651482Y3434702D01*
X-8571962Y3366321D01*
X-8895022Y2976245D01*
X-8985762Y2867148D01*
X-9067532Y2769719D01*
X-9136499Y2688456D01*
X-9188826Y2627858D01*
X-9220678Y2592421D01*
X-9228666Y2584993D01*
X-9246947Y2598097D01*
X-9291649Y2635306D01*
X-9357799Y2692326D01*
X-9440423Y2764865D01*
X-9534546Y2848629D01*
X-9546166Y2859041D01*
X-9643200Y2946210D01*
X-9730822Y3025216D01*
X-9803590Y3091126D01*
X-9856061Y3139011D01*
X-9882790Y3163939D01*
X-9883536Y3164676D01*
X-9894474Y3182671D01*
X-9889655Y3206296D01*
X-9864980Y3242278D01*
X-9816349Y3297346D01*
X-9777627Y3338501D01*
X-9710721Y3408957D01*
X-9625038Y3499318D01*
X-9530874Y3598717D01*
X-9438528Y3696291D01*
X-9424599Y3711017D01*
X-9207935Y3940118D01*
X-8969469Y3721601D01*
G37*
X-8969469Y3721601D02*
X-8878998Y3638995D01*
X-8792758Y3560788D01*
X-8718721Y3494170D01*
X-8664861Y3446337D01*
X-8651482Y3434702D01*
X-8571962Y3366321D01*
X-8895022Y2976245D01*
X-8985762Y2867148D01*
X-9067532Y2769719D01*
X-9136499Y2688456D01*
X-9188826Y2627858D01*
X-9220678Y2592421D01*
X-9228666Y2584993D01*
X-9246947Y2598097D01*
X-9291649Y2635306D01*
X-9357799Y2692326D01*
X-9440423Y2764865D01*
X-9534546Y2848629D01*
X-9546166Y2859041D01*
X-9643200Y2946210D01*
X-9730822Y3025216D01*
X-9803590Y3091126D01*
X-9856061Y3139011D01*
X-9882790Y3163939D01*
X-9883536Y3164676D01*
X-9894474Y3182671D01*
X-9889655Y3206296D01*
X-9864980Y3242278D01*
X-9816349Y3297346D01*
X-9777627Y3338501D01*
X-9710721Y3408957D01*
X-9625038Y3499318D01*
X-9530874Y3598717D01*
X-9438528Y3696291D01*
X-9424599Y3711017D01*
X-9207935Y3940118D01*
X-8969469Y3721601D01*
G36*
X9782870Y3751305D02*
G01*
X9876461Y3653903D01*
X9983127Y3542815D01*
X10086660Y3434925D01*
X10139603Y3379720D01*
X10318750Y3192857D01*
X10230343Y3115137D01*
X10183382Y3073674D01*
X10112796Y3011130D01*
X10026568Y2934589D01*
X9932681Y2851133D01*
X9886314Y2809875D01*
X9800036Y2733409D01*
X9725541Y2668019D01*
X9668217Y2618385D01*
X9633453Y2589185D01*
X9625470Y2583381D01*
X9611087Y2599245D01*
X9573471Y2643250D01*
X9516380Y2710926D01*
X9443578Y2797803D01*
X9358822Y2899413D01*
X9295030Y2976147D01*
X8969810Y3367865D01*
X9062197Y3446023D01*
X9112459Y3489634D01*
X9184949Y3553945D01*
X9270747Y3630980D01*
X9360937Y3712767D01*
X9379934Y3730104D01*
X9605284Y3936028D01*
X9782870Y3751305D01*
G37*
X9782870Y3751305D02*
X9876461Y3653903D01*
X9983127Y3542815D01*
X10086660Y3434925D01*
X10139603Y3379720D01*
X10318750Y3192857D01*
X10230343Y3115137D01*
X10183382Y3073674D01*
X10112796Y3011130D01*
X10026568Y2934589D01*
X9932681Y2851133D01*
X9886314Y2809875D01*
X9800036Y2733409D01*
X9725541Y2668019D01*
X9668217Y2618385D01*
X9633453Y2589185D01*
X9625470Y2583381D01*
X9611087Y2599245D01*
X9573471Y2643250D01*
X9516380Y2710926D01*
X9443578Y2797803D01*
X9358822Y2899413D01*
X9295030Y2976147D01*
X8969810Y3367865D01*
X9062197Y3446023D01*
X9112459Y3489634D01*
X9184949Y3553945D01*
X9270747Y3630980D01*
X9360937Y3712767D01*
X9379934Y3730104D01*
X9605284Y3936028D01*
X9782870Y3751305D01*
G36*
X-12534496Y7538728D02*
G01*
X-12494919Y7498213D01*
X-12439863Y7436328D01*
X-12374736Y7358982D01*
X-12359451Y7340302D01*
X-11963765Y6862026D01*
X-11566781Y6398309D01*
X-11160049Y5939620D01*
X-10735118Y5476430D01*
X-10283537Y4999210D01*
X-10281310Y4996890D01*
X-9905204Y4605001D01*
X-10259910Y4249834D01*
X-10360127Y4150064D01*
X-10450570Y4061125D01*
X-10526933Y3987163D01*
X-10584908Y3932323D01*
X-10620190Y3900749D01*
X-10628895Y3894666D01*
X-10646689Y3909344D01*
X-10689832Y3950789D01*
X-10754470Y4015124D01*
X-10836748Y4098469D01*
X-10932813Y4196946D01*
X-11038811Y4306674D01*
X-11054779Y4323291D01*
X-11381075Y4666270D01*
X-11683869Y4991571D01*
X-11971916Y5308937D01*
X-12253967Y5628110D01*
X-12538777Y5958832D01*
X-12761710Y6223000D01*
X-12905722Y6395287D01*
X-13024391Y6538047D01*
X-13119821Y6653981D01*
X-13194119Y6745788D01*
X-13249390Y6816170D01*
X-13287739Y6867827D01*
X-13311272Y6903460D01*
X-13322096Y6925770D01*
X-13322314Y6937458D01*
X-13320330Y6939502D01*
X-13298427Y6956360D01*
X-13248718Y6995907D01*
X-13176225Y7054104D01*
X-13085972Y7126915D01*
X-12982982Y7210302D01*
X-12934579Y7249583D01*
X-12827941Y7335869D01*
X-12732103Y7412812D01*
X-12652001Y7476498D01*
X-12592573Y7523012D01*
X-12558756Y7548441D01*
X-12553190Y7551969D01*
X-12534496Y7538728D01*
G37*
X-12534496Y7538728D02*
X-12494919Y7498213D01*
X-12439863Y7436328D01*
X-12374736Y7358982D01*
X-12359451Y7340302D01*
X-11963765Y6862026D01*
X-11566781Y6398309D01*
X-11160049Y5939620D01*
X-10735118Y5476430D01*
X-10283537Y4999210D01*
X-10281310Y4996890D01*
X-9905204Y4605001D01*
X-10259910Y4249834D01*
X-10360127Y4150064D01*
X-10450570Y4061125D01*
X-10526933Y3987163D01*
X-10584908Y3932323D01*
X-10620190Y3900749D01*
X-10628895Y3894666D01*
X-10646689Y3909344D01*
X-10689832Y3950789D01*
X-10754470Y4015124D01*
X-10836748Y4098469D01*
X-10932813Y4196946D01*
X-11038811Y4306674D01*
X-11054779Y4323291D01*
X-11381075Y4666270D01*
X-11683869Y4991571D01*
X-11971916Y5308937D01*
X-12253967Y5628110D01*
X-12538777Y5958832D01*
X-12761710Y6223000D01*
X-12905722Y6395287D01*
X-13024391Y6538047D01*
X-13119821Y6653981D01*
X-13194119Y6745788D01*
X-13249390Y6816170D01*
X-13287739Y6867827D01*
X-13311272Y6903460D01*
X-13322096Y6925770D01*
X-13322314Y6937458D01*
X-13320330Y6939502D01*
X-13298427Y6956360D01*
X-13248718Y6995907D01*
X-13176225Y7054104D01*
X-13085972Y7126915D01*
X-12982982Y7210302D01*
X-12934579Y7249583D01*
X-12827941Y7335869D01*
X-12732103Y7412812D01*
X-12652001Y7476498D01*
X-12592573Y7523012D01*
X-12558756Y7548441D01*
X-12553190Y7551969D01*
X-12534496Y7538728D01*
G36*
X12965370Y7543774D02*
G01*
X13011254Y7508633D01*
X13078545Y7455630D01*
X13161631Y7389322D01*
X13254900Y7314263D01*
X13352741Y7235007D01*
X13449543Y7156109D01*
X13539693Y7082124D01*
X13617579Y7017607D01*
X13677591Y6967111D01*
X13714117Y6935193D01*
X13722594Y6926586D01*
X13712533Y6905051D01*
X13677156Y6854907D01*
X13619124Y6779318D01*
X13541102Y6681445D01*
X13445750Y6564449D01*
X13335732Y6431494D01*
X13213709Y6285740D01*
X13082344Y6130350D01*
X12944300Y5968485D01*
X12802238Y5803308D01*
X12658821Y5637980D01*
X12516712Y5475663D01*
X12378573Y5319519D01*
X12247066Y5172710D01*
X12228469Y5152123D01*
X12131153Y5045303D01*
X12021975Y4926802D01*
X11904409Y4800271D01*
X11781927Y4669357D01*
X11658004Y4537711D01*
X11536112Y4408980D01*
X11419723Y4286814D01*
X11312313Y4174863D01*
X11217352Y4076774D01*
X11138315Y3996197D01*
X11078676Y3936781D01*
X11041906Y3902175D01*
X11031608Y3894666D01*
X11013124Y3909025D01*
X10969154Y3949350D01*
X10903986Y4011518D01*
X10821910Y4091404D01*
X10727216Y4184884D01*
X10658366Y4253550D01*
X10299948Y4612433D01*
X10669487Y4989091D01*
X11132458Y5472817D01*
X11605321Y5990407D01*
X12089777Y6543765D01*
X12587526Y7134793D01*
X12590588Y7138496D01*
X12684469Y7251558D01*
X12769452Y7353020D01*
X12841850Y7438551D01*
X12897975Y7503818D01*
X12934139Y7544491D01*
X12946505Y7556500D01*
X12965370Y7543774D01*
G37*
X12965370Y7543774D02*
X13011254Y7508633D01*
X13078545Y7455630D01*
X13161631Y7389322D01*
X13254900Y7314263D01*
X13352741Y7235007D01*
X13449543Y7156109D01*
X13539693Y7082124D01*
X13617579Y7017607D01*
X13677591Y6967111D01*
X13714117Y6935193D01*
X13722594Y6926586D01*
X13712533Y6905051D01*
X13677156Y6854907D01*
X13619124Y6779318D01*
X13541102Y6681445D01*
X13445750Y6564449D01*
X13335732Y6431494D01*
X13213709Y6285740D01*
X13082344Y6130350D01*
X12944300Y5968485D01*
X12802238Y5803308D01*
X12658821Y5637980D01*
X12516712Y5475663D01*
X12378573Y5319519D01*
X12247066Y5172710D01*
X12228469Y5152123D01*
X12131153Y5045303D01*
X12021975Y4926802D01*
X11904409Y4800271D01*
X11781927Y4669357D01*
X11658004Y4537711D01*
X11536112Y4408980D01*
X11419723Y4286814D01*
X11312313Y4174863D01*
X11217352Y4076774D01*
X11138315Y3996197D01*
X11078676Y3936781D01*
X11041906Y3902175D01*
X11031608Y3894666D01*
X11013124Y3909025D01*
X10969154Y3949350D01*
X10903986Y4011518D01*
X10821910Y4091404D01*
X10727216Y4184884D01*
X10658366Y4253550D01*
X10299948Y4612433D01*
X10669487Y4989091D01*
X11132458Y5472817D01*
X11605321Y5990407D01*
X12089777Y6543765D01*
X12587526Y7134793D01*
X12590588Y7138496D01*
X12684469Y7251558D01*
X12769452Y7353020D01*
X12841850Y7438551D01*
X12897975Y7503818D01*
X12934139Y7544491D01*
X12946505Y7556500D01*
X12965370Y7543774D01*
G36*
X-15344300Y11576115D02*
G01*
X-15314158Y11527500D01*
X-15271674Y11458017D01*
X-15230384Y11389928D01*
X-15007435Y11028739D01*
X-14761220Y10643890D01*
X-14496928Y10243060D01*
X-14219752Y9833929D01*
X-13934882Y9424178D01*
X-13647508Y9021487D01*
X-13413543Y8701812D01*
X-13140838Y8333707D01*
X-13190294Y8286940D01*
X-13221817Y8260248D01*
X-13281263Y8212732D01*
X-13362720Y8149011D01*
X-13460274Y8073702D01*
X-13568013Y7991421D01*
X-13594089Y7971634D01*
X-13948428Y7703093D01*
X-14221572Y8071011D01*
X-14513976Y8471456D01*
X-14817516Y8899681D01*
X-15124937Y9345339D01*
X-15367097Y9704916D01*
X-15459036Y9843882D01*
X-15556029Y9992191D01*
X-15655472Y10145710D01*
X-15754763Y10300302D01*
X-15851299Y10451834D01*
X-15942480Y10596170D01*
X-16025701Y10729175D01*
X-16098361Y10846713D01*
X-16157858Y10944651D01*
X-16201589Y11018853D01*
X-16226952Y11065184D01*
X-16232180Y11079518D01*
X-16208929Y11095439D01*
X-16156366Y11128264D01*
X-16080580Y11174398D01*
X-15987660Y11230244D01*
X-15883692Y11292207D01*
X-15774765Y11356693D01*
X-15666967Y11420106D01*
X-15566385Y11478850D01*
X-15479108Y11529330D01*
X-15411224Y11567951D01*
X-15368820Y11591118D01*
X-15357360Y11596158D01*
X-15344300Y11576115D01*
G37*
X-15344300Y11576115D02*
X-15314158Y11527500D01*
X-15271674Y11458017D01*
X-15230384Y11389928D01*
X-15007435Y11028739D01*
X-14761220Y10643890D01*
X-14496928Y10243060D01*
X-14219752Y9833929D01*
X-13934882Y9424178D01*
X-13647508Y9021487D01*
X-13413543Y8701812D01*
X-13140838Y8333707D01*
X-13190294Y8286940D01*
X-13221817Y8260248D01*
X-13281263Y8212732D01*
X-13362720Y8149011D01*
X-13460274Y8073702D01*
X-13568013Y7991421D01*
X-13594089Y7971634D01*
X-13948428Y7703093D01*
X-14221572Y8071011D01*
X-14513976Y8471456D01*
X-14817516Y8899681D01*
X-15124937Y9345339D01*
X-15367097Y9704916D01*
X-15459036Y9843882D01*
X-15556029Y9992191D01*
X-15655472Y10145710D01*
X-15754763Y10300302D01*
X-15851299Y10451834D01*
X-15942480Y10596170D01*
X-16025701Y10729175D01*
X-16098361Y10846713D01*
X-16157858Y10944651D01*
X-16201589Y11018853D01*
X-16226952Y11065184D01*
X-16232180Y11079518D01*
X-16208929Y11095439D01*
X-16156366Y11128264D01*
X-16080580Y11174398D01*
X-15987660Y11230244D01*
X-15883692Y11292207D01*
X-15774765Y11356693D01*
X-15666967Y11420106D01*
X-15566385Y11478850D01*
X-15479108Y11529330D01*
X-15411224Y11567951D01*
X-15368820Y11591118D01*
X-15357360Y11596158D01*
X-15344300Y11576115D01*
G36*
X15777003Y11586692D02*
G01*
X15825731Y11559667D01*
X15898582Y11518089D01*
X15989453Y11465547D01*
X16092238Y11405629D01*
X16200835Y11341924D01*
X16309140Y11278022D01*
X16411048Y11217510D01*
X16500457Y11163978D01*
X16571263Y11121014D01*
X16617360Y11092207D01*
X16632284Y11081831D01*
X16624616Y11061304D01*
X16596124Y11009328D01*
X16549277Y10929804D01*
X16486545Y10826629D01*
X16410399Y10703703D01*
X16323310Y10564924D01*
X16227748Y10414192D01*
X16126184Y10255405D01*
X16021087Y10092463D01*
X15914929Y9929263D01*
X15810180Y9769706D01*
X15709310Y9617690D01*
X15625715Y9493250D01*
X15534541Y9359457D01*
X15433015Y9212225D01*
X15323720Y9055152D01*
X15209238Y8891840D01*
X15092152Y8725891D01*
X14975043Y8560904D01*
X14860493Y8400481D01*
X14751086Y8248222D01*
X14649402Y8107728D01*
X14558025Y7982600D01*
X14479536Y7876438D01*
X14416518Y7792845D01*
X14371552Y7735419D01*
X14347221Y7707763D01*
X14343925Y7705807D01*
X14326829Y7718356D01*
X14280739Y7752963D01*
X14210366Y7806068D01*
X14120420Y7874115D01*
X14015612Y7953545D01*
X13944595Y8007432D01*
X13832787Y8093019D01*
X13733130Y8170663D01*
X13650330Y8236585D01*
X13589096Y8287004D01*
X13554135Y8318141D01*
X13547720Y8326078D01*
X13559432Y8348335D01*
X13592497Y8398272D01*
X13642696Y8469834D01*
X13705806Y8556966D01*
X13754237Y8622412D01*
X14082452Y9070162D01*
X14414283Y9537932D01*
X14742579Y10015213D01*
X15060192Y10491494D01*
X15359974Y10956268D01*
X15563133Y11281733D01*
X15625553Y11383071D01*
X15680052Y11471120D01*
X15722875Y11539849D01*
X15750265Y11583224D01*
X15758501Y11595576D01*
X15777003Y11586692D01*
G37*
X15777003Y11586692D02*
X15825731Y11559667D01*
X15898582Y11518089D01*
X15989453Y11465547D01*
X16092238Y11405629D01*
X16200835Y11341924D01*
X16309140Y11278022D01*
X16411048Y11217510D01*
X16500457Y11163978D01*
X16571263Y11121014D01*
X16617360Y11092207D01*
X16632284Y11081831D01*
X16624616Y11061304D01*
X16596124Y11009328D01*
X16549277Y10929804D01*
X16486545Y10826629D01*
X16410399Y10703703D01*
X16323310Y10564924D01*
X16227748Y10414192D01*
X16126184Y10255405D01*
X16021087Y10092463D01*
X15914929Y9929263D01*
X15810180Y9769706D01*
X15709310Y9617690D01*
X15625715Y9493250D01*
X15534541Y9359457D01*
X15433015Y9212225D01*
X15323720Y9055152D01*
X15209238Y8891840D01*
X15092152Y8725891D01*
X14975043Y8560904D01*
X14860493Y8400481D01*
X14751086Y8248222D01*
X14649402Y8107728D01*
X14558025Y7982600D01*
X14479536Y7876438D01*
X14416518Y7792845D01*
X14371552Y7735419D01*
X14347221Y7707763D01*
X14343925Y7705807D01*
X14326829Y7718356D01*
X14280739Y7752963D01*
X14210366Y7806068D01*
X14120420Y7874115D01*
X14015612Y7953545D01*
X13944595Y8007432D01*
X13832787Y8093019D01*
X13733130Y8170663D01*
X13650330Y8236585D01*
X13589096Y8287004D01*
X13554135Y8318141D01*
X13547720Y8326078D01*
X13559432Y8348335D01*
X13592497Y8398272D01*
X13642696Y8469834D01*
X13705806Y8556966D01*
X13754237Y8622412D01*
X14082452Y9070162D01*
X14414283Y9537932D01*
X14742579Y10015213D01*
X15060192Y10491494D01*
X15359974Y10956268D01*
X15563133Y11281733D01*
X15625553Y11383071D01*
X15680052Y11471120D01*
X15722875Y11539849D01*
X15750265Y11583224D01*
X15758501Y11595576D01*
X15777003Y11586692D01*
G36*
X-17596208Y15962677D02*
G01*
X-17570648Y15914290D01*
X-17538824Y15844796D01*
X-17526910Y15816791D01*
X-17421562Y15571081D01*
X-17298561Y15295731D01*
X-17161346Y14997803D01*
X-17013357Y14684361D01*
X-16858033Y14362470D01*
X-16698814Y14039193D01*
X-16539138Y13721594D01*
X-16382447Y13416735D01*
X-16232178Y13131681D01*
X-16108292Y12903381D01*
X-16038676Y12776379D01*
X-15976841Y12662106D01*
X-15925452Y12565609D01*
X-15887175Y12491935D01*
X-15864676Y12446133D01*
X-15859840Y12432938D01*
X-15879924Y12420447D01*
X-15930397Y12390949D01*
X-16005016Y12347981D01*
X-16097538Y12295079D01*
X-16201718Y12235780D01*
X-16311314Y12173621D01*
X-16420082Y12112138D01*
X-16521777Y12054868D01*
X-16610158Y12005347D01*
X-16678979Y11967113D01*
X-16721999Y11943703D01*
X-16733580Y11938000D01*
X-16747556Y11954565D01*
X-16774920Y11996819D01*
X-16793561Y12027958D01*
X-16877562Y12175471D01*
X-16976488Y12355288D01*
X-17087262Y12561395D01*
X-17206807Y12787782D01*
X-17332045Y13028437D01*
X-17459899Y13277349D01*
X-17587291Y13528506D01*
X-17711144Y13775896D01*
X-17828380Y14013508D01*
X-17935922Y14235329D01*
X-18030692Y14435350D01*
X-18074896Y14530916D01*
X-18139191Y14672269D01*
X-18205345Y14819310D01*
X-18271141Y14966948D01*
X-18334360Y15110093D01*
X-18392784Y15243655D01*
X-18444194Y15362544D01*
X-18486373Y15461669D01*
X-18517100Y15535940D01*
X-18534158Y15580267D01*
X-18536787Y15590746D01*
X-18515453Y15601182D01*
X-18461734Y15624991D01*
X-18382304Y15659360D01*
X-18283836Y15701479D01*
X-18173005Y15748534D01*
X-18056484Y15797715D01*
X-17940948Y15846210D01*
X-17833071Y15891206D01*
X-17739527Y15929894D01*
X-17666990Y15959460D01*
X-17622134Y15977093D01*
X-17610837Y15980833D01*
X-17596208Y15962677D01*
G37*
X-17596208Y15962677D02*
X-17570648Y15914290D01*
X-17538824Y15844796D01*
X-17526910Y15816791D01*
X-17421562Y15571081D01*
X-17298561Y15295731D01*
X-17161346Y14997803D01*
X-17013357Y14684361D01*
X-16858033Y14362470D01*
X-16698814Y14039193D01*
X-16539138Y13721594D01*
X-16382447Y13416735D01*
X-16232178Y13131681D01*
X-16108292Y12903381D01*
X-16038676Y12776379D01*
X-15976841Y12662106D01*
X-15925452Y12565609D01*
X-15887175Y12491935D01*
X-15864676Y12446133D01*
X-15859840Y12432938D01*
X-15879924Y12420447D01*
X-15930397Y12390949D01*
X-16005016Y12347981D01*
X-16097538Y12295079D01*
X-16201718Y12235780D01*
X-16311314Y12173621D01*
X-16420082Y12112138D01*
X-16521777Y12054868D01*
X-16610158Y12005347D01*
X-16678979Y11967113D01*
X-16721999Y11943703D01*
X-16733580Y11938000D01*
X-16747556Y11954565D01*
X-16774920Y11996819D01*
X-16793561Y12027958D01*
X-16877562Y12175471D01*
X-16976488Y12355288D01*
X-17087262Y12561395D01*
X-17206807Y12787782D01*
X-17332045Y13028437D01*
X-17459899Y13277349D01*
X-17587291Y13528506D01*
X-17711144Y13775896D01*
X-17828380Y14013508D01*
X-17935922Y14235329D01*
X-18030692Y14435350D01*
X-18074896Y14530916D01*
X-18139191Y14672269D01*
X-18205345Y14819310D01*
X-18271141Y14966948D01*
X-18334360Y15110093D01*
X-18392784Y15243655D01*
X-18444194Y15362544D01*
X-18486373Y15461669D01*
X-18517100Y15535940D01*
X-18534158Y15580267D01*
X-18536787Y15590746D01*
X-18515453Y15601182D01*
X-18461734Y15624991D01*
X-18382304Y15659360D01*
X-18283836Y15701479D01*
X-18173005Y15748534D01*
X-18056484Y15797715D01*
X-17940948Y15846210D01*
X-17833071Y15891206D01*
X-17739527Y15929894D01*
X-17666990Y15959460D01*
X-17622134Y15977093D01*
X-17610837Y15980833D01*
X-17596208Y15962677D01*
G36*
X18023548Y15972083D02*
G01*
X18077778Y15951845D01*
X18160034Y15919305D01*
X18264868Y15876641D01*
X18386835Y15826032D01*
X18475298Y15788819D01*
X18621500Y15726817D01*
X18733072Y15678730D01*
X18814429Y15642120D01*
X18869987Y15614546D01*
X18904163Y15593570D01*
X18921372Y15576753D01*
X18926031Y15561656D01*
X18922556Y15545838D01*
X18921309Y15542467D01*
X18897189Y15483264D01*
X18857698Y15391376D01*
X18805401Y15272463D01*
X18742864Y15132184D01*
X18672652Y14976201D01*
X18597332Y14810173D01*
X18519468Y14639761D01*
X18441627Y14470624D01*
X18366374Y14308422D01*
X18296275Y14158816D01*
X18246717Y14054280D01*
X18168497Y13892353D01*
X18082255Y13717330D01*
X17989956Y13532927D01*
X17893569Y13342860D01*
X17795058Y13150845D01*
X17696392Y12960598D01*
X17599536Y12775833D01*
X17506457Y12600268D01*
X17419122Y12437618D01*
X17339498Y12291598D01*
X17269551Y12165926D01*
X17211249Y12064315D01*
X17166556Y11990483D01*
X17137442Y11948144D01*
X17127285Y11939241D01*
X17105635Y11949753D01*
X17052865Y11978485D01*
X16974446Y12022366D01*
X16875847Y12078324D01*
X16762538Y12143287D01*
X16711084Y12172976D01*
X16591943Y12241872D01*
X16484159Y12304241D01*
X16393481Y12356752D01*
X16325660Y12396075D01*
X16286446Y12418878D01*
X16280066Y12422624D01*
X16273475Y12437493D01*
X16280649Y12469800D01*
X16303517Y12523980D01*
X16344010Y12604466D01*
X16404058Y12715692D01*
X16421073Y12746513D01*
X16803904Y13459431D01*
X17179860Y14202245D01*
X17542772Y14962527D01*
X17779562Y15484520D01*
X17838793Y15617576D01*
X17892407Y15737321D01*
X17938014Y15838474D01*
X17973223Y15915750D01*
X17995644Y15963868D01*
X18002788Y15977840D01*
X18023548Y15972083D01*
G37*
X18023548Y15972083D02*
X18077778Y15951845D01*
X18160034Y15919305D01*
X18264868Y15876641D01*
X18386835Y15826032D01*
X18475298Y15788819D01*
X18621500Y15726817D01*
X18733072Y15678730D01*
X18814429Y15642120D01*
X18869987Y15614546D01*
X18904163Y15593570D01*
X18921372Y15576753D01*
X18926031Y15561656D01*
X18922556Y15545838D01*
X18921309Y15542467D01*
X18897189Y15483264D01*
X18857698Y15391376D01*
X18805401Y15272463D01*
X18742864Y15132184D01*
X18672652Y14976201D01*
X18597332Y14810173D01*
X18519468Y14639761D01*
X18441627Y14470624D01*
X18366374Y14308422D01*
X18296275Y14158816D01*
X18246717Y14054280D01*
X18168497Y13892353D01*
X18082255Y13717330D01*
X17989956Y13532927D01*
X17893569Y13342860D01*
X17795058Y13150845D01*
X17696392Y12960598D01*
X17599536Y12775833D01*
X17506457Y12600268D01*
X17419122Y12437618D01*
X17339498Y12291598D01*
X17269551Y12165926D01*
X17211249Y12064315D01*
X17166556Y11990483D01*
X17137442Y11948144D01*
X17127285Y11939241D01*
X17105635Y11949753D01*
X17052865Y11978485D01*
X16974446Y12022366D01*
X16875847Y12078324D01*
X16762538Y12143287D01*
X16711084Y12172976D01*
X16591943Y12241872D01*
X16484159Y12304241D01*
X16393481Y12356752D01*
X16325660Y12396075D01*
X16286446Y12418878D01*
X16280066Y12422624D01*
X16273475Y12437493D01*
X16280649Y12469800D01*
X16303517Y12523980D01*
X16344010Y12604466D01*
X16404058Y12715692D01*
X16421073Y12746513D01*
X16803904Y13459431D01*
X17179860Y14202245D01*
X17542772Y14962527D01*
X17779562Y15484520D01*
X17838793Y15617576D01*
X17892407Y15737321D01*
X17938014Y15838474D01*
X17973223Y15915750D01*
X17995644Y15963868D01*
X18002788Y15977840D01*
X18023548Y15972083D01*
M02*
