G04 #@! TF.GenerationSoftware,KiCad,Pcbnew,5.1.5+dfsg1-2build2*
G04 #@! TF.CreationDate,2021-04-24T09:41:38-04:00*
G04 #@! TF.ProjectId,12,31322e6b-6963-4616-945f-706362585858,rev?*
G04 #@! TF.SameCoordinates,Original*
G04 #@! TF.FileFunction,Legend,Bot*
G04 #@! TF.FilePolarity,Positive*
%FSLAX46Y46*%
G04 Gerber Fmt 4.6, Leading zero omitted, Abs format (unit mm)*
G04 Created by KiCad (PCBNEW 5.1.5+dfsg1-2build2) date 2021-04-24 09:41:38*
%MOMM*%
%LPD*%
G04 APERTURE LIST*
%ADD10C,0.010000*%
G04 APERTURE END LIST*
D10*
G36*
X-3881803Y2979208D02*
G01*
X-3769704Y2808904D01*
X-3657291Y2638166D01*
X-3548422Y2472849D01*
X-3446952Y2318808D01*
X-3356738Y2181898D01*
X-3281638Y2067975D01*
X-3225508Y1982891D01*
X-3220470Y1975261D01*
X-3036258Y1696272D01*
X-2380671Y2699967D01*
X-1725083Y3703662D01*
X-1317625Y3703914D01*
X-1191524Y3703534D01*
X-1081289Y3702326D01*
X-993379Y3700434D01*
X-934253Y3698000D01*
X-910368Y3695168D01*
X-910166Y3694875D01*
X-921789Y3676298D01*
X-955391Y3625566D01*
X-1009077Y3545482D01*
X-1080949Y3438849D01*
X-1169110Y3308469D01*
X-1271664Y3157144D01*
X-1386713Y2987679D01*
X-1512361Y2802874D01*
X-1646710Y2605532D01*
X-1757771Y2442584D01*
X-1897600Y2236953D01*
X-2029951Y2041207D01*
X-2152944Y1858193D01*
X-2264703Y1690758D01*
X-2363351Y1541749D01*
X-2447009Y1414012D01*
X-2513799Y1310396D01*
X-2561846Y1233746D01*
X-2589270Y1186909D01*
X-2595131Y1172887D01*
X-2581718Y1151526D01*
X-2546135Y1098124D01*
X-2490285Y1015466D01*
X-2416070Y906333D01*
X-2325393Y773508D01*
X-2220156Y619775D01*
X-2102261Y447915D01*
X-1973612Y260713D01*
X-1836110Y60950D01*
X-1694610Y-144313D01*
X-1550586Y-353251D01*
X-1413787Y-552038D01*
X-1286086Y-737931D01*
X-1169357Y-908185D01*
X-1065473Y-1060057D01*
X-976310Y-1190805D01*
X-903740Y-1297683D01*
X-849638Y-1377950D01*
X-815878Y-1428861D01*
X-804333Y-1447658D01*
X-824422Y-1451581D01*
X-880385Y-1454914D01*
X-965762Y-1457468D01*
X-1074095Y-1459056D01*
X-1198925Y-1459492D01*
X-1211791Y-1459466D01*
X-1619250Y-1458432D01*
X-2317326Y-393258D01*
X-3015403Y671916D01*
X-3280695Y267166D01*
X-3357757Y149561D01*
X-3452895Y4318D01*
X-3561008Y-160773D01*
X-3676997Y-337925D01*
X-3795763Y-519349D01*
X-3912204Y-697255D01*
X-3978813Y-799042D01*
X-4411640Y-1460500D01*
X-4822168Y-1460500D01*
X-4964681Y-1460147D01*
X-5069988Y-1458812D01*
X-5143212Y-1456084D01*
X-5189477Y-1451551D01*
X-5213907Y-1444802D01*
X-5221624Y-1435425D01*
X-5220417Y-1428503D01*
X-5206664Y-1406274D01*
X-5170735Y-1352024D01*
X-5114537Y-1268548D01*
X-5039978Y-1158639D01*
X-4948966Y-1025093D01*
X-4843407Y-870703D01*
X-4725210Y-698263D01*
X-4596281Y-510568D01*
X-4458530Y-310412D01*
X-4315997Y-103682D01*
X-3423854Y1189142D01*
X-3465009Y1245446D01*
X-3498038Y1291618D01*
X-3550638Y1366402D01*
X-3620429Y1466342D01*
X-3705031Y1587982D01*
X-3802064Y1727866D01*
X-3909147Y1882539D01*
X-4023902Y2048545D01*
X-4143948Y2222428D01*
X-4266906Y2400733D01*
X-4390394Y2580004D01*
X-4512034Y2756785D01*
X-4629446Y2927621D01*
X-4740249Y3089057D01*
X-4842063Y3237635D01*
X-4932509Y3369902D01*
X-5009207Y3482401D01*
X-5069777Y3571676D01*
X-5111838Y3634272D01*
X-5133011Y3666733D01*
X-5135048Y3670338D01*
X-5135874Y3682246D01*
X-5124353Y3691011D01*
X-5095182Y3697103D01*
X-5043058Y3700992D01*
X-4962678Y3703148D01*
X-4848741Y3704041D01*
X-4753476Y3704166D01*
X-4358923Y3704166D01*
X-3881803Y2979208D01*
G37*
X-3881803Y2979208D02*
X-3769704Y2808904D01*
X-3657291Y2638166D01*
X-3548422Y2472849D01*
X-3446952Y2318808D01*
X-3356738Y2181898D01*
X-3281638Y2067975D01*
X-3225508Y1982891D01*
X-3220470Y1975261D01*
X-3036258Y1696272D01*
X-2380671Y2699967D01*
X-1725083Y3703662D01*
X-1317625Y3703914D01*
X-1191524Y3703534D01*
X-1081289Y3702326D01*
X-993379Y3700434D01*
X-934253Y3698000D01*
X-910368Y3695168D01*
X-910166Y3694875D01*
X-921789Y3676298D01*
X-955391Y3625566D01*
X-1009077Y3545482D01*
X-1080949Y3438849D01*
X-1169110Y3308469D01*
X-1271664Y3157144D01*
X-1386713Y2987679D01*
X-1512361Y2802874D01*
X-1646710Y2605532D01*
X-1757771Y2442584D01*
X-1897600Y2236953D01*
X-2029951Y2041207D01*
X-2152944Y1858193D01*
X-2264703Y1690758D01*
X-2363351Y1541749D01*
X-2447009Y1414012D01*
X-2513799Y1310396D01*
X-2561846Y1233746D01*
X-2589270Y1186909D01*
X-2595131Y1172887D01*
X-2581718Y1151526D01*
X-2546135Y1098124D01*
X-2490285Y1015466D01*
X-2416070Y906333D01*
X-2325393Y773508D01*
X-2220156Y619775D01*
X-2102261Y447915D01*
X-1973612Y260713D01*
X-1836110Y60950D01*
X-1694610Y-144313D01*
X-1550586Y-353251D01*
X-1413787Y-552038D01*
X-1286086Y-737931D01*
X-1169357Y-908185D01*
X-1065473Y-1060057D01*
X-976310Y-1190805D01*
X-903740Y-1297683D01*
X-849638Y-1377950D01*
X-815878Y-1428861D01*
X-804333Y-1447658D01*
X-824422Y-1451581D01*
X-880385Y-1454914D01*
X-965762Y-1457468D01*
X-1074095Y-1459056D01*
X-1198925Y-1459492D01*
X-1211791Y-1459466D01*
X-1619250Y-1458432D01*
X-2317326Y-393258D01*
X-3015403Y671916D01*
X-3280695Y267166D01*
X-3357757Y149561D01*
X-3452895Y4318D01*
X-3561008Y-160773D01*
X-3676997Y-337925D01*
X-3795763Y-519349D01*
X-3912204Y-697255D01*
X-3978813Y-799042D01*
X-4411640Y-1460500D01*
X-4822168Y-1460500D01*
X-4964681Y-1460147D01*
X-5069988Y-1458812D01*
X-5143212Y-1456084D01*
X-5189477Y-1451551D01*
X-5213907Y-1444802D01*
X-5221624Y-1435425D01*
X-5220417Y-1428503D01*
X-5206664Y-1406274D01*
X-5170735Y-1352024D01*
X-5114537Y-1268548D01*
X-5039978Y-1158639D01*
X-4948966Y-1025093D01*
X-4843407Y-870703D01*
X-4725210Y-698263D01*
X-4596281Y-510568D01*
X-4458530Y-310412D01*
X-4315997Y-103682D01*
X-3423854Y1189142D01*
X-3465009Y1245446D01*
X-3498038Y1291618D01*
X-3550638Y1366402D01*
X-3620429Y1466342D01*
X-3705031Y1587982D01*
X-3802064Y1727866D01*
X-3909147Y1882539D01*
X-4023902Y2048545D01*
X-4143948Y2222428D01*
X-4266906Y2400733D01*
X-4390394Y2580004D01*
X-4512034Y2756785D01*
X-4629446Y2927621D01*
X-4740249Y3089057D01*
X-4842063Y3237635D01*
X-4932509Y3369902D01*
X-5009207Y3482401D01*
X-5069777Y3571676D01*
X-5111838Y3634272D01*
X-5133011Y3666733D01*
X-5135048Y3670338D01*
X-5135874Y3682246D01*
X-5124353Y3691011D01*
X-5095182Y3697103D01*
X-5043058Y3700992D01*
X-4962678Y3703148D01*
X-4848741Y3704041D01*
X-4753476Y3704166D01*
X-4358923Y3704166D01*
X-3881803Y2979208D01*
G36*
X3217334Y-1460500D02*
G01*
X-508000Y-1460500D01*
X-508000Y-867834D01*
X2540000Y-867834D01*
X2540000Y889000D01*
X-275166Y889000D01*
X-275166Y1481666D01*
X2540000Y1481666D01*
X2540000Y3111500D01*
X-381000Y3111500D01*
X-381000Y3704166D01*
X3217334Y3704166D01*
X3217334Y-1460500D01*
G37*
X3217334Y-1460500D02*
X-508000Y-1460500D01*
X-508000Y-867834D01*
X2540000Y-867834D01*
X2540000Y889000D01*
X-275166Y889000D01*
X-275166Y1481666D01*
X2540000Y1481666D01*
X2540000Y3111500D01*
X-381000Y3111500D01*
X-381000Y3704166D01*
X3217334Y3704166D01*
X3217334Y-1460500D01*
M02*
