G04 #@! TF.GenerationSoftware,KiCad,Pcbnew,5.1.5+dfsg1-2build2*
G04 #@! TF.CreationDate,2021-04-24T09:41:38-04:00*
G04 #@! TF.ProjectId,12,31322e6b-6963-4616-945f-706362585858,rev?*
G04 #@! TF.SameCoordinates,Original*
G04 #@! TF.FileFunction,Legend,Top*
G04 #@! TF.FilePolarity,Positive*
%FSLAX46Y46*%
G04 Gerber Fmt 4.6, Leading zero omitted, Abs format (unit mm)*
G04 Created by KiCad (PCBNEW 5.1.5+dfsg1-2build2) date 2021-04-24 09:41:38*
%MOMM*%
%LPD*%
G04 APERTURE LIST*
%ADD10C,0.010000*%
G04 APERTURE END LIST*
D10*
G36*
X-951661Y-2530912D02*
G01*
X-884409Y-2536921D01*
X-832541Y-2550288D01*
X-782607Y-2573707D01*
X-758485Y-2587476D01*
X-631097Y-2684397D01*
X-535689Y-2802844D01*
X-473341Y-2936568D01*
X-445130Y-3079317D01*
X-452137Y-3224842D01*
X-495440Y-3366890D01*
X-576118Y-3499213D01*
X-596834Y-3523961D01*
X-688681Y-3613292D01*
X-784910Y-3672072D01*
X-897642Y-3705815D01*
X-1026583Y-3719500D01*
X-1120200Y-3721825D01*
X-1187881Y-3716528D01*
X-1245708Y-3701113D01*
X-1302193Y-3676732D01*
X-1440396Y-3589464D01*
X-1545066Y-3476921D01*
X-1614674Y-3341539D01*
X-1647693Y-3185754D01*
X-1650328Y-3122084D01*
X-1635158Y-2969944D01*
X-1587822Y-2839844D01*
X-1504708Y-2722571D01*
X-1485800Y-2702248D01*
X-1399841Y-2623069D01*
X-1315811Y-2571374D01*
X-1221049Y-2542170D01*
X-1102891Y-2530467D01*
X-1047750Y-2529569D01*
X-951661Y-2530912D01*
G37*
X-951661Y-2530912D02*
X-884409Y-2536921D01*
X-832541Y-2550288D01*
X-782607Y-2573707D01*
X-758485Y-2587476D01*
X-631097Y-2684397D01*
X-535689Y-2802844D01*
X-473341Y-2936568D01*
X-445130Y-3079317D01*
X-452137Y-3224842D01*
X-495440Y-3366890D01*
X-576118Y-3499213D01*
X-596834Y-3523961D01*
X-688681Y-3613292D01*
X-784910Y-3672072D01*
X-897642Y-3705815D01*
X-1026583Y-3719500D01*
X-1120200Y-3721825D01*
X-1187881Y-3716528D01*
X-1245708Y-3701113D01*
X-1302193Y-3676732D01*
X-1440396Y-3589464D01*
X-1545066Y-3476921D01*
X-1614674Y-3341539D01*
X-1647693Y-3185754D01*
X-1650328Y-3122084D01*
X-1635158Y-2969944D01*
X-1587822Y-2839844D01*
X-1504708Y-2722571D01*
X-1485800Y-2702248D01*
X-1399841Y-2623069D01*
X-1315811Y-2571374D01*
X-1221049Y-2542170D01*
X-1102891Y-2530467D01*
X-1047750Y-2529569D01*
X-951661Y-2530912D01*
G36*
X-2709160Y-1439334D02*
G01*
X-3365500Y-1439334D01*
X-3365500Y2137833D01*
X-4466166Y2137833D01*
X-4466166Y2595403D01*
X-4273918Y2622613D01*
X-4112864Y2650078D01*
X-3953013Y2685781D01*
X-3804897Y2726835D01*
X-3679050Y2770354D01*
X-3593925Y2809025D01*
X-3500039Y2874573D01*
X-3415991Y2965553D01*
X-3338873Y3086385D01*
X-3265777Y3241489D01*
X-3206833Y3397250D01*
X-3140433Y3587750D01*
X-2719916Y3587750D01*
X-2709160Y-1439334D01*
G37*
X-2709160Y-1439334D02*
X-3365500Y-1439334D01*
X-3365500Y2137833D01*
X-4466166Y2137833D01*
X-4466166Y2595403D01*
X-4273918Y2622613D01*
X-4112864Y2650078D01*
X-3953013Y2685781D01*
X-3804897Y2726835D01*
X-3679050Y2770354D01*
X-3593925Y2809025D01*
X-3500039Y2874573D01*
X-3415991Y2965553D01*
X-3338873Y3086385D01*
X-3265777Y3241489D01*
X-3206833Y3397250D01*
X-3140433Y3587750D01*
X-2719916Y3587750D01*
X-2709160Y-1439334D01*
G36*
X1109533Y3558061D02*
G01*
X1368858Y3493460D01*
X1587500Y3404442D01*
X1682011Y3354596D01*
X1763329Y3301360D01*
X1844210Y3235229D01*
X1937412Y3146695D01*
X1949368Y3134777D01*
X2099372Y2965285D01*
X2212364Y2791189D01*
X2291138Y2605525D01*
X2338489Y2401329D01*
X2357208Y2171637D01*
X2357761Y2116666D01*
X2344023Y1882350D01*
X2301370Y1672617D01*
X2226709Y1478507D01*
X2116948Y1291061D01*
X2034588Y1180107D01*
X1960566Y1091143D01*
X1885427Y1010328D01*
X1804567Y934368D01*
X1713384Y859967D01*
X1607272Y783832D01*
X1481629Y702667D01*
X1331851Y613178D01*
X1153334Y512070D01*
X941474Y396049D01*
X931334Y390560D01*
X702976Y265087D01*
X509571Y154178D01*
X347438Y55092D01*
X212898Y-34915D01*
X102270Y-118586D01*
X11873Y-198665D01*
X-61973Y-277894D01*
X-122949Y-359017D01*
X-164340Y-426070D01*
X-199774Y-496816D01*
X-235505Y-581621D01*
X-266717Y-667310D01*
X-288591Y-740708D01*
X-296333Y-787009D01*
X-275766Y-790063D01*
X-216465Y-792946D01*
X-122029Y-795610D01*
X3944Y-798007D01*
X157854Y-800089D01*
X336102Y-801810D01*
X535091Y-803122D01*
X751220Y-803977D01*
X980890Y-804327D01*
X1016000Y-804334D01*
X2328334Y-804334D01*
X2328334Y-1439334D01*
X-1021821Y-1439334D01*
X-1007214Y-1254125D01*
X-979477Y-1020529D01*
X-934558Y-789231D01*
X-875120Y-569972D01*
X-803829Y-372490D01*
X-723349Y-206524D01*
X-718169Y-197581D01*
X-653995Y-105272D01*
X-562079Y3502D01*
X-449799Y121570D01*
X-324533Y241761D01*
X-193659Y356904D01*
X-64557Y459828D01*
X21167Y521003D01*
X108396Y577518D01*
X223166Y648710D01*
X355932Y728834D01*
X497153Y812147D01*
X637286Y892905D01*
X666750Y909605D01*
X797372Y984210D01*
X923797Y1057912D01*
X1038504Y1126215D01*
X1133972Y1184619D01*
X1202679Y1228628D01*
X1219585Y1240201D01*
X1385543Y1378614D01*
X1517953Y1533220D01*
X1616275Y1699835D01*
X1679970Y1874274D01*
X1708498Y2052353D01*
X1701320Y2229888D01*
X1657896Y2402693D01*
X1577687Y2566584D01*
X1460153Y2717377D01*
X1415672Y2761163D01*
X1265595Y2877830D01*
X1103799Y2957826D01*
X920424Y3005830D01*
X890172Y3010601D01*
X698880Y3021632D01*
X508913Y3001265D01*
X333701Y2951290D01*
X284045Y2929859D01*
X140787Y2839172D01*
X16189Y2713397D01*
X-87538Y2556453D01*
X-168187Y2372258D01*
X-223549Y2164731D01*
X-248030Y1985947D01*
X-260140Y1841500D01*
X-585153Y1841500D01*
X-709382Y1841884D01*
X-797406Y1843502D01*
X-855350Y1847052D01*
X-889339Y1853234D01*
X-905499Y1862744D01*
X-909954Y1876282D01*
X-909993Y1878541D01*
X-900132Y2037694D01*
X-874038Y2217803D01*
X-834925Y2404275D01*
X-786004Y2582515D01*
X-730487Y2737928D01*
X-711134Y2782002D01*
X-594754Y2989352D01*
X-453350Y3164523D01*
X-285672Y3308311D01*
X-90465Y3421515D01*
X133522Y3504933D01*
X387543Y3559362D01*
X536893Y3576915D01*
X833031Y3585746D01*
X1109533Y3558061D01*
G37*
X1109533Y3558061D02*
X1368858Y3493460D01*
X1587500Y3404442D01*
X1682011Y3354596D01*
X1763329Y3301360D01*
X1844210Y3235229D01*
X1937412Y3146695D01*
X1949368Y3134777D01*
X2099372Y2965285D01*
X2212364Y2791189D01*
X2291138Y2605525D01*
X2338489Y2401329D01*
X2357208Y2171637D01*
X2357761Y2116666D01*
X2344023Y1882350D01*
X2301370Y1672617D01*
X2226709Y1478507D01*
X2116948Y1291061D01*
X2034588Y1180107D01*
X1960566Y1091143D01*
X1885427Y1010328D01*
X1804567Y934368D01*
X1713384Y859967D01*
X1607272Y783832D01*
X1481629Y702667D01*
X1331851Y613178D01*
X1153334Y512070D01*
X941474Y396049D01*
X931334Y390560D01*
X702976Y265087D01*
X509571Y154178D01*
X347438Y55092D01*
X212898Y-34915D01*
X102270Y-118586D01*
X11873Y-198665D01*
X-61973Y-277894D01*
X-122949Y-359017D01*
X-164340Y-426070D01*
X-199774Y-496816D01*
X-235505Y-581621D01*
X-266717Y-667310D01*
X-288591Y-740708D01*
X-296333Y-787009D01*
X-275766Y-790063D01*
X-216465Y-792946D01*
X-122029Y-795610D01*
X3944Y-798007D01*
X157854Y-800089D01*
X336102Y-801810D01*
X535091Y-803122D01*
X751220Y-803977D01*
X980890Y-804327D01*
X1016000Y-804334D01*
X2328334Y-804334D01*
X2328334Y-1439334D01*
X-1021821Y-1439334D01*
X-1007214Y-1254125D01*
X-979477Y-1020529D01*
X-934558Y-789231D01*
X-875120Y-569972D01*
X-803829Y-372490D01*
X-723349Y-206524D01*
X-718169Y-197581D01*
X-653995Y-105272D01*
X-562079Y3502D01*
X-449799Y121570D01*
X-324533Y241761D01*
X-193659Y356904D01*
X-64557Y459828D01*
X21167Y521003D01*
X108396Y577518D01*
X223166Y648710D01*
X355932Y728834D01*
X497153Y812147D01*
X637286Y892905D01*
X666750Y909605D01*
X797372Y984210D01*
X923797Y1057912D01*
X1038504Y1126215D01*
X1133972Y1184619D01*
X1202679Y1228628D01*
X1219585Y1240201D01*
X1385543Y1378614D01*
X1517953Y1533220D01*
X1616275Y1699835D01*
X1679970Y1874274D01*
X1708498Y2052353D01*
X1701320Y2229888D01*
X1657896Y2402693D01*
X1577687Y2566584D01*
X1460153Y2717377D01*
X1415672Y2761163D01*
X1265595Y2877830D01*
X1103799Y2957826D01*
X920424Y3005830D01*
X890172Y3010601D01*
X698880Y3021632D01*
X508913Y3001265D01*
X333701Y2951290D01*
X284045Y2929859D01*
X140787Y2839172D01*
X16189Y2713397D01*
X-87538Y2556453D01*
X-168187Y2372258D01*
X-223549Y2164731D01*
X-248030Y1985947D01*
X-260140Y1841500D01*
X-585153Y1841500D01*
X-709382Y1841884D01*
X-797406Y1843502D01*
X-855350Y1847052D01*
X-889339Y1853234D01*
X-905499Y1862744D01*
X-909954Y1876282D01*
X-909993Y1878541D01*
X-900132Y2037694D01*
X-874038Y2217803D01*
X-834925Y2404275D01*
X-786004Y2582515D01*
X-730487Y2737928D01*
X-711134Y2782002D01*
X-594754Y2989352D01*
X-453350Y3164523D01*
X-285672Y3308311D01*
X-90465Y3421515D01*
X133522Y3504933D01*
X387543Y3559362D01*
X536893Y3576915D01*
X833031Y3585746D01*
X1109533Y3558061D01*
M02*
