<?xml version="1.0" encoding="UTF-8" standalone="no"?>
<svg
   xmlns:dc="http://purl.org/dc/elements/1.1/"
   xmlns:cc="http://creativecommons.org/ns#"
   xmlns:rdf="http://www.w3.org/1999/02/22-rdf-syntax-ns#"
   xmlns:svg="http://www.w3.org/2000/svg"
   xmlns="http://www.w3.org/2000/svg"
   xmlns:sodipodi="http://sodipodi.sourceforge.net/DTD/sodipodi-0.dtd"
   xmlns:inkscape="http://www.inkscape.org/namespaces/inkscape"
   width="100.0mm"
   height="100.0mm"
   viewBox="0 0 100.0 100.0"
   version="1.1"
   id="svg8"
   sodipodi:docname="sheep_tile.svg"
   inkscape:version="1.0.2 (394de47547, 2021-03-26)">
  <defs
     id="defs2" />
  <sodipodi:namedview
     id="base"
     pagecolor="#ffffff"
     bordercolor="#666666"
     borderopacity="1.0"
     inkscape:pageopacity="0.0"
     inkscape:pageshadow="2"
     inkscape:zoom="5.0403125"
     inkscape:cx="112.59222"
     inkscape:cy="181.04036"
     inkscape:document-units="mm"
     inkscape:current-layer="g842"
     inkscape:document-rotation="0"
     showgrid="false"
     inkscape:window-width="2146"
     inkscape:window-height="2096"
     inkscape:window-x="1694"
     inkscape:window-y="27"
     inkscape:window-maximized="0" />
  <metadata
     id="metadata5">
    <rdf:RDF>
      <cc:Work
         rdf:about="">
        <dc:format>image/svg+xml</dc:format>
        <dc:type
           rdf:resource="http://purl.org/dc/dcmitype/StillImage" />
        <dc:title />
      </cc:Work>
    </rdf:RDF>
  </metadata>
  <g
     inkscape:label="[fixed] BG"
     inkscape:groupmode="layer"
     sodipodi:insensitive="true"
     id="g838"
     style="display:inline">
    <rect
       x="0"
       y="0"
       width="100"
       height="100"
       style="fill:#ffffff;fill-opacity:1;stroke:none"
       id="rect836" />
  </g>
  <g
     inkscape:label="Edge.Cuts"
     inkscape:groupmode="layer"
     id="g840"
     style="display:inline">
    <path
       id="path864"
       style="fill:none;stroke:#000600;stroke-width:0.104494;stroke-opacity:1"
       d="M 64.9801 75.9228 L 35.0404 75.9346 L 20.0603 50.012 L 35.0199 24.0776 L 64.9596 24.0658 L 79.9397 49.9884 L 64.9801 75.9228" />
    <path
       id="path867"
       style="fill:none;stroke:#000600;stroke-width:0.0889503;stroke-opacity:1"
       d="M 58.0055 50.0002 L 57.9957 50.3971 L 57.9664 50.7914 L 57.9178 51.1823 L 57.8503 51.5693 L 57.7641 51.9515 L 57.6595 52.3285 L 57.5367 52.6994 L 57.3961 53.0638 L 57.2379 53.4208 L 57.0624 53.7699 L 56.8699 54.1104 L 56.6605 54.4416 L 56.4346 54.763 L 56.1926 55.0737 L 55.9345 55.3733 L 55.6608 55.6609 L 55.3731 55.9347 L 55.0736 56.1927 L 54.7628 56.4348 L 54.4415 56.6607 L 54.1102 56.87 L 53.7697 57.0626 L 53.4206 57.2381 L 53.0636 57.3963 L 52.6993 57.5369 L 52.3283 57.6597 L 51.9514 57.7643 L 51.5691 57.8505 L 51.1822 57.918 L 50.7912 57.9665 L 50.397 57.9959 L 50 58.0057 L 49.603 57.9959 L 49.2088 57.9665 L 48.8178 57.918 L 48.4309 57.8505 L 48.0486 57.7643 L 47.6717 57.6597 L 47.3007 57.5369 L 46.9364 57.3963 L 46.5794 57.2381 L 46.2303 57.0626 L 45.8898 56.87 L 45.5585 56.6607 L 45.2372 56.4348 L 44.9264 56.1927 L 44.6269 55.9347 L 44.3392 55.6609 L 44.0655 55.3733 L 43.8074 55.0737 L 43.5654 54.763 L 43.3395 54.4416 L 43.1301 54.1104 L 42.9376 53.7699 L 42.7621 53.4208 L 42.6039 53.0638 L 42.4633 52.6994 L 42.3405 52.3285 L 42.2359 51.9515 L 42.1497 51.5693 L 42.0822 51.1823 L 42.0336 50.7914 L 42.0043 50.3971 L 41.9945 50.0002 L 42.0049 49.5882 L 42.0358 49.1817 L 42.0867 48.781 L 42.1571 48.3868 L 42.2465 47.9995 L 42.3544 47.6196 L 42.4802 47.2476 L 42.6236 46.8841 L 42.7839 46.5294 L 42.9607 46.1843 L 43.1535 45.849 L 43.3617 45.5242 L 43.5849 45.2103 L 43.8225 44.9079 L 44.0742 44.6174 L 44.3392 44.3394 L 44.6173 44.0743 L 44.9077 43.8227 L 45.2102 43.5851 L 45.524 43.3619 L 45.8488 43.1536 L 46.1841 42.9609 L 46.5293 42.7841 L 46.8839 42.6238 L 47.2474 42.4804 L 47.6194 42.3546 L 47.9993 42.2467 L 48.3866 42.1573 L 48.7808 42.0869 L 49.1815 42.036 L 49.588 42.0051 L 50 41.9947 L 50.412 42.0051 L 50.8185 42.036 L 51.2192 42.0869 L 51.6134 42.1573 L 52.0007 42.2467 L 52.3806 42.3546 L 52.7526 42.4804 L 53.1161 42.6238 L 53.4707 42.7841 L 53.8159 42.9609 L 54.1512 43.1536 L 54.476 43.3619 L 54.7898 43.5851 L 55.0923 43.8227 L 55.3827 44.0743 L 55.6608 44.3394 L 55.9258 44.6174 L 56.1775 44.9079 L 56.4151 45.2103 L 56.6383 45.5242 L 56.8465 45.849 L 57.0393 46.1843 L 57.2161 46.5294 L 57.3764 46.8841 L 57.5198 47.2476 L 57.6456 47.6196 L 57.7535 47.9995 L 57.8429 48.3868 L 57.9133 48.781 L 57.9642 49.1817 L 57.9951 49.5882 L 58.0055 50.0002 L 58.0055 50.0002" />
  </g>
  <g
     inkscape:label="B.Cu"
     inkscape:groupmode="layer"
     id="g842"
     style="display:none">
    <path
       id="path842"
       style="display:inline;fill:#000000;fill-opacity:1;stroke:none;stroke-width:0.394938;stroke-opacity:1"
       d="m 243.33594,94.738281 c -36.26477,0.01474 -72.52821,0.03011 -108.79297,0.04492 -18.12008,31.414869 -36.24125,62.829279 -54.361329,94.244139 18.144684,31.39764 36.288909,62.79572 54.433589,94.19336 36.26477,-0.0174 72.53016,-0.0335 108.79493,-0.0508 18.12008,-31.41486 36.24125,-62.83123 54.36132,-94.24609 -18.14468,-31.39518 -36.29085,-62.79037 -54.43554,-94.185551 z m -53.75977,60.195309 c 11.32973,0.15667 22.32168,6.31589 28.25977,16.01368 8.32465,12.77751 6.35513,31.01922 -4.4668,41.7539 -10.21969,10.87541 -27.85926,13.50379 -40.80664,6.08203 -13.00567,-6.87775 -20.19472,-22.80958 -16.83203,-37.11718 2.98045,-14.65564 16.62603,-26.20166 31.57812,-26.6836 0.75693,-0.0436 1.51227,-0.0593 2.26758,-0.0488 z"
       transform="scale(0.26458333)" />
  </g>
  <g
     inkscape:label="B.Mask-disabled"
     inkscape:groupmode="layer"
     id="g844"
     style="display:inline" />
  <g
     inkscape:label="B.SilkS"
     inkscape:groupmode="layer"
     id="g846"
     style="display:none">
    <text
       xml:space="preserve"
       style="font-style:normal;font-weight:normal;font-size:7.05556px;line-height:1.25;font-family:sans-serif;letter-spacing:0px;word-spacing:0px;display:inline;fill:#000000;fill-opacity:1;stroke:none;stroke-width:0.264583"
       x="-54.994514"
       y="35.143505"
       id="text847"
       transform="scale(-1,1)"><tspan
         sodipodi:role="line"
         id="tspan845"
         x="-54.994514"
         y="35.143505"
         style="font-style:normal;font-variant:normal;font-weight:normal;font-stretch:normal;font-size:7.05556px;font-family:FreeSans;-inkscape-font-specification:FreeSans;stroke-width:0.264583">EX</tspan></text>
  </g>
  <g
     inkscape:label="F.Cu"
     inkscape:groupmode="layer"
     id="g848"
     style="display:inline">
    <path
       id="path1529"
       style="fill:#696969;fill-opacity:1;stroke-width:0.861154"
       d="M 132.86914 120.83008 C 125.06857 120.67734 119.79109 125.0547 117.58594 128.51562 A 8.3573664 9.8882689 0 0 0 116.16211 137.0957 A 7.1916561 8.5090237 0 0 0 116.62695 138.53516 L 109.61914 151.01172 A 5.3200205 6.2945414 0 0 0 109.12891 157.19141 C 109.31637 157.68343 109.50979 158.21626 109.70508 158.77344 A 5.3287466 6.3048663 0 0 0 115.24219 162.5957 C 116.95405 162.3557 118.38591 162.53878 119.38281 163.12695 C 120.47661 163.77207 124.86427 166.91958 125.86328 167.81641 C 127.61185 169.38719 131.11497 180.12219 132.67969 188.69922 C 134.92896 201.02626 136.31276 208.56401 147.28711 216.42578 A 33.748729 39.93082 0 0 0 152.20117 229.96484 C 156.34796 237.11456 154.56085 249.16 153.49414 256.35742 C 153.34372 257.36853 153.20255 258.32265 153.0957 259.14648 C 152.98228 260.01697 151.30932 262.84995 149.51562 265.20898 C 149.50513 265.22218 149.49337 265.2368 149.48438 265.25 A 2.884787 3.4132223 0 0 0 151.58008 270.87891 L 161.98633 271.28711 L 162.04688 271.28711 C 162.08716 271.28711 162.12827 271.28625 162.16797 271.28125 A 4.7660517 5.6390972 0 0 0 165.96484 268.35938 A 4.0195035 4.7557967 0 0 0 166.25586 267.51758 L 170.79883 267.79688 C 170.82903 267.79688 170.86293 267.80078 170.89453 267.80078 C 170.93457 267.80078 170.97367 267.79992 171.01367 267.79492 A 4.0020516 4.7351469 0 0 0 174.2207 260.71094 L 174.15234 260.57227 C 173.47711 259.18693 172.63788 257.4634 172.58008 256.1543 C 172.0231 243.58479 174.68972 236.65392 180.88086 226.54492 A 83.704258 99.037204 0 0 0 193.15039 227.60938 A 79.740119 94.346916 0 0 0 215.86133 223.76367 C 218.69918 231.45384 224.73312 237.89483 229.23438 242.69727 C 231.16496 244.75688 233.56358 247.31704 233.85938 248.24805 A 2.9187895 3.4534533 0 0 1 233.26953 250.79688 L 230.4668 255.03906 A 3.7228105 4.4047546 0 0 0 233.39062 262.15625 C 233.45379 262.15625 233.51823 262.15634 233.58203 262.15234 L 237.10742 262.04492 A 3.7914176 4.4859294 0 0 0 237.47266 263.28125 A 3.6785775 4.3524191 0 0 0 240.75781 265.64453 C 240.83095 265.64453 240.90647 265.64172 240.98047 265.63672 L 249.70117 265.08594 A 2.9187895 3.4534533 0 0 0 252.35352 260.74219 L 251.71289 257.92578 C 251.84317 255.42933 252.69807 239.94637 254.14844 233.98438 C 254.86339 231.04716 254.44523 227.54127 252.9043 223.56055 C 250.76548 218.03261 250.6207 211.64163 252.49414 205.56641 C 253.95684 200.82378 254.17921 194.28741 253.23438 183.70703 C 253.1742 183.04163 253.1063 182.39898 253.0293 181.77344 C 253.90854 182.97858 254.79995 184.24352 255.60156 185.45508 A 2.3025336 2.7243117 0 0 0 259.70117 183.45312 C 258.28673 169.52461 250.15629 164.25185 246.72656 162.63086 A 4.9435863 5.8491524 0 0 1 245.10742 161.41406 C 237.24324 152.41834 223.39768 148.7977 202.7793 150.3457 C 176.49725 152.31738 170.2694 146.1368 161.64844 137.58398 C 157.87839 133.84571 153.60591 129.6046 147.125 125.58008 C 141.73399 122.23202 136.95516 120.91008 132.86914 120.83008 z M 189.57617 154.93359 C 200.9059 155.09026 211.89785 161.24948 217.83594 170.94727 C 226.16059 183.72478 224.19107 201.96649 213.36914 212.70117 C 203.14945 223.57658 185.50988 226.20496 172.5625 218.7832 C 159.55683 211.90545 152.36778 195.97362 155.73047 181.66602 C 158.71092 167.01038 172.3565 155.46436 187.30859 154.98242 C 188.06552 154.93877 188.82086 154.92315 189.57617 154.93359 z "
       transform="scale(0.26458333)" />
  </g>
  <g
     inkscape:label="F.Mask-disabled"
     inkscape:groupmode="layer"
     id="g850" />
  <g
     inkscape:label="F.SilkS"
     inkscape:groupmode="layer"
     id="g852"
     style="display:inline">
    <path
       id="path903"
       style="stroke-width:0.327308"
       d="m 132.86914,120.83008 c -7.80057,-0.15274 -13.07805,4.2246 -15.2832,7.68554 a 8.3573666,9.8882691 0 0 0 -1.42383,8.58008 7.1916563,8.5090239 0 0 0 0.46484,1.43946 l -7.00781,12.47656 a 5.3200207,6.2945416 0 0 0 -0.49023,6.17969 c 0.18746,0.49202 0.38088,1.02485 0.57617,1.58203 a 5.3287468,6.3048665 0 0 0 5.53711,3.82226 c 1.71186,-0.24 3.14372,-0.0569 4.14062,0.53125 1.0938,0.64512 5.48146,3.79263 6.48047,4.68946 1.74857,1.57078 5.25169,12.30578 6.81641,20.88281 2.24927,12.32704 3.63307,19.86479 14.60742,27.72656 a 33.748729,39.930822 0 0 0 4.91406,13.53906 c 4.14679,7.14972 2.35968,19.19516 1.29297,26.39258 -0.15042,1.01111 -0.29159,1.96523 -0.39844,2.78906 -0.11342,0.87049 -1.78638,3.70347 -3.58008,6.0625 -0.0106,0.0132 -0.0218,0.0278 -0.0312,0.041 a 2.884787,3.4132223 0 0 0 2.0957,5.62891 l 10.40625,0.4082 h 0.0605 c 0.0403,0 0.0814,-9.5e-4 0.12109,-0.006 a 4.7660519,5.6390974 0 0 0 3.79687,-2.92187 4.0195037,4.7557969 0 0 0 0.29102,-0.8418 l 4.54297,0.2793 c 0.0302,0 0.0641,0.004 0.0957,0.004 0.04,0 0.0791,-9.4e-4 0.11914,-0.006 a 4.0020518,4.7351471 0 0 0 3.20703,-7.08398 l -0.0684,-0.13867 c -0.67523,-1.38534 -1.51449,-3.10887 -1.57226,-4.41797 -0.55698,-12.56951 2.10964,-19.50038 8.30078,-29.60938 a 83.70426,99.037206 0 0 0 12.26953,1.06446 79.740121,94.346918 0 0 0 22.71094,-3.84571 c 2.83785,7.69017 8.87179,14.13116 13.37305,18.9336 1.9306,2.05961 4.3292,4.61977 4.625,5.55078 a 2.9187895,3.4534533 0 0 1 -0.58985,2.54883 l -2.80273,4.24218 a 3.7228105,4.4047548 0 0 0 2.92382,7.11719 c 0.0632,0 0.12759,-3.8e-4 0.19141,-0.004 l 3.52539,-0.10742 a 3.7914176,4.4859296 0 0 0 0.36524,1.23633 3.6785775,4.3524193 0 0 0 3.28515,2.36328 c 0.0731,0 0.14866,-0.003 0.22266,-0.008 l 8.7207,-0.55078 a 2.9187895,3.4534533 0 0 0 2.65235,-4.34375 l -0.64063,-2.81641 c 0.13028,-2.49645 0.98518,-17.97939 2.43555,-23.9414 0.71495,-2.93722 0.29679,-6.44311 -1.24414,-10.42383 -2.13882,-5.52794 -2.2836,-11.91892 -0.41016,-17.99414 1.4627,-4.74263 1.68509,-11.279 0.74024,-21.85938 -0.0602,-0.6654 -0.12806,-1.30805 -0.20508,-1.93359 0.87924,1.20514 1.77065,2.47008 2.57226,3.68164 a 2.3025336,2.7243117 0 0 0 4.09961,-2.00196 c -1.41444,-13.92853 -9.54488,-19.20127 -12.97461,-20.82226 a 4.9435865,5.8491526 0 0 1 -1.61914,-1.2168 c -7.86418,-8.99572 -21.70974,-12.61636 -42.32812,-11.06836 -26.28205,1.97168 -32.5099,-4.2089 -41.13086,-12.76172 -3.77005,-3.73827 -8.04253,-7.97938 -14.52344,-12.0039 -5.39101,-3.34806 -10.16984,-4.67 -14.25586,-4.75 z m -0.55664,4.25781 c 3.65924,-0.0233 8.05889,1.12322 13.13477,4.27539 6.13638,3.80948 10.07319,7.71706 13.88085,11.49414 8.91525,8.84476 15.95601,15.82954 43.67969,13.75 19.54656,-1.46719 32.49644,1.76383 39.58789,9.87696 a 8.5427248,10.107581 0 0 0 2.79102,2.11328 16.947634,20.052102 0 0 1 9.35937,11.01367 c -2.09896,-2.81191 -3.88535,-5.01349 -4,-5.15625 a 1.8054368,2.1361567 0 0 0 -2.99218,2.22461 30.793829,36.434642 0 0 1 1.88671,9.47851 c 0.88197,9.88934 0.71873,15.85422 -0.54296,19.94532 -2.20144,7.13797 -2.01515,14.67939 0.52148,21.23632 1.17113,3.02623 1.52771,5.53537 1.05859,7.46289 -1.68297,6.91474 -2.55178,24.47661 -2.58789,25.22071 a 1.8054368,2.1361567 0 0 0 0.0586,0.67578 l 0.49414,2.17578 -7.86328,0.49805 a 0.09267912,0.10965604 0 0 1 -0.10742,-0.0703 0.09027182,0.10680782 0 0 1 0.01,-0.14257 l 2.80274,-4.24414 a 6.5489208,7.7485519 0 0 0 1.3164,-5.83008 c -0.61633,-5.15098 -2.0288,-11.96178 -5.2539,-15.16602 -0.14113,-0.13992 -0.70409,-0.78058 -1.30079,-1.45703 -2.81768,-3.19463 -8.68167,-9.84135 -12.06054,-12.0918 -5.35999,-3.56959 -7.26614,-10.06152 -7.67578,-16.4082 -0.90695,1.59278 -1.95258,3.1082 -3.12696,4.52734 0.51084,2.99834 1.33982,5.6912 2.50196,8.02735 -18.67604,7.66382 -36.07798,4.13242 -41.71094,2.62109 a 19.642851,23.241028 0 0 0 0.14258,-0.53125 c -1.14915,-0.46516 -2.27115,-1.00646 -3.36329,-1.61133 -0.54842,2.28733 -1.50565,4.69584 -3.04101,7.16211 -7.40229,11.89127 -8.12987,27.68843 -8.4043,33.63477 a 9.9599924,11.784464 0 0 0 1.29492,6.48633 1.2036245,1.4241044 0 0 1 -0.82031,0.73437 l -8.76758,-0.34375 c 1.31165,-1.87055 3.18022,-4.8364 3.44532,-6.87109 0.1014,-0.7797 0.23382,-1.66977 0.38672,-2.70117 1.16239,-7.8397 3.10755,-20.96113 -1.87305,-29.54883 -6.4695,-11.15714 -5.29584,-25.44336 -5.28321,-25.58399 a 1.8054368,2.1361567 0 1 0 -3.58984,-0.45507 38.584588,45.652513 0 0 0 0.14844,9.16406 c -7.18216,-6.11507 -8.2851,-12.14793 -10.24219,-22.875 a 85.134164,100.72904 0 0 0 -3.34375,-13.2168 c -2.61066,-8.18361 -4.27161,-9.677 -4.81836,-10.16797 -0.14294,-0.1282 -0.33621,-0.28984 -0.5664,-0.47461 -0.0257,-6.08484 1.67968,-10.76814 5.08203,-13.94531 a 20.53263,24.293797 0 0 0 3.74023,0.41992 c 4.80788,0 8.07318,-2.13528 9.44922,-3.25 1.97304,-1.59855 3.27929,-3.57144 3.49805,-5.27929 a 2.7848862,3.2950216 0 0 0 -1.91602,-3.66211 c -3.92232,-1.3732 -9.25093,0.21857 -11.99219,1.24609 -0.86841,-1.85845 -2.47455,-3.11323 -4.64257,-3.55078 a 8.4253712,9.9687307 0 0 0 -4.85352,0.7832 c -3.10174,1.63772 -4.53899,1.34297 -5.11914,1.02149 -0.18864,-0.10432 -0.76245,-0.42175 -1.08984,-1.79102 a 4.7269342,5.5928141 0 0 1 0.83398,-4.8457 c 1.70031,-2.6702 5.74501,-5.95915 11.84375,-5.99805 z m -2.94336,14.97656 a 4.836765,5.7227637 0 0 1 0.72266,0.0664 c 2.12349,0.42722 2.27455,1.77055 2.33984,2.34375 a 3.1640279,3.7436146 0 0 1 -1.34961,3.49219 c -4.21148,3.51575 -6.63257,8.77896 -7.11914,15.35156 -1.24365,-0.88686 -2.41222,-1.6863 -2.9707,-2.01563 -1.65167,-0.97444 -3.73167,-1.29278 -6.17774,-0.94921 a 1.7073413,2.0200921 0 0 1 -1.77343,-1.2168 c -0.20848,-0.59564 -0.41694,-1.16767 -0.61914,-1.69922 a 1.6968096,2.0076312 0 0 1 0.15624,-1.97852 c 0.0113,-0.0185 0.0226,-0.0363 0.0332,-0.0566 l 6.62305,-11.79101 c 2.04616,1.11081 4.68931,0.78442 8.08203,-1.00781 a 4.836765,5.7227637 0 0 1 2.05273,-0.53907 z m 14.74805,1.89258 c 0.39524,0.0109 0.78065,0.044 1.14843,0.10352 -1.16179,1.67047 -4.60477,4.3655 -9.76953,4.05468 a 6.6078985,7.8183334 0 0 0 0.53907,-2.42578 c 2.00761,-0.7894 5.31534,-1.80891 8.08203,-1.73242 z m 76.00976,80.14063 a 17.427279,20.619608 0 0 0 4.28516,3.99218 c 2.98107,1.98556 8.8327,8.62147 11.33203,11.45508 0.8639,0.97943 1.25615,1.42185 1.47852,1.64258 1.77986,1.76874 3.27346,6.43937 3.99804,12.49609 a 2.9220993,3.4573694 0 0 1 -0.58398,2.59961 l -2.27734,3.45118 -4.89844,0.14843 c -0.0185,0 -0.038,-8.7e-4 -0.0566,0.002 a 0.09297997,0.11001203 0 0 1 -0.10742,-0.0703 0.09027182,0.10680782 0 0 1 0.01,-0.14257 l 2.80469,-4.24219 a 6.5489208,7.7485519 0 0 0 1.31445,-5.83008 c -0.25066,-2.09664 -2.05213,-4.10097 -5.77734,-8.07422 -4.17116,-4.45033 -9.74604,-10.39744 -12.33985,-17.08789 0.27258,-0.11357 0.54484,-0.22196 0.81836,-0.33984 z m -45.40429,3.03906 c 0.58285,0.17053 1.32852,0.37377 2.21679,0.58984 -5.87038,9.90571 -8.54588,17.62161 -7.96875,30.6543 0.10322,2.3309 1.18162,4.54728 2.04883,6.32812 l 0.0684,0.13672 a 0.36921184,0.43684407 0 0 1 0.004,0.44141 0.37733631,0.44645677 0 0 1 -0.25586,0.23633 l -5.28516,-0.32617 a 6.3424993,7.5043181 0 0 1 -0.43555,-3.17383 c 0.25849,-5.5978 0.94357,-20.46576 7.70704,-31.33203 a 24.526857,29.019687 0 0 0 1.90039,-3.55469 z"
       transform="scale(0.26458333)" />
  </g>
</svg>
